<?xml version="1.0" encoding="iso-8859-1"?>
<!-- Generator: Adobe Illustrator 19.0.0, SVG Export Plug-In . SVG Version: 6.00 Build 0)  -->
<svg version="1.1" id="Layer_1" xmlns="http://www.w3.org/2000/svg" xmlns:xlink="http://www.w3.org/1999/xlink" x="0px" y="0px"
	 viewBox="0 0 512 512" style="enable-background:new 0 0 512 512;" xml:space="preserve">
<g>
	<g>
		<path d="M480,277.333c-17.643,0-32,14.357-32,32V320h-21.333v-53.333c0-17.643-14.357-32-32-32s-32,14.357-32,32V384h-21.333
			v-10.667c0-17.643-14.357-32-32-32c-17.643,0-32,14.357-32,32v21.333c0,29.397,23.915,53.333,53.333,53.333h32v53.333
			c0,5.888,4.779,10.667,10.667,10.667H416c5.888,0,10.667-4.779,10.667-10.667V384H480c17.643,0,32-14.357,32-32v-42.667
			C512,291.691,497.643,277.333,480,277.333z"/>
	</g>
</g>
<g>
	<g>
		<path d="M181.333,85.333c-52.928,0-96,43.072-96,96c0,52.928,43.072,96,96,96c52.928,0,96-43.072,96-96
			C277.333,128.405,234.261,85.333,181.333,85.333z"/>
	</g>
</g>
<g>
	<g>
		<path d="M181.333,0c-5.888,0-10.667,4.779-10.667,10.667v42.667c0,5.888,4.779,10.667,10.667,10.667S192,59.221,192,53.333V10.667
			C192,4.779,187.221,0,181.333,0z"/>
	</g>
</g>
<g>
	<g>
		<path d="M181.333,298.667c-5.888,0-10.667,4.779-10.667,10.667V352c0,5.888,4.779,10.667,10.667,10.667S192,357.888,192,352
			v-42.667C192,303.445,187.221,298.667,181.333,298.667z"/>
	</g>
</g>
<g>
	<g>
		<path d="M126.571,65.152l-21.333-36.949c-2.944-5.12-9.472-6.827-14.571-3.904c-5.099,2.944-6.848,9.472-3.904,14.571
			l21.333,36.949c1.963,3.435,5.568,5.333,9.237,5.333c1.813,0,3.648-0.448,5.333-1.429
			C127.765,76.779,129.515,70.251,126.571,65.152z"/>
	</g>
</g>
<g>
	<g>
		<path d="M275.904,323.797l-21.333-36.949c-2.923-5.12-9.472-6.848-14.571-3.904c-5.099,2.944-6.848,9.472-3.904,14.571
			l21.333,36.949c1.963,3.435,5.568,5.333,9.237,5.333c1.813,0,3.648-0.448,5.333-1.429
			C277.099,335.424,278.848,328.896,275.904,323.797z"/>
	</g>
</g>
<g>
	<g>
		<path d="M75.819,108.096L38.891,86.763c-5.077-2.923-11.648-1.216-14.571,3.904c-2.965,5.099-1.216,11.627,3.883,14.571
			l36.928,21.333c1.707,0.981,3.541,1.429,5.355,1.429c3.669,0,7.275-1.899,9.237-5.333
			C82.688,117.568,80.939,111.04,75.819,108.096z"/>
	</g>
</g>
<g>
	<g>
		<path d="M334.464,257.429l-36.928-21.333c-5.099-2.901-11.627-1.216-14.571,3.904c-2.965,5.099-1.216,11.627,3.883,14.571
			l36.928,21.333c1.707,0.981,3.541,1.429,5.355,1.429c3.669,0,7.275-1.899,9.237-5.333
			C341.333,266.901,339.584,260.373,334.464,257.429z"/>
	</g>
</g>
<g>
	<g>
		<path d="M53.333,170.667H10.667C4.779,170.667,0,175.445,0,181.333S4.779,192,10.667,192h42.667C59.221,192,64,187.221,64,181.333
			S59.221,170.667,53.333,170.667z"/>
	</g>
</g>
<g>
	<g>
		<path d="M352,170.667h-42.667c-5.888,0-10.667,4.779-10.667,10.667S303.445,192,309.333,192H352
			c5.888,0,10.667-4.779,10.667-10.667S357.888,170.667,352,170.667z"/>
	</g>
</g>
<g>
	<g>
		<path d="M79.701,240c-2.923-5.12-9.472-6.848-14.549-3.904l-36.928,21.333c-5.099,2.944-6.848,9.472-3.904,14.571
			c1.941,3.435,5.547,5.333,9.216,5.333c1.813,0,3.648-0.448,5.333-1.429l36.928-21.333C80.896,251.627,82.645,245.099,79.701,240z"
			/>
	</g>
</g>
<g>
	<g>
		<path d="M338.347,90.667c-2.944-5.12-9.451-6.869-14.571-3.904l-36.928,21.333c-5.099,2.944-6.848,9.472-3.904,14.571
			c1.963,3.435,5.568,5.333,9.237,5.333c1.813,0,3.648-0.448,5.333-1.429l36.928-21.333
			C339.541,102.293,341.291,95.765,338.347,90.667z"/>
	</g>
</g>
<g>
	<g>
		<path d="M122.667,282.944c-5.056-2.901-11.627-1.195-14.571,3.904l-21.333,36.949c-2.965,5.099-1.216,11.627,3.904,14.571
			c1.685,0.96,3.52,1.429,5.333,1.429c3.669,0,7.275-1.899,9.237-5.333l21.333-36.949
			C129.536,292.416,127.787,285.888,122.667,282.944z"/>
	</g>
</g>
<g>
	<g>
		<path d="M272,24.299c-5.077-2.901-11.627-1.216-14.571,3.904l-21.333,36.949c-2.944,5.099-1.195,11.627,3.904,14.571
			c1.685,0.96,3.52,1.429,5.333,1.429c3.669,0,7.275-1.899,9.237-5.333l21.333-36.949C278.869,33.771,277.12,27.243,272,24.299z"/>
	</g>
</g>
<g>
	<g>
		<path d="M506.923,449.579c-4.501-2.773-33.323-20.245-58.923-32.491V512h53.333c5.888,0,10.667-4.779,10.667-10.667v-42.667
			C512,454.955,510.08,451.52,506.923,449.579z"/>
	</g>
</g>
<g>
	<g>
		<path d="M330.667,469.333c-41.173,0-74.667-33.493-74.667-74.667v-10.496c-20.821,1.024-48.747,4.075-75.456,12.416
			c25.195,20.245,44.821,40.981,52.992,57.323c2.624,5.269,0.491,11.669-4.779,14.315c-1.536,0.747-3.157,1.109-4.757,1.109
			c-3.904,0-7.659-2.155-9.536-5.888c-10.688-21.376-50.645-56.789-96.213-83.989c-41.6-21.995-85.547-38.123-107.584-38.123
			C4.779,341.333,0,346.112,0,352v149.333C0,507.221,4.779,512,10.667,512h330.667v-42.667H330.667z"/>
	</g>
</g>
<g>
</g>
<g>
</g>
<g>
</g>
<g>
</g>
<g>
</g>
<g>
</g>
<g>
</g>
<g>
</g>
<g>
</g>
<g>
</g>
<g>
</g>
<g>
</g>
<g>
</g>
<g>
</g>
<g>
</g>
</svg>
