<?xml version="1.0" encoding="iso-8859-1"?>
<!-- Generator: Adobe Illustrator 19.0.0, SVG Export Plug-In . SVG Version: 6.00 Build 0)  -->
<svg version="1.1" id="Layer_1" xmlns="http://www.w3.org/2000/svg" xmlns:xlink="http://www.w3.org/1999/xlink" x="0px" y="0px"
	 viewBox="0 0 512.002 512.002" style="enable-background:new 0 0 512.002 512.002;" xml:space="preserve">
<g>
	<g>
		<circle cx="378.455" cy="77.434" r="39.175"/>
	</g>
</g>
<g>
	<g>
		<path d="M511.831,209.085c-1.346-9.71-10.301-16.494-20.022-15.145l-60.822,8.435l-38.14-43.109l25.95,17.292l0.07-24.189
			c0.012-4.292-1.68-8.413-4.707-11.455c-3.026-3.043-7.137-4.758-11.429-4.771c-51.287-0.134-3.938-0.01-55.331-0.144
			c-4.388-0.011-8.367,1.732-11.289,4.562l-47.103,14.764c-2.941,0.922-5.594,2.595-7.692,4.853l-45.553,49.004
			c-6.675,7.181-6.266,18.412,0.916,25.088c7.186,6.682,18.419,6.257,25.087-0.915l42.349-45.558l26.986-8.458
			c0,0-0.233,54.433-0.287,80.695c-0.019,9.158,1.316,18.174,3.951,26.944l25.078,83.484l-34.321,76.291
			c-4.336,9.639-0.038,20.968,9.602,25.304c9.639,4.337,20.969,0.036,25.304-9.601l37.269-82.843
			c1.899-4.224,2.204-8.995,0.855-13.426l-18.859-61.936l49.612,19.474l-17.543,82.668c-2.195,10.339,4.408,20.499,14.747,22.693
			c10.337,2.194,20.499-4.41,22.693-14.747l20.909-98.53c1.942-9.153-3.018-18.368-11.728-21.787l-39.879-15.653l0.06-20.71
			c-9.029,0.106-17.203-5.031-21.154-12.865l-31.151-61.998l44.445,50.235c3.913,4.423,9.807,6.642,15.733,5.821l70.248-9.741
			C506.398,227.759,513.177,218.796,511.831,209.085z"/>
	</g>
</g>
<g>
	<g>
		<circle cx="59.658" cy="84.498" r="39.594"/>
	</g>
</g>
<g>
	<g>
		<path d="M212.995,169.601c-1.238-5.46-4.952-10.029-10.042-12.354c0,0-46.387-20.208-68.155-31.139
			c-8.163-4.099-17.213-7.126-26.276-3.409L64.394,140.8c-13.666,5.606-20.201,21.229-14.595,34.896l12.506,30.488l31.29-49.294
			l-20.839,64.964c-36.63,10.379-23.085,6.541-59.701,16.916c-9.457,2.679-15.089,12.546-12.369,22.149
			c2.7,9.532,12.62,15.069,22.149,12.369l68.954-19.537c5.792-1.642,10.359-6.07,12.191-11.78l23.012-71.737l-5.846,73.11
			c-0.626,7.838-8.36,22.357-24.662,26.976l-7.052,1.998l3.403,8.296l-35.544,62.352c-2.179,3.822-3.094,8.234-2.62,12.607
			L65.492,455.1c1.248,11.483,11.57,19.763,23.031,18.513c11.474-1.247,19.762-11.558,18.515-23.031l-10.09-92.8l39.51-69.309
			l3.027-1.242l-31.208,61.23c-2.56,5.025-2.981,10.871-1.167,16.211l32.242,94.891c3.712,10.926,15.576,16.775,26.507,13.062
			c10.926-3.713,16.774-15.58,13.062-26.506l-29.404-86.538l38.785-75.667c5.401-10.537,5.917-22.912,1.409-33.862l-11.48-27.893
			l31.027-37.083C212.849,180.782,214.232,175.06,212.995,169.601z M162.84,184.64l-3.169-7.725l6.969,3.184L162.84,184.64z"/>
	</g>
</g>
<g>
</g>
<g>
</g>
<g>
</g>
<g>
</g>
<g>
</g>
<g>
</g>
<g>
</g>
<g>
</g>
<g>
</g>
<g>
</g>
<g>
</g>
<g>
</g>
<g>
</g>
<g>
</g>
<g>
</g>
</svg>
