<?xml version="1.0" encoding="iso-8859-1"?>
<!-- Generator: Adobe Illustrator 19.0.0, SVG Export Plug-In . SVG Version: 6.00 Build 0)  -->
<svg version="1.1" id="Layer_1" xmlns="http://www.w3.org/2000/svg" xmlns:xlink="http://www.w3.org/1999/xlink" x="0px" y="0px"
	 viewBox="0 0 512 512" style="enable-background:new 0 0 512 512;" xml:space="preserve">
<g>
	<g>
		<path d="M22.261,228.174v33.391c0,18.441,14.95,33.391,33.391,33.391c18.441,0,33.391-14.95,33.391-33.391
			c0,18.441,14.95,33.391,33.391,33.391c18.441,0,33.391-14.95,33.391-33.391c0,18.441,14.95,33.391,33.391,33.391
			c18.441,0,33.391-14.95,33.391-33.391c0,18.441,14.95,33.391,33.391,33.391s33.391-14.95,33.391-33.391
			c0,18.441,14.95,33.391,33.391,33.391c18.441,0,33.391-14.95,33.391-33.391c0,18.441,14.95,33.391,33.391,33.391
			c18.441,0,33.391-14.95,33.391-33.391c0,18.441,14.95,33.391,33.391,33.391c18.441,0,33.391-14.95,33.391-33.391v-33.391H22.261z"
			/>
	</g>
</g>
<g>
	<g>
		<path d="M222.609,319.386c-9.828,5.698-21.237,8.962-33.391,8.962c-5.844,0-11.511-0.762-16.917-2.178
			c-0.983,46.609-5.285,84.993-12.827,114.304c-4.578,17.786-10.268,32.186-17.27,43.7h47.014
			c51.004,0,64.611-74.792,66.528-155.831C243.685,328.298,232.368,325.043,222.609,319.386z"/>
	</g>
</g>
<g>
	<g>
		<path d="M456.602,328.341c-0.085,0-0.169,0.007-0.254,0.007c-12.154,0-23.563-3.265-33.391-8.962
			c-9.828,5.698-21.237,8.962-33.391,8.962c-5.679,0-11.189-0.72-16.456-2.061c2.253,99.324,20.524,157.887,49.848,157.887H512
			v-33.391C460.996,450.783,458.519,409.38,456.602,328.341z"/>
	</g>
</g>
<g>
	<g>
		<path d="M122.435,328.348c-12.154,0-23.563-3.265-33.391-8.962c-9.828,5.698-21.237,8.962-33.391,8.962
			c-0.086,0-0.17-0.007-0.255-0.007C53.481,409.38,51.004,450.783,0,450.783v33.391h89.044c29.323,0,47.595-58.564,49.848-157.887
			C133.624,327.628,128.114,328.348,122.435,328.348z"/>
	</g>
</g>
<g>
	<g>
		<path d="M352.526,440.474c-7.543-29.311-11.844-67.695-12.828-114.304c-5.405,1.416-11.073,2.178-16.916,2.178
			c-12.154,0-23.563-3.265-33.391-8.962c-9.76,5.658-21.079,8.912-33.136,8.958c1.917,81.038,15.524,155.831,66.528,155.831h47.014
			C362.794,472.659,357.104,458.26,352.526,440.474z"/>
	</g>
</g>
<g>
	<g>
		<path d="M272.696,124.777V94.609h50.087V27.826h-83.478v96.951c-26.939,26.97-82.038,54.98-132,70.006h297.392
			C354.732,179.757,299.635,151.747,272.696,124.777z"/>
	</g>
</g>
<g>
</g>
<g>
</g>
<g>
</g>
<g>
</g>
<g>
</g>
<g>
</g>
<g>
</g>
<g>
</g>
<g>
</g>
<g>
</g>
<g>
</g>
<g>
</g>
<g>
</g>
<g>
</g>
<g>
</g>
</svg>
