<?xml version="1.0" encoding="iso-8859-1"?>
<!-- Generator: Adobe Illustrator 19.0.0, SVG Export Plug-In . SVG Version: 6.00 Build 0)  -->
<svg version="1.1" id="Capa_1" xmlns="http://www.w3.org/2000/svg" xmlns:xlink="http://www.w3.org/1999/xlink" x="0px" y="0px"
	 viewBox="0 0 60 60" style="enable-background:new 0 0 60 60;" xml:space="preserve">
<g>
	<path d="M16,41c-1.103,0-2,0.897-2,2v8h4v-8C18,41.897,17.103,41,16,41z"/>
	<path d="M10,41c-1.103,0-2,0.897-2,2v8h4v-8C12,41.897,11.103,41,10,41z"/>
	<path d="M9,20c-1.103,0-2,0.897-2,2v8h4v-8C11,20.897,10.103,20,9,20z"/>
	<path d="M44,41c-1.103,0-2,0.897-2,2v8h4v-8C46,41.897,45.103,41,44,41z"/>
	<path d="M50,41c-1.103,0-2,0.897-2,2v8h4v-8C52,41.897,51.103,41,50,41z"/>
	<path d="M51,20c-1.103,0-2,0.897-2,2v8h4v-8C53,20.897,52.103,20,51,20z"/>
	<path d="M52,7.08V5h2c0.553,0,1-0.448,1-1s-0.447-1-1-1h-2V1c0-0.552-0.447-1-1-1s-1,0.448-1,1v2h-2c-0.553,0-1,0.448-1,1
		s0.447,1,1,1h2v2.08c-3.386,0.488-6,3.401-6,6.92v1v17.586L40.414,29H41c0.553,0,1-0.448,1-1s-0.447-1-1-1h-2.059
		c-0.386-3.47-2.753-6.343-5.941-7.475V15h3c0.553,0,1-0.448,1-1v-4c0-0.552-0.447-1-1-1h-3V6c0-0.552-0.447-1-1-1h-4
		c-0.553,0-1,0.448-1,1v3h-3c-0.553,0-1,0.448-1,1v4c0,0.552,0.447,1,1,1h3v4.525c-3.188,1.132-5.555,4.005-5.941,7.475H19
		c-0.553,0-1,0.448-1,1s0.447,1,1,1h0.586L16,32.586V15v-1c0-3.519-2.614-6.432-6-6.92V5h2c0.553,0,1-0.448,1-1s-0.447-1-1-1h-2V1
		c0-0.552-0.447-1-1-1S8,0.448,8,1v2H6C5.447,3,5,3.448,5,4s0.447,1,1,1h2v2.08C4.614,7.568,2,10.481,2,14v1v44c0,0.552,0.447,1,1,1
		h19V43c0-4.411,3.589-8,8-8s8,3.589,8,8v17h19c0.553,0,1-0.448,1-1V15v-1C58,10.481,55.386,7.568,52,7.08z M9,9
		c2.415,0,4.435,1.721,4.899,4H4.101C4.565,10.721,6.585,9,9,9z M5,22c0-2.206,1.794-4,4-4s4,1.794,4,4v10H5V22z M20,53h-6h-2H6V43
		c0-2.206,1.794-4,4-4c1.201,0,2.266,0.542,3,1.382C13.734,39.542,14.799,39,16,39c2.206,0,4,1.794,4,4V53z M23.071,27
		c0.486-3.388,3.408-6,6.929-6s6.442,2.612,6.929,6H23.071z M54,53h-6h-2h-6V43c0-2.206,1.794-4,4-4c1.201,0,2.266,0.542,3,1.382
		C47.734,39.542,48.799,39,50,39c2.206,0,4,1.794,4,4V53z M55,32h-8V22c0-2.206,1.794-4,4-4s4,1.794,4,4V32z M46.101,13
		c0.465-2.279,2.484-4,4.899-4s4.435,1.721,4.899,4H46.101z"/>
	<path d="M30,37c-3.309,0-6,2.691-6,6v17h12V43C36,39.691,33.309,37,30,37z"/>
</g>
<g>
</g>
<g>
</g>
<g>
</g>
<g>
</g>
<g>
</g>
<g>
</g>
<g>
</g>
<g>
</g>
<g>
</g>
<g>
</g>
<g>
</g>
<g>
</g>
<g>
</g>
<g>
</g>
<g>
</g>
</svg>
