<?xml version="1.0" encoding="iso-8859-1"?>
<!-- Generator: Adobe Illustrator 19.0.0, SVG Export Plug-In . SVG Version: 6.00 Build 0)  -->
<svg version="1.1" id="Layer_1" xmlns="http://www.w3.org/2000/svg" xmlns:xlink="http://www.w3.org/1999/xlink" x="0px" y="0px"
	 viewBox="0 0 512 512" style="enable-background:new 0 0 512 512;" xml:space="preserve">
<g>
	<g>
		<path d="M394.182,267.49L275.436,122.149V84.222h18.367c10.734,0,19.436-8.702,19.436-19.436c0-10.734-8.702-19.436-19.436-19.436
			h-18.367V19.436C275.436,8.702,266.734,0,256,0s-19.436,8.702-19.436,19.436V45.35h-18.367c-10.734,0-19.436,8.702-19.436,19.436
			c0,10.734,8.702,19.436,19.436,19.436h18.367v37.927L117.82,267.49c-2.835,3.471-4.385,7.814-4.385,12.296v212.778
			c0,10.734,8.702,19.436,19.436,19.436h41.499v-81.862c0-45.011,36.62-81.63,81.63-81.63s81.63,36.62,81.63,81.63V512h41.499
			c10.734,0,19.436-8.702,19.436-19.436V279.788C398.566,275.306,397.017,270.962,394.182,267.49z"/>
	</g>
</g>
<g>
	<g>
		<path d="M256,366.648c-35.009,0-63.49,28.481-63.49,63.49V512h19.436v-78.957c0-24.292,19.762-44.054,44.054-44.054
			s44.054,19.762,44.054,44.054V512h19.436v-81.862C319.49,395.129,291.009,366.648,256,366.648z"/>
	</g>
</g>
<g>
</g>
<g>
</g>
<g>
</g>
<g>
</g>
<g>
</g>
<g>
</g>
<g>
</g>
<g>
</g>
<g>
</g>
<g>
</g>
<g>
</g>
<g>
</g>
<g>
</g>
<g>
</g>
<g>
</g>
</svg>
