<?xml version="1.0" encoding="iso-8859-1"?>
<!-- Generator: Adobe Illustrator 19.0.0, SVG Export Plug-In . SVG Version: 6.00 Build 0)  -->
<svg version="1.1" id="Capa_1" xmlns="http://www.w3.org/2000/svg" xmlns:xlink="http://www.w3.org/1999/xlink" x="0px" y="0px"
	 viewBox="0 0 48 48" style="enable-background:new 0 0 48 48;" xml:space="preserve">
<g>
	<g>
		<path d="M37,3.5c-5.786,0-10.533,4.496-10.958,10.177C25.375,13.571,24.696,13.5,24,13.5s-1.375,0.071-2.042,0.177
			C21.532,7.996,16.786,3.5,11,3.5C4.935,3.5,0,8.437,0,14.504V28.5c0,0.553,0.448,1,1,1h10v11.271
			c-1.056-1.393-2.686-2.951-4.858-3.261c-0.55-0.08-1.053,0.301-1.131,0.849c-0.078,0.547,0.302,1.054,0.848,1.132
			c1.221,0.174,2.245,0.977,3.026,1.851l-2.591-0.797c-0.527-0.164-1.088,0.134-1.25,0.662c-0.163,0.527,0.134,1.087,0.662,1.25
			l4.921,1.514c0.179,0.33,0.515,0.529,0.873,0.529c0.08,0,0.16-0.031,0.24-0.051C11.825,44.471,11.908,44.5,12,44.5h24
			c0,0,0.001,0,0.001,0c0.097,0,0.193-0.015,0.284-0.042c0.003-0.001,0.006,0,0.008-0.001l6.5-2c0.528-0.163,0.824-0.723,0.662-1.25
			c-0.162-0.528-0.725-0.826-1.25-0.662l-3.929,1.209c0.817-1.021,1.967-2.063,3.365-2.263c0.546-0.078,0.926-0.585,0.848-1.132
			s-0.581-0.925-1.131-0.849c-1.855,0.265-3.313,1.441-4.358,2.646V29.5h10c0.552,0,1-0.447,1-1V14.504C48,8.437,43.065,3.5,37,3.5z
			 M35,26.505V42.5H13V26.505C13,20.437,17.935,15.5,24,15.5S35,20.437,35,26.505z M2,27.5V14.504C2,9.539,6.038,5.5,11,5.5
			c4.841,0,8.79,3.846,8.982,8.643C14.776,15.841,11,20.737,11,26.505V27.5H2z M46,27.5h-9v-0.995
			c0-5.767-3.776-10.664-8.982-12.362C28.21,9.346,32.159,5.5,37,5.5c4.962,0,9,4.039,9,9.004V27.5z"/>
		<polygon points="23,29.5 25,29.5 25,22.5 28,22.5 28,20.5 25,20.5 25,18.5 23,18.5 23,20.5 20,20.5 20,22.5 23,22.5 		"/>
		<polygon points="38,7.5 36,7.5 36,9.5 34,9.5 34,11.5 36,11.5 36,16.5 38,16.5 38,11.5 40,11.5 40,9.5 38,9.5 		"/>
		<polygon points="12,11.5 14,11.5 14,9.5 12,9.5 12,7.5 10,7.5 10,9.5 8,9.5 8,11.5 10,11.5 10,16.5 12,16.5 		"/>
	</g>
</g>
<g>
</g>
<g>
</g>
<g>
</g>
<g>
</g>
<g>
</g>
<g>
</g>
<g>
</g>
<g>
</g>
<g>
</g>
<g>
</g>
<g>
</g>
<g>
</g>
<g>
</g>
<g>
</g>
<g>
</g>
</svg>
