<?xml version="1.0" encoding="iso-8859-1"?>
<!-- Generator: Adobe Illustrator 19.0.0, SVG Export Plug-In . SVG Version: 6.00 Build 0)  -->
<svg version="1.1" id="Layer_1" xmlns="http://www.w3.org/2000/svg" xmlns:xlink="http://www.w3.org/1999/xlink" x="0px" y="0px"
	 viewBox="0 0 512 512" style="enable-background:new 0 0 512 512;" xml:space="preserve">
<g>
	<g>
		<path d="M327.152,276.132v-91.985l-54.456-94.711V54.942h22.146V21.551h-22.146V0h-33.391v21.551h-22.146v33.391h22.146v34.494
			l-54.456,94.711v92.471l-56.879,35.298V512H384.03V311.994L327.152,276.132z M256.001,127.389l25.598,44.521h-51.194
			L256.001,127.389z M293.761,205.301v49.778l-36.807-23.207l-38.712,24.024v-50.595H293.761z M282.994,478.609h-53.987V373.434
			c0-14.884,12.11-26.992,26.994-26.992c14.884,0,26.994,12.109,26.994,26.992V478.609z M350.639,478.609h-0.001h-34.253V373.434
			c0-33.297-27.088-60.384-60.385-60.384s-60.385,27.088-60.385,60.384v105.175h-34.253V330.493l95.45-59.235l93.826,59.157V478.609
			z"/>
	</g>
</g>
<g>
</g>
<g>
</g>
<g>
</g>
<g>
</g>
<g>
</g>
<g>
</g>
<g>
</g>
<g>
</g>
<g>
</g>
<g>
</g>
<g>
</g>
<g>
</g>
<g>
</g>
<g>
</g>
<g>
</g>
</svg>
