<?xml version="1.0" encoding="iso-8859-1"?>
<!-- Generator: Adobe Illustrator 19.0.0, SVG Export Plug-In . SVG Version: 6.00 Build 0)  -->
<svg version="1.1" id="Layer_1" xmlns="http://www.w3.org/2000/svg" xmlns:xlink="http://www.w3.org/1999/xlink" x="0px" y="0px"
	 viewBox="0 0 512 512" style="enable-background:new 0 0 512 512;" xml:space="preserve">
<g>
	<g>
		<path d="M461.913,217.043c-4.424,0-8.674,1.761-11.804,4.892l-33.391,33.391c-3.131,3.13-4.892,7.375-4.892,11.804v76.565
			c-5.482-5.482-8.809-9.783-16.696-9.783h-27.826V267.13c0-27.619-22.468-50.087-50.087-50.087h-16.696v-16.696
			c0-2.592-0.609-5.147-1.761-7.467l-16.696-33.391c-2.826-5.658-8.608-9.228-14.935-9.228h-76.565l-28.5-28.499
			c-3.131-3.131-7.381-4.892-11.805-4.892H83.478c-4.424,0-8.674,1.761-11.804,4.892l-33.391,33.391
			c-3.131,3.13-4.892,7.375-4.892,11.804v20.152C13.933,194.47,0,213.15,0,235.157v260.147C0,504.527,7.479,512,16.696,512h83.478
			v-83.478c0-9.223,7.479-16.696,16.696-16.696s16.696,7.473,16.696,16.696V512h66.783V350.609c0-9.223,7.479-16.696,16.696-16.696
			c9.217,0,16.696,7.473,16.696,16.696V512h261.565c9.217,0,16.696-7.473,16.696-16.696V266.608
			C512,239.278,489.771,217.043,461.913,217.043z"/>
	</g>
</g>
<g>
	<g>
		<path d="M395.13,0c-46.032,0-83.478,37.446-83.478,83.478s37.446,83.478,83.478,83.478s83.478-37.446,83.478-83.478
			S441.163,0,395.13,0z"/>
	</g>
</g>
<g>
</g>
<g>
</g>
<g>
</g>
<g>
</g>
<g>
</g>
<g>
</g>
<g>
</g>
<g>
</g>
<g>
</g>
<g>
</g>
<g>
</g>
<g>
</g>
<g>
</g>
<g>
</g>
<g>
</g>
</svg>
