<?xml version="1.0" encoding="iso-8859-1"?>
<!-- Generator: Adobe Illustrator 19.0.0, SVG Export Plug-In . SVG Version: 6.00 Build 0)  -->
<svg version="1.1" id="Layer_1" xmlns="http://www.w3.org/2000/svg" xmlns:xlink="http://www.w3.org/1999/xlink" x="0px" y="0px"
	 viewBox="0 0 512 512" style="enable-background:new 0 0 512 512;" xml:space="preserve">
<g>
	<g>
		<path d="M365.27,170.5l-83.576-84.375C290.432,78.781,296,67.781,296,55.5c0-22.056-17.944-40-40-40c-22.056,0-40,17.944-40,40
			c0,11.77,5.112,22.366,13.23,29.692l-84.5,85.308H0v326h512v-326H365.27z M256,45.5c5.514,0,10,4.486,10,10s-4.486,10-10,10
			c-5.514,0-10-4.486-10-10S250.486,45.5,256,45.5z M255,101.805l68.043,68.695H186.957L255,101.805z M482,466.5H30v-73.297
			l76.245-76.245L197,407.713l58-58l46.637,46.637l82.073-23.45L482,391.421V466.5z M482,360.893l-99.709-18.788l-71.923,20.55
			L255,307.287l-58,58l-90.755-90.755L30,350.777V200.5h452V360.893z"/>
	</g>
</g>
<g>
	<g>
		<path d="M396.5,227.5c-27.846,0-50.5,22.654-50.5,50.5s22.654,50.5,50.5,50.5S447,305.846,447,278S424.346,227.5,396.5,227.5z
			 M396.5,298.5c-11.304,0-20.5-9.196-20.5-20.5c0-11.304,9.196-20.5,20.5-20.5c11.304,0,20.5,9.196,20.5,20.5
			C417,289.304,407.804,298.5,396.5,298.5z"/>
	</g>
</g>
<g>
</g>
<g>
</g>
<g>
</g>
<g>
</g>
<g>
</g>
<g>
</g>
<g>
</g>
<g>
</g>
<g>
</g>
<g>
</g>
<g>
</g>
<g>
</g>
<g>
</g>
<g>
</g>
<g>
</g>
</svg>
