<?xml version="1.0" encoding="iso-8859-1"?>
<!-- Generator: Adobe Illustrator 16.0.0, SVG Export Plug-In . SVG Version: 6.00 Build 0)  -->
<!DOCTYPE svg PUBLIC "-//W3C//DTD SVG 1.1//EN" "http://www.w3.org/Graphics/SVG/1.1/DTD/svg11.dtd">
<svg version="1.1" id="Capa_1" xmlns="http://www.w3.org/2000/svg" xmlns:xlink="http://www.w3.org/1999/xlink" x="0px" y="0px"
	 width="45.766px" height="45.766px" viewBox="0 0 45.766 45.766" style="enable-background:new 0 0 45.766 45.766;"
	 xml:space="preserve">
<g>
	<g>
		<path d="M42.808,21.742c-0.533-0.201-1.085-0.255-1.612-0.183l0.128-0.194c1.002-1.525,0.58-3.574-0.946-4.576
			c-0.967-0.637-2.146-0.698-3.135-0.267l0.46-1.55c0.517-1.75-0.473-3.588-2.224-4.104c-1.532-0.451-3.167,0.26-3.831,1.619v-0.87
			c0-1.811-1.504-3.29-3.34-3.291c-1.836,0-3.341,1.479-3.341,3.291v0.87c-0.665-1.359-2.3-2.07-3.832-1.619
			c-1.751,0.516-2.743,2.354-2.227,4.104l0.461,1.55c-0.989-0.431-2.167-0.37-3.134,0.267c-1.526,1.002-1.948,3.051-0.946,4.576
			l0.128,0.194c-0.527-0.072-1.079-0.018-1.612,0.183c-1.708,0.643-2.57,2.55-1.926,4.257c3.087,8.189,8.004,11.434,12.109,12.36
			c-1.007,0.978-1.791,2.172-1.791,3.461c0,3.309,2.799,3.945,6.108,3.945c3.308,0,6.107-0.637,6.107-3.945
			c0-1.289-0.784-2.483-1.791-3.46c4.105-0.927,9.022-4.171,12.109-12.361C45.376,24.292,44.515,22.385,42.808,21.742z"/>
		<path d="M11.05,4.143L9.672,3.469c-0.36-0.176-0.609-0.517-0.668-0.914L8.777,1.039C8.629,0.042,7.402-0.353,6.702,0.371
			L5.635,1.473C5.356,1.761,4.955,1.892,4.56,1.827L3.047,1.572C2.054,1.406,1.301,2.451,1.771,3.341L2.49,4.696
			C2.678,5.05,2.679,5.473,2.494,5.828l-0.708,1.36C1.32,8.082,2.08,9.122,3.074,8.948l1.511-0.265
			c0.394-0.069,0.797,0.061,1.078,0.346l1.074,1.095c0.706,0.719,1.93,0.317,2.071-0.681l0.214-1.519
			c0.056-0.396,0.304-0.74,0.662-0.918l1.373-0.684C11.958,5.874,11.955,4.585,11.05,4.143z"/>
		<path d="M8.935,31.927l-1.807,0.196c-0.398,0.043-0.792-0.112-1.052-0.416L4.89,30.328c-0.299-0.347-0.865-0.2-0.959,0.248
			l-0.373,1.78c-0.082,0.391-0.352,0.718-0.72,0.873l-1.679,0.701c-0.421,0.177-0.458,0.761-0.061,0.987l1.578,0.904
			c0.347,0.2,0.574,0.557,0.607,0.955l0.149,1.812c0.038,0.456,0.582,0.67,0.92,0.364L5.7,37.733
			c0.296-0.27,0.707-0.375,1.096-0.282l1.769,0.418c0.445,0.105,0.818-0.346,0.63-0.763l-0.743-1.66
			c-0.164-0.365-0.138-0.788,0.07-1.129l0.945-1.554C9.704,32.372,9.39,31.878,8.935,31.927z"/>
		<path d="M36.034,5.611l1.771,0.417c0.389,0.092,0.708,0.369,0.854,0.742l0.659,1.694c0.167,0.426,0.75,0.478,0.986,0.087
			l0.943-1.555c0.208-0.341,0.57-0.56,0.971-0.583l1.814-0.104c0.457-0.026,0.687-0.565,0.387-0.911L43.232,4.02
			c-0.261-0.303-0.356-0.716-0.254-1.103l0.462-1.758c0.117-0.442-0.325-0.826-0.747-0.649l-1.677,0.703
			c-0.369,0.154-0.79,0.118-1.127-0.099l-1.53-0.982c-0.385-0.248-0.886,0.054-0.849,0.51l0.149,1.812
			c0.033,0.399-0.132,0.789-0.441,1.042l-1.408,1.151C35.457,4.937,35.588,5.506,36.034,5.611z"/>
	</g>
</g>
<g>
</g>
<g>
</g>
<g>
</g>
<g>
</g>
<g>
</g>
<g>
</g>
<g>
</g>
<g>
</g>
<g>
</g>
<g>
</g>
<g>
</g>
<g>
</g>
<g>
</g>
<g>
</g>
<g>
</g>
</svg>
