<svg xmlns="http://www.w3.org/2000/svg" width="26" height="32" viewBox="0 0 26 32"><defs><style>.cls-1,.cls-3{fill:#0068b8;}.cls-1{fill-rule:evenodd;}.cls-2{fill:#fff;}</style></defs><title>amphitheater-2</title><g id="bk"><path class="cls-1" d="M13,0a13,13,0,0,1,10.08,21.2C20.7,24.13,13,32,13,32S5.24,24.1,2.86,21.14A13,13,0,0,1,13,0Z" transform="translate(0 0)"/><circle class="cls-2" cx="13" cy="13" r="11"/></g><g id="amphitheater-2"><path class="cls-3" d="M13.33,8.72l-1.67-2.9a.29.29,0,0,0-.27-.14C8.44,5.83,5,6.49,5,7.85v9.25c0,1.46,4,2.22,8,2.22s8-.76,8-2.22V10.94C21,9.53,17.17,8.76,13.33,8.72ZM5.58,7.85c0-.53,2-1.37,5.67-1.59l1.86,3.23H13C8.47,9.49,5.58,8.52,5.58,7.85ZM7.47,18.43a0,0,0,0,1,0,0h0a7.84,7.84,0,0,1-1.18-.4,0,0,0,0,1,0,0V16.37h0a.62.62,0,0,1,.63-.4.62.62,0,0,1,.63.4h0Zm0-3.08a0,0,0,0,1,0,0h0A7.69,7.69,0,0,1,6.23,15a0,0,0,0,1,0,0V13.28h0a.63.63,0,0,1,.63-.4.62.62,0,0,1,.63.4h0Zm0-3.08a0,0,0,0,1,0,0h0a7.61,7.61,0,0,1-1.18-.4,0,0,0,0,1,0,0V10.2h0a.62.62,0,0,1,.63-.4.62.62,0,0,1,.63.4h0Zm2.05,6.55a.05.05,0,0,1,0,0h0c-.4-.05-.8-.12-1.17-.19a0,0,0,0,1,0,0V16.75h0a.62.62,0,0,1,.63-.4.62.62,0,0,1,.63.4h0v2.07Zm0-3.08a0,0,0,0,1,0,0h0c-.4-.05-.8-.11-1.17-.19a0,0,0,0,1,0,0V13.67h0a.62.62,0,0,1,.63-.4.62.62,0,0,1,.63.4h0v2.07Zm0-3.08a0,0,0,0,1,0,0h0c-.4-.05-.8-.11-1.17-.19a0,0,0,0,1,0,0V10.58h0a.62.62,0,0,1,.63-.4.62.62,0,0,1,.63.4h0v2.07ZM11.58,19a.05.05,0,0,1,0,0h0L10.36,19a0,0,0,0,1,0,0V17.14h0a.69.69,0,0,1,1.26,0h0V19Zm0-3.08a.05.05,0,0,1,0,0h0l-1.17-.08a0,0,0,0,1,0,0V14.05h0a.69.69,0,0,1,1.26,0h0v1.86Zm0-3.08a0,0,0,0,1,0,0h0l-1.17-.08a0,0,0,0,1,0,0V11h0a.69.69,0,0,1,1.26,0h0v1.86ZM13.63,19a0,0,0,0,1,0,0H12.41a0,0,0,0,1,0,0V17.14h0a.69.69,0,0,1,1.26,0h0V19Zm0-3.08a0,0,0,0,1,0,0H12.41a0,0,0,0,1,0,0V14.05h0a.69.69,0,0,1,1.26,0h0v1.89Zm0-3.08a0,0,0,0,1,0,0H12.41a0,0,0,0,1,0,0V11h0a.69.69,0,0,1,1.26,0h0v1.89Zm2.05,6.06a0,0,0,0,1,0,0L14.47,19h0a0,0,0,0,1,0,0V17.14h0a.69.69,0,0,1,1.26,0h0v1.78Zm0-3.08a0,0,0,0,1,0,0L14.47,16h0a0,0,0,0,1,0,0V14.05h0a.69.69,0,0,1,1.26,0h0v1.78Zm2.05,2.8a.05.05,0,0,1,0,0c-.37.07-.77.13-1.17.19h0a0,0,0,0,1,0,0V16.75h0a.69.69,0,0,1,1.26,0h0v1.88Zm0-3.08a.05.05,0,0,1,0,0c-.37.07-.77.13-1.17.19h0a0,0,0,0,1,0,0V13.67h0a.69.69,0,0,1,1.26,0h0v1.88ZM19.8,18a0,0,0,0,1,0,0,7.94,7.94,0,0,1-1.18.4h0a0,0,0,0,1,0,0V16.37h0a.69.69,0,0,1,1.26,0h0V18Zm0-3.08a0,0,0,0,1,0,0,7.75,7.75,0,0,1-1.18.4h0a0,0,0,0,1,0,0V13.28h0a.69.69,0,0,1,1.26,0h0V15Zm-4.3-2.48L13.86,9.63l-.19-.32c4.2.09,6.75,1,6.75,1.63C20.42,11.4,18.89,12.18,15.5,12.47Z" transform="translate(0 0)"/></g></svg>