<svg xmlns="http://www.w3.org/2000/svg" width="26" height="32" viewBox="0 0 26 32"><defs><style>.cls-1,.cls-3{fill:#0068b8;}.cls-1{fill-rule:evenodd;}.cls-2{fill:#fff;}</style></defs><title>anchorpier</title><g id="bk"><path class="cls-1" d="M13,0a13,13,0,0,1,10.08,21.2C20.7,24.13,13,32,13,32S5.24,24.1,2.86,21.14A13,13,0,0,1,13,0Z" transform="translate(0 0)"/><circle class="cls-2" cx="13" cy="13" r="11"/></g><g id="anchorpier"><path class="cls-3" d="M20.23,13.59a1.19,1.19,0,0,0-.58-.07l0-.07a1.2,1.2,0,0,0-1.48-1.76l.17-.56a1.2,1.2,0,0,0-.81-1.49,1.18,1.18,0,0,0-1.39.59V9.91a1.21,1.21,0,0,0-2.42,0v.32a1.18,1.18,0,0,0-1.39-.59,1.2,1.2,0,0,0-.81,1.49l.17.56a1.2,1.2,0,0,0-1.48,1.76l0,.07A1.2,1.2,0,0,0,9,15.13c1.12,3,2.9,4.15,4.39,4.48a1.84,1.84,0,0,0-.65,1.26c0,1.2,1,1.43,2.21,1.43s2.21-.23,2.21-1.43a1.84,1.84,0,0,0-.65-1.25c1.49-.34,3.27-1.51,4.39-4.48A1.2,1.2,0,0,0,20.23,13.59Z" transform="translate(0 0)"/><path class="cls-3" d="M8.71,7.2,8.21,7A.44.44,0,0,1,8,6.63l-.08-.55a.44.44,0,0,0-.75-.24l-.39.4a.44.44,0,0,1-.39.13l-.55-.09a.44.44,0,0,0-.46.64l.26.49a.44.44,0,0,1,0,.41l-.26.49a.44.44,0,0,0,.47.64l.55-.1A.44.44,0,0,1,6.76,9l.39.4a.44.44,0,0,0,.75-.25L8,8.58a.44.44,0,0,1,.24-.33L8.71,8A.44.44,0,0,0,8.71,7.2Z" transform="translate(0 0)"/><path class="cls-3" d="M7.94,17.28l-.66.07a.44.44,0,0,1-.38-.15l-.43-.5a.2.2,0,0,0-.35.09L6,17.44a.44.44,0,0,1-.26.32L5.12,18a.2.2,0,0,0,0,.36l.57.33a.44.44,0,0,1,.22.35l.05.66a.2.2,0,0,0,.33.13l.49-.44a.44.44,0,0,1,.4-.1l.64.15A.2.2,0,0,0,8,19.16l-.27-.6a.44.44,0,0,1,0-.41l.34-.56A.2.2,0,0,0,7.94,17.28Z" transform="translate(0 0)"/><path class="cls-3" d="M17.77,7.74l.64.15a.44.44,0,0,1,.31.27l.24.61a.2.2,0,0,0,.36,0l.34-.56A.44.44,0,0,1,20,8l.66,0a.2.2,0,0,0,.14-.33l-.43-.5a.44.44,0,0,1-.09-.4l.17-.64a.2.2,0,0,0-.27-.24l-.61.25a.44.44,0,0,1-.41,0l-.55-.36a.2.2,0,0,0-.31.18l.05.66A.44.44,0,0,1,18.2,7l-.51.42A.2.2,0,0,0,17.77,7.74Z" transform="translate(0 0)"/></g></svg>