<svg xmlns="http://www.w3.org/2000/svg" width="26" height="32" viewBox="0 0 26 32"><defs><style>.cls-1,.cls-3{fill:#0068b8;}.cls-1{fill-rule:evenodd;}.cls-2{fill:#fff;}</style></defs><title>aquarium</title><g id="bk"><path class="cls-1" d="M13,0a13,13,0,0,1,10.08,21.2C20.7,24.13,13,32,13,32S5.24,24.1,2.86,21.14A13,13,0,0,1,13,0Z" transform="translate(0 0)"/><circle class="cls-2" cx="13" cy="13" r="11"/></g><g id="aquarium"><g id="_Group_" data-name="&lt;Group&gt;"><path class="cls-3" d="M17.48,11.21l-1.6.8c.31-2,.44-4.89-.57-6.24C14,4.1,13.06,4,11.14,4A3.25,3.25,0,0,1,11,5.12a6.9,6.9,0,0,0-1-.28c.27.75.1,2.46-.48,2.8s-1.69,1-1.69,1l.66,1.07,1.34-.83c.65-.31.61-.09,1.46.08a3,3,0,0,0,1.81-.38s-2.51,2.09-2.51,4.6,2,3.54,2.75,4.48c.89,1.14.7,2.9-1,2.9A1.35,1.35,0,0,1,11,19.23a1.23,1.23,0,0,1,.13-.45.9.9,0,0,1,.81-.5v-.84h0a1.73,1.73,0,0,0-1.36.65,2.41,2.41,0,0,0,.1,3.07,2.78,2.78,0,0,0,2,.82,3.3,3.3,0,0,0,3.35-3.35c0-1.34-.54-3-.53-4.41l2,1a2.6,2.6,0,0,0,.67-2A2.6,2.6,0,0,0,17.48,11.21ZM11,7.78a.42.42,0,1,1,.42-.42A.42.42,0,0,1,11,7.78Z" transform="translate(0 0)"/></g></g></svg>