<svg xmlns="http://www.w3.org/2000/svg" width="26" height="32" viewBox="0 0 26 32"><defs><style>.cls-1,.cls-3{fill:#0068b8;}.cls-1{fill-rule:evenodd;}.cls-2{fill:#fff;}</style></defs><title>arch</title><g id="bk"><path class="cls-1" d="M13,0a13,13,0,0,1,10.08,21.2C20.7,24.13,13,32,13,32S5.24,24.1,2.86,21.14A13,13,0,0,1,13,0Z" transform="translate(0 0)"/><circle class="cls-2" cx="13" cy="13" r="11"/></g><g id="arch"><path class="cls-3" d="M13.28,10.27l-.51.3a.58.58,0,0,0-.26.45V13.6a.84.84,0,0,1,.52-.18h.52v-3C13.53,10.25,13.42,10.19,13.28,10.27Z" transform="translate(0 0)"/><path class="cls-3" d="M6.09,13.58a.18.18,0,0,0,.18,0L16.35,7.7a.34.34,0,0,1,.17,0h3.26A.18.18,0,0,0,20,7.47V5.77a.18.18,0,0,0-.18-.18H16.42l-.09,0-10.24,6a.18.18,0,0,0-.09.16v1.7A.18.18,0,0,0,6.09,13.58Z" transform="translate(0 0)"/><path class="cls-3" d="M9.88,12.25l-.51.3A.58.58,0,0,0,9.1,13v2.3a.84.84,0,0,1,.52-.18h.52V12.4C10.13,12.24,10,12.17,9.88,12.25Z" transform="translate(0 0)"/><path class="cls-3" d="M16.66,8.44l-.47.19A.48.48,0,0,0,15.9,9V11.9a.84.84,0,0,1,.52-.18h.52V8.62A.19.19,0,0,0,16.66,8.44Z" transform="translate(0 0)"/><path class="cls-3" d="M19.82,12.39h-3.4a.18.18,0,0,0-.18.18v1.18a.33.33,0,0,1-.33.33H13a.18.18,0,0,0-.18.18v1.18a.33.33,0,0,1-.33.33H9.62a.18.18,0,0,0-.18.18v1.18a.33.33,0,0,1-.33.33H6.22a.18.18,0,0,0-.18.18v2.55a.18.18,0,0,0,.18.18h13.6a.18.18,0,0,0,.18-.18V12.57A.18.18,0,0,0,19.82,12.39Z" transform="translate(0 0)"/></g></svg>