<svg xmlns="http://www.w3.org/2000/svg" width="26" height="32" viewBox="0 0 26 32"><defs><style>.cls-1,.cls-3{fill:#0068b8;}.cls-1{fill-rule:evenodd;}.cls-2{fill:#fff;}</style></defs><title>art-museum-2</title><g id="bk"><path class="cls-1" d="M13,0a13,13,0,0,1,10.08,21.2C20.7,24.13,13,32,13,32S5.24,24.1,2.86,21.14A13,13,0,0,1,13,0Z" transform="translate(0 0)"/><circle class="cls-2" cx="13" cy="13" r="11"/></g><g id="art-museum-2"><path class="cls-3" d="M19,18a1,1,0,0,0-1-1V11a1,1,0,0,0,1-1h2L13,4,5,10H7a1,1,0,0,0,1,1v6a1,1,0,0,0-1,1,2,2,0,0,0-2,2H21A2,2,0,0,0,19,18ZM13,6a1.5,1.5,0,1,1-1.5,1.5A1.5,1.5,0,0,1,13,6ZM11,18a1,1,0,0,0-1-1V11a1,1,0,0,0,1-1h4a1,1,0,0,0,1,1v6a1,1,0,0,0-1,1Z" transform="translate(0 0)"/></g></svg>