<svg xmlns="http://www.w3.org/2000/svg" width="26" height="32" viewBox="0 0 26 32"><defs><style>.cls-1,.cls-3{fill:#0068b8;}.cls-1{fill-rule:evenodd;}.cls-2{fill:#fff;}</style></defs><title>bar</title><g id="bk"><path class="cls-1" d="M13,0a13,13,0,0,1,10.08,21.2C20.7,24.13,13,32,13,32S5.24,24.1,2.86,21.14A13,13,0,0,1,13,0Z" transform="translate(0 0)"/><circle class="cls-2" cx="13" cy="13" r="11"/></g><g id="bar"><path class="cls-3" d="M18.72,10.56H16.93v-.29A2.37,2.37,0,0,0,16,6a2.76,2.76,0,0,0-4.54-1.29A2.19,2.19,0,0,0,8.85,6H8.71a2.37,2.37,0,0,0-1.54,4.17V20a1,1,0,0,0,1,1h7.68a1,1,0,0,0,1-1V18.44h1.79a1.94,1.94,0,0,0,1.94-1.94v-4A1.94,1.94,0,0,0,18.72,10.56Zm-3.2-1.14H9.45v2.11a.66.66,0,0,1-1.31,0V9.25a1.06,1.06,0,0,1,1-1.87A.66.66,0,0,0,10,6.81.88.88,0,0,1,10.87,6a.87.87,0,0,1,.42.11.66.66,0,0,0,.85-.19,1.44,1.44,0,0,1,2.61.78.66.66,0,0,0,.7.62h.08a1.06,1.06,0,1,1,0,2.11Zm3.34,7.09a.14.14,0,0,1-.14.14H16.93V12.36h1.79a.14.14,0,0,1,.14.14Z" transform="translate(0 0)"/></g></svg>