<svg xmlns="http://www.w3.org/2000/svg" width="26" height="32" viewBox="0 0 26 32"><defs><style>.cls-1,.cls-3{fill:#0068b8;}.cls-1{fill-rule:evenodd;}.cls-2{fill:#fff;}</style></defs><title>beach</title><g id="bk"><path class="cls-1" d="M13,0a13,13,0,0,1,10.08,21.2C20.7,24.13,13,32,13,32S5.24,24.1,2.86,21.14A13,13,0,0,1,13,0Z" transform="translate(0 0)"/><circle class="cls-2" cx="13" cy="13" r="11"/></g><g id="beach"><path class="cls-3" d="M20.28,18a.65.65,0,0,0-.51-.16,17.5,17.5,0,0,1-2.86.14,8,8,0,0,1-2.05-.38L12.58,11a25.83,25.83,0,0,1,5-1.09.65.65,0,0,0,.5-.94,6.6,6.6,0,0,0-7.4-3.37l-.05-.16a.65.65,0,0,0-.82-.4h0a.65.65,0,0,0-.4.82L9.46,6a6.6,6.6,0,0,0-3.71,7.22.65.65,0,0,0,1,.42,23.6,23.6,0,0,1,4.61-2.24l1.92,5.49a8.69,8.69,0,0,0-5-1,4.77,4.77,0,0,0-2.61,1.6.65.65,0,0,0-.16.43v1.4a.65.65,0,0,0,.65.65h13.7a.65.65,0,0,0,.65-.65v-.89A.65.65,0,0,0,20.28,18Z" transform="translate(0 0)"/></g></svg>