<svg xmlns="http://www.w3.org/2000/svg" width="26" height="32" viewBox="0 0 26 32"><defs><style>.cls-1,.cls-3{fill:#0068b8;}.cls-1{fill-rule:evenodd;}.cls-2{fill:#fff;}</style></defs><title>bigcity</title><g id="bk"><path class="cls-1" d="M13,0a13,13,0,0,1,10.08,21.2C20.7,24.13,13,32,13,32S5.24,24.1,2.86,21.14A13,13,0,0,1,13,0Z" transform="translate(0 0)"/><circle class="cls-2" cx="13" cy="13" r="11"/></g><g id="bigcity"><path class="cls-3" d="M5.42,7.45V20.5H9.21V7.45Zm1.26,4.63H5.84v-.84h.84Z" transform="translate(0 0)"/><path class="cls-3" d="M16.79,11.24V20.5h3.79V11.24Zm2.53,5.47h-.84v-.84h.84Zm0-2.53h-.84v-.84h.84Z" transform="translate(0 0)"/><path class="cls-3" d="M9.74,4.5v16h2.42V18h1.68V20.5h2.63V4.5Zm2,4.63h-.84V8.29h.84Zm1.68,4.63h-.84v-.84h.84Zm0-4.63h-.84V8.29h.84Zm1.68,4.63h-.84v-.84h.84Z" transform="translate(0 0)"/></g></svg>