<svg xmlns="http://www.w3.org/2000/svg" width="26" height="32" viewBox="0 0 26 32"><defs><style>.cls-1,.cls-3{fill:#0068b8;}.cls-1{fill-rule:evenodd;}.cls-2{fill:#fff;}</style></defs><title>birds-2</title><g id="bk"><path class="cls-1" d="M13,0a13,13,0,0,1,10.08,21.2C20.7,24.13,13,32,13,32S5.24,24.1,2.86,21.14A13,13,0,0,1,13,0Z" transform="translate(0 0)"/><circle class="cls-2" cx="13" cy="13" r="11"/></g><g id="birds-2"><path class="cls-3" d="M14.38,9.1a.16.16,0,0,0,.16-.27A24.42,24.42,0,0,0,9.27,5,.19.19,0,0,0,9,5.21a9.74,9.74,0,0,0,.34,2.21C10.65,7.79,12.31,8.33,14.38,9.1Z" transform="translate(0 0)"/><path class="cls-3" d="M20.92,9.35,19.68,8.9c-.19-.73-.75-1.44-2.25-1.44a1.86,1.86,0,0,0-1.6,1.11h0a4.42,4.42,0,0,1-1,1.27C8.61,7.47,6,7.16,5.2,7.14h0A.19.19,0,0,0,5,7.4c1,2.4,3.31,4.73,5,6.17a21.84,21.84,0,0,0-4.17,5.32A.74.74,0,0,0,6.49,20l5.34-.35a.23.23,0,0,0,.22-.27c-.42-2.79,1.09-3.82,1.12-3.85a6,6,0,0,0,2.38.29c1.28-.14,3.57-.82,3.32-3.3a3.44,3.44,0,0,1,.75-2.58l1.25-.34A.18.18,0,0,0,21,9.47.1.1,0,0,0,20.92,9.35Z" transform="translate(0 0)"/></g></svg>