<svg xmlns="http://www.w3.org/2000/svg" width="26" height="32" viewBox="0 0 26 32"><defs><style>.cls-1,.cls-3{fill:#0068b8;}.cls-1{fill-rule:evenodd;}.cls-2{fill:#fff;}</style></defs><title>boat</title><g id="bk"><path class="cls-1" d="M13,0a13,13,0,0,1,10.08,21.2C20.7,24.13,13,32,13,32S5.24,24.1,2.86,21.14A13,13,0,0,1,13,0Z" transform="translate(0 0)"/><circle class="cls-2" cx="13" cy="13" r="11"/></g><g id="boat"><path class="cls-3" d="M9.88,4.57A1.07,1.07,0,0,1,12,4.29h0a.8.8,0,0,1,.75,1.11h0a.5.5,0,1,1-.5.5s0,0,0,0a.79.79,0,0,1-.9-.29,1.07,1.07,0,0,1-1.49-1Zm.49,5.31H8.9a.47.47,0,0,0-.47.47v3.12L13,11.29l4.57,2.19V10.35a.47.47,0,0,0-.47-.47H15.63m0-.47V9.13a.47.47,0,0,0-.47-.47H14l-.2-1.86H12.17L12,8.67H10.83a.47.47,0,0,0-.47.47v.29ZM13,11.8,6.21,15.06l2,5.86a8.2,8.2,0,0,1,3.36-.84c2,0,3.56.94,5.65,1.42h.35l2.21-6.44Z" transform="translate(0 0)"/></g></svg>