<svg xmlns="http://www.w3.org/2000/svg" width="26" height="32" viewBox="0 0 26 32"><defs><style>.cls-1,.cls-3{fill:#0068b8;}.cls-1{fill-rule:evenodd;}.cls-2{fill:#fff;}</style></defs><title>boudha</title><g id="bk"><path class="cls-1" d="M13,0a13,13,0,0,1,10.08,21.2C20.7,24.13,13,32,13,32S5.24,24.1,2.86,21.14A13,13,0,0,1,13,0Z" transform="translate(0 0)"/><circle class="cls-2" cx="13" cy="13" r="11"/></g><g id="boudha"><path class="cls-3" d="M12.62,6.27a.58.58,0,0,0,0-.09.56.56,0,0,1-1.11,0,.57.57,0,0,0,0,.09.56.56,0,1,0,1.13,0Z" transform="translate(0 0)"/><path class="cls-3" d="M13.94,6.83a.56.56,0,0,0,.56-.56.6.6,0,0,0,0-.09.56.56,0,0,1-1.11,0,.58.58,0,0,0,0,.09A.56.56,0,0,0,13.94,6.83Z" transform="translate(0 0)"/><path class="cls-3" d="M19.63,18.13A4,4,0,0,0,17,16.75c.41-.35.8-.68,1.18-1a1.2,1.2,0,0,0,.39-1.35c-.43-1.38-.82-2.15-1.28-3.52a2.14,2.14,0,0,0-2.13-1.6,1.67,1.67,0,0,1-.61-.12.8.8,0,0,1-.2-.12,1.91,1.91,0,0,1,.18-.74A2.75,2.75,0,0,0,15,7.36a.45.45,0,0,0,.22-.13,3.16,3.16,0,0,0,.37-.49c.15-.37,0-.56-.06-.62a.22.22,0,0,0-.22,0c0-.07,0-.14.07-.21a1.39,1.39,0,0,0-.77-1.75A3.37,3.37,0,0,0,14,3.88a1,1,0,0,0-2,0,3.37,3.37,0,0,0-.66.25,1.39,1.39,0,0,0-.77,1.75c0,.07,0,.14.07.21a.22.22,0,0,0-.22,0c-.07.06-.21.25-.06.62a3.15,3.15,0,0,0,.37.49.45.45,0,0,0,.22.13,2.84,2.84,0,0,0,.44.87,6.64,6.64,0,0,1,.31.72.64.64,0,0,1-.28.21,1.67,1.67,0,0,1-.61.12,2.14,2.14,0,0,0-2.13,1.6c-.45,1.37-.85,2.14-1.28,3.52a1.2,1.2,0,0,0,.39,1.35c.38.34.77.67,1.18,1a4,4,0,0,0-2.62,1.37C5.88,18.69,4.87,21,8.53,21h8.94C21.13,21,20.12,18.69,19.63,18.13ZM10.2,15.82c-.36-.17-1-.89-.89-1.16a10.89,10.89,0,0,1,.89-1.87ZM11,6.42,11,6.15A1.41,1.41,0,0,1,11.33,5h3.34A1.41,1.41,0,0,1,15,6.15L15,6.42a4.44,4.44,0,0,1-.5,1.48A1.61,1.61,0,0,1,13,8.64a1.61,1.61,0,0,1-1.47-.74A4.44,4.44,0,0,1,11,6.42Zm4.77,9.4v-3a10.89,10.89,0,0,1,.89,1.87C16.75,14.93,16.16,15.65,15.8,15.82Z" transform="translate(0 0)"/></g></svg>