<svg xmlns="http://www.w3.org/2000/svg" width="26" height="32" viewBox="0 0 26 32"><defs><style>.cls-1,.cls-3{fill:#0068b8;}.cls-1{fill-rule:evenodd;}.cls-2{fill:#fff;}</style></defs><title>bridge_modern</title><g id="bk"><path class="cls-1" d="M13,0a13,13,0,0,1,10.08,21.2C20.7,24.13,13,32,13,32S5.24,24.1,2.86,21.14A13,13,0,0,1,13,0Z" transform="translate(0 0)"/><circle class="cls-2" cx="13" cy="13" r="11"/></g><g id="bridge_modern"><path class="cls-3" d="M20.92,10c.34-.14.68-.26,1-.37h-.25l-.89,0L19.24,5.1l-.11-.31L19,5.08l-3,5.63q-.57.22-1.13.48l-2.26-6-.13-.35-.13.35L8.07,16.21q-.46.49-.9,1-.66.77-1.25,1.59c-.32.45-.64.91-.92,1.39H8.4l.74-1.41h1c-.3.6-.52,1.1-.65,1.41h3.74a16.32,16.32,0,0,1,1.3-4q.3-.63.66-1.23l1.13,3.83h1.37l-1.81-4.85a12,12,0,0,1,1.05-1.24,11.68,11.68,0,0,1,3.27-2.35l0,0,1.42,5.76H23ZM9.71,14.62l2.73-8.94,1.72,5.84-.44.24a21.57,21.57,0,0,0-3.52,2.44Zm1.39,2.47h-.92S11,16,11.42,15.46h.85A17,17,0,0,0,11.1,17.09ZM13.66,14h-.87l1.72-1.29.14.51A10.13,10.13,0,0,0,13.66,14ZM16,12.26l-.43-.19,1.6-1,.45,0A16,16,0,0,0,16,12.26Zm2.4-1.56L18,10.65a12.14,12.14,0,0,1,1.8-.69l.09,0A10.09,10.09,0,0,0,18.36,10.7Zm-.64-.56-.6.17,1.95-4.73,1,4.13A15.28,15.28,0,0,0,17.72,10.14Z" transform="translate(0 0)"/></g></svg>