<svg xmlns="http://www.w3.org/2000/svg" width="26" height="32" viewBox="0 0 26 32"><defs><style>.cls-1,.cls-3{fill:#0068b8;}.cls-1{fill-rule:evenodd;}.cls-2{fill:#fff;}</style></defs><title>busstop</title><g id="bk"><path class="cls-1" d="M13,0a13,13,0,0,1,10.08,21.2C20.7,24.13,13,32,13,32S5.24,24.1,2.86,21.14A13,13,0,0,1,13,0Z" transform="translate(0 0)"/><circle class="cls-2" cx="13" cy="13" r="11"/></g><g id="busstop"><path class="cls-3" d="M12,9.5a.33.33,0,0,0,.33-.33V8.5A3.67,3.67,0,0,0,5,8.5V19.83a.33.33,0,0,0,.67,0V12.7l5.75-3.2ZM5.67,11.93V9.5H10Z" transform="translate(0 0)"/><path class="cls-3" d="M20.67,12.17a.33.33,0,0,0-.33.33v-.67a1.67,1.67,0,0,0-1.67-1.67H13.33a1.67,1.67,0,0,0-1.67,1.67v.67a.33.33,0,0,0-.67,0v2.67a.33.33,0,1,0,.67,0v4a.33.33,0,0,0,.33.33h.33a.67.67,0,0,0,.67.67h.67a.67.67,0,0,0,.67-.67h3.33a.67.67,0,0,0,.67.67H19a.67.67,0,0,0,.67-.67H20a.33.33,0,0,0,.33-.33v-4a.33.33,0,1,0,.67,0V12.5A.33.33,0,0,0,20.67,12.17ZM14,11.5h4a.33.33,0,0,1,0,.67H14a.33.33,0,0,1,0-.67Zm5,5.67a.33.33,0,0,1-.33.33H13.33a.33.33,0,0,1-.33-.33v-4a.33.33,0,0,1,.33-.33h5.33a.33.33,0,0,1,.33.33v4Z" transform="translate(0 0)"/><path class="cls-3" d="M8.67,18.17H7.33a1,1,0,0,0-1,1v.67a.33.33,0,1,0,.67,0V19.5H9v.33a.33.33,0,1,0,.67,0v-.67A1,1,0,0,0,8.67,18.17Z" transform="translate(0 0)"/></g></svg>