<svg xmlns="http://www.w3.org/2000/svg" width="26" height="32" viewBox="0 0 26 32"><defs><style>.cls-1,.cls-3{fill:#0068b8;}.cls-1{fill-rule:evenodd;}.cls-2{fill:#fff;}</style></defs><title>canyon-2</title><g id="bk"><path class="cls-1" d="M13,0a13,13,0,0,1,10.08,21.2C20.7,24.13,13,32,13,32S5.24,24.1,2.86,21.14A13,13,0,0,1,13,0Z" transform="translate(0 0)"/><circle class="cls-2" cx="13" cy="13" r="11"/></g><g id="canyon-2"><path class="cls-3" d="M19,10.86a.49.49,0,0,0-.35.14l-1,1a.49.49,0,0,0-.14.35v2.24c-.16-.16-.26-.29-.49-.29h-.82v-2a1.47,1.47,0,0,0-1.47-1.47H14.3v-.49a.49.49,0,0,0-.05-.22l-.49-1a.49.49,0,0,0-.44-.27H11.08l-.83-.83a.49.49,0,0,0-.35-.14h-2a.49.49,0,0,0-.35.14l-1,1a.49.49,0,0,0-.14.35V10a1.51,1.51,0,0,0-1,1.41V19A.49.49,0,0,0,6,19.5H8.43V17.05a.49.49,0,0,1,1,0V19.5h2V14.77a.49.49,0,0,1,1,0V19.5H20A.49.49,0,0,0,20.5,19v-6.7A1.46,1.46,0,0,0,19,10.86Z" transform="translate(0 0)"/><path class="cls-3" d="M17.08,4.5a2.45,2.45,0,1,0,2.45,2.45A2.45,2.45,0,0,0,17.08,4.5Z" transform="translate(0 0)"/></g></svg>