<svg xmlns="http://www.w3.org/2000/svg" width="26" height="32" viewBox="0 0 26 32"><defs><style>.cls-1,.cls-3{fill:#0068b8;}.cls-1{fill-rule:evenodd;}.cls-2{fill:#fff;}</style></defs><title>casino-2</title><g id="bk"><path class="cls-1" d="M13,0a13,13,0,0,1,10.08,21.2C20.7,24.13,13,32,13,32S5.24,24.1,2.86,21.14A13,13,0,0,1,13,0Z" transform="translate(0 0)"/><circle class="cls-2" cx="13" cy="13" r="11"/></g><g id="casino-2"><path class="cls-3" d="M17.12,10.63h-12A1.13,1.13,0,0,0,4,11.75v4.5a1.13,1.13,0,0,0,1.13,1.13h12a1.13,1.13,0,0,0,1.06-.75h.06V11.38h-.06A1.13,1.13,0,0,0,17.12,10.63Zm-9.42,2a14.63,14.63,0,0,0-1,2.47A.37.37,0,0,1,7,15.5a.38.38,0,0,1-.38.38H5.87a.38.38,0,1,1,0-.75h0a11.65,11.65,0,0,1,.85-2.25H6.25a.38.38,0,0,1-.75,0V12.5a.38.38,0,0,1,.38-.38h1.5a.37.37,0,0,1,.33.55Zm1.54,3.58h0a.37.37,0,1,1-.75,0v-4.5a.38.38,0,0,1,.75,0Zm3-3.58a14.62,14.62,0,0,0-1,2.47.37.37,0,0,1,.31.36.38.38,0,0,1-.38.38h-.75a.38.38,0,1,1,0-.75h0a11.65,11.65,0,0,1,.85-2.25h-.52a.38.38,0,0,1-.75,0V12.5a.38.38,0,0,1,.38-.38h1.5a.37.37,0,0,1,.33.55Zm1.54,3.58h0a.37.37,0,1,1-.75,0v-4.5a.38.38,0,0,1,.75,0Zm3-3.58a14.62,14.62,0,0,0-1,2.47.37.37,0,0,1,.31.36.38.38,0,0,1-.38.38h-.75a.38.38,0,1,1,0-.75h0a11.65,11.65,0,0,1,.85-2.25h-.52a.38.38,0,0,1-.75,0V12.5a.38.38,0,0,1,.38-.38h1.5a.37.37,0,0,1,.33.55Z" transform="translate(0 0)"/><path class="cls-3" d="M22,8.75a1.13,1.13,0,1,0-1.5,1.06v3.81h-.75V12.5A1.12,1.12,0,0,0,19,11.44V14h0v2.56a1.12,1.12,0,0,0,.75-1.06V14.38h1.13a.38.38,0,0,0,.38-.38V9.81A1.13,1.13,0,0,0,22,8.75Z" transform="translate(0 0)"/></g></svg>