<svg xmlns="http://www.w3.org/2000/svg" width="26" height="32" viewBox="0 0 26 32"><defs><style>.cls-1,.cls-3{fill:#0068b8;}.cls-1{fill-rule:evenodd;}.cls-2{fill:#fff;}</style></defs><title>castle-2</title><g id="bk"><path class="cls-1" d="M13,0a13,13,0,0,1,10.08,21.2C20.7,24.13,13,32,13,32S5.24,24.1,2.86,21.14A13,13,0,0,1,13,0Z" transform="translate(0 0)"/><circle class="cls-2" cx="13" cy="13" r="11"/></g><g id="castle-2"><path class="cls-3" d="M16.73,10.38v.52h.77v-.52h1v.52h.77v-.49h1v1.47H15.75v-1.5Zm-6.49,1.5V10.42h-1v.49H8.5v-.52h-1v.52H6.75v-.52h-1v1.5h4.48Zm9.65.35V18a3.27,3.27,0,0,0-1.61-.43H18a1.91,1.91,0,0,0-1.37-.6,1.64,1.64,0,0,0-.41.05,5.18,5.18,0,0,0-5.71-.51,2,2,0,0,0-1.47-.71,2.18,2.18,0,0,0-2,1.83A3.37,3.37,0,0,0,6.1,18V12.24H9.93v1.57h1.15V8.54H9.85l3-3V3.3h.34v.13c.92,1.66,1.84-1.18,2.77.7-.92-1.34-1.84,2-2.77.91v.52l3,3H14.92v5.27h1.15V12.24ZM13.84,9.9a.84.84,0,1,0-1.69,0v1.66h1.69V9.9ZM18.29,18a2.77,2.77,0,0,0-.42,0,1.55,1.55,0,0,0-1.2-.62,1.4,1.4,0,0,0-.51.1,4.77,4.77,0,0,0-5.74-.43,1.61,1.61,0,0,0-1.36-.84A1.85,1.85,0,0,0,7.4,18,3.3,3.3,0,0,0,5,19.7H21A3.22,3.22,0,0,0,18.29,18Z" transform="translate(0 0)"/></g></svg>