<svg xmlns="http://www.w3.org/2000/svg" width="26" height="32" viewBox="0 0 26 32"><defs><style>.cls-1,.cls-3{fill:#0068b8;}.cls-1{fill-rule:evenodd;}.cls-2{fill:#fff;}</style></defs><title>catholicgrave</title><g id="bk"><path class="cls-1" d="M13,0a13,13,0,0,1,10.08,21.2C20.7,24.13,13,32,13,32S5.24,24.1,2.86,21.14A13,13,0,0,1,13,0Z" transform="translate(0 0)"/><circle class="cls-2" cx="13" cy="13" r="11"/></g><g id="catholicgrave"><path class="cls-3" d="M20.56,17.37a.46.46,0,0,0-.33-.14H18.34V9.34a5.34,5.34,0,1,0-10.69,0v7.89H5.77a.46.46,0,0,0-.46.46v1.84a.46.46,0,0,0,.46.46H20.23a.46.46,0,0,0,.46-.46V17.7A.46.46,0,0,0,20.56,17.37Zm-12-8a4.42,4.42,0,0,1,8.84,0v7.89H8.58ZM16.07,16a.46.46,0,0,1-.46.46H10.39a.46.46,0,0,1,0-.92h5.21A.46.46,0,0,1,16.07,16Zm0-1.66a.46.46,0,0,1-.46.46H10.39a.46.46,0,0,1,0-.92h5.21A.46.46,0,0,1,16.07,14.39Zm0-1.66a.46.46,0,0,1-.46.46H10.39a.46.46,0,0,1,0-.92h5.21A.46.46,0,0,1,16.07,12.73ZM11.24,7.84a.46.46,0,0,1,.46-.46h.84v-1a.46.46,0,1,1,.92,0v1h.84a.46.46,0,1,1,0,.92h-.84v2.27a.46.46,0,0,1-.92,0V8.31H11.7A.46.46,0,0,1,11.24,7.84Z" transform="translate(0 0)"/></g></svg>