<svg xmlns="http://www.w3.org/2000/svg" width="26" height="32" viewBox="0 0 26 32"><defs><style>.cls-1,.cls-3{fill:#0068b8;}.cls-1{fill-rule:evenodd;}.cls-2{fill:#fff;}</style></defs><title>cathedral</title><g id="bk"><path class="cls-1" d="M13,0a13,13,0,0,1,10.08,21.2C20.7,24.13,13,32,13,32S5.24,24.1,2.86,21.14A13,13,0,0,1,13,0Z" transform="translate(0 0)"/><circle class="cls-2" cx="13" cy="13" r="11"/></g><g id="cathedral"><path class="cls-3" d="M9.27,15.43a.53.53,0,0,0-.53.53V18.1H9.8V16A.53.53,0,0,0,9.27,15.43Z" transform="translate(0 0)"/><path class="cls-3" d="M7.67,15.43a.53.53,0,0,0-.53.53V18.1H8.2V16A.53.53,0,0,0,7.67,15.43Z" transform="translate(0 0)"/><path class="cls-3" d="M7.4,9.83a.53.53,0,0,0-.53.53V12.5H7.93V10.37A.53.53,0,0,0,7.4,9.83Z" transform="translate(0 0)"/><path class="cls-3" d="M16.73,15.43a.53.53,0,0,0-.53.53V18.1h1.07V16A.53.53,0,0,0,16.73,15.43Z" transform="translate(0 0)"/><path class="cls-3" d="M18.33,15.43a.53.53,0,0,0-.53.53V18.1h1.07V16A.53.53,0,0,0,18.33,15.43Z" transform="translate(0 0)"/><path class="cls-3" d="M18.6,9.83a.53.53,0,0,0-.53.53V12.5h1.07V10.37A.53.53,0,0,0,18.6,9.83Z" transform="translate(0 0)"/><path class="cls-3" d="M18.87,6.39V5.83h.53a.27.27,0,1,0,0-.53h-.53V4.77a.27.27,0,0,0-.53,0V5.3H17.8a.27.27,0,1,0,0,.53h.53v.55a1.87,1.87,0,0,0-1.6,1.85v5l-1-1h.16a.27.27,0,1,0,0-.53h-.55a2.4,2.4,0,0,0-1.58-2V8.5h.8a.27.27,0,0,0,.27-.27V7.17a.27.27,0,0,0-.27-.27h-.8V6.1a.27.27,0,0,0-.27-.27H12.47a.27.27,0,0,0-.27.27v.8h-.8a.27.27,0,0,0-.27.27V8.23a.27.27,0,0,0,.27.27h.8V9.71a2.4,2.4,0,0,0-1.58,2h-.55a.27.27,0,1,0,0,.53h.16l-1,1v-5a1.87,1.87,0,0,0-1.6-1.85V5.83H8.2a.27.27,0,1,0,0-.53H7.67V4.77a.27.27,0,1,0-.53,0V5.3H6.6a.27.27,0,1,0,0,.53h.53v.55a1.87,1.87,0,0,0-1.6,1.85v12a.27.27,0,0,0,.27.27h5.07V16a2.13,2.13,0,1,1,4.27,0V20.5H20.2a.27.27,0,0,0,.27-.27v-12A1.87,1.87,0,0,0,18.87,6.39ZM7.4,6.9A1.34,1.34,0,0,1,8.71,8H6.09A1.34,1.34,0,0,1,7.4,6.9ZM6.33,10.37a1.07,1.07,0,1,1,2.13,0V13H6.33Zm4,8.27H6.6V16a1.06,1.06,0,0,1,1.87-.7,1.06,1.06,0,0,1,1.87.7Zm.82-6.93a1.87,1.87,0,0,1,3.7,0Zm8.25,6.93H15.67V16a1.06,1.06,0,0,1,1.87-.7,1.06,1.06,0,0,1,1.87.7Zm.27-5.6H17.53V10.37a1.07,1.07,0,0,1,2.13,0ZM17.29,8a1.33,1.33,0,0,1,2.61,0Z" transform="translate(0 0)"/><path class="cls-3" d="M13,14.37A1.6,1.6,0,0,0,11.4,16V20.5h3.2V16A1.6,1.6,0,0,0,13,14.37Z" transform="translate(0 0)"/></g></svg>