<svg xmlns="http://www.w3.org/2000/svg" width="26" height="32" viewBox="0 0 26 32"><defs><style>.cls-1,.cls-3{fill:#0068b8;}.cls-1{fill-rule:evenodd;}.cls-2{fill:#fff;}</style></defs><title>cave-2</title><g id="bk"><path class="cls-1" d="M13,0a13,13,0,0,1,10.08,21.2C20.7,24.13,13,32,13,32S5.24,24.1,2.86,21.14A13,13,0,0,1,13,0Z" transform="translate(0 0)"/><circle class="cls-2" cx="13" cy="13" r="11"/></g><g id="cave-2"><path class="cls-3" d="M19,13c-1.76-2.21-1.46-4.66-2.86-4.66a2.53,2.53,0,0,0-1.92,1.08c-.49-2.08-1.42-3.49-2.49-3.49-1.28,0-2.36,2-2.73,4.79a2.15,2.15,0,0,0-1.17-.37c-1.1,0-1.61,1.47-2,3.84s-2,3.84-.94,3.84h5.41c0-.14,0-.28,0-.43,0-2.2,1.11-4,2.47-4s2.47,1.78,2.47,4c0,.15,0,.29,0,.43H21C22.37,18.05,20.73,15.23,19,13Z" transform="translate(0 0)"/></g></svg>