<svg xmlns="http://www.w3.org/2000/svg" width="26" height="32" viewBox="0 0 26 32"><defs><style>.cls-1,.cls-3{fill:#0068b8;}.cls-1{fill-rule:evenodd;}.cls-2{fill:#fff;}</style></defs><title>cemetary</title><g id="bk"><path class="cls-1" d="M13,0a13,13,0,0,1,10.08,21.2C20.7,24.13,13,32,13,32S5.24,24.1,2.86,21.14A13,13,0,0,1,13,0Z" transform="translate(0 0)"/><circle class="cls-2" cx="13" cy="13" r="11"/></g><g id="cemetary"><path class="cls-3" d="M17.88,5.81a4.13,4.13,0,0,0-4.11,3.82,4.45,4.45,0,0,0-1.53,0A4.12,4.12,0,0,0,4,9.94v5.25a.37.37,0,0,0,.38.38H8.13v4.23A2.92,2.92,0,0,0,6.3,18.57a.38.38,0,0,0-.11.74A2,2,0,0,1,7.33,20l-1-.3a.38.38,0,1,0-.22.72L8,21a.37.37,0,0,0,.33.2l.09,0,.1,0h9l.11,0h0L20,20.42a.38.38,0,1,0-.22-.72l-1.47.45a2.11,2.11,0,0,1,1.26-.85.38.38,0,0,0-.11-.74,2.74,2.74,0,0,0-1.63,1v-4h3.75a.37.37,0,0,0,.38-.37V9.94A4.13,4.13,0,0,0,17.88,5.81Zm-.75,8.63v6H8.88v-6a4.13,4.13,0,1,1,8.25,0Zm-12.37.37V9.94a3.37,3.37,0,0,1,6.74-.14,4.88,4.88,0,0,0-3.37,4.64v.37Zm16.5,0H17.88v-.37A4.88,4.88,0,0,0,14.51,9.8a3.37,3.37,0,0,1,6.74.14Z" transform="translate(0 0)"/><polygon class="cls-3" points="12.63 15.56 13.38 15.56 13.38 12.94 14.5 12.94 14.5 12.19 13.38 12.19 13.38 11.44 12.63 11.44 12.63 12.19 11.5 12.19 11.5 12.94 12.63 12.94 12.63 15.56"/><polygon class="cls-3" points="18.25 7.31 17.5 7.31 17.5 8.06 16.75 8.06 16.75 8.81 17.5 8.81 17.5 10.69 18.25 10.69 18.25 8.81 19 8.81 19 8.06 18.25 8.06 18.25 7.31"/><polygon class="cls-3" points="8.5 8.81 9.25 8.81 9.25 8.06 8.5 8.06 8.5 7.31 7.75 7.31 7.75 8.06 7 8.06 7 8.81 7.75 8.81 7.75 10.69 8.5 10.69 8.5 8.81"/></g></svg>