<svg xmlns="http://www.w3.org/2000/svg" width="26" height="32" viewBox="0 0 26 32"><defs><style>.cls-1,.cls-3{fill:#0068b8;}.cls-1{fill-rule:evenodd;}.cls-2{fill:#fff;}</style></defs><title>chapel-2</title><g id="bk"><path class="cls-1" d="M13,0a13,13,0,0,1,10.08,21.2C20.7,24.13,13,32,13,32S5.24,24.1,2.86,21.14A13,13,0,0,1,13,0Z" transform="translate(0 0)"/><circle class="cls-2" cx="13" cy="13" r="11"/></g><g id="chapel-2"><path class="cls-3" d="M17.44,14.37V10.58L13.7,7.38V6.07h1.4V4.67H13.7V3.5H12.3V4.67H10.9v1.4h1.4V7.38L8.56,10.58v3.79l-1.87,1.4V21.5h5.14V18.69h2.34V21.5h5.14V15.77ZM10,11.23l3-2.6,3,2.6v2.09L13,11l-3,2.28Zm7.95,8.87H15.57V17.29H10.43V20.1H8.09V16.47L13,12.79l4.91,3.68Z" transform="translate(0 0)"/></g></svg>