<svg xmlns="http://www.w3.org/2000/svg" width="26" height="32" viewBox="0 0 26 32"><defs><style>.cls-1,.cls-3{fill:#0068b8;}.cls-1{fill-rule:evenodd;}.cls-2{fill:#fff;}</style></defs><title>chapel</title><g id="bk"><path class="cls-1" d="M13,0a13,13,0,0,1,10.08,21.2C20.7,24.13,13,32,13,32S5.24,24.1,2.86,21.14A13,13,0,0,1,13,0Z" transform="translate(0 0)"/><circle class="cls-2" cx="13" cy="13" r="11"/></g><g id="chapel"><path class="cls-3" d="M17.86,12.9,13.68,7.79V6.46h.65a.68.68,0,1,0,0-1.37h-.65V4.18a.68.68,0,0,0-1.37,0v.91h-.65a.68.68,0,1,0,0,1.37h.65V7.79L8.14,12.9a.68.68,0,0,0-.15.43v7.48a.68.68,0,0,0,.68.68h1.46V18.62a2.87,2.87,0,1,1,5.74,0V21.5h1.46a.68.68,0,0,0,.68-.68V13.34A.68.68,0,0,0,17.86,12.9Z" transform="translate(0 0)"/><path class="cls-3" d="M13,16.39a2.23,2.23,0,0,0-2.23,2.23V21.5h.68V18.72a1.55,1.55,0,0,1,3.1,0V21.5h.68V18.62A2.23,2.23,0,0,0,13,16.39Z" transform="translate(0 0)"/></g></svg>