<svg xmlns="http://www.w3.org/2000/svg" width="26" height="32" viewBox="0 0 26 32"><defs><style>.cls-1,.cls-3{fill:#0068b8;}.cls-1{fill-rule:evenodd;}.cls-2{fill:#fff;}</style></defs><title>church</title><g id="bk"><path class="cls-1" d="M13,0a13,13,0,0,1,10.08,21.2C20.7,24.13,13,32,13,32S5.24,24.1,2.86,21.14A13,13,0,0,1,13,0Z" transform="translate(0 0)"/><circle class="cls-2" cx="13" cy="13" r="11"/></g><g id="church"><path class="cls-3" d="M15.5,13.21V10L13.59,6.64V5.43h.78V4.26h-.78V3.5H12.41v.76h-.78V5.43h.78V6.64L10.5,10v3.25l-2,1.24v7h9v-7ZM13,8l.9,1.57H12.1Zm1.33,2.74v1.75L13,11.65l-1.36.84V10.72Zm-.38,9.61h-1.9v-3.7a.95.95,0,0,1,1.9,0v3.7Zm2.38,0h-1.2v-3.7a2.12,2.12,0,0,0-4.25,0v3.7H9.67V15.12L13,13l3.3,2.08v5.21Z" transform="translate(0 0)"/></g></svg>