<svg xmlns="http://www.w3.org/2000/svg" width="26" height="32" viewBox="0 0 26 32"><defs><style>.cls-1,.cls-3{fill:#0068b8;}.cls-1{fill-rule:evenodd;}.cls-2{fill:#fff;}</style></defs><title>church-2</title><g id="bk"><path class="cls-1" d="M13,0a13,13,0,0,1,10.08,21.2C20.7,24.13,13,32,13,32S5.24,24.1,2.86,21.14A13,13,0,0,1,13,0Z" transform="translate(0 0)"/><circle class="cls-2" cx="13" cy="13" r="11"/></g><g id="church-2"><polygon class="cls-3" points="5.42 15.88 5.42 20.5 7.06 20.5 7.06 14.71 5.42 15.88"/><polygon class="cls-3" points="18.94 14.71 18.94 20.5 20.58 20.5 20.58 15.88 18.94 14.71"/><path class="cls-3" d="M13,16.81a.62.62,0,0,0-.61.61V20.5h1.23V17.43A.62.62,0,0,0,13,16.81Z" transform="translate(0 0)"/><path class="cls-3" d="M13.61,8.14v-2h1V4.93h-1V3.5H12.39V4.93h-1V6.16h1v2l-4.1,3.69V20.5h2.87V17.43a1.84,1.84,0,1,1,3.69,0V20.5h2.87V11.83ZM13,13.33a.61.61,0,1,1,.61-.61A.61.61,0,0,1,13,13.33Z" transform="translate(0 0)"/><rect class="cls-3" x="16.29" y="4.93" width="2.05" height="1.23"/><rect class="cls-3" x="16.22" y="7.32" width="1.23" height="2.05" transform="translate(3.35 21.44) rotate(-70.53)"/><rect class="cls-3" x="7.67" y="4.93" width="2.05" height="1.23"/><rect class="cls-3" x="8.15" y="7.73" width="2.05" height="1.23" transform="translate(-2.26 3.54) rotate(-19.47)"/></g></svg>