<svg xmlns="http://www.w3.org/2000/svg" width="26" height="32" viewBox="0 0 26 32"><defs><style>.cls-1,.cls-3{fill:#0068b8;}.cls-1{fill-rule:evenodd;}.cls-2{fill:#fff;}</style></defs><title>cinema</title><g id="bk"><path class="cls-1" d="M13,0a13,13,0,0,1,10.08,21.2C20.7,24.13,13,32,13,32S5.24,24.1,2.86,21.14A13,13,0,0,1,13,0Z" transform="translate(0 0)"/><circle class="cls-2" cx="13" cy="13" r="11"/></g><g id="cinema"><path class="cls-3" d="M19.75,10.45c.41-.31.75-.14.75.38v8.44c0,.52-.34.68-.75.38L17.5,18a2.12,2.12,0,0,1-.75-1.5V13.64a2.12,2.12,0,0,1,.75-1.5ZM7.37,6.14A1.88,1.88,0,1,0,9.25,8,1.88,1.88,0,0,0,7.37,6.14ZM13,5.2a2.34,2.34,0,1,0,2.34,2.34A2.34,2.34,0,0,0,13,5.2ZM9.25,12.7h6.56v5.63a.94.94,0,0,1-.94.94H6.44a.94.94,0,0,1-.94-.94V11.77a.94.94,0,0,1,.94-.94h8.44a.94.94,0,0,1,.94.94H9.25Zm0,3.75a.94.94,0,1,0-.94.94A.94.94,0,0,0,9.25,16.45Z" transform="translate(0 0)"/></g></svg>