<svg xmlns="http://www.w3.org/2000/svg" width="26" height="32" viewBox="0 0 26 32"><defs><style>.cls-1,.cls-3{fill:#0068b8;}.cls-1{fill-rule:evenodd;}.cls-2{fill:#fff;}</style></defs><title>circus</title><g id="bk"><path class="cls-1" d="M13,0a13,13,0,0,1,10.08,21.2C20.7,24.13,13,32,13,32S5.24,24.1,2.86,21.14A13,13,0,0,1,13,0Z" transform="translate(0 0)"/><circle class="cls-2" cx="13" cy="13" r="11"/></g><g id="circus"><path class="cls-3" d="M5.7,11.13v1a1,1,0,0,0,2.09,0,1,1,0,0,0,2.09,0,1,1,0,0,0,2.09,0,1,1,0,0,0,2.09,0,1,1,0,0,0,2.09,0,1,1,0,0,0,2.09,0,1,1,0,0,0,2.09,0v-1H5.7Z" transform="translate(0 0)"/><path class="cls-3" d="M12,14a2.08,2.08,0,0,1-1.57.21,16.18,16.18,0,0,1-.4,3.57,5,5,0,0,1-.54,1.37h1.47c1.59,0,2-2.34,2.08-4.87A2.07,2.07,0,0,1,12,14Z" transform="translate(0 0)"/><path class="cls-3" d="M19.27,14.26h0a2.07,2.07,0,0,1-1-.28,2.08,2.08,0,0,1-1.56.22c.07,3.1.64,4.93,1.56,4.93H21v-1C19.41,18.09,19.33,16.79,19.27,14.26Z" transform="translate(0 0)"/><path class="cls-3" d="M8.83,14.26a2.07,2.07,0,0,1-1-.28,2.07,2.07,0,0,1-1,.28h0c-.06,2.53-.14,3.83-1.73,3.83v1H7.78c.92,0,1.49-1.83,1.56-4.93A2.08,2.08,0,0,1,8.83,14.26Z" transform="translate(0 0)"/><path class="cls-3" d="M16,17.76a16.18,16.18,0,0,1-.4-3.57A2.08,2.08,0,0,1,14,14a2.07,2.07,0,0,1-1,.28c.06,2.53.49,4.87,2.08,4.87h1.47A5,5,0,0,1,16,17.76Z" transform="translate(0 0)"/><path class="cls-3" d="M13.52,7.9V7h1.57V4.87H12.48v3a11,11,0,0,1-4.12,2.19h9.29A11,11,0,0,1,13.52,7.9Z" transform="translate(0 0)"/></g></svg>