<svg xmlns="http://www.w3.org/2000/svg" width="26" height="32" viewBox="0 0 26 32"><defs><style>.cls-1,.cls-3{fill:#0068b8;}.cls-1{fill-rule:evenodd;}.cls-2{fill:#fff;}</style></defs><title>citysquare</title><g id="bk"><path class="cls-1" d="M13,0a13,13,0,0,1,10.08,21.2C20.7,24.13,13,32,13,32S5.24,24.1,2.86,21.14A13,13,0,0,1,13,0Z" transform="translate(0 0)"/><circle class="cls-2" cx="13" cy="13" r="11"/></g><g id="citysquare"><path class="cls-3" d="M8.15,5.9A1.56,1.56,0,1,0,9.71,7.46,1.56,1.56,0,0,0,8.15,5.9Zm0,2.43A.87.87,0,1,1,9,7.46.87.87,0,0,1,8.15,8.33Z" transform="translate(0 0)"/><path class="cls-3" d="M18.59,5.65a2.92,2.92,0,0,0-2.91,2.91v4.16a2.93,2.93,0,0,0,0,.31h-.16v-.16a.35.35,0,1,0-.69,0V13H11v-.16a.35.35,0,1,0-.69,0V13H9.15a.35.35,0,0,0-.35.35v1.67a.35.35,0,0,0,.35.35h1.11v.35H9.15a.35.35,0,0,0-.35.35v1a.35.35,0,0,0,.35.35h.66v1.25H6.89V17.45a2,2,0,1,0-.69,0v1.21H6a.35.35,0,0,0,0,.69H16.37a.35.35,0,0,0,0-.69H16V17.41h.66a.35.35,0,0,0,.35-.35v-1a.35.35,0,0,0-.35-.35H15.53V15.4H16a.35.35,0,1,0,0-.69H9.5v-.14h6.83a2.91,2.91,0,0,0,1.91,1.05v3h-.61a.35.35,0,0,0,0,.69H20a.35.35,0,0,0,0-.69H18.93v-3a2.92,2.92,0,0,0,2.57-2.89V8.56A2.92,2.92,0,0,0,18.59,5.65Zm-13,10,.6.6v.47a1.35,1.35,0,1,1,.69,0v-.47l.55-.55A.35.35,0,0,0,7,15.23l-.41.41-.46-.46a.35.35,0,1,0-.49.49Zm5.12,3H10.5V17.41h.21Zm3.68,0h-3V17.41h3Zm.9,0h-.21V17.41h.21Zm1-2.22v.28H9.5v-.28ZM11,15.4h3.88v.35H11ZM9.5,13.87v-.14h6.35l.06.14Zm11.31-1.14a2.22,2.22,0,0,1-1.87,2.19V13.48l.92-1a.35.35,0,0,0-.51-.47l-.42.45V11.34l.92-1a.35.35,0,0,0-.51-.47l-.42.45V9.72a.35.35,0,0,0-.69,0v1.56l-.36-.38a.35.35,0,0,0-.51.47l.86.92v2.62a2.22,2.22,0,0,1-1.87-2.19V8.56a2.22,2.22,0,1,1,4.44,0v4.16Z" transform="translate(0 0)"/></g></svg>