<svg xmlns="http://www.w3.org/2000/svg" width="26" height="32" viewBox="0 0 26 32"><defs><style>.cls-1,.cls-3{fill:#0068b8;}.cls-1{fill-rule:evenodd;}.cls-2{fill:#fff;}</style></defs><title>citywall</title><g id="bk"><path class="cls-1" d="M13,0a13,13,0,0,1,10.08,21.2C20.7,24.13,13,32,13,32S5.24,24.1,2.86,21.14A13,13,0,0,1,13,0Z" transform="translate(0 0)"/><circle class="cls-2" cx="13" cy="13" r="11"/></g><g id="citywall"><path class="cls-3" d="M5.6,12.2H9.43a.6.6,0,0,0,.6-.6v-1.2a.6.6,0,0,0-.6-.6H5.6a.6.6,0,0,0-.6.6v1.2A.6.6,0,0,0,5.6,12.2Z" transform="translate(0 0)"/><path class="cls-3" d="M15.5,11.6v-1.2a.6.6,0,0,0-.6-.6H11.07a.6.6,0,0,0-.6.6v1.2a.6.6,0,0,0,.6.6H14.9A.6.6,0,0,0,15.5,11.6Z" transform="translate(0 0)"/><path class="cls-3" d="M21,11.6v-1.2a.6.6,0,0,0-.6-.6H16.54a.6.6,0,0,0-.6.6v1.2a.6.6,0,0,0,.6.6h3.84A.6.6,0,0,0,21,11.6Z" transform="translate(0 0)"/><path class="cls-3" d="M8.3,9.21h3.84a.6.6,0,0,0,.6-.6V7.42a.6.6,0,0,0-.6-.6H8.3a.6.6,0,0,0-.6.6v1.2A.6.6,0,0,0,8.3,9.21Z" transform="translate(0 0)"/><path class="cls-3" d="M13.82,9.21h3.84a.6.6,0,0,0,.6-.6V7.42a.6.6,0,0,0-.6-.6H13.82a.6.6,0,0,0-.6.6v1.2A.6.6,0,0,0,13.82,9.21Z" transform="translate(0 0)"/><path class="cls-3" d="M5.6,9.21h1a.6.6,0,0,0,.6-.6V7.42a.6.6,0,0,0-.6-.6h-1a.6.6,0,0,0-.6.6v1.2A.6.6,0,0,0,5.6,9.21Z" transform="translate(0 0)"/><path class="cls-3" d="M20.4,6.82h-1a.6.6,0,0,0-.6.6v1.2a.6.6,0,0,0,.6.6h1a.6.6,0,0,0,.6-.6V7.42A.6.6,0,0,0,20.4,6.82Z" transform="translate(0 0)"/><path class="cls-3" d="M9.43,15.79H5.6a.6.6,0,0,0-.6.6v1.2a.6.6,0,0,0,.6.6H9.43a.6.6,0,0,0,.6-.6v-1.2A.6.6,0,0,0,9.43,15.79Z" transform="translate(0 0)"/><path class="cls-3" d="M14.9,15.79H11.07a.6.6,0,0,0-.6.6v1.2a.6.6,0,0,0,.6.6H14.9a.6.6,0,0,0,.6-.6v-1.2A.6.6,0,0,0,14.9,15.79Z" transform="translate(0 0)"/><path class="cls-3" d="M20.38,15.79H16.54a.6.6,0,0,0-.6.6v1.2a.6.6,0,0,0,.6.6h3.84a.6.6,0,0,0,.6-.6v-1.2A.6.6,0,0,0,20.38,15.79Z" transform="translate(0 0)"/><path class="cls-3" d="M8.3,12.8a.6.6,0,0,0-.6.6v1.2a.6.6,0,0,0,.6.6h3.84a.6.6,0,0,0,.6-.6V13.4a.6.6,0,0,0-.6-.6Z" transform="translate(0 0)"/><path class="cls-3" d="M13.82,15.19h3.84a.6.6,0,0,0,.6-.6V13.4a.6.6,0,0,0-.6-.6H13.82a.6.6,0,0,0-.6.6v1.2A.6.6,0,0,0,13.82,15.19Z" transform="translate(0 0)"/><path class="cls-3" d="M5.6,15.19h1a.6.6,0,0,0,.6-.6V13.4a.6.6,0,0,0-.6-.6h-1a.6.6,0,0,0-.6.6v1.2A.6.6,0,0,0,5.6,15.19Z" transform="translate(0 0)"/><path class="cls-3" d="M20.4,12.8h-1a.6.6,0,0,0-.6.6v1.2a.6.6,0,0,0,.6.6h1a.6.6,0,0,0,.6-.6V13.4A.6.6,0,0,0,20.4,12.8Z" transform="translate(0 0)"/></g></svg>