<svg xmlns="http://www.w3.org/2000/svg" width="26" height="32" viewBox="0 0 26 32"><defs><style>.cls-1,.cls-3{fill:#0068b8;}.cls-1{fill-rule:evenodd;}.cls-2{fill:#fff;}</style></defs><title>coffee</title><g id="bk"><path class="cls-1" d="M13,0a13,13,0,0,1,10.08,21.2C20.7,24.13,13,32,13,32S5.24,24.1,2.86,21.14A13,13,0,0,1,13,0Z" transform="translate(0 0)"/><circle class="cls-2" cx="13" cy="13" r="11"/></g><g id="coffee"><path class="cls-3" d="M11.11,7.62c-.36-.36-.51-.53-.51-.94s.16-.58.51-.94a.73.73,0,0,0-1-1,2.53,2.53,0,0,0,0,3.94c.36.36.51.53.51.94a.73.73,0,1,0,1.45,0A2.59,2.59,0,0,0,11.11,7.62Z" transform="translate(0 0)"/><path class="cls-3" d="M14.5,7.62c-.36-.36-.51-.53-.51-.94s.16-.58.51-.94a.73.73,0,1,0-1-1,2.53,2.53,0,0,0,0,3.94c.36.36.51.53.51.94a.73.73,0,0,0,1.45,0A2.59,2.59,0,0,0,14.5,7.62Z" transform="translate(0 0)"/><path class="cls-3" d="M17.42,17.11h.69a2.67,2.67,0,0,0,0-5.33H7.44a.73.73,0,0,0-.73.73v2.42A5.56,5.56,0,0,0,8.54,19H7A.73.73,0,0,0,7,20.5H17.62a.73.73,0,0,0,0-1.45H16A5.6,5.6,0,0,0,17.42,17.11Zm.44-2.18v-1.7h.24a1.21,1.21,0,0,1,0,2.42h-.29A5.61,5.61,0,0,0,17.86,14.92Z" transform="translate(0 0)"/></g></svg>