<svg xmlns="http://www.w3.org/2000/svg" width="26" height="32" viewBox="0 0 26 32"><defs><style>.cls-1,.cls-3{fill:#0068b8;}.cls-1{fill-rule:evenodd;}.cls-2{fill:#fff;}</style></defs><title>conference</title><g id="bk"><path class="cls-1" d="M13,0a13,13,0,0,1,10.08,21.2C20.7,24.13,13,32,13,32S5.24,24.1,2.86,21.14A13,13,0,0,1,13,0Z" transform="translate(0 0)"/><circle class="cls-2" cx="13" cy="13" r="11"/></g><g id="conference"><path class="cls-3" d="M13,11.26A3.13,3.13,0,1,0,9.87,8.13,3.13,3.13,0,0,0,13,11.26ZM11.49,7.8a.47.47,0,0,1,.67,0l.45.45L13.84,7a.47.47,0,1,1,.67.67L12.94,9.25a.47.47,0,0,1-.67,0l-.79-.79A.47.47,0,0,1,11.49,7.8Z" transform="translate(0 0)"/><path class="cls-3" d="M6.84,9.57A1.84,1.84,0,1,0,5,7.73,1.84,1.84,0,0,0,6.84,9.57Z" transform="translate(0 0)"/><path class="cls-3" d="M5.18,12.21V16a1.59,1.59,0,0,0,1.59,1.59H8.84v2.82a.39.39,0,0,0,.39.39h1.84a.39.39,0,0,0,.39-.39V16.37A1.34,1.34,0,0,0,10.12,15H8.5V12.21a1.66,1.66,0,0,0-3.32,0Z" transform="translate(0 0)"/><path class="cls-3" d="M19.16,9.57a1.84,1.84,0,1,0-1.84-1.84A1.84,1.84,0,0,0,19.16,9.57Z" transform="translate(0 0)"/><path class="cls-3" d="M17.5,12.21V15H15.88a1.34,1.34,0,0,0-1.34,1.34v4.07a.39.39,0,0,0,.39.39h1.84a.39.39,0,0,0,.39-.39V17.62h2.07A1.59,1.59,0,0,0,20.82,16V12.21a1.66,1.66,0,0,0-3.32,0Z" transform="translate(0 0)"/><path class="cls-3" d="M15.75,13.18a.47.47,0,1,0,0-.95H10.25a.47.47,0,0,0,0,.95h2.28v7.35a.47.47,0,1,0,.95,0V13.18Z" transform="translate(0 0)"/></g></svg>