<svg xmlns="http://www.w3.org/2000/svg" width="26" height="32" viewBox="0 0 26 32"><defs><style>.cls-1,.cls-3{fill:#0068b8;}.cls-1{fill-rule:evenodd;}.cls-2{fill:#fff;}</style></defs><title>convent</title><g id="bk"><path class="cls-1" d="M13,0a13,13,0,0,1,10.08,21.2C20.7,24.13,13,32,13,32S5.24,24.1,2.86,21.14A13,13,0,0,1,13,0Z" transform="translate(0 0)"/><circle class="cls-2" cx="13" cy="13" r="11"/></g><g id="convent"><path class="cls-3" d="M9.82,13.86v.35H12v-.35a3.75,3.75,0,0,0-1.09-2.64h0A3.76,3.76,0,0,0,9.82,13.86Z" transform="translate(0 0)"/><path class="cls-3" d="M20.07,16.53,15.5,14.68v-.53l.26.29a.53.53,0,0,0,.76,0l.6-.55a.54.54,0,0,0,0-.76l-5.58-6V5.78H12a.46.46,0,0,0,.46-.43V5A.44.44,0,0,0,12,4.59h-.42V3.93a.45.45,0,0,0-.46-.43h-.34a.41.41,0,0,0-.42.43v.66H9.86A.4.4,0,0,0,9.45,5v.34a.41.41,0,0,0,.41.43h.47V7.1l-5.61,6a.54.54,0,0,0,0,.76l.6.56a.53.53,0,0,0,.75,0l.26-.29v5.73A.64.64,0,0,0,7,20.5H19.85a.58.58,0,0,0,.57-.57V17A.57.57,0,0,0,20.07,16.53Zm-5.83,2.71H12.51V17.34a1.57,1.57,0,0,0-1.56-1.56h0a1.57,1.57,0,0,0-1.57,1.56v1.91H7.61V12.79l3.32-3.56,3.31,3.56v6.46Zm5.07.14H15.57V15.91l3.74,1.51Z" transform="translate(0 0)"/></g></svg>