<svg xmlns="http://www.w3.org/2000/svg" width="26" height="32" viewBox="0 0 26 32"><defs><style>.cls-1,.cls-3{fill:#0068b8;}.cls-1{fill-rule:evenodd;}.cls-2{fill:#fff;}</style></defs><title>dansinghall</title><g id="bk"><path class="cls-1" d="M13,0a13,13,0,0,1,10.08,21.2C20.7,24.13,13,32,13,32S5.24,24.1,2.86,21.14A13,13,0,0,1,13,0Z" transform="translate(0 0)"/><circle class="cls-2" cx="13" cy="13" r="11"/></g><g id="dansinghall"><circle class="cls-3" cx="17.57" cy="7.07" r="1.3"/><path class="cls-3" d="M22,11.44a.59.59,0,0,0-.66-.5l-2,.28L18,9.79l.86.57v-.8A.54.54,0,0,0,18.37,9H16.53a.54.54,0,0,0-.37.15l-1.56.49a.59.59,0,0,0-.26.16l-1.51,1.63a.59.59,0,0,0,.86.8l1.41-1.51.9-.28s0,1.81,0,2.68a3.08,3.08,0,0,0,.13.89l.83,2.77-1.14,2.53a.64.64,0,0,0,1.16.52L18.2,17.1a.64.64,0,0,0,0-.45l-.63-2.06,1.65.65L18.67,18a.64.64,0,1,0,1.24.26L20.61,15a.64.64,0,0,0-.39-.72l-1.32-.52v-.69a.78.78,0,0,1-.7-.43l-1-2.06,1.48,1.67a.59.59,0,0,0,.52.19l2.33-.32A.59.59,0,0,0,22,11.44Z" transform="translate(0 0)"/><circle class="cls-3" cx="6.98" cy="7.31" r="1.31"/><path class="cls-3" d="M12.07,10.13a.6.6,0,0,0-.33-.41s-1.54-.67-2.26-1a1,1,0,0,0-.87-.11l-1.47.6a.89.89,0,0,0-.48,1.16l.42,1,1-1.64-.69,2.16-2,.56a.6.6,0,1,0,.32,1.15L8,12.93a.6.6,0,0,0,.4-.39l.76-2.38L9,12.58a1.14,1.14,0,0,1-.82.9L8,13.54l.11.28L6.9,15.89a.69.69,0,0,0-.09.42l.36,3.3a.69.69,0,0,0,1.38-.15l-.34-3.08,1.31-2.3.1,0-1,2a.69.69,0,0,0,0,.54l1.07,3.15a.69.69,0,0,0,1.31-.45l-1-2.87,1.29-2.51a1.34,1.34,0,0,0,0-1.12l-.38-.93,1-1.23A.6.6,0,0,0,12.07,10.13Zm-1.67.5-.11-.26.23.11Z" transform="translate(0 0)"/></g></svg>