<svg xmlns="http://www.w3.org/2000/svg" width="26" height="32" viewBox="0 0 26 32"><defs><style>.cls-1,.cls-3{fill:#0068b8;}.cls-1{fill-rule:evenodd;}.cls-2{fill:#fff;}</style></defs><title>deer</title><g id="bk"><path class="cls-1" d="M13,0a13,13,0,0,1,10.08,21.2C20.7,24.13,13,32,13,32S5.24,24.1,2.86,21.14A13,13,0,0,1,13,0Z" transform="translate(0 0)"/><circle class="cls-2" cx="13" cy="13" r="11"/></g><g id="deer"><path class="cls-3" d="M8.94,12.75s-1,.81-.31,2.69a1.11,1.11,0,0,1-.46,1c-.25.09-.92,2.19,0,5H9.34a4.92,4.92,0,0,1-.39-3.12,8.3,8.3,0,0,1,2.3-3.17c.87.46,1.53.26,2.65.11a17.77,17.77,0,0,0,.9,1.81A10.62,10.62,0,0,0,16,21.5h1.25s-1.95-3.27-.74-6.05a4.15,4.15,0,0,0,1.61-3.13c.12-1.45-1.65-2.94-1.3-3.65.12-.25.34-.34,1-.25s1.17,0,1.24-.37-.09-.37-.68-.53-.7-.61-1.81-.74a1.52,1.52,0,0,0,.19-.46.41.41,0,0,0-.8-.21,1.19,1.19,0,0,1-.09.24c-.18,0-.6-.41-1-.92a2,2,0,0,0,.64-.89.41.41,0,0,0-.76-.31c-.09.21-.27.57-.48.58s-.93-.63-1.21-1.11a.41.41,0,1,0-.71.42A3.33,3.33,0,0,0,14,5.6c.3.44,1.35,1.47,1.37,1.54a.62.62,0,0,1-.44,0c-.25-.16-1-.15-1.06.13s.56.37.94.41c.14,0,.28,0,.38,0h0a2.42,2.42,0,0,0,0,.62c.19,1.18,1,2.38.34,3.06s-2.57.46-4,.22-4.37.11-4.61,1C7,13.06,7.86,13.34,8.94,12.75Z" transform="translate(0 0)"/></g></svg>