<svg xmlns="http://www.w3.org/2000/svg" width="26" height="32" viewBox="0 0 26 32"><defs><style>.cls-1,.cls-3{fill:#0068b8;}.cls-1{fill-rule:evenodd;}.cls-2{fill:#fff;}</style></defs><title>desert-2</title><g id="bk"><path class="cls-1" d="M13,0a13,13,0,0,1,10.08,21.2C20.7,24.13,13,32,13,32S5.24,24.1,2.86,21.14A13,13,0,0,1,13,0Z" transform="translate(0 0)"/><circle class="cls-2" cx="13" cy="13" r="11"/></g><g id="desert-2"><path class="cls-3" d="M20,12.67a1,1,0,0,0-1,1V14h-.67V12.33a1,1,0,1,0-2,0V16h-.67v-.33a1,1,0,1,0-2,0v.67A1.67,1.67,0,0,0,15.33,18h1v1.67a.33.33,0,0,0,.33.33H18a.33.33,0,0,0,.33-.33V16H20a1,1,0,0,0,1-1V13.67A1,1,0,0,0,20,12.67Z" transform="translate(0 0)"/><path class="cls-3" d="M10.67,6.67a3,3,0,1,0,3,3A3,3,0,0,0,10.67,6.67Z" transform="translate(0 0)"/><path class="cls-3" d="M10.67,4a.33.33,0,0,0-.33.33V5.67a.33.33,0,1,0,.67,0V4.33A.33.33,0,0,0,10.67,4Z" transform="translate(0 0)"/><path class="cls-3" d="M10.67,13.33a.33.33,0,0,0-.33.33V15A.33.33,0,0,0,11,15V13.67A.33.33,0,0,0,10.67,13.33Z" transform="translate(0 0)"/><path class="cls-3" d="M9,6,8.29,4.88a.33.33,0,0,0-.58.33l.67,1.15A.33.33,0,0,0,9,6Z" transform="translate(0 0)"/><path class="cls-3" d="M13.62,14.12,13,13a.33.33,0,0,0-.58.33L13,14.45a.33.33,0,0,0,.58-.33Z" transform="translate(0 0)"/><path class="cls-3" d="M7.37,7.38,6.22,6.71a.33.33,0,0,0-.33.58L7,8a.33.33,0,1,0,.33-.58Z" transform="translate(0 0)"/><path class="cls-3" d="M15.45,12l-1.15-.67A.33.33,0,0,0,14,12l1.15.67a.33.33,0,1,0,.33-.58Z" transform="translate(0 0)"/><path class="cls-3" d="M6.67,9.33H5.33a.33.33,0,1,0,0,.67H6.67a.33.33,0,1,0,0-.67Z" transform="translate(0 0)"/><path class="cls-3" d="M16,9.33H14.67a.33.33,0,1,0,0,.67H16a.33.33,0,1,0,0-.67Z" transform="translate(0 0)"/><path class="cls-3" d="M7.49,11.5A.33.33,0,0,0,7,11.38L5.88,12a.33.33,0,0,0-.12.46.33.33,0,0,0,.45.12L7.37,12A.33.33,0,0,0,7.49,11.5Z" transform="translate(0 0)"/><path class="cls-3" d="M15.57,6.83a.33.33,0,0,0-.46-.12L14,7.38a.33.33,0,0,0,.17.62.33.33,0,0,0,.17,0l1.15-.67A.33.33,0,0,0,15.57,6.83Z" transform="translate(0 0)"/><path class="cls-3" d="M8.83,12.84a.33.33,0,0,0-.46.12l-.67,1.15a.33.33,0,0,0,.12.46.34.34,0,0,0,.17,0,.33.33,0,0,0,.29-.17L9,13.3A.33.33,0,0,0,8.83,12.84Z" transform="translate(0 0)"/><path class="cls-3" d="M13.5,4.76a.33.33,0,0,0-.46.12L12.38,6a.33.33,0,1,0,.58.33l.67-1.15A.33.33,0,0,0,13.5,4.76Z" transform="translate(0 0)"/><path class="cls-3" d="M20.84,18c-.14-.09-1-.63-1.84-1v3h1.67a.33.33,0,0,0,.33-.33V18.33A.33.33,0,0,0,20.84,18Z" transform="translate(0 0)"/><path class="cls-3" d="M15.33,18.67A2.34,2.34,0,0,1,13,16.33V16a9.72,9.72,0,0,0-2.36.39,6.38,6.38,0,0,1,1.66,1.79.33.33,0,0,1-.15.45.34.34,0,0,1-.15,0,.33.33,0,0,1-.3-.18,9,9,0,0,0-3-2.62,9.37,9.37,0,0,0-3.36-1.19A.33.33,0,0,0,5,15v4.67a.33.33,0,0,0,.33.33H15.67V18.67Z" transform="translate(0 0)"/></g></svg>