<svg xmlns="http://www.w3.org/2000/svg" width="26" height="32" viewBox="0 0 26 32"><defs><style>.cls-1,.cls-3{fill:#0068b8;}.cls-1{fill-rule:evenodd;}.cls-2{fill:#fff;}</style></defs><title>emabassy</title><g id="bk"><path class="cls-1" d="M13,0a13,13,0,0,1,10.08,21.2C20.7,24.13,13,32,13,32S5.24,24.1,2.86,21.14A13,13,0,0,1,13,0Z" transform="translate(0 0)"/><circle class="cls-2" cx="13" cy="13" r="11"/></g><g id="embassy"><path class="cls-3" d="M19.24,19.1v-11h-3v11h-.71V6H13.16V4.81c.57.2,1-.44,1.6-.07V3.62c-.6-.36-1,.27-1.6.07V3.5h-.32V6H10.46V19.1H9.75v-11h-3v11H6.09v1.4H19.91V19.1h-.66ZM9,18.4H7.61V17H9V18.4Zm0-2.53H7.61V14.46H9v1.41Zm0-2.53H7.61V11.93H9v1.41ZM9,10.8H7.61V9.39H9V10.8ZM14.44,18H11.56V16.54h2.89Zm0-3.18H11.56V13.36h2.89Zm0-3.18H11.56V10.18h2.89Zm0-3.18H11.56V7h2.89Zm3.94,10H17V17h1.41Zm0-2.53H17V14.46h1.41Zm0-2.53H17V11.93h1.41Zm0-2.53H17V9.39h1.41Z" transform="translate(0 0)"/></g></svg>