<svg xmlns="http://www.w3.org/2000/svg" width="26" height="32" viewBox="0 0 26 32"><defs><style>.cls-1,.cls-3{fill:#0068b8;}.cls-1{fill-rule:evenodd;}.cls-2{fill:#fff;}</style></defs><title>factory</title><g id="bk"><path class="cls-1" d="M13,0a13,13,0,0,1,10.08,21.2C20.7,24.13,13,32,13,32S5.24,24.1,2.86,21.14A13,13,0,0,1,13,0Z" transform="translate(0 0)"/><circle class="cls-2" cx="13" cy="13" r="11"/></g><g id="factory"><rect class="cls-3" x="6" y="8.12" width="3.5" height="0.88"/><rect class="cls-3" x="6" y="5.5" width="3.5" height="1.75"/><path class="cls-3" d="M16.5,13.38V10.75L13,13.38V10.75L9.5,13.38V9.88H6V19.5H20V10.75Zm-4.37,3.5H10.38V16h1.75Zm0-1.75H10.38v-.87h1.75Zm3.5,1.75H13.88V16h1.75Zm0-1.75H13.88v-.87h1.75Zm3.5,1.75H17.38V16h1.75Zm0-1.75H17.38v-.87h1.75Z" transform="translate(0 0)"/></g></svg>