<svg xmlns="http://www.w3.org/2000/svg" width="26" height="32" viewBox="0 0 26 32"><defs><style>.cls-1,.cls-3{fill:#0068b8;}.cls-1{fill-rule:evenodd;}.cls-2{fill:#fff;}</style></defs><title>farmstand</title><g id="bk"><path class="cls-1" d="M13,0a13,13,0,0,1,10.08,21.2C20.7,24.13,13,32,13,32S5.24,24.1,2.86,21.14A13,13,0,0,1,13,0Z" transform="translate(0 0)"/><circle class="cls-2" cx="13" cy="13" r="11"/></g><g id="farmstand"><path class="cls-3" d="M19.77,15h0V12a1.58,1.58,0,0,1-1,0v3H17.56V13.12a.33.33,0,0,0-.33-.33H16.12a.33.33,0,0,0-.33.33V15H14.31v-.31a.33.33,0,0,0-.33-.33H12.73a.33.33,0,0,0-.33.33V15H10.5v-.86a.33.33,0,0,0-.33-.33H8.3a.33.33,0,0,0-.33.33V15H7.24V12a1.55,1.55,0,0,1-1,0v3h0a.73.73,0,0,0-.73.73v3.48a.73.73,0,0,0,.73.73H19.77a.73.73,0,0,0,.73-.73V15.77A.73.73,0,0,0,19.77,15Z" transform="translate(0 0)"/><path class="cls-3" d="M8.86,8.4a.24.24,0,0,0-.24.24v1.71a1.23,1.23,0,0,0,2.46,0V8.63a.24.24,0,0,0-.24-.24Z" transform="translate(0 0)"/><path class="cls-3" d="M12,8.4a.24.24,0,0,0-.24.24v1.71a1.23,1.23,0,0,0,2.46,0V8.63A.24.24,0,0,0,14,8.4Z" transform="translate(0 0)"/><path class="cls-3" d="M15.09,8.4a.24.24,0,0,0-.24.24v1.71a1.23,1.23,0,0,0,2.46,0V8.63a.24.24,0,0,0-.24-.24Z" transform="translate(0 0)"/><path class="cls-3" d="M5.74,7.78H20.26a.24.24,0,0,0,.14-.43l-3.09-2.3a.24.24,0,0,0-.14,0H8.82a.24.24,0,0,0-.14,0L5.6,7.35a.24.24,0,0,0,.14.43Z" transform="translate(0 0)"/><path class="cls-3" d="M6.74,11.58A1.23,1.23,0,0,0,8,10.35V8.63a.24.24,0,0,0-.24-.24h-2a.24.24,0,0,0-.24.24v1.71A1.23,1.23,0,0,0,6.74,11.58Z" transform="translate(0 0)"/><path class="cls-3" d="M20.19,8.4h-2a.24.24,0,0,0-.24.24v1.71a1.23,1.23,0,0,0,2.46,0V8.63A.24.24,0,0,0,20.19,8.4Z" transform="translate(0 0)"/></g></svg>