<svg xmlns="http://www.w3.org/2000/svg" width="26" height="32" viewBox="0 0 26 32"><defs><style>.cls-1,.cls-3{fill:#0068b8;}.cls-1{fill-rule:evenodd;}.cls-2{fill:#fff;}</style></defs><title>fastfood</title><g id="bk"><path class="cls-1" d="M13,0a13,13,0,0,1,10.08,21.2C20.7,24.13,13,32,13,32S5.24,24.1,2.86,21.14A13,13,0,0,1,13,0Z" transform="translate(0 0)"/><circle class="cls-2" cx="13" cy="13" r="11"/></g><g id="fastfood"><path class="cls-3" d="M4.94,15.38h8.81a.22.22,0,0,0,.22-.24C13.79,13.39,11.79,12,9.34,12s-4.45,1.39-4.62,3.14a.22.22,0,0,0,.22.24Z" transform="translate(0 0)"/><path class="cls-3" d="M13.74,17.53H4.94a.22.22,0,0,0-.22.24,2.72,2.72,0,0,0,.52,1.33,1,1,0,0,0,.81.41h6.59a1,1,0,0,0,.81-.41A2.72,2.72,0,0,0,14,17.77a.22.22,0,0,0-.22-.24Z" transform="translate(0 0)"/><path class="cls-3" d="M13.63,15.91H5.05a.55.55,0,1,0,0,1.11h8.58a.55.55,0,1,0,0-1.11Z" transform="translate(0 0)"/><path class="cls-3" d="M20.95,10.4a.1.1,0,0,1-.08-.15.55.55,0,0,0,.08-.28.57.57,0,0,0-.57-.56H18l.18-2.56,2,.84a.55.55,0,0,0,.74-.32.56.56,0,0,0-.32-.71L17.93,5.53a.55.55,0,0,0-.77.47l-.24,3.41H14.55A.57.57,0,0,0,14,10a.55.55,0,0,0,.08.28.1.1,0,0,1-.08.15.55.55,0,0,0-.55.55.51.51,0,0,0,.43.54h7.21A.51.51,0,0,0,21.5,11,.55.55,0,0,0,20.95,10.4Z" transform="translate(0 0)"/><path class="cls-3" d="M15.09,19.07a.51.51,0,0,0,.51.45h3.74a.51.51,0,0,0,.51-.45l.83-7H14.26Z" transform="translate(0 0)"/></g></svg>