<svg xmlns="http://www.w3.org/2000/svg" width="26" height="32" viewBox="0 0 26 32"><defs><style>.cls-1,.cls-3{fill:#0068b8;}.cls-1{fill-rule:evenodd;}.cls-2{fill:#fff;}</style></defs><title>ferriswheel</title><g id="bk"><path class="cls-1" d="M13,0a13,13,0,0,1,10.08,21.2C20.7,24.13,13,32,13,32S5.24,24.1,2.86,21.14A13,13,0,0,1,13,0Z" transform="translate(0 0)"/><circle class="cls-2" cx="13" cy="13" r="11"/></g><g id="ferriswheel"><path class="cls-3" d="M20.85,11.85a1.43,1.43,0,0,0-1.09-1.39,6.81,6.81,0,0,0-1-2.41,1.43,1.43,0,0,0-2-2,6.81,6.81,0,0,0-2.4-1,1.43,1.43,0,0,0-2.78,0,6.81,6.81,0,0,0-2.4,1,1.43,1.43,0,0,0-2,2,6.86,6.86,0,0,0-1,2.4,1.43,1.43,0,0,0,0,2.78,6.86,6.86,0,0,0,1,2.41,1.43,1.43,0,0,0,2,2,6.86,6.86,0,0,0,.62.37L8.92,20H7.35a.48.48,0,1,0,0,1H9.23a.48.48,0,0,0,.44-.29l1-2.36a6.86,6.86,0,0,0,.92.26,1.43,1.43,0,0,0,2.77,0,6.77,6.77,0,0,0,.92-.26l1,2.36a.48.48,0,0,0,.44.29h1.82a.48.48,0,1,0,0-1h-1.5L16.18,18a6.79,6.79,0,0,0,.62-.37,1.43,1.43,0,0,0,2-2,6.81,6.81,0,0,0,1-2.41A1.43,1.43,0,0,0,20.85,11.85Zm-6.55,5.81a1.43,1.43,0,0,0-2.59,0,5.85,5.85,0,0,1-.63-.18l1.83-4.2h.2l1.83,4.2A5.88,5.88,0,0,1,14.29,17.66ZM14,12.9l0,0a1.43,1.43,0,1,0-2,0l0,0L10.2,17.1l-.39-.23A1.43,1.43,0,0,0,8,15a5.91,5.91,0,0,1-.78-1.9,1.43,1.43,0,0,0,0-2.58A5.91,5.91,0,0,1,8,8.66,1.43,1.43,0,0,0,9.81,6.84,5.88,5.88,0,0,1,11.71,6a1.43,1.43,0,0,0,2.58,0,5.87,5.87,0,0,1,1.9.79A1.43,1.43,0,0,0,18,8.66a5.87,5.87,0,0,1,.79,1.9,1.43,1.43,0,0,0,0,2.58A5.87,5.87,0,0,1,18,15a1.43,1.43,0,0,0-1.83,1.83l-.39.23Z" transform="translate(0 0)"/></g></svg>