<svg xmlns="http://www.w3.org/2000/svg" width="26" height="32" viewBox="0 0 26 32"><defs><style>.cls-1,.cls-3{fill:#0068b8;}.cls-1{fill-rule:evenodd;}.cls-2{fill:#fff;}</style></defs><title>festival</title><g id="bk"><path class="cls-1" d="M13,0a13,13,0,0,1,10.08,21.2C20.7,24.13,13,32,13,32S5.24,24.1,2.86,21.14A13,13,0,0,1,13,0Z" transform="translate(0 0)"/><circle class="cls-2" cx="13" cy="13" r="11"/></g><g id="festival"><path class="cls-3" d="M16,5a.23.23,0,0,0-.23.23V6.82l-.19,0c-.36,0-.64.21-.64.48s.28.48.64.48a.65.65,0,0,0,.64-.38V5.23A.22.22,0,0,0,16,5Z" transform="translate(0 0)"/><path class="cls-3" d="M20.82,11.92a.23.23,0,0,0-.3-.22l-1.64.55a.23.23,0,0,0-.15.22V14l-.19,0c-.35,0-.63.21-.63.47s.27.47.63.47a.6.6,0,0,0,.61-.37c0-.07,0,.05,0-1.94l1.18-.4v1.23l-.19,0c-.35,0-.63.21-.63.47s.27.47.63.47a.6.6,0,0,0,.61-.37C20.84,14,20.82,14.09,20.82,11.92Z" transform="translate(0 0)"/><path class="cls-3" d="M16.53,11.6l.32-.19a.63.63,0,0,0-.4-1.16.81.81,0,1,0-1,.56l-.92.55-3.59-1.8L9.07,7.89,8,5.43A.63.63,0,1,0,6.82,6L8,8.52a.62.62,0,0,0,.15.21l1.64,1.48L8.19,13.65a1.33,1.33,0,0,0-.07.92c.14.51.37,1.32.54,1.91L6.4,18.72a.75.75,0,0,0,1.05,1.07L10,17.24a.75.75,0,0,0,.2-.73l-.37-1.36c.08,0-.09,0,2.27.83l-.52,3.14a.75.75,0,1,0,1.48.24l.62-3.76a.75.75,0,0,0-.49-.83l-1.62-.59,1.12-2.42,1.51.85a.63.63,0,0,0,.63,0L16,11.94l.39,1.17a.32.32,0,0,0,.6-.2Z" transform="translate(0 0)"/><circle class="cls-3" cx="13.14" cy="8.17" r="1.3"/><path class="cls-3" d="M19.35,6.53A.27.27,0,0,0,19,6.41l-2.15,1a.27.27,0,1,0,.24.49l2.15-1A.27.27,0,0,0,19.35,6.53Z" transform="translate(0 0)"/><path class="cls-3" d="M19.43,10.09,17.28,9a.27.27,0,1,0-.24.49l2.15,1a.27.27,0,0,0,.24-.49Z" transform="translate(0 0)"/><path class="cls-3" d="M19.8,8.15H17.59a.27.27,0,0,0,0,.54H19.8a.27.27,0,0,0,0-.54Z" transform="translate(0 0)"/></g></svg>