<svg xmlns="http://www.w3.org/2000/svg" width="26" height="32" viewBox="0 0 26 32"><defs><style>.cls-1,.cls-3{fill:#0068b8;}.cls-1{fill-rule:evenodd;}.cls-2{fill:#fff;}</style></defs><title>fjord-2</title><g id="bk"><path class="cls-1" d="M13,0a13,13,0,0,1,10.08,21.2C20.7,24.13,13,32,13,32S5.24,24.1,2.86,21.14A13,13,0,0,1,13,0Z" transform="translate(0 0)"/><circle class="cls-2" cx="13" cy="13" r="11"/></g><g id="fjord-2"><path class="cls-3" d="M8.15,6.92l.08,0a.19.19,0,0,1,0,.12h0c0,.14-.12.29,0,.38.61.48,1.29.84.58,1.82-.31.43.56.18.61.34,0,.73-1.05.44-.82,1s.53-.06.8-.15a.29.29,0,0,1,.13.19c-.21,1.38.72.35,1.16.54-.75,1.08-.37,1.38.82,1.22s1.36,1.11,1.53,1.75c.26,1-.7.88-1.38.79-.23,0-.63,0-.51.18s-.55.71.13.85.5.52.18.87c-.57.62-.47,1.15.29,1.43.25.09.5.2,1.08.45-1.89-.08-2.09,1.61-3.39,2.08a1.83,1.83,0,0,0,1.23,0c1.22-.18,2.25-.92,3.56-.89a13.53,13.53,0,0,0,4.28-.55c.27-.08.67-.26.66-.62s-.68,0-.78-.47a1.73,1.73,0,0,1,.29-.33c.56-.38,1.07-.85.91-1.57s-.87-.76-1.47-.7c-.41,0-.36-.12-.41-.42-.34-1.92-2.38-2.8-2.9-4.63a.87.87,0,0,0-.52-.44c-.81-.29-.82-.71-.33-1.33.25-.32.39-.73.62-1.08.47-.69.33-1-.53-1-.66,0-1.33,0-2.1,0,.17-.7.66-.84,1-1.15s.45-.82-.15-.73c-1,.16-2.38-.28-2.87,1.16,0,.12-.08.23-.13.33-.31.7-.76,1-1.57.47h0s0-.05,0-.07h0v0Z" transform="translate(0 0)"/><path class="cls-3" d="M6.34,13a.47.47,0,0,0,.37.5,14,14,0,0,0,2.4.26c.39,0,.75-.34.78-.94-.35-.44-.39-1.27-1.28-1.32C7.93,11.5,6.38,12.53,6.34,13Z" transform="translate(0 0)"/><path class="cls-3" d="M8.9,5.29C8,5.51,7.55,6,7.61,6.89c-.66.07-.34.37-.19.6A3.91,3.91,0,0,1,7.78,7l.39-.1C8.4,6.39,9.15,6.11,8.9,5.29Z" transform="translate(0 0)"/><path class="cls-3" d="M7.4,7.75c.14,0,.1-.14,0-.26A.36.36,0,0,0,7.4,7.75Z" transform="translate(0 0)"/></g></svg>