<svg xmlns="http://www.w3.org/2000/svg" width="26" height="32" viewBox="0 0 26 32"><defs><style>.cls-1,.cls-3{fill:#0068b8;}.cls-1{fill-rule:evenodd;}.cls-2{fill:#fff;}</style></defs><title>flowers</title><g id="bk"><path class="cls-1" d="M13,0a13,13,0,0,1,10.08,21.2C20.7,24.13,13,32,13,32S5.24,24.1,2.86,21.14A13,13,0,0,1,13,0Z" transform="translate(0 0)"/><circle class="cls-2" cx="13" cy="13" r="11"/></g><g id="flowers"><path class="cls-3" d="M13,21.5a7.29,7.29,0,0,0,7.29-7.29A7.29,7.29,0,0,0,13,21.5ZM7.82,12A2,2,0,0,0,11,13.66l0,.15a2,2,0,1,0,4,0l0-.15a2,2,0,1,0,2-3.49,2,2,0,1,0-2-3.49l0-.15a2,2,0,1,0-4,0l0,.15a2,2,0,1,0-2,3.49A2,2,0,0,0,7.82,12ZM13,8.14a2,2,0,1,1-2,2A2,2,0,0,1,13,8.14ZM5.71,14.21A7.29,7.29,0,0,0,13,21.5,7.29,7.29,0,0,0,5.71,14.21Z" transform="translate(0 0)"/></g></svg>