<svg xmlns="http://www.w3.org/2000/svg" width="26" height="32" viewBox="0 0 26 32"><defs><style>.cls-1,.cls-3{fill:#0068b8;}.cls-1{fill-rule:evenodd;}.cls-2{fill:#fff;}</style></defs><title>ford-2</title><g id="bk"><path class="cls-1" d="M13,0a13,13,0,0,1,10.08,21.2C20.7,24.13,13,32,13,32S5.24,24.1,2.86,21.14A13,13,0,0,1,13,0Z" transform="translate(0 0)"/><circle class="cls-2" cx="13" cy="13" r="11"/></g><g id="ford-2"><path class="cls-3" d="M21.58,11.73h-.88V10a.42.42,0,0,0-.42-.42H19V8.34a.41.41,0,0,0-.41-.42h-1.3v-1a.42.42,0,0,0-.84,0v1H15V4.54a.4.4,0,0,0-.4-.42H11.8a.41.41,0,0,0-.41.42V5.71H9a.44.44,0,0,0-.43.43v2.2H7.93V8.14a.42.42,0,1,0-.84,0v.21H6.17a.42.42,0,0,0-.42.42v3.13H4.42a.42.42,0,0,0,0,.84h.84c.43-.79.94-1.2,1.5-1.2a1.13,1.13,0,0,1,.39.07l.12-.25c.44-.89,1-1.36,1.58-1.36s1.14.47,1.58,1.36l.13.28a1.15,1.15,0,0,1,.46-.1,1.13,1.13,0,0,1,.39.07l.12-.25c.44-.89,1-1.36,1.58-1.36s1.14.47,1.58,1.36l.13.28a1.15,1.15,0,0,1,.46-.1,1.13,1.13,0,0,1,.39.07l.12-.25c.44-.89,1-1.36,1.58-1.36s1.14.47,1.58,1.36l.13.28a1.15,1.15,0,0,1,.46-.1,1.75,1.75,0,0,1,1.41,1h.64a.42.42,0,0,0,0-.84Z" transform="translate(0 0)"/><path class="cls-3" d="M8.85,10.82c-.33,0-.74.6-1,1.29a3.72,3.72,0,0,1,.51.78,5.47,5.47,0,0,1,.53,1.77h0a5.47,5.47,0,0,1,.53-1.77,3.86,3.86,0,0,1,.45-.72C9.61,11.47,9.19,10.82,8.85,10.82Z" transform="translate(0 0)"/><path class="cls-3" d="M13.11,10.82c-.33,0-.74.6-1,1.29a3.72,3.72,0,0,1,.51.78,5.47,5.47,0,0,1,.53,1.77h0a5.47,5.47,0,0,1,.53-1.77,3.86,3.86,0,0,1,.45-.72C13.87,11.47,13.45,10.82,13.11,10.82Z" transform="translate(0 0)"/><path class="cls-3" d="M17.37,10.82c-.33,0-.74.6-1,1.29a3.72,3.72,0,0,1,.51.78,5.47,5.47,0,0,1,.53,1.77h0A5.47,5.47,0,0,1,18,12.89a3.86,3.86,0,0,1,.45-.72C18.13,11.47,17.71,10.82,17.37,10.82Z" transform="translate(0 0)"/><path class="cls-3" d="M20,18.89c-.73,0-1.45-.05-2.15,0a.63.63,0,0,0,0,1.25h0c.67,0,1.36,0,2,0h0a.63.63,0,0,0,0-1.25Z" transform="translate(0 0)"/><path class="cls-3" d="M16.69,19.54A.63.63,0,0,0,16,19l-.81.09a.63.63,0,0,0,.08,1.25h.08l.78-.09A.63.63,0,0,0,16.69,19.54Z" transform="translate(0 0)"/><path class="cls-3" d="M14,19.87a.63.63,0,0,0-.71-.53,21.66,21.66,0,0,1-2.75.27,25.88,25.88,0,0,1-2.93-.11.63.63,0,0,0-.12,1.25c.78.08,1.63.12,2.54.12h.54a22.72,22.72,0,0,0,2.91-.28A.63.63,0,0,0,14,19.87Z" transform="translate(0 0)"/><path class="cls-3" d="M20.31,17l-.41,0h0v-.85a1.3,1.3,0,0,0,1-1.25c0-.92-.75-2.55-1.29-2.55S18.24,14,18.24,14.91A1.3,1.3,0,0,0,19,16.11V17H17.83c-.79,0-1.52.08-2.22.17v-1a1.3,1.3,0,0,0,1-1.25c0-.92-.75-2.55-1.29-2.55S14,14,14,14.91a1.3,1.3,0,0,0,.79,1.19v1.15l-1,.15c-.83.12-1.63.24-2.41.3V16.16a1.3,1.3,0,0,0,1-1.25c0-.92-.75-2.55-1.29-2.55S9.72,14,9.72,14.91a1.3,1.3,0,0,0,.79,1.19v1.63a24.17,24.17,0,0,1-3.42-.17V16.16a1.3,1.3,0,0,0,1-1.25c0-.92-.75-2.55-1.29-2.55S5.46,14,5.46,14.91a1.3,1.3,0,0,0,.79,1.19v1.33l-.53-.11a.63.63,0,0,0-.29,1.22A20.5,20.5,0,0,0,10,19h.55a25.62,25.62,0,0,0,3.35-.35,31.58,31.58,0,0,1,3.92-.41c.77,0,1.56,0,2.36.05A.63.63,0,1,0,20.31,17Z" transform="translate(0 0)"/></g></svg>