<svg xmlns="http://www.w3.org/2000/svg" width="26" height="32" viewBox="0 0 26 32"><defs><style>.cls-1,.cls-3{fill:#0068b8;}.cls-1{fill-rule:evenodd;}.cls-2{fill:#fff;}</style></defs><title>forest</title><g id="bk"><path class="cls-1" d="M13,0a13,13,0,0,1,10.08,21.2C20.7,24.13,13,32,13,32S5.24,24.1,2.86,21.14A13,13,0,0,1,13,0Z" transform="translate(0 0)"/><circle class="cls-2" cx="13" cy="13" r="11"/></g><g id="forest"><path class="cls-3" d="M9.81,14.18a2.81,2.81,0,0,0,2,1.51l.12,0-.07,1.63-.13,0-.14,0a2.94,2.94,0,0,0-.44,0,2.26,2.26,0,0,0-.6.08l.26.1.2.1h.14a2.66,2.66,0,0,1,.43,0l.14,0,.13,0a2.11,2.11,0,0,1,.86.47l.14.14a1.6,1.6,0,0,1,.16.2l0,0h0l.1-.06,0,0,.17-.09a3.28,3.28,0,0,1,2.26-1.64v-.27a3.65,3.65,0,0,0-2.49,1.75L13,18l-.15-.14-.14-.11-.14-2,.13,0a2.82,2.82,0,0,0,2.4-2.24,3.92,3.92,0,0,1-2.35-3.33,2.63,2.63,0,0,0-.92,0,11.49,11.49,0,0,1,.27,2.06C12.09,13.84,11.13,14.14,9.81,14.18Z" transform="translate(0 0)"/><path class="cls-3" d="M17.37,16.37v.28a4,4,0,0,1,3,2.89l.14.14a2.85,2.85,0,0,1,.23.28h0l0-.16A4.48,4.48,0,0,0,17.37,16.37Z" transform="translate(0 0)"/><path class="cls-3" d="M13,10s0,.09,0,.14a3.65,3.65,0,0,0,2.12,3l.13.06.13,0,.39.12.08-1.79L14.09,8.94,16,10l.23-2.63h.71L17,11.09l2-.61-1.93,2.45,0,.55A3.65,3.65,0,1,0,13,9.87v0S13,10,13,10Z" transform="translate(0 0)"/><path class="cls-3" d="M6.13,13.67A4.25,4.25,0,0,0,8,13.92L8,13.2,6.07,10.75l2,.61.12-3.75h.71l.23,2.63,1.87-1L9.28,11.89l0,.42.07,1.56v.19h0S9.5,14,9.54,14s.1,0,.14,0c1.3,0,2.13-.27,2.13-1.72a11,11,0,0,0-.25-2l0-.14,0-.13C11,7.51,9.83,4.5,8.63,4.5,7,4.5,5.44,10.11,5.44,12.21A1.45,1.45,0,0,0,6.13,13.67Z" transform="translate(0 0)"/><path class="cls-3" d="M16,13.6v.13l-.12,2.6v.27l-.09,1.87a2.93,2.93,0,0,1,.81.88A3,3,0,0,1,17.3,19l-.17-2.43v-.27l-.18-2.56v-.27l0-.66L18.33,11l-1.57.47-.13-3.84h-.2l-.24,2.8L14.91,9.7l1.22,1.85L16,13.47Z" transform="translate(0 0)"/><path class="cls-3" d="M8.94,10.67,8.7,7.88H8.5l-.13,3.84-1.57-.47,1.47,1.87v.05l-.05.75v.27L8,17.25a4.53,4.53,0,0,1,1.16-.14h.11l-.14-2.92v-.27L9,11.82,10.23,10Z" transform="translate(0 0)"/><path class="cls-3" d="M20.13,19.69a2.14,2.14,0,0,0-1.39-.62,4.22,4.22,0,0,0-1.16.15l-.14,0-.12,0-.27.12a1.87,1.87,0,0,0-.39.24l0,0-.1.09,0-.09,0-.07a2,2,0,0,0-.12-.2,2.76,2.76,0,0,0-.54-.61l-.12-.1-.14-.09a2,2,0,0,0-1-.3,2.3,2.3,0,0,0-1.31.38h0l-.13.1-.13.12L12.8,19a1.43,1.43,0,0,0-.17.23l-.14.25-.11-.26a2.86,2.86,0,0,0-.55-.81l-.12-.12-.13-.12a3.32,3.32,0,0,0-1-.58l-.18-.06-.23-.06a4.07,4.07,0,0,0-.64-.11H9.14A4.24,4.24,0,0,0,8,17.53l-.13,0-.15,0A4.19,4.19,0,0,0,5.25,20.5H20.7a1.67,1.67,0,0,0-.32-.54A2.76,2.76,0,0,0,20.13,19.69Z" transform="translate(0 0)"/></g></svg>