<svg xmlns="http://www.w3.org/2000/svg" width="26" height="32" viewBox="0 0 26 32"><defs><style>.cls-1,.cls-3{fill:#0068b8;}.cls-1{fill-rule:evenodd;}.cls-2{fill:#fff;}</style></defs><title>forest2</title><g id="bk"><path class="cls-1" d="M13,0a13,13,0,0,1,10.08,21.2C20.7,24.13,13,32,13,32S5.24,24.1,2.86,21.14A13,13,0,0,1,13,0Z" transform="translate(0 0)"/><circle class="cls-2" cx="13" cy="13" r="11"/></g><g id="forest2"><path class="cls-3" d="M21.93,14.52,19,7.48a2.07,2.07,0,0,0-3.83,0L15,7.94l-1-2.33a2.07,2.07,0,0,0-3.83,0L9.31,7.87l-.38-.63a.76.76,0,0,0-1.3,0l-2,3.29a.37.37,0,0,0,.32.56h.33L4.75,13.6a.37.37,0,0,0,.32.56h.61L4.05,16.83a.38.38,0,0,0,0,.38.38.38,0,0,0,.32.19h2.4v2.9a.37.37,0,0,0,.37.37H9.4a.37.37,0,0,0,.37-.37V17.4h2.4a.38.38,0,0,0,.32-.19.38.38,0,0,0,0-.38l-1.62-2.67h.61a.37.37,0,0,0,.32-.56l-1.52-2.51h.33a.37.37,0,0,0,.32-.56l-.37-.61L12,6.34a.14.14,0,0,1,.26,0L17,17.75A1,1,0,0,0,18.74,17L16,10.44l1-2.23a.14.14,0,0,1,.26,0l2.88,7a1,1,0,0,0,1.79-.73Z" transform="translate(0 0)"/></g></svg>