<svg xmlns="http://www.w3.org/2000/svg" width="26" height="32" viewBox="0 0 26 32"><defs><style>.cls-1,.cls-3{fill:#0068b8;}.cls-1{fill-rule:evenodd;}.cls-2{fill:#fff;}</style></defs><title>fountain-2</title><g id="bk"><path class="cls-1" d="M13,0a13,13,0,0,1,10.08,21.2C20.7,24.13,13,32,13,32S5.24,24.1,2.86,21.14A13,13,0,0,1,13,0Z" transform="translate(0 0)"/><circle class="cls-2" cx="13" cy="13" r="11"/></g><g id="fountain-2"><polygon class="cls-3" points="16.42 13.84 18.6 11.22 13.39 11.22 13.39 10.05 13.84 10.05 13.84 9.57 12.16 9.57 12.16 10.05 12.61 10.05 12.61 11.22 7.4 11.22 9.58 13.84 11.33 13.84 11.33 17.89 9.58 17.89 7.4 20.5 18.6 20.5 16.42 17.89 14.67 17.89 14.67 13.84 16.42 13.84"/><path class="cls-3" d="M19.3,7.8a.44.44,0,0,0-.2,0,2.17,2.17,0,0,0-.36,0,1.18,1.18,0,0,0,.19.53.33.33,0,0,0,.38-.54Z" transform="translate(0 0)"/><path class="cls-3" d="M17.06,7.17a1.21,1.21,0,0,0,.52.35h0a.36.36,0,0,0,0-.73A1.21,1.21,0,0,0,17.06,7.17Z" transform="translate(0 0)"/><path class="cls-3" d="M15.27,7.66a2.11,2.11,0,0,0,.53.09.33.33,0,0,0,.15,0,.4.4,0,0,0,.15-.54A.4.4,0,0,0,15.56,7,1.26,1.26,0,0,0,15.27,7.66Z" transform="translate(0 0)"/><path class="cls-3" d="M13.78,7.82a1.42,1.42,0,0,0-.16.79h.25c.4,0,.53-.08.55-.11a.47.47,0,1,0-.64-.69Z" transform="translate(0 0)"/><path class="cls-3" d="M6.7,7.8a.33.33,0,0,0,.38.54,1.18,1.18,0,0,0,.19-.53,2.18,2.18,0,0,0-.36,0A.44.44,0,0,0,6.7,7.8Z" transform="translate(0 0)"/><path class="cls-3" d="M8.42,7.52h0a1.21,1.21,0,0,0,.52-.35,1.21,1.21,0,0,0-.5-.38.36.36,0,0,0,0,.73Z" transform="translate(0 0)"/><path class="cls-3" d="M10,7.73a.33.33,0,0,0,.15,0,2.11,2.11,0,0,0,.53-.09A1.27,1.27,0,0,0,10.44,7a.4.4,0,0,0-.4.69Z" transform="translate(0 0)"/><path class="cls-3" d="M12.14,8.62h.25a1.42,1.42,0,0,0-.16-.79.47.47,0,1,0-.64.69S11.73,8.62,12.14,8.62Z" transform="translate(0 0)"/><path class="cls-3" d="M18.93,5.55a.33.33,0,0,0-.18-.43.44.44,0,0,0-.2,0,2.17,2.17,0,0,0-.35.12,1.18,1.18,0,0,0,.3.48.33.33,0,0,0,.43-.18Z" transform="translate(0 0)"/><path class="cls-3" d="M17,5.22h0a.36.36,0,0,0-.18-.71,1.21,1.21,0,0,0-.41.48A1.21,1.21,0,0,0,17,5.22Z" transform="translate(0 0)"/><path class="cls-3" d="M15.32,5.84a.33.33,0,0,0,.14-.06.4.4,0,0,0,0-.56.4.4,0,0,0-.56,0,1.26,1.26,0,0,0-.14.67A2.11,2.11,0,0,0,15.32,5.84Z" transform="translate(0 0)"/><path class="cls-3" d="M13.62,7.11c.39-.09.49-.2.52-.23a.47.47,0,1,0-.77-.53,1.42,1.42,0,0,0,0,.81Z" transform="translate(0 0)"/><path class="cls-3" d="M7.8,5.25a2.18,2.18,0,0,0-.35-.12.44.44,0,0,0-.2,0,.33.33,0,1,0,.25.61A1.17,1.17,0,0,0,7.8,5.25Z" transform="translate(0 0)"/><path class="cls-3" d="M9,5.22H9A1.21,1.21,0,0,0,9.58,5a1.21,1.21,0,0,0-.41-.48A.36.36,0,0,0,9,5.22Z" transform="translate(0 0)"/><path class="cls-3" d="M10.68,5.84a2.11,2.11,0,0,0,.54,0,1.26,1.26,0,0,0-.14-.67.4.4,0,1,0-.54.59A.33.33,0,0,0,10.68,5.84Z" transform="translate(0 0)"/><path class="cls-3" d="M12.38,7.11l.24,0a1.42,1.42,0,0,0,0-.81.47.47,0,0,0-.77.53S12,7,12.38,7.11Z" transform="translate(0 0)"/></g></svg>