<svg xmlns="http://www.w3.org/2000/svg" width="26" height="32" viewBox="0 0 26 32"><defs><style>.cls-1,.cls-3{fill:#0068b8;}.cls-1{fill-rule:evenodd;}.cls-2{fill:#fff;}</style></defs><title>funicolar-22x22</title><g id="bk"><path class="cls-1" d="M13,0a13,13,0,0,1,10.08,21.2C20.7,24.13,13,32,13,32S5.24,24.1,2.86,21.14A13,13,0,0,1,13,0Z" transform="translate(0 0)"/><circle class="cls-2" cx="13" cy="13" r="11"/></g><g id="funicolar-22x22"><path class="cls-3" d="M16.87,11.79H12.5a2.41,2.41,0,0,0-2.4,2.43v5.7A1.07,1.07,0,0,0,11.17,21h7a1.08,1.08,0,0,0,1.08-1.08v-5.7A2.42,2.42,0,0,0,16.87,11.79Zm.75,4a.76.76,0,0,1-.76.76H12.49a.76.76,0,0,1-.76-.76V14.15a.76.76,0,0,1,.76-.76h4.37a.76.76,0,0,1,.76.76v1.69Z" transform="translate(0 0)"/><path class="cls-3" d="M14.08,10H11.56a.74.74,0,0,0,0,1.49h6.26a.74.74,0,0,0,0-1.49H15.54V6.59l1.91-.83a.92.92,0,0,0-.73-1.69L4.27,9.48a.92.92,0,0,0,.37,1.77A.91.91,0,0,0,5,11.17l9.07-3.94Z" transform="translate(0 0)"/></g></svg>