<svg xmlns="http://www.w3.org/2000/svg" width="26" height="32" viewBox="0 0 26 32"><defs><style>.cls-1,.cls-3{fill:#0068b8;}.cls-1{fill-rule:evenodd;}.cls-2{fill:#fff;}</style></defs><title>glacier-2</title><g id="bk"><path class="cls-1" d="M13,0a13,13,0,0,1,10.08,21.2C20.7,24.13,13,32,13,32S5.24,24.1,2.86,21.14A13,13,0,0,1,13,0Z" transform="translate(0 0)"/><circle class="cls-2" cx="13" cy="13" r="11"/></g><g id="glacier-2"><path class="cls-3" d="M9.34,11.67a.35.35,0,0,0,.35-.35v-.46a.35.35,0,1,0-.7,0v.46A.35.35,0,0,0,9.34,11.67Z" transform="translate(0 0)"/><path class="cls-3" d="M19.88,12.05a.35.35,0,0,0-.35.35v.46a.35.35,0,0,0,.7,0V12.4A.35.35,0,0,0,19.88,12.05Z" transform="translate(0 0)"/><path class="cls-3" d="M21.28,8.06a.35.35,0,0,0-.3-.18H19.8L18,8.35a.35.35,0,0,0-.26.34v.78l-1.29,1.29a.35.35,0,0,0-.1.25v3.82H16.2a.35.35,0,0,0,0,.7h5.15a8.79,8.79,0,0,1-2,3.3.35.35,0,1,0,.5.48A9.49,9.49,0,0,0,21.28,8.06ZM18.4,14.83V12.4a.35.35,0,1,0-.7,0v2.43H17V11.15L18.3,9.86a.35.35,0,0,0,.1-.25V9l1.14-.29V11a.35.35,0,1,0,.7,0V8.57h.54a8.81,8.81,0,0,1,.78,6.26Z" transform="translate(0 0)"/><path class="cls-3" d="M4.3,14.09a2.5,2.5,0,0,0,1.38-.8,2.4,2.4,0,0,0,3.66,0,2.4,2.4,0,0,0,3.66,0,2.48,2.48,0,0,0,1.83.85,2.33,2.33,0,0,0,.52-.06.35.35,0,1,0-.15-.68,1.64,1.64,0,0,1-.36,0,1.83,1.83,0,0,1-1.54-.91.35.35,0,0,0-.59,0,1.9,1.9,0,0,1-1.19.87V10.08a.35.35,0,0,0-.06-.19l-.89-1.34-.45-1.8a.35.35,0,0,0-.34-.26H8.93L7.69,5.88H6.59a.35.35,0,0,0-.24.1A9.43,9.43,0,0,0,3.5,12.72a9.6,9.6,0,0,0,.07,1.11M6.74,6.54h.45v3.55a.35.35,0,0,0,0,.15l.41.86v1.08a.35.35,0,0,0,.7,0V11a.35.35,0,0,0,0-.15L7.88,10V6.75l.82.4a.35.35,0,0,0,.15,0h.66l.4,1.59a.35.35,0,0,0,0,.11l.87,1.3V13.4a1.91,1.91,0,0,1-1.19-.87.35.35,0,0,0-.59,0,1.84,1.84,0,0,1-1.54.91A1.81,1.81,0,0,1,6,12.61V9.94a.35.35,0,1,0-.7,0v2.67a1.89,1.89,0,0,1-1.11.79c0-.23,0-.45,0-.68A8.73,8.73,0,0,1,6.74,6.54Z" transform="translate(0 0)"/><path class="cls-3" d="M16,16.22h-.46a.35.35,0,1,0,0,.7H16a.35.35,0,1,0,0-.7Z" transform="translate(0 0)"/><path class="cls-3" d="M14.81,15.53a.35.35,0,0,0,0-.7h-.46a.35.35,0,0,0,0,.7Z" transform="translate(0 0)"/><path class="cls-3" d="M18.72,16.22h-.46a.35.35,0,1,0,0,.7h.46a.35.35,0,1,0,0-.7Z" transform="translate(0 0)"/><path class="cls-3" d="M8.09,15.18a.35.35,0,0,0-.35-.35H7.28a.35.35,0,1,0,0,.7h.46A.35.35,0,0,0,8.09,15.18Z" transform="translate(0 0)"/><path class="cls-3" d="M13.2,18.92l-.36.54h-.28a.35.35,0,0,0,0,.7h4.17a.35.35,0,0,0,0-.7h-.29l-1-1.26A.35.35,0,0,0,15,18.1l-1.69.7A.35.35,0,0,0,13.2,18.92Zm1.87-.08.49.62H13.67l0-.07Z" transform="translate(0 0)"/><path class="cls-3" d="M7.93,18.31h3.71a.35.35,0,1,0,0-.7h-.12V17.5a.35.35,0,0,0-.17-.3L9.8,16.27a.35.35,0,0,0-.36,0l-.76.46a.35.35,0,0,0-.13.14l-.37.73H7.93a.35.35,0,0,0,0,.7Zm1.19-1,.5-.3,1.07.64H9Z" transform="translate(0 0)"/></g></svg>