<svg xmlns="http://www.w3.org/2000/svg" width="26" height="32" viewBox="0 0 26 32"><defs><style>.cls-1,.cls-3{fill:#0068b8;}.cls-1{fill-rule:evenodd;}.cls-2{fill:#fff;}</style></defs><title>grass</title><g id="bk"><path class="cls-1" d="M13,0a13,13,0,0,1,10.08,21.2C20.7,24.13,13,32,13,32S5.24,24.1,2.86,21.14A13,13,0,0,1,13,0Z" transform="translate(0 0)"/><circle class="cls-2" cx="13" cy="13" r="11"/></g><g id="grass"><path class="cls-3" d="M15.53,21H18.8c-1.7-4.38,2.7-12.18,2.7-12.18C13.55,14,15.53,21,15.53,21Z" transform="translate(0 0)"/><path class="cls-3" d="M21.5,6.93c-6.54,2.36-8,5.69-8,5.69s1.51,3.15,1.09,4.48A17.23,17.23,0,0,1,21.5,6.93Z" transform="translate(0 0)"/><path class="cls-3" d="M3.5,8.42s4.41,7.8,2.7,12.18H9.47S11.45,13.56,3.5,8.42Z" transform="translate(0 0)"/><path class="cls-3" d="M6.59,6S12,15.5,9.89,20.84h4S16.29,12.25,6.59,6Z" transform="translate(0 0)"/></g></svg>