<svg xmlns="http://www.w3.org/2000/svg" width="26" height="32" viewBox="0 0 26 32"><defs><style>.cls-1,.cls-3{fill:#0068b8;}.cls-1{fill-rule:evenodd;}.cls-2{fill:#fff;}</style></defs><title>harbor</title><g id="bk"><path class="cls-1" d="M13,0a13,13,0,0,1,10.08,21.2C20.7,24.13,13,32,13,32S5.24,24.1,2.86,21.14A13,13,0,0,1,13,0Z" transform="translate(0 0)"/><circle class="cls-2" cx="13" cy="13" r="11"/></g><g id="harbor"><path class="cls-3" d="M19.87,16.55l-1-.85a.69.69,0,0,0-.92.07,6.86,6.86,0,0,1-3.27,2.16.32.32,0,0,1-.39-.2V15.44a.31.31,0,0,1,.33-.33H15a.62.62,0,0,0,.65-.65V13.15A.62.62,0,0,0,15,12.5h-.33a.31.31,0,0,1-.33-.33v-.33a.36.36,0,0,1,.2-.33,3.86,3.86,0,0,0,2.42-3.6,3.92,3.92,0,1,0-7.85,0,3.86,3.86,0,0,0,2.42,3.6.36.36,0,0,1,.2.33v.33a.31.31,0,0,1-.33.33H11a.62.62,0,0,0-.65.65v1.31a.62.62,0,0,0,.65.65h.33a.31.31,0,0,1,.33.33v2.29a.27.27,0,0,1-.39.2A6.16,6.16,0,0,1,8,15.77a.63.63,0,0,0-.92-.07l-1,.85a.63.63,0,0,0-.07.92,9.52,9.52,0,0,0,5.3,3.2l1.63.33h.26l1.63-.33a8.66,8.66,0,0,0,5.3-3.2A.87.87,0,0,0,19.87,16.55ZM12.94,9.23a1.31,1.31,0,1,1,1.31-1.31A1.31,1.31,0,0,1,12.94,9.23Z" transform="translate(0 0)"/></g></svg>