<svg xmlns="http://www.w3.org/2000/svg" width="26" height="32" viewBox="0 0 26 32"><defs><style>.cls-1,.cls-3{fill:#0068b8;}.cls-1{fill-rule:evenodd;}.cls-2{fill:#fff;}</style></defs><title>horseriding</title><g id="bk"><path class="cls-1" d="M13,0a13,13,0,0,1,10.08,21.2C20.7,24.13,13,32,13,32S5.24,24.1,2.86,21.14A13,13,0,0,1,13,0Z" transform="translate(0 0)"/><circle class="cls-2" cx="13" cy="13" r="11"/></g><g id="horseriding"><path class="cls-3" d="M17,14.36l.79-1.8a2.36,2.36,0,0,1-.43-.06,3.24,3.24,0,0,1-1.87-1.56h-.82A1.28,1.28,0,0,1,14.53,12l-1.62,2.46a1.29,1.29,0,1,1-2.16-1.42l.79-1.21-.92-.42a1.28,1.28,0,0,1-.54-.48H9.55a2.24,2.24,0,0,0-1.46.55c-.55-.38-2.57-1.58-3.23.64s.89,2.72-.31,3.78a.18.18,0,0,0,.17.3c.57-.19,1.33-.79,1.6-2.56.18-1.2.77-1.62,1.27-1.58A2.23,2.23,0,0,0,8,14.79l-.86,1.32,0,.07a.58.58,0,0,0-.09.35l.21,3.77a.42.42,0,0,0,.83.05l.41-2.26.66,2.3a.42.42,0,0,0,.82-.13l-.15-3.37,1-1.42h3.17l.66,1.31L14,20.2a.45.45,0,0,0,.86.23L16,17.61l.54,2.76a.43.43,0,0,0,.84-.11Z" transform="translate(0 0)"/><path class="cls-3" d="M13.56,6.43a1.07,1.07,0,1,0-1.07-1.07A1.07,1.07,0,0,0,13.56,6.43Z" transform="translate(0 0)"/><path class="cls-3" d="M21.22,8.8l-2-1.64.17-1.55a.16.16,0,0,0-.27-.13l-.9.86-.64,1.43-1,1.52c.29.74.72,1.43,1.18,1.54a1.18,1.18,0,0,0,.88-.25l.38-.87,1,.43c-.91,1-1.7,1.42-2.37,1.25-1-.25-1.63-1.87-1.87-2.78a.47.47,0,0,0,0-.3A.48.48,0,0,0,15.33,8l-.16,0-1.26.46-.43-.94h0a.8.8,0,0,0-.48-1l-.09,0a.8.8,0,0,0-1,.43c-.31.69-.82,1.83-1.38,3a.72.72,0,0,0,.35,1l1.52.7-1.16,1.77a.72.72,0,1,0,1.2.79L14,11.69a.7.7,0,0,0-.26-1l-1.25-.58L13,8.82c.24.52.31.75.6.75A8,8,0,0,0,15.3,9c.27.93.93,2.62,2.21,2.94a1.77,1.77,0,0,0,.43.05,3.88,3.88,0,0,0,2.66-1.66.77.77,0,0,0,.75-.46l.08-.17A.78.78,0,0,0,21.22,8.8Z" transform="translate(0 0)"/></g></svg>