<svg xmlns="http://www.w3.org/2000/svg" width="26" height="32" viewBox="0 0 26 32"><defs><style>.cls-1,.cls-3{fill:#0068b8;}.cls-1{fill-rule:evenodd;}.cls-2{fill:#fff;}</style></defs><title>hotel_0star</title><g id="bk"><path class="cls-1" d="M13,0a13,13,0,0,1,10.08,21.2C20.7,24.13,13,32,13,32S5.24,24.1,2.86,21.14A13,13,0,0,1,13,0Z" transform="translate(0 0)"/><circle class="cls-2" cx="13" cy="13" r="11"/></g><g id="hotel_0star"><path class="cls-3" d="M20.12,5.88A2.89,2.89,0,0,0,18,5H8A3,3,0,0,0,5,8V18a3,3,0,0,0,3,3H18a3,3,0,0,0,3-3V8A2.89,2.89,0,0,0,20.12,5.88ZM18.33,17.67a.68.68,0,0,1-.67.67H16.33a.68.68,0,0,1-.67-.67V14.33H10.33v3.33a.68.68,0,0,1-.67.67H8.33a.68.68,0,0,1-.67-.67V8.33a.68.68,0,0,1,.67-.67H9.67a.68.68,0,0,1,.67.67v3.33h5.33V8.33a.68.68,0,0,1,.67-.67h1.33a.68.68,0,0,1,.67.67v9.33Z" transform="translate(0 0)"/></g></svg>