<svg xmlns="http://www.w3.org/2000/svg" width="26" height="32" viewBox="0 0 26 32"><defs><style>.cls-1,.cls-3{fill:#0068b8;}.cls-1{fill-rule:evenodd;}.cls-2{fill:#fff;}</style></defs><title>hotel1</title><g id="bk"><path class="cls-1" d="M13,0a13,13,0,0,1,10.08,21.2C20.7,24.13,13,32,13,32S5.24,24.1,2.86,21.14A13,13,0,0,1,13,0Z" transform="translate(0 0)"/><circle class="cls-2" cx="13" cy="13" r="11"/></g><g id="hotel1"><path class="cls-3" d="M16.5,12.25a.31.31,0,0,1-.11.2l-1.53,1.49.36,2.1a.73.73,0,0,1,0,.08.25.25,0,0,1,0,.15.15.15,0,0,1-.13.06.34.34,0,0,1-.17-.05l-1.89-1-1.89,1a.36.36,0,0,1-.17.05.15.15,0,0,1-.13-.06.25.25,0,0,1,0-.15.7.7,0,0,1,0-.08l.36-2.1L9.61,12.45a.32.32,0,0,1-.11-.2q0-.16.24-.19l2.11-.31.95-1.91q.08-.17.21-.17t.21.17l.95,1.91,2.11.31Q16.5,12.09,16.5,12.25Z" transform="translate(0 0)"/></g></svg>