<svg xmlns="http://www.w3.org/2000/svg" width="26" height="32" viewBox="0 0 26 32"><defs><style>.cls-1,.cls-3{fill:#0068b8;}.cls-1{fill-rule:evenodd;}.cls-2{fill:#fff;}</style></defs><title>hotspring</title><g id="bk"><path class="cls-1" d="M13,0a13,13,0,0,1,10.08,21.2C20.7,24.13,13,32,13,32S5.24,24.1,2.86,21.14A13,13,0,0,1,13,0Z" transform="translate(0 0)"/><circle class="cls-2" cx="13" cy="13" r="11"/></g><g id="hotspring"><g id="_Group_" data-name="&lt;Group&gt;"><path id="_Path_" data-name="&lt;Path&gt;" class="cls-3" d="M15.7,15.34a1.51,1.51,0,0,0-1.26-.67h-3l-.07-.78,2.44.34H14a1.21,1.21,0,0,0,.16-2.41l-2.52-.35L11,10.66l-.1-1a1.51,1.51,0,0,0-3,.28l.6,6.41A1.51,1.51,0,0,0,10,17.69h3.59l2.09,3.13a1.51,1.51,0,0,0,2.52-1.68Z" transform="translate(0 0)"/><path id="_Path_2" data-name="&lt;Path&gt;" class="cls-3" d="M10.07,7.53a2,2,0,1,0-2-2A2,2,0,0,0,10.07,7.53Z" transform="translate(0 0)"/><path id="_Path_3" data-name="&lt;Path&gt;" class="cls-3" d="M12.26,18.58H8l-.79-6.31a.6.6,0,0,0-1.2.15l.86,6.84a.6.6,0,0,0,.6.53h4.79a.6.6,0,1,0,0-1.21Z" transform="translate(0 0)"/><path id="_Path_4" data-name="&lt;Path&gt;" class="cls-3" d="M19.08,15.35c0-.8.9-1.15.9-2.29a1.39,1.39,0,0,0-1-1.28.12.12,0,0,0-.15.17,2.23,2.23,0,0,1,.29,1.12c0,.9-.84,1-.84,2.29a1.54,1.54,0,0,0,1,1.45.12.12,0,0,0,.15-.17A2.47,2.47,0,0,1,19.08,15.35Z" transform="translate(0 0)"/><path id="_Path_5" data-name="&lt;Path&gt;" class="cls-3" d="M17.69,12.76a.12.12,0,0,0,.15-.17,2.47,2.47,0,0,1-.35-1.28c0-.8.9-1.15.9-2.29a1.39,1.39,0,0,0-1-1.28.12.12,0,0,0-.15.17A2.23,2.23,0,0,1,17.57,9c0,.9-.84,1-.84,2.29A1.54,1.54,0,0,0,17.69,12.76Z" transform="translate(0 0)"/></g></g></svg>