<svg xmlns="http://www.w3.org/2000/svg" width="26" height="32" viewBox="0 0 26 32"><defs><style>.cls-1,.cls-3{fill:#0068b8;}.cls-1{fill-rule:evenodd;}.cls-2{fill:#fff;}</style></defs><title>indoor-arena</title><g id="bk"><path class="cls-1" d="M13,0a13,13,0,0,1,10.08,21.2C20.7,24.13,13,32,13,32S5.24,24.1,2.86,21.14A13,13,0,0,1,13,0Z" transform="translate(0 0)"/><circle class="cls-2" cx="13" cy="13" r="11"/></g><g id="indoor-arena"><path class="cls-3" d="M21,7.78,20,5.39l-.56.24L19.13,5l-.84.36L19.41,8l.76-.32.1.23V9.31a5.46,5.46,0,0,0-1.8-1.37A12.4,12.4,0,0,0,13,6.79,12.4,12.4,0,0,0,7.54,7.94a5.46,5.46,0,0,0-1.8,1.37V7.92l.1-.23L6.59,8,7.71,5.36,6.87,5l-.26.63L6,5.39,5,7.78v8.74H5v0c0,1.28.87,2.46,2.45,3.32A10.67,10.67,0,0,0,11.15,21V19.93a1.85,1.85,0,1,1,3.69,0V21a10.67,10.67,0,0,0,3.66-1.13c1.58-.86,2.45-2,2.45-3.32v0h0V7.78ZM10.69,13.43l.64-.28L11,12.38a14.16,14.16,0,0,1,4,0l-.34.77.64.28.41-.93a9.6,9.6,0,0,1,2.16.7,11.26,11.26,0,0,1-4.88,1,11.26,11.26,0,0,1-4.88-1,9.59,9.59,0,0,1,2.16-.7Zm7.9-.64-.25-.13A10,10,0,0,0,16,11.85l.62-1.42A8.57,8.57,0,0,1,18,11a4.73,4.73,0,0,1,1.4,1A3.33,3.33,0,0,1,18.6,12.79Zm-3.3-1.07a14.76,14.76,0,0,0-4.59,0l-.64-1.46a13.83,13.83,0,0,1,5.87,0ZM10,11.85a10,10,0,0,0-2.35.81l-.25.13A3.33,3.33,0,0,1,6.57,12,4.74,4.74,0,0,1,8,11a8.57,8.57,0,0,1,1.41-.55Zm-3.17-2A4.3,4.3,0,0,1,7.4,9.4,5.66,5.66,0,0,1,8.08,9,11.2,11.2,0,0,1,13,8a11.2,11.2,0,0,1,4.92,1,5.66,5.66,0,0,1,.67.4,4.3,4.3,0,0,1,.58.48,1.78,1.78,0,0,1,.57,1.21,1.28,1.28,0,0,1,0,.2,5.79,5.79,0,0,0-1.38-.94,9.19,9.19,0,0,0-1.45-.57l.26-.6-.64-.28-.31.7a14.45,14.45,0,0,0-6.44,0l-.31-.7-.64.28.26.6a9.19,9.19,0,0,0-1.45.57,5.79,5.79,0,0,0-1.38.94,1.28,1.28,0,0,1,0-.2A1.78,1.78,0,0,1,6.82,9.89Z" transform="translate(0 0)"/></g></svg>