<svg xmlns="http://www.w3.org/2000/svg" width="26" height="32" viewBox="0 0 26 32"><defs><style>.cls-1,.cls-3{fill:#0068b8;}.cls-1{fill-rule:evenodd;}.cls-2{fill:#fff;}</style></defs><title>lake</title><g id="bk"><path class="cls-1" d="M13,0a13,13,0,0,1,10.08,21.2C20.7,24.13,13,32,13,32S5.24,24.1,2.86,21.14A13,13,0,0,1,13,0Z" transform="translate(0 0)"/><circle class="cls-2" cx="13" cy="13" r="11"/></g><g id="lake"><path class="cls-3" d="M19.72,8.17a3.88,3.88,0,0,0-4.93,0,2.74,2.74,0,0,1-3.57,0,3.73,3.73,0,0,0-2.47-.88,3.73,3.73,0,0,0-2.47.88,2.62,2.62,0,0,1-1.78.66V11a2.62,2.62,0,0,0,1.78-.66,3.74,3.74,0,0,1,2.47-.88,3.74,3.74,0,0,1,2.47.88,2.74,2.74,0,0,0,3.57,0,3.88,3.88,0,0,1,4.93,0A2.62,2.62,0,0,0,21.5,11V8.83A2.62,2.62,0,0,1,19.72,8.17Z" transform="translate(0 0)"/><path class="cls-3" d="M19,14.71a2.74,2.74,0,0,0-3.57,0,3.88,3.88,0,0,1-4.93,0,2.74,2.74,0,0,0-3.57,0,3.73,3.73,0,0,1-2.47.88v2.13A3.74,3.74,0,0,0,7,16.83a2.74,2.74,0,0,1,3.57,0,3.88,3.88,0,0,0,4.93,0,2.74,2.74,0,0,1,3.57,0,3.73,3.73,0,0,0,2.47.88V15.59A3.73,3.73,0,0,1,19,14.71Z" transform="translate(0 0)"/><path class="cls-3" d="M19,11.23a2.74,2.74,0,0,0-3.57,0,3.88,3.88,0,0,1-4.93,0,2.74,2.74,0,0,0-3.57,0,3.73,3.73,0,0,1-2.47.88v2.32a2.62,2.62,0,0,0,1.78-.66,3.74,3.74,0,0,1,2.47-.88,3.74,3.74,0,0,1,2.47.88,2.74,2.74,0,0,0,3.57,0,3.88,3.88,0,0,1,4.93,0,2.62,2.62,0,0,0,1.78.66V12.11A3.73,3.73,0,0,1,19,11.23Z" transform="translate(0 0)"/></g></svg>