<svg xmlns="http://www.w3.org/2000/svg" width="26" height="32" viewBox="0 0 26 32"><defs><style>.cls-1,.cls-3{fill:#0068b8;}.cls-1{fill-rule:evenodd;}.cls-2{fill:#fff;}</style></defs><title>library</title><g id="bk"><path class="cls-1" d="M13,0a13,13,0,0,1,10.08,21.2C20.7,24.13,13,32,13,32S5.24,24.1,2.86,21.14A13,13,0,0,1,13,0Z" transform="translate(0 0)"/><circle class="cls-2" cx="13" cy="13" r="11"/></g><g id="library"><path class="cls-3" d="M7.45,6.89h0a.56.56,0,0,0-.4.17.57.57,0,0,0-.17.41V16a.57.57,0,0,0,.57.57,7.08,7.08,0,0,1,5.11,1.89v-9a.55.55,0,0,0-.08-.29C11.21,7.2,8.78,6.89,7.45,6.89Z" transform="translate(0 0)"/><path class="cls-3" d="M19.12,16V7.46A.57.57,0,0,0,19,7.05a.56.56,0,0,0-.4-.17h0c-1.34,0-3.77.31-5,2.35a.55.55,0,0,0-.08.29v9a7.08,7.08,0,0,1,5.11-1.89A.57.57,0,0,0,19.12,16Z" transform="translate(0 0)"/><path class="cls-3" d="M20.43,8.87H20V16a1.46,1.46,0,0,1-1.46,1.46A6.35,6.35,0,0,0,14.24,19a13.78,13.78,0,0,1,6.06.12.57.57,0,0,0,.7-.56V9.44A.57.57,0,0,0,20.43,8.87Z" transform="translate(0 0)"/><path class="cls-3" d="M6,16V8.87H5.57A.57.57,0,0,0,5,9.44v9.1a.57.57,0,0,0,.7.56A13.78,13.78,0,0,1,11.76,19a6.35,6.35,0,0,0-4.31-1.47A1.46,1.46,0,0,1,6,16Z" transform="translate(0 0)"/></g></svg>