<svg xmlns="http://www.w3.org/2000/svg" width="26" height="32" viewBox="0 0 26 32"><defs><style>.cls-1,.cls-3{fill:#0068b8;}.cls-1{fill-rule:evenodd;}.cls-2{fill:#fff;}</style></defs><title>lighthouse-2</title><g id="bk"><path class="cls-1" d="M13,0a13,13,0,0,1,10.08,21.2C20.7,24.13,13,32,13,32S5.24,24.1,2.86,21.14A13,13,0,0,1,13,0Z" transform="translate(0 0)"/><circle class="cls-2" cx="13" cy="13" r="11"/></g><g id="lighthouse-2"><path class="cls-3" d="M8.15,14.85l.62-5h3.91l.24,2Zm6.29,4.82h-.55a.42.42,0,0,0,0-.08L13.18,14,7.86,17.32h0l-.28,2.27a.41.41,0,0,0,0,.06H7a.42.42,0,0,0,0,.83h7.44a.42.42,0,0,0,0-.83ZM12.77,8.33h-.29l-.09-.67H11a.31.31,0,0,1-.12,0,.32.32,0,0,1-.09-.07.32.32,0,0,1-.09-.15.33.33,0,0,1,0-.06h0V7h0a.31.31,0,0,1,0-.06.3.3,0,0,1,.18-.21l.12,0h1.27l-.07-.53a.42.42,0,0,0-.13-.8,1.34,1.34,0,0,0-1.27-.89h-.2a1.34,1.34,0,0,0-1.27.89h0a.42.42,0,0,0-.11.82L9,8.33H8.61a.42.42,0,0,0-.28.72h4.73a.42.42,0,0,0-.28-.72ZM18.28,6a.41.41,0,0,0-.34-.09l-5.11.91a.42.42,0,0,0,0,.82L18,8.51H18a.39.39,0,0,0,.26-.1.41.41,0,0,0,.14-.32V6.29A.41.41,0,0,0,18.28,6Z" transform="translate(0 0)"/></g></svg>