<svg xmlns="http://www.w3.org/2000/svg" width="26" height="32" viewBox="0 0 26 32"><defs><style>.cls-1,.cls-3{fill:#0068b8;}.cls-1{fill-rule:evenodd;}.cls-2{fill:#fff;}</style></defs><title>lock</title><g id="bk"><path class="cls-1" d="M13,0a13,13,0,0,1,10.08,21.2C20.7,24.13,13,32,13,32S5.24,24.1,2.86,21.14A13,13,0,0,1,13,0Z" transform="translate(0 0)"/><circle class="cls-2" cx="13" cy="13" r="11"/></g><g id="lock"><path class="cls-3" d="M20.48,18.23H20C19.82,9,16.29,4.73,13,4.73S6.18,9,6,18.23H5.52a.52.52,0,1,0,0,1h15a.52.52,0,0,0,0-1Zm-10.26,0a27.24,27.24,0,0,1,1-7.94c.6-1.85,1.31-2.51,1.78-2.51,1.13,0,2.71,3.25,2.78,10.46Z" transform="translate(0 0)"/></g></svg>