<svg xmlns="http://www.w3.org/2000/svg" width="26" height="32" viewBox="0 0 26 32"><defs><style>.cls-1,.cls-3{fill:#0068b8;}.cls-1{fill-rule:evenodd;}.cls-2{fill:#fff;}</style></defs><title>marina-2</title><g id="bk"><path class="cls-1" d="M13,0a13,13,0,0,1,10.08,21.2C20.7,24.13,13,32,13,32S5.24,24.1,2.86,21.14A13,13,0,0,1,13,0Z" transform="translate(0 0)"/><circle class="cls-2" cx="13" cy="13" r="11"/></g><g id="marina-2"><path class="cls-3" d="M8.23,17.09l.08,0a3.16,3.16,0,0,0,.47.22l.38.12a3.17,3.17,0,0,0,2.29-.29l.41-.22a2.63,2.63,0,0,1,2.6,0,3.18,3.18,0,0,0,3.13.06l.19-.1A2.62,2.62,0,0,1,19,16.65l.58-2L4,13.8l2.56,2.9A2.9,2.9,0,0,1,8.23,17.09Z" transform="translate(0 0)"/><path class="cls-3" d="M13.22,4.43v8.9l4.59.24A10.18,10.18,0,0,0,13.22,4.43Z" transform="translate(0 0)"/><polygon class="cls-3" points="12.16 5.19 8.69 13.09 12.16 13.27 12.16 5.19"/><path class="cls-3" d="M19,17.38a2.63,2.63,0,0,0-1.26.32l-.15.08a3.18,3.18,0,0,1-3.13-.06,2.63,2.63,0,0,0-2.59,0l-.49.27a3,3,0,0,1-3-.05,2.89,2.89,0,0,0-2.32-.28v.82A2.11,2.11,0,0,1,8,18.56a3.8,3.8,0,0,0,3.75.07l.49-.27a1.86,1.86,0,0,1,1.83,0,4,4,0,0,0,3.89.07l.15-.08a1.86,1.86,0,0,1,1.88.06l0,0v-.87A2.62,2.62,0,0,0,19,17.38Z" transform="translate(0 0)"/><path class="cls-3" d="M17.72,19.19l-.15.08a3.18,3.18,0,0,1-3.13-.06,2.63,2.63,0,0,0-2.59,0l-.49.27a3,3,0,0,1-3-.05,2.89,2.89,0,0,0-2.32-.28v.82A2.11,2.11,0,0,1,8,20a3.8,3.8,0,0,0,3.75.07l.49-.27a1.86,1.86,0,0,1,1.83,0,4,4,0,0,0,3.89.07l.15-.08a1.86,1.86,0,0,1,1.88.06l0,0v-.87a2.61,2.61,0,0,0-2.28.11Z" transform="translate(0 0)"/></g></svg>