<svg xmlns="http://www.w3.org/2000/svg" width="26" height="32" viewBox="0 0 26 32"><defs><style>.cls-1,.cls-3{fill:#0068b8;}.cls-1{fill-rule:evenodd;}.cls-2{fill:#fff;}</style></defs><title>memorial</title><g id="bk"><path class="cls-1" d="M13,0a13,13,0,0,1,10.08,21.2C20.7,24.13,13,32,13,32S5.24,24.1,2.86,21.14A13,13,0,0,1,13,0Z" transform="translate(0 0)"/><circle class="cls-2" cx="13" cy="13" r="11"/></g><g id="memorial"><path class="cls-3" d="M19.64,18.93H18.5l-.09.93H7.64l-.09-.93H6.36a.79.79,0,0,0-.79.79h0a.79.79,0,0,0,.79.79H19.64a.79.79,0,0,0,.79-.79h0A.79.79,0,0,0,19.64,18.93Z" transform="translate(0 0)"/><path class="cls-3" d="M19.74,5.5H6.31L7.55,18.93H18.5m-.62-.59H8.17L7,6.29h12.1" transform="translate(0 0)"/><path class="cls-3" d="M17.88,7.17H8.17l1,10.28h7.79" transform="translate(0 0)"/></g></svg>