<svg xmlns="http://www.w3.org/2000/svg" width="26" height="32" viewBox="0 0 26 32"><defs><style>.cls-1,.cls-3{fill:#0068b8;}.cls-1{fill-rule:evenodd;}.cls-2{fill:#fff;}</style></defs><title>moderntower</title><g id="bk"><path class="cls-1" d="M13,0a13,13,0,0,1,10.08,21.2C20.7,24.13,13,32,13,32S5.24,24.1,2.86,21.14A13,13,0,0,1,13,0Z" transform="translate(0 0)"/><circle class="cls-2" cx="13" cy="13" r="11"/></g><g id="moderntower"><path class="cls-3" d="M20.6,19.05H19.26V14.4a.44.44,0,0,0-.4-.47h-1V11.48a.44.44,0,0,0-.4-.47H14.91a.44.44,0,0,0-.4.47v7.58h-.42V4.47A.47.47,0,0,0,13.81,4a.37.37,0,0,0-.45.16L10.46,8.78a.53.53,0,0,0-.08.28v10H10v-10a.44.44,0,0,0-.4-.47H8.75V6A.41.41,0,1,0,8,6V8.59H7.14a.44.44,0,0,0-.4.47v10H5.4a.48.48,0,0,0,0,.95H20.6a.48.48,0,0,0,0-.95Zm-13.06,0V9.54H9.16v9.52Zm3.64,0V9.22l2.11-3.33V19.05Z" transform="translate(0 0)"/></g></svg>