<svg xmlns="http://www.w3.org/2000/svg" width="26" height="32" viewBox="0 0 26 32"><defs><style>.cls-1,.cls-3{fill:#0068b8;}.cls-1{fill-rule:evenodd;}.cls-2{fill:#fff;}</style></defs><title>monument</title><g id="bk"><path class="cls-1" d="M13,0a13,13,0,0,1,10.08,21.2C20.7,24.13,13,32,13,32S5.24,24.1,2.86,21.14A13,13,0,0,1,13,0Z" transform="translate(0 0)"/><circle class="cls-2" cx="13" cy="13" r="11"/></g><g id="monument"><path class="cls-3" d="M6.44,8.15h0l8.45-.73a.26.26,0,0,0,.23-.23l.33-2.9a.26.26,0,0,0-.08-.22A.25.25,0,0,0,15.16,4l-3.46.77a.26.26,0,0,0-.13.07,3.14,3.14,0,0,1-1.69,1,.6.6,0,0,1-.38-.12.26.26,0,0,0-.18-.05l-2.9.28a.26.26,0,0,0-.23.26v1.7a.26.26,0,0,0,.26.26Z" transform="translate(0 0)"/><path class="cls-3" d="M20.33,19.66l-.52-1.53a.26.26,0,0,0-.24-.18H18.05V13.27a.26.26,0,0,0-.26-.26h-1V11.74a.26.26,0,0,0-.09-.19.27.27,0,0,0-.2-.07c-.17,0-.53-.25-1-1a.26.26,0,0,0-.47.15V18h-.73V10.67a.26.26,0,0,0-.36-.24l-.22.1L14.2,9.2a.25.25,0,0,0,0-.1V8.32A.26.26,0,0,0,14,8.06H11.38a.26.26,0,0,0-.26.26V18h-.69V8.32a.26.26,0,0,0-.26-.26H7.6a.26.26,0,0,0-.26.26V18h-.9a.26.26,0,0,0-.24.18l-.52,1.53a.26.26,0,0,0,.24.34H20.08a.26.26,0,0,0,.24-.34Z" transform="translate(0 0)"/></g></svg>