<svg xmlns="http://www.w3.org/2000/svg" width="26" height="32" viewBox="0 0 26 32"><defs><style>.cls-1,.cls-3{fill:#0068b8;}.cls-1{fill-rule:evenodd;}.cls-2{fill:#fff;}</style></defs><title>mosque</title><g id="bk"><path class="cls-1" d="M13,0a13,13,0,0,1,10.08,21.2C20.7,24.13,13,32,13,32S5.24,24.1,2.86,21.14A13,13,0,0,1,13,0Z" transform="translate(0 0)"/><circle class="cls-2" cx="13" cy="13" r="11"/></g><g id="mosque"><g id="_Group_" data-name="&lt;Group&gt;"><path id="_Path_" data-name="&lt;Path&gt;" class="cls-3" d="M5,12.94a.61.61,0,0,1,.05.19,9.92,9.92,0,0,0,.56,1.81A7.29,7.29,0,0,0,7,17.1a6,6,0,0,0,2.24,1.52l.29.11s.07,0,.07,0,0-.35,0-.52a.07.07,0,0,0-.06-.08L9.35,18c-.07,0-.09-.05-.09-.12s0-.29,0-.43a.06.06,0,0,1,.06-.07l.33-.07a.09.09,0,0,0,.08-.1c0-.44,0-.87,0-1.31l0-1.25q0-.58,0-1.16c0-.07,0-.14,0-.21a1.5,1.5,0,0,0-.12-.67c0-.09,0-.1.07-.1s.11,0,.08-.11-.07-.22-.11-.32a.71.71,0,0,1,0-.26s0-.08.07-.07.08,0,.08-.08c0-.27,0-.54,0-.8a.69.69,0,0,1,.32-.63l.06,0s0-.06,0-.09a.11.11,0,0,1,0-.16l.08-.16s0,0,.06,0l.1.21a.09.09,0,0,1,0,.1c-.06.06-.06.08,0,.13a.83.83,0,0,1,.31.38.62.62,0,0,1,0,.29c0,.27,0,.55,0,.82,0,.05,0,.06.07.06s.07,0,.08.08a.92.92,0,0,1-.07.34l-.1.29s0,.07,0,.06h0c.15,0,.15,0,.1.15l-.09.29a1.16,1.16,0,0,0,0,.35s0,.06,0,.09c0,.49,0,1,0,1.48s0,.77,0,1.15,0,.71,0,1.07c0,.1,0,.1.1.1h.22s.06,0,.06-.06a1,1,0,0,0-.05-.35,1.17,1.17,0,0,1,0-.86,1.23,1.23,0,0,1,.32-.4,7.38,7.38,0,0,1,1-.85,2.21,2.21,0,0,1,.56-.29c.06,0,.08-.15,0-.22l0-.05a.11.11,0,0,1,0-.16.58.58,0,0,0,.15-.48s0-.06,0-.1a.24.24,0,0,1,0,.12,1.5,1.5,0,0,0,0,.21.3.3,0,0,0,.09.19l.06.07a.11.11,0,0,1,0,.15.23.23,0,0,0-.06.1c0,.12,0,.14.11.19a3.25,3.25,0,0,1,.83.51,10.12,10.12,0,0,1,.78.7,1,1,0,0,1,.27,1,1,1,0,0,1-.06.22.77.77,0,0,0,0,.33c0,.05,0,.07.07.07h1.17a.15.15,0,0,0,.11,0,6,6,0,0,0,.74-.86,7.87,7.87,0,0,0,.89-1.57,6,6,0,0,0,.49-2,4.86,4.86,0,0,0-.29-1.92,10.21,10.21,0,0,0-.62-1.41,7.06,7.06,0,0,0-1.34-1.79,6.48,6.48,0,0,0-2.37-1.43,10.27,10.27,0,0,0-2.31-.49l-.28,0,0,0a8,8,0,0,1,7.48,2.51A8,8,0,0,1,8.82,20.28a7.88,7.88,0,0,1-3.45-4.41A7.6,7.6,0,0,1,5,12.94Z" transform="translate(0 0)"/><path id="_Path_2" data-name="&lt;Path&gt;" class="cls-3" d="M6.23,5.34l.66.24,1,.37a.09.09,0,0,0,.12,0l1-1.34s0,0,0,0,0,0,0,.06q0,.85-.06,1.69a.08.08,0,0,0,.06.09l1.6.58s.05,0,0,0,0,0,0,0L9.09,7.5A.11.11,0,0,0,9,7.62c0,.5,0,1,0,1.49,0,.07,0,.14,0,.2s0,0,0,0,0,0,0,0l-.37-.54-.59-.89c0-.05-.07,0-.12,0l-1.37.39-.25.07s0,0-.05,0,0,0,0-.05l.67-.85.39-.5a.07.07,0,0,0,0-.1L6.26,5.42A.1.1,0,0,1,6.23,5.34Z" transform="translate(0 0)"/></g></g></svg>