<svg xmlns="http://www.w3.org/2000/svg" width="26" height="32" viewBox="0 0 26 32"><defs><style>.cls-1,.cls-3{fill:#0068b8;}.cls-1{fill-rule:evenodd;}.cls-2{fill:#fff;}</style></defs><title>mountains</title><g id="bk"><path class="cls-1" d="M13,0a13,13,0,0,1,10.08,21.2C20.7,24.13,13,32,13,32S5.24,24.1,2.86,21.14A13,13,0,0,1,13,0Z" transform="translate(0 0)"/><circle class="cls-2" cx="13" cy="13" r="11"/></g><g id="mountains"><g id="Layer_5" data-name="Layer 5"><path class="cls-3" d="M17,14.45c1.57-.44,2.35-1.28,2.3-2.38A3.7,3.7,0,0,0,15.93,8.7s0,0,0,0c.71-.2,1.06-.46,1.09-1,.05-1.18-2.85-2.52-5.26-2.63S8.33,6.31,8.28,7.49a2.34,2.34,0,0,0,1.86,2c.08,0,.07.07,0,.08-1.77.72-3.1,1.75-3.05,2.69,0,.77.6,1.37,1.64,1.8,0,0,0,.05,0,.06-2,.69-3.11,2.19-3.11,3.52,0,1.93,2.25,3.34,6.17,3.34,5.3,0,8.48-1.74,8.48-3.67,0-1.22-1.13-2.16-3.34-2.79C16.93,14.53,16.93,14.47,17,14.45Zm1.07-3.79c-.24.31-1.15-.39-3.25-.5a17,17,0,0,0-4,.35c-.27,0-.22-.09-.1-.16C15.23,7.86,18.24,10.43,18.06,10.66ZM9.16,6.57c-.14-.19,2.31-2.27,6-.15,0,0,.09.07-.09.05a11.29,11.29,0,0,0-3.31-.3C10.09,6.33,9.34,6.82,9.16,6.57Zm7.63,9.72a17.07,17.07,0,0,0-5.06-.47C9.41,16,7.33,17,7,16.52s3.14-3.26,9.45-.58C16.72,16.07,17.22,16.38,16.79,16.29Z" transform="translate(0 0)"/></g></g></svg>