<svg xmlns="http://www.w3.org/2000/svg" width="26" height="32" viewBox="0 0 26 32"><defs><style>.cls-1,.cls-3{fill:#0068b8;}.cls-1{fill-rule:evenodd;}.cls-2{fill:#fff;}</style></defs><title>mountain-pass-locator-diagonal-reverse-export</title><g id="bk"><path class="cls-1" d="M13,0a13,13,0,0,1,10.08,21.2C20.7,24.13,13,32,13,32S5.24,24.1,2.86,21.14A13,13,0,0,1,13,0Z" transform="translate(0 0)"/><circle class="cls-2" cx="13" cy="13" r="11"/></g><g id="mountain-pass-locator-diagonal-reverse-export"><g id="Layer_1" data-name="Layer 1"><path class="cls-3" d="M21.9,14.76l-1.76-3.52c-2.26.23-3,.69-3.29,1a.77.77,0,0,0,0,.73,2.67,2.67,0,0,1-.34,2.45c-.84,1.15-2.76,1.65-6.12,1.65-1,0-1.76.23-2,.57a1.48,1.48,0,0,0,0,1.15h9.07a.93.93,0,0,0,.8-.46.88.88,0,0,0,0-.92l-.61-1.26H21a.93.93,0,0,0,.8-.46A.82.82,0,0,0,21.9,14.76Z" transform="translate(0 0)"/><path class="cls-3" d="M15,14.33a.89.89,0,0,0,0-.8,2.66,2.66,0,0,1,.31-2.3c.61-.92,1.84-1.45,3.94-1.76l-.88-1.8a.93.93,0,0,0-.88-.54,1,1,0,0,0-.88.54l-1.57,3.18L12.6,5.72a.93.93,0,0,0-.88-.54,1,1,0,0,0-.88.54L5.1,17.4a1.06,1.06,0,0,0,0,1,1,1,0,0,0,.8.46h.54a2.82,2.82,0,0,1,.34-2.14c.61-1,1.8-1.45,3.56-1.45C13.82,15.21,14.78,14.68,15,14.33Z" transform="translate(0 0)"/></g></g></svg>