<svg xmlns="http://www.w3.org/2000/svg" width="26" height="32" viewBox="0 0 26 32"><defs><style>.cls-1,.cls-3{fill:#0068b8;}.cls-1{fill-rule:evenodd;}.cls-2{fill:#fff;}</style></defs><title>museum_art</title><g id="bk"><path class="cls-1" d="M13,0a13,13,0,0,1,10.08,21.2C20.7,24.13,13,32,13,32S5.24,24.1,2.86,21.14A13,13,0,0,1,13,0Z" transform="translate(0 0)"/><circle class="cls-2" cx="13" cy="13" r="11"/></g><g id="museum_art"><rect class="cls-3" x="7.59" y="8.28" width="10.81" height="10.81"/><path class="cls-3" d="M19.6,6.88h-4L13.17,3.58A.21.21,0,0,0,13,3.5h0a.21.21,0,0,0-.17.08l-2.49,3.3h-4a.21.21,0,0,0-.21.21v13.2a.21.21,0,0,0,.21.21H19.6a.21.21,0,0,0,.21-.21V7.09A.21.21,0,0,0,19.6,6.88ZM13,4.06l2.09,2.82H10.87ZM18.82,19.3a.21.21,0,0,1-.21.21H7.39a.21.21,0,0,1-.21-.21V8.07a.21.21,0,0,1,.21-.21H18.61a.21.21,0,0,1,.21.21Z" transform="translate(0 0)"/></g></svg>