<svg xmlns="http://www.w3.org/2000/svg" width="26" height="32" viewBox="0 0 26 32"><defs><style>.cls-1,.cls-3{fill:#0068b8;}.cls-1{fill-rule:evenodd;}.cls-2{fill:#fff;}</style></defs><title>museum_archeological</title><g id="bk"><path class="cls-1" d="M13,0a13,13,0,0,1,10.08,21.2C20.7,24.13,13,32,13,32S5.24,24.1,2.86,21.14A13,13,0,0,1,13,0Z" transform="translate(0 0)"/><circle class="cls-2" cx="13" cy="13" r="11"/></g><g id="museum_archeological"><path class="cls-3" d="M17.86,5.5H8.14a2.64,2.64,0,0,0,0,5.27l.3,0,.2,0a2.64,2.64,0,0,0,1.95-1.59h4.84a2.64,2.64,0,0,0,1.95,1.59l.2,0,.3,0a2.64,2.64,0,1,0,0-5.27Zm0,4.39a1.76,1.76,0,0,1-1.7-1.31l-.09-.33H9.92l-.09.33a1.76,1.76,0,1,1-1.7-2.2h9.73a1.76,1.76,0,1,1,0,3.52Z" transform="translate(0 0)"/><path class="cls-3" d="M17.86,6.91H8.14A1.23,1.23,0,1,0,9.37,8.14H8.49a.35.35,0,1,1-.35-.35h9.73a.35.35,0,1,1-.35.35h-.88a1.23,1.23,0,1,0,1.23-1.23Z" transform="translate(0 0)"/><path class="cls-3" d="M15.89,10.76a3.51,3.51,0,0,1-1-1H11.11a3.52,3.52,0,0,1-3,1.64H8V20.5H18V11.36h-.12A3.5,3.5,0,0,1,15.89,10.76Zm-4.8,7.4h-.88V11.24h.88Zm2.34,0h-.88V11.24h.88Zm2.34,0h-.88V11.24h.88Z" transform="translate(0 0)"/></g></svg>