<svg xmlns="http://www.w3.org/2000/svg" width="26" height="32" viewBox="0 0 26 32"><defs><style>.cls-1,.cls-3{fill:#0068b8;}.cls-1{fill-rule:evenodd;}.cls-2{fill:#fff;}</style></defs><title>museum_crafts</title><g id="bk"><path class="cls-1" d="M13,0a13,13,0,0,1,10.08,21.2C20.7,24.13,13,32,13,32S5.24,24.1,2.86,21.14A13,13,0,0,1,13,0Z" transform="translate(0 0)"/><circle class="cls-2" cx="13" cy="13" r="11"/></g><g id="museum_crafts"><path class="cls-3" d="M19.53,8.53V8.42a3.51,3.51,0,0,0-1-2.8,2.66,2.66,0,0,0-2-.61H9.41a2.65,2.65,0,0,0-1.94.62,3.51,3.51,0,0,0-1,2.8v.11a2.52,2.52,0,0,0,1,2.28,4.25,4.25,0,0,0-.5,2c0,2,2.76,4.58,4.64,6.07-.46.7-.93,1.09-1.34,1.09a.5.5,0,1,0,0,1h5.36a.5.5,0,1,0,0-1c-.41,0-.88-.38-1.34-1.09,1.88-1.49,4.64-4,4.64-6.07a4.24,4.24,0,0,0-.48-2A2.52,2.52,0,0,0,19.53,8.53Zm-9.06-.08A5.53,5.53,0,0,0,8.07,10a1.55,1.55,0,0,1-.59-1.45V8.41a2.59,2.59,0,0,1,.65-2A1.67,1.67,0,0,1,9.32,6h.06A1.56,1.56,0,0,1,11.07,7.4,1.29,1.29,0,0,1,10.46,8.46Zm6.67,5H17a.51.51,0,0,1-.49-.4,2.35,2.35,0,0,0-1.74-2,.51.51,0,0,1-.41-.58.5.5,0,0,1,.58-.41,3.33,3.33,0,0,1,2.56,2.75A.51.51,0,0,1,17.14,13.5Zm1.38-5A1.53,1.53,0,0,1,17.89,10a5.5,5.5,0,0,0-2.41-1.56h0a1.29,1.29,0,0,1-.59-1A1.56,1.56,0,0,1,16.54,6h.14a1.67,1.67,0,0,1,1.19.38,2.59,2.59,0,0,1,.65,2Z" transform="translate(0 0)"/></g></svg>