<svg xmlns="http://www.w3.org/2000/svg" width="26" height="32" viewBox="0 0 26 32"><defs><style>.cls-1,.cls-3{fill:#0068b8;}.cls-1{fill-rule:evenodd;}.cls-2{fill:#fff;}</style></defs><title>music_live</title><g id="bk"><path class="cls-1" d="M13,0a13,13,0,0,1,10.08,21.2C20.7,24.13,13,32,13,32S5.24,24.1,2.86,21.14A13,13,0,0,1,13,0Z" transform="translate(0 0)"/><circle class="cls-2" cx="13" cy="13" r="11"/></g><g id="music_live"><circle class="cls-3" cx="16.61" cy="5.93" r="0.93"/><path class="cls-3" d="M20.8,7.68l0,0a.3.3,0,0,0,0-.42h0a.3.3,0,0,0-.42-.05h0l0,0-.09-.11h0a.24.24,0,0,0-.33,0h0a.24.24,0,0,0,0,.33l.09.11L20,7.56l-.09-.11h0a.24.24,0,0,0-.38.29l.09.11L18.22,8.94h0c-.55-.47-1.25-.38-1.48.16a.66.66,0,0,1-.26.3L17,9.8a.39.39,0,1,1,.22.69.88.88,0,0,1-.73.77l.09.12a.24.24,0,0,1-.38.29L15.66,11l-.91-.64a1.83,1.83,0,0,0,.6,1.62,1.39,1.39,0,0,0,1.76.25,1.11,1.11,0,0,0,.41-.81.65.65,0,0,1,.55-.6c.57-.09.85-.73.51-1.4L20,8.32l.09.11h0a.24.24,0,0,0,.35,0h0a.24.24,0,0,0,0-.32L20.35,8,20.42,8l.09.11a.24.24,0,1,0,.38-.29Z" transform="translate(0 0)"/><path class="cls-3" d="M17.82,7.16H15.41a1.06,1.06,0,0,0-1.06,1.06V9.28h0a.45.45,0,0,0,.19.38l1.54,1.09a.45.45,0,0,0,.52-.73l-1.35-1V8.22a.09.09,0,0,1,.18,0v.45l.55.39.16,0a.22.22,0,0,0,.21-.14,1.18,1.18,0,0,1,.36-.48,1.21,1.21,0,0,1,.76-.25,1.45,1.45,0,0,1,.34,0h0a.09.09,0,0,1,.17,0,.25.25,0,0,1,0,.11l.21.1.61-.48A1.06,1.06,0,0,0,17.82,7.16Z" transform="translate(0 0)"/><circle class="cls-3" cx="9.26" cy="6.83" r="0.98"/><path class="cls-3" d="M13.47,7.87,13,7.53l.1-.2a.47.47,0,1,0-.84-.43l0,.07-.29-.21a.53.53,0,1,0-.28.39L12,7.4l-.33.65-1.25-.11-1.64.28-1.14-1L7.1,5.35a.47.47,0,1,0-.91.26l.58,2a.47.47,0,0,0,.15.23L8.36,9.1l.57,3.56a1.74,1.74,0,0,1,1.26,1.4h0c0-.24,0,.07-.19-2l.23,0,.15.18,0-.21,0-.42a1,1,0,0,1,.71-.88L10.87,9,12,9a.47.47,0,0,0,.42-.26l.4-.79.42.3a.24.24,0,1,0,.28-.39Z" transform="translate(0 0)"/><path class="cls-3" d="M19.49,14l-.06.6a1,1,0,0,1-.21.53v0H21V14H19.49Z" transform="translate(0 0)"/><path class="cls-3" d="M11.54,11.2a.54.54,0,0,0-.59.48l-.27,2.58L9.34,16H7.55L6.3,14,6.1,11.69A.54.54,0,1,0,5,11.78l.2,2.49a.54.54,0,0,0,.08.25A21,21,0,0,0,6.93,17v4H10V16.88l1.6-2.09a.54.54,0,0,0,.11-.27L12,11.79A.54.54,0,0,0,11.54,11.2Z" transform="translate(0 0)"/><path class="cls-3" d="M18.73,11.2a.54.54,0,0,0-.59.48l-.27,2.58L16.53,16H14.44l-1.18-1.13,1.18-2a.54.54,0,0,0-.93-.54l-1.4,2.41a.54.54,0,0,0-.06.37c0,.23.41.53,2.07,2.11V21h3.09V16.88l1.6-2.09a.54.54,0,0,0,.11-.27l.29-2.73A.54.54,0,0,0,18.73,11.2Z" transform="translate(0 0)"/><circle class="cls-3" cx="8.48" cy="14.33" r="1.23"/><circle class="cls-3" cx="15.67" cy="14.37" r="1.23"/></g></svg>