<svg xmlns="http://www.w3.org/2000/svg" width="26" height="32" viewBox="0 0 26 32"><defs><style>.cls-1,.cls-3{fill:#0068b8;}.cls-1{fill-rule:evenodd;}.cls-2{fill:#fff;}</style></defs><title>observatory</title><g id="bk"><path class="cls-1" d="M13,0a13,13,0,0,1,10.08,21.2C20.7,24.13,13,32,13,32S5.24,24.1,2.86,21.14A13,13,0,0,1,13,0Z" transform="translate(0 0)"/><circle class="cls-2" cx="13" cy="13" r="11"/></g><g id="observatory"><path class="cls-3" d="M13,11.44a2.2,2.2,0,1,0-2.2-2.2A2.21,2.21,0,0,0,13,11.44Zm0-3.18a1,1,0,1,1-1,1A1,1,0,0,1,13,8.25Zm6.67,7.33H6.2V10.65a6.8,6.8,0,0,1,2.87-5.5.3.3,0,0,1,.48.25v5.69a1.61,1.61,0,0,0,1.59,1.56H15a1.47,1.47,0,0,0,1.42-1.53V5.4a.3.3,0,0,1,.48-.24,6.75,6.75,0,0,1,2.78,5.49v4.94ZM21,17.42a.61.61,0,0,1-.61.61h-.72v1.88H6.2V18H5.61a.61.61,0,0,1,0-1.22H20.39A.61.61,0,0,1,21,17.42Z" transform="translate(0 0)"/></g></svg>