<svg xmlns="http://www.w3.org/2000/svg" width="26" height="32" viewBox="0 0 26 32"><defs><style>.cls-1,.cls-3{fill:#0068b8;}.cls-1{fill-rule:evenodd;}.cls-2{fill:#fff;}</style></defs><title>office-building</title><g id="bk"><path class="cls-1" d="M13,0a13,13,0,0,1,10.08,21.2C20.7,24.13,13,32,13,32S5.24,24.1,2.86,21.14A13,13,0,0,1,13,0Z" transform="translate(0 0)"/><circle class="cls-2" cx="13" cy="13" r="11"/></g><g id="office-building"><path class="cls-3" d="M21.75,13.1,20.29,13V11.43a.27.27,0,0,0-.21-.26l-2.39-.55V8.48a.27.27,0,0,0-.16-.24L13.1,6.39a.28.28,0,0,0-.1,0,.27.27,0,0,0-.1,0L8.47,8.24a.26.26,0,0,0-.16.24v2.14l-2.39.55a.27.27,0,0,0-.21.26V13l-1.45.06a.26.26,0,0,0-.25.26v3.09a.26.26,0,0,0,.18.25l8.73,2.91h.17l8.73-2.91a.26.26,0,0,0,.18-.25V13.36A.27.27,0,0,0,21.75,13.1ZM5.81,15.73a.09.09,0,0,1,0,.07l-.06,0h0l-1.27-.27a.09.09,0,0,1-.07-.09v-.53a.09.09,0,0,1,0-.07.09.09,0,0,1,.07,0L5.73,15a.09.09,0,0,1,.08.09v.61h0Zm0-1.21a.09.09,0,0,1,0,.07l-.06,0h0L4.44,14.5a.09.09,0,0,1-.08-.09v-.53a.09.09,0,0,1,0-.06.09.09,0,0,1,.06,0l1.27,0a.09.09,0,0,1,.09.09v.61Zm1.09.76a.09.09,0,0,1,0,.07l-.06,0h0l-.57-.08a.09.09,0,0,1-.08-.09V13.92a.09.09,0,0,1,0-.06.09.09,0,0,1,.06,0h.57a.09.09,0,0,1,.09.09v1.35Zm0-2a.09.09,0,0,1-.08.09l-.57,0h0l-.06,0a.09.09,0,0,1,0-.06V12a.09.09,0,0,1,.07-.09l.57-.1a.09.09,0,0,1,.1.09Zm1.36,2.22a.09.09,0,0,1,0,.07l-.06,0h0l-.72-.11a.09.09,0,0,1-.08-.09V13.95a.09.09,0,0,1,0-.06.08.08,0,0,1,.06,0l.72,0a.09.09,0,0,1,.09.09v1.52Zm0-2.28a.09.09,0,0,1-.08.09l-.72,0h0l-.06,0a.09.09,0,0,1,0-.06V11.8a.09.09,0,0,1,.07-.09l.72-.12a.09.09,0,0,1,.1.09V13.2h0Zm4.11,2.88a.09.09,0,0,1,0,.07l-.06,0h0L9,15.68a.09.09,0,0,1-.08-.09V14a.09.09,0,0,1,0-.06.09.09,0,0,1,.06,0l3.29.07a.09.09,0,0,1,.09.09v2h0Zm0-3a.09.09,0,0,1-.08.09L9,13.26H9l-.06,0a.09.09,0,0,1,0-.06V11.55A.09.09,0,0,1,9,11.46l3.29-.55a.09.09,0,0,1,.1.09v2h0Zm0-3a.09.09,0,0,1-.07.09L9,10.82H9l-.06,0a.09.09,0,0,1,0-.07V9.12A.09.09,0,0,1,9,9l3.29-1.17a.09.09,0,0,1,.12.08Zm2.7,5.91A.09.09,0,0,1,15,16l-1.27.18h0l-.06,0a.09.09,0,0,1,0-.07V14a.09.09,0,0,1,.09-.09l1.27,0A.08.08,0,0,1,15,14a.09.09,0,0,1,0,.06v1.87Zm0-2.81a.09.09,0,0,1,0,.06l-.06,0h0l-1.27-.05a.09.09,0,0,1-.08-.09V11a.09.09,0,0,1,0-.07.09.09,0,0,1,.07,0l1.27.21a.09.09,0,0,1,.07.09v1.87Zm0-2.81a.09.09,0,0,1,0,.07l-.06,0h0l-1.27-.29a.09.09,0,0,1-.07-.09V8a.09.09,0,0,1,0-.07.09.09,0,0,1,.08,0L15,8.32a.09.09,0,0,1,.06.08v1.87Zm2,5.32a.09.09,0,0,1-.08.09l-.94.14h0l-.06,0a.09.09,0,0,1,0-.07V14a.09.09,0,0,1,.09-.09l.94,0a.08.08,0,0,1,.06,0,.09.09,0,0,1,0,.06V15.6Zm0-2.43a.09.09,0,0,1,0,.06l-.06,0h0l-.94,0a.09.09,0,0,1-.09-.09V11.39a.09.09,0,0,1,.1-.09l.94.16a.09.09,0,0,1,.07.09v1.62Zm0-2.43a.09.09,0,0,1,0,.07l-.06,0h0l-.94-.22a.09.09,0,0,1-.07-.09V8.78a.09.09,0,0,1,.12-.08L17,9a.09.09,0,0,1,.06.08v1.62Zm2.76,4.46a.09.09,0,0,1-.08.09l-1.94.28h0l-.06,0a.09.09,0,0,1,0-.07v-.76a.09.09,0,0,1,.08-.09l1.94-.16a.09.09,0,0,1,.07,0,.09.09,0,0,1,0,.07v.64h0Zm0-1.28a.09.09,0,0,1-.09.09l-1.94,0h0l-.06,0a.09.09,0,0,1,0-.06V13.2a.09.09,0,0,1,0-.06.09.09,0,0,1,.06,0l1.94.08a.09.09,0,0,1,.08.09v.64h0Zm0-1.28a.09.09,0,0,1,0,.07l-.06,0h0l-1.94-.2a.09.09,0,0,1-.08-.09v-.76a.09.09,0,0,1,0-.07.09.09,0,0,1,.07,0l1.94.32a.09.09,0,0,1,.07.09v.64Zm1.2,2.94a.09.09,0,0,1-.07.09l-.44.09h0l-.06,0a.09.09,0,0,1,0-.07v-.59a.09.09,0,0,1,.08-.09l.44-.06a.09.09,0,0,1,.1.09v.56Zm0-1.13a.09.09,0,0,1-.08.09l-.44,0h0l-.06,0a.09.09,0,0,1,0-.07V13.9a.09.09,0,0,1,.09-.09H21a.09.09,0,0,1,.06,0,.09.09,0,0,1,0,.06v.56Zm.77,1a.09.09,0,0,1-.07.09l-.37.08h0l-.06,0a.09.09,0,0,1,0-.07V15a.09.09,0,0,1,.08-.09l.37-.05a.09.09,0,0,1,.1.09v.51Zm0-1a.09.09,0,0,1-.08.09l-.37,0h0l-.06,0a.09.09,0,0,1,0-.07v-.54a.09.09,0,0,1,.09-.09h.37a.08.08,0,0,1,.06,0,.09.09,0,0,1,0,.06v.52Z" transform="translate(0 0)"/></g></svg>