<svg xmlns="http://www.w3.org/2000/svg" width="26" height="32" viewBox="0 0 26 32"><defs><style>.cls-1,.cls-3{fill:#0068b8;}.cls-1{fill-rule:evenodd;}.cls-2{fill:#fff;}</style></defs><title>palace-2</title><g id="bk"><path class="cls-1" d="M13,0a13,13,0,0,1,10.08,21.2C20.7,24.13,13,32,13,32S5.24,24.1,2.86,21.14A13,13,0,0,1,13,0Z" transform="translate(0 0)"/><circle class="cls-2" cx="13" cy="13" r="11"/></g><g id="palace-2"><path class="cls-3" d="M19.23,15.23v-.68h.13v-.92h.23a6.35,6.35,0,0,1-.54-.91c-.19-.43-.4-1-.4-1v-.58c.11,0,.28,0,.48.06a.7.7,0,0,0,.59-.26.74.74,0,0,1-.65-.09.63.63,0,0,0-.42-.16v0h-.13v0h0v.44h0v.6h0s-.2.56-.39,1a6,6,0,0,1-.54.91h.23v.92H18v.68l-1.44,0V12.18h.16l.17-.31V11H16.3V9.44h.08l.13-.23V8.57H16.2V7.33h.5a19.12,19.12,0,0,1-1.11-2,.17.17,0,0,0,.1-.15A.18.18,0,0,0,15.55,5V4.64a6.51,6.51,0,0,1,.75.08.91.91,0,0,0,.77-.34,1,1,0,0,1-.85-.11.89.89,0,0,0-.67-.21V4h-.14V5a.18.18,0,0,0-.15.17.18.18,0,0,0,.1.15,18,18,0,0,1-1.1,2h.5V8.57h-.31v.64l.13.23h.08V11H14.1v.85l.17.31h.17v.87l-.82-1.22V10.9h-.46v.34a5.17,5.17,0,0,1-.25-.6c-.14-.41-.26-.95-.26-.95h0V9.49a4.66,4.66,0,0,1,.51.06.67.67,0,0,0,.57-.25.71.71,0,0,1-.63-.08.68.68,0,0,0-.55-.15V9.7h0s-.12.53-.25.95a7.12,7.12,0,0,1-.39.88h.19v2.73H11.5a6.7,6.7,0,0,1-.33-.77c-.15-.44-.27-1-.27-1h0v-.9h-.13v.9h0s-.13.57-.27,1a6.9,6.9,0,0,1-.42.93h.21v2.23H9.38V15.57h.2V14h.35a6.72,6.72,0,0,1-.82-1c-.29-.46-.59-1-.59-1h0v-.78l.38,0A.67.67,0,0,0,9.46,11a.72.72,0,0,1-.62-.08.67.67,0,0,0-.54-.15v.42h0v.8h0s-.3.59-.6,1a6.46,6.46,0,0,1-.82,1h.35v1.61h.2v1.19H6V21h5.89V19.23a1.41,1.41,0,0,1,2.83,0V21H20V15.23h-.79Zm-3.48-4.67h-.59V9.71a.29.29,0,0,1,.29-.24.31.31,0,0,1,.3.24Z" transform="translate(0 0)"/></g></svg>