<svg xmlns="http://www.w3.org/2000/svg" width="26" height="32" viewBox="0 0 26 32"><defs><style>.cls-1,.cls-3{fill:#0068b8;}.cls-1{fill-rule:evenodd;}.cls-2{fill:#fff;}</style></defs><title>panoramicview</title><g id="bk"><path class="cls-1" d="M13,0a13,13,0,0,1,10.08,21.2C20.7,24.13,13,32,13,32S5.24,24.1,2.86,21.14A13,13,0,0,1,13,0Z" transform="translate(0 0)"/><circle class="cls-2" cx="13" cy="13" r="11"/></g><g id="panoramicview"><path class="cls-3" d="M6.44,19.78,10.08,18V8L6.44,6.22A.31.31,0,0,0,6,6.5v13A.31.31,0,0,0,6.44,19.78Z" transform="translate(0 0)"/><path class="cls-3" d="M20,19.5V6.5a.31.31,0,0,0-.44-.28L15.92,8V18l3.64,1.75A.31.31,0,0,0,20,19.5Z" transform="translate(0 0)"/><rect class="cls-3" x="10.79" y="7.94" width="4.43" height="10.09"/></g></svg>