<svg xmlns="http://www.w3.org/2000/svg" width="26" height="32" viewBox="0 0 26 32"><defs><style>.cls-1,.cls-3{fill:#0068b8;}.cls-1{fill-rule:evenodd;}.cls-2{fill:#fff;}</style></defs><title>party-2</title><g id="bk"><path class="cls-1" d="M13,0a13,13,0,0,1,10.08,21.2C20.7,24.13,13,32,13,32S5.24,24.1,2.86,21.14A13,13,0,0,1,13,0Z" transform="translate(0 0)"/><circle class="cls-2" cx="13" cy="13" r="11"/></g><g id="party-2"><path class="cls-3" d="M19.3,5.67a5.25,5.25,0,0,0-7.14,2,7.06,7.06,0,0,0-.5,4.59,6.22,6.22,0,0,0,1.36,3l-.84.24a.38.38,0,0,0-.08.69l.85.47-1.09,4.35-.7-2.81.6-.12a.37.37,0,0,0,.14-.68L11.19,17a.37.37,0,0,0,.13-.51,1.08,1.08,0,0,1,.25-1.4.37.37,0,0,0,.09-.45,8.94,8.94,0,0,1-.74-2.21,7.71,7.71,0,0,1,.58-5.1c.07-.13.16-.25.24-.37l.05-.07a.38.38,0,0,0-.14-.55A5.24,5.24,0,0,0,4.1,12a7.63,7.63,0,0,0,5.57,5.29L9.18,18a.38.38,0,0,0,.31.59h.07l.87-.17,1.08,4.3a.37.37,0,0,0,.73,0l1.4-5.61.44.24a.38.38,0,0,0,.54-.43l-.24-.84a4,4,0,0,0,.79.07c2.07,0,5-1.34,6.16-3.35A5.26,5.26,0,0,0,19.3,5.67ZM8.7,8.05a3,3,0,0,0-2.38,3.51A.38.38,0,0,1,6,12H5.94a.38.38,0,0,1-.37-.3,3.75,3.75,0,0,1,3-4.39.38.38,0,0,1,.44.3A.37.37,0,0,1,8.7,8.05Zm10-.57a.38.38,0,0,1-.51.14,3,3,0,0,0-4.08,1.16A.38.38,0,0,1,13.8,9a.38.38,0,0,1-.18,0,.37.37,0,0,1-.14-.51A3.75,3.75,0,0,1,18.57,7,.38.38,0,0,1,18.71,7.49Z" transform="translate(0 0)"/></g></svg>