<svg xmlns="http://www.w3.org/2000/svg" width="26" height="32" viewBox="0 0 26 32"><defs><style>.cls-1,.cls-3{fill:#0068b8;}.cls-1{fill-rule:evenodd;}.cls-2{fill:#fff;}</style></defs><title>petroglyphs-2</title><g id="bk"><path class="cls-1" d="M13,0a13,13,0,0,1,10.08,21.2C20.7,24.13,13,32,13,32S5.24,24.1,2.86,21.14A13,13,0,0,1,13,0Z" transform="translate(0 0)"/><circle class="cls-2" cx="13" cy="13" r="11"/></g><g id="petroglyphs-2"><g id="layer1"><path id="path3074" class="cls-3" d="M12,7.15c-.28,0-.44.5-.43.74,0,.59.64,1,.21,2.11-2.13-.08-4.38-.52-6.59-.19a4.42,4.42,0,0,0-1.69.46c-.55.27-.73.93,0,.68a7.37,7.37,0,0,1,1.44-.33L3.66,11.87c-.28.28.16.61.38.41s1-1,1.6-1.5c.17-.14.59-.26.4.14a13.16,13.16,0,0,1-1.17,1.64.27.27,0,0,0,.44.32,13.19,13.19,0,0,1,1.23-1.73c.07-.07.62-.49.38.09s-.69,1.27-.76,1.44a.28.28,0,0,0,.49.26c.09-.16.55-1.07.85-1.6.39-.69.52,0,.44.13-.2.38-.51,1-.6,1.21-.18.44.44.61.61.3s.49-1.05.77-1.56.68-.49.54.13S8.81,12.78,8.77,13a.3.3,0,0,0,.56.19c.07-.19.44-1,.6-1.48.28-.87.78-.44.58.09A10.47,10.47,0,0,0,10,13.44c-.1.43.37.55.53.26.37-.67.53-1.45.82-2.09.16-.34.4-.44.43,0l.08,1.66c0,.29,0,.33-.16.46-.38.27-1.31,1.07-2.56,2.09a.72.72,0,0,1-.82.12l-.7-.59c-.56-.47-.75.27-.35.54,1,.69.56.71-.41,1.27-.39.23,0,.72.29.57,1.6-.8,1.53-.91,1.39.79,0,.47.63.36.64,0A6.93,6.93,0,0,1,9.28,17a1.11,1.11,0,0,1,.28-.56,24,24,0,0,0,2.46-2A11.43,11.43,0,0,1,10.86,18a.33.33,0,0,0,.28.46l3.22.15a.32.32,0,0,0,.32-.43c-.52-1.36-.91-2.36-1.33-3.72,0-.11,2.66,2.18,2.78,2.28a.34.34,0,0,1,.09.45l-.32.67c-.21.43.41.6.57.29l.3-.62c.16-.31.23-.18.44.16s.41.72.63,1.08.7,0,.54-.34c-.5-1-1.35-1.43,0-1.33.61,0,.52-.64.07-.64H17.7a1.2,1.2,0,0,1-.79-.25l-3.06-2.4a1.25,1.25,0,0,1-.44-.93c0-.34,0-.83,0-1.17,0-.69.4-.32.44.27A6.51,6.51,0,0,0,14,13.21a.3.3,0,0,0,.6,0l-.08-1.31c0-.65.62-.69.72,0l.18,1.31c.07.52.76.29.71-.1l-.08-1.34c-.05-.92.52-.58.62,0L17,13.37c.08.46.7.23.65-.11l-.24-1.6c-.09-.59.25-.58.37-.08l.36,1.4c.11.43.58.2.51-.13l-.28-1.33c-.06-.3.34-.62.54,0l.36,1.1c.14.42.66.16.57-.16l-.24-.86c-.16-.59.37-.48.64-.06s.44,1,.54,1.19c.19.35.64,0,.53-.25a9.8,9.8,0,0,0-.54-1.14,8,8,0,0,1,1.65,1.2.33.33,0,0,0,.53-.39,3.9,3.9,0,0,0-2-1.38,24.78,24.78,0,0,0-7.65-.9c0-.48-.06-1-.06-1.42.28,0,1.27.12,1.91.14.28,0,.53-.49.28-.63A5.17,5.17,0,0,0,12,7.15Z" transform="translate(0 0)"/></g></g></svg>