<svg xmlns="http://www.w3.org/2000/svg" width="26" height="32" viewBox="0 0 26 32"><defs><style>.cls-1,.cls-3{fill:#0068b8;}.cls-1{fill-rule:evenodd;}.cls-2{fill:#fff;}</style></defs><title>pizzaria</title><g id="bk"><path class="cls-1" d="M13,0a13,13,0,0,1,10.08,21.2C20.7,24.13,13,32,13,32S5.24,24.1,2.86,21.14A13,13,0,0,1,13,0Z" transform="translate(0 0)"/><circle class="cls-2" cx="13" cy="13" r="11"/></g><g id="pizzaria"><path class="cls-3" d="M11.51,19.12A6.12,6.12,0,1,1,15.84,8.68l1-1A7.51,7.51,0,1,0,19,14l-1.38-.19A6.12,6.12,0,0,1,11.51,19.12Zm1.27-7.5a.5.5,0,1,1,.51-.5.52.52,0,0,1,0,.13L15,9.54a4.89,4.89,0,1,0,1.38,4.11L11.51,13l1.4-1.4ZM9.56,13.78a.91.91,0,1,1,.91-.91A.91.91,0,0,1,9.56,13.78Zm.59-2.67a.59.59,0,1,1,.59-.59A.59.59,0,0,1,10.14,11.11Zm2.28,3.44a.56.56,0,1,1-.56.56A.56.56,0,0,1,12.42,14.55Zm5.65-6.7-2,1.84a.69.69,0,1,1-1,.92l-1.87,1.73,1.34.21a.63.63,0,0,1-.1-.34.61.61,0,1,1,1,.47l1.82.28a.52.52,0,0,1,0-.09.49.49,0,1,1,.92.23l1.71.26S20.38,9.87,18.07,7.85Zm-4.8,3.39-.36.36A.5.5,0,0,0,13.27,11.24Zm6.32-4.68-.92.93A5.72,5.72,0,0,1,20.58,13c0,.12,0,.23-.08.34l1.29.23c0-.11,0-.21.07-.32A7,7,0,0,0,19.59,6.56Z" transform="translate(0 0)"/></g></svg>