<svg xmlns="http://www.w3.org/2000/svg" width="26" height="32" viewBox="0 0 26 32"><defs><style>.cls-1,.cls-3{fill:#0068b8;}.cls-1{fill-rule:evenodd;}.cls-2{fill:#fff;}</style></defs><title>pond</title><g id="bk"><path class="cls-1" d="M13,0a13,13,0,0,1,10.08,21.2C20.7,24.13,13,32,13,32S5.24,24.1,2.86,21.14A13,13,0,0,1,13,0Z" transform="translate(0 0)"/><circle class="cls-2" cx="13" cy="13" r="11"/></g><g id="pond"><path class="cls-3" d="M21,7.92a.58.58,0,0,0-.17-.41l-.26-.25a2,2,0,0,0-2.79,0l-.22.22a.82.82,0,0,1-1.16,0l-.19-.19a2,2,0,0,0-2.79,0l-.11.11a.82.82,0,0,1-1.16,0L12,7.39a2,2,0,0,0-2.79,0,.82.82,0,0,1-1.16,0h0a2,2,0,0,0-2.79,0l-.1.1A.58.58,0,0,0,5,7.94l0,5.45a8,8,0,0,0,8,7.91h.07a8,8,0,0,0,7.91-8ZM10.11,9.21A.69.69,0,0,1,10.6,9a.7.7,0,0,1,.7.69.7.7,0,0,1-.69.7h0a.7.7,0,0,1-.7-.69A.69.69,0,0,1,10.11,9.21ZM8.47,12.66a1,1,0,0,1,0-2h0a1,1,0,0,1,0,2Zm9.21,4a.21.21,0,0,1,0,0v.07l0,0v0l0,0h-.16a1,1,0,0,1-.29-.1l-.15-.1-.15-.15-.08-.1a2.35,2.35,0,0,1-.19-.33c0-.1-.09-.2-.12-.29l0-.07,0-.07,0,0h0l0,0h0l0,0h0l0,0h-.17l0,0h0a7.23,7.23,0,0,1-.66.43l-.13.07-.26.14c-.18.09-.37.17-.58.25l-.47.15a.27.27,0,0,0-.19.23.25.25,0,0,0,0,.11l.06.2,0,.11v0h0s0,0,0,0h0v0h0v0h0v0h0v0h0l0,0h0l0,0h0l0,0h-.26a5.24,5.24,0,0,1-.84-.3l-.15-.07a1.85,1.85,0,0,1-.61-.47,6.22,6.22,0,0,1-.83-.14l-.49-.14a6.35,6.35,0,0,1-.84-.34l-.29-.15-.21-.12a5.68,5.68,0,0,1-.48-.33.42.42,0,0,1-.16-.34h0a.45.45,0,0,1,.07-.22,4.27,4.27,0,0,1,.26-.36A4.43,4.43,0,0,1,11.56,13v0h0s0,0,0-.07,0-.06,0-.09v-.16l0-.12c0-.06,0-.13,0-.2a2.11,2.11,0,0,1,.07-.21l0-.08,0-.07a1.48,1.48,0,0,1,.19-.28l0,0,0,0h0l0,0h.23l0,0h0l0,0h0l.07.08.08.09h0l0,0,.07.06.08.06.12.08a1.18,1.18,0,0,0,.41.15c.3,0,.59.08.82.1h.2a.35.35,0,0,1,.24.11.36.36,0,0,1,.08.14c0,.06,0,.13.05.2a1.57,1.57,0,0,1,0,.21c0,.12,0,.24,0,.3l.11,0a5.73,5.73,0,0,1,.6.29A5.51,5.51,0,0,1,16,14l0,0h.18l0,0h0l0,0h0l0,0h0l0-.05a2.59,2.59,0,0,1,.33-.81,1,1,0,0,1,.55-.41h.17l0,0h0l0,0v.11a.21.21,0,0,1,0,.05,2.33,2.33,0,0,0-.08.43,1.29,1.29,0,0,0,0,.15c0,.1,0,.19,0,.28a1.2,1.2,0,0,1-.13.65.84.84,0,0,1-.13.15.3.3,0,0,0,0,.44l.12.12.07.11a.91.91,0,0,1,.06.16,2.47,2.47,0,0,1,.07.5V16a1.77,1.77,0,0,0,.09.43l0,.13a.21.21,0,0,1,0,.05Z" transform="translate(0 0)"/></g></svg>