<svg xmlns="http://www.w3.org/2000/svg" width="26" height="32" viewBox="0 0 26 32"><defs><style>.cls-1,.cls-3{fill:#0068b8;}.cls-1{fill-rule:evenodd;}.cls-2{fill:#fff;}</style></defs><title>prayer</title><g id="bk"><path class="cls-1" d="M13,0a13,13,0,0,1,10.08,21.2C20.7,24.13,13,32,13,32S5.24,24.1,2.86,21.14A13,13,0,0,1,13,0Z" transform="translate(0 0)"/><circle class="cls-2" cx="13" cy="13" r="11"/></g><g id="prayer"><circle class="cls-3" cx="14.91" cy="7" r="2"/><path class="cls-3" d="M18.46,12.19a1,1,0,0,0-1.28-.38l-1.3.7c-.17-.3-.31-.58-.46-.86a16.56,16.56,0,0,0-1.13-2,1.67,1.67,0,0,0-2.46,0,10,10,0,0,0-2.34,7,.56.56,0,0,0,.63.51h0l.64,1.67H8.54a1.11,1.11,0,0,0,0,2.21H12.4a1.11,1.11,0,0,0,1-1.5l-.92-2.39c.54,0,.43-.37.41-.55a4.58,4.58,0,0,1,1-3.75c.22.42.47.87.82,1.42s.62.67,1.35.32l2-1.08A1,1,0,0,0,18.46,12.19Z" transform="translate(0 0)"/></g></svg>