<svg xmlns="http://www.w3.org/2000/svg" width="26" height="32" viewBox="0 0 26 32"><defs><style>.cls-1,.cls-3{fill:#0068b8;}.cls-1{fill-rule:evenodd;}.cls-2{fill:#fff;}</style></defs><title>pyramid</title><g id="bk"><path class="cls-1" d="M13,0a13,13,0,0,1,10.08,21.2C20.7,24.13,13,32,13,32S5.24,24.1,2.86,21.14A13,13,0,0,1,13,0Z" transform="translate(0 0)"/><circle class="cls-2" cx="13" cy="13" r="11"/></g><g id="pyramid"><g id="_Group_" data-name="&lt;Group&gt;"><path id="_Path_" data-name="&lt;Path&gt;" class="cls-3" d="M10.47,6.72l-.13,1.35-.22,2.26L9.86,13l-.21,2.22L9.37,18c0,.23,0,.45-.06.68s-.15.36-.4.22L4.2,16.34c-.24-.13-.26-.28-.1-.52L8.62,9.19,10.24,6.8a1.17,1.17,0,0,1,.09-.13s.07-.07.09-.06S10.48,6.67,10.47,6.72Z" transform="translate(0 0)"/><path id="_Path_2" data-name="&lt;Path&gt;" class="cls-3" d="M15.88,10.52c.06-.63.12-1.24.18-1.85l.23-2.3s0,0,0-.06,0-.24.11-.28.17.09.23.16L21.87,12c.2.22.17.34-.1.46L19,13.71a.46.46,0,0,1-.64-.13l-2.25-2.49A.79.79,0,0,1,15.88,10.52Z" transform="translate(0 0)"/><path id="_Path_3" data-name="&lt;Path&gt;" class="cls-3" d="M15.91,6.33,15.7,8.55,15.56,10a1.12,1.12,0,0,1,0,.16c0,.16-.12.19-.24.07S15.08,10,15,9.86l-.69-.77a.43.43,0,0,1,0-.58l1.51-2.23s.06-.12.13-.1S15.89,6.29,15.91,6.33Z" transform="translate(0 0)"/><path id="_Compound_Path_" data-name="&lt;Compound Path&gt;" class="cls-3" d="M18.76,14.84a1,1,0,0,0-.14-.17l-3.92-4.35L11.29,6.54c-.06-.06-.11-.15-.21-.13s-.09.14-.1.22q-.12,1.13-.23,2.26c-.09.89-.17,1.77-.25,2.66s-.18,1.83-.27,2.74L10,16.54,9.8,18.79c0,.18.09.24.33.13l6.35-2.81,2.11-.93C18.8,15.09,18.85,15,18.76,14.84ZM13,10.29l0,.06Zm0,.07v0Zm0-.09a.49.49,0,0,0,0-.07A.5.5,0,0,1,13,10.27Z" transform="translate(0 0)"/></g></g></svg>