<svg xmlns="http://www.w3.org/2000/svg" width="26" height="32" viewBox="0 0 26 32"><defs><style>.cls-1,.cls-3{fill:#0068b8;}.cls-1{fill-rule:evenodd;}.cls-2{fill:#fff;}</style></defs><title>restaurant</title><g id="bk"><path class="cls-1" d="M13,0a13,13,0,0,1,10.08,21.2C20.7,24.13,13,32,13,32S5.24,24.1,2.86,21.14A13,13,0,0,1,13,0Z" transform="translate(0 0)"/><circle class="cls-2" cx="13" cy="13" r="11"/></g><g id="restaurant"><path class="cls-3" d="M17.73,13.35a1.24,1.24,0,0,1-.16-.24,4.11,4.11,0,1,1-.1-1l.37-2.77V9.31a5.77,5.77,0,0,0-8-.75V9.9a2.27,2.27,0,0,1-1,1.91v4.67a5.78,5.78,0,0,0,9.5-.22V13.71A1.24,1.24,0,0,1,17.73,13.35Z" transform="translate(0 0)"/><path class="cls-3" d="M13.45,9.65a3.42,3.42,0,1,0,3.42,3.42A3.42,3.42,0,0,0,13.45,9.65Z" transform="translate(0 0)"/><path class="cls-3" d="M20,6.68a.54.54,0,0,0-1.07-.07l-.79,5.86a.54.54,0,0,0,.53.61H19v6.28a.51.51,0,1,0,1,0Z" transform="translate(0 0)"/><path class="cls-3" d="M9.12,6.79a.35.35,0,1,0-.7,0V8.72H7.91V6.79a.35.35,0,1,0-.7,0V8.72H6.7V6.79a.35.35,0,1,0-.7,0V9.95a1.56,1.56,0,0,0,1,1.48v7.93a.51.51,0,1,0,1,0V11.42a1.56,1.56,0,0,0,1-1.48Z" transform="translate(0 0)"/></g></svg>