<svg xmlns="http://www.w3.org/2000/svg" width="26" height="32" viewBox="0 0 26 32"><defs><style>.cls-1,.cls-3{fill:#0068b8;}.cls-1{fill-rule:evenodd;}.cls-2{fill:#fff;}</style></defs><title>riparianhabitat</title><g id="bk"><path class="cls-1" d="M13,0a13,13,0,0,1,10.08,21.2C20.7,24.13,13,32,13,32S5.24,24.1,2.86,21.14A13,13,0,0,1,13,0Z" transform="translate(0 0)"/><circle class="cls-2" cx="13" cy="13" r="11"/></g><g id="riparianhabitat"><path class="cls-3" d="M19.87,16.3a4.11,4.11,0,0,0-3.23-1.56A5.14,5.14,0,0,0,13.43,16a8.47,8.47,0,0,1-4.24,1.65c-1,.17-1.8.3-1.8,1,0,1.35,2.3,2.74,6.16,2.74,4.13,0,6.39-1,6.9-3A2.51,2.51,0,0,0,19.87,16.3Z" transform="translate(0 0)"/><path class="cls-3" d="M12.25,15.34a.54.54,0,0,0-.54-.54h-.29V13.13h2.7a.28.28,0,0,0,.26-.14.29.29,0,0,0,0-.3l-1.5-2.23h.43a.26.26,0,0,0,.24-.13.26.26,0,0,0,0-.28L11.92,7.8h.51a.23.23,0,0,0,.22-.12.23.23,0,0,0,0-.25l-2-2.7a.26.26,0,0,0-.21-.11.26.26,0,0,0-.21.11l-2,2.7a.22.22,0,0,0,.19.37h.51L8.11,9,6.77,7.17a.25.25,0,0,0-.42,0l-1.49,2a.23.23,0,0,0,.19.37h.28L4.21,11.19a.24.24,0,0,0,.21.4h.22L3.56,13.21a.27.27,0,0,0,.23.43h2V14.8H5.68a.54.54,0,1,0,0,1.08h6A.54.54,0,0,0,12.25,15.34ZM7.41,13.64h2V14.8h-2Z" transform="translate(0 0)"/><path class="cls-3" d="M14.86,8.1h.77a1.72,1.72,0,0,0,.1.24l-.54.54a.54.54,0,1,0,.76.76l.54-.54.24.1V10a.54.54,0,1,0,1.08,0V9.21l.24-.1.54.54a.54.54,0,1,0,.76-.76l-.54-.54a1.72,1.72,0,0,0,.1-.24h.77a.54.54,0,1,0,0-1.08h-.77a1.72,1.72,0,0,0-.1-.24l.54-.54a.54.54,0,0,0-.76-.76L18.06,6l-.24-.1V5.15a.54.54,0,1,0-1.08,0v.77L16.5,6,16,5.47a.54.54,0,0,0-.76.76l.54.54a1.72,1.72,0,0,0-.1.24h-.77a.54.54,0,1,0,0,1.08Z" transform="translate(0 0)"/></g></svg>