<svg xmlns="http://www.w3.org/2000/svg" width="26" height="32" viewBox="0 0 26 32"><defs><style>.cls-1,.cls-3{fill:#0068b8;}.cls-1{fill-rule:evenodd;}.cls-2{fill:#fff;}</style></defs><title>river-2</title><g id="bk"><path class="cls-1" d="M13,0a13,13,0,0,1,10.08,21.2C20.7,24.13,13,32,13,32S5.24,24.1,2.86,21.14A13,13,0,0,1,13,0Z" transform="translate(0 0)"/><circle class="cls-2" cx="13" cy="13" r="11"/></g><g id="river-2"><path class="cls-3" d="M20.95,18.23a.52.52,0,0,0-.7-.25A2.31,2.31,0,0,1,18,17.82a3.33,3.33,0,0,0-3.71,0,2.29,2.29,0,0,1-2.55,0,3.33,3.33,0,0,0-3.71,0A2.31,2.31,0,0,1,5.75,18a.52.52,0,1,0-.45.94,3.36,3.36,0,0,0,3.3-.23,2.29,2.29,0,0,1,2.55,0,3.33,3.33,0,0,0,3.71,0,2.29,2.29,0,0,1,2.55,0,3.36,3.36,0,0,0,3.3.23A.52.52,0,0,0,20.95,18.23Z" transform="translate(0 0)"/><path class="cls-3" d="M20.95,16.14a.52.52,0,0,0-.7-.25A2.31,2.31,0,0,1,18,15.75a3.66,3.66,0,0,0,.69-1.66h.56a1.57,1.57,0,0,0,1.57-1.57V12H18.39a.52.52,0,0,1,0-1h2.43V9.4a.52.52,0,0,0-.52-.52H17.47a1.56,1.56,0,0,0-1.52,1.19l-.65,2.59A.51.51,0,0,1,15,13l-.14-.39a.52.52,0,0,0-.67-.31l-.49.18L11.41,6.09a.52.52,0,1,0-1,.36l2.32,6.37a6.3,6.3,0,0,0-.59.23h-3a.52.52,0,0,1-.51-.44L8.3,10.36a.52.52,0,0,0-.51-.44H5.7a.52.52,0,0,0-.52.52v2.09a4.72,4.72,0,0,0,1.67,3.58,2.29,2.29,0,0,1-1.1-.22.52.52,0,1,0-.45.94,3.36,3.36,0,0,0,3.3-.23,2.29,2.29,0,0,1,2.55,0,3.33,3.33,0,0,0,3.71,0,2.32,2.32,0,0,1,2.55,0,3.36,3.36,0,0,0,3.3.23A.52.52,0,0,0,20.95,16.14Zm-6.64-.56h0a.52.52,0,0,1-.67-.31l-.53-1.47,1-.36.54,1.47A.52.52,0,0,1,14.31,15.58Z" transform="translate(0 0)"/></g></svg>