<svg xmlns="http://www.w3.org/2000/svg" width="26" height="32" viewBox="0 0 26 32"><defs><style>.cls-1,.cls-3{fill:#0068b8;}.cls-1{fill-rule:evenodd;}.cls-2{fill:#fff;}</style></defs><title>road</title><g id="bk"><path class="cls-1" d="M13,0a13,13,0,0,1,10.08,21.2C20.7,24.13,13,32,13,32S5.24,24.1,2.86,21.14A13,13,0,0,1,13,0Z" transform="translate(0 0)"/><circle class="cls-2" cx="13" cy="13" r="11"/></g><g id="road"><path class="cls-3" d="M13.31,5.46l0,1.08h-.7l0-1.08H11L7.54,18.54h4.63l0-1.08h1.58l0,1.08h4.63L15,5.46Zm-.73,2.71h.83l.12,3H12.46Zm-.31,7.66.12-3H13.6l.12,3Z" transform="translate(0 0)"/><path class="cls-3" d="M16.14,5.46h-.58l4.36,13.08H21.5Z" transform="translate(0 0)"/><path class="cls-3" d="M9.86,5.46,4.5,18.54H6.08L10.44,5.46Z" transform="translate(0 0)"/></g></svg>