<svg xmlns="http://www.w3.org/2000/svg" width="26" height="32" viewBox="0 0 26 32"><defs><style>.cls-1,.cls-3{fill:#0068b8;}.cls-1{fill-rule:evenodd;}.cls-2{fill:#fff;}</style></defs><title>shore-2</title><g id="bk"><path class="cls-1" d="M13,0a13,13,0,0,1,10.08,21.2C20.7,24.13,13,32,13,32S5.24,24.1,2.86,21.14A13,13,0,0,1,13,0Z" transform="translate(0 0)"/><circle class="cls-2" cx="13" cy="13" r="11"/></g><g id="shore-2"><path class="cls-3" d="M21,13v3c-.36-.15-.78-.4-.89-.74s-.32-1.27.44-1.33c0,0-1-1.13-1.78.45-.61,1.2-1,1.72-1.33,1.78H17a1.39,1.39,0,0,1-.89-.89c-.14-.42-.32-1.27.44-1.33,0,0-1-1.13-1.78.45-.62,1.2-1,1.72-1.33,1.78H13a1.39,1.39,0,0,1-.89-.89c-.14-.42-.32-1.27.44-1.33,0,0-1-1.13-1.78.45-.62,1.2-1,1.72-1.33,1.78H9a1.4,1.4,0,0,1-.89-.89c-.14-.42-.32-1.27.44-1.33,0,0-1-1.13-1.78.45A3.79,3.79,0,0,1,5,15.93v-4.2c1-3.46,3.59-6.37,6.22-6.37,1.35,0,2.32.3,2.67.89s.34,1.58-.45,1.78a1.7,1.7,0,0,1-1.33-.44c-.14-.21-.42-.35,0-.89-2.31-.59-4,5,1.33,5.78.71-2.72,2.81-4.89,4.89-4.89a1.84,1.84,0,0,1,1.78.89.9.9,0,0,1-.45,1.33,1,1,0,0,1-.89-.44.63.63,0,0,1,.45-.89C17.35,8,16.07,12.73,21,13ZM8.11,16.09s-1-1.13-1.78.44A3.57,3.57,0,0,1,5,17.91v1.74H21V18.31c-.28-.07-1.17-.38-1.33-.89s-.32-1.27.45-1.33c0,0-1-1.13-1.78.44-.61,1.2-1.05,1.72-1.33,1.78h-.44a1.39,1.39,0,0,1-.89-.89c-.14-.42-.32-1.27.45-1.33,0,0-1-1.13-1.78.45-.62,1.2-1,1.72-1.33,1.78h-.44a1.39,1.39,0,0,1-.89-.89c-.14-.42-.32-1.27.44-1.33,0,0-1-1.13-1.78.44-.62,1.2-1,1.72-1.33,1.78H8.56a1.4,1.4,0,0,1-.89-.89C7.53,17,7.34,16.16,8.11,16.09Z" transform="translate(0 0)"/></g></svg>