<svg xmlns="http://www.w3.org/2000/svg" width="26" height="32" viewBox="0 0 26 32"><defs><style>.cls-1,.cls-3{fill:#0068b8;}.cls-1{fill-rule:evenodd;}.cls-2{fill:#fff;}</style></defs><title>slipway</title><g id="bk"><path class="cls-1" d="M13,0a13,13,0,0,1,10.08,21.2C20.7,24.13,13,32,13,32S5.24,24.1,2.86,21.14A13,13,0,0,1,13,0Z" transform="translate(0 0)"/><circle class="cls-2" cx="13" cy="13" r="11"/></g><g id="slipway"><path class="cls-3" d="M21,16.62a1.24,1.24,0,0,0-.64-.8l-.42-.22.27-2.3h0a.27.27,0,0,0,.27-.27v-1.6a.27.27,0,0,0-.27-.27H18.33V9.3A.27.27,0,0,0,18.07,9h-.17l-1.16-.93v-1a1.33,1.33,0,1,0-1.58-1.47L8.39,9.83H5.27A.27.27,0,0,0,5,10.1v1.6a.27.27,0,0,0,0,.15l.53.8a.27.27,0,0,0,.22.12H7.13v1l-.78,2.09a.26.26,0,0,0,0,.08h0v1.87H7.67a.27.27,0,1,1,0,.53H6.33v.53H8.2a.27.27,0,1,1,0,.53H6.33v.8a.27.27,0,0,0,.27.27h4.27a.27.27,0,0,0,.27-.27V16h0a.26.26,0,0,0,0-.08l-.78-2.09v-2l5.87-4.4v.67L15,9h-.17a.27.27,0,0,0-.27.27v1.87H12.73a.27.27,0,0,0-.27.27V13a.27.27,0,0,0,.27.27H13l.25,2.33-.37.2a1.25,1.25,0,0,0-.5,1.83l.6,1,2.85-1.41a1.77,1.77,0,0,1,1.52,0l2.83,1.36.57-.92A1.24,1.24,0,0,0,21,16.62Zm-15-4.39-.41-.61V10.37H8.2v1.87H5.94Zm4.54,3.47H7l.6-1.6h2.3ZM10,11.43H8.73V10.25l6.47-4,0,0,.05.12.06.11.07.1.08.1.09.09.1.08.11.07.07,0Zm5.69-5.6a.8.8,0,1,1,.8.8A.8.8,0,0,1,15.67,5.83Zm.8,2.74L17,9H15.89Zm2.93,6.76-2.06-1.08a2,2,0,0,0-1.53,0l-2,1.1-.22-2.06h6.07Z" transform="translate(0 0)"/><path class="cls-3" d="M16.09,17.69l-2.8,1.38.82,1.3a.27.27,0,0,0,.23.13h4.53a.27.27,0,0,0,.23-.13L19.93,19l-2.78-1.33A1.24,1.24,0,0,0,16.09,17.69Z" transform="translate(0 0)"/><circle class="cls-3" cx="16.47" cy="5.83" r="0.27"/></g></svg>