<svg xmlns="http://www.w3.org/2000/svg" width="26" height="32" viewBox="0 0 26 32"><defs><style>.cls-1,.cls-3{fill:#0068b8;}.cls-1{fill-rule:evenodd;}.cls-2{fill:#fff;}</style></defs><title>smallcity</title><g id="bk"><path class="cls-1" d="M13,0a13,13,0,0,1,10.08,21.2C20.7,24.13,13,32,13,32S5.24,24.1,2.86,21.14A13,13,0,0,1,13,0Z" transform="translate(0 0)"/><circle class="cls-2" cx="13" cy="13" r="11"/></g><g id="smallcity"><path class="cls-3" d="M16.53,9l-1.88,1.65-5-4.53L4,11.12s.35.64,1.11,0L9.65,7.27l4.26,3.82.15.09-.58.51v-.25L9.62,8,5.51,11.44v4.31a.23.23,0,0,0,.23.25h2.8v-2.3s0-.38.33-.38H10a.36.36,0,0,1,.41.38V16h1.94v2.63a.23.23,0,0,0,.23.25h2.8v-2.3s0-.38.33-.38h1.16a.36.36,0,0,1,.41.38v2.29h2.74a.29.29,0,0,0,.29-.31V14.31L16.5,10.87l-3,2.52v-.67l3-2.57L20.79,14c.88.63,1.21,0,1.21,0Z" transform="translate(0 0)"/><polygon class="cls-3" points="20.69 12.39 20.69 10.13 19.59 10.13 19.59 11.46 20.69 12.39"/><polygon class="cls-3" points="13.81 9.52 13.81 7.26 12.71 7.26 12.72 8.59 13.81 9.52"/></g></svg>