<svg xmlns="http://www.w3.org/2000/svg" width="26" height="32" viewBox="0 0 26 32"><defs><style>.cls-1,.cls-3{fill:#0068b8;}.cls-1{fill-rule:evenodd;}.cls-2{fill:#fff;}</style></defs><title>spa</title><g id="bk"><path class="cls-1" d="M13,0a13,13,0,0,1,10.08,21.2C20.7,24.13,13,32,13,32S5.24,24.1,2.86,21.14A13,13,0,0,1,13,0Z" transform="translate(0 0)"/><circle class="cls-2" cx="13" cy="13" r="11"/></g><g id="spa"><path class="cls-3" d="M6,9.5A6,6,0,0,0,9,12.77a3.15,3.15,0,0,0,.52.16,5.35,5.35,0,0,1,1.28-1.35,6.42,6.42,0,0,1,1.32-.75,3.73,3.73,0,0,0-.41-.25c-.57-.3-1.19-.56-1.8-.85.57.15,1.22.21,1.76.41a4.09,4.09,0,0,1,.94.5,13.05,13.05,0,0,1,2.68-.55A7.33,7.33,0,0,0,11.8,7.45a16.23,16.23,0,0,0-4-.66A6.82,6.82,0,0,1,5.38,6a.18.18,0,0,0-.26.22A33.65,33.65,0,0,0,6,9.5Z" transform="translate(0 0)"/><path class="cls-3" d="M20.54,9.34a13.56,13.56,0,0,1-5.06,1.14,14.22,14.22,0,0,0-2.49.46l-.52.18a6.09,6.09,0,0,0-1.45.78A4.92,4.92,0,0,0,9.94,13a8.48,8.48,0,0,0-1.08,2.21,12.61,12.61,0,0,0-.68,4.47,8.6,8.6,0,0,0,.18,1.85.83.83,0,0,0,.17.4.2.2,0,0,0,.32-.19,6.39,6.39,0,0,1,.39-4.14,5.24,5.24,0,0,1,3.27-2.85c.39-.14.78-.26,1.19-.38h0a.08.08,0,0,1,0,.16c-.47.21-.94.43-1.39.66C10.17,16.34,9.22,19,10,19a.62.62,0,0,0,.24-.06,21.1,21.1,0,0,1,4.17-.79,6.93,6.93,0,0,0,1.42-.4,7.26,7.26,0,0,0,3.81-3.94,43.55,43.55,0,0,0,1.21-4.2.24.24,0,0,0-.22-.32A.22.22,0,0,0,20.54,9.34Z" transform="translate(0 0)"/></g></svg>