<svg xmlns="http://www.w3.org/2000/svg" width="26" height="32" viewBox="0 0 26 32"><defs><style>.cls-1,.cls-3{fill:#0068b8;}.cls-1{fill-rule:evenodd;}.cls-2{fill:#fff;}</style></defs><title>stadium</title><g id="bk"><path class="cls-1" d="M13,0a13,13,0,0,1,10.08,21.2C20.7,24.13,13,32,13,32S5.24,24.1,2.86,21.14A13,13,0,0,1,13,0Z" transform="translate(0 0)"/><circle class="cls-2" cx="13" cy="13" r="11"/></g><g id="stadium"><path class="cls-3" d="M20.87,8.44l-1.33-1a.33.33,0,0,0-.53.27v3a19.93,19.93,0,0,0-4.13-.58l-.12-.06a.33.33,0,0,0-.26,0c-.64,0-1.17,0-1.49,0V9.21l1.2-.9a.33.33,0,0,0,0-.53l-1.33-1a.33.33,0,0,0-.53.27v3c-.33,0-.86,0-1.49,0a.33.33,0,0,0-.38,0,15.26,15.26,0,0,0-4.8.84V9.88L6.87,9a.33.33,0,0,0,0-.53l-1.33-1A.33.33,0,0,0,5,7.71v4l.66,6c0,1,2.63,1.42,4.67,1.57V17a1,1,0,0,1,1-1H14a1,1,0,0,1,1,1v2.24c2-.15,4.67-.53,4.67-1.54l.66-5.95h0v-.08c0-.31-.25-.55-.67-.76V9.88l1.2-.9a.33.33,0,0,0,0-.53ZM5.68,11.71A3,3,0,0,1,7,11.2l0,.05L8,12.4A5,5,0,0,1,5.68,11.71Zm3.25.81,0,0L7.77,11.06a25.2,25.2,0,0,1,2.66-.29l.52,1.9C10.2,12.64,9.53,12.59,8.93,12.52Zm4.76.18h-2l-.53-2q.73,0,1.56,0t1.56,0Zm2.72-.18-.25,0-.28,0-.33,0-.35,0-.3,0-.42,0h-.09l.52-1.9a26.5,26.5,0,0,1,2.66.28l-1.14,1.42Zm3.26-.84h0l0,0,0,0-.05,0-.07,0-.07,0-.1,0-.09,0-.13,0L19,12l-.16.05-.13,0-.19.05-.14,0-.23.05-.16,0-.26,0-.2,0-.16,0,.92-1.14a.33.33,0,0,0,0-.06A3,3,0,0,1,19.67,11.68Z" transform="translate(0 0)"/></g></svg>