<svg xmlns="http://www.w3.org/2000/svg" width="26" height="32" viewBox="0 0 26 32"><defs><style>.cls-1,.cls-3{fill:#0068b8;}.cls-1{fill-rule:evenodd;}.cls-2{fill:#fff;}</style></defs><title>statue-2</title><g id="bk"><path class="cls-1" d="M13,0a13,13,0,0,1,10.08,21.2C20.7,24.13,13,32,13,32S5.24,24.1,2.86,21.14A13,13,0,0,1,13,0Z" transform="translate(0 0)"/><circle class="cls-2" cx="13" cy="13" r="11"/></g><g id="statue-2"><path class="cls-3" d="M17,15.41h0a2.6,2.6,0,0,0,.53-1.57v-1a2.63,2.63,0,0,0-.05-.52h1.1a.52.52,0,1,0,0-1H16.95a2.64,2.64,0,0,0-.4-.43l1.27-1.27a.52.52,0,1,0-.74-.74l-1.5,1.5-.2-.05V8.08a.52.52,0,1,0-1,0v2.15l-.2.05-1.5-1.5a.52.52,0,1,0-.74.74l1.27,1.27a2.64,2.64,0,0,0-.4.43H11.19a.52.52,0,1,0,0,1h1.1a2.62,2.62,0,0,0-.05.52v1a2.6,2.6,0,0,0,.53,1.57h-.53a2.62,2.62,0,0,1-2.62-2.62,1.56,1.56,0,0,0-.41-1,1.52,1.52,0,0,0,.31-1.57h.62a.52.52,0,0,0,0-1H9.33a2.46,2.46,0,0,0-.81-3,2.14,2.14,0,0,1-.68-.81.46.46,0,0,0-.88,0A1.84,1.84,0,0,0,7,6.59c.15.43.17.5-.22,1.15A1.42,1.42,0,0,0,6.6,9.13H6a.52.52,0,1,0,0,1h.62a1.52,1.52,0,0,0,.31,1.57,1.56,1.56,0,0,0-.41,1,6.54,6.54,0,0,0,2.93,4.94,2.75,2.75,0,0,1,1.26,2.31v.43a.52.52,0,0,0,.52.52H19a.52.52,0,0,0,.52-.52V18A2.62,2.62,0,0,0,17,15.41ZM8.09,9.13h-.4a.73.73,0,0,1-.15-.19c-.18-.3-.15-.36.08-.73a2.29,2.29,0,0,0,.45-1.26C9,7.84,8.68,8.87,8.09,9.13ZM16.43,20H13.68l2.75-2.75Zm0-6.11a1.57,1.57,0,0,1-3.14,0v-.52h.52a1.56,1.56,0,0,0,1-.41,1.56,1.56,0,0,0,1,.41h.52v.52Z" transform="translate(0 0)"/></g></svg>