<svg xmlns="http://www.w3.org/2000/svg" width="26" height="32" viewBox="0 0 26 32"><defs><style>.cls-1,.cls-3{fill:#0068b8;}.cls-1{fill-rule:evenodd;}.cls-2{fill:#fff;}</style></defs><title>steamtrain</title><g id="bk"><path class="cls-1" d="M13,0a13,13,0,0,1,10.08,21.2C20.7,24.13,13,32,13,32S5.24,24.1,2.86,21.14A13,13,0,0,1,13,0Z" transform="translate(0 0)"/><circle class="cls-2" cx="13" cy="13" r="11"/></g><g id="steamtrain"><path class="cls-3" d="M8.92,16.91a1.47,1.47,0,1,0,1.47,1.47A1.47,1.47,0,0,0,8.92,16.91Z" transform="translate(0 0)"/><path class="cls-3" d="M12.84,16.91a1.47,1.47,0,1,0,1.47,1.47A1.47,1.47,0,0,0,12.84,16.91Z" transform="translate(0 0)"/><path class="cls-3" d="M17.08,16.91a1.47,1.47,0,1,0,1.47,1.47A1.47,1.47,0,0,0,17.08,16.91Z" transform="translate(0 0)"/><path class="cls-3" d="M14.23,6.38a.49.49,0,0,0-.42-.23H6a.49.49,0,0,0-.44.71l.62,1.25h7.45l.62-1.25A.49.49,0,0,0,14.23,6.38Z" transform="translate(0 0)"/><path class="cls-3" d="M19,8.11H15.12a.49.49,0,0,0,0,1h.49v1h2.93v-1H19a.49.49,0,0,0,0-1Z" transform="translate(0 0)"/><path class="cls-3" d="M19.51,11.41A.49.49,0,0,0,19,11H13.33v-2H6.48V14H20.15Zm-8.14,1.1a.49.49,0,0,1-.49.49h-2a.49.49,0,0,1-.49-.49v-2a.49.49,0,0,1,.49-.49h2a.49.49,0,0,1,.49.49Zm6.36.49h-1.3a.49.49,0,0,1,0-1h1.3a.49.49,0,0,1,0,1Z" transform="translate(0 0)"/><path class="cls-3" d="M20,15H7a.49.49,0,0,0-.49.49v2.42a0,0,0,0,0,.05,0,2.44,2.44,0,0,1,4.35-1,2.44,2.44,0,0,1,4.08.25,2.44,2.44,0,0,1,4.52,1.7H20a.49.49,0,0,0,.49-.49V15.45A.49.49,0,0,0,20,15Z" transform="translate(0 0)"/></g></svg>