<svg xmlns="http://www.w3.org/2000/svg" width="26" height="32" viewBox="0 0 26 32"><defs><style>.cls-1,.cls-3{fill:#0068b8;}.cls-1{fill-rule:evenodd;}.cls-2{fill:#fff;}</style></defs><title>swimming</title><g id="bk"><path class="cls-1" d="M13,0a13,13,0,0,1,10.08,21.2C20.7,24.13,13,32,13,32S5.24,24.1,2.86,21.14A13,13,0,0,1,13,0Z" transform="translate(0 0)"/><circle class="cls-2" cx="13" cy="13" r="11"/></g><g id="swimming"><path class="cls-3" d="M7,10l3.7.48c.13.33.78,1.94.9,2.23h0L8.42,14.29a6.28,6.28,0,0,1,1.13-.1,5.91,5.91,0,0,1,1.45.18,15.7,15.7,0,0,1,2.6,1,13.67,13.67,0,0,0,2.11.82l.28.07c-.82-1.67-3-6.17-3.44-7.17a1,1,0,0,0-.88-.69L7.31,7.82A1.1,1.1,0,1,0,7,10Z" transform="translate(0 0)"/><path class="cls-3" d="M5.28,17.8a.67.67,0,0,0,.4.13h.09a.68.68,0,0,0,.46-.28,3.86,3.86,0,0,1,1.92-1.36,4.46,4.46,0,0,1,1.4-.23c1.69,0,3.15,1,4.68,1.6a7.24,7.24,0,0,0,2.6.54A5.57,5.57,0,0,0,18,18.06a4.68,4.68,0,0,0,2.45-1.34,3.88,3.88,0,0,0,.4-.5.68.68,0,0,0-.19-.94.67.67,0,0,0-.37-.11.68.68,0,0,0-.57.3l-.17.23a3.27,3.27,0,0,1-1.83,1,4.79,4.79,0,0,1-2.18-.07,14.08,14.08,0,0,1-2.19-.85,15.51,15.51,0,0,0-2.52-1,5.33,5.33,0,0,0-1.32-.16,5.83,5.83,0,0,0-1.83.3,5.51,5.51,0,0,0-1.43.72,4.88,4.88,0,0,0-1.16,1.14l-.05.09A.68.68,0,0,0,5.28,17.8Z" transform="translate(0 0)"/><circle class="cls-3" cx="17.59" cy="12.24" r="2.4"/></g></svg>