<svg xmlns="http://www.w3.org/2000/svg" width="26" height="32" viewBox="0 0 26 32"><defs><style>.cls-1,.cls-3{fill:#0068b8;}.cls-1{fill-rule:evenodd;}.cls-2{fill:#fff;}</style></defs><title>synagogue</title><g id="bk"><path class="cls-1" d="M13,0a13,13,0,0,1,10.08,21.2C20.7,24.13,13,32,13,32S5.24,24.1,2.86,21.14A13,13,0,0,1,13,0Z" transform="translate(0 0)"/><circle class="cls-2" cx="13" cy="13" r="11"/></g><g id="synagogue"><path class="cls-3" d="M15.28,8.95,13,5,10.73,8.95H6L8.39,13,6,17.05h4.68L13,21l2.27-3.95H20L17.61,13,20,8.95Zm-6,6.22L10,14l.68,1.18ZM10,12l-.68-1.18h1.36Zm3-3.27.63,1.1H12.37Zm0,8.52-.63-1.1h1.27Zm.73-2.88H12.27L11.47,13l.8-1.38h1.46l.8,1.38Zm1.62.79L16,14l.68,1.18ZM16,12l-.68-1.18h1.36Z" transform="translate(0 0)"/></g></svg>