<svg xmlns="http://www.w3.org/2000/svg" width="26" height="32" viewBox="0 0 26 32"><defs><style>.cls-1,.cls-3{fill:#0068b8;}.cls-1{fill-rule:evenodd;}.cls-2{fill:#fff;}</style></defs><title>theater</title><g id="bk"><path class="cls-1" d="M13,0a13,13,0,0,1,10.08,21.2C20.7,24.13,13,32,13,32S5.24,24.1,2.86,21.14A13,13,0,0,1,13,0Z" transform="translate(0 0)"/><circle class="cls-2" cx="13" cy="13" r="11"/></g><g id="theater"><path class="cls-3" d="M15.72,5.82c-4.81,0-4.78,1-4.78,1V9.41a9.47,9.47,0,0,0,1.9-.34,2.58,2.58,0,0,0,.87-.4.44.44,0,0,1,.35-.16l.17,0a.48.48,0,0,1,.31.46v3.82a2.69,2.69,0,0,1,1.21-.28l.41,0a3,3,0,0,1,.44.11,2.64,2.64,0,0,1,.8.44,2.36,2.36,0,0,1,.9,1.52.12.12,0,0,1-.17.14,6.28,6.28,0,0,0-1.23-.18l-.59,0h-.6c-.34,0-.75,0-1.15,0h0a6.76,6.76,0,0,1-.65,2.91,4.17,4.17,0,0,0,1.84.43c2.64,0,4.78-2.5,4.78-5.59V6.77S20.53,5.82,15.72,5.82ZM18.88,11A1.46,1.46,0,0,1,16.83,9a.17.17,0,0,1,.26,0l1.8,1.8A.17.17,0,0,1,18.88,11Z" transform="translate(0 0)"/><path class="cls-3" d="M14.06,9s-.87,1-4.78,1S4.5,9,4.5,9v5.59c0,3.09,2.14,5.59,4.78,5.59s4.78-2.5,4.78-5.59V9ZM6,14a.17.17,0,0,1-.18-.19,1.46,1.46,0,0,1,2.9,0,.17.17,0,0,1-.18.19Zm5.83,1.89a2.37,2.37,0,0,1-.9,1.52A2.69,2.69,0,0,1,9.26,18l-.41,0a2.76,2.76,0,0,1-.44-.11,2.67,2.67,0,0,1-.8-.43,2.36,2.36,0,0,1-.9-1.53.12.12,0,0,1,.17-.14A6.14,6.14,0,0,0,8.11,16l.59,0h.6c.34,0,.75,0,1.15,0a6,6,0,0,0,1.23-.18A.12.12,0,0,1,11.85,15.93Zm.7-1.89H10a.17.17,0,0,1-.18-.19,1.46,1.46,0,0,1,2.9,0A.17.17,0,0,1,12.54,14Z" transform="translate(0 0)"/></g></svg>