<svg xmlns="http://www.w3.org/2000/svg" width="26" height="32" viewBox="0 0 26 32"><defs><style>.cls-1,.cls-3{fill:#0068b8;}.cls-1{fill-rule:evenodd;}.cls-2{fill:#fff;}</style></defs><title>theravadapagoda</title><g id="bk"><path class="cls-1" d="M13,0a13,13,0,0,1,10.08,21.2C20.7,24.13,13,32,13,32S5.24,24.1,2.86,21.14A13,13,0,0,1,13,0Z" transform="translate(0 0)"/><circle class="cls-2" cx="13" cy="13" r="11"/></g><g id="theravadapagoda"><g id="Layer_5" data-name="Layer 5"><path class="cls-3" d="M20.76,17.32l-2-1a3.37,3.37,0,0,1-1.29-1.22,1.68,1.68,0,0,0-1.4-.76H9.83a1.85,1.85,0,0,0-1.47.81A3.81,3.81,0,0,1,7,16.42l-1.77.9c-.49.25-.45.5.1.56l2,.21a.19.19,0,0,1,.17.19v2.66a.06.06,0,0,0,.06.06h.88a.06.06,0,0,0,.06-.06V19.32a.06.06,0,0,1,.06-.06h2a.06.06,0,0,1,.06.06v1.62a.06.06,0,0,0,.06.06H12a.06.06,0,0,0,.06-.06V19.32a.06.06,0,0,1,.06-.06h2a.06.06,0,0,1,.06.06v1.62a.06.06,0,0,0,.06.06h1.19a.06.06,0,0,0,.06-.06V19.32a.06.06,0,0,1,.06-.06h2a.06.06,0,0,1,.06.06v1.62a.06.06,0,0,0,.06.06h.77a.06.06,0,0,0,.06-.06V18.23a.13.13,0,0,1,.12-.13l2-.22C21.21,17.83,21.25,17.57,20.76,17.32Z" transform="translate(0 0)"/><path class="cls-3" d="M18.16,11.25l-1.3-.66A2.24,2.24,0,0,1,16,9.78a1.12,1.12,0,0,0-.93-.51H10.9a1.23,1.23,0,0,0-1,.54,2.53,2.53,0,0,1-.9.84l-1.18.6c-.33.17-.3.34.07.37l1.31.14a.13.13,0,0,1,.11.13v1.77a0,0,0,0,0,0,0H10a0,0,0,0,0,0,0V12.57a0,0,0,0,1,0,0h1.34a0,0,0,0,1,0,0v1.08a0,0,0,0,0,0,0h.87a0,0,0,0,0,0,0V12.57a0,0,0,0,1,0,0h1.34a0,0,0,0,1,0,0v1.08a0,0,0,0,0,0,0h.79a0,0,0,0,0,0,0V12.57a0,0,0,0,1,0,0H16a0,0,0,0,1,0,0v1.08a0,0,0,0,0,0,0h.51a0,0,0,0,0,0,0v-1.8a.08.08,0,0,1,.08-.09l1.35-.14C18.45,11.58,18.48,11.41,18.16,11.25Z" transform="translate(0 0)"/><path class="cls-3" d="M16.5,7.11l-.88-.45a1.84,1.84,0,0,1-.22-.12c-.56-.42-2-1.93-2-1.93s-.08-.05-.08-.11V3.17A.17.17,0,0,0,13.12,3h-.25a.17.17,0,0,0-.17.17V4.48c0,.05-.06.1-.06.1s-1.48,1.54-2,2a1.51,1.51,0,0,1-.3.16l-.8.41c-.22.11-.2.23,0,.25l.89.09a.09.09,0,0,1,.08.09v1.2a0,0,0,0,0,0,0h.4a0,0,0,0,0,0,0V8a0,0,0,0,1,0,0h.91a0,0,0,0,1,0,0v.73a0,0,0,0,0,0,0h.59a0,0,0,0,0,0,0V8a0,0,0,0,1,0,0h.91a0,0,0,0,1,0,0v.73a0,0,0,0,0,0,0h.54a0,0,0,0,0,0,0V8a0,0,0,0,1,0,0h.91a0,0,0,0,1,0,0v.73a0,0,0,0,0,0,0h.35a0,0,0,0,0,0,0V7.52a.06.06,0,0,1,.05-.06l.91-.1C16.7,7.34,16.72,7.23,16.5,7.11Z" transform="translate(0 0)"/></g></g></svg>