<svg xmlns="http://www.w3.org/2000/svg" width="26" height="32" viewBox="0 0 26 32"><defs><style>.cls-1,.cls-3{fill:#0068b8;}.cls-1{fill-rule:evenodd;}.cls-2{fill:#fff;}</style></defs><title>tower</title><g id="bk"><path class="cls-1" d="M13,0a13,13,0,0,1,10.08,21.2C20.7,24.13,13,32,13,32S5.24,24.1,2.86,21.14A13,13,0,0,1,13,0Z" transform="translate(0 0)"/><circle class="cls-2" cx="13" cy="13" r="11"/></g><g id="tower"><path class="cls-3" d="M17.79,10.07l1.56-2.49a.6.6,0,0,0,.09-.32V5.59A.59.59,0,0,0,18.84,5H17.26a.6.6,0,0,0-.61.59v.89a.24.24,0,0,1-.24.25h-1.6a.25.25,0,0,1-.25-.25V5.59A.59.59,0,0,0,14,5H12a.59.59,0,0,0-.6.59v.89a.25.25,0,0,1-.25.25H9.59a.24.24,0,0,1-.24-.25V5.59A.6.6,0,0,0,8.74,5H7.16a.59.59,0,0,0-.59.59V7.26a.6.6,0,0,0,.09.32l1.56,2.49a.6.6,0,0,1,.09.32v6.8A.6.6,0,0,1,8,17.7l-1.15.69a.6.6,0,0,0-.29.52v1.5a.59.59,0,0,0,.59.59H18.84a.59.59,0,0,0,.59-.59v-1.5a.6.6,0,0,0-.29-.52L18,17.7a.6.6,0,0,1-.29-.52v-6.8A.6.6,0,0,1,17.79,10.07ZM14.57,13.6a.45.45,0,0,1-.44.45H11.88a.45.45,0,0,1-.44-.45V11.67A1.54,1.54,0,0,1,13,10.13H13a1.54,1.54,0,0,1,1.54,1.54Z" transform="translate(0 0)"/></g></svg>