<svg xmlns="http://www.w3.org/2000/svg" width="26" height="32" viewBox="0 0 26 32"><defs><style>.cls-1,.cls-3{fill:#0068b8;}.cls-1{fill-rule:evenodd;}.cls-2{fill:#fff;}</style></defs><title>underground</title><g id="bk"><path class="cls-1" d="M13,0a13,13,0,0,1,10.08,21.2C20.7,24.13,13,32,13,32S5.24,24.1,2.86,21.14A13,13,0,0,1,13,0Z" transform="translate(0 0)"/><circle class="cls-2" cx="13" cy="13" r="11"/></g><g id="underground"><path class="cls-3" d="M18.64,6.34A7.71,7.71,0,0,0,13,4,7.66,7.66,0,0,0,7.34,6.34,7.7,7.7,0,0,0,5,12l.06,8H6.89V12A6.09,6.09,0,0,1,8.66,7.58,5.78,5.78,0,0,1,13,5.75a5.78,5.78,0,0,1,4.33,1.83A6.13,6.13,0,0,1,19.08,12v8H21V12A7.67,7.67,0,0,0,18.64,6.34Z" transform="translate(0 0)"/><path class="cls-3" d="M15.58,17l0,0a3.26,3.26,0,0,0,.75-.41,1.41,1.41,0,0,0,.47-1V8.91a1.11,1.11,0,0,0-.12-.5A2.46,2.46,0,0,0,16.36,8a2.1,2.1,0,0,0-.47-.34,1.26,1.26,0,0,0-.5-.09H10.61a1.26,1.26,0,0,0-.5.09A3,3,0,0,0,9.63,8a1.79,1.79,0,0,0-.36.42,1.11,1.11,0,0,0-.12.5v6.78A.92.92,0,0,0,9.2,16a3.42,3.42,0,0,0,.22.34,1.37,1.37,0,0,0,.28.31l.28.22.25.09.14,0s0,0,0,0L8.45,20H9.58L11,18.09H15L16.39,20h1.13l-1.91-2.91ZM11.39,8.16a.32.32,0,0,1,.31-.31h2.56a.32.32,0,0,1,.31.31v.31a.34.34,0,0,1-.09.25.3.3,0,0,1-.22.09H11.7a.3.3,0,0,1-.22-.09.34.34,0,0,1-.09-.25ZM10.11,10V9.72a1.05,1.05,0,0,1,.16-.25q.19-.22.22-.22a.85.85,0,0,1,.28-.12H15.2l.25.09a1.13,1.13,0,0,1,.22.19l.16.22a.65.65,0,0,1,0,.25v1.53a.81.81,0,0,1,0,.25,2,2,0,0,1-.19.22l-.22.09a.65.65,0,0,1-.25,0H10.8l0,0,0,0,0,0,0,0a.67.67,0,0,1-.41-.25.68.68,0,0,1-.12-.44Zm1.22,5.89a.72.72,0,0,1-.55.23.67.67,0,0,1-.53-.23.81.81,0,0,1-.2-.55.75.75,0,0,1,.75-.75.75.75,0,0,1,.53.2.71.71,0,0,1,.22.55A.78.78,0,0,1,11.33,15.89Zm3.28,0a.8.8,0,0,1-.22-.56.67.67,0,0,1,.23-.53.81.81,0,0,1,.55-.2.75.75,0,0,1,.75.75.78.78,0,0,1-.22.55.76.76,0,0,1-1.09,0Z" transform="translate(0 0)"/></g></svg>