<svg xmlns="http://www.w3.org/2000/svg" width="26" height="32" viewBox="0 0 26 32"><defs><style>.cls-1,.cls-3{fill:#0068b8;}.cls-1{fill-rule:evenodd;}.cls-2{fill:#fff;}</style></defs><title>university</title><g id="bk"><path class="cls-1" d="M13,0a13,13,0,0,1,10.08,21.2C20.7,24.13,13,32,13,32S5.24,24.1,2.86,21.14A13,13,0,0,1,13,0Z" transform="translate(0 0)"/><circle class="cls-2" cx="13" cy="13" r="11"/></g><g id="university"><g id="Layer_5" data-name="Layer 5"><path class="cls-3" d="M14.09,15.79a2.21,2.21,0,0,1-2.18,0L7,12.76s-.45-.27-.45.35v3c0,1.59,2.9,3.31,6.48,3.31s6.48-1.72,6.48-3.31v-3.2c0-.5-.32-.25-.32-.25Z" transform="translate(0 0)"/><path class="cls-3" d="M21.22,10.35a.46.46,0,0,0,0-.85L13.69,5.74a1.45,1.45,0,0,0-1.38,0L4.78,9.5a.46.46,0,0,0,0,.85L12.31,15a1.45,1.45,0,0,0,1.38,0" transform="translate(0 0)"/><path class="cls-3" d="M20.9,17.19v-5.1s0-.24-.14-.16a4.16,4.16,0,0,0-.5.31.43.43,0,0,0-.09.32v4.63a.14.14,0,0,1-.08.11.88.88,0,1,0,.89,0A.13.13,0,0,1,20.9,17.19Z" transform="translate(0 0)"/></g></g></svg>