<svg xmlns="http://www.w3.org/2000/svg" width="26" height="32" viewBox="0 0 26 32"><defs><style>.cls-1,.cls-3{fill:#0068b8;}.cls-1{fill-rule:evenodd;}.cls-2{fill:#fff;}</style></defs><title>volcano-2</title><g id="bk"><path class="cls-1" d="M13,0a13,13,0,0,1,10.08,21.2C20.7,24.13,13,32,13,32S5.24,24.1,2.86,21.14A13,13,0,0,1,13,0Z" transform="translate(0 0)"/><circle class="cls-2" cx="13" cy="13" r="11"/></g><g id="volcano-2"><path class="cls-3" d="M14.26,9.44c.94.32,2.2.7,2.46-.82.21-1.19,1.79-.75,2.47-.82,1.22-.14.3-2.43-1.23-2.47S15.7,6,15.08,7.39c-.29.68-.55,1.19-1.64.82s-1.9.53-1.23,1.64a2.21,2.21,0,0,1,0,2.06h1.65a2.63,2.63,0,0,0-.41-1.23C13,9.95,13.29,9.11,14.26,9.44ZM5.5,19.67a14.39,14.39,0,0,0,5.31-7.38h4.37a14.39,14.39,0,0,0,5.31,7.38Z" transform="translate(0 0)"/></g></svg>