<svg xmlns="http://www.w3.org/2000/svg" width="26" height="32" viewBox="0 0 26 32"><defs><style>.cls-1,.cls-3{fill:#0068b8;}.cls-1{fill-rule:evenodd;}.cls-2{fill:#fff;}</style></defs><title>waterpark</title><g id="bk"><path class="cls-1" d="M13,0a13,13,0,0,1,10.08,21.2C20.7,24.13,13,32,13,32S5.24,24.1,2.86,21.14A13,13,0,0,1,13,0Z" transform="translate(0 0)"/><circle class="cls-2" cx="13" cy="13" r="11"/></g><g id="waterpark"><path class="cls-3" d="M16.95,4.56a.3.3,0,0,0-.1.46,1,1,0,0,0,.43.21A3,3,0,0,1,19.45,7a2.29,2.29,0,0,1,0,.92,2.39,2.39,0,0,1-.72,1.19,1.91,1.91,0,0,1-1.11.63c-.32.06-.41.13-.42.33a.22.22,0,0,0,.1.22.32.32,0,0,0,.28.09A2.29,2.29,0,0,0,18.74,10a4.4,4.4,0,0,0,.85-.85,2.75,2.75,0,0,0,.55-1.65c0-.4,0-.4.05-.28a2.53,2.53,0,0,1,.16.94,3.5,3.5,0,0,1-2.18,3.16,3.91,3.91,0,0,1-.56.21c-.31.08-.38.13-.42.28a.3.3,0,0,0,.13.35c.25.14,1.1-.17,1.8-.65a4,4,0,0,0,1.8-2.63A3.37,3.37,0,0,0,21,8.1a2.7,2.7,0,0,0-.25-1.28,4.4,4.4,0,0,0-3-2.19C17.2,4.51,17.07,4.5,16.95,4.56Z" transform="translate(0 0)"/><path class="cls-3" d="M8.65,5.51C6.37,5.78,4.91,7.06,5,8.73a3.18,3.18,0,0,0,.53,1.58,4.48,4.48,0,0,0,.82.81A6.12,6.12,0,0,0,8.53,12a9,9,0,0,0,1,.14c.08,0,.07,0-.11.13A20.41,20.41,0,0,1,5.78,14c-.61.22-.65.24-.71.37s0,.15,0,.48a3.51,3.51,0,0,0,2.17,3,4.25,4.25,0,0,0,3.2,0,15.35,15.35,0,0,0,1.79-1.13c2.94-2.07,4.49-4.15,4.61-6.2a3.81,3.81,0,0,0-1.25-3,8.34,8.34,0,0,0-1-.73l-.36-.19a9.72,9.72,0,0,0-3-1A12.82,12.82,0,0,0,8.65,5.51Zm1.5.63a9,9,0,0,1,2.7.53A2.23,2.23,0,0,1,14,8a2.31,2.31,0,0,1,0,.5,3.33,3.33,0,0,1-.64,1.84,12.2,12.2,0,0,1-6.29,4.2l-.74.26c-.33.17-.08.92.48,1.42A2.77,2.77,0,0,0,8.8,17a2.17,2.17,0,0,0,2-1.07l.17-.28.3-.15a9.68,9.68,0,0,0,3.4-3,6.4,6.4,0,0,0,1.25-3,.87.87,0,0,1,0-.28.85.85,0,0,1,.09.26,3.89,3.89,0,0,1,0,1.39c-.3,1.73-1.77,3.52-4.4,5.35a12.78,12.78,0,0,1-1.68,1,3.78,3.78,0,0,1-2.36,0,2.93,2.93,0,0,1-2-2.41l0-.18L6,14.56a21.72,21.72,0,0,0,2.91-1.3,14.34,14.34,0,0,0,3.34-2.38,4.64,4.64,0,0,0,1.19-1.71,2.11,2.11,0,0,0,.07-1.12,2.1,2.1,0,0,0-1.25-1.3,7.5,7.5,0,0,0-4.45-.3C6.59,6.84,6,7.91,6.44,8.9c.37.77,1.38,1.27,3.1,1.52.39.06,1.43.15,2,.17h.2l-.29.25-.59.48-.3.23-.44,0c-2-.08-3.49-.72-4.11-1.74a2.15,2.15,0,0,1-.3-1.08,1.67,1.67,0,0,1,.18-1,3.27,3.27,0,0,1,2.39-1.5A6.81,6.81,0,0,1,10.15,6.14Zm.2.79a3.91,3.91,0,0,1,2.14.69A1.13,1.13,0,0,1,13,8.5a2.36,2.36,0,0,1-.49,1.2l-.18.26-.67,0c-2.34-.07-3.78-.41-4.41-1.05a.83.83,0,0,1-.28-.66c0-.68.7-1.18,1.81-1.31A9.69,9.69,0,0,1,10.36,6.93Zm4.46.8a2.22,2.22,0,0,1,.48,1.91,5.15,5.15,0,0,1-.52,1.49A9.16,9.16,0,0,1,10.95,15a2.82,2.82,0,0,0-.43.24,2.55,2.55,0,0,0-.15.24,1.56,1.56,0,0,1-.86.81,2.49,2.49,0,0,1-1,.08,2.35,2.35,0,0,1-1.24-.63c-.21-.2-.34-.41-.28-.43l.58-.2A14.52,14.52,0,0,0,12.88,12a5.38,5.38,0,0,0,1.85-3.34,2.6,2.6,0,0,0-.13-1C14.53,7.44,14.56,7.44,14.82,7.73Z" transform="translate(0 0)"/><path class="cls-3" d="M14.72,15.49c-.23.08-.27.34-.07.54a3.1,3.1,0,0,0,1,.48,3.7,3.7,0,0,0,2.46-.22l.25-.12.24.12a3.37,3.37,0,0,0,2.05.27c.18,0,.36-.21.36-.33a.36.36,0,0,0-.17-.29c-.08,0-.1,0-.55,0a2.77,2.77,0,0,1-1.64-.38.4.4,0,0,0-.57,0,2.56,2.56,0,0,1-1.48.41,2.6,2.6,0,0,1-1.44-.37C14.9,15.46,14.85,15.44,14.72,15.49Z" transform="translate(0 0)"/><path class="cls-3" d="M14.5,17.53A2.39,2.39,0,0,1,13,17.9,2.61,2.61,0,0,1,12,17.73a.33.33,0,0,0-.36.07.3.3,0,0,0,0,.44,3,3,0,0,0,1.43.3,3.37,3.37,0,0,0,1.49-.32l.27-.13.2.1a3,3,0,0,0,1.42.33,3.17,3.17,0,0,0,1.67-.33l.23-.11.23.11a3.28,3.28,0,0,0,1.48.34q.95,0,.95-.42a.43.43,0,0,0-.3-.3l-.27,0a2.67,2.67,0,0,1-1.79-.36.71.71,0,0,0-.27-.12c-.1,0-.15,0-.32.11a2.2,2.2,0,0,1-.76.32A2.89,2.89,0,0,1,15,17.47C14.88,17.35,14.77,17.37,14.5,17.53Z" transform="translate(0 0)"/><path class="cls-3" d="M6.34,17.91a4.09,4.09,0,0,1-.69,0c-.44,0-.46,0-.54.07a.32.32,0,0,0,.1.52,4.41,4.41,0,0,0,1.3,0c.37-.07.49-.18.44-.43S6.73,17.83,6.34,17.91Z" transform="translate(0 0)"/><path class="cls-3" d="M7.68,19.32a1.06,1.06,0,0,0-.21.12,2.08,2.08,0,0,1-.38.19,3,3,0,0,1-1.24.19c-.47,0-.53,0-.6.06a.3.3,0,0,0,0,.49.83.83,0,0,0,.43.09,3.69,3.69,0,0,0,1.91-.36L7.77,20l.21.11a3.57,3.57,0,0,0,3,0l.29-.13.13.08a3.64,3.64,0,0,0,3.13,0l.25-.12.28.13a3.59,3.59,0,0,0,3,0l.24-.12.24.12a3.13,3.13,0,0,0,1.48.33c.47,0,.71-.06.85-.21a.26.26,0,0,0,0-.33.3.3,0,0,0-.35-.15,3.69,3.69,0,0,1-1.08,0,2.6,2.6,0,0,1-.88-.35.42.42,0,0,0-.58,0,2.65,2.65,0,0,1-1.48.39A2.83,2.83,0,0,1,15,19.37c-.17-.09-.26-.08-.46.05a2.43,2.43,0,0,1-1.34.39,2.63,2.63,0,0,1-1.58-.37c-.31-.19-.34-.19-.67,0a2.53,2.53,0,0,1-1.41.37,2.61,2.61,0,0,1-1.44-.38C7.9,19.32,7.8,19.29,7.68,19.32Z" transform="translate(0 0)"/></g></svg>