<svg xmlns="http://www.w3.org/2000/svg" width="26" height="32" viewBox="0 0 26 32"><defs><style>.cls-1,.cls-3{fill:#0068b8;}.cls-1{fill-rule:evenodd;}.cls-2{fill:#fff;}</style></defs><title>watermill-2</title><g id="bk"><path class="cls-1" d="M13,0a13,13,0,0,1,10.08,21.2C20.7,24.13,13,32,13,32S5.24,24.1,2.86,21.14A13,13,0,0,1,13,0Z" transform="translate(0 0)"/><circle class="cls-2" cx="13" cy="13" r="11"/></g><g id="watermill"><path class="cls-3" d="M15.48,14.3,13,11.23,10.52,14.3,9,20.43a.47.47,0,0,0,.08.39.46.46,0,0,0,.35.18h2.47V19.25a1.06,1.06,0,1,1,2.12,0V21h2.48a.46.46,0,0,0,.43-.57Z" transform="translate(0 0)"/><path class="cls-3" d="M10,13.75l2.56-3.19A1.13,1.13,0,0,1,12,9.9L8.76,12.47A.91.91,0,1,0,10,13.75Z" transform="translate(0 0)"/><path class="cls-3" d="M14,9.9a1.12,1.12,0,0,1-.66.66L16,13.75a.91.91,0,0,0,1.29-1.29Z" transform="translate(0 0)"/><path class="cls-3" d="M12,9.12a1.13,1.13,0,0,1,.66-.66L10,5.27A.91.91,0,0,0,8.76,6.55Z" transform="translate(0 0)"/><path class="cls-3" d="M14,9.12l3.19-2.56A.91.91,0,1,0,16,5.27L13.39,8.46A1.13,1.13,0,0,1,14,9.12Z" transform="translate(0 0)"/><circle class="cls-3" cx="13" cy="9.51" r="0.76"/></g></svg>