<svg xmlns="http://www.w3.org/2000/svg" width="26" height="32" viewBox="0 0 26 32"><defs><style>.cls-1,.cls-3{fill:#0068b8;}.cls-1{fill-rule:evenodd;}.cls-2{fill:#fff;}</style></defs><title>zoo</title><g id="bk"><path class="cls-1" d="M13,0a13,13,0,0,1,10.08,21.2C20.7,24.13,13,32,13,32S5.24,24.1,2.86,21.14A13,13,0,0,1,13,0Z" transform="translate(0 0)"/><circle class="cls-2" cx="13" cy="13" r="11"/></g><g id="zoo"><path class="cls-3" d="M16.67,16.56a7.28,7.28,0,0,1-1.47-3.89,3.41,3.41,0,0,0-.31-.26l-.08-.06a1.84,1.84,0,0,0-.35-.19,3.26,3.26,0,0,0-1.17-.23,2.2,2.2,0,0,0-1.49.55l-.2.18c-.15.15-.2.22-.33.35l0,.06A11.35,11.35,0,0,1,9.72,16.2c-1,1.31-2.25,1.81-2.25,2.15a2.6,2.6,0,0,0,.23,1.24A2.23,2.23,0,0,0,7.9,20a3.07,3.07,0,0,0,.27.32,1.64,1.64,0,0,0,.31.27,1.92,1.92,0,0,0,.27.17l0,0a1.72,1.72,0,0,0,.49.18l.54.06H10a10.58,10.58,0,0,0,1.95-.42l.41-.1.91-.11a6.63,6.63,0,0,1,1.73.28,7.66,7.66,0,0,0,1.66.35h.28a2.37,2.37,0,0,0,1.39-.54,2.42,2.42,0,0,0,.92-1.59C19.37,18,18.07,18.31,16.67,16.56Z" transform="translate(0 0)"/><path class="cls-3" d="M20.38,11.29a1,1,0,0,0,.17-.88.89.89,0,0,0-.32-.49,2.33,2.33,0,0,0-.25.47,3.48,3.48,0,0,0-.14.38c0,.08,0,.17-.07.25-.72,0-1.55.84-1.9,1.64a1.69,1.69,0,0,0,.67,2.28,1.69,1.69,0,0,0,2.12-1.07A2.66,2.66,0,0,0,20.38,11.29Z" transform="translate(0 0)"/><path class="cls-3" d="M15.46,11.34a2.1,2.1,0,0,0,2.31-1.81,3.37,3.37,0,0,0-.9-3,1,1,0,0,0,.08-.16,1,1,0,0,0,0-.57.88.88,0,0,0-.32-.49,2.32,2.32,0,0,0-.25.47,3.48,3.48,0,0,0-.14.38l0,.12c-1,0-1.89,1.33-2.13,2.47A2.1,2.1,0,0,0,15.46,11.34Z" transform="translate(0 0)"/><path class="cls-3" d="M10.94,11.41a2.23,2.23,0,0,0,1.81-2.56C12.65,7.59,11.58,6,10.52,6l0-.11a3.14,3.14,0,0,0-.14-.38A2.28,2.28,0,0,0,10.1,5a.89.89,0,0,0-.32.49,1,1,0,0,0,0,.57l0,.09a3.59,3.59,0,0,0-1.09,3A2.23,2.23,0,0,0,10.94,11.41Z" transform="translate(0 0)"/><path class="cls-3" d="M8.65,12.52c-.27-1.07-1.4-2.24-2.32-2.18l0-.11a3.26,3.26,0,0,0-.14-.38,2.42,2.42,0,0,0-.25-.47.89.89,0,0,0-.32.49,1,1,0,0,0,0,.57,1,1,0,0,0,.09.2,3.22,3.22,0,0,0-.47,2.75A2,2,0,0,0,7.46,15,2,2,0,0,0,8.65,12.52Z" transform="translate(0 0)"/></g></svg>