<?xml version="1.0" encoding="utf-8"?>
<!-- Generator: Adobe Illustrator 21.0.0, SVG Export Plug-In . SVG Version: 6.00 Build 0)  -->
<svg version="1.1" id="Layer_1" xmlns="http://www.w3.org/2000/svg" xmlns:xlink="http://www.w3.org/1999/xlink" x="0px" y="0px"
	 width="250px" height="70px" viewBox="0 0 250 70" style="enable-background:new 0 0 250 70;" xml:space="preserve">
<style type="text/css">
	.st0{fill-rule:evenodd;clip-rule:evenodd;fill:#FFFFFF;}
	.st1{fill-rule:evenodd;clip-rule:evenodd;fill:url(#SVGID_1_);}
	.st2{fill-rule:evenodd;clip-rule:evenodd;fill:#FFA300;}
	.st3{fill-rule:evenodd;clip-rule:evenodd;fill:#0068B0;}
</style>
<g>
	<path class="st0" d="M65.4,70H4.6C2.1,70,0,67.9,0,65.4V4.6C0,2.1,2.1,0,4.6,0h60.8C67.9,0,70,2.1,70,4.6v60.8
		C70,67.9,67.9,70,65.4,70z"/>
	<linearGradient id="SVGID_1_" gradientUnits="userSpaceOnUse" x1="31.998" y1="-2.1299" x2="37.0706" y2="55.8497">
		<stop  offset="0" style="stop-color:#0068B0"/>
		<stop  offset="0.4901" style="stop-color:#3C94CC"/>
		<stop  offset="1" style="stop-color:#9EE0F8"/>
	</linearGradient>
	<path class="st1" d="M5.3,0h38.9c-6.8,2-4.1,11-3.2,14.2c-2.8-3.1-7.5-4.5-9.5-3.5c0.2-0.8,0.4-1.3,0.5-2.2
		c-1.3-1.1-4.3-0.8-5.5-0.3c-5.3,2.5-5.9,12.3-2.1,14c-0.8-5.1,1.5-6.9,2.7-7.7c0.1,1.2,0.1,1.4,0.2,2.1c1.2,0,3,0.1,4.1,0.1
		c0.2-0.9,1-1.6,1.5-1.8c-0.3,1.1-0.3,1.6-0.2,2.4c1.3,0.1,3.5,0.1,6.3,1C12,24.9,23.4,41,27.4,40.7c-0.6-2.4-0.6-6.3-0.3-7.3
		c0.4,0.8,0.9,1.7,1.4,2.3c0.2-0.5,1.1-2,1.5-3c-1-2.3-0.8-4.6,0-6c-0.1,2,0.6,3.4,1.3,4.4c2.6-2.8,4.3-5.6,8.1-7.9
		c-8.1,13.3,1.1,21.1,12.7,20.9c-1.6-1.9-2.9-3-3.8-5c-1.5,0.1-3,0-5.3-1.9c2.1,0.1,2.6,0.4,4.9,0.2c-0.9-1.6-1.2-2.8-1.5-3.3
		c-2.5-0.4-3.4-0.8-4.9-1.7c2,0.1,3.3-0.1,3.9-0.3c-0.5-2.3-1-6.5-0.1-8.4c6.8,7.4,9.9,15.5,11.2,22.5c-16.6,2.4-24.5,6.8-31.7,10.3
		c-8.9,4.4-12.8-6.9-3.7-11.8C11.2,42.6,1.4,49.8,0,59.3v-54C0,2.4,2.4,0,5.3,0L5.3,0z M56.8,0c2.2,1.1,3,3,2.8,5.7
		c-1-1.3-2.4-2.7-5-2.9c0.1,0.4,0.2,0.9,0.2,1.6c-2.3-0.5-5.2,1.5-6.5,2.9c-1.1-0.3-2.4-0.3-3.5,0.5c0.9,0.1,1.9,0.1,2.3,0.6
		c-1.7,0.8-3.4,3.7-3.2,6.8c7.4-11,18.3-9.9,26.1-1.8V5.3C70,2.4,67.6,0,64.7,0H56.8L56.8,0z M70,20.3c-1-0.4-2.3-1.6-2.9-2.5
		c0.1-0.5,0.3-0.9,0.2-1.5c-1.6-0.5-3.1-0.7-4.1-0.8c-0.1-1.4-0.2-2.5-0.7-4c-0.2,1.2-0.4,2.3-0.9,3c-1.2-0.2-3.8-0.3-5.3,0
		c0-1.1,0.1-2.2,0.6-3.7c-0.8,0.8-1.9,2.1-2.2,3.9c-1.2,0.2-4,0.3-6.5,2.5c5.1-0.7,13.7-3.2,21.8,5.9V20.3L70,20.3z M70,32.4
		c-1.5-1.3-3-3.2-4.2-5c-0.2-1.8-0.5-2.9-0.7-4.3c-0.2,1.5-0.2,2.5-0.7,3.3c-1.5-1.4-4.1-1.5-5.4-2.6c-0.2-1.4-0.3-2.6-0.5-3.7
		c-0.7,0.4-1.8,1.5-2.8,2.7c-0.7-0.9-1-2.1-1.2-3.5c-0.6,0.8-1.1,1.6-1.5,2.3c-0.7-0.5-2.4-0.6-4.6-0.4c3.2,3.5,9.9,12.1,13,23.6
		c2.7-0.3,5.5-0.5,8.6-0.7V32.4z"/>
	<path class="st2" d="M70,46.7v18c0,2.9-2.4,5.3-5.3,5.3H21.4C27,61.3,35,56.9,38.9,55.3c-1.3,6,2.3,9.7,5.2,10.1
		C36.4,48.5,64,46.9,70,46.7z"/>
	<path class="st0" d="M10.4,18.1c4.1,0,7.4-3.3,7.4-7.4s-3.3-7.4-7.4-7.4S3,6.6,3,10.7S6.3,18.1,10.4,18.1z"/>
</g>
<g>
	<path class="st3" d="M167.2,57.5c-0.2,0.2-0.2,1,0,1.3c1.1,0,4.2,0.1,5.3,0.1l0-8.9c0.5-0.1,0.1-0.1,0.2-0.1c4,0,5.7,1.4,5.7,4
		c0,2.4-1.3,3.6-3.4,3.6c-0.1,0-0.1,0,0,0v1.5c1.1-0.1,2.3-0.3,3.4-0.9c1.8-0.9,3.2-2.5,3.2-4.9c0-2.5-1.6-3.8-3.7-4.4
		c-0.1,0,0-0.1,0-0.1c1.7-0.6,2.7-2.1,2.7-3.9c0-3.7-3.3-4.2-5.2-4.2c-2.3,0-5.5,0.2-8.1,0.3c-0.2,0.2-0.2,1,0,1.2
		c0.6,0.1,1.3,0.3,1.8,0.6c0.4,0.3,0.5,0.6,0.5,1.1c0,0.8,0,3.1,0,5.5c0,2.6,0,5.4,0,6.9c0,0.5-0.2,0.9-0.8,1.1
		C168.4,57.3,168.1,57.3,167.2,57.5L167.2,57.5z M176.8,47.5c-0.4,0.3-0.9,0.5-2.2,0.5h-1.9c-0.1,0-0.2-0.2-0.2-0.2c0-2,0-5.4,0.1-6
		c0-0.1,0.2-0.3,0.3-0.3c2.9-0.2,4.9,0.8,4.9,3.7C177.8,46.1,177.4,47.1,176.8,47.5z"/>
	<path class="st3" d="M244.4,46.8c0,0.3,0,0.8,0,1.2c0,0.1-0.2,0.4-0.2,0.5c-1.5,0.9-6.1,2.1-7.4,2.9c-0.2,0.3-0.7,1.7-0.7,2.6
		c0,1.6,0.5,3,1.3,4c0.6,0.7,1.4,1.1,2.2,1.1c0.6,0,1.5-0.3,2.5-0.9v-1.7c-0.1,0-0.1,0-0.2,0c-1.7,0-2.7-1.3-2.7-3.1
		c0-0.5,0.2-1.4,0.4-1.4c0.7-0.6,3.2-1.5,4.7-2.1c0.1,0,0.2,0.1,0.2,0.2c0,0.7,0,3-0.1,4.2c0,1.1-0.1,3.1,0.3,3.7
		c0.4,0.6,0.9,1.2,2,1.2c0.9,0,2.3-0.4,3.2-1.6c0.1-0.1,0.2-1.2,0.2-1.4c-0.5,0.2-0.7,0.2-1.4,0.2c-1.2,0-1.5-0.9-1.5-1.8
		c0-1.8,0.2-5.3,0.2-7.6c0-1.6-0.2-3.2-0.9-4.5c-0.9-1.5-2.2-2.4-3.9-2.4c-1,0-3.4,1.1-5.1,2.5c-0.2,0.3-0.8,2-0.9,2.7
		c0,0.4,1,1.1,1.1,0.9c0.5-1.4,1.2-2.9,1.6-3.3c0.2-0.2,0.7-0.5,1.6-0.5c1.2,0,2.3,0.6,3,1.7C244.3,44.9,244.4,45.9,244.4,46.8z"/>
	<path class="st3" d="M217.7,57.4c-0.1,0.2-0.1,1.1,0.1,1.3c0.3,0,2.6-0.1,4-0.1c0.5,0,3,0.1,3.4,0.1c0.1-0.2,0.2-1,0.2-1.3
		c-0.5-0.1-0.9-0.1-1.4-0.3c-0.6-0.2-0.9-0.6-0.9-1.3c-0.1-1.3-0.1-4-0.1-5.8c1.1,0,1.8,0.8,2.4,2.1c1.3,2.3,2,3.7,3.1,5.4
		c0.7,1.1,1.4,1.4,2.5,1.4c1.4,0,2.9-0.1,3.4-0.2c0.1-0.1,0.2-1,0.1-1.3c-1.9-0.1-2.5-0.3-3.4-1.7c-1-1.5-2.2-3.5-3.2-5.2
		c-0.3-0.5-0.9-1.2-1.4-1.4c0.5-0.6,1.3-2,1.8-3.3c0.9-1.9,1.4-2.3,2-2.3c0.4,0,1.1,0.2,1.7,0.5c0.1,0.1,0.2,0,0.3-0.1
		c0.2-0.6,0.5-2.6,0.4-3c-0.3-0.5-0.8-0.7-1.4-0.7c-1,0-2.3,0.4-4,4.8c-0.4,1-1.1,2.4-1.6,3.1c-0.5,0.6-1.2,0.9-2.7,0.9v-5.5
		c0-0.7,0.3-1.1,0.9-1.2c0.5-0.1,0.9-0.2,1.4-0.3c0.1-0.2,0.1-1.1-0.1-1.3c-0.3,0-1.6,0.1-3.8,0.1c-2,0-3.1-0.1-3.4-0.1
		c-0.2,0.2-0.2,1-0.1,1.3c0.5,0.1,0.8,0.1,1.3,0.3c0.6,0.2,0.9,0.6,0.9,1.3c0,0.6,0.1,3.3,0.1,5.7c0,2.6,0,6.1-0.1,6.8
		c0,0.7-0.3,1-0.9,1.2C218.7,57.3,218.2,57.4,217.7,57.4z"/>
	<path class="st3" d="M206.7,41.1c0,0.1-0.1,0.2-0.1,0.3c0.3,0.9,0.3,1.2,0.1,1.8c-0.7,2.3-3.1,9.5-4.2,12.5
		c-0.1,0.2-0.3,0.4-0.5,0.5c-0.2,0-1.5,0.1-1.5,0.1c0,0-0.1,0.2-0.1,0.2c0.4,1.5,0.9,4.8,1.1,7.5c0.1,0.1,1.2,0.1,1.3-0.1
		c0.2-2,0.6-4.4,1-5.4c0.1-0.2,0.4-0.5,0.6-0.5h8.8c0.3,0,0.5,0.2,0.7,0.6c0.3,1,0.5,3.2,0.7,5.4c0.1,0.2,1.1,0.1,1.3-0.1
		c0.4-3.4,1.2-6.2,1.6-7.4c0-0.1,0-0.3-0.1-0.4l-1.8,0c-0.2,0-0.5-0.2-0.7-0.5c-0.9-2.2-4-11.6-5.4-15.7c-0.1-0.3-0.2-0.4-0.4-0.4
		C208.8,39.5,207.2,40.7,206.7,41.1L206.7,41.1z M207.6,44.9c0.1-0.1,0.2-0.1,0.3,0c0.8,2,3,9,3.6,10.8c0,0.1-0.1,0.3-0.1,0.3h-6.8
		c0,0-0.2-0.1-0.1-0.3C204.6,54.7,207.2,46.1,207.6,44.9z"/>
	<path class="st3" d="M192.5,39.8c-1.8,0-3.7,0.8-5.1,1.8c-2,1.6-3.4,4-3.4,7.5c0,4.7,2.1,9.7,7.8,9.7c1.6,0,3.5-0.9,4.5-1.7
		c2.4-1.8,3.6-4.8,3.6-8.3C200,43.9,197.2,39.8,192.5,39.8L192.5,39.8z M191.2,41.6c3.3,0,5.4,3.5,5.4,8.8c0,2.8-0.4,4.6-1.5,5.7
		c-0.7,0.7-1.6,0.9-2.4,0.9c-3.1,0-5.4-3.6-5.4-9c0-3.4,1-5.1,2-5.8C189.8,41.8,190.6,41.6,191.2,41.6z"/>
	<path class="st3" d="M131,59c1.6-0.2,3.9-1.1,5.6-2.7c2.1-2,3.4-4.5,3.4-8.3c0-1.9-0.5-4.2-1.8-5.9c-0.9-1.2-2.3-2.1-3.9-2.1
		c-1.3,0-3,0.7-5.6,2.8c0,0-0.2,0-0.2-0.1c0-0.8,0-2.3,0.1-2.8c0-0.1-0.2-0.4-0.3-0.3c-1.4,0.9-3.9,1.9-5.2,2.1
		c-0.2,0.2-0.2,0.9-0.1,1.2c0.8,0.1,1.4,0.3,1.8,0.6c0.4,0.3,0.5,0.7,0.6,1.5c0.1,1.6,0.1,3.5,0.1,9.5c0,7.3-0.1,10.1-0.1,11.4
		c-0.1,1.4-0.3,1.9-1.1,2.2l-1.7,0.5c-0.2,0.2-0.1,1.1,0,1.4c1.5-0.1,3.8-0.5,7.7,0.2h1.6c0.2-0.8,0.3-1.8,0.2-2
		c-0.8-0.1-1.8-0.2-2.3-0.4c-0.9-0.2-1.2-0.7-1.7-1.7V45.1c0.5-0.4,0.7-0.8,0.9-0.9c1-0.9,2.2-1.4,3.3-1.4c1.3,0,2.4,0.5,3.3,1.8
		c0.9,1.3,1.3,3.3,1.3,5.3c0,2.6-0.6,4.7-1.8,5.8c-0.9,0.9-1.9,1.2-2.7,1.2c-0.5,0-1-0.1-1.3-0.2V59z"/>
	<path class="st3" d="M162.9,38c0,0.2,1.1,0.1,1.2-0.1c0-2,0.4-5.4,0.6-7c-1.8-0.1-4.4-0.9-7.7-0.9c-3.3,0-5.9,0.8-7.9,2.1
		c-4.3,2.7-6.2,7.5-6.2,12.4c0,9.4,4.9,14.9,13.6,14.9c2.4,0,4.9-0.7,6-1.1c0.9-0.6,2.6-4.2,3-6.1c-0.1-0.3-0.7-0.7-0.9-0.7
		c-1,2-2,3.5-2.9,4.4c-1,1-2.6,1.5-4.3,1.5c-7,0-10.4-6.1-10.4-13.3c0-7.6,3.2-12.5,8.9-12.5c1.9,0,3.6,0.3,4.9,1
		C162,33.5,162.5,34.4,162.9,38z"/>
	<path class="st3" d="M104.3,41.8c0.6,0.1,0.9,0.2,1.3,0.3c1.1,0.4,1.5,1.2,2.5,4.1c1.2,3.3,2.9,8.4,3.8,10.9
		c0.1,0.2,0.3,0.8,0.3,0.8c-1.4,3.6-4.5,8.1-5.8,9.9c0,0.1,0,0.6,0,0.7c0.4,0.4,1.5,1.1,2,1.2l0.3-0.2c0.3-0.6,0.7-1.6,1.2-2.5
		c3.3-6.7,6.5-14.5,9.2-22.9c0.4-1.2,0.8-1.8,1.5-2c0.4-0.2,0.8-0.3,1.4-0.4c0.1-0.3,0.1-1.1,0-1.3c-1.1,0-2.2,0.1-3.6,0.1
		c-1.4,0-2.9-0.1-3.4-0.1c-0.2,0.2-0.3,1-0.2,1.3c0.7,0.1,1.3,0.2,1.7,0.4c0.7,0.3,0.7,0.8,0.7,1.3c-0.3,2.3-2,7.3-3.2,10.3
		c0,0-0.1,0-0.2,0c-0.3-0.6-2.9-8.3-3.5-10.8c0-0.2,0-0.6,0.3-0.8c0.3-0.1,0.9-0.2,1.4-0.4c0.1-0.2,0.1-1.2-0.1-1.3
		c-0.6,0-2.3,0.1-4,0.1c-1.7,0-3.1-0.1-3.8-0.1C104.2,40.6,104.1,41.5,104.3,41.8z"/>
	<path class="st3" d="M98.6,57.6c-1.4-0.2-2-0.3-2.7-0.5c-0.9-0.3-1.2-0.8-1.3-2.4c-0.1-2.3-0.1-14.8-0.1-21.5
		c0-0.1,0.1-0.3,0.2-0.4c0.9,0,3.6,0,5.5,0c0.7,0,1.2,0.4,1.5,1.3c0.3,0.9,0.5,2.4,0.6,4c0.1,0.2,1.1,0.2,1.3,0
		c0.2-2.4,0.5-6.1,0.9-7.6c0-0.1-0.3-0.2-0.4-0.2c-1.1,0.6-2,0.7-3.8,0.7H85.8c-1.5,0-2.5-0.3-3.2-0.7c-0.2-0.1-0.4,0-0.4,0.2
		c-0.1,1.9-0.5,5.6-0.8,7.5c0.1,0.2,1.1,0.5,1.2,0.4c0.5-1.7,1.1-3.3,1.5-4.2c0.5-0.9,1-1.2,1.6-1.3c1.5,0,4.4,0,5,0
		c0.1,0,0.3,0.2,0.3,0.4c0,7.5,0,17.2-0.2,20.7c0,2.1-0.2,3-1.5,3.3c-0.6,0.2-1.6,0.3-2.8,0.5c-0.1,0.2-0.2,1.1,0,1.3
		c1,0,3-0.1,5.9-0.1c2.4,0,4.7,0.1,5.8,0.1C98.6,58.9,98.7,57.9,98.6,57.6z"/>
</g>
</svg>
