<svg id="Layer_1" data-name="Layer 1" xmlns="http://www.w3.org/2000/svg" viewBox="0 0 115 26"><defs><linearGradient id="linear-gradient" x1="11.88" y1="28.79" x2="13.77" y2="7.26" gradientTransform="matrix(1 0 0 -1 0 28)" gradientUnits="userSpaceOnUse"><stop offset="0" stop-color="#0068b0"/><stop offset=".49" stop-color="#3c94cc"/><stop offset="1" stop-color="#9ee0f8"/></linearGradient><style>.cls-1{fill:#fff;fill-rule:evenodd}</style></defs><path class="cls-1" d="M24.29 26H1.71A1.73 1.73 0 010 24.29V1.71A1.73 1.73 0 011.71 0h22.58A1.73 1.73 0 0126 1.71v22.58A1.73 1.73 0 0124.29 26z"/><path d="M2 0h14.42c-2.53.74-1.53 4.09-1.19 5.27-1-1.15-2.79-1.67-3.53-1.3a6 6 0 00.19-.81 2.46 2.46 0 00-2.05-.11c-2 .92-2.19 4.56-.78 5.2-.29-1.9.56-2.57 1-2.86a7.62 7.62 0 00.07.78h1.52a1.07 1.07 0 01.56-.67 1.93 1.93 0 00-.07.9 8.29 8.29 0 012.34.37c-10 2.45-5.8 8.43-4.31 8.32a7.36 7.36 0 01-.11-2.71 4.19 4.19 0 00.52.85c.07-.19.4-.74.55-1.11a2.61 2.61 0 010-2.23 2.55 2.55 0 00.49 1.63 13.09 13.09 0 013-2.93c-3 4.94.41 7.83 4.72 7.76a7.88 7.88 0 01-1.41-1.86 2.47 2.47 0 01-2-.7 9.83 9.83 0 001.82.07c-.33-.59-.44-1-.56-1.22a4.16 4.16 0 01-1.78-.64 4.13 4.13 0 001.45-.11 6.35 6.35 0 010-3.12A16.82 16.82 0 0121 17.16 33.81 33.81 0 009.21 21c-3.3 1.63-4.75-2.57-1.37-4.39A6.68 6.68 0 000 22V2a2 2 0 012-2zm19.1 0a2 2 0 011 2.12A2.42 2.42 0 0020.28 1a2.2 2.2 0 01.07.59 3.09 3.09 0 00-2.41 1.08 1.49 1.49 0 00-1.3.19c.33 0 .71 0 .85.22a2.73 2.73 0 00-1.18 2.53C19.05 1.56 23.1 2 26 5V2a2 2 0 00-2-2zM26 7.54a2.92 2.92 0 01-1.08-.93 1.41 1.41 0 00.08-.56 7.51 7.51 0 00-1.53-.29 5.08 5.08 0 00-.26-1.49 2.7 2.7 0 01-.33 1.12 6.49 6.49 0 00-2 0A4.21 4.21 0 0121.13 4a2.76 2.76 0 00-.81 1.45 4.17 4.17 0 00-2.42.93c1.9-.25 5.1-1.18 8.1 2.2v-1zM26 12a9.48 9.48 0 01-1.56-1.85c-.07-.67-.19-1.08-.26-1.6a3.05 3.05 0 01-.26 1.23c-.56-.52-1.52-.56-2-1-.07-.52-.11-1-.18-1.37a4.63 4.63 0 00-1 1 2.79 2.79 0 01-.45-1.3 7.5 7.5 0 00-.55.85A3.19 3.19 0 0018 7.87a22.34 22.34 0 014.83 8.77c1-.11 2-.19 3.19-.26z" fill="url(#linear-gradient)" fill-rule="evenodd"/><path d="M26 17.35V24a2 2 0 01-2 2H8a14.64 14.64 0 016.5-5.46c-.48 2.23.85 3.6 1.93 3.75-2.91-6.29 7.34-6.87 9.57-6.94z" fill="#ffa300" fill-rule="evenodd"/><path class="cls-1" d="M3.86 6.72A2.75 2.75 0 101.11 4a2.74 2.74 0 002.75 2.72z"/><path d="M73.23 19.33a.72.72 0 000 .64c.55 0 2.12.05 2.67.05V15.6h.1c2 0 2.87.69 2.87 2a1.58 1.58 0 01-1.71 1.79v.74a4.51 4.51 0 001.71-.44 2.67 2.67 0 001.62-2.44A2.21 2.21 0 0078.62 15c-.05 0 0-.05 0-.05A2 2 0 0080 13c0-1.84-1.66-2.09-2.62-2.09-1.16 0-2.77.1-4.08.15a.64.64 0 000 .6 2.77 2.77 0 01.91.29.59.59 0 01.25.55v6.17a.53.53 0 01-.4.55 3.07 3.07 0 00-.81.1zm4.84-5a1.69 1.69 0 01-1.07.27h-1l-.1-.1v-3a.23.23 0 01.15-.15c1.46-.1 2.47.4 2.47 1.84a1.44 1.44 0 01-.45 1.16zm34.06-.33v.6c0 .05-.1.2-.1.25-.76.45-3.08 1-3.73 1.44a3.42 3.42 0 00-.35 1.3 3.19 3.19 0 00.65 2 1.52 1.52 0 001.11.54 2.82 2.82 0 001.26-.44v-.85h-.1a1.37 1.37 0 01-1.36-1.54c0-.25.1-.7.2-.7a12.72 12.72 0 012.37-1 .11.11 0 01.1.1c0 .34 0 1.49-.05 2.09a5.19 5.19 0 00.15 1.84 1.13 1.13 0 001 .59 2.1 2.1 0 001.61-.79 3 3 0 00.1-.7 1.51 1.51 0 01-.71.1c-.6 0-.75-.45-.75-.9 0-.89.1-2.63.1-3.78a4.76 4.76 0 00-.45-2.24 2.26 2.26 0 00-2-1.19 5.77 5.77 0 00-2.57 1.24 6.07 6.07 0 00-.45 1.35c0 .2.5.54.55.45a6.22 6.22 0 01.81-1.65 1.13 1.13 0 01.8-.25 1.79 1.79 0 011.52.85 3.08 3.08 0 01.29 1.29zm-13.45 5.28a.84.84 0 000 .64c.15 0 1.31-.05 2-.05l1.71.05a2.45 2.45 0 00.1-.64 3.5 3.5 0 01-.7-.15.61.61 0 01-.45-.65c-.05-.65-.05-2-.05-2.88.55 0 .9.39 1.2 1 .66 1.15 1 1.84 1.57 2.69a1.3 1.3 0 001.26.69 12.36 12.36 0 001.71-.1 1.28 1.28 0 000-.64c-1-.05-1.26-.15-1.71-.85s-1.11-1.74-1.62-2.59a1.93 1.93 0 00-.7-.69 7.43 7.43 0 00.91-1.64c.45-.95.7-1.15 1-1.15a2.25 2.25 0 01.86.25c.05.05.1 0 .15 0a5.57 5.57 0 00.2-1.49.76.76 0 00-.7-.35c-.51 0-1.16.2-2 2.39a8.84 8.84 0 01-.8 1.54 1.59 1.59 0 01-1.36.45v-2.75c0-.35.15-.55.45-.59l.7-.15a1 1 0 000-.65h-1.91c-1.11 0-1.5.03-1.67.03a1 1 0 000 .65 3.05 3.05 0 01.65.15.59.59 0 01.45.64c0 .3.05 1.64.05 2.84s0 3-.05 3.38a.55.55 0 01-.45.6c-.3-.03-.55.02-.8.02zm-5.55-8.11v.15a1.12 1.12 0 010 .89c-.35 1.15-1.56 4.73-2.11 6.22a.57.57 0 01-.26.25l-.75.05-.05.1a25.32 25.32 0 01.55 3.73c0 .05.61.05.66 0a13.11 13.11 0 01.5-2.69c0-.09.2-.24.3-.24h4.44c.15 0 .25.1.35.29a19 19 0 01.35 2.69c0 .1.56.05.66 0a19.55 19.55 0 01.8-3.68.3.3 0 000-.2h-.9a.55.55 0 01-.36-.25c-.45-1.09-2-5.77-2.72-7.81-.05-.15-.1-.2-.2-.2a6.24 6.24 0 00-1.21.8zm.46 1.89a.09.09 0 01.15 0c.4 1 1.51 4.48 1.81 5.37a.5.5 0 010 .15h-3.48a.11.11 0 010-.15c0-.5 1.31-4.77 1.52-5.37zM86 10.52a4.67 4.67 0 00-2.57.9 4.49 4.49 0 00-1.71 3.73c0 2.34 1 4.82 3.93 4.82a4.12 4.12 0 002.26-.84 5 5 0 001.8-4.13c.05-2.44-1.36-4.48-3.73-4.48zm-.66.9c1.66 0 2.66 1.74 2.66 4.37a3.87 3.87 0 01-.75 2.84 1.67 1.67 0 01-1.21.45c-1.56 0-2.72-1.79-2.72-4.48 0-1.69.5-2.54 1-2.88a1.65 1.65 0 011-.3zM55 20.07a5.37 5.37 0 002.82-1.34 5.26 5.26 0 001.72-4.13 4.94 4.94 0 00-.91-2.93 2.51 2.51 0 00-2-1.05 5 5 0 00-2.8 1.38h-.1a11.67 11.67 0 01.05-1.39c0-.05-.1-.2-.15-.15A8.61 8.61 0 0151 11.47a.79.79 0 000 .59 1.94 1.94 0 01.91.3c.2.15.25.35.3.75v10.4c0 .68-.15.94-.55 1.09l-.86.25c-.1.1 0 .55 0 .7a12.94 12.94 0 013.88.1h.8a2.55 2.55 0 00.11-1 6 6 0 01-1.16-.2c-.46-.1-.61-.35-.86-.84V13.16c.25-.2.35-.4.45-.45a2.59 2.59 0 011.67-.7 1.9 1.9 0 011.66.9 4.81 4.81 0 01.65 2.64 3.91 3.91 0 01-.9 2.88 2 2 0 01-1.36.6 2.24 2.24 0 01-.66-.1v1.14zM71.06 9.63c0 .1.56 0 .61-.05A35 35 0 0172 6.09a37.14 37.14 0 00-3.88-.44 7.21 7.21 0 00-4 1A7 7 0 0061 12.86c0 4.68 2.47 7.41 6.85 7.41a10.17 10.17 0 003-.54 7.38 7.38 0 001.51-3 .75.75 0 00-.45-.35 8.65 8.65 0 01-1.46 2.19 3.08 3.08 0 01-2.17.75c-3.52 0-5.24-3-5.24-6.62 0-3.78 1.62-6.22 4.49-6.22a5.34 5.34 0 012.47.5c.61.41.86.85 1.06 2.65zm-29.52 1.89a6.52 6.52 0 01.65.15c.56.19.76.59 1.26 2 .61 1.64 1.46 4.17 1.92 5.42.05.1.15.4.15.4a26.54 26.54 0 01-2.92 4.92v.35a3 3 0 001 .6l.16-.1c.15-.3.35-.8.6-1.25A85.53 85.53 0 0049 12.66c.2-.6.4-.89.75-1a2.32 2.32 0 01.71-.2 1.42 1.42 0 000-.65h-3.53a1 1 0 00-.1.65 3.21 3.21 0 01.86.2c.35.14.35.39.35.64a29.63 29.63 0 01-1.61 5.13h-.11c-.15-.3-1.46-4.13-1.76-5.38a.44.44 0 01.15-.39c.15-.05.46-.1.71-.2 0-.1 0-.6-.05-.65h-3.91c.03.11-.02.56.08.71zm-2.87 7.86a9.44 9.44 0 01-1.36-.25c-.46-.15-.61-.4-.66-1.2V7.24a.38.38 0 01.1-.2h2.77c.36 0 .61.2.76.65a8.74 8.74 0 01.3 2c0 .1.55.1.66 0a31.66 31.66 0 01.45-3.79s-.15-.1-.2-.1a3.57 3.57 0 01-1.92.35h-7.3a3.24 3.24 0 01-1.62-.35c-.1 0-.2 0-.2.1 0 1-.25 2.79-.4 3.74a1 1 0 00.6.19 19.85 19.85 0 01.76-2.08 1.07 1.07 0 01.81-.65h2.52a.22.22 0 01.15.2c0 3.73 0 8.55-.1 10.3 0 1-.1 1.49-.76 1.64a12.75 12.75 0 01-1.41.25c0 .1-.1.54 0 .64.5 0 1.51-.05 3-.05 1.21 0 2.37.05 2.92.05.13-.13.18-.6.13-.75z" fill="#0068b0" fill-rule="evenodd"/></svg>