<svg id="Layer_1" xmlns="http://www.w3.org/2000/svg" width="250" height="70" viewBox="0 0 250 70"><style>.st0{fill:#fff}.st0,.st1,.st2,.st3{fill-rule:evenodd;clip-rule:evenodd}.st1{fill:url(#SVGID_1_)}.st2{fill:#ffa300}.st3{fill:#0068b0}</style><path class="st0" d="M65.4 70H4.6C2.1 70 0 67.9 0 65.4V4.6C0 2.1 2.1 0 4.6 0h60.8C67.9 0 70 2.1 70 4.6v60.8c0 2.5-2.1 4.6-4.6 4.6z"/><linearGradient id="SVGID_1_" gradientUnits="userSpaceOnUse" x1="31.998" y1="-2.13" x2="37.071" y2="55.85"><stop offset="0" stop-color="#0068b0"/><stop offset=".49" stop-color="#3c94cc"/><stop offset="1" stop-color="#9ee0f8"/></linearGradient><path class="st1" d="M5.3 0h38.9c-6.8 2-4.1 11-3.2 14.2-2.8-3.1-7.5-4.5-9.5-3.5.2-.8.4-1.3.5-2.2-1.3-1.1-4.3-.8-5.5-.3-5.3 2.5-5.9 12.3-2.1 14-.8-5.1 1.5-6.9 2.7-7.7.1 1.2.1 1.4.2 2.1 1.2 0 3 .1 4.1.1.2-.9 1-1.6 1.5-1.8-.3 1.1-.3 1.6-.2 2.4 1.3.1 3.5.1 6.3 1C12 24.9 23.4 41 27.4 40.7c-.6-2.4-.6-6.3-.3-7.3.4.8.9 1.7 1.4 2.3.2-.5 1.1-2 1.5-3-1-2.3-.8-4.6 0-6-.1 2 .6 3.4 1.3 4.4 2.6-2.8 4.3-5.6 8.1-7.9-8.1 13.3 1.1 21.1 12.7 20.9-1.6-1.9-2.9-3-3.8-5-1.5.1-3 0-5.3-1.9 2.1.1 2.6.4 4.9.2-.9-1.6-1.2-2.8-1.5-3.3-2.5-.4-3.4-.8-4.9-1.7 2 .1 3.3-.1 3.9-.3-.5-2.3-1-6.5-.1-8.4 6.8 7.4 9.9 15.5 11.2 22.5C39.9 48.6 32 53 24.8 56.5c-8.9 4.4-12.8-6.9-3.7-11.8C11.2 42.6 1.4 49.8 0 59.3v-54C0 2.4 2.4 0 5.3 0zm51.5 0c2.2 1.1 3 3 2.8 5.7-1-1.3-2.4-2.7-5-2.9.1.4.2.9.2 1.6-2.3-.5-5.2 1.5-6.5 2.9-1.1-.3-2.4-.3-3.5.5.9.1 1.9.1 2.3.6-1.7.8-3.4 3.7-3.2 6.8 7.4-11 18.3-9.9 26.1-1.8V5.3C70 2.4 67.6 0 64.7 0h-7.9zM70 20.3c-1-.4-2.3-1.6-2.9-2.5.1-.5.3-.9.2-1.5-1.6-.5-3.1-.7-4.1-.8-.1-1.4-.2-2.5-.7-4-.2 1.2-.4 2.3-.9 3-1.2-.2-3.8-.3-5.3 0 0-1.1.1-2.2.6-3.7-.8.8-1.9 2.1-2.2 3.9-1.2.2-4 .3-6.5 2.5 5.1-.7 13.7-3.2 21.8 5.9v-2.8zm0 12.1c-1.5-1.3-3-3.2-4.2-5-.2-1.8-.5-2.9-.7-4.3-.2 1.5-.2 2.5-.7 3.3-1.5-1.4-4.1-1.5-5.4-2.6-.2-1.4-.3-2.6-.5-3.7-.7.4-1.8 1.5-2.8 2.7-.7-.9-1-2.1-1.2-3.5-.6.8-1.1 1.6-1.5 2.3-.7-.5-2.4-.6-4.6-.4 3.2 3.5 9.9 12.1 13 23.6 2.7-.3 5.5-.5 8.6-.7V32.4z"/><path class="st2" d="M70 46.7v18c0 2.9-2.4 5.3-5.3 5.3H21.4C27 61.3 35 56.9 38.9 55.3c-1.3 6 2.3 9.7 5.2 10.1C36.4 48.5 64 46.9 70 46.7z"/><path class="st0" d="M10.4 18.1c4.1 0 7.4-3.3 7.4-7.4s-3.3-7.4-7.4-7.4S3 6.6 3 10.7s3.3 7.4 7.4 7.4z"/><path class="st3" d="M167.2 57.5c-.2.2-.2 1 0 1.3 1.1 0 4.2.1 5.3.1V50c.5-.1.1-.1.2-.1 4 0 5.7 1.4 5.7 4 0 2.4-1.3 3.6-3.4 3.6-.1 0-.1 0 0 0V59c1.1-.1 2.3-.3 3.4-.9 1.8-.9 3.2-2.5 3.2-4.9 0-2.5-1.6-3.8-3.7-4.4-.1 0 0-.1 0-.1 1.7-.6 2.7-2.1 2.7-3.9 0-3.7-3.3-4.2-5.2-4.2-2.3 0-5.5.2-8.1.3-.2.2-.2 1 0 1.2.6.1 1.3.3 1.8.6.4.3.5.6.5 1.1v12.4c0 .5-.2.9-.8 1.1-.4 0-.7 0-1.6.2zm9.6-10c-.4.3-.9.5-2.2.5h-1.9c-.1 0-.2-.2-.2-.2 0-2 0-5.4.1-6 0-.1.2-.3.3-.3 2.9-.2 4.9.8 4.9 3.7 0 .9-.4 1.9-1 2.3zm67.6-.7V48c0 .1-.2.4-.2.5-1.5.9-6.1 2.1-7.4 2.9-.2.3-.7 1.7-.7 2.6 0 1.6.5 3 1.3 4 .6.7 1.4 1.1 2.2 1.1.6 0 1.5-.3 2.5-.9v-1.7h-.2c-1.7 0-2.7-1.3-2.7-3.1 0-.5.2-1.4.4-1.4.7-.6 3.2-1.5 4.7-2.1.1 0 .2.1.2.2 0 .7 0 3-.1 4.2 0 1.1-.1 3.1.3 3.7.4.6.9 1.2 2 1.2.9 0 2.3-.4 3.2-1.6.1-.1.2-1.2.2-1.4-.5.2-.7.2-1.4.2-1.2 0-1.5-.9-1.5-1.8 0-1.8.2-5.3.2-7.6 0-1.6-.2-3.2-.9-4.5-.9-1.5-2.2-2.4-3.9-2.4-1 0-3.4 1.1-5.1 2.5-.2.3-.8 2-.9 2.7 0 .4 1 1.1 1.1.9.5-1.4 1.2-2.9 1.6-3.3.2-.2.7-.5 1.6-.5 1.2 0 2.3.6 3 1.7.4.8.5 1.8.5 2.7zm-26.7 10.6c-.1.2-.1 1.1.1 1.3.3 0 2.6-.1 4-.1.5 0 3 .1 3.4.1.1-.2.2-1 .2-1.3-.5-.1-.9-.1-1.4-.3-.6-.2-.9-.6-.9-1.3-.1-1.3-.1-4-.1-5.8 1.1 0 1.8.8 2.4 2.1 1.3 2.3 2 3.7 3.1 5.4.7 1.1 1.4 1.4 2.5 1.4 1.4 0 2.9-.1 3.4-.2.1-.1.2-1 .1-1.3-1.9-.1-2.5-.3-3.4-1.7-1-1.5-2.2-3.5-3.2-5.2-.3-.5-.9-1.2-1.4-1.4.5-.6 1.3-2 1.8-3.3.9-1.9 1.4-2.3 2-2.3.4 0 1.1.2 1.7.5.1.1.2 0 .3-.1.2-.6.5-2.6.4-3-.3-.5-.8-.7-1.4-.7-1 0-2.3.4-4 4.8-.4 1-1.1 2.4-1.6 3.1-.5.6-1.2.9-2.7.9v-5.5c0-.7.3-1.1.9-1.2.5-.1.9-.2 1.4-.3.1-.2.1-1.1-.1-1.3-.3 0-1.6.1-3.8.1-2 0-3.1-.1-3.4-.1-.2.2-.2 1-.1 1.3.5.1.8.1 1.3.3.6.2.9.6.9 1.3 0 .6.1 3.3.1 5.7 0 2.6 0 6.1-.1 6.8 0 .7-.3 1-.9 1.2-.5 0-1 .1-1.5.1zm-11-16.3c0 .1-.1.2-.1.3.3.9.3 1.2.1 1.8-.7 2.3-3.1 9.5-4.2 12.5-.1.2-.3.4-.5.5-.2 0-1.5.1-1.5.1l-.1.2c.4 1.5.9 4.8 1.1 7.5.1.1 1.2.1 1.3-.1.2-2 .6-4.4 1-5.4.1-.2.4-.5.6-.5h8.8c.3 0 .5.2.7.6.3 1 .5 3.2.7 5.4.1.2 1.1.1 1.3-.1.4-3.4 1.2-6.2 1.6-7.4 0-.1 0-.3-.1-.4h-1.8c-.2 0-.5-.2-.7-.5-.9-2.2-4-11.6-5.4-15.7-.1-.3-.2-.4-.4-.4-.3 0-1.9 1.2-2.4 1.6zm.9 3.8c.1-.1.2-.1.3 0 .8 2 3 9 3.6 10.8 0 .1-.1.3-.1.3h-6.8s-.2-.1-.1-.3c.1-1 2.7-9.6 3.1-10.8zm-15.1-5.1c-1.8 0-3.7.8-5.1 1.8-2 1.6-3.4 4-3.4 7.5 0 4.7 2.1 9.7 7.8 9.7 1.6 0 3.5-.9 4.5-1.7 2.4-1.8 3.6-4.8 3.6-8.3.1-4.9-2.7-9-7.4-9zm-1.3 1.8c3.3 0 5.4 3.5 5.4 8.8 0 2.8-.4 4.6-1.5 5.7-.7.7-1.6.9-2.4.9-3.1 0-5.4-3.6-5.4-9 0-3.4 1-5.1 2-5.8.5-.4 1.3-.6 1.9-.6zM131 59c1.6-.2 3.9-1.1 5.6-2.7 2.1-2 3.4-4.5 3.4-8.3 0-1.9-.5-4.2-1.8-5.9-.9-1.2-2.3-2.1-3.9-2.1-1.3 0-3 .7-5.6 2.8 0 0-.2 0-.2-.1 0-.8 0-2.3.1-2.8 0-.1-.2-.4-.3-.3-1.4.9-3.9 1.9-5.2 2.1-.2.2-.2.9-.1 1.2.8.1 1.4.3 1.8.6.4.3.5.7.6 1.5.1 1.6.1 3.5.1 9.5 0 7.3-.1 10.1-.1 11.4-.1 1.4-.3 1.9-1.1 2.2l-1.7.5c-.2.2-.1 1.1 0 1.4 1.5-.1 3.8-.5 7.7.2h1.6c.2-.8.3-1.8.2-2-.8-.1-1.8-.2-2.3-.4-.9-.2-1.2-.7-1.7-1.7v-21c.5-.4.7-.8.9-.9 1-.9 2.2-1.4 3.3-1.4 1.3 0 2.4.5 3.3 1.8.9 1.3 1.3 3.3 1.3 5.3 0 2.6-.6 4.7-1.8 5.8-.9.9-1.9 1.2-2.7 1.2-.5 0-1-.1-1.3-.2V59zm31.9-21c0 .2 1.1.1 1.2-.1 0-2 .4-5.4.6-7-1.8-.1-4.4-.9-7.7-.9s-5.9.8-7.9 2.1c-4.3 2.7-6.2 7.5-6.2 12.4 0 9.4 4.9 14.9 13.6 14.9 2.4 0 4.9-.7 6-1.1.9-.6 2.6-4.2 3-6.1-.1-.3-.7-.7-.9-.7-1 2-2 3.5-2.9 4.4-1 1-2.6 1.5-4.3 1.5-7 0-10.4-6.1-10.4-13.3 0-7.6 3.2-12.5 8.9-12.5 1.9 0 3.6.3 4.9 1 1.2.9 1.7 1.8 2.1 5.4zm-58.6 3.8c.6.1.9.2 1.3.3 1.1.4 1.5 1.2 2.5 4.1 1.2 3.3 2.9 8.4 3.8 10.9.1.2.3.8.3.8-1.4 3.6-4.5 8.1-5.8 9.9v.7c.4.4 1.5 1.1 2 1.2l.3-.2c.3-.6.7-1.6 1.2-2.5 3.3-6.7 6.5-14.5 9.2-22.9.4-1.2.8-1.8 1.5-2 .4-.2.8-.3 1.4-.4.1-.3.1-1.1 0-1.3-1.1 0-2.2.1-3.6.1s-2.9-.1-3.4-.1c-.2.2-.3 1-.2 1.3.7.1 1.3.2 1.7.4.7.3.7.8.7 1.3-.3 2.3-2 7.3-3.2 10.3h-.2c-.3-.6-2.9-8.3-3.5-10.8 0-.2 0-.6.3-.8.3-.1.9-.2 1.4-.4.1-.2.1-1.2-.1-1.3-.6 0-2.3.1-4 .1-1.7 0-3.1-.1-3.8-.1.1.2 0 1.1.2 1.4zm-5.7 15.8c-1.4-.2-2-.3-2.7-.5-.9-.3-1.2-.8-1.3-2.4-.1-2.3-.1-14.8-.1-21.5 0-.1.1-.3.2-.4h5.5c.7 0 1.2.4 1.5 1.3.3.9.5 2.4.6 4 .1.2 1.1.2 1.3 0 .2-2.4.5-6.1.9-7.6 0-.1-.3-.2-.4-.2-1.1.6-2 .7-3.8.7H85.8c-1.5 0-2.5-.3-3.2-.7-.2-.1-.4 0-.4.2-.1 1.9-.5 5.6-.8 7.5.1.2 1.1.5 1.2.4.5-1.7 1.1-3.3 1.5-4.2.5-.9 1-1.2 1.6-1.3h5c.1 0 .3.2.3.4 0 7.5 0 17.2-.2 20.7 0 2.1-.2 3-1.5 3.3-.6.2-1.6.3-2.8.5-.1.2-.2 1.1 0 1.3 1 0 3-.1 5.9-.1 2.4 0 4.7.1 5.8.1.4-.2.5-1.2.4-1.5z"/></svg>