<svg id="Layer_1" data-name="Layer 1" xmlns="http://www.w3.org/2000/svg" width="110" height="110"><defs><style>.cls-1{fill:#ff8000}</style></defs><g id="Outline"><path class="cls-1" d="M25.17 60a5.5 5.5 0 015.5-5.5h20.16v-3.67H30.67A9.19 9.19 0 0021.5 60v11h3.67zm43.08-27.5a6.42 6.42 0 106.42 6.42 6.42 6.42 0 00-6.42-6.42zm0 9.17A2.75 2.75 0 1171 38.92a2.75 2.75 0 01-2.75 2.75z" transform="translate(-16 -16)"/><path class="cls-1" d="M124.17 16H85.36a11.08 11.08 0 00-9.44 5.34l-2.29 3.83H60a5.5 5.5 0 00-5.5 5.5v33a5.51 5.51 0 005.5 5.5h11v7.33a1.83 1.83 0 001.83 1.83 1.87 1.87 0 001.17-.42l10.5-8.74h25a5.51 5.51 0 005.5-5.5v-26a19.62 19.62 0 0010.21-5.42l.25-.26a1.8 1.8 0 00.54-1.29V17.83a1.83 1.83 0 00-1.83-1.83zm-12.84 47.67a1.83 1.83 0 01-1.83 1.83H83.83a1.84 1.84 0 00-1.17.42l-8 6.67v-5.26a1.83 1.83 0 00-1.84-1.83H60a1.83 1.83 0 01-1.83-1.83V61l16.44-9.87 15.54 10.4a1.86 1.86 0 001.84.11l10-5 9.3 6.19zm0-5.26L103.18 53a1.84 1.84 0 00-1.83-.11l-10 5-15.67-10.42a1.83 1.83 0 00-2 0l-15.51 9.29V30.67A1.83 1.83 0 0160 28.83h28.57l-6 6a6.37 6.37 0 009 9l9-9A19.71 19.71 0 00111.25 38h.08zm11-28.51a16.07 16.07 0 01-20 1.74l-1-.67a1.84 1.84 0 00-2.33.23L89 41.25a2.7 2.7 0 01-4.08-3.53 3.47 3.47 0 01.25-.29l9.13-9.13 3.7-3.67L95.37 22l-3.13 3.13H77.9l1.17-1.94a7.33 7.33 0 016.29-3.56h37z" transform="translate(-16 -16)"/><path class="cls-1" d="M120.5 74.67h-33a5.5 5.5 0 00-5.5 5.5v10.24l-6.8 6.79a1.83 1.83 0 001.3 3.13H82v1.84a5.51 5.51 0 005.5 5.5h33a5.51 5.51 0 005.5-5.5v-22a5.5 5.5 0 00-5.5-5.5zm1.83 27.5a1.83 1.83 0 01-1.83 1.83h-33a1.83 1.83 0 01-1.83-1.83V98.5a1.83 1.83 0 00-1.84-1.83h-2.9l4.2-4.21a1.84 1.84 0 00.54-1.29v-11a1.83 1.83 0 011.83-1.84h33a1.83 1.83 0 011.83 1.84z" transform="translate(-16 -16)"/><path class="cls-1" d="M89.33 82h18.34v3.67H89.33zm22 0h7.34v3.67h-7.34zm-22 14.67h29.34v3.66H89.33zm0-7.34h29.34V93H89.33zm-60.5-31.16h3.67v3.66h-3.67zm7.34 0h3.66v3.66h-3.66zm7.33 0h3.67v3.66H43.5zM28.83 65.5h22v3.67h-22zm-7.33 42.17h33a5.51 5.51 0 005.5-5.5v-7.34h5.5A1.83 1.83 0 0067.33 93a1.86 1.86 0 00-.53-1.3L60 84.91v-4.74a5.5 5.5 0 00-5.5-5.5h-33a5.5 5.5 0 00-5.5 5.5v22a5.51 5.51 0 005.5 5.5zm-1.83-27.5a1.83 1.83 0 011.83-1.84h33a1.83 1.83 0 011.83 1.84v5.5a1.84 1.84 0 00.54 1.33l4.2 4.21h-2.9A1.83 1.83 0 0056.33 93v9.17A1.83 1.83 0 0154.5 104h-33a1.83 1.83 0 01-1.83-1.83z" transform="translate(-16 -16)"/><path class="cls-1" d="M23.33 82H27v3.67h-3.67zm0 7.33H27V93h-3.67zm0 7.34H27v3.66h-3.67zM30.67 82h22v3.67h-22zm0 7.33h22V93h-22zm0 7.34h22v3.66h-22zm78.83 14.66H77.26a8.06 8.06 0 00-5.72 2.37 4.4 4.4 0 01-3.13 1.3h-9.48a4.36 4.36 0 01-3.13-1.3 8.1 8.1 0 00-5.73-2.37H17.83a1.83 1.83 0 00-1.83 1.84v5.5a7.34 7.34 0 007.33 7.33H104a7.33 7.33 0 007.33-7.33v-5.5a1.83 1.83 0 00-1.83-1.84zm-1.83 7.34a3.68 3.68 0 01-3.67 3.66H23.33a3.66 3.66 0 01-3.66-3.66V115h30.4a4.36 4.36 0 013.13 1.3 8.1 8.1 0 005.73 2.37h9.48a8.07 8.07 0 005.72-2.37 4.38 4.38 0 013.13-1.3h30.41z" transform="translate(-16 -16)"/></g></svg>