<svg id="Capa_1" data-name="Capa 1" xmlns="http://www.w3.org/2000/svg" width="110" height="110"><defs><style>.cls-1{fill:#ff8000}</style></defs><path class="cls-1" d="M82.49 0h-66A12.75 12.75 0 003.66 12.64V77.5a12.75 12.75 0 0012.83 12.64h20.17v-3.61H16.49a9.12 9.12 0 01-9.17-9V47H19.1a2 2 0 001.82-2.08 1.81 1.81 0 00-.14-.6 7.18 7.18 0 013.76-9.52 7.38 7.38 0 019.66 3.71 7.09 7.09 0 010 5.81 1.87 1.87 0 00.9 2.5 1.93 1.93 0 00.78.18h11.78v10.79a9.46 9.46 0 00-1.84-.15 10.81 10.81 0 00-4.4 20.76l1.47-3.31a7.18 7.18 0 01-3.8-9.5 7.33 7.33 0 016.73-4.34 7.41 7.41 0 012.94.61 1.81 1.81 0 002.56-1.66V47h9.33a10 10 0 00-.16 1.81 10.93 10.93 0 008.8 10.62l.71-3.59a7.28 7.28 0 01-5.86-7.08 7 7 0 01.62-2.89 1.8 1.8 0 00-1-2.38 1.83 1.83 0 00-.73-.15H51.32v-9.18a11.32 11.32 0 001.84.15 10.84 10.84 0 100-21.67 11.32 11.32 0 00-1.84.15V3.61h31.17a9.12 9.12 0 019.17 9v30.7H79.88a1.81 1.81 0 00-1.68 2.53 7 7 0 01.62 2.89h3.67a11 11 0 00-.15-1.73h11.15a1.82 1.82 0 001.83-1.8V12.64A12.74 12.74 0 0082.49 0zM53.16 16.25a7.23 7.23 0 110 14.45 7.44 7.44 0 01-2.94-.61 1.85 1.85 0 00-2.41.93 1.79 1.79 0 00-.15.72v11.45h-9.31a10.24 10.24 0 00.14-1.66v-.15a11 11 0 00-22 0v.15a10.24 10.24 0 00.14 1.66H7.32V12.64a9.12 9.12 0 019.17-9h31.17v11.6A1.81 1.81 0 0049.49 17a1.83 1.83 0 00.73-.15 7.44 7.44 0 012.94-.6z" transform="translate(-3.66)"/><path class="cls-1" d="M109.74 77.62L94.32 67.16 88.4 51.58a1.83 1.83 0 00-2.35-1.06h-.1L74 55.75a1.8 1.8 0 00-1 2.3 12.27 12.27 0 00.58 1.29c.19.39.37.77.6 1.35A7.24 7.24 0 0170 70a7.36 7.36 0 01-9.44-4.23 7 7 0 01-.45-2.94A1.82 1.82 0 0058.32 61a1.71 1.71 0 00-.74.11l-12.74 4.7a1.8 1.8 0 00-1.07 2.32l4.57 12a11.15 11.15 0 00-1.78.48 10.83 10.83 0 00-6.48 14A11.07 11.07 0 0054.26 101a10.5 10.5 0 001.7-.79l3.28 8.63a1.84 1.84 0 002.36 1l18.17-6.74a9.81 9.81 0 005.8 5.11l1.16-3.43a6.18 6.18 0 01-3.51-2.95l5.53-2.05a12.78 12.78 0 0012.07 8.38v-3.61a9.15 9.15 0 01-9.16-9 1.82 1.82 0 00-.54-1.28L84.74 88a2.68 2.68 0 013.82-3.76l12.8 12.6 2.64-2.56-3.78-3.73a12.42 12.42 0 00-.17-8.44l-3.43-9 11.08 7.51A5.44 5.44 0 01110 85v23.33h3.67V85a9 9 0 00-3.93-7.38zm-13.17 5.75a8.81 8.81 0 01.53 4.16l-5.95-5.86a6.44 6.44 0 00-9-.11 6.22 6.22 0 00-.15 8.88l.11.11 5.8 5.71L62 105.87l-3.49-9.2a1.81 1.81 0 00-1.32-1.12 1.75 1.75 0 00-.4 0 1.86 1.86 0 00-1.28.52 7.42 7.42 0 01-10.37-.29 7.14 7.14 0 01.3-10.21A7.24 7.24 0 0147.86 84a7.16 7.16 0 011.82-.41 6.29 6.29 0 011.15 0 1.82 1.82 0 001.92-1.71 1.65 1.65 0 00-.11-.73l-4.79-12.59 8.73-3.24a11.1 11.1 0 0014.67 8.1 10.85 10.85 0 006.43-14c-.17-.44-.32-.79-.47-1.11l8.43-3.67z" transform="translate(-3.66)"/></svg>