<svg version="1.1" id="i-calendar-y" xmlns="http://www.w3.org/2000/svg" x="0" y="0" width="22" height="22" xml:space="preserve"><style>.st0{fill:none;stroke:#ff8000;stroke-miterlimit:10}</style><path class="st0" d="M17 2.5H6m-2 0H1.5v4h19v-4H18m-12 6H5m3 0H7m3 0H9m3 0h-1m3 0h-1m3 0h-1m3 0h-1m-11 2H5m3 0H7m3 0H9m3 0h-1m3 0h-1m3 0h-1m3 0h-1m-11 2H5m3 0H7m3 0H9m3 0h-1m-5 2H5m3 0H7m3 0H9"/><path class="st0" d="M20.5 12V6m-18 0v11.5H11m6-13h1.5v-4H17m-12 4h1.5v-4H5m4 4h5"/><circle class="st0" cx="16.4" cy="16.3" r="4.2"/><path class="st0" d="M14.3 16.3l1.1 1.1 3-3"/></svg>