<svg id="Layer_1" data-name="Layer 1" xmlns="http://www.w3.org/2000/svg" width="21" height="21"><defs><style>.cls-1{fill:#3c94cc}</style></defs><path class="cls-1" d="M10.5 2A8.5 8.5 0 112 10.5 8.51 8.51 0 0110.5 2m0-2A10.5 10.5 0 1021 10.5 10.5 10.5 0 0010.5 0z"/><path class="cls-1" d="M6 7.86a3.08 3.08 0 011.2-2.71 5.28 5.28 0 013.24-.91 5.12 5.12 0 013.39 1A3.5 3.5 0 0115 8.09a3.28 3.28 0 01-.67 2 4.8 4.8 0 01-1.72 1.43 2 2 0 00-.77.78 2.59 2.59 0 00-.2 1.14H8.59a3.11 3.11 0 01.46-1.81 6.54 6.54 0 011.62-1.39 2.9 2.9 0 001-.91A2.22 2.22 0 0012 8.09a1.64 1.64 0 00-.4-1.16 1.51 1.51 0 00-1.16-.43 1.48 1.48 0 00-1 .36A1.41 1.41 0 009 7.92H6zm2.4 8.9v-2.21h3.32v2.21z"/></svg>