<svg version="1.1" id="Layer_1" xmlns="http://www.w3.org/2000/svg" x="0" y="0" width="30" height="17" xml:space="preserve"><path d="M23.2 15.3c0 .3-.1.6-.4.9s-.5.4-.9.4c-.3 0-.6-.1-.9-.4L17.7 13c-1.1.8-2.4 1.2-3.8 1.2-.9 0-1.8-.2-2.6-.5s-1.5-.8-2.1-1.4-.9-1.5-1.3-2.3-.5-1.7-.5-2.6c0-.9.2-1.8.5-2.6.4-.8.8-1.5 1.4-2.1s1.3-1.1 2.1-1.4S13.1.8 14 .8c.9 0 1.8.2 2.6.5s1.5.8 2.1 1.4 1.1 1.3 1.4 2.1c.4.8.5 1.7.5 2.6 0 1.4-.4 2.7-1.2 3.8l3.3 3.3c.3.2.5.5.5.8zm-6.1-4.9c.8-.8 1.2-1.8 1.2-3s-.4-2.2-1.2-3c-.8-.8-1.8-1.2-3-1.2s-2.2.4-3 1.2c-.8.8-1.2 1.8-1.2 3s.4 2.2 1.2 3c.8.8 1.8 1.2 3 1.2 1.1.1 2.1-.3 3-1.2z" fill="#bbb"/></svg>