<svg xmlns="http://www.w3.org/2000/svg" width="13" height="13"><circle cx="6.5" cy="6.5" r="6.5" fill="#c00"/><path data-name="" d="M8.936 7.1a2.066 2.066 0 00-.169-.427 1.439 1.439 0 00-.285-.354 3.473 3.473 0 00-.333-.279 3.236 3.236 0 00-.407-.24q-.258-.131-.409-.2T6.9 5.429q-.253-.1-.377-.153T6.2 5.125a1.871 1.871 0 01-.3-.173 2.382 2.382 0 01-.212-.184.628.628 0 01-.159-.232.761.761 0 01-.046-.268.739.739 0 01.317-.619 1.361 1.361 0 01.834-.24 1.736 1.736 0 01.46.064 2.352 2.352 0 01.4.145 2.768 2.768 0 01.315.179q.148.1.21.148t.081.067a.167.167 0 00.145.039.147.147 0 00.124-.089l.431-.815a.166.166 0 00-.027-.212q-.031-.035-.079-.078t-.21-.157a2.572 2.572 0 00-.342-.209 3.386 3.386 0 00-.467-.191 2.9 2.9 0 00-.595-.129v-.983a.177.177 0 00-.048-.128.164.164 0 00-.124-.05h-.726a.163.163 0 00-.121.053.175.175 0 00-.051.126v1a2.434 2.434 0 00-1.372.748 1.946 1.946 0 00-.527 1.35 2.006 2.006 0 00.046.435 2.281 2.281 0 00.113.378 1.373 1.373 0 00.191.324 3.414 3.414 0 00.234.273 1.9 1.9 0 00.288.237q.177.123.3.2t.34.166q.21.1.331.148l.33.142q.29.117.43.181t.356.179a1.476 1.476 0 01.315.209 1.044 1.044 0 01.18.234.582.582 0 01.081.3.791.791 0 01-.331.681 1.271 1.271 0 01-.766.24 1.809 1.809 0 01-.4-.045 2.773 2.773 0 01-1.307-.7l-.01-.012a.131.131 0 00-.132-.05.166.166 0 00-.124.067l-.554.753a.174.174 0 00.011.229q.027.033.094.1a3.087 3.087 0 00.25.209 3.6 3.6 0 00.4.268 3.547 3.547 0 00.546.248 3.293 3.293 0 00.686.173v.977a.175.175 0 00.051.126.163.163 0 00.121.053h.727a.164.164 0 00.124-.05.177.177 0 00.048-.128v-.977a2.286 2.286 0 001.39-.762 2.169 2.169 0 00.535-1.47 1.91 1.91 0 00-.069-.523z" fill="#fff" fill-rule="evenodd"/></svg>