<svg xmlns="http://www.w3.org/2000/svg" width="46" height="20"><rect width="46" height="20" rx="3" ry="3" fill="#cb0300"/><path d="M19 15.24a.48.48 0 01-.15.39.51.51 0 01-.39.17h-1.22a.54.54 0 01-.38-.15.5.5 0 01-.17-.36 9.24 9.24 0 00-.86-3.42 9.62 9.62 0 00-2-2.82 10 10 0 00-6.34-2.8.53.53 0 01-.49-.52V4.54a.49.49 0 01.17-.39.52.52 0 01.38-.15 12.06 12.06 0 017.9 3.47A11.75 11.75 0 0118 11a11.48 11.48 0 011 4.24zm-4 0a.52.52 0 01-.15.42.53.53 0 01-.42.18h-1.21a.56.56 0 01-.38-.14.53.53 0 01-.18-.38 4.47 4.47 0 00-.66-2.23 5.86 5.86 0 00-4.5-2.86.54.54 0 01-.37-.18.53.53 0 01-.13-.37V8.5a.51.51 0 01.19-.41.53.53 0 01.38-.15 8.13 8.13 0 012.73.71 7.91 7.91 0 012.31 1.59 7.84 7.84 0 012.34 5zM9.75 13.3a1.57 1.57 0 010 2.24 1.64 1.64 0 01-2.28 0 1.57 1.57 0 010-2.24 1.64 1.64 0 012.28 0zm13.17-7.19h1.89a3 3 0 012.1.61 2.59 2.59 0 01.67 2q0 1.89-1.16 2.29l1.34 4.92h-1.27l-1.23-4.6h-1v4.6h-1.34zm1.81 4.22a1.72 1.72 0 001.22-.33 1.74 1.74 0 00.37-1.27 2.83 2.83 0 00-.13-1 .9.9 0 00-.45-.51 2.09 2.09 0 00-.92-.16h-.58v3.24zm4.63 4.94a3.53 3.53 0 01-.69-2.09l1.16-.33a3.9 3.9 0 00.35 1.53 1 1 0 001 .58 1 1 0 00.77-.3 1.25 1.25 0 00.26-.85 1.9 1.9 0 00-.24-1 4.22 4.22 0 00-.78-.88l-1.59-1.47a2.75 2.75 0 01-.69-.94 3.12 3.12 0 01-.21-1.23 2.26 2.26 0 01.59-1.67 2.55 2.55 0 013.3 0 3.19 3.19 0 01.69 1.91l-1.11.31a3.2 3.2 0 00-.32-1.33 1 1 0 00-.94-.47 1 1 0 00-.77.27 1.1 1.1 0 00-.27.81 1.72 1.72 0 00.14.73 2 2 0 00.48.6l1.59 1.45a4.91 4.91 0 011 1.23 3.09 3.09 0 01.37 1.51 2.31 2.31 0 01-.63 1.71 2.47 2.47 0 01-3.43-.13zm5.5 0a3.53 3.53 0 01-.69-2.09l1.16-.33a3.9 3.9 0 00.35 1.53 1 1 0 001 .58 1 1 0 00.77-.3 1.25 1.25 0 00.26-.85 1.9 1.9 0 00-.24-1 4.22 4.22 0 00-.78-.88l-1.59-1.47a2.75 2.75 0 01-.69-.94 3.12 3.12 0 01-.21-1.23 2.26 2.26 0 01.59-1.67 2.55 2.55 0 013.3 0 3.19 3.19 0 01.69 1.91l-1.11.31a3.2 3.2 0 00-.32-1.33 1 1 0 00-.94-.47 1 1 0 00-.77.27 1.1 1.1 0 00-.27.81 1.72 1.72 0 00.14.73 2 2 0 00.48.6l1.59 1.45a4.91 4.91 0 011 1.23 3.09 3.09 0 01.37 1.51 2.31 2.31 0 01-.63 1.71 2.47 2.47 0 01-3.43-.13z" fill="#fff"/></svg>