<svg id="i-weather5-w" xmlns="http://www.w3.org/2000/svg" width="21" height="21" viewBox="0 0 21 21"><defs><style>.cls-1{fill:#fff;fill-rule:evenodd;}</style></defs><title>i-weather5-w</title><path class="cls-1" d="M6.17,14.39a.77.77,0,0,0-.77.77v3.58a.77.77,0,0,0,1.54,0V15.16a.77.77,0,0,0-.77-.77ZM12.32,3.13a.77.77,0,0,0,.77-.77V.82a.77.77,0,0,0-1.54,0V2.36a.77.77,0,0,0,.77.77ZM7.68,4.95a.76.76,0,0,0,.54.23A.77.77,0,0,0,9,4.41a.76.76,0,0,0-.22-.54l-1-1A.77.77,0,1,0,6.65,3.92Zm8.74.23A.76.76,0,0,0,17,4.95l1-1a.77.77,0,0,0-.54-1.31.76.76,0,0,0-.54.23l-1,1a.76.76,0,0,0-.22.54.77.77,0,0,0,.77.77ZM15.3,11.66A4.35,4.35,0,1,0,8.8,5.94a5.35,5.35,0,0,0-7,4.79A3.84,3.84,0,0,0,3.61,18a.77.77,0,0,0,0-1.54,2.3,2.3,0,0,1-1.07-4.35l.77-.4.05-.87a3.83,3.83,0,0,1,6.84-2.13l.44.56.72,0a2.29,2.29,0,0,1,2.23,2.3v1l.94.4a1.79,1.79,0,0,1-.69,3.45.77.77,0,0,0,0,1.54,3.32,3.32,0,0,0,1.45-6.32Zm-.55-1.75a3.84,3.84,0,0,0-3.33-2.17,5.55,5.55,0,0,0-1.2-1.11,2.81,2.81,0,0,1,4.52,3.28Zm-6,6A.77.77,0,0,0,8,16.7v3.59a.77.77,0,0,0,1.54,0V16.7a.77.77,0,0,0-.77-.77ZM20,7.73H18.46a.77.77,0,1,0,0,1.54H20a.77.77,0,0,0,0-1.54Zm-8.71,6.66a.77.77,0,0,0-.77.77v3.58a.77.77,0,0,0,1.54,0V15.16a.77.77,0,0,0-.77-.77Zm0,0"/></svg>