<svg id="i-weather4-w" xmlns="http://www.w3.org/2000/svg" width="21" height="21" viewBox="0 0 21 21"><defs><style>.cls-1{fill:#fff;fill-rule:evenodd}</style></defs><title>i-weather4-w</title><path class="cls-1" d="M9.93 13.35c-.51 0-.93.4-.66.9v4.2c-.27.5.15.9.66.9s.93-.4 1.4-.9v-4.2c-.47-.5-.89-.9-1.4-.9zm-3.09-1.8c-.51 0-.93.4-.66.9v4.2c-.27.5.15.9.66.9s.93-.41 1.4-.9v-4.2c-.47-.5-.89-.9-1.4-.9zm6.16 0c-.51 0-.93.4-.66.9v4.2c-.27.5.15.9.66.9s.93-.41 1.4-.9v-4.2c-.47-.5-.89-.9-1.4-.9z"/><path class="cls-1" d="M18.33 8.25a4.56 4.56 0 0 0-4.48-4.49 6.53 6.53 0 0 0-5.09-2.41 6.4 6.4 0 0 0-6.47 5.91 4.48 4.48 0 0 0-2.49 4 4.57 4.57 0 0 0 4.63 4.5.9.9 0 1 0 0-1.8 2.74 2.74 0 0 1-2.25-4.38A1.74 1.74 0 0 1 2.86 9l1.21-.62.11-1.75a2.92 2.92 0 0 1 .93-2 4.92 4.92 0 0 1 7.28.23l.53.66 1.79.05a1.79 1.79 0 0 1 1.76 1.76v2.1l1.37.55a1.4 1.4 0 0 1 .63.47A2.14 2.14 0 0 1 16.78 14a.9.9 0 1 0 0 1.8 4 4 0 0 0 4-3.9 3.9 3.9 0 0 0-2.47-3.6z"/></svg>