<svg id="i-weather1-g" xmlns="http://www.w3.org/2000/svg" width="21" height="21" viewBox="0 0 21 21"><defs><style>.cls-1{fill:#666;fill-rule:evenodd;}</style></defs><title>i-weather1-g</title><path class="cls-1" d="M4,10.79A.8.8,0,0,0,3.24,10H1.7a.8.8,0,0,0-.77.79c0,.43.35.77.77,1.21H3.24c.42-.44.77-.78.77-1.21Zm.77,4.37a.76.76,0,0,0-.55.23l-1,1A.78.78,0,0,0,3,17a.77.77,0,0,0,1.32.54l1-1a.77.77,0,0,0-.55-1.32ZM9.93,4.88A1.46,1.46,0,0,0,11,4.1V2.56a1.46,1.46,0,0,0-1.07-.77A1.07,1.07,0,0,0,9,2.56V4.1a1.07,1.07,0,0,0,.93.77Zm5.14,1.54a.76.76,0,0,0,.55-.23l1-1a.78.78,0,0,0,.23-.55.77.77,0,0,0-.77-.77.78.78,0,0,0-.55.23l-1,1a.77.77,0,0,0,.55,1.32ZM4.24,6.19A.77.77,0,0,0,5.33,5.1l-1-1a.78.78,0,0,0-.55-.23.77.77,0,0,0-.54,1.32ZM18,10H16.46a.8.8,0,0,0-.77.79c0,.43.35.77.77,1.21H18c.42-.44.77-.78.77-1.21A.77.77,0,0,0,18,10Zm-2.38,5.39a.77.77,0,0,0-1.09,1.09l1,1a.78.78,0,0,0,.55.23.77.77,0,0,0,.77-.77.78.78,0,0,0-.23-.55ZM9.93,16.7a1.07,1.07,0,0,0-.93.77V19a1.07,1.07,0,0,0,.93.77A1.46,1.46,0,0,0,11,19V17.47a1.46,1.46,0,0,0-1.07-.77Zm0-11.31a5.4,5.4,0,1,0,5.4,5.4,5.4,5.4,0,0,0-5.4-5.4Zm0,9.26a3.86,3.86,0,1,1,3.86-3.86,3.86,3.86,0,0,1-3.86,3.86Zm0,0"/></svg>