<svg id="i-weather6-g" xmlns="http://www.w3.org/2000/svg" width="21" height="21" viewBox="0 0 21 21"><defs><style>.cls-1{fill:#666;fill-rule:evenodd}</style></defs><title>i-weather6-g</title><path class="cls-1" d="M13.37 15h-2.05v-2.9c.1-.17 0-.3-.21-.3a.31.31 0 0 0-.27.15l-2.47 4.2a.28.28 0 0 0 0 .15c0 .16.14.3.31.7h1.65v2.3c-.1.16 0 .3.21.3a.31.31 0 0 0 .27-.15l2.47-4.2a.29.29 0 0 0 0-.15c0-.17-.14-.3.1-.3zm5.46-6.5A4.56 4.56 0 0 0 14.35 4a6.53 6.53 0 0 0-5.09-2.4 6.4 6.4 0 0 0-6.47 5.91 4.48 4.48 0 0 0-2.49 4A4.57 4.57 0 0 0 4.93 16h1.24a.91.91 0 0 0 .93-.9 1.29 1.29 0 0 0-.93-1.1H4.93a2.47 2.47 0 0 1-2.78-2.5 2.68 2.68 0 0 1 1.5-2.39l.93-.47.06-1A4.58 4.58 0 0 1 9.26 3.4a4.66 4.66 0 0 1 3.64 1.72l.53.66h.86a3.71 3.71 0 0 1 3.2 2.69V9.7l.63.46a2.1 2.1 0 0 1 1.33 1.94 1.87 1.87 0 0 1-2.16 1.9h-1.86a1.29 1.29 0 0 0-.93 1.1.91.91 0 0 0 .93.9h1.85a4 4 0 0 0 4-3.9 3.9 3.9 0 0 0-2.47-3.6zm0 0"/></svg>