<svg id="i-weather5-g" xmlns="http://www.w3.org/2000/svg" width="21" height="21"><path d="M6.17 14.39a.77.77 0 00-.77.77v3.58a.77.77 0 001.54 0v-3.58a.77.77 0 00-.77-.77zm6.15-11.26a.77.77 0 00.77-.77V.82a.77.77 0 00-1.54 0v1.54a.77.77 0 00.77.77zM7.68 4.95a.76.76 0 00.54.23.77.77 0 00.78-.77.76.76 0 00-.22-.54l-1-1a.77.77 0 10-1.13 1.05zm8.74.23a.76.76 0 00.58-.23l1-1a.77.77 0 00-.54-1.31.76.76 0 00-.54.23l-1 1a.76.76 0 00-.22.54.77.77 0 00.77.77zm-1.12 6.48a4.35 4.35 0 10-6.5-5.72 5.35 5.35 0 00-7 4.79A3.84 3.84 0 003.61 18a.77.77 0 000-1.54 2.3 2.3 0 01-1.07-4.35l.77-.4.05-.87a3.83 3.83 0 016.84-2.13l.44.56h.72a2.29 2.29 0 012.23 2.3v1l.94.4a1.79 1.79 0 01-.69 3.45.77.77 0 000 1.54 3.32 3.32 0 001.45-6.32zm-.55-1.75a3.84 3.84 0 00-3.33-2.17 5.55 5.55 0 00-1.2-1.11 2.81 2.81 0 014.52 3.28zm-6 6a.77.77 0 00-.75.79v3.59a.77.77 0 001.54 0V16.7a.77.77 0 00-.77-.77zM20 7.73h-1.54a.77.77 0 100 1.54H20a.77.77 0 000-1.54zm-8.71 6.66a.77.77 0 00-.77.77v3.58a.77.77 0 001.54 0v-3.58a.77.77 0 00-.77-.77zm0 0" fill="#666" fill-rule="evenodd"/></svg>