<svg id="i-weather1-g" xmlns="http://www.w3.org/2000/svg" width="21" height="21" viewBox="0 0 21 21"><defs><style>.cls-1{fill:#666;fill-rule:evenodd}</style></defs><title>i-weather1-g</title><path class="cls-1" d="M4 10.79a.8.8 0 0 0-.76-.79H1.7a.8.8 0 0 0-.77.79c0 .43.35.77.77 1.21h1.54c.42-.44.77-.78.77-1.21zm.77 4.37a.76.76 0 0 0-.55.23l-1 1A.78.78 0 0 0 3 17a.77.77 0 0 0 1.32.54l1-1a.77.77 0 0 0-.55-1.32zM9.93 4.88A1.46 1.46 0 0 0 11 4.1V2.56a1.46 1.46 0 0 0-1.07-.77 1.07 1.07 0 0 0-.93.77V4.1a1.07 1.07 0 0 0 .93.77zm5.14 1.54a.76.76 0 0 0 .55-.23l1-1a.78.78 0 0 0 .23-.55.77.77 0 0 0-.77-.77.78.78 0 0 0-.55.23l-1 1a.77.77 0 0 0 .55 1.32zM4.24 6.19A.77.77 0 0 0 5.33 5.1l-1-1a.78.78 0 0 0-.55-.23.77.77 0 0 0-.54 1.32zM18 10h-1.54a.8.8 0 0 0-.77.79c0 .43.35.77.77 1.21H18c.42-.44.77-.78.77-1.21A.77.77 0 0 0 18 10zm-2.38 5.39a.77.77 0 0 0-1.09 1.09l1 1a.78.78 0 0 0 .55.23.77.77 0 0 0 .77-.77.78.78 0 0 0-.23-.55zM9.93 16.7a1.07 1.07 0 0 0-.93.77V19a1.07 1.07 0 0 0 .93.77A1.46 1.46 0 0 0 11 19v-1.53a1.46 1.46 0 0 0-1.07-.77zm0-11.31a5.4 5.4 0 1 0 5.4 5.4 5.4 5.4 0 0 0-5.4-5.4zm0 9.26a3.86 3.86 0 1 1 3.86-3.86 3.86 3.86 0 0 1-3.86 3.86zm0 0"/></svg>