<svg id="i-weather3-g" xmlns="http://www.w3.org/2000/svg" width="21" height="21"><path d="M12.76 4.44a.77.77 0 00.77-.77V2.12a.77.77 0 10-1.54 0v1.55a.77.77 0 00.77.77zm3 8.57a4.36 4.36 0 10-6.5-5.75A5.3 5.3 0 007.63 7a5.38 5.38 0 00-5.36 5.07A3.86 3.86 0 004 19.35h10.29A3.34 3.34 0 0015.74 13zm-3-6a2.82 2.82 0 012.43 4.24 3.84 3.84 0 00-3.33-2.18A5.48 5.48 0 0010.66 8a2.79 2.79 0 012.1-1zm1.54 10.8H4a2.32 2.32 0 01-1-4.37l.77-.4.05-.87A3.83 3.83 0 0110.65 10l.44.56h.72A2.3 2.3 0 0114 12.92v1l.94.4a1.8 1.8 0 01-.69 3.46zm2.55-11.32a.76.76 0 00.54-.23l1-1a.77.77 0 00-.54-1.32.76.76 0 00-.54.23l-1 1a.77.77 0 00.54 1.32zm-8.74-.22a.76.76 0 00.54.23.77.77 0 00.77-.77.76.76 0 00-.22-.55l-1-1a.76.76 0 00-.54-.23.77.77 0 00-.77.77.76.76 0 00.23.55zm12.32 2.8H18.9a.77.77 0 000 1.54h1.54a.77.77 0 000-1.54zm0 0" fill="#666" fill-rule="evenodd"/></svg>