<svg xmlns="http://www.w3.org/2000/svg" width="46" height="20"><rect width="46" height="20" rx="3" ry="3" fill="#feda51"/><path d="M9.39 10.54l-1.95 4.38H6l2.14-4.68a3.16 3.16 0 0 1-1.65-3.15A3.25 3.25 0 0 1 9.81 3.5h1.84v11.42h-1.23v-4.38zm1-6h-.63c-1 0-1.95.65-1.95 2.56s.88 2.43 1.95 2.43h.65z" fill="red"/><path d="M17.57 6.87v8h-1.23v-3.56h-1.85v3.61h-1.25v-8h1.25v3.42h1.85V6.87zM24 16.5h-1.14v-1.58h-3.45v1.58h-1.12v-2.6h.5a17.5 17.5 0 0 0 .81-6.34v-.69h3.74v7H24zm-1.89-8.62h-1.39V8a17.76 17.76 0 0 1-.72 5.9h2.14zm5.3 7.12c-1.66 0-2.68-1.33-2.68-3.8s.72-4.47 2.43-4.47c1.34 0 2.22 1 2.22 3.74v.69H26C26 13 26.53 14 27.52 14a2.79 2.79 0 0 0 1.58-.54l.29 1a3.17 3.17 0 0 1-1.98.54zM26 10.16h2.06c0-1.37-.22-2.38-.94-2.38s-1.01.94-1.12 2.38zm5.86.75v4h-1.21v-8h1.25v3.72l1.93-3.72h1.26l-2 3.79 2.28 4.26H34zm3.64 0c0-2.52 1-4.14 2.86-4.14a2.53 2.53 0 0 1 1.49.42l-.18 1.18a2.13 2.13 0 0 0-1.33-.56c-.89 0-1.53 1-1.53 3S37.33 14 38.33 14a2 2 0 0 0 1.36-.5l.29.93a2.44 2.44 0 0 1-1.68.57c-1.73 0-2.76-1.36-2.76-4.11z"/></svg>