<svg xmlns="http://www.w3.org/2000/svg" width="46" height="20" viewBox="0 0 46 20"><defs><style>.a{fill:#feda51;}.b{fill:red;}</style></defs><title>i-yandex</title><rect class="a" width="46" height="20" rx="3" ry="3"/><path class="b" d="M9.39,10.54,7.44,14.92H6l2.14-4.68A3.16,3.16,0,0,1,6.49,7.09,3.25,3.25,0,0,1,9.81,3.5h1.84V14.92H10.42V10.54Zm1-6H9.76c-1,0-1.95.65-1.95,2.56s.88,2.43,1.95,2.43h.65Z" transform="translate(0 0)"/><path d="M17.57,6.87v8H16.34V11.31H14.49v3.61H13.24v-8h1.25v3.42h1.85V6.87ZM24,16.5H22.86V14.92H19.41V16.5H18.29V13.9h.5a17.5,17.5,0,0,0,.81-6.34V6.87h3.74v7H24ZM22.11,7.88H20.72V8A17.76,17.76,0,0,1,20,13.9h2.14ZM27.41,15c-1.66,0-2.68-1.33-2.68-3.8s.72-4.47,2.43-4.47c1.34,0,2.22,1,2.22,3.74v.69H26C26,13,26.53,14,27.52,14a2.79,2.79,0,0,0,1.58-.54l.29,1A3.17,3.17,0,0,1,27.41,15ZM26,10.16h2.06c0-1.37-.22-2.38-.94-2.38S26.11,8.72,26,10.16Zm5.86.75v4H30.65v-8H31.9v3.72l1.93-3.72h1.26l-2,3.79,2.28,4.26H34Zm3.64,0c0-2.52,1-4.14,2.86-4.14a2.53,2.53,0,0,1,1.49.42l-.18,1.18a2.13,2.13,0,0,0-1.33-.56c-.89,0-1.53,1-1.53,3S37.33,14,38.33,14a2,2,0,0,0,1.36-.5l.29.93A2.44,2.44,0,0,1,38.3,15C36.57,15,35.54,13.64,35.54,10.89Z" transform="translate(0 0)"/></svg>