<svg xmlns="http://www.w3.org/2000/svg" width="26" height="32" viewBox="0 0 26 32"><defs><style>.cls-1,.cls-3{fill:#0068b8;}.cls-1{fill-rule:evenodd;}.cls-2{fill:#fff;}</style></defs><title>ic-air</title><g id="bk"><path class="cls-1" d="M13,0a13,13,0,0,1,10.08,21.2C20.7,24.13,13,32,13,32S5.24,24.1,2.86,21.14A13,13,0,0,1,13,0Z" transform="translate(0 0)"/><circle class="cls-2" cx="13" cy="13" r="11"/></g><g id="air"><path class="cls-3" d="M19.92,14.76l-2.82.83L13.55,12l7-3.83L19.26,6.94,11,9.45,8.16,6.6c-.5-.5-1.57-.83-2-.42s0,1.58.41,2L9.42,11l-2.5,8.3,1.24,1.25,3.81-7,3.56,3.58-.83,2.75L15.78,21l1.74-3.25.25-.25L21,15.76Z" transform="translate(0 0)"/></g></svg>