<svg xmlns="http://www.w3.org/2000/svg" width="26" height="32"><path d="M13 0a13 13 0 0110.08 21.2C20.7 24.13 13 32 13 32S5.24 24.1 2.86 21.14A13 13 0 0113 0z" fill-rule="evenodd" fill="#0068b8"/><circle cx="13" cy="13" r="11" fill="#fff"/><path d="M18 13.53q.26.13.41 0t-.15-.28L15.5 12a.77.77 0 00-.59 0l-.94.29a1.9 1.9 0 01-.5.1q-.18 0-.18-.33V9q0-.29.33-.29h7.06a.29.29 0 00.32-.28v-1a.38.38 0 00-.29-.43l-7.45-2.12a1 1 0 00-.62 0L5.29 7a.38.38 0 00-.29.42v1a.29.29 0 00.33.33h7q.33 0 .33.29v3a.29.29 0 01-.33.33h-.13a.72.72 0 01-.52-.23l-1.74-1.63a.72.72 0 00-.52-.23h-.78a.53.53 0 01-.47-.21.48.48 0 00-.42-.21q-.28 0-.08.23a.46.46 0 010 .52l-.85 1.3a.36.36 0 00.07.49h.07a.4.4 0 00.52.07l.88-.46a.3.3 0 01.46.1l1 1.53a.31.31 0 01-.1.46l-.42.39a.45.45 0 00-.2.49l.59 2.54a.27.27 0 00.39.23l.39-.1q.33-.07.26-.36l-.42-1.72a.29.29 0 01.26-.39l1-.26a2.15 2.15 0 01.62-.1h.13a.29.29 0 01.33.33v3a.29.29 0 01-.33.33h-7q-.33 0-.33.29v1a.29.29 0 00.33.33h15.22a.29.29 0 00.33-.33v-1q0-.29-.33-.29h-6.92q-.33 0-.33-.29v-3a.29.29 0 01.33-.33H14a1.94 1.94 0 01.62.1l1 .26q.29.07.23.39l-.39 1.72a.27.27 0 00.23.36l.42.1q.29.1.36-.23L17 15a.47.47 0 00-.16-.49.75.75 0 01-.26-.52v-.88a.21.21 0 01.07-.18.23.23 0 01.2 0z" fill="#0068b8"/></svg>