<svg xmlns="http://www.w3.org/2000/svg" width="26" height="32"><g id="bk"><path d="M13 0a13 13 0 0110.08 21.2C20.7 24.13 13 32 13 32S5.24 24.1 2.86 21.14A13 13 0 0113 0z" fill-rule="evenodd" fill="#0068b8"/><circle cx="13" cy="13" r="11" fill="#fff"/></g><path d="M20.28 18a.65.65 0 00-.51-.16 17.5 17.5 0 01-2.86.14 8 8 0 01-2.05-.38L12.58 11a25.83 25.83 0 015-1.09.65.65 0 00.5-.94 6.6 6.6 0 00-7.4-3.37l-.05-.16a.65.65 0 00-.82-.4.65.65 0 00-.4.82l.05.14a6.6 6.6 0 00-3.71 7.22.65.65 0 001 .42 23.6 23.6 0 014.61-2.24l1.92 5.49a8.69 8.69 0 00-5-1 4.77 4.77 0 00-2.61 1.6.65.65 0 00-.16.43v1.4a.65.65 0 00.65.65h13.7a.65.65 0 00.65-.65v-.89a.65.65 0 00-.23-.43z" fill="#0068b8" id="beach"/></svg>