<svg xmlns="http://www.w3.org/2000/svg" width="26" height="32"><defs><style>.cls-3{fill:#0068b8}</style></defs><g id="bk"><path d="M13 0a13 13 0 0 1 10.08 21.2C20.7 24.13 13 32 13 32S5.24 24.1 2.86 21.14A13 13 0 0 1 13 0z" fill-rule="evenodd" fill="#0068b8"/><circle cx="13" cy="13" r="11" fill="#fff"/></g><g id="book"><path class="cls-3" d="M7.45 6.89a.56.56 0 0 0-.4.17.57.57 0 0 0-.17.41V16a.57.57 0 0 0 .57.57 7.08 7.08 0 0 1 5.11 1.89v-9a.55.55 0 0 0-.08-.29c-1.27-1.97-3.7-2.28-5.03-2.28zM19.12 16V7.46a.57.57 0 0 0-.12-.41.56.56 0 0 0-.4-.17c-1.34 0-3.77.31-5 2.35a.55.55 0 0 0-.08.29v9a7.08 7.08 0 0 1 5.11-1.89.57.57 0 0 0 .49-.63z"/><path class="cls-3" d="M20.43 8.87H20V16a1.46 1.46 0 0 1-1.46 1.46 6.35 6.35 0 0 0-4.3 1.54 13.78 13.78 0 0 1 6.06.12.57.57 0 0 0 .7-.56V9.44a.57.57 0 0 0-.57-.57zM6 16V8.87h-.43a.57.57 0 0 0-.57.57v9.1a.57.57 0 0 0 .7.56 13.78 13.78 0 0 1 6.06-.1 6.35 6.35 0 0 0-4.31-1.47A1.46 1.46 0 0 1 6 16z"/></g></svg>