<svg xmlns="http://www.w3.org/2000/svg" width="26" height="32" viewBox="0 0 26 32"><defs><style>.cls-1,.cls-3{fill:#0068b8}.cls-1{fill-rule:evenodd}.cls-2{fill:#fff}</style></defs><title>ic-biz</title><g id="bk"><path class="cls-1" d="M13 0a13 13 0 0 1 10.08 21.2C20.7 24.13 13 32 13 32S5.24 24.1 2.86 21.14A13 13 0 0 1 13 0z"/><circle class="cls-2" cx="13" cy="13" r="11"/></g><g id="biz"><path class="cls-3" d="M6 16.67v2.43a.27.27 0 0 0 .27.27h1.9a.27.27 0 0 0 .27-.27v-4.28l-1.37 1.37a1.66 1.66 0 0 1-1.07.48zm3.38-1.88v4.31a.27.27 0 0 0 .27.27h1.88a.27.27 0 0 0 .27-.27v-2.54a1.64 1.64 0 0 1-1.13-.48zm3.36 1.5v2.8a.27.27 0 0 0 .27.27h1.88a.27.27 0 0 0 .27-.27v-5.17L13 16.08a1.61 1.61 0 0 1-.26.21zm5.59-5.55L16.09 13v6.1a.27.27 0 0 0 .27.27h1.88a.27.27 0 0 0 .27-.27v-8.19l-.14-.13z"/><path class="cls-3" d="M19.87 6.77a.52.52 0 0 0-.4-.14l-2.62.12a.57.57 0 0 0-.4.14.46.46 0 0 0-.1.14.45.45 0 0 0 .14.55l.22.22.46.46-5.29 5.29-2.42-2.37a.76.76 0 0 0-1.07 0l-3.17 3.16a.76.76 0 0 0 0 1.07l.14.14a.76.76 0 0 0 1.07 0l2.49-2.49 2.38 2.38a.76.76 0 0 0 1.07 0l6-6 .67.67a.51.51 0 0 0 .36.19.45.45 0 0 0 .22-.06l.13-.1a.63.63 0 0 0 .16-.43c0-.57.05-1.13.08-1.7v-.85a.53.53 0 0 0-.12-.39z"/></g></svg>