<svg xmlns="http://www.w3.org/2000/svg" width="26" height="32"><defs><style>.cls-3{fill:#0068b8}</style></defs><g id="bk"><path d="M13 0a13 13 0 0110.08 21.2C20.7 24.13 13 32 13 32S5.24 24.1 2.86 21.14A13 13 0 0113 0z" fill-rule="evenodd" fill="#0068b8"/><circle cx="13" cy="13" r="11" fill="#fff"/></g><g id="conf"><path class="cls-3" d="M13 11.26a3.13 3.13 0 10-3.13-3.13A3.13 3.13 0 0013 11.26zM11.49 7.8a.47.47 0 01.67 0l.45.45L13.84 7a.47.47 0 11.67.67l-1.57 1.58a.47.47 0 01-.67 0l-.79-.79a.47.47 0 01.01-.66zM6.84 9.57A1.84 1.84 0 105 7.73a1.84 1.84 0 001.84 1.84zm-1.66 2.64V16a1.59 1.59 0 001.59 1.59h2.07v2.82a.39.39 0 00.39.39h1.84a.39.39 0 00.39-.39v-4.04A1.34 1.34 0 0010.12 15H8.5v-2.79a1.66 1.66 0 00-3.32 0zm13.98-2.64a1.84 1.84 0 10-1.84-1.84 1.84 1.84 0 001.84 1.84zm-1.66 2.64V15h-1.62a1.34 1.34 0 00-1.34 1.34v4.07a.39.39 0 00.39.39h1.84a.39.39 0 00.39-.39v-2.79h2.07A1.59 1.59 0 0020.82 16v-3.79a1.66 1.66 0 00-3.32 0z"/><path class="cls-3" d="M15.75 13.18a.47.47 0 100-.95h-5.5a.47.47 0 000 .95h2.28v7.35a.47.47 0 10.95 0v-7.35z"/></g></svg>