<svg xmlns="http://www.w3.org/2000/svg" width="26" height="32" viewBox="0 0 26 32"><defs><style>.cls-1,.cls-3{fill:#0068b8;}.cls-1{fill-rule:evenodd;}.cls-2{fill:#fff;}</style></defs><title>ic-hotel5</title><g id="bk"><path class="cls-1" d="M13,0a13,13,0,0,1,10.08,21.2C20.7,24.13,13,32,13,32S5.24,24.1,2.86,21.14A13,13,0,0,1,13,0Z" transform="translate(0 0)"/><circle class="cls-2" cx="13" cy="13" r="11"/></g><g id="hotel5"><path class="cls-3" d="M16.5,5.25a.31.31,0,0,1-.11.2L14.86,6.94,15.23,9a.73.73,0,0,1,0,.08.25.25,0,0,1,0,.15.15.15,0,0,1-.13.06.34.34,0,0,1-.17-.05L13,8.29l-1.89,1a.36.36,0,0,1-.17.05.15.15,0,0,1-.13-.06.25.25,0,0,1,0-.15.7.7,0,0,1,0-.08l.36-2.1L9.61,5.45a.32.32,0,0,1-.11-.2q0-.16.24-.19l2.11-.31.95-1.91q.08-.17.21-.17t.21.17l.95,1.91,2.11.31Q16.5,5.09,16.5,5.25Z" transform="translate(0 0)"/><path class="cls-3" d="M10.33,9.77a.31.31,0,0,1-.11.2L8.7,11.46l.36,2.1a.73.73,0,0,1,0,.08.25.25,0,0,1,0,.15.15.15,0,0,1-.13.06.34.34,0,0,1-.17-.05l-1.89-1-1.89,1a.36.36,0,0,1-.17.05.15.15,0,0,1-.13-.06.25.25,0,0,1,0-.15.7.7,0,0,1,0-.08L5,11.46,3.44,10a.32.32,0,0,1-.11-.2q0-.16.24-.19l2.11-.31.95-1.91q.08-.17.21-.17T7,7.36L8,9.27l2.11.31Q10.33,9.62,10.33,9.77Z" transform="translate(0 0)"/><path class="cls-3" d="M22.75,9.77a.31.31,0,0,1-.11.2l-1.53,1.49.36,2.1a.73.73,0,0,1,0,.08.25.25,0,0,1,0,.15.15.15,0,0,1-.13.06.34.34,0,0,1-.17-.05l-1.89-1-1.89,1a.36.36,0,0,1-.17.05.15.15,0,0,1-.13-.06.25.25,0,0,1,0-.15.7.7,0,0,1,0-.08l.36-2.1L15.86,10a.32.32,0,0,1-.11-.2q0-.16.24-.19l2.11-.31L19,7.36q.08-.17.21-.17t.21.17l.95,1.91,2.11.31Q22.75,9.62,22.75,9.77Z" transform="translate(0 0)"/><path class="cls-3" d="M12.5,17.08a.31.31,0,0,1-.11.2l-1.53,1.49.36,2.1a.73.73,0,0,1,0,.08.25.25,0,0,1,0,.15.15.15,0,0,1-.13.06.34.34,0,0,1-.17-.05L9,20.13l-1.89,1a.36.36,0,0,1-.17.05.15.15,0,0,1-.13-.06.25.25,0,0,1,0-.15.7.7,0,0,1,0-.08l.36-2.1L5.61,17.28a.32.32,0,0,1-.11-.2q0-.16.24-.19l2.11-.31.95-1.91q.08-.17.21-.17t.21.17l.95,1.91,2.11.31Q12.5,16.93,12.5,17.08Z" transform="translate(0 0)"/><path class="cls-3" d="M20.5,17.08a.31.31,0,0,1-.11.2l-1.53,1.49.36,2.1a.73.73,0,0,1,0,.08.25.25,0,0,1,0,.15.15.15,0,0,1-.13.06.34.34,0,0,1-.17-.05l-1.89-1-1.89,1a.36.36,0,0,1-.17.05.15.15,0,0,1-.13-.06.25.25,0,0,1,0-.15.7.7,0,0,1,0-.08l.36-2.1-1.53-1.49a.32.32,0,0,1-.11-.2q0-.16.24-.19l2.11-.31.95-1.91q.08-.17.21-.17t.21.17l.95,1.91,2.11.31Q20.5,16.93,20.5,17.08Z" transform="translate(0 0)"/></g></svg>