<svg xmlns="http://www.w3.org/2000/svg" width="26" height="32"><path d="M13 0a13 13 0 0 1 10.08 21.2C20.7 24.13 13 32 13 32S5.24 24.1 2.86 21.14A13 13 0 0 1 13 0z" fill-rule="evenodd" fill="#0068b8"/><circle cx="13" cy="13" r="11" fill="#fff"/><path d="M11.5 12.25a.31.31 0 0 1-.11.2l-1.53 1.49.36 2.1a.73.73 0 0 1 0 .08.25.25 0 0 1 0 .15.15.15 0 0 1-.13.06.34.34 0 0 1-.17-.05L8 15.29l-1.89 1a.36.36 0 0 1-.17.05.15.15 0 0 1-.13-.06.25.25 0 0 1 0-.15.7.7 0 0 1 0-.08l.36-2.1-1.56-1.5a.32.32 0 0 1-.11-.2q0-.16.24-.19l2.11-.31.95-1.91q.08-.17.21-.17t.21.17l.95 1.91 2.11.31q.22.03.22.19zm10 0a.31.31 0 0 1-.11.2l-1.53 1.49.36 2.1a.73.73 0 0 1 0 .08.25.25 0 0 1 0 .15.15.15 0 0 1-.13.06.34.34 0 0 1-.17-.05l-1.89-1-1.89 1a.36.36 0 0 1-.17.05.15.15 0 0 1-.13-.06.25.25 0 0 1 0-.15.7.7 0 0 1 0-.08l.36-2.1-1.53-1.49a.32.32 0 0 1-.11-.2q0-.16.24-.19l2.11-.31.95-1.91q.08-.17.21-.17t.21.17l.95 1.91 2.11.31q.16.03.16.19z" fill="#0068b8"/></svg>