<svg xmlns="http://www.w3.org/2000/svg" width="26" height="32"><defs><style>.cls-3{fill:#0068b8}</style></defs><g id="bk"><path d="M13 0a13 13 0 0 1 10.08 21.2C20.7 24.13 13 32 13 32S5.24 24.1 2.86 21.14A13 13 0 0 1 13 0z" fill-rule="evenodd" fill="#0068b8"/><circle cx="13" cy="13" r="11" fill="#fff"/></g><g id="museum"><path class="cls-3" d="M17.86 5.5H8.14a2.64 2.64 0 0 0 0 5.27h.5a2.64 2.64 0 0 0 1.95-1.59h4.84a2.64 2.64 0 0 0 1.95 1.59h.5a2.64 2.64 0 1 0 0-5.27zm0 4.39a1.76 1.76 0 0 1-1.7-1.31l-.09-.33H9.92l-.09.33a1.76 1.76 0 1 1-1.7-2.2h9.73a1.76 1.76 0 1 1 0 3.52z"/><path class="cls-3" d="M17.86 6.91H8.14a1.23 1.23 0 1 0 1.23 1.23h-.88a.35.35 0 1 1-.35-.35h9.73a.35.35 0 1 1-.35.35h-.88a1.23 1.23 0 1 0 1.23-1.23zm-1.97 3.85a3.51 3.51 0 0 1-1-1h-3.78a3.52 3.52 0 0 1-3 1.64H8v9.1h10v-9.14h-.12a3.5 3.5 0 0 1-1.99-.6zm-4.8 7.4h-.88v-6.92h.88zm2.34 0h-.88v-6.92h.88zm2.34 0h-.88v-6.92h.88z"/></g></svg>