<svg xmlns="http://www.w3.org/2000/svg" width="26" height="32" viewBox="0 0 26 32"><defs><style>.cls-1,.cls-3{fill:#0068b8;}.cls-1{fill-rule:evenodd;}.cls-2{fill:#fff;}</style></defs><title>ic-nmn</title><g id="bk"><path class="cls-1" d="M13,0a13,13,0,0,1,10.08,21.2C20.7,24.13,13,32,13,32S5.24,24.1,2.86,21.14A13,13,0,0,1,13,0Z" transform="translate(0 0)"/><circle class="cls-2" cx="13" cy="13" r="11"/></g><g id="mnm"><path class="cls-3" d="M16.48,18.36V16.44h-.82v-.77h-.77V9.75H14.4V8.06a.47.47,0,0,0,0-.09.69.69,0,0,0-.3-.53v0a.35.35,0,0,0,0-.07A.5.5,0,0,0,13.95,7V6.81a.34.34,0,0,0,0-.06.48.48,0,0,0-.24-.39V6.28a.3.3,0,0,0,0,0,.38.38,0,0,0-.21-.32v0a.29.29,0,0,0,0,0,.31.31,0,0,0-.22-.26l-.16-.36V3.5h-.24V5.23l-.16.35c-.14.06-.22.15-.22.26a.16.16,0,0,0,0,0v0a.38.38,0,0,0-.22.32.2.2,0,0,0,0,0v.08a.49.49,0,0,0-.24.39.26.26,0,0,0,0,.06V7a.5.5,0,0,0-.16.35.36.36,0,0,0,0,.07v0a.69.69,0,0,0-.3.53.6.6,0,0,0,0,.09V9.75h-.49v5.92h-.78v.77H9.52v1.91H9V21.5h3.19V20.07h1.62V21.5H17V18.36Z" transform="translate(0 0)"/></g></svg>