<svg xmlns="http://www.w3.org/2000/svg" width="26" height="32"><g id="bk"><path d="M13 0a13 13 0 0110.08 21.2C20.7 24.13 13 32 13 32S5.24 24.1 2.86 21.14A13 13 0 0113 0z" fill-rule="evenodd" fill="#0068b8"/><circle cx="13" cy="13" r="11" fill="#fff"/></g><path d="M16.48 18.36v-1.92h-.82v-.77h-.77V9.75h-.49V8.06a.47.47 0 000-.09.69.69 0 00-.3-.53.35.35 0 000-.07.5.5 0 00-.15-.37v-.19a.34.34 0 000-.06.48.48 0 00-.24-.39v-.08a.38.38 0 00-.21-.32.31.31 0 00-.22-.26l-.16-.36V3.5h-.24v1.73l-.16.35c-.14.06-.22.15-.22.26a.38.38 0 00-.22.32v.08a.49.49 0 00-.24.39.26.26 0 000 .06V7a.5.5 0 00-.16.35.36.36 0 000 .07.69.69 0 00-.3.53.6.6 0 000 .09v1.71h-.49v5.92h-.78v.77h-.79v1.91H9v3.15h3.19v-1.43h1.62v1.43H17v-3.14z" fill="#0068b8" id="mnm"/></svg>