<svg xmlns="http://www.w3.org/2000/svg" width="26" height="32" viewBox="0 0 26 32"><defs><style>.cls-1,.cls-3{fill:#0068b8;}.cls-1{fill-rule:evenodd;}.cls-2{fill:#fff;}</style></defs><title>i-park</title><g id="bk"><path class="cls-1" d="M13,0a13,13,0,0,1,10.08,21.2C20.7,24.13,13,32,13,32S5.24,24.1,2.86,21.14A13,13,0,0,1,13,0Z" transform="translate(0 0)"/><circle class="cls-2" cx="13" cy="13" r="11"/></g><g id="park"><path class="cls-3" d="M20.43,13.74l-.52,0a12.27,12.27,0,0,0-1.24.07l0-1.81a1.78,1.78,0,0,0,1.66-3.1,1.54,1.54,0,0,0-1-1.72,1.54,1.54,0,1,0-3-.55v0a1.54,1.54,0,0,0-1,2.57,1.78,1.78,0,0,0,1.83,3l0,1.85a23,23,0,0,0-3.36,1A32.9,32.9,0,0,0,8,17.75a17.43,17.43,0,0,0-1.72,1.17c-.64.51-.67.69-.65.81a.24.24,0,0,0,.27.19H20.38a.63.63,0,0,0,.37-.12.67.67,0,0,0,.24-.58v-4.9A.54.54,0,0,0,20.43,13.74Z" transform="translate(0 0)"/><path class="cls-3" d="M13,14.13a.28.28,0,0,0,.17-.23.22.22,0,0,0-.1-.21A12.59,12.59,0,0,0,9.7,12.41l0-1.53a1.37,1.37,0,0,0,1.25-2.4,1.2,1.2,0,0,0-.75-1.3A1.2,1.2,0,1,0,7.83,6.8a1.2,1.2,0,0,0-.74,2A1.37,1.37,0,0,0,8.47,11l0,1.11a11.85,11.85,0,0,0-2-.21c-1,0-1.45.22-1.45.66V18c0,.21.13.31.26.31a.34.34,0,0,0,.21-.08l.18-.14a18.5,18.5,0,0,1,1.83-1.25A34.12,34.12,0,0,1,13,14.13Z" transform="translate(0 0)"/></g></svg>