<svg xmlns="http://www.w3.org/2000/svg" width="26" height="32"><g id="bk"><path d="M13 0a13 13 0 0110.08 21.2C20.7 24.13 13 32 13 32S5.24 24.1 2.86 21.14A13 13 0 0113 0z" fill-rule="evenodd" fill="#0068b8"/><circle cx="13" cy="13" r="11" fill="#fff"/></g><path d="M19.62 20.42l-2.49-4.54a1.48 1.48 0 001.23-1.45V7.74a3.24 3.24 0 00-3.24-3.24h-4.24a3.28 3.28 0 00-3.27 3.27v6.66a1.45 1.45 0 001.23 1.45l-2.46 4.54a.73.73 0 00.3 1 .55.55 0 00.32.08.72.72 0 00.63-.37l.22-.37h10.28l.22.37a.69.69 0 00.63.37 1.09 1.09 0 00.33-.07.73.73 0 00.31-1.01zm-3.5-3.35H9.88l.63-1.15h5zM16 14.58a1.08 1.08 0 111.08-1.08A1.1 1.1 0 0116 14.58zm-7.09-6.4A2.07 2.07 0 0111 6.1h4a2.1 2.1 0 012.08 2.08V10a.72.72 0 01-.74.71H9.65a.71.71 0 01-.7-.71V8.21zM10 12.39a1.08 1.08 0 11-1.08 1.08A1.08 1.08 0 0110 12.39zm-1.54 7.25l.82-1.45h7.44l.82 1.45z" fill="#0068b8" id="rail"/></svg>