<svg xmlns="http://www.w3.org/2000/svg" width="26" height="32"><path d="M13 0a13 13 0 0110.08 21.2C20.7 24.13 13 32 13 32S5.24 24.1 2.86 21.14A13 13 0 0113 0z" fill-rule="evenodd" fill="#0068b8"/><circle cx="13" cy="13" r="11" fill="#fff"/><path d="M21.41 13.35a.46.46 0 00-.36-.18h-1.34v-4a.42.42 0 00-.45-.45h-.45V7.36a.42.42 0 00-.45-.45h-.45V6A.455.455 0 0017 6v.89h-1.32a.42.42 0 00-.45.45V8.7h-.45a.42.42 0 00-.45.45v.45H5.84a.42.42 0 00-.45.45v3.13h-.44a.46.46 0 00-.36.18.67.67 0 00-.09.45l1.79 5.37a.49.49 0 00.45.27h12.52a.49.49 0 00.45-.27l1.79-5.38a.67.67 0 00-.09-.45zM8.88 17.73a.81.81 0 11.81-.81.8.8 0 01-.81.81zm1-4.56H6.29v-.89h3.58zm0-1.79H6.29v-.89h3.58zm1.7 6.35a.81.81 0 11.81-.81.8.8 0 01-.82.81zm2.77-4.56h-3.59v-.89h3.58zm0-1.79h-3.59v-.89h3.58zm1.78-3.58h1.79v.9h-1.79zm2.68 5.37h-3.57V9.59h3.58v3.58z" fill="#0068b8"/></svg>