<svg xmlns="http://www.w3.org/2000/svg" width="26" height="32" viewBox="0 0 26 32"><defs><style>.cls-1,.cls-3{fill:#0068b8;}.cls-1{fill-rule:evenodd;}.cls-2{fill:#fff;}</style></defs><title>ic-stad</title><g id="bk"><path class="cls-1" d="M13,0a13,13,0,0,1,10.08,21.2C20.7,24.13,13,32,13,32S5.24,24.1,2.86,21.14A13,13,0,0,1,13,0Z" transform="translate(0 0)"/><circle class="cls-2" cx="13" cy="13" r="11"/></g><g id="stad"><path class="cls-3" d="M20.5,8.58l-1-2.25L19,6.56,18.77,6,18,6.3,19,8.8l.71-.3.09.21V10a5.14,5.14,0,0,0-1.7-1.29A11.68,11.68,0,0,0,13,7.66,11.68,11.68,0,0,0,7.86,8.74,5.14,5.14,0,0,0,6.16,10V8.72l.09-.21L7,8.8,8,6.3,7.23,6,7,6.56l-.53-.22-1,2.25v8.23h0v0A3.74,3.74,0,0,0,7.82,20,10,10,0,0,0,11.26,21V20a1.74,1.74,0,1,1,3.48,0v1A10,10,0,0,0,18.18,20a3.74,3.74,0,0,0,2.31-3.12v0h0V8.58ZM10.83,13.9l.61-.27-.32-.73a13.33,13.33,0,0,1,3.77,0l-.32.73.61.27.38-.87a9,9,0,0,1,2,.66,10.6,10.6,0,0,1-4.59.94,10.6,10.6,0,0,1-4.59-.94,9,9,0,0,1,2-.66Zm7.44-.61L18,13.18a9.41,9.41,0,0,0-2.21-.76l.58-1.33a8.07,8.07,0,0,1,1.33.52,4.46,4.46,0,0,1,1.32,1A3.13,3.13,0,0,1,18.27,13.3Zm-3.11-1a13.9,13.9,0,0,0-4.32,0l-.6-1.38a13,13,0,0,1,5.52,0Zm-5,.13A9.41,9.41,0,0,0,8,13.18l-.23.12a3.13,3.13,0,0,1-.79-.75,4.46,4.46,0,0,1,1.32-1,8.07,8.07,0,0,1,1.33-.52Zm-3-1.84a4,4,0,0,1,.54-.46,5.33,5.33,0,0,1,.63-.37,10.55,10.55,0,0,1,4.64-1,10.55,10.55,0,0,1,4.64,1,5.33,5.33,0,0,1,.63.37,4.05,4.05,0,0,1,.54.46,1.67,1.67,0,0,1,.54,1.14,1.2,1.2,0,0,1,0,.19A5.45,5.45,0,0,0,18,11a8.65,8.65,0,0,0-1.36-.54l.25-.57-.61-.27-.29.66a13.61,13.61,0,0,0-6.06,0l-.29-.66-.61.27.25.57A8.65,8.65,0,0,0,8,11a5.45,5.45,0,0,0-1.3.89,1.2,1.2,0,0,1,0-.19A1.67,1.67,0,0,1,7.19,10.57Z" transform="translate(0 0)"/></g></svg>