<svg xmlns="http://www.w3.org/2000/svg" width="26" height="32"><path d="M13 0a13 13 0 0110.08 21.2C20.7 24.13 13 32 13 32S5.24 24.1 2.86 21.14A13 13 0 0113 0z" fill-rule="evenodd" fill="#0068b8"/><circle cx="13" cy="13" r="11" fill="#fff"/><path d="M10 18a1.5 1.5 0 101.5 1.5A1.5 1.5 0 0010 18zM5.5 6v1.5H7l2.7 5.7L8.65 15a2.66 2.66 0 00-.15.75 1.5 1.5 0 001.5 1.5h9v-1.5h-8.7a.16.16 0 01-.15-.15v-.08l.67-1.28h5.55a1.37 1.37 0 001.28-.75l2.7-4.87a.41.41 0 00.15-.37.71.71 0 00-.75-.75H8.65L8 6zm12 12a1.5 1.5 0 101.5 1.5 1.5 1.5 0 00-1.5-1.5z" fill="#0068b8"/></svg>