<svg xmlns="http://www.w3.org/2000/svg" width="26" height="32" viewBox="0 0 26 32"><defs><style>.cls-1,.cls-3{fill:#0068b8;}.cls-1{fill-rule:evenodd;}.cls-2{fill:#fff;}</style></defs><title>ic-trade</title><g id="bk"><path class="cls-1" d="M13,0a13,13,0,0,1,10.08,21.2C20.7,24.13,13,32,13,32S5.24,24.1,2.86,21.14A13,13,0,0,1,13,0Z" transform="translate(0 0)"/><circle class="cls-2" cx="13" cy="13" r="11"/></g><g id="trade"><g id="shopping-cart"><path class="cls-3" d="M10,18a1.5,1.5,0,1,0,1.5,1.5A1.5,1.5,0,0,0,10,18ZM5.5,6V7.5H7l2.7,5.7L8.65,15a2.66,2.66,0,0,0-.15.75,1.5,1.5,0,0,0,1.5,1.5h9v-1.5H10.3a.16.16,0,0,1-.15-.15v-.08l.67-1.28h5.55a1.37,1.37,0,0,0,1.28-.75l2.7-4.87a.41.41,0,0,0,.15-.37.71.71,0,0,0-.75-.75H8.65L8,6Zm12,12A1.5,1.5,0,1,0,19,19.5,1.5,1.5,0,0,0,17.5,18Z" transform="translate(0 0)"/></g></g></svg>