<svg xmlns="http://www.w3.org/2000/svg" viewBox="0 0 30 30"><path d="M29.41 16.47l-.22-.34A4.58 4.58 0 0028 14.78a9 9 0 00-1.42-.72 5 5 0 002.68-2.66c.3-.93-.25-1.69-.25-2.45v-.1c0-.85-1.17-1.4-2.25-1.69a8.08 8.08 0 00-2-.09l-1.42.3.48-1.06a4.59 4.59 0 00-.43-3.89l-.13-.21a4.5 4.5 0 00-2.89-2 4.84 4.84 0 00-3.68.42c-1.21.64-2.35 1.61-2.35 2.88v.08l-.15.3-.19-.32-.46-.76a4.49 4.49 0 00-2.64-2 3.52 3.52 0 00-2.55.3 3.55 3.55 0 00-1.69 2.58 5.35 5.35 0 00.65 3.59l.3.42-1-.34a5.17 5.17 0 00-3.71.51 5.15 5.15 0 00-2.58 2.76A3.74 3.74 0 00.49 14a3.6 3.6 0 001 1.1 3.48 3.48 0 001.94.9l.3.08-.65.55a3.88 3.88 0 00-1.16 1.78 2.77 2.77 0 00.3 2.24 2.49 2.49 0 00.78.85 2.25 2.25 0 001.29.55 5.66 5.66 0 003-.13l-.78 1.27-.21.55a4.59 4.59 0 00.34 3.76 9.91 9.91 0 001 1.27 4.64 4.64 0 001.94 1 5.28 5.28 0 003.84-.34 4.75 4.75 0 002.37-2.92v-.25a5.19 5.19 0 002.5 1.74 2.9 2.9 0 002.5-.3 3.36 3.36 0 001.51-2 6.65 6.65 0 000-2.92 4.1 4.1 0 001.38.63 4.71 4.71 0 003.79-.25 5 5 0 001.94-6.64zM23.16 9.4l.52-.21A4.33 4.33 0 0126 8.85a1.82 1.82 0 011.51.93l.17.55-.09.42a3.45 3.45 0 01-2 1.82 5 5 0 01-1.42.38l-5.3.64-.09-.3-.09-.13.17-.21zm-7.32-5.33a3.07 3.07 0 011.6-1.9A3 3 0 0119.89 2a2.8 2.8 0 011.94 1.4 3.27 3.27 0 01.34 1.48l-.17.89A5.91 5.91 0 0121.4 7l-3.88 4.65a7.24 7.24 0 00-1.25-.65l-.43-4.78V4.53zm-7.37.13a1.77 1.77 0 01.86-1.56.92.92 0 011 0 3.08 3.08 0 011.94 1.82 4.69 4.69 0 01.52 1.35l.86 5L13 11 9.16 6.87l-.22-.42a4.21 4.21 0 01-.47-2.25zm-6.34 9A2.12 2.12 0 012 11.27a3 3 0 011.73-1.78 3.22 3.22 0 012.41-.34l1.16.47 3.79 2.71a3.71 3.71 0 00-.69 1.27l-6.21.76-.43-.08a2.08 2.08 0 01-1.63-1.11zm12.2 12.48l-.15.42a3.12 3.12 0 01-1.65 1.73 3.21 3.21 0 01-2.4.3 2.78 2.78 0 01-1.87-1.4 3.27 3.27 0 01-.39-1.44l.21-1a2.33 2.33 0 01.65-1.19l3.62-4.23a4.44 4.44 0 001.45.47c.09 1.44.54 3 .54 4.61zm-1.64-8.46a2.67 2.67 0 01-.86-2 2.8 2.8 0 01.86-2 3 3 0 012-.76 2.88 2.88 0 012 .76 2.64 2.64 0 01.86 2 2.53 2.53 0 01-.86 2 2.74 2.74 0 01-2 .84 2.69 2.69 0 01-2-.87zm8 7.4a1.68 1.68 0 01-.86 1.52 1.38 1.38 0 01-1 .17 3.08 3.08 0 01-1.94-1.86L16.35 23l-.65-3.68.73-.26.57-.26 1.81 1.82L19.93 22l.22.42a3.64 3.64 0 01.52 2.17zm7.41-4.95a2.65 2.65 0 01-1.47 1.82 2.83 2.83 0 01-2.41.21A2.12 2.12 0 0123 21l-4.53-3.68.3-.63.13-.51 4.87-.42h2.15A2.7 2.7 0 0127.56 17a2.63 2.63 0 01.65 1.82z" fill="#3a93ca"/></svg>