<svg xmlns="http://www.w3.org/2000/svg" viewBox="0 0 30 30"><defs><style>.a{fill:#3a93ca;}</style></defs><title>im-skype</title><path class="a" d="M30,22.5A7.5,7.5,0,0,1,22.5,30a7.31,7.31,0,0,1-4.57-1.56,14.42,14.42,0,0,1-2.93.31,13.52,13.52,0,0,1-5.34-1.08,13.46,13.46,0,0,1-7.33-7.32A13.51,13.51,0,0,1,1.25,15a14.37,14.37,0,0,1,.31-2.93A7.31,7.31,0,0,1,0,7.5,7.22,7.22,0,0,1,2.2,2.2,7.22,7.22,0,0,1,7.5,0a7.3,7.3,0,0,1,4.57,1.56A14.43,14.43,0,0,1,15,1.25a13.52,13.52,0,0,1,5.34,1.08,13.47,13.47,0,0,1,7.32,7.32A13.51,13.51,0,0,1,28.75,15a14.32,14.32,0,0,1-.31,2.93A7.3,7.3,0,0,1,30,22.5Zm-7.09-4.24a4.14,4.14,0,0,0-.38-1.79,4.31,4.31,0,0,0-.95-1.34,6,6,0,0,0-1.43-1,10.9,10.9,0,0,0-1.61-.66q-.75-.23-1.71-.45l-2-.47-.86-.2a6.31,6.31,0,0,1-.68-.23,1.92,1.92,0,0,1-.59-.31,1.63,1.63,0,0,1-.32-.41,1.16,1.16,0,0,1-.15-.59q0-1.5,2.81-1.5a4.49,4.49,0,0,1,1.5.23,3.48,3.48,0,0,1,1.06.56q.39.32.74.65a3.67,3.67,0,0,0,.78.57,1.92,1.92,0,0,0,.94.23A1.88,1.88,0,0,0,21.51,11a2.18,2.18,0,0,0,.56-1.5A2.48,2.48,0,0,0,21,7.53,7.52,7.52,0,0,0,18.2,6.21a13.7,13.7,0,0,0-3.56-.45,10.93,10.93,0,0,0-2.58.3A9,9,0,0,0,9.74,7a4.7,4.7,0,0,0-2.39,4.21,5.37,5.37,0,0,0,.37,2.08,3.69,3.69,0,0,0,1.09,1.47,6.61,6.61,0,0,0,1.56.95,12.08,12.08,0,0,0,2,.64l2.85.7a9.46,9.46,0,0,1,2.19.7A1.29,1.29,0,0,1,18,18.91a1.46,1.46,0,0,1-.78,1.26,3.76,3.76,0,0,1-2.05.5,4.84,4.84,0,0,1-1.79-.31,4.08,4.08,0,0,1-1.27-.75c-.32-.29-.62-.59-.89-.88a4.66,4.66,0,0,0-.9-.75,1.91,1.91,0,0,0-1.05-.31,1.83,1.83,0,0,0-1.48.59,2.19,2.19,0,0,0-.5,1.46q0,1.8,2.38,3.08a11.85,11.85,0,0,0,5.68,1.28,10.23,10.23,0,0,0,2.73-.36,8.89,8.89,0,0,0,2.39-1,5.06,5.06,0,0,0,1.73-1.83A5.14,5.14,0,0,0,22.91,18.26Z"/></svg>