<svg xmlns="http://www.w3.org/2000/svg" viewBox="0 0 30 30"><path d="M30 22.5a7.5 7.5 0 01-7.5 7.5 7.31 7.31 0 01-4.57-1.56 14.42 14.42 0 01-2.93.31 13.52 13.52 0 01-5.34-1.08 13.46 13.46 0 01-7.33-7.32A13.51 13.51 0 011.25 15a14.37 14.37 0 01.31-2.93A7.31 7.31 0 010 7.5a7.22 7.22 0 012.2-5.3A7.22 7.22 0 017.5 0a7.3 7.3 0 014.57 1.56A14.43 14.43 0 0115 1.25a13.52 13.52 0 015.34 1.08 13.47 13.47 0 017.32 7.32A13.51 13.51 0 0128.75 15a14.32 14.32 0 01-.31 2.93A7.3 7.3 0 0130 22.5zm-7.09-4.24a4.14 4.14 0 00-.38-1.79 4.31 4.31 0 00-.95-1.34 6 6 0 00-1.43-1 10.9 10.9 0 00-1.61-.66q-.75-.23-1.71-.45l-2-.47-.86-.2a6.31 6.31 0 01-.68-.23 1.92 1.92 0 01-.59-.31 1.63 1.63 0 01-.32-.41 1.16 1.16 0 01-.15-.59q0-1.5 2.81-1.5a4.49 4.49 0 011.5.23 3.48 3.48 0 011.06.56q.39.32.74.65a3.67 3.67 0 00.78.57 1.92 1.92 0 00.94.23 1.88 1.88 0 001.45-.55 2.18 2.18 0 00.56-1.5A2.48 2.48 0 0021 7.53a7.52 7.52 0 00-2.8-1.32 13.7 13.7 0 00-3.56-.45 10.93 10.93 0 00-2.58.3A9 9 0 009.74 7a4.7 4.7 0 00-2.39 4.21 5.37 5.37 0 00.37 2.08 3.69 3.69 0 001.09 1.47 6.61 6.61 0 001.56.95 12.08 12.08 0 002 .64l2.85.7a9.46 9.46 0 012.19.7 1.29 1.29 0 01.59 1.16 1.46 1.46 0 01-.78 1.26 3.76 3.76 0 01-2.05.5 4.84 4.84 0 01-1.79-.31 4.08 4.08 0 01-1.27-.75c-.32-.29-.62-.59-.89-.88a4.66 4.66 0 00-.9-.75 1.91 1.91 0 00-1.05-.31 1.83 1.83 0 00-1.48.59 2.19 2.19 0 00-.5 1.46q0 1.8 2.38 3.08a11.85 11.85 0 005.68 1.28 10.23 10.23 0 002.73-.36 8.89 8.89 0 002.39-1 5.06 5.06 0 001.73-1.83 5.14 5.14 0 00.71-2.63z" fill="#3a93ca"/></svg>