<svg xmlns="http://www.w3.org/2000/svg" width="30" height="30"><defs><style>.a{fill:#3993c9}</style></defs><path class="a" d="M15 30A15 15 0 0 1 4.39 4.39a15 15 0 1 1 21.22 21.22A14.9 14.9 0 0 1 15 30zm0-27.63A12.63 12.63 0 1 0 27.63 15 12.65 12.65 0 0 0 15 2.37z"/><path class="a" d="M18.41 23.07a2.17 2.17 0 0 1-.87-.19.89.89 0 0 1-.18-.11l-3.16-2.42L12.38 22a1 1 0 0 1-.84.33 1.42 1.42 0 0 1-.36 0c-.69-.07-.94-.86-1.08-1.29S9.2 18 8.9 17l-3.29-1.07a1.84 1.84 0 0 1-1.22-1.37 1.6 1.6 0 0 1 1.21-1.62l14.76-5.79a2.68 2.68 0 0 1 1-.23 1.48 1.48 0 0 1 .82.23 1.33 1.33 0 0 1 .59 1.16.87.87 0 0 1 0 .17l-2.63 13.29a.89.89 0 0 1 0 .15 1.93 1.93 0 0 1-1 1 1.74 1.74 0 0 1-.73.15zm-3.73-4.57l3.68 2.82 2.5-12.49-2.13.84h.14a1 1 0 0 1 .53.14 1 1 0 0 1 .46.69.67.67 0 0 1 0 .12 1.23 1.23 0 0 1-.47 1l-6.3 5.67zm-2.24 1.06l.33-.3-.27-.21zm-3-4.18L18 10 6.65 14.42z"/><path class="a" d="M22 7.4a1.79 1.79 0 0 0-1.56 0L5.7 13.22a1.31 1.31 0 0 0-1 1.3 1.52 1.52 0 0 0 1 1.12l3.44 1.16c.27.88 1.07 3.51 1.26 4.1s.37 1 .87 1.09a1.11 1.11 0 0 0 .28 0 .78.78 0 0 0 .64-.25l2-1.82 3.36 2.58.12.07a1.87 1.87 0 0 0 .75.17 1.46 1.46 0 0 0 .55-.11 1.64 1.64 0 0 0 .85-.86.58.58 0 0 0 0-.1l2.66-13.24a.58.58 0 0 0 0-.11A1 1 0 0 0 22 7.4zm-9.73 11.09l1 .75-1.19 1.08zm6.46 2.92a.46.46 0 0 1-.19.19.48.48 0 0 1-.34 0l-3.7-2.86-1.82-1.42 6.56-5.91a1 1 0 0 0 .38-.77.63.63 0 0 0 0-.11.68.68 0 0 0-.32-.48 1 1 0 0 0-1 .12l-8.7 5.52-3.52-1.14a.76.76 0 0 1-.2-.12 1 1 0 0 1 .21-.11l14.79-5.8a1.62 1.62 0 0 1 .38-.11z"/></svg>