<svg xmlns="http://www.w3.org/2000/svg" width="28" height="30" viewBox="0 0 28 30"><defs><style>.a{fill:#3a93ca;}</style></defs><title>im-viber</title><path class="a" d="M26.66,16.81c-.74,6.1-5.13,6.48-5.94,6.75a24.3,24.3,0,0,1-7.57.65L8.78,29V23.48h0c-5.86-1.65-5.66-7.85-5.6-11.11s.67-5.92,2.46-7.71c3.21-3,9.83-2.51,9.83-2.51,5.59,0,8.26,1.73,8.88,2.31,2.06,1.79,3.11,6.08,2.34,12.37M25.84,2.92C25.11,2.23,22.14,0,15.54,0,15.54,0,7.75-.46,4,3.07,1.84,5.22,1.1,8.36,1,12.26S.84,23.46,7.76,25.44h0v3s0,1.22.75,1.47c1,.3,1.52-.63,2.44-1.63.5-.55,1.2-1.36,1.72-2a26.36,26.36,0,0,0,8.79-.66c1-.32,6.37-1,7.25-8.32.91-7.53-.44-12.29-2.88-14.44" transform="translate(-1 0.01)"/><path class="a" d="M21.61,17.72s-.89-.75-1.32-1.08a16.93,16.93,0,0,0-1.42-.92,1.24,1.24,0,0,0-1.59.23l-.57.73a.88.88,0,0,1-.86.28,6.07,6.07,0,0,1-2.66-1.62,5.45,5.45,0,0,1-1.69-2.79v-.06a1.1,1.1,0,0,1,.18-.85l0,0c.39-.36,1.1-.79,1.2-1.2.28-.72-.94-2.21-1.11-2.48a11.88,11.88,0,0,0-1.2-1.39,1.17,1.17,0,0,0-1.4-.12l0,0C7.6,7.47,7,8.06,7.2,8.94l.08.35a19.05,19.05,0,0,0,4.51,7.32,19.57,19.57,0,0,0,7,4.58,1.93,1.93,0,0,0,1.9-.52h0a6,6,0,0,0,1.19-1.49h0a1.12,1.12,0,0,0-.23-1.45" transform="translate(-1 0.01)"/><path class="a" d="M17.94,12.4a.18.18,0,0,1-.18-.17,2.18,2.18,0,0,0-.51-1.43,2,2,0,0,0-1.36-.53.18.18,0,0,1,0-.36,2.29,2.29,0,0,1,1.59.64,2.52,2.52,0,0,1,.61,1.66.18.18,0,0,1-.17.19h0" transform="translate(-1 0.01)"/><path class="a" d="M19.69,13h0a.18.18,0,0,1-.17-.18,4.23,4.23,0,0,0-1.06-3,3.85,3.85,0,0,0-1.31-.95,5.32,5.32,0,0,0-1.76-.41.18.18,0,0,1,0-.36,4.74,4.74,0,0,1,3.31,1.48,4.59,4.59,0,0,1,1.15,3.29.18.18,0,0,1-.18.18" transform="translate(-1 0.01)"/><path class="a" d="M21.47,13.7a.18.18,0,0,1-.18-.18,8.4,8.4,0,0,0-.48-2.87,6,6,0,0,0-1.4-2.17,6.3,6.3,0,0,0-2.08-1.38,6.9,6.9,0,0,0-2.54-.47.18.18,0,0,1,0-.36h0a6.74,6.74,0,0,1,4.87,2,6.33,6.33,0,0,1,1.48,2.3,8.77,8.77,0,0,1,.51,3,.18.18,0,0,1-.17.18Z" transform="translate(-1 0.01)"/></svg>