<svg xmlns="http://www.w3.org/2000/svg" width="28" height="30"><defs><style>.a{fill:#3a93ca}</style></defs><path class="a" d="M25.66 16.82c-.74 6.1-5.13 6.48-5.94 6.75a24.3 24.3 0 01-7.57.65l-4.37 4.79v-5.52c-5.86-1.65-5.66-7.85-5.6-11.11s.67-5.92 2.46-7.71c3.21-3 9.83-2.51 9.83-2.51 5.59 0 8.26 1.73 8.88 2.31 2.06 1.79 3.11 6.08 2.34 12.37m-.85-13.91c-.73-.69-3.7-2.92-10.3-2.92 0 0-7.79-.46-11.54 3.07C.84 5.23.1 8.37 0 12.27s-.16 11.2 6.76 13.18v3s0 1.22.75 1.47c1 .3 1.52-.63 2.44-1.63.5-.55 1.2-1.36 1.72-2a26.36 26.36 0 008.79-.66c1-.32 6.37-1 7.25-8.32.91-7.53-.44-12.29-2.88-14.44"/><path class="a" d="M20.61 17.73s-.89-.75-1.32-1.08a16.93 16.93 0 00-1.42-.92 1.24 1.24 0 00-1.59.23l-.57.73a.88.88 0 01-.86.28 6.07 6.07 0 01-2.66-1.62 5.45 5.45 0 01-1.69-2.79v-.06a1.1 1.1 0 01.18-.85c.39-.36 1.1-.79 1.2-1.2.28-.72-.94-2.21-1.11-2.48a11.88 11.88 0 00-1.2-1.39 1.17 1.17 0 00-1.4-.12C6.6 7.48 6 8.07 6.2 8.95l.08.35a19.05 19.05 0 004.51 7.32 19.57 19.57 0 007 4.58 1.93 1.93 0 001.9-.52 6 6 0 001.19-1.49 1.12 1.12 0 00-.23-1.45m-3.71-5.33a.18.18 0 01-.18-.17 2.18 2.18 0 00-.51-1.43 2 2 0 00-1.36-.53.18.18 0 010-.36 2.29 2.29 0 011.59.64 2.52 2.52 0 01.61 1.66.18.18 0 01-.17.19"/><path class="a" d="M18.69 13.01a.18.18 0 01-.17-.18 4.23 4.23 0 00-1.06-3 3.85 3.85 0 00-1.31-.95 5.32 5.32 0 00-1.76-.41.18.18 0 010-.36 4.74 4.74 0 013.31 1.48 4.59 4.59 0 011.15 3.29.18.18 0 01-.18.18"/><path class="a" d="M20.47 13.71a.18.18 0 01-.18-.18 8.4 8.4 0 00-.48-2.87 6 6 0 00-1.4-2.17 6.3 6.3 0 00-2.08-1.38 6.9 6.9 0 00-2.54-.47.18.18 0 010-.36 6.74 6.74 0 014.87 2 6.33 6.33 0 011.48 2.3 8.77 8.77 0 01.51 3 .18.18 0 01-.17.18z"/></svg>