<svg xmlns="http://www.w3.org/2000/svg" width="30" height="30"><path d="M0 30l2.12-7.7A14.86 14.86 0 0115.06 0a14.87 14.87 0 11-7.14 27.93zm8.29-4.76a12.57 12.57 0 006.77 2 12.35 12.35 0 10-10.22-5.33l-1.25 4.56zm14.3-6.83c-.09-.15-.34-.25-.72-.43s-2.21-1.09-2.55-1.21-.59-.19-.84.19-1 1.21-1.18 1.46-.44.28-.81.09a10.2 10.2 0 01-3-1.84 11.19 11.19 0 01-2.08-2.57c-.22-.37 0-.57.16-.76s.37-.43.56-.65a2.43 2.43 0 00.38-.62.68.68 0 000-.65c-.09-.18-.84-2-1.15-2.76S10.72 8 10.49 8h-.72a1.37 1.37 0 00-1 .47 4.16 4.16 0 00-1.31 3.1A7.21 7.21 0 009 15.41 16.61 16.61 0 0015.37 21a21.66 21.66 0 002.13.78 5.15 5.15 0 002.35.15 3.84 3.84 0 002.52-1.77 3.08 3.08 0 00.22-1.75z" fill="#3a93ca"/></svg>