<svg version="1.1" id="Layer_1" xmlns="http://www.w3.org/2000/svg" x="0" y="0" width="35" height="35" xml:space="preserve"><style>.st0{fill:#fff}</style><path class="st0" d="M17.5 0C7.8 0 0 7.8 0 17.5S7.8 35 17.5 35 35 27.2 35 17.5 27.2 0 17.5 0zm0 31.7c-7.8 0-14.2-6.4-14.2-14.2S9.7 3.3 17.5 3.3s14.2 6.4 14.2 14.2-6.4 14.2-14.2 14.2z"/><path class="st0" d="M21.7 22.4c0-.8-.4-1.5-1.1-2.1-.7-.6-1.9-1.1-3.5-1.5-2.2-.6-3.9-1.3-5.1-2.2-1.1-.9-1.7-2.2-1.7-3.7s.5-2.7 1.6-3.7c1-.9 2.5-1.5 4.3-1.7v-3h2.6v3c1.8.2 3.3.8 4.3 1.9 1 1 1.5 2.4 1.5 4.2h-3.2c0-1.2-.3-2.1-1-2.8-.7-.7-1.7-1.1-2.9-1.1-1.3 0-2.3.3-2.9.8-.7.6-1 1.3-1 2.3 0 .9.3 1.6 1 2.1s1.9 1.1 3.6 1.6c2.3.6 3.9 1.3 5 2.2 1.1.9 1.6 2.1 1.6 3.6 0 1.6-.6 2.8-1.7 3.7-1.1.9-2.7 1.5-4.7 1.6v2.6h-2.6v-2.6c-1.9-.2-3.5-.7-4.7-1.7-1.2-1-1.8-2.4-1.8-4.3v-.1h3.1c0 1.4.4 2.4 1.3 3 .9.6 1.9.9 3.1.9 1.4 0 2.5-.3 3.3-.8 1.2-.4 1.6-1.2 1.6-2.2z"/></svg>