<?xml version="1.0" encoding="utf-8"?>
<!-- Generator: Adobe Illustrator 21.0.0, SVG Export Plug-In . SVG Version: 6.00 Build 0)  -->
<svg version="1.1" id="Layer_1" xmlns="http://www.w3.org/2000/svg" xmlns:xlink="http://www.w3.org/1999/xlink" x="0px" y="0px"
	 width="35px" height="35px" viewBox="0 0 35 35" style="enable-background:new 0 0 35 35;" xml:space="preserve">
<style type="text/css">
	.st0{fill:#FFFFFF;}
</style>
<path class="st0" d="M17.5,0C7.8,0,0,7.8,0,17.5S7.8,35,17.5,35S35,27.2,35,17.5S27.2,0,17.5,0z M17.5,31.7
	c-7.8,0-14.2-6.4-14.2-14.2S9.7,3.3,17.5,3.3s14.2,6.4,14.2,14.2S25.3,31.7,17.5,31.7z"/>
<g>
	<path class="st0" d="M21.7,22.4c0-0.8-0.4-1.5-1.1-2.1c-0.7-0.6-1.9-1.1-3.5-1.5c-2.2-0.6-3.9-1.3-5.1-2.2
		c-1.1-0.9-1.7-2.2-1.7-3.7c0-1.5,0.5-2.7,1.6-3.7c1-0.9,2.5-1.5,4.3-1.7v-3h2.6v3c1.8,0.2,3.3,0.8,4.3,1.9c1,1,1.5,2.4,1.5,4.2
		h-3.2c0-1.2-0.3-2.1-1-2.8c-0.7-0.7-1.7-1.1-2.9-1.1c-1.3,0-2.3,0.3-2.9,0.8c-0.7,0.6-1,1.3-1,2.3c0,0.9,0.3,1.6,1,2.1
		c0.7,0.5,1.9,1.1,3.6,1.6c2.3,0.6,3.9,1.3,5,2.2c1.1,0.9,1.6,2.1,1.6,3.6c0,1.6-0.6,2.8-1.7,3.7c-1.1,0.9-2.7,1.5-4.7,1.6v2.6h-2.6
		v-2.6c-1.9-0.2-3.5-0.7-4.7-1.7c-1.2-1-1.8-2.4-1.8-4.3l0-0.1h3.1c0,1.4,0.4,2.4,1.3,3c0.9,0.6,1.9,0.9,3.1,0.9
		c1.4,0,2.5-0.3,3.3-0.8C21.3,24.2,21.7,23.4,21.7,22.4z"/>
</g>
</svg>
