<svg xmlns="http://www.w3.org/2000/svg" width="40" height="35"><path d="M23.9 6.8c.8 0 1.5-.7 1.5-1.5v-3c0-.8-.7-1.5-1.5-1.5s-1.5.7-1.5 1.5v3c0 .8.7 1.5 1.5 1.5zm5.7 16.6c1.6-1.5 2.6-3.7 2.6-6.2 0-4.7-3.7-8.5-8.3-8.5-2.8 0-5.2 1.4-6.7 3.5-1-.3-2-.5-3.1-.5-5.4 0-9.9 4.4-10.2 9.9C1.6 22.9 0 25.4 0 28.3c0 4.1 3.3 7.5 7.3 7.5h19.5c3.5 0 6.3-2.9 6.3-6.5.1-2.6-1.4-4.8-3.5-5.9zm-5.7-11.6c3 0 5.4 2.5 5.4 5.5 0 1-.3 1.9-.7 2.7-1.2-2.4-3.5-4.1-6.3-4.2-.6-.8-1.4-1.6-2.3-2.2.9-1.1 2.3-1.8 3.9-1.8zm2.9 21H7.3c-2.4 0-4.4-2-4.4-4.5 0-1.7.9-3.2 2.4-4l1.5-.8.1-1.7c.2-3.9 3.4-7 7.3-7 2.3 0 4.3 1 5.7 2.9l.8 1.1h1.4c2.4.1 4.2 2.1 4.2 4.5v2l1.8.8c1.3.5 2.1 1.8 2.1 3.2 0 1.9-1.5 3.5-3.4 3.5zm4.9-22c.4 0 .8-.2 1-.4l2-2c.3-.3.4-.6.4-1.1 0-.8-.7-1.5-1.5-1.5-.4 0-.8.2-1 .4l-2 2c-.3.3-.4.6-.4 1.1 0 .8.7 1.5 1.5 1.5zm-16.6-.5c.3.3.6.4 1 .4.8 0 1.5-.7 1.5-1.5 0-.4-.2-.8-.4-1.1l-2-2c-.3-.3-.6-.4-1-.4-.8 0-1.5.7-1.5 1.5 0 .4.2.8.4 1.1l2 2zm23.4 5.5h-2.9c-.8 0-1.5.7-1.5 1.5s.7 1.5 1.5 1.5h2.9c.8 0 1.5-.7 1.5-1.5s-.7-1.5-1.5-1.5z" fill="#fff"/></svg>