<svg id="Layer_1" data-name="Layer 1" xmlns="http://www.w3.org/2000/svg" width="40" height="25"><defs><style>.cls-1{fill:#0078a9}</style></defs><rect class="cls-1" width="40" height="25" rx="1.33" ry="1.33"/><path d="M11.35 11.84v-.46l-.22.46H9.24L9 11.35v.49H5.47l-.42-1h-.7l-.44 1H2.08v-3l1.34-3H6l.36.86v-.87h3.13l.69 1.45.68-1.45h9.92a1.69 1.69 0 01.86.23v-.24h2.5v.33a2 2 0 011.11-.33h4.41l.39.87v-.87h2.83l.51.87v-.87h2.7v6h-2.78l-.65-1v1h-3.45l-.49-1.08H28l-.45 1.08H25.5a2.7 2.7 0 01-1.36-.43v.43H20v-1.4c0-.2-.16-.19-.16-.19h-.15v1.59zm-2.08 1.3h5.46l.79.89.81-.89h4.2a1.93 1.93 0 01.77.21v-.21H25a1.91 1.91 0 01.87.24v-.24h4.81v.22a1.63 1.63 0 01.8-.22h3.13v.22a1.91 1.91 0 01.81-.22h2.46v5.67a1.35 1.35 0 01-1 .37h-3.2V19a1.66 1.66 0 01-.78.18h-8.61v-1.47c0-.14-.06-.17-.19-.17H24v1.64h-2.71v-1.63a1.81 1.81 0 01-.8.16h-1v1.47h-3.28l-.75-.92-.81.92H9.27z" fill="#fff"/><path class="cls-1" d="M26.48 14.05h3.43v.91h-2.38v.81h2.31v.8h-2.31v.85h2.38v.9h-3.43v-4.27zm10.05 1.66c1.29.07 1.4.71 1.4 1.4a1.25 1.25 0 01-1.34 1.23h-2.2v-.92h1.72c.29 0 .72 0 .72-.41 0-.19-.08-.32-.39-.35h-.72c-1.16 0-1.43-.61-1.43-1.31a1.18 1.18 0 011.25-1.24h2.2V15h-1.63c-.37 0-.76 0-.76.37 0 .26.2.31.44.34zm-3.95 0c1.29.07 1.4.71 1.4 1.4a1.25 1.25 0 01-1.34 1.23h-2.2v-.92h1.72c.29 0 .72 0 .72-.41 0-.19-.08-.32-.39-.35h-.72c-1.16 0-1.43-.61-1.43-1.31a1.18 1.18 0 011.25-1.24h2.2V15h-1.62c-.37 0-.76 0-.76.37 0 .26.2.31.44.34zm-12.43-1.65h-3.67l-1.2 1.32L14.11 14H10v4.27h4l1.26-1.41 1.23 1.42h2v-1.4h1.41c.54 0 1.53 0 1.53-1.51a1.18 1.18 0 00-1.28-1.31zm-6.72 3.36H11v-.84h2.31v-.81H11V15h2.55l1 1.16zm4 .5l-1.51-1.78 1.51-1.67zM19.8 16h-1.3v-1h1.31a.52.52 0 110 1zm5.42.38a1.16 1.16 0 00.72-1.18 1.13 1.13 0 00-1.26-1.14H22v4.27h1v-1.51h1.37c.36 0 .5.36.51.72v.78h1v-.88c.02-.68-.17-1-.66-1.06zm-.9-.44H23V15h1.31a.5.5 0 01.58.49c0 .26-.15.45-.58.45zm-1.94-9.26h1.05v4.27h-1.05zm-8.58 0h3.42v.92h-2.37v.8h2.31v.81h-2.31v.84h2.37v.9H13.8V6.68zM21.11 9a1.16 1.16 0 00.72-1.18 1.13 1.13 0 00-1.26-1.14h-2.72v4.27h1V9.44h1.37c.36 0 .51.36.51.72v.78h1v-.88c.06-.67-.13-1-.62-1.06zm-.91-.44h-1.31v-1h1.31a.5.5 0 01.58.49c0 .32-.15.51-.58.51zm-8.82-1.88l-1.29 2.86-1.28-2.86H7.17v4.11L5.34 6.68H4l-1.92 4.27h1.11l.41-1h2.09l.41 1h2.12V7.78l1.4 3.17h1L12 7.83v3.12h1V6.68zM4 9.08l.63-1.49.65 1.49zm30.24-2.4v3l-1.77-3h-1.54v4l-1.79-4h-1.39L26.31 10h-.67c-.25-.05-.65-.23-.65-1v-.32c0-1 .54-1.07 1.24-1.07h.65v-.93H25.5C25 6.68 24 7 24 8.8c0 1.18.49 2.16 1.65 2.16H27l.41-1h2.09l.41 1H32V7.83L33.86 11h1.43V6.68zm-6.44 2.4l.62-1.49.66 1.49z"/></svg>