<svg id="Layer_1" data-name="Layer 1" xmlns="http://www.w3.org/2000/svg" width="40" height="25" viewBox="0 0 40 25"><defs><style>.cls-1{fill:#0078a9;}.cls-2{fill:#fff;}</style></defs><title>ip-amex</title><rect class="cls-1" width="40" height="25" rx="1.33" ry="1.33"/><path class="cls-2" d="M11.35,11.84v-.46l-.22.46H9.24L9,11.35v.49H5.47l-.42-1H4.35l-.44,1H2.08v-3l1.34-3H6l.36.86V5.83H9.49l.69,1.45.68-1.45h9.92a1.69,1.69,0,0,1,.86.23V5.82h2.5v.33a2,2,0,0,1,1.11-.33h4.41l.39.87V5.82h2.83l.51.87V5.82h2.7v6H33.31l-.65-1v1H29.21l-.49-1.08H28l-.45,1.08H25.5a2.7,2.7,0,0,1-1.36-.43v.43H20v-1.4c0-.2-.16-.19-.16-.19h-.15v1.59Z" transform="translate(0 0)"/><path class="cls-2" d="M9.27,13.14h5.46l.79.89.81-.89h4.2a1.93,1.93,0,0,1,.77.21v-.21H25a1.91,1.91,0,0,1,.87.24v-.24h4.81v.22a1.63,1.63,0,0,1,.8-.22h3.13v.22a1.91,1.91,0,0,1,.81-.22h2.46v5.67a1.35,1.35,0,0,1-1,.37H33.68V19a1.66,1.66,0,0,1-.78.18H24.29V17.71c0-.14-.06-.17-.19-.17H24v1.64H21.29V17.55a1.81,1.81,0,0,1-.8.16h-1v1.47H16.21l-.75-.92-.81.92H9.27Z" transform="translate(0 0)"/><polygon class="cls-1" points="26.48 14.05 29.91 14.05 29.91 14.96 27.53 14.96 27.53 15.77 29.84 15.77 29.84 16.57 27.53 16.57 27.53 17.42 29.91 17.42 29.91 18.32 26.48 18.32 26.48 14.05"/><path class="cls-1" d="M36.53,15.71c1.29.07,1.4.71,1.4,1.4a1.25,1.25,0,0,1-1.34,1.23h-2.2v-.92h1.72c.29,0,.72,0,.72-.41,0-.19-.08-.32-.39-.35-.14,0-.65,0-.72,0-1.16,0-1.43-.61-1.43-1.31a1.18,1.18,0,0,1,1.25-1.24h2.2V15H36.11c-.37,0-.76,0-.76.37,0,.26.2.31.44.34Z" transform="translate(0 0)"/><path class="cls-1" d="M32.58,15.71c1.29.07,1.4.71,1.4,1.4a1.25,1.25,0,0,1-1.34,1.23h-2.2v-.92h1.72c.29,0,.72,0,.72-.41,0-.19-.08-.32-.39-.35-.14,0-.65,0-.72,0-1.16,0-1.43-.61-1.43-1.31a1.18,1.18,0,0,1,1.25-1.24h2.2V15H32.17c-.37,0-.76,0-.76.37,0,.26.2.31.44.34Z" transform="translate(0 0)"/><path class="cls-1" d="M20.15,14.06H16.48l-1.2,1.32L14.11,14H10v4.27h4l1.26-1.41,1.23,1.42h2V16.88h1.41c.54,0,1.53,0,1.53-1.51A1.18,1.18,0,0,0,20.15,14.06Zm-6.72,3.36H11v-.84h2.31v-.81H11V15h2.55l1,1.16Zm4,.5-1.51-1.78,1.51-1.67ZM19.8,16H18.5V15h1.31a.52.52,0,1,1,0,1Z" transform="translate(0 0)"/><path class="cls-1" d="M25.22,16.38a1.16,1.16,0,0,0,.72-1.18,1.13,1.13,0,0,0-1.26-1.14H22v4.27h1V16.82h1.37c.36,0,.5.36.51.72l0,.78h1l0-.88C25.9,16.76,25.71,16.44,25.22,16.38Zm-.9-.44H23V15h1.31a.5.5,0,0,1,.58.49C24.89,15.75,24.74,15.94,24.31,15.94Z" transform="translate(0 0)"/><rect class="cls-1" x="22.38" y="6.68" width="1.05" height="4.27"/><polygon class="cls-1" points="13.8 6.68 17.22 6.68 17.22 7.6 14.85 7.6 14.85 8.4 17.16 8.4 17.16 9.21 14.85 9.21 14.85 10.05 17.22 10.05 17.22 10.95 13.8 10.95 13.8 6.68"/><path class="cls-1" d="M21.11,9a1.16,1.16,0,0,0,.72-1.18,1.13,1.13,0,0,0-1.26-1.14H17.85v4.27h1V9.44h1.37c.36,0,.51.36.51.72l0,.78h1l0-.88C21.79,9.39,21.6,9.06,21.11,9Zm-.91-.44H18.89v-1H20.2a.5.5,0,0,1,.58.49C20.78,8.37,20.63,8.56,20.2,8.56Z" transform="translate(0 0)"/><path class="cls-1" d="M11.38,6.68,10.09,9.54,8.81,6.68H7.17v4.11L5.34,6.68H4L2.08,10.95H3.19l.41-1H5.69l.41,1H8.22V7.78l1.4,3.17h1L12,7.83v3.12h1V6.68ZM4,9.08l.63-1.49.65,1.49Z" transform="translate(0 0)"/><path class="cls-1" d="M34.24,6.68v3l-1.77-3H30.93v4l-1.79-4H27.75L26.31,10s-.61,0-.67,0c-.25-.05-.65-.23-.65-1V8.68c0-1,.54-1.07,1.24-1.07h.65V6.68H25.5C25,6.68,24,7,24,8.8c0,1.18.49,2.16,1.65,2.16H27l.41-1h2.09l.41,1H32V7.83L33.86,11h1.43V6.68ZM27.8,9.08l.62-1.49.66,1.49Z" transform="translate(0 0)"/></svg>