<svg id="Layer_1" data-name="Layer 1" xmlns="http://www.w3.org/2000/svg" width="40" height="25" viewBox="0 0 40 25"><defs><style>.cls-1{fill:#13457c;}.cls-2{fill:#007cc3;}.cls-3{fill:#009ddd;}.cls-4{fill:#fff;}</style></defs><title>ip-cirrus</title><rect class="cls-1" width="40" height="25" rx="1.33" ry="1.33"/><circle class="cls-2" cx="13.14" cy="12.5" r="10.21"/><path class="cls-3" d="M26.86,2.29A10.18,10.18,0,0,0,20,4.93,10.48,10.48,0,0,0,19,6H21a10.27,10.27,0,0,1,.78,1.08H18.19a10,10,0,0,0-.59,1.08h4.8a10.17,10.17,0,0,1,.43,1.08H17.17a9.82,9.82,0,0,0-.3,1.08h6.25a10.28,10.28,0,0,1-.3,5.41H17.17a10.2,10.2,0,0,0,.43,1.08h4.8a10.2,10.2,0,0,1-.59,1.08H18.19A10.2,10.2,0,0,0,19,19H21a10.08,10.08,0,0,1-1,1.08A10.21,10.21,0,1,0,26.86,2.29Z" transform="translate(0 0)"/><path class="cls-3" d="M35.71,18.19a.33.33,0,1,1,.33.33A.33.33,0,0,1,35.71,18.19Zm.33.25a.25.25,0,1,0-.25-.25A.25.25,0,0,0,36,18.44Zm0-.11h-.07V18h.2a.09.09,0,0,1,0,.07.08.08,0,0,1,0,.08l.05.13h-.08l0-.11h0Zm0-.16h.08a0,0,0,0,0,0,0,0,0,0,0,0,0,0H36Z" transform="translate(0 0)"/><path class="cls-4" d="M32.28,14.78a.33.33,0,1,1,.33.33A.33.33,0,0,1,32.28,14.78Zm.33.25a.25.25,0,1,0-.25-.25A.25.25,0,0,0,32.61,15Zm0-.11H32.5v-.29h.12a.13.13,0,0,1,.07,0,.09.09,0,0,1,0,.07.08.08,0,0,1,0,.08l.05.13h-.08l0-.11h0Zm0-.16h.08a0,0,0,0,0,0,0,0,0,0,0,0,0,0h-.08Z" transform="translate(0 0)"/><path class="cls-4" d="M12.87,9.84c-.09.4-.14.63-.26,1.11A2.88,2.88,0,0,0,10,11a2.09,2.09,0,0,0-.94,2,1.25,1.25,0,0,0,.77.95A2.58,2.58,0,0,0,12,13.71c-.11.49-.19.88-.29,1.23A4.48,4.48,0,0,1,9,15a2.25,2.25,0,0,1-1.55-1.83A3,3,0,0,1,9.16,10,5.64,5.64,0,0,1,12.87,9.84Z" transform="translate(0 0)"/><path class="cls-4" d="M25.89,14.41a2.14,2.14,0,0,1-1.78.77c-1,0-1.67-.75-1.31-2.44l.42-2h1.56l-.42,2c-.14.68-.11,1.19.58,1.19s1.05-.49,1.21-1.19l.42-2h1.56l-.7,3.2c-.08.37-.15.77-.2,1.17H25.77Z" transform="translate(0 0)"/><path class="cls-4" d="M28.65,12.13c0,.55.36.93,1.19,1.21.64.22.74.29.74.48s-.28.39-.9.39A5.74,5.74,0,0,1,28.27,14s-.2.91-.22,1a11.5,11.5,0,0,0,1.63.12c1.65,0,2.42-.46,2.42-1.46,0-.6-.32-.95-1.1-1.21s-.73-.27-.73-.47.26-.35.77-.35c.31,0,.73,0,1.13.07l.22-1c-.41,0-1-.09-1.38-.09C29.25,10.65,28.64,11.32,28.65,12.13Z" transform="translate(0 0)"/><polygon class="cls-4" points="13.54 10.75 15.1 10.75 14.17 15.11 12.61 15.11 13.54 10.75"/><path class="cls-4" d="M22.78,10.73a1.78,1.78,0,0,0-1.79.69,3.1,3.1,0,0,0,.09-.67H19.66c-.21,1.35-.57,2.72-.86,4.07l-.07.29h1.63A13.19,13.19,0,0,1,21,12.48a1,1,0,0,1,1.26-.53Z" transform="translate(0 0)"/><path class="cls-4" d="M19.23,10.73a1.78,1.78,0,0,0-1.79.69,3.1,3.1,0,0,0,.09-.67H16.1c-.21,1.35-.57,2.72-.86,4.07l-.07.29H16.8a13.2,13.2,0,0,1,.68-2.63,1.05,1.05,0,0,1,1.26-.53Z" transform="translate(0 0)"/></svg>