<svg id="Layer_1" data-name="Layer 1" xmlns="http://www.w3.org/2000/svg" width="40" height="25"><defs><style>.cls-3{fill:#009ddd}</style></defs><rect width="40" height="25" rx="1.33" ry="1.33" fill="#13457c"/><circle cx="13.14" cy="12.5" r="10.21" fill="#007cc3"/><path class="cls-3" d="M26.86 2.29A10.18 10.18 0 0 0 20 4.93 10.48 10.48 0 0 0 19 6h2a10.27 10.27 0 0 1 .78 1.08h-3.59a10 10 0 0 0-.59 1.08h4.8a10.17 10.17 0 0 1 .43 1.08h-5.66a9.82 9.82 0 0 0-.3 1.08h6.25a10.28 10.28 0 0 1-.3 5.41h-5.65a10.2 10.2 0 0 0 .43 1.08h4.8a10.2 10.2 0 0 1-.59 1.08h-3.62A10.2 10.2 0 0 0 19 19h2a10.08 10.08 0 0 1-1 1.08 10.21 10.21 0 1 0 6.86-17.79z"/><path class="cls-3" d="M35.71 18.19a.33.33 0 1 1 .33.33.33.33 0 0 1-.33-.33zm.33.25a.25.25 0 1 0-.25-.25.25.25 0 0 0 .21.25zm0-.11h-.07V18h.2a.09.09 0 0 1 0 .07.08.08 0 0 1 0 .08l.05.13h-.08v-.11zm0-.16h.08H36z"/><path d="M32.28 14.78a.33.33 0 1 1 .33.33.33.33 0 0 1-.33-.33zm.33.25a.25.25 0 1 0-.25-.25.25.25 0 0 0 .25.22zm0-.11h-.11v-.29h.12a.13.13 0 0 1 .07 0 .09.09 0 0 1 0 .07.08.08 0 0 1 0 .08l.05.13h-.08v-.11zm0-.16h.08-.08zM12.87 9.84c-.09.4-.14.63-.26 1.11A2.88 2.88 0 0 0 10 11a2.09 2.09 0 0 0-.94 2 1.25 1.25 0 0 0 .77.95 2.58 2.58 0 0 0 2.17-.24c-.11.49-.19.88-.29 1.23A4.48 4.48 0 0 1 9 15a2.25 2.25 0 0 1-1.55-1.83A3 3 0 0 1 9.16 10a5.64 5.64 0 0 1 3.71-.16zm13.02 4.57a2.14 2.14 0 0 1-1.78.77c-1 0-1.67-.75-1.31-2.44l.42-2h1.56l-.42 2c-.14.68-.11 1.19.58 1.19s1.05-.49 1.21-1.19l.42-2h1.56l-.7 3.2c-.08.37-.15.77-.2 1.17h-1.46zm2.76-2.28c0 .55.36.93 1.19 1.21.64.22.74.29.74.48s-.28.39-.9.39a5.74 5.74 0 0 1-1.41-.21l-.22 1a11.5 11.5 0 0 0 1.63.12c1.65 0 2.42-.46 2.42-1.46 0-.6-.32-.95-1.1-1.21s-.73-.27-.73-.47.26-.35.77-.35c.31 0 .73 0 1.13.07l.22-1c-.41 0-1-.09-1.38-.09-1.76.04-2.37.71-2.36 1.52zm-15.11-1.38h1.56l-.93 4.36h-1.56l.93-4.36zm9.24-.02a1.78 1.78 0 0 0-1.79.69 3.1 3.1 0 0 0 .09-.67h-1.42c-.21 1.35-.57 2.72-.86 4.07l-.07.29h1.63a13.19 13.19 0 0 1 .64-2.63 1 1 0 0 1 1.26-.53zm-3.55 0a1.78 1.78 0 0 0-1.79.69 3.1 3.1 0 0 0 .09-.67H16.1c-.21 1.35-.57 2.72-.86 4.07l-.07.29h1.63a13.2 13.2 0 0 1 .68-2.63 1.05 1.05 0 0 1 1.26-.53z" fill="#fff"/></svg>