<svg id="Layer_1" data-name="Layer 1" xmlns="http://www.w3.org/2000/svg" width="40" height="25"><defs><style>.cls-2{fill:#fbb231}.cls-2,.cls-3,.cls-4{fill-rule:evenodd}.cls-3{fill:#ec1c2e}.cls-4{fill:#fff}.cls-5{fill:none;stroke:#fff;stroke-miterlimit:2.61;stroke-width:.22px}</style></defs><rect width="40" height="25" rx="1.33" ry="1.33" fill="#13457c"/><path class="cls-2" d="M26.84 22.73l.53-.02.52-.03.51-.07.51-.09.49-.11.49-.14.47-.16.47-.18.46-.21.44-.23.43-.24.41-.27.4-.29.39-.3.37-.32.36-.34.34-.36.32-.37.3-.39.29-.4.26-.41.25-.43.23-.44.2-.46.19-.47.16-.47.14-.49.11-.49.09-.51.07-.51.04-.52.01-.53-.01-.52-.04-.52-.07-.51-.09-.5-.11-.49-.14-.49-.16-.47-.19-.47-.2-.45-.23-.44-.25-.42-.26-.42-.29-.4-.3-.38-.32-.38-.34-.35-.36-.34-.37-.32-.39-.31-.4-.28-.41-.27-.43-.24-.44-.23-.46-.2-.47-.19-.47-.16-.49-.14-.49-.11-.51-.09-.51-.07-.52-.03-.53-.02-.52.02-.52.03-.51.07-.51.09-.49.11-.49.14-.47.16-.47.19-.45.2-.44.23-.42.24-.42.27-.4.28-.39.31-.36.32-.36.34-.34.35-.32.38-.3.38-.29.4-.26.42-.25.42-.22.44-.21.45-.18.47-.16.47-.14.49-.11.49-.09.5-.07.51-.03.52-.02.52.02.53.03.52.07.51.09.51.11.49.14.49.16.47.18.47.21.46.22.44.25.43.26.41.29.4.3.39.32.37.34.36.36.34.36.32.39.3.4.29.42.27.42.24.44.23.45.21.47.18.47.16.49.14.49.11.51.09.51.07.52.03.52.02z"/><path class="cls-3" d="M13.16 22.73l.52-.02.52-.03.51-.07.51-.09.49-.11.49-.14.47-.16.47-.18.45-.21.44-.23.42-.24.42-.27.4-.29.39-.3.36-.32.36-.34.34-.36.32-.37.3-.39.29-.4.26-.41.25-.43.22-.44.21-.46.18-.47.16-.47.14-.49.11-.49.09-.51.07-.51.03-.52.02-.53-.02-.52-.03-.52-.07-.51-.09-.5-.11-.49-.14-.49-.16-.47-.18-.47-.21-.45-.22-.44-.25-.42-.26-.42-.29-.4-.3-.38-.32-.38-.34-.35-.36-.34-.36-.32-.39-.31-.4-.28-.42-.27-.42-.24-.44-.23-.45-.2-.47-.19-.47-.16-.49-.14-.49-.11-.51-.09-.51-.07-.52-.03-.52-.02-.53.02-.52.03-.51.07-.51.09-.49.11-.49.14-.48.16-.46.19-.46.2-.44.23-.43.24-.41.27-.4.28-.39.31-.37.32-.36.34-.34.35-.32.38-.3.38-.29.4-.27.42-.25.42-.22.44-.21.45-.18.47-.16.47-.14.49-.11.49-.09.5-.07.51-.04.52-.01.52.01.53.04.52.07.51.09.51.11.49.14.49.16.47.18.47.21.46.22.44.25.43.27.41.29.4.3.39.32.37.34.36.36.34.37.32.39.3.4.29.41.27.43.24.44.23.46.21.46.18.48.16.49.14.49.11.51.09.51.07.52.03.53.02z"/><path class="cls-2" d="M18.8 6.2h5.44v-.56h-4.97l-.47.56zm-.81 1.23h6.25v-.56h-5.92l-.33.56zm-.61 1.23h6.86v-.55h-6.62l-.24.55zm-.42 1.24h7.28v-.56h-7.1l-.18.56zm.24 5.97h7.05v-.56h-7.22l.17.56zm.53 1.23h6.52v-.55h-6.78l.26.55zm.73 1.23h5.79v-.55h-6.14l.35.55zm1 1.24h4.79v-.56h-5.27l.48.56zm-2.74-8.44h7.52v-.56h-7.42l-.1.56zm4.58 3.5h2.87v-.55H21.4l-.1.55zm.23-1.23h2.64v-.56h-2.54l-.1.56zm-5-.56h.74v.56h-.71l-.03-.56z"/><path class="cls-4" d="M15.14 12.17h-.05l-.05-.01-.04-.01h-.05l-.04-.01-.04-.01h-.05l-.05-.01-.05-.01h-.11l-.07-.01h-.07l-.08.01h-.09l-.1.01-.07.01-.07.01-.05.02-.06.02-.04.03-.05.02-.03.04-.03.03-.02.04-.02.03-.01.05v.04l.01.04.02.05.02.04.04.05.07.06.08.05.1.05.1.04.11.03.11.04.12.04.11.04.1.06.1.08.09.08.07.11.05.13.04.16.01.18-.01.22-.03.16-.04.14-.06.14-.06.11-.08.1-.09.08-.1.08-.11.07-.11.05-.11.04-.12.04-.12.02-.12.03-.11.01h-.11l-.11.01h-.15l-.14-.01h-.34l-.09-.01-.08-.01-.08-.01-.07-.01-.07-.01-.06-.01-.06-.02-.06-.01-.06-.02-.05-.02-.06-.02.15-.77.04.01.03.01.05.02.06.01.06.01.07.02.08.02.08.01.09.01.09.02.09.01.1.01h.4l.1-.02.08-.03.06-.04.05-.04.03-.05.03-.06.02-.05.01-.05.01-.1-.04-.09-.05-.07-.09-.06-.1-.05-.12-.05-.14-.05-.13-.06-.14-.06-.13-.07-.12-.09-.11-.11-.09-.13-.06-.15-.03-.19v-.22l.02-.14.02-.12.04-.12.04-.11.05-.1.07-.09.07-.09.08-.07.1-.07.12-.06.12-.05.14-.04.15-.03.17-.02.19-.02h.45l.1.01h.1l.09.01h.08l.06.01.07.01.05.01.05.01h.05l.04.01.03.01h.04l.03.01h.02l-.17.78z"/><path class="cls-5" d="M15.14 12.17h-.05l-.05-.01-.04-.01h-.05l-.04-.01-.04-.01h-.05l-.05-.01-.05-.01h-.11l-.07-.01h-.07l-.08.01h-.09l-.1.01-.07.01-.07.01-.05.02-.06.02-.04.03-.05.02-.03.04-.03.03-.02.04-.02.03-.01.05v.04l.01.04.02.05.02.04.04.05.07.06.08.05.1.05.1.04.11.03.11.04.12.04.11.04.1.06.1.08.09.08.07.11.05.13.04.16.01.18-.01.22-.03.16-.04.14-.06.14-.06.11-.08.1-.09.08-.1.08-.11.07-.11.05-.11.04-.12.04-.12.02-.12.03-.11.01h-.11l-.11.01h-.15l-.14-.01h-.34l-.09-.01-.08-.01-.08-.01-.07-.01-.07-.01-.06-.01-.06-.02-.06-.01-.06-.02-.05-.02-.06-.02.15-.77.04.01.03.01.05.02.06.01.06.01.07.02.08.02.08.01.09.01.09.02.09.01.1.01h.4l.1-.02.08-.03.06-.04.05-.04.03-.05.03-.06.02-.05.01-.05.01-.1-.04-.09-.05-.07-.09-.06-.1-.05-.12-.05-.14-.05-.13-.06-.14-.06-.13-.07-.12-.09-.11-.11-.09-.13-.06-.15-.03-.19v-.22l.02-.14.02-.12.04-.12.04-.11.05-.1.07-.09.07-.09.08-.07.1-.07.12-.06.12-.05.14-.04.15-.03.17-.02.19-.02h.45l.1.01h.1l.09.01h.08l.06.01.07.01.05.01.05.01h.05l.04.01.03.01h.04l.03.01h.02l-.17.78"/><path class="cls-4" d="M15.96 10.54h.95l-.14.83h.58l-.13.78-.61-.01-.33 1.92v.07l.02.06.03.04.05.04.06.03.07.02.07.01.09.01.07-.01h.07l.06-.01.06-.02.04-.01.03-.01.02-.01h.01l-.12.64-.02.02-.03.01-.02.02-.02.01-.03.01-.03.01-.03.01-.03.01-.03.01-.04.01-.04.01h-.04l-.05.01-.05.01h-.05l-.06.01h-.26l-.14-.01-.12-.02-.11-.02-.1-.02-.08-.03-.06-.03-.06-.05-.04-.04-.04-.05-.02-.06-.02-.06-.01-.06v-.15l.01-.08.01-.09.66-3.76z"/><path class="cls-5" d="M15.96 10.54h.95l-.14.83h.58l-.13.78-.61-.01-.33 1.92v.07l.02.06.03.04.05.04.06.03.07.02.07.01.09.01.07-.01h.07l.06-.01.06-.02.04-.01.03-.01.02-.01h.01l-.12.64-.02.02-.03.01-.02.02-.02.01-.03.01-.03.01-.03.01-.03.01-.03.01-.04.01-.04.01h-.04l-.05.01-.05.01h-.05l-.06.01h-.26l-.14-.01-.12-.02-.11-.02-.1-.02-.08-.03-.06-.03-.06-.05-.04-.04-.04-.05-.02-.06-.02-.06-.01-.06v-.15l.01-.08.01-.09.66-3.76"/><path class="cls-5" d="M18.11 13.45l-.01.06v.13l.01.07.03.06.03.07.03.06.05.06.05.06.05.05.05.05.06.04.06.04.08.03.06.03.07.01.09.01.09.01.09.01.09.01h.27l.09-.01.1-.01.09-.02.1-.02.09-.03.1-.04.1-.04.09-.05.11-.06-.14.85-.06.02-.05.03-.06.02-.05.02-.05.02-.06.02-.05.01-.06.01-.06.01-.07.01-.08.01h-.08l-.09.01h-.48l-.17-.02-.17-.03-.18-.04-.16-.05-.17-.06-.15-.09-.15-.1-.13-.12-.12-.14-.1-.16-.08-.18-.06-.2-.04-.24-.01-.25.02-.28.01-.12.02-.12.03-.14.04-.14.05-.15.06-.15.08-.15.1-.15.11-.13.13-.13.16-.12.17-.1.2-.09.22-.06.25-.05.28-.01h.13l.15.02.14.02.14.04.14.05.13.06.13.08.11.1.1.12.09.14.07.16.05.18.02.2.01.24-.03.26-.05.29-.02.21h-2.51l.16-.68h1.51l.01-.08-.01-.09v-.07l-.02-.07-.02-.07-.03-.06-.03-.05-.04-.05-.04-.04-.04-.03-.05-.03-.06-.03-.05-.02-.06-.01-.05-.02h-.13l-.06.01-.06.02-.06.02-.06.02-.05.03-.05.04-.05.04-.04.05-.04.05-.04.06-.03.06-.04.06-.02.07-.02.07-.01.07-.14.71"/><path class="cls-4" d="M26.34 11.58l-.05-.02-.04-.02-.05-.03-.05-.02-.05-.02-.06-.02-.06-.02-.06-.03-.07-.01-.06-.02-.08-.01-.07-.01-.08-.01h-.42l-.1.01-.09.02-.1.03-.1.04-.09.04-.1.07-.09.07-.09.09-.09.11-.08.13-.08.15-.07.17-.06.2-.06.22-.02.12-.01.12-.01.12v.12l.01.12.03.11.03.1.04.11.05.09.06.09.07.08.08.07.1.06.1.05.12.05.13.03.05.01.05.01.06.01h.07l.08.01h.16l.09-.01.09-.01.09-.01.08-.03.09-.02.09-.04.08-.05.07-.05.07-.06-.16.92-.02.01-.02.03-.03.02-.03.02-.04.03-.04.02-.06.03-.06.02-.08.02-.09.02-.1.01-.12.02h-.14l-.15.01-.18-.01-.19-.01-.16-.01-.16-.04-.16-.05-.16-.07-.15-.08-.14-.11-.14-.12-.13-.13-.12-.16-.09-.17-.08-.2-.07-.21-.04-.23-.01-.24.01-.27.03-.29.03-.14.03-.14.04-.13.03-.13.04-.12.04-.12.05-.12.05-.1.05-.11.05-.1.06-.1.06-.09.06-.08.07-.08.07-.08.07-.07.08-.07.08-.07.09-.06.08-.05.1-.05.09-.05.09-.04.11-.04.1-.03.11-.03.11-.02.12-.02.11-.02.13-.02h.12l.13-.01.11.01h.11l.1.01.11.02.1.01.09.02.09.02.08.02.08.02.07.02.06.02.06.02.05.02.04.02.03.01.02.01-.17.95z"/><path class="cls-5" d="M26.34 11.58l-.05-.02-.04-.02-.05-.03-.05-.02-.05-.02-.06-.02-.06-.02-.06-.03-.07-.01-.06-.02-.08-.01-.07-.01-.08-.01h-.42l-.1.01-.09.02-.1.03-.1.04-.09.04-.1.07-.09.07-.09.09-.09.11-.08.13-.08.15-.07.17-.06.2-.06.22-.02.12-.01.12-.01.12v.12l.01.12.03.11.03.1.04.11.05.09.06.09.07.08.08.07.1.06.1.05.12.05.13.03.05.01.05.01.06.01h.07l.08.01h.16l.09-.01.09-.01.09-.01.08-.03.09-.02.09-.04.08-.05.07-.05.07-.06-.16.92-.02.01-.02.03-.03.02-.03.02-.04.03-.04.02-.06.03-.06.02-.08.02-.09.02-.1.01-.12.02h-.14l-.15.01-.18-.01-.19-.01-.16-.01-.16-.04-.16-.05-.16-.07-.15-.08-.14-.11-.14-.12-.13-.13-.12-.16-.09-.17-.08-.2-.07-.21-.04-.23-.01-.24.01-.27.03-.29.03-.14.03-.14.04-.13.03-.13.04-.12.04-.12.05-.12.05-.1.05-.11.05-.1.06-.1.06-.09.06-.08.07-.08.07-.08.07-.07.08-.07.08-.07.09-.06.08-.05.1-.05.09-.05.09-.04.11-.04.1-.03.11-.03.11-.02.12-.02.11-.02.13-.02h.12l.13-.01.11.01h.11l.1.01.11.02.1.01.09.02.09.02.08.02.08.02.07.02.06.02.06.02.05.02.04.02.03.01.02.01-.17.95"/><path class="cls-4" d="M34.83 15.07h-.95l.07-.38v-.04l-.06.07-.06.06-.06.06-.06.05-.06.04-.06.04-.07.03-.06.03-.07.03-.06.01-.07.02-.07.01-.07.01-.06.01h-.14l-.18-.01-.16-.04-.16-.06-.13-.08-.13-.1-.11-.12-.1-.12-.08-.15-.07-.15-.05-.17-.04-.16-.03-.18-.01-.18.01-.18.01-.17.03-.18.06-.2.06-.19.07-.18.09-.17.09-.15.1-.14.11-.12.11-.12.12-.1.13-.08.13-.08.13-.06.14-.05.14-.03.14-.02.14-.01.1.01.09.01.09.01.09.03.07.03.07.03.07.04.07.03.05.04.05.05.05.05.04.04.03.04.03.05.03.04.02.04.24-1.35h.94l-.78 4.51z"/><path class="cls-5" d="M34.83 15.07h-.95l.07-.38v-.04l-.06.07-.06.06-.06.06-.06.05-.06.04-.06.04-.07.03-.06.03-.07.03-.06.01-.07.02-.07.01-.07.01-.06.01h-.14l-.18-.01-.16-.04-.16-.06-.13-.08-.13-.1-.11-.12-.1-.12-.08-.15-.07-.15-.05-.17-.04-.16-.03-.18-.01-.18.01-.18.01-.17.03-.18.06-.2.06-.19.07-.18.09-.17.09-.15.1-.14.11-.12.11-.12.12-.1.13-.08.13-.08.13-.06.14-.05.14-.03.14-.02.14-.01.1.01.09.01.09.01.09.03.07.03.07.03.07.04.07.03.05.04.05.05.05.05.04.04.03.04.03.05.03.04.02.04.24-1.35h.94l-.78 4.51"/><path class="cls-2" d="M33.27 14.23h.1l.09-.02.08-.03.08-.04.07-.04.07-.05.07-.06.05-.06.06-.07.04-.07.05-.08.04-.09.03-.08.03-.09.02-.1.02-.09.02-.1.01-.1v-.09l-.01-.09-.01-.09-.01-.09-.02-.08-.03-.08-.04-.07-.04-.07-.04-.05-.05-.05-.06-.04-.06-.03-.07-.02h-.17l-.08.02-.08.02-.08.04-.07.04-.07.06-.06.06-.06.06-.05.08-.05.08-.04.08-.04.09-.03.09-.03.1-.03.1-.02.1-.02.15.01.16.02.17.05.17.07.14.09.11.11.08.14.02z"/><path class="cls-4" d="M12.08 14.3l-.14.77h-.87l.03-.14.02-.13.01-.1.01-.05-.04.06-.06.05-.07.05-.07.05-.08.05-.09.04-.09.04-.09.04-.1.03-.1.02-.1.02-.1.02-.11.01h-.09l-.1-.01-.09-.02-.13-.03-.11-.03-.09-.05-.09-.05-.07-.05-.07-.07-.06-.06-.05-.07-.04-.07-.03-.08-.03-.07-.02-.08-.01-.08-.02-.08v-.15l.01-.14.02-.12.03-.12.05-.12.05-.11.06-.1.08-.1.08-.08.09-.08.09-.08.1-.06.11-.06.11-.04.11-.04.12-.04.12-.01h.01l.01-.01h.03l.04-.01h.04l.05-.01h.05l.06-.01.06-.01h.05l.07-.01h.05l.06-.01h.45l.06.01h.09l.01-.02.02-.06.02-.08v-.06l-.01-.08-.03-.07-.04-.06-.06-.05-.06-.04-.07-.04-.09-.02h-.09l-.09-.01h-.32l-.12.01-.11.01-.11.01-.11.01-.1.02-.1.02-.09.01-.08.02-.08.02-.06.02-.05.02-.04.03.25-.84.07-.03.08-.02.08-.03.09-.02.08-.01.09-.02.09-.01.09-.01h.1l.1-.01h.55l.12.01h.1l.1.02.11.02.11.03.11.05.1.05.11.05.09.07.09.08.07.08.07.09.05.1.04.12.02.11v.13l-.02.14-.35 1.82z"/><path class="cls-5" d="M12.08 14.3l-.14.77h-.87l.03-.14.02-.13.01-.1.01-.05-.04.06-.06.05-.07.05-.07.05-.08.05-.09.04-.09.04-.09.04-.1.03-.1.02-.1.02-.1.02-.11.01h-.09l-.1-.01-.09-.02-.13-.03-.11-.03-.09-.05-.09-.05-.07-.05-.07-.07-.06-.06-.05-.07-.04-.07-.03-.08-.03-.07-.02-.08-.01-.08-.02-.08v-.15l.01-.14.02-.12.03-.12.05-.12.05-.11.06-.1.08-.1.08-.08.09-.08.09-.08.1-.06.11-.06.11-.04.11-.04.12-.04.12-.01h.01l.01-.01h.03l.04-.01h.04l.05-.01h.05l.06-.01.06-.01h.05l.07-.01h.05l.06-.01h.45l.06.01h.09l.01-.02.02-.06.02-.08v-.06l-.01-.08-.03-.07-.04-.06-.06-.05-.06-.04-.07-.04-.09-.02h-.09l-.09-.01h-.32l-.12.01-.11.01-.11.01-.11.01-.1.02-.1.02-.09.01-.08.02-.08.02-.06.02-.05.02-.04.03.25-.84.07-.03.08-.02.08-.03.09-.02.08-.01.09-.02.09-.01.09-.01h.1l.1-.01h.55l.12.01h.1l.1.02.11.02.11.03.11.05.1.05.11.05.09.07.09.08.07.08.07.09.05.1.04.12.02.11v.13l-.02.14-.35 1.82"/><path class="cls-3" d="M11.25 13.4v-.02l-.02-.01-.02-.01-.03-.01-.04-.01h-.2l-.06.01-.06.01-.05.01h-.06l-.04.01-.04.01-.04.01-.03.01-.02.01-.04.01-.04.02-.05.02-.04.03-.05.02-.04.03-.05.03-.05.04-.04.04-.04.04-.03.04-.03.05-.02.06-.01.05v.12l.02.09.03.07.05.05.05.04.06.02.05.01h.16l.1-.01.09-.01.07-.02.07-.03.07-.03.06-.03.05-.04.04-.03.05-.05.03-.03.03-.04.02-.05.02-.04.02-.03.01-.04.03-.1.02-.12.02-.11.02-.09z"/><path class="cls-4" d="M4.82 15.07h-.94l.79-4.53H6.3l.15 2.69 1.13-2.69h1.71l-.81 4.53h-.93l.59-3.38H8.1l-1.4 3.38H5.64l-.01-.14-.02-.38-.03-.53-.04-.62-.03-.61-.03-.55-.03-.39v-.16h-.06l-.57 3.38z"/><path class="cls-5" d="M4.82 15.07h-.94l.79-4.53H6.3l.15 2.69 1.13-2.69h1.71l-.81 4.53h-.93l.59-3.38H8.1l-1.4 3.38H5.64l-.01-.14-.02-.38-.03-.53-.04-.62-.03-.61-.03-.55-.03-.39v-.16h-.06l-.57 3.38"/><path class="cls-4" d="M29.2 14.3l-.14.77h-.86v-.14l.01-.13v-.09l.01-.04-.05.05-.05.05-.06.05-.07.05-.08.04-.08.05-.08.04-.09.03-.09.03-.1.03-.1.01-.09.02-.1.01h-.1l-.09-.01-.1-.02-.12-.03-.11-.03-.1-.05-.09-.05-.07-.05-.07-.07-.05-.06-.05-.07-.04-.07-.03-.08-.03-.07-.02-.08-.01-.08-.01-.08-.01-.08v-.07l.01-.14.02-.12.03-.12.04-.12.05-.11.07-.1.07-.1.08-.08.09-.08.09-.08.1-.06.11-.06.11-.04.11-.04.12-.04.11-.01h.01l.02-.01h.02l.04-.01h.04l.05-.01h.05l.06-.01.06-.01h.06l.06-.01h.06l.05-.01h.46l.06.01h.1l.01-.02.01-.06.01-.08v-.06l-.01-.08-.03-.07-.04-.06-.05-.05-.06-.04-.08-.04-.07-.02h-.09l-.09-.01h-.32l-.12.01-.11.01-.11.01-.11.01-.1.02-.1.02-.09.01-.08.02-.08.02-.06.02-.05.02-.04.03.25-.84.07-.03.08-.02.08-.03.08-.02.09-.01.09-.02.09-.01.09-.01h.1l.1-.01h.54l.12.01h.09l.11.02.1.02.11.03.11.05.11.05.1.05.1.07.08.08.08.08.07.09.05.1.04.12.03.11v.13l-.02.14-.37 1.82z"/><path class="cls-4" d="M29.06 15.09l.03-.02.14-.76-.05-.01-.14.77.02-.03v.05h.02l.01-.02-.03.02z"/><path class="cls-4" d="M28.18 15.07l.02.02h.86v-.05h-.86l.02.03h-.04l-.01.02h.03l-.02-.02z"/><path class="cls-4" d="M28.23 14.68l-.03-.03-.01.06-.01.09v.27h.04l.01-.14v-.25l-.03-.03.03.03z"/><path class="cls-4" d="M26.89 15.13l.1.01.09.01.1-.01h.1l.1-.01.09-.02.1-.03.1-.03.08-.03.09-.04.08-.04.08-.05.07-.05.06-.05.06-.06.04-.05-.03-.03-.05.06-.04.05-.07.04-.06.05-.08.04-.08.05-.08.04-.09.03-.09.03-.09.03-.1.01-.09.02h-.1l-.1.01-.09-.01-.09-.02-.01.05z"/><path class="cls-4" d="M26.05 14.08l.01.07.01.08v.08l.02.08.02.08.03.08.03.08.04.07.05.07.05.07.07.06.08.06.09.05.1.05.12.03.12.04.01-.05-.13-.03-.1-.03-.1-.05-.09-.05-.07-.05-.06-.06-.06-.07-.04-.06-.04-.07-.03-.08-.03-.07-.02-.07-.01-.08-.01-.08-.01-.08v-.07h-.05zm1.24-1.33l-.12.03-.11.03-.12.03-.11.05-.11.06-.1.07-.09.07-.09.08-.08.09-.08.09-.07.11-.05.11-.04.12-.03.12-.02.13-.02.14h.05l.01-.14.02-.12.03-.12.04-.11.05-.11.07-.1.07-.09.08-.09.08-.08.1-.07.09-.06.11-.06.1-.05.12-.03.11-.03.11-.03v-.04zm.71-.07h-.03l-.05.01h-.05l-.05.01h-.06l-.06.01h-.06l-.06.01-.06.01h-.05l-.05.01h-.04l-.04.01h-.05v.04h.09l.04-.01h.05l.05-.01.06-.01.06-.01h.06l.06-.01h.06l.05-.01H28v-.05zm.47.04l.02-.02h-.1l-.06-.01h-.16l-.08-.01H28v.05h.17l.08.01h.24l.02-.01-.02.01.02.01v-.02l-.04-.01z"/><path class="cls-4" d="M28.5 12.5v.06l-.01.07-.01.07-.01.02.04.01.01-.03.01-.06.01-.08.01-.06h-.05zm-.41-.34h.08l.08.03.07.03.05.04.05.04.04.06.03.07.01.07h.05l-.02-.08-.03-.08-.04-.06-.06-.06-.06-.05-.08-.03-.08-.02-.09-.01v.05zm-1.48.16l.04.02.03-.01.05-.03.06-.02.07-.02.09-.02.09-.01.1-.02.09-.01.11-.02.11-.01.11-.01.12-.01H28l.09.01v-.04l-.09-.01h-.32l-.12.01-.11.01-.11.01-.11.01-.1.02-.1.02-.09.01-.08.02-.08.02-.07.02-.05.03-.04.02.04.02-.05-.01z"/><path class="cls-4" d="M26.87 11.47l-.01.02-.25.83.05.01.24-.83-.02.02-.01-.05-.01.01v.01l.01-.02z"/><path class="cls-4" d="M28.41 11.31h-.12l-.12-.01h-.33l-.09.01h-.1l-.1.01-.09.01-.1.01-.08.02-.09.01-.08.02-.09.02-.07.03-.08.03.01.05.08-.04.08-.02.07-.03.09-.02.08-.01.09-.02.09-.01.09-.01h.1l.1-.01h.42l.12.01h.12v-.05z"/><path class="cls-4" d="M29.59 12.48l.02-.14v-.13l-.03-.12-.04-.11-.05-.11-.07-.1-.08-.08-.09-.08-.1-.06-.1-.07-.11-.04-.11-.05-.12-.03-.1-.02-.11-.02-.09-.01v.05h.09l.1.02.11.02.11.04.1.04.1.05.11.05.09.07.09.07.07.08.07.09.05.1.04.11.02.11v.13l-.01.14h.04z"/><path class="cls-4" d="M29.23 14.31l.36-1.83h-.04l-.37 1.82.05.01z"/><path class="cls-2" d="M28.37 13.4l-.01-.02-.01-.01-.02-.02-.04-.01h-.18l-.06.01h-.06l-.05.01-.05.01-.05.01h-.05l-.04.02h-.04l-.02.01-.03.01-.03.01-.04.01-.05.02-.04.02-.05.03-.04.03-.05.03-.04.04-.04.03-.04.05-.03.05-.02.05-.02.05-.01.06-.01.12.02.09.03.07.04.05.05.04.06.02.06.01h.16l.1-.01.09-.02.08-.02.07-.03.07-.03.06-.04.05-.04.05-.04.04-.04.04-.04.03-.05.03-.04.01-.04.02-.04.01-.04.01-.09.02-.1.01-.1.01-.09z"/><path class="cls-4" d="M35.48 14.6v-.08l.03-.1.05-.08.06-.07.07-.06.08-.04.09-.03.1-.01.1.01.09.03.08.04.07.06.06.07.05.08.03.1v.08h-.1v-.07l-.02-.07-.04-.07-.04-.06-.06-.05-.06-.03-.08-.03h-.16l-.07.03-.07.03-.06.05-.04.06-.04.07-.01.07-.01.07h-.1z"/><path class="cls-4" d="M35.79 14.6v-.21h.23l.04.01.03.01.02.01.02.03.01.02.01.02v.05l-.01.03-.01.02-.01.01h-.14l.01-.01h.03l.02-.01h.01l.02-.01.01-.02v-.05l-.01-.02h-.01l-.01-.01h-.02l-.01-.01h-.15v.14h-.08zm-.31 0v.12l.03.09.05.08.06.07.07.06.08.05.09.02.1.01.1-.01.09-.02.08-.05.07-.06.06-.07.05-.08.03-.09.01-.1-.01-.02h-.1v.1l-.02.08-.04.06-.04.06-.06.05-.06.04-.08.02-.08.01-.08-.01-.07-.02-.07-.04-.06-.05-.04-.06-.04-.06-.01-.08-.01-.08v-.02h-.1z"/><path class="cls-4" d="M35.79 14.6v.21h.08v-.18h.09l.1.18h.07l-.1-.18h.05l.02-.01.02-.01v-.01h-.33z"/><path class="cls-5" d="M35.47 14.62v-.27l.06-.07.07-.06h.53l.07.06.06.07v.54l.04.11-.07.06h-.53l-.08-.06-.06-.07v-.27m.4.19h-.09v-.42h.32v.16H36l.1.17h-.07l-.1-.17h-.09v.17m.16-.16h.11-.2v.14H36m0 .26h.2v-.58h-.57V15H36"/><path class="cls-4" d="M29.46 15.07h.98l.35-1.96.01-.08.02-.08.02-.07.03-.08.03-.07.04-.08.05-.06.06-.07.06-.06.07-.06.07-.05.09-.04.1-.03.11-.03.13-.02.13-.01h.09l.15-.88h-.1l-.09.01-.08.02-.09.02-.07.03-.07.04-.07.03-.07.05-.06.05-.06.04-.06.06-.05.05-.05.06-.05.07-.06.06-.04.07.1-.63h-.97l-.65 3.7z"/><path class="cls-5" d="M29.46 15.07h.98l.35-1.96.01-.08.02-.08.02-.07.03-.08.03-.07.04-.08.05-.06.06-.07.06-.06.07-.06.07-.05.09-.04.1-.03.11-.03.13-.02.13-.01h.09l.15-.88h-.1l-.09.01-.08.02-.09.02-.07.03-.07.04-.07.03-.07.05-.06.05-.06.04-.06.06-.05.05-.05.06-.05.07-.06.06-.04.07.1-.63h-.97l-.65 3.7"/><path class="cls-4" d="M20.33 15.07h.99l.33-1.96.01-.08.02-.07.02-.08.02-.06.03-.07.03-.07.04-.06.05-.06.06-.05.06-.05.08-.04.08-.04.1-.03.1-.03.12-.02.14-.01h.02l.02.01h.04l.01.01h.01v-.02l.01-.04.01-.06.02-.07.03-.09.02-.1.03-.1.03-.09.03-.07.04-.07.03-.06.03-.06.04-.05.02-.04.02-.03v-.01h-.03l-.02-.01h-.21l-.1.01-.09.02-.08.02-.08.03-.07.03-.07.04-.06.04-.06.04-.05.06-.06.05-.05.06-.05.05-.05.07-.05.07-.05.07.12-.63h-.99l-.64 3.7z"/><path class="cls-5" d="M20.33 15.07h.99l.33-1.96.01-.08.02-.07.02-.08.02-.06.03-.07.03-.07.04-.06.05-.06.06-.05.06-.05.08-.04.08-.04.1-.03.1-.03.12-.02.14-.01h.02l.02.01h.04l.01.01h.01v-.02l.01-.04.01-.06.02-.07.03-.09.02-.1.03-.1.03-.09.03-.07.04-.07.03-.06.03-.06.04-.05.02-.04.02-.03v-.01h-.03l-.02-.01h-.21l-.1.01-.09.02-.08.02-.08.03-.07.03-.07.04-.06.04-.06.04-.05.06-.06.05-.05.06-.05.05-.05.07-.05.07-.05.07.12-.63h-.99l-.64 3.7"/><path class="cls-2" d="M35.48 18.7v-.02l.03-.08.05-.08.06-.07.07-.06.08-.04.09-.02.1-.01.1.01.09.02.08.04.07.06.06.07.05.08.03.08v.02h-.1l-.02-.07-.04-.07-.04-.06-.06-.05-.06-.03-.08-.03h-.16l-.07.03-.07.03-.06.05-.04.06-.04.07-.01.07h-.11z"/><path class="cls-2" d="M35.79 18.7v-.12h.23l.04.01h.03l.02.02.02.01.01.02.01.03v.03h-.07v-.04l-.01-.01-.01-.01h-.01l-.02-.01h-.16v.07h-.08zm-.31.07v-.07h.11l-.01.07h-.1z"/><path class="cls-2" d="M35.79 18.77v-.07h.08v.07h.09l.03-.01h.03l.02-.01.01-.01.02-.01.01-.01v-.02h.07v.02l-.01.02-.01.02-.01.01h-.33zm.55 0v-.07h.1l.01.07h-.11zm-.86 0v.12l.03.09.05.08.06.07.07.06.08.04.09.03.1.01.1-.01.09-.03.08-.04.07-.06.06-.07.05-.08.03-.09.01-.1v-.02h-.11v.1l-.02.07-.04.07-.04.06-.06.05-.06.03-.08.03h-.16l-.07-.03-.07-.03-.06-.05-.04-.06-.04-.07-.01-.07-.01-.08v-.02h-.1z"/><path class="cls-2" d="M35.79 18.77v.21h.08v-.18h.09l.1.18h.07l-.1-.18h.05l.02-.01.02-.02h-.33z"/><path class="cls-4" d="M20.43 12.47v-.39l-.07-.16-.09-.14-.1-.12-.11-.1-.12-.08-.13-.06-.14-.05h-1.09l-.22.06-.2.09-.17.1-.15.12-.13.13-.11.14-.1.14-.08.15-.06.15-.05.15v1.29l.06.2.08.18.1.16.12.14.13.12.14.1.16.09.16.07.17.05h1.85l.14-.85-.1.06-.1.05H18.6l-.06-.05-.24-.21v-.55h2.24v-.21l.05-.29v-.26zm-.93.32h-1.26v-.49h.73v.49z"/></svg>