<svg id="Layer_1" data-name="Layer 1" xmlns="http://www.w3.org/2000/svg" width="40" height="25"><defs><style>.cls-2{fill:#ec1c2e}.cls-3{fill:#0084c4}.cls-4{fill:#fff}.cls-5{fill:none;stroke:#fff;stroke-width:.21px}</style></defs><rect width="40" height="25" rx="1.33" ry="1.33" fill="#13457c"/><path class="cls-2" d="M26.79 22.73l.52-.01.53-.04.51-.07.5-.09.5-.11.49-.14.47-.16.47-.18.45-.21.44-.22.43-.25.42-.27.4-.28.39-.31.37-.32.36-.34.33-.36.33-.37.3-.39.29-.4.26-.41.25-.43.23-.44.2-.46.18-.47.17-.47.13-.49.12-.49.09-.51.06-.51.04-.52.02-.53-.02-.52-.04-.52-.06-.51-.09-.5-.12-.49-.13-.49-.17-.47-.18-.47-.2-.45-.23-.44-.25-.43-.26-.41-.29-.4-.3-.39-.33-.37-.33-.36-.36-.33-.37-.33-.39-.3-.4-.28-.42-.27-.43-.25-.44-.22-.45-.21-.47-.18-.47-.16-.49-.14-.5-.11-.5-.1-.51-.06-.53-.04-.52-.01-.53.01-.52.04-.51.06-.51.1-.5.11-.48.14-.48.16-.46.18-.46.21-.44.22-.42.25-.42.27-.4.28-.39.3-.37.33-.35.33-.34.36-.32.37-.3.39-.29.4-.27.41-.24.43-.23.44-.2.45-.18.47-.17.47-.13.49-.11.49-.09.5-.07.51-.04.52-.01.52.01.53.04.52.07.51.09.51.11.49.13.49.17.47.18.47.2.46.23.44.24.43.27.41.29.4.3.39.32.37.34.36.35.34.37.32.39.31.4.28.42.27.42.25.44.22.46.21.46.18.48.16.48.14.5.11.51.09.51.07.52.04.53.01z"/><path class="cls-3" d="M13.21 22.73l.53-.01.52-.04.52-.07.5-.09.5-.11.48-.14.48-.16.46-.18.46-.21.44-.22.42-.25.42-.27.4-.28.39-.31.37-.32.35-.34.34-.36.32-.37.31-.39.28-.4.27-.41.24-.43.23-.44.2-.46.18-.47.17-.47.13-.49.12-.49.09-.51.06-.51.04-.52.01-.53-.01-.52-.04-.52-.06-.51-.09-.5-.12-.49-.13-.49-.17-.47-.18-.47-.2-.45-.23-.44-.24-.43-.27-.41-.28-.4-.31-.39-.32-.37-.34-.36-.35-.33-.37-.33-.39-.3-.4-.28-.42-.27-.42-.25-.44-.22-.46-.21-.46-.18-.48-.16-.48-.14-.5-.11-.5-.1-.52-.06-.52-.04-.53-.01-.52.01-.53.04-.51.06-.5.1-.5.11-.49.14-.47.16-.47.18-.45.21-.44.22-.43.25-.42.27-.4.28-.39.3-.37.33-.35.33-.34.36-.33.37-.3.39-.29.4-.26.41-.25.43-.23.44-.2.45-.18.47-.17.47-.13.49-.12.49-.09.5-.06.51-.04.52-.02.52.02.53.04.52.06.51.09.51.12.49.13.49.17.47.18.47.2.46.23.44.25.43.26.41.29.4.3.39.33.37.34.36.35.34.37.32.39.31.4.28.42.27.43.25.44.22.45.21.47.18.47.16.49.14.5.11.5.09.51.07.53.04.52.01z"/><path class="cls-2" d="M18.74 6.17h5.19v-.58h-4.69l-.5.58zm-.81 1.21h6v-.57h-5.64l-.36.57zm-.61 1.23h6.61v-.58H17.6l-.28.58zm-.4 1.21h7.01v-.57h-6.84l-.17.57zm-.26 1.21h7.27v-.57h-7.16l-.11.57zm-.05 2.35h7.32v-.57h-7.37l.05.57zm.17 1.28h7.15v-.57h-7.25l.1.57zm.35 1.04h6.8v-.57h-6.98l.18.57zm.52 1.27h6.28v-.58h-6.56l.28.58zm.73 1.28h5.55v-.57h-5.94l.39.57zm.91 1.23h4.59v-.57h-5.09l.5.57zm16.06-.71l.03-.1.05-.08.07-.07.07-.07.08-.04.09-.03.1-.01.1.01.1.03.08.04.08.07.06.07.04.08.03.1h-.1l-.02-.07-.04-.07-.04-.06-.06-.05-.07-.03-.08-.03-.08-.01-.08.01-.08.03-.06.03-.06.05-.05.06-.04.07-.02.07h-.1z"/><path class="cls-2" d="M35.67 18.77v-.13h.19l.04.01h.04l.03.01.03.01.02.02.02.02.01.02v.04h-.09v-.02l-.01-.02-.01-.01-.01-.01-.02-.01h-.15v.07h-.09zm-.33.08l.01-.08h.1v.01l-.01.07h-.1z"/><path class="cls-2" d="M35.67 18.85v-.08h.09v.07h.14l.02-.01.02-.01h.01l.01-.01v-.04h.09v.03l-.01.02-.01.02-.01.01h-.35zm.57 0l-.01-.07v-.01h.1l.01.08h-.1zm-.9 0v.02l.01.1.03.09.05.08.07.08.07.06.08.04.09.03.1.01.1-.01.1-.03.08-.04.08-.06.06-.08.04-.08.03-.09.01-.1v-.02h-.1v.02l-.01.09-.02.08-.04.07-.04.06-.06.05-.07.04-.08.02-.08.01-.08-.01-.08-.02-.06-.04-.06-.05-.05-.06-.04-.07-.02-.08-.01-.09v-.02h-.1z"/><path class="cls-2" d="M35.67 18.85v.21h.09v-.17h.08l.11.17h.08l-.12-.17h.03l.03-.01.02-.01.02-.01.01-.01h-.35z"/><path class="cls-4" d="M24.57 11.62h-.07l-.07-.01-.05-.01-.06-.01-.07-.01-.06-.01-.06-.01-.07-.01-.07-.01h-.07l-.09-.01h-.3l-.12.01-.14.01-.09.01-.1.02-.08.03-.07.03-.07.04-.06.04-.05.04-.04.05-.03.06-.02.05-.01.06v.06l.01.06.02.07.04.06.05.06.09.09.12.07.13.06.15.05.15.05.16.05.16.06.15.07.15.08.14.1.12.12.1.15.08.18.05.22.01.25-.01.31-.04.22-.06.2-.08.18-.09.16-.12.15-.12.12-.14.1-.15.09-.16.08-.16.06-.16.05-.17.03-.16.03-.16.02-.16.01h-.72l-.16-.01h-.14l-.13-.01-.12-.01-.11-.02-.1-.01-.09-.02-.09-.01-.09-.03-.08-.02-.08-.02-.08-.03-.08-.03.21-1.06.04.01.06.02.07.01.08.02.09.02.1.03.11.01.11.02.12.02.13.02.13.01.14.02h.57l.13-.02.11-.04.08-.06.07-.06.05-.07.04-.07.03-.08.02-.07.01-.08v-.06l-.02-.07-.03-.05-.03-.05-.05-.05-.06-.05-.06-.04-.07-.03-.08-.04-.08-.04-.09-.03-.09-.03-.09-.04-.1-.04-.09-.04-.1-.04-.09-.04-.1-.05-.09-.06-.09-.05-.08-.07-.07-.07-.07-.08-.07-.09-.06-.09-.04-.1-.04-.12-.03-.12-.02-.14v-.14l.01-.16.01-.1.01-.09.02-.09.02-.09.02-.09.02-.08.03-.08.03-.07.04-.08.04-.07.04-.06.05-.06.05-.06.05-.06.06-.05.06-.06.07-.04.07-.05.08-.04.08-.04.08-.03.09-.03.1-.03.1-.03.1-.02.12-.02.11-.02.12-.01.13-.01.13-.01h.77l.14.01.11.01h.11l.1.01.08.01.08.01.07.01.06.01.05.01h.05l.04.01.04.01h.04l-.24 1.09z"/><path class="cls-5" d="M24.57 11.62h-.07l-.07-.01-.05-.01-.06-.01-.07-.01-.06-.01-.06-.01-.07-.01-.07-.01h-.07l-.09-.01h-.3l-.12.01-.14.01-.09.01-.1.02-.08.03-.07.03-.07.04-.06.04-.05.04-.04.05-.03.06-.02.05-.01.06v.06l.01.06.02.07.04.06.05.06.09.09.12.07.13.06.15.05.15.05.16.05.16.06.15.07.15.08.14.1.12.12.1.15.08.18.05.22.01.25-.01.31-.04.22-.06.2-.08.18-.09.16-.12.15-.12.12-.14.1-.15.09-.16.08-.16.06-.16.05-.17.03-.16.03-.16.02-.16.01h-.72l-.16-.01h-.14l-.13-.01-.12-.01-.11-.02-.1-.01-.09-.02-.09-.01-.09-.03-.08-.02-.08-.02-.08-.03-.08-.03.21-1.06.04.01.06.02.07.01.08.02.09.02.1.03.11.01.11.02.12.02.13.02.13.01.14.02h.57l.13-.02.11-.04.08-.06.07-.06.05-.07.04-.07.03-.08.02-.07.01-.08v-.06l-.02-.07-.03-.05-.03-.05-.05-.05-.06-.05-.06-.04-.07-.03-.08-.04-.08-.04-.09-.03-.09-.03-.09-.04-.1-.04-.09-.04-.1-.04-.09-.04-.1-.05-.09-.06-.09-.05-.08-.07-.07-.07-.07-.08-.07-.09-.06-.09-.04-.1-.04-.12-.03-.12-.02-.14v-.14l.01-.16.01-.1.01-.09.02-.09.02-.09.02-.09.02-.08.03-.08.03-.07.04-.08.04-.07.04-.06.05-.06.05-.06.05-.06.06-.05.06-.06.07-.04.07-.05.08-.04.08-.04.08-.03.09-.03.1-.03.1-.03.1-.02.12-.02.11-.02.12-.01.13-.01.13-.01h.77l.14.01.11.01h.11l.1.01.08.01.08.01.07.01.06.01.05.01h.05l.04.01.04.01h.04l-.24 1.09"/><path class="cls-4" d="M25.68 9.37h1.35l-.21 1.18h.83l-.19 1.07-.85-.02-.45 2.68v.15l.02.04.02.04.02.03.03.03.04.02.03.02.05.02.04.01.05.01.06.01h.36l.09-.02.08-.01.05-.02.05-.02.02-.01.01-.01-.13.92-.04.02-.04.02-.03.02-.04.01-.04.02-.04.01-.04.01-.04.02-.05.01-.05.01-.06.01-.06.01-.06.01-.07.01-.08.01-.08.01h-.36l-.19-.01-.18-.02-.15-.03-.13-.04-.11-.04-.09-.05-.08-.05-.06-.07-.05-.07-.04-.08-.02-.08-.02-.09v-.21l.01-.11.02-.12.9-5.26z"/><path class="cls-5" d="M25.68 9.37h1.35l-.21 1.18h.83l-.19 1.07-.85-.02-.45 2.68v.15l.02.04.02.04.02.03.03.03.04.02.03.02.05.02.04.01.05.01.06.01h.36l.09-.02.08-.01.05-.02.05-.02.02-.01.01-.01-.13.92-.04.02-.04.02-.03.02-.04.01-.04.02-.04.01-.04.01-.04.02-.05.01-.05.01-.06.01-.06.01-.06.01-.07.01-.08.01-.08.01h-.36l-.19-.01-.18-.02-.15-.03-.13-.04-.11-.04-.09-.05-.08-.05-.06-.07-.05-.07-.04-.08-.02-.08-.02-.09v-.21l.01-.11.02-.12.9-5.26"/><path class="cls-4" d="M17.46 13.45l-.02.09v.08l.01.09.01.09.03.09.04.09.05.09.06.08.06.08.07.08.08.07.09.06.09.05.09.05.1.03.1.03.12.01.12.02.13.01.12.01h.39l.12-.02.13-.01.14-.03.13-.03.14-.05.13-.05.15-.06.13-.07.14-.08-.21 1.19-.07.04-.08.04-.07.03-.07.03-.08.02-.07.02-.08.02-.08.02-.09.01-.09.01-.11.01h-.11l-.12.01h-.68l-.12-.01-.12-.01-.13-.02-.12-.02-.12-.03-.12-.03-.12-.03-.12-.04-.11-.04-.11-.05-.12-.06-.1-.06-.1-.07-.1-.07-.1-.08-.09-.09-.09-.1-.07-.1-.08-.11-.07-.11-.06-.13-.05-.13-.05-.14-.03-.15-.03-.15-.02-.17-.02-.17v-.19l.01-.19.02-.2.01-.07.01-.08.01-.09.02-.08.01-.09.03-.1.02-.09.03-.11.03-.1.04-.1.05-.1.04-.11.05-.1.06-.11.07-.1.06-.1.08-.1.08-.1.09-.09.1-.09.1-.09.11-.08.12-.07.12-.07.14-.06.14-.06.16-.05.16-.04.17-.03.18-.03.19-.01.2-.01h.09l.1.01.09.01.1.01.1.01.1.02.1.02.1.03.09.03.1.04.09.04.1.05.08.05.09.05.08.07.08.07.07.08.08.09.06.09.06.1.05.1.05.12.04.12.03.13.03.15.01.14.01.16v.17l-.01.18-.02.19-.03.19-.04.21-.05.3h-3.5l.21-.94h2.1l.01-.12v-.12l-.01-.11-.02-.1-.03-.09-.03-.09-.04-.07-.05-.07-.06-.06-.06-.05-.07-.04-.07-.04-.08-.02-.08-.02-.08-.01h-.19l-.08.01-.09.01-.08.03-.08.04-.07.04-.07.05-.07.06-.06.07-.05.07-.05.08-.05.08-.04.09-.03.09-.03.1-.02.11-.19 1z"/><path class="cls-5" d="M17.46 13.45l-.02.09v.08l.01.09.01.09.03.09.04.09.05.09.06.08.06.08.07.08.08.07.09.06.09.05.09.05.1.03.1.03.12.01.12.02.13.01.12.01h.39l.12-.02.13-.01.14-.03.13-.03.14-.05.13-.05.15-.06.13-.07.14-.08-.21 1.19-.07.04-.08.04-.07.03-.07.03-.08.02-.07.02-.08.02-.08.02-.09.01-.09.01-.11.01h-.11l-.12.01h-.68l-.12-.01-.12-.01-.13-.02-.12-.02-.12-.03-.12-.03-.12-.03-.12-.04-.11-.04-.11-.05-.12-.06-.1-.06-.1-.07-.1-.07-.1-.08-.09-.09-.09-.1-.07-.1-.08-.11-.07-.11-.06-.13-.05-.13-.05-.14-.03-.15-.03-.15-.02-.17-.02-.17v-.19l.01-.19.02-.2.01-.07.01-.08.01-.09.02-.08.01-.09.03-.1.02-.09.03-.11.03-.1.04-.1.05-.1.04-.11.05-.1.06-.11.07-.1.06-.1.08-.1.08-.1.09-.09.1-.09.1-.09.11-.08.12-.07.12-.07.14-.06.14-.06.16-.05.16-.04.17-.03.18-.03.19-.01.2-.01h.09l.1.01.09.01.1.01.1.01.1.02.1.02.1.03.09.03.1.04.09.04.1.05.08.05.09.05.08.07.08.07.07.08.08.09.06.09.06.1.05.1.05.12.04.12.03.13.03.15.01.14.01.16v.17l-.01.18-.02.19-.03.19-.04.21-.05.3h-3.5l.21-.94h2.1l.01-.12v-.12l-.01-.11-.02-.1-.03-.09-.03-.09-.04-.07-.05-.07-.06-.06-.06-.05-.07-.04-.07-.04-.08-.02-.08-.02-.08-.01h-.19l-.08.01-.09.01-.08.03-.08.04-.07.04-.07.05-.07.06-.06.07-.05.07-.05.08-.05.08-.04.09-.03.09-.03.1-.02.11-.19 1"/><path class="cls-4" d="M15.59 14.63l-.19 1.07h-1.22l.02-.1.01-.1.01-.09.02-.09.01-.07.01-.06.01-.04.02-.02-.07.07-.08.08-.09.07-.1.07-.11.06-.13.06-.12.05-.13.05-.14.05-.14.03-.14.03-.15.02-.14.01-.13.01-.14-.01-.13-.02-.17-.05-.15-.05-.14-.06-.12-.07-.11-.08-.09-.09-.08-.09-.07-.1-.05-.1-.05-.11-.04-.1-.03-.11-.02-.11-.01-.11-.01-.11v-.1l.01-.19.03-.18.04-.17.07-.16.08-.16.08-.14.11-.13.11-.12.12-.11.13-.1.14-.09.15-.08.16-.06.16-.06.16-.04.16-.03h.03l.04-.01h.05l.06-.01.06-.01.08-.01h.08l.08-.01.08-.01.08-.01h.08l.08-.01h.07l.06-.01h.23l.06.01h.31l.03.01h.1l.01-.03.03-.09.01-.09v-.14l-.01-.06-.02-.06-.02-.05-.03-.04-.03-.05-.04-.04-.04-.04-.04-.03-.05-.03-.05-.02-.05-.03-.05-.01-.06-.02-.05-.01h-.06l-.14-.01-.14.01h-.15l-.16.01-.15.01-.16.01-.16.02-.15.02-.14.02-.14.02-.12.02-.12.03-.1.03-.09.02-.07.03-.05.03.34-1.14.1-.05.11-.04.11-.04.11-.03.12-.02.12-.02.13-.02.13-.01.14-.01.13-.01h.76l.17.01.14.01.14.02.15.04.16.04.15.06.15.07.14.08.14.09.12.11.11.12.1.13.07.14.05.16.03.17.01.18-.03.2-.5 2.53z"/><path class="cls-5" d="M15.59 14.63l-.19 1.07h-1.22l.02-.1.01-.1.01-.09.02-.09.01-.07.01-.06.01-.04.02-.02-.07.07-.08.08-.09.07-.1.07-.11.06-.13.06-.12.05-.13.05-.14.05-.14.03-.14.03-.15.02-.14.01-.13.01-.14-.01-.13-.02-.17-.05-.15-.05-.14-.06-.12-.07-.11-.08-.09-.09-.08-.09-.07-.1-.05-.1-.05-.11-.04-.1-.03-.11-.02-.11-.01-.11-.01-.11v-.1l.01-.19.03-.18.04-.17.07-.16.08-.16.08-.14.11-.13.11-.12.12-.11.13-.1.14-.09.15-.08.16-.06.16-.06.16-.04.16-.03h.03l.04-.01h.05l.06-.01.06-.01.08-.01h.08l.08-.01.08-.01.08-.01h.08l.08-.01h.07l.06-.01h.23l.06.01h.31l.03.01h.1l.01-.03.03-.09.01-.09v-.14l-.01-.06-.02-.06-.02-.05-.03-.04-.03-.05-.04-.04-.04-.04-.04-.03-.05-.03-.05-.02-.05-.03-.05-.01-.06-.02-.05-.01h-.06l-.14-.01-.14.01h-.15l-.16.01-.15.01-.16.01-.16.02-.15.02-.14.02-.14.02-.12.02-.12.03-.1.03-.09.02-.07.03-.05.03.34-1.14.1-.05.11-.04.11-.04.11-.03.12-.02.12-.02.13-.02.13-.01.14-.01.13-.01h.76l.17.01.14.01.14.02.15.04.16.04.15.06.15.07.14.08.14.09.12.11.11.12.1.13.07.14.05.16.03.17.01.18-.03.2-.5 2.53"/><path class="cls-3" d="M14.43 13.36v-.02l-.03-.02-.03-.02-.04-.01-.06-.01h-.21l-.07.01-.08.01-.08.01-.08.01-.07.01-.07.02-.06.01-.06.02-.03.01-.04.01-.05.02-.05.02-.06.02-.06.04-.07.03-.06.04-.06.05-.06.05-.06.05-.05.06-.05.07-.03.07-.03.07-.02.08v.17l.02.13.04.1.06.07.07.05.08.04.09.01.08.01.14-.01.14-.01.12-.02.11-.04.1-.03.09-.04.08-.05.07-.05.07-.05.05-.05.05-.06.04-.05.03-.06.03-.06.02-.05.02-.05.01-.08.02-.07.02-.08.01-.09.02-.08.01-.07.01-.07.02-.07z"/><path class="cls-4" d="M5.44 15.7H4.13l1.1-6.33h2.29l.22 3.77L9.3 9.37h2.37l-1.11 6.33H9.25l.83-4.74h-.05L8.07 15.7H6.6l-.01-.2-.03-.53-.05-.74-.05-.86-.05-.86-.04-.77-.03-.55-.02-.23h-.06.01l-.83 4.74z"/><path class="cls-5" d="M5.44 15.7H4.13l1.1-6.33h2.29l.22 3.77L9.3 9.37h2.37l-1.11 6.33H9.25l.83-4.74h-.05L8.07 15.7H6.6l-.01-.2-.03-.53-.05-.74-.05-.86-.05-.86-.04-.77-.03-.55-.02-.23h-.06.01l-.83 4.74"/><path class="cls-4" d="M27.41 15.7h1.37l.47-2.73.02-.11.02-.1.03-.11.03-.1.04-.09.04-.09.06-.09.06-.08.08-.08.09-.07.1-.06.12-.05.13-.05.15-.03.17-.02.19-.01h.09l.02.01h.04l.01-.02.01-.05.02-.09.03-.11.03-.13.04-.13.04-.13.05-.13.04-.1.04-.09.04-.09.05-.08.04-.07.03-.06.03-.04v-.01l-.02-.01h-.02l-.04-.01h-.03l-.04-.01h-.07l-.15.01-.13.01-.13.03-.11.03-.11.04-.1.04-.09.06-.08.06-.09.06-.08.07-.07.07-.07.08-.07.09-.07.09-.07.09-.07.1.16-.86-1.37-.02-.9 5.17z"/><path class="cls-5" d="M27.41 15.7h1.37l.47-2.73.02-.11.02-.1.03-.11.03-.1.04-.09.04-.09.06-.09.06-.08.08-.08.09-.07.1-.06.12-.05.13-.05.15-.03.17-.02.19-.01h.09l.02.01h.04l.01-.02.01-.05.02-.09.03-.11.03-.13.04-.13.04-.13.05-.13.04-.1.04-.09.04-.09.05-.08.04-.07.03-.06.03-.04v-.01l-.02-.01h-.02l-.04-.01h-.03l-.04-.01h-.07l-.15.01-.13.01-.13.03-.11.03-.11.04-.1.04-.09.06-.08.06-.09.06-.08.07-.07.07-.07.08-.07.09-.07.09-.07.09-.07.1.16-.86-1.37-.02-.9 5.17"/><path class="cls-4" d="M33.33 10.48h.15l.15.01.14.01.14.02.14.03.13.03.12.04.13.04.12.05.11.06.11.06.1.06.1.07.1.07.08.08.09.09.08.08.07.1.07.09.06.1.06.11.05.11.05.11.04.12.04.11.03.13.03.13.02.13.01.13.01.14v.28l-.01.17-.02.16-.03.16-.03.16-.03.15-.04.14-.05.13-.05.14-.06.12-.06.12-.07.11-.07.11-.08.11-.08.1-.09.09-.09.08-.1.08-.09.08-.11.07-.1.07-.11.06-.12.05-.11.05-.12.04-.12.04-.13.04-.13.02-.13.03-.13.02-.14.01-.13.01h-.28l-.14-.01-.13-.01-.13-.03-.13-.02-.13-.02-.12-.04-.11-.04-.12-.04-.11-.05-.11-.06-.11-.06-.09-.06-.1-.07-.09-.08-.09-.08-.08-.08-.08-.09-.07-.1-.07-.1-.06-.1-.06-.11-.06-.12-.04-.11-.04-.13-.04-.13-.03-.13-.02-.14-.02-.15-.01-.15v-.31l.01-.16.02-.15.02-.15.03-.15.03-.14.04-.14.05-.13.05-.13.05-.12.06-.12.07-.11.07-.11.08-.1.07-.1.09-.09.09-.09.09-.09.1-.08.1-.07.1-.07.11-.06.12-.06.12-.05.11-.05.13-.04.13-.03.13-.03.13-.03.14-.02.14-.01.15-.01h.14z"/><path class="cls-5" d="M33.33 10.48h.15l.15.01.14.01.14.02.14.03.13.03.12.04.13.04.12.05.11.06.11.06.1.06.1.07.1.07.08.08.09.09.08.08.07.1.07.09.06.1.06.11.05.11.05.11.04.12.04.11.03.13.03.13.02.13.01.13.01.14v.28l-.01.17-.02.16-.03.16-.03.16-.03.15-.04.14-.05.13-.05.14-.06.12-.06.12-.07.11-.07.11-.08.11-.08.1-.09.09-.09.08-.1.08-.09.08-.11.07-.1.07-.11.06-.12.05-.11.05-.12.04-.12.04-.13.04-.13.02-.13.03-.13.02-.14.01-.13.01h-.28l-.14-.01-.13-.01-.13-.03-.13-.02-.13-.02-.12-.04-.11-.04-.12-.04-.11-.05-.11-.06-.11-.06-.09-.06-.1-.07-.09-.08-.09-.08-.08-.08-.08-.09-.07-.1-.07-.1-.06-.1-.06-.11-.06-.12-.04-.11-.04-.13-.04-.13-.03-.13-.02-.14-.02-.15-.01-.15v-.31l.01-.16.02-.15.02-.15.03-.15.03-.14.04-.14.05-.13.05-.13.05-.12.06-.12.07-.11.07-.11.08-.1.07-.1.09-.09.09-.09.09-.09.1-.08.1-.07.1-.07.11-.06.12-.06.12-.05.11-.05.13-.04.13-.03.13-.03.13-.03.14-.02.14-.01.15-.01h.14"/><path class="cls-4" d="M35.34 15.44h.4v.05h-.16v.33h-.08v-.33h-.16v-.05z"/><path class="cls-5" d="M35.34 15.44h.4v.05h-.16v.33h-.08v-.33h-.16v-.05"/><path class="cls-4" d="M35.79 15.44h.12l.14.29.14-.29h.12v.38h-.09v-.29l-.14.29h-.07l-.13-.29v.29h-.09v-.38z"/><path class="cls-5" d="M35.79 15.44h.12l.14.29.14-.29h.12v.38h-.09v-.29l-.14.29h-.07l-.13-.29v.29h-.09v-.38"/><path class="cls-2" d="M32.26 12.95l-.02.19-.01.17v.16l.01.15.02.13.03.12.04.11.04.09.06.09.06.07.07.06.08.05.09.03.09.03.1.01.1.01h.12l.11-.02.1-.02.1-.04.1-.04.09-.07.08-.07.08-.08.07-.09.07-.11.06-.12.06-.13.05-.15.04-.16.03-.17.04-.18.01-.15.01-.13v-.14l-.01-.13-.01-.12-.03-.11-.04-.1-.04-.1-.06-.09-.06-.07-.07-.07-.08-.05-.08-.05-.1-.02-.1-.02h-.11l-.14.01-.12.02-.12.04-.11.05-.1.07-.1.07-.08.09-.08.09-.07.1-.06.11-.05.11-.04.11-.04.12-.04.11-.02.12-.02.11z"/></svg>