<svg id="Layer_1" data-name="Layer 1" xmlns="http://www.w3.org/2000/svg" width="40" height="25" viewBox="0 0 40 25"><defs><style>.cls-1{fill:#13457c;}.cls-2{fill:#fbb231;}.cls-2,.cls-3,.cls-4{fill-rule:evenodd;}.cls-3{fill:#ec1c2e;}.cls-4{fill:#fff;}.cls-5{fill:none;stroke:#fff;stroke-miterlimit:2.61;stroke-width:0.22px;}</style></defs><title>ip-mastercard</title><rect class="cls-1" width="40" height="25" rx="1.33" ry="1.33"/><polygon class="cls-2" points="26.84 22.73 27.37 22.71 27.89 22.68 28.4 22.61 28.91 22.52 29.4 22.41 29.89 22.27 30.36 22.11 30.83 21.93 31.29 21.72 31.73 21.49 32.16 21.25 32.57 20.98 32.97 20.69 33.36 20.39 33.73 20.07 34.09 19.73 34.43 19.37 34.75 19 35.05 18.61 35.34 18.21 35.6 17.8 35.85 17.37 36.08 16.93 36.28 16.47 36.47 16 36.63 15.53 36.77 15.04 36.88 14.55 36.97 14.04 37.04 13.53 37.08 13.01 37.09 12.48 37.08 11.96 37.04 11.44 36.97 10.93 36.88 10.43 36.77 9.94 36.63 9.45 36.47 8.98 36.28 8.51 36.08 8.06 35.85 7.62 35.6 7.2 35.34 6.78 35.05 6.38 34.75 6 34.43 5.62 34.09 5.27 33.73 4.93 33.36 4.61 32.97 4.3 32.57 4.02 32.16 3.75 31.73 3.51 31.29 3.28 30.83 3.08 30.36 2.89 29.89 2.73 29.4 2.59 28.91 2.48 28.4 2.39 27.89 2.32 27.37 2.29 26.84 2.27 26.32 2.29 25.8 2.32 25.29 2.39 24.78 2.48 24.29 2.59 23.8 2.73 23.33 2.89 22.86 3.08 22.41 3.28 21.97 3.51 21.55 3.75 21.13 4.02 20.73 4.3 20.34 4.61 19.98 4.93 19.62 5.27 19.28 5.62 18.96 6 18.66 6.38 18.37 6.78 18.11 7.2 17.86 7.62 17.64 8.06 17.43 8.51 17.25 8.98 17.09 9.45 16.95 9.94 16.84 10.43 16.75 10.93 16.68 11.44 16.65 11.96 16.63 12.48 16.65 13.01 16.68 13.53 16.75 14.04 16.84 14.55 16.95 15.04 17.09 15.53 17.25 16 17.43 16.47 17.64 16.93 17.86 17.37 18.11 17.8 18.37 18.21 18.66 18.61 18.96 19 19.28 19.37 19.62 19.73 19.98 20.07 20.34 20.39 20.73 20.69 21.13 20.98 21.55 21.25 21.97 21.49 22.41 21.72 22.86 21.93 23.33 22.11 23.8 22.27 24.29 22.41 24.78 22.52 25.29 22.61 25.8 22.68 26.32 22.71 26.84 22.73 26.84 22.73 26.84 22.73"/><polygon class="cls-3" points="13.16 22.73 13.68 22.71 14.2 22.68 14.71 22.61 15.22 22.52 15.71 22.41 16.2 22.27 16.67 22.11 17.14 21.93 17.59 21.72 18.03 21.49 18.45 21.25 18.87 20.98 19.27 20.69 19.66 20.39 20.02 20.07 20.38 19.73 20.72 19.37 21.04 19 21.34 18.61 21.63 18.21 21.89 17.8 22.14 17.37 22.36 16.93 22.57 16.47 22.75 16 22.91 15.53 23.05 15.04 23.16 14.55 23.25 14.04 23.32 13.53 23.35 13.01 23.37 12.48 23.35 11.96 23.32 11.44 23.25 10.93 23.16 10.43 23.05 9.94 22.91 9.45 22.75 8.98 22.57 8.51 22.36 8.06 22.14 7.62 21.89 7.2 21.63 6.78 21.34 6.38 21.04 6 20.72 5.62 20.38 5.27 20.02 4.93 19.66 4.61 19.27 4.3 18.87 4.02 18.45 3.75 18.03 3.51 17.59 3.28 17.14 3.08 16.67 2.89 16.2 2.73 15.71 2.59 15.22 2.48 14.71 2.39 14.2 2.32 13.68 2.29 13.16 2.27 12.63 2.29 12.11 2.32 11.6 2.39 11.09 2.48 10.6 2.59 10.11 2.73 9.63 2.89 9.17 3.08 8.71 3.28 8.27 3.51 7.84 3.75 7.43 4.02 7.03 4.3 6.64 4.61 6.27 4.93 5.91 5.27 5.57 5.62 5.25 6 4.95 6.38 4.66 6.78 4.39 7.2 4.14 7.62 3.92 8.06 3.71 8.51 3.53 8.98 3.37 9.45 3.23 9.94 3.12 10.43 3.03 10.93 2.96 11.44 2.92 11.96 2.91 12.48 2.92 13.01 2.96 13.53 3.03 14.04 3.12 14.55 3.23 15.04 3.37 15.53 3.53 16 3.71 16.47 3.92 16.93 4.14 17.37 4.39 17.8 4.66 18.21 4.95 18.61 5.25 19 5.57 19.37 5.91 19.73 6.27 20.07 6.64 20.39 7.03 20.69 7.43 20.98 7.84 21.25 8.27 21.49 8.71 21.72 9.17 21.93 9.63 22.11 10.11 22.27 10.6 22.41 11.09 22.52 11.6 22.61 12.11 22.68 12.63 22.71 13.16 22.73 13.16 22.73 13.16 22.73"/><polygon class="cls-2" points="18.8 6.2 24.24 6.2 24.24 5.64 19.27 5.64 18.8 6.2 18.8 6.2 18.8 6.2"/><polygon class="cls-2" points="17.99 7.43 24.24 7.43 24.24 6.87 18.32 6.87 17.99 7.43 17.99 7.43 17.99 7.43"/><polygon class="cls-2" points="17.38 8.66 24.24 8.66 24.24 8.11 17.62 8.11 17.38 8.66 17.38 8.66 17.38 8.66"/><polygon class="cls-2" points="16.96 9.9 24.24 9.9 24.24 9.34 17.14 9.34 16.96 9.9 16.96 9.9 16.96 9.9"/><polygon class="cls-2" points="17.2 15.87 24.25 15.87 24.25 15.31 17.03 15.31 17.2 15.87 17.2 15.87 17.2 15.87"/><polygon class="cls-2" points="17.73 17.1 24.25 17.1 24.25 16.55 17.47 16.55 17.73 17.1 17.73 17.1 17.73 17.1"/><polygon class="cls-2" points="18.46 18.33 24.25 18.33 24.25 17.78 18.11 17.78 18.46 18.33 18.46 18.33 18.46 18.33"/><polygon class="cls-2" points="19.46 19.57 24.25 19.57 24.25 19.01 18.98 19.01 19.46 19.57 19.46 19.57 19.46 19.57"/><polygon class="cls-2" points="16.72 11.13 24.24 11.13 24.24 10.57 16.82 10.57 16.72 11.13 16.72 11.13 16.72 11.13"/><polygon class="cls-2" points="21.3 14.63 24.17 14.63 24.17 14.08 21.4 14.08 21.3 14.63 21.3 14.63 21.3 14.63"/><polygon class="cls-2" points="21.53 13.4 24.17 13.4 24.17 12.84 21.63 12.84 21.53 13.4 21.53 13.4 21.53 13.4"/><polygon class="cls-2" points="16.53 12.84 17.27 12.84 17.27 13.4 16.56 13.4 16.53 12.84 16.53 12.84 16.53 12.84"/><polygon class="cls-4" points="15.14 12.17 15.09 12.17 15.04 12.16 15 12.15 14.95 12.15 14.91 12.14 14.87 12.13 14.82 12.13 14.77 12.12 14.72 12.11 14.67 12.11 14.61 12.11 14.54 12.1 14.47 12.1 14.39 12.11 14.3 12.11 14.2 12.12 14.13 12.13 14.06 12.14 14.01 12.16 13.95 12.18 13.91 12.21 13.86 12.23 13.83 12.27 13.8 12.3 13.78 12.34 13.76 12.37 13.75 12.42 13.75 12.46 13.76 12.5 13.78 12.55 13.8 12.59 13.84 12.64 13.91 12.7 13.99 12.75 14.09 12.8 14.19 12.84 14.3 12.87 14.41 12.91 14.53 12.95 14.64 12.99 14.74 13.05 14.84 13.13 14.93 13.21 15 13.32 15.05 13.45 15.09 13.61 15.1 13.79 15.09 14.01 15.06 14.17 15.02 14.31 14.96 14.45 14.9 14.56 14.82 14.66 14.73 14.74 14.63 14.82 14.52 14.89 14.41 14.94 14.3 14.98 14.18 15.02 14.06 15.04 13.94 15.07 13.83 15.08 13.72 15.08 13.61 15.09 13.46 15.09 13.32 15.08 13.2 15.08 13.09 15.08 12.98 15.08 12.89 15.07 12.81 15.06 12.73 15.05 12.66 15.04 12.59 15.03 12.53 15.02 12.47 15 12.41 14.99 12.35 14.97 12.3 14.95 12.24 14.93 12.39 14.16 12.43 14.17 12.46 14.18 12.51 14.2 12.57 14.21 12.63 14.22 12.7 14.24 12.78 14.26 12.86 14.27 12.95 14.28 13.04 14.3 13.13 14.31 13.23 14.32 13.33 14.32 13.43 14.32 13.53 14.32 13.63 14.32 13.73 14.3 13.81 14.27 13.87 14.23 13.92 14.19 13.95 14.14 13.98 14.08 14 14.03 14.01 13.98 14.02 13.88 13.98 13.79 13.93 13.72 13.84 13.66 13.74 13.61 13.62 13.56 13.48 13.51 13.35 13.45 13.21 13.39 13.08 13.32 12.96 13.23 12.85 13.12 12.76 12.99 12.7 12.84 12.67 12.65 12.67 12.43 12.69 12.29 12.71 12.17 12.75 12.05 12.79 11.94 12.84 11.84 12.91 11.75 12.98 11.66 13.06 11.59 13.16 11.52 13.28 11.46 13.4 11.41 13.54 11.37 13.69 11.34 13.86 11.32 14.05 11.3 14.25 11.3 14.38 11.3 14.5 11.3 14.6 11.31 14.7 11.31 14.79 11.32 14.87 11.32 14.93 11.33 15 11.34 15.05 11.35 15.1 11.36 15.15 11.36 15.19 11.37 15.22 11.38 15.26 11.38 15.29 11.39 15.31 11.39 15.14 12.17 15.14 12.17 15.14 12.17"/><polyline class="cls-5" points="15.14 12.17 15.14 12.17 15.09 12.17 15.04 12.16 15 12.15 14.95 12.15 14.91 12.14 14.87 12.13 14.82 12.13 14.77 12.12 14.72 12.11 14.67 12.11 14.61 12.11 14.54 12.1 14.47 12.1 14.39 12.11 14.3 12.11 14.2 12.12 14.2 12.12 14.13 12.13 14.06 12.14 14.01 12.16 13.95 12.18 13.91 12.21 13.86 12.23 13.83 12.27 13.8 12.3 13.78 12.34 13.76 12.37 13.75 12.42 13.75 12.46 13.76 12.5 13.78 12.55 13.8 12.59 13.84 12.64 13.84 12.64 13.91 12.7 13.99 12.75 14.09 12.8 14.19 12.84 14.3 12.87 14.41 12.91 14.53 12.95 14.64 12.99 14.74 13.05 14.84 13.13 14.93 13.21 15 13.32 15.05 13.45 15.09 13.61 15.1 13.79 15.09 14.01 15.09 14.01 15.06 14.17 15.02 14.31 14.96 14.45 14.9 14.56 14.82 14.66 14.73 14.74 14.63 14.82 14.52 14.89 14.41 14.94 14.3 14.98 14.18 15.02 14.06 15.04 13.94 15.07 13.83 15.08 13.72 15.08 13.61 15.09 13.61 15.09 13.46 15.09 13.32 15.08 13.2 15.08 13.09 15.08 12.98 15.08 12.89 15.07 12.81 15.06 12.73 15.05 12.66 15.04 12.59 15.03 12.53 15.02 12.47 15 12.41 14.99 12.35 14.97 12.3 14.95 12.24 14.93 12.39 14.16 12.39 14.16 12.43 14.17 12.46 14.18 12.51 14.2 12.57 14.21 12.63 14.22 12.7 14.24 12.78 14.26 12.86 14.27 12.95 14.28 13.04 14.3 13.13 14.31 13.23 14.32 13.33 14.32 13.43 14.32 13.53 14.32 13.63 14.32 13.63 14.32 13.73 14.3 13.81 14.27 13.87 14.23 13.92 14.19 13.95 14.14 13.98 14.08 14 14.03 14.01 13.98 14.01 13.98 14.02 13.88 13.98 13.79 13.93 13.72 13.84 13.66 13.74 13.61 13.62 13.56 13.48 13.51 13.35 13.45 13.21 13.39 13.08 13.32 12.96 13.23 12.85 13.12 12.76 12.99 12.7 12.84 12.67 12.65 12.67 12.43 12.67 12.43 12.69 12.29 12.71 12.17 12.75 12.05 12.79 11.94 12.84 11.84 12.91 11.75 12.98 11.66 13.06 11.59 13.16 11.52 13.28 11.46 13.4 11.41 13.54 11.37 13.69 11.34 13.86 11.32 14.05 11.3 14.25 11.3 14.25 11.3 14.38 11.3 14.5 11.3 14.6 11.31 14.7 11.31 14.79 11.32 14.87 11.32 14.93 11.33 15 11.34 15.05 11.35 15.1 11.36 15.15 11.36 15.19 11.37 15.22 11.38 15.26 11.38 15.29 11.39 15.31 11.39 15.14 12.17"/><polygon class="cls-4" points="15.96 10.54 16.91 10.54 16.77 11.37 17.35 11.37 17.22 12.15 16.61 12.14 16.28 14.06 16.28 14.13 16.3 14.19 16.33 14.23 16.38 14.27 16.44 14.3 16.51 14.32 16.58 14.33 16.67 14.34 16.74 14.33 16.81 14.33 16.87 14.32 16.93 14.3 16.97 14.29 17 14.28 17.02 14.27 17.03 14.27 16.91 14.91 16.89 14.93 16.86 14.94 16.84 14.96 16.82 14.97 16.79 14.98 16.76 14.99 16.73 15 16.7 15.01 16.67 15.02 16.63 15.03 16.59 15.04 16.55 15.04 16.5 15.05 16.45 15.06 16.4 15.06 16.34 15.07 16.08 15.07 15.94 15.06 15.82 15.04 15.71 15.02 15.61 15 15.53 14.97 15.47 14.94 15.41 14.89 15.37 14.85 15.33 14.8 15.31 14.74 15.29 14.68 15.28 14.62 15.28 14.54 15.28 14.47 15.29 14.39 15.3 14.3 15.96 10.54 15.96 10.54 15.96 10.54"/><polyline class="cls-5" points="15.96 10.54 16.91 10.54 16.77 11.37 17.35 11.37 17.22 12.15 16.61 12.14 16.28 14.06 16.28 14.06 16.28 14.13 16.3 14.19 16.33 14.23 16.38 14.27 16.44 14.3 16.51 14.32 16.58 14.33 16.67 14.34 16.67 14.34 16.74 14.33 16.81 14.33 16.87 14.32 16.93 14.3 16.97 14.29 17 14.28 17.02 14.27 17.03 14.27 16.91 14.91 16.91 14.91 16.89 14.93 16.86 14.94 16.84 14.96 16.82 14.97 16.79 14.98 16.76 14.99 16.73 15 16.7 15.01 16.67 15.02 16.63 15.03 16.59 15.04 16.55 15.04 16.5 15.05 16.45 15.06 16.4 15.06 16.34 15.07 16.08 15.07 16.08 15.07 15.94 15.06 15.82 15.04 15.71 15.02 15.61 15 15.53 14.97 15.47 14.94 15.41 14.89 15.37 14.85 15.33 14.8 15.31 14.74 15.29 14.68 15.28 14.62 15.28 14.54 15.28 14.47 15.29 14.39 15.3 14.3 15.96 10.54"/><polyline class="cls-5" points="18.11 13.45 18.11 13.45 18.1 13.51 18.1 13.57 18.1 13.64 18.11 13.71 18.14 13.77 18.17 13.84 18.2 13.9 18.25 13.96 18.3 14.02 18.35 14.07 18.4 14.12 18.46 14.16 18.52 14.2 18.6 14.23 18.66 14.26 18.73 14.27 18.73 14.27 18.82 14.28 18.91 14.29 19 14.3 19.09 14.31 19.18 14.31 19.27 14.31 19.36 14.31 19.45 14.3 19.55 14.29 19.64 14.27 19.74 14.25 19.83 14.22 19.93 14.18 20.03 14.14 20.12 14.09 20.23 14.03 20.09 14.88 20.09 14.88 20.03 14.9 19.98 14.93 19.92 14.95 19.87 14.97 19.82 14.99 19.76 15.01 19.71 15.02 19.65 15.03 19.59 15.04 19.52 15.05 19.44 15.06 19.36 15.06 19.27 15.07 19.18 15.07 19.07 15.07 18.96 15.07 18.96 15.07 18.79 15.07 18.62 15.05 18.45 15.02 18.27 14.98 18.11 14.93 17.94 14.87 17.79 14.78 17.64 14.68 17.51 14.56 17.39 14.42 17.29 14.26 17.21 14.08 17.15 13.88 17.11 13.64 17.1 13.39 17.12 13.11 17.12 13.11 17.13 12.99 17.15 12.87 17.18 12.73 17.22 12.59 17.27 12.44 17.33 12.29 17.41 12.14 17.51 11.99 17.62 11.86 17.75 11.73 17.91 11.61 18.08 11.51 18.28 11.42 18.5 11.36 18.75 11.31 19.03 11.3 19.03 11.3 19.16 11.3 19.31 11.32 19.45 11.34 19.59 11.38 19.73 11.43 19.86 11.49 19.99 11.57 20.1 11.67 20.2 11.79 20.29 11.93 20.36 12.09 20.41 12.27 20.43 12.47 20.44 12.71 20.41 12.97 20.36 13.26 20.34 13.47 17.83 13.47 17.99 12.79 19.5 12.79 19.5 12.79 19.51 12.71 19.5 12.62 19.5 12.55 19.48 12.48 19.46 12.41 19.43 12.35 19.4 12.3 19.36 12.25 19.32 12.21 19.28 12.18 19.23 12.15 19.17 12.12 19.12 12.1 19.06 12.09 19.01 12.07 18.94 12.07 18.94 12.07 18.88 12.07 18.82 12.08 18.76 12.1 18.7 12.12 18.64 12.14 18.59 12.17 18.54 12.21 18.49 12.25 18.45 12.3 18.41 12.35 18.37 12.41 18.34 12.47 18.3 12.53 18.28 12.6 18.26 12.67 18.25 12.74 18.11 13.45"/><polygon class="cls-4" points="26.34 11.58 26.29 11.56 26.25 11.54 26.2 11.51 26.15 11.49 26.1 11.47 26.04 11.45 25.98 11.43 25.92 11.4 25.85 11.39 25.79 11.37 25.71 11.36 25.64 11.35 25.56 11.34 25.48 11.34 25.4 11.34 25.31 11.34 25.23 11.34 25.14 11.34 25.04 11.35 24.95 11.37 24.85 11.4 24.75 11.44 24.66 11.48 24.56 11.55 24.47 11.62 24.38 11.71 24.29 11.82 24.21 11.95 24.13 12.1 24.06 12.27 24 12.47 23.94 12.69 23.92 12.81 23.91 12.93 23.9 13.05 23.9 13.17 23.91 13.29 23.94 13.4 23.97 13.5 24.01 13.61 24.06 13.7 24.12 13.79 24.19 13.87 24.27 13.94 24.37 14 24.47 14.05 24.59 14.1 24.72 14.13 24.77 14.14 24.82 14.15 24.88 14.16 24.95 14.16 25.03 14.17 25.11 14.17 25.19 14.17 25.28 14.16 25.37 14.15 25.46 14.14 25.54 14.11 25.63 14.09 25.72 14.05 25.8 14 25.87 13.95 25.94 13.89 25.78 14.81 25.76 14.82 25.74 14.85 25.71 14.87 25.68 14.89 25.64 14.92 25.6 14.94 25.54 14.97 25.48 14.99 25.4 15.01 25.31 15.03 25.21 15.04 25.09 15.06 24.95 15.06 24.8 15.07 24.62 15.06 24.43 15.05 24.27 15.04 24.11 15 23.95 14.95 23.79 14.88 23.64 14.8 23.5 14.69 23.36 14.57 23.23 14.44 23.11 14.28 23.02 14.11 22.94 13.91 22.87 13.7 22.83 13.47 22.82 13.23 22.83 12.96 22.86 12.67 22.89 12.53 22.92 12.39 22.96 12.26 22.99 12.13 23.03 12.01 23.07 11.89 23.12 11.77 23.17 11.67 23.22 11.56 23.27 11.46 23.33 11.36 23.39 11.27 23.45 11.19 23.52 11.11 23.59 11.03 23.66 10.96 23.74 10.89 23.82 10.82 23.91 10.76 23.99 10.71 24.09 10.66 24.18 10.61 24.27 10.57 24.38 10.53 24.48 10.5 24.59 10.47 24.7 10.45 24.82 10.43 24.93 10.41 25.06 10.39 25.18 10.39 25.31 10.38 25.42 10.39 25.53 10.39 25.63 10.4 25.74 10.42 25.84 10.43 25.93 10.45 26.02 10.47 26.1 10.49 26.18 10.51 26.25 10.53 26.31 10.55 26.37 10.57 26.42 10.59 26.46 10.61 26.49 10.62 26.51 10.63 26.34 11.58 26.34 11.58 26.34 11.58"/><polyline class="cls-5" points="26.34 11.58 26.34 11.58 26.29 11.56 26.25 11.54 26.2 11.51 26.15 11.49 26.1 11.47 26.04 11.45 25.98 11.43 25.92 11.4 25.85 11.39 25.79 11.37 25.71 11.36 25.64 11.35 25.56 11.34 25.48 11.34 25.4 11.34 25.31 11.34 25.31 11.34 25.23 11.34 25.14 11.34 25.04 11.35 24.95 11.37 24.85 11.4 24.75 11.44 24.66 11.48 24.56 11.55 24.47 11.62 24.38 11.71 24.29 11.82 24.21 11.95 24.13 12.1 24.06 12.27 24 12.47 23.94 12.69 23.94 12.69 23.92 12.81 23.91 12.93 23.9 13.05 23.9 13.17 23.91 13.29 23.94 13.4 23.97 13.5 24.01 13.61 24.06 13.7 24.12 13.79 24.19 13.87 24.27 13.94 24.37 14 24.47 14.05 24.59 14.1 24.72 14.13 24.72 14.13 24.77 14.14 24.82 14.15 24.88 14.16 24.95 14.16 25.03 14.17 25.11 14.17 25.19 14.17 25.28 14.16 25.37 14.15 25.46 14.14 25.54 14.11 25.63 14.09 25.72 14.05 25.8 14 25.87 13.95 25.94 13.89 25.78 14.81 25.78 14.81 25.76 14.82 25.74 14.85 25.71 14.87 25.68 14.89 25.64 14.92 25.6 14.94 25.54 14.97 25.48 14.99 25.4 15.01 25.31 15.03 25.21 15.04 25.09 15.06 24.95 15.06 24.8 15.07 24.62 15.06 24.43 15.05 24.43 15.05 24.27 15.04 24.11 15 23.95 14.95 23.79 14.88 23.64 14.8 23.5 14.69 23.36 14.57 23.23 14.44 23.11 14.28 23.02 14.11 22.94 13.91 22.87 13.7 22.83 13.47 22.82 13.23 22.83 12.96 22.86 12.67 22.86 12.67 22.89 12.53 22.92 12.39 22.96 12.26 22.99 12.13 23.03 12.01 23.07 11.89 23.12 11.77 23.17 11.67 23.22 11.56 23.27 11.46 23.33 11.36 23.39 11.27 23.45 11.19 23.52 11.11 23.59 11.03 23.66 10.96 23.74 10.89 23.82 10.82 23.91 10.76 23.99 10.71 24.09 10.66 24.18 10.61 24.27 10.57 24.38 10.53 24.48 10.5 24.59 10.47 24.7 10.45 24.82 10.43 24.93 10.41 25.06 10.39 25.18 10.39 25.31 10.38 25.31 10.38 25.42 10.39 25.53 10.39 25.63 10.4 25.74 10.42 25.84 10.43 25.93 10.45 26.02 10.47 26.1 10.49 26.18 10.51 26.25 10.53 26.31 10.55 26.37 10.57 26.42 10.59 26.46 10.61 26.49 10.62 26.51 10.63 26.34 11.58"/><polygon class="cls-4" points="34.83 15.07 33.88 15.07 33.95 14.69 33.95 14.65 33.89 14.72 33.83 14.78 33.77 14.84 33.71 14.89 33.65 14.93 33.59 14.97 33.52 15 33.46 15.03 33.39 15.06 33.33 15.07 33.26 15.09 33.19 15.1 33.12 15.11 33.06 15.12 32.99 15.12 32.92 15.12 32.74 15.11 32.58 15.07 32.42 15.01 32.29 14.93 32.16 14.83 32.05 14.71 31.95 14.59 31.87 14.44 31.8 14.29 31.75 14.12 31.71 13.96 31.68 13.78 31.67 13.6 31.68 13.42 31.69 13.25 31.72 13.07 31.78 12.87 31.84 12.68 31.91 12.5 32 12.33 32.09 12.18 32.19 12.04 32.3 11.92 32.41 11.8 32.53 11.7 32.66 11.62 32.79 11.54 32.92 11.48 33.06 11.43 33.2 11.4 33.34 11.38 33.48 11.37 33.58 11.38 33.67 11.39 33.76 11.4 33.85 11.43 33.92 11.46 33.99 11.49 34.06 11.53 34.13 11.56 34.18 11.6 34.23 11.65 34.28 11.7 34.32 11.74 34.35 11.78 34.38 11.83 34.41 11.87 34.43 11.91 34.43 11.91 34.67 10.56 35.61 10.56 34.83 15.07 34.83 15.07 34.83 15.07"/><polyline class="cls-5" points="34.83 15.07 33.88 15.07 33.95 14.69 33.95 14.65 33.95 14.65 33.89 14.72 33.83 14.78 33.77 14.84 33.71 14.89 33.65 14.93 33.59 14.97 33.52 15 33.46 15.03 33.39 15.06 33.33 15.07 33.26 15.09 33.19 15.1 33.12 15.11 33.06 15.12 32.99 15.12 32.92 15.12 32.92 15.12 32.74 15.11 32.58 15.07 32.42 15.01 32.29 14.93 32.16 14.83 32.05 14.71 31.95 14.59 31.87 14.44 31.8 14.29 31.75 14.12 31.71 13.96 31.68 13.78 31.67 13.6 31.68 13.42 31.69 13.25 31.72 13.07 31.72 13.07 31.78 12.87 31.84 12.68 31.91 12.5 32 12.33 32.09 12.18 32.19 12.04 32.3 11.92 32.41 11.8 32.53 11.7 32.66 11.62 32.79 11.54 32.92 11.48 33.06 11.43 33.2 11.4 33.34 11.38 33.48 11.37 33.48 11.37 33.58 11.38 33.67 11.39 33.76 11.4 33.85 11.43 33.92 11.46 33.99 11.49 34.06 11.53 34.13 11.56 34.18 11.6 34.23 11.65 34.28 11.7 34.32 11.74 34.35 11.78 34.38 11.83 34.41 11.87 34.43 11.91 34.43 11.91 34.67 10.56 35.61 10.56 34.83 15.07"/><polygon class="cls-2" points="33.27 14.23 33.37 14.23 33.46 14.21 33.54 14.18 33.62 14.14 33.69 14.1 33.76 14.05 33.83 13.99 33.88 13.93 33.94 13.86 33.98 13.79 34.03 13.71 34.07 13.62 34.1 13.54 34.13 13.45 34.15 13.35 34.17 13.26 34.19 13.16 34.2 13.06 34.2 12.97 34.19 12.88 34.18 12.79 34.17 12.7 34.15 12.62 34.12 12.54 34.08 12.47 34.04 12.4 34 12.35 33.95 12.3 33.89 12.26 33.83 12.23 33.76 12.21 33.69 12.21 33.59 12.21 33.51 12.23 33.43 12.25 33.35 12.29 33.28 12.33 33.21 12.39 33.15 12.45 33.09 12.51 33.04 12.59 32.99 12.67 32.95 12.75 32.91 12.84 32.88 12.93 32.85 13.03 32.82 13.13 32.8 13.23 32.78 13.38 32.79 13.54 32.81 13.71 32.86 13.88 32.93 14.02 33.02 14.13 33.13 14.21 33.27 14.23 33.27 14.23 33.27 14.23"/><polygon class="cls-4" points="12.08 14.3 11.94 15.07 11.07 15.07 11.1 14.93 11.12 14.8 11.13 14.7 11.14 14.65 11.1 14.71 11.04 14.76 10.97 14.81 10.9 14.86 10.82 14.91 10.73 14.95 10.64 14.99 10.55 15.03 10.45 15.06 10.35 15.08 10.25 15.1 10.15 15.12 10.04 15.13 9.95 15.13 9.85 15.12 9.76 15.1 9.63 15.07 9.52 15.04 9.43 14.99 9.34 14.94 9.27 14.89 9.2 14.82 9.14 14.76 9.09 14.69 9.05 14.62 9.02 14.54 8.99 14.47 8.97 14.39 8.96 14.31 8.94 14.23 8.94 14.15 8.94 14.08 8.95 13.94 8.97 13.82 9 13.7 9.05 13.58 9.1 13.47 9.16 13.37 9.24 13.27 9.32 13.19 9.41 13.11 9.5 13.03 9.6 12.97 9.71 12.91 9.82 12.87 9.93 12.83 10.05 12.79 10.17 12.78 10.18 12.78 10.19 12.77 10.22 12.77 10.26 12.76 10.3 12.76 10.35 12.75 10.4 12.75 10.46 12.74 10.52 12.73 10.57 12.73 10.64 12.72 10.69 12.72 10.75 12.71 10.8 12.71 10.85 12.71 10.88 12.71 10.96 12.71 11.05 12.71 11.12 12.71 11.2 12.71 11.26 12.72 11.31 12.72 11.34 12.72 11.35 12.72 11.36 12.7 11.38 12.64 11.4 12.56 11.4 12.5 11.39 12.42 11.36 12.35 11.32 12.29 11.26 12.24 11.2 12.2 11.13 12.16 11.04 12.14 10.95 12.14 10.86 12.13 10.75 12.13 10.64 12.13 10.54 12.13 10.42 12.14 10.31 12.15 10.2 12.16 10.09 12.17 9.99 12.19 9.89 12.21 9.8 12.22 9.72 12.24 9.64 12.26 9.58 12.28 9.53 12.3 9.49 12.33 9.74 11.49 9.81 11.46 9.89 11.44 9.97 11.41 10.06 11.39 10.14 11.38 10.23 11.36 10.32 11.35 10.41 11.34 10.51 11.34 10.61 11.33 10.71 11.33 10.82 11.33 10.93 11.33 11.04 11.33 11.16 11.33 11.28 11.34 11.38 11.34 11.48 11.36 11.59 11.38 11.7 11.41 11.81 11.46 11.91 11.51 12.02 11.56 12.11 11.63 12.2 11.71 12.27 11.79 12.34 11.88 12.39 11.98 12.43 12.1 12.45 12.21 12.45 12.34 12.43 12.48 12.08 14.3 12.08 14.3 12.08 14.3"/><polyline class="cls-5" points="12.08 14.3 11.94 15.07 11.07 15.07 11.07 15.07 11.1 14.93 11.12 14.8 11.13 14.7 11.14 14.65 11.14 14.65 11.1 14.71 11.04 14.76 10.97 14.81 10.9 14.86 10.82 14.91 10.73 14.95 10.64 14.99 10.55 15.03 10.45 15.06 10.35 15.08 10.25 15.1 10.15 15.12 10.04 15.13 9.95 15.13 9.85 15.12 9.76 15.1 9.76 15.1 9.63 15.07 9.52 15.04 9.43 14.99 9.34 14.94 9.27 14.89 9.2 14.82 9.14 14.76 9.09 14.69 9.05 14.62 9.02 14.54 8.99 14.47 8.97 14.39 8.96 14.31 8.94 14.23 8.94 14.15 8.94 14.08 8.94 14.08 8.95 13.94 8.97 13.82 9 13.7 9.05 13.58 9.1 13.47 9.16 13.37 9.24 13.27 9.32 13.19 9.41 13.11 9.5 13.03 9.6 12.97 9.71 12.91 9.82 12.87 9.93 12.83 10.05 12.79 10.17 12.78 10.17 12.78 10.18 12.78 10.19 12.77 10.22 12.77 10.26 12.76 10.3 12.76 10.35 12.75 10.4 12.75 10.46 12.74 10.52 12.73 10.57 12.73 10.64 12.72 10.69 12.72 10.75 12.71 10.8 12.71 10.85 12.71 10.88 12.71 10.88 12.71 10.96 12.71 11.05 12.71 11.12 12.71 11.2 12.71 11.26 12.72 11.31 12.72 11.34 12.72 11.35 12.72 11.35 12.72 11.36 12.7 11.38 12.64 11.4 12.56 11.4 12.5 11.4 12.5 11.39 12.42 11.36 12.35 11.32 12.29 11.26 12.24 11.2 12.2 11.13 12.16 11.04 12.14 10.95 12.14 10.95 12.14 10.86 12.13 10.75 12.13 10.64 12.13 10.54 12.13 10.42 12.14 10.31 12.15 10.2 12.16 10.09 12.17 9.99 12.19 9.89 12.21 9.8 12.22 9.72 12.24 9.64 12.26 9.58 12.28 9.53 12.3 9.49 12.33 9.74 11.49 9.74 11.49 9.81 11.46 9.89 11.44 9.97 11.41 10.06 11.39 10.14 11.38 10.23 11.36 10.32 11.35 10.41 11.34 10.51 11.34 10.61 11.33 10.71 11.33 10.82 11.33 10.93 11.33 11.04 11.33 11.16 11.33 11.28 11.34 11.28 11.34 11.38 11.34 11.48 11.36 11.59 11.38 11.7 11.41 11.81 11.46 11.91 11.51 12.02 11.56 12.11 11.63 12.2 11.71 12.27 11.79 12.34 11.88 12.39 11.98 12.43 12.1 12.45 12.21 12.45 12.34 12.43 12.48 12.08 14.3"/><polygon class="cls-3" points="11.25 13.4 11.25 13.38 11.23 13.37 11.21 13.36 11.18 13.35 11.14 13.34 11.1 13.34 11.04 13.34 10.99 13.34 10.94 13.34 10.88 13.35 10.82 13.36 10.77 13.37 10.71 13.37 10.67 13.38 10.63 13.39 10.59 13.4 10.56 13.41 10.54 13.42 10.5 13.43 10.46 13.45 10.41 13.47 10.37 13.5 10.32 13.52 10.28 13.55 10.23 13.58 10.18 13.62 10.14 13.66 10.1 13.7 10.07 13.74 10.04 13.79 10.02 13.85 10.01 13.9 10.01 14.02 10.03 14.11 10.06 14.18 10.11 14.23 10.16 14.27 10.22 14.29 10.27 14.3 10.33 14.3 10.43 14.3 10.53 14.29 10.62 14.28 10.69 14.26 10.76 14.23 10.83 14.2 10.89 14.17 10.94 14.13 10.98 14.1 11.03 14.05 11.06 14.02 11.09 13.98 11.11 13.93 11.13 13.89 11.15 13.86 11.16 13.82 11.19 13.72 11.21 13.6 11.23 13.49 11.25 13.4 11.25 13.4 11.25 13.4"/><polygon class="cls-4" points="4.82 15.07 3.88 15.07 4.67 10.54 6.3 10.54 6.45 13.23 7.58 10.54 9.29 10.54 8.48 15.07 7.55 15.07 8.14 11.69 8.1 11.69 6.7 15.07 5.64 15.07 5.63 14.93 5.61 14.55 5.58 14.02 5.54 13.4 5.51 12.79 5.48 12.24 5.45 11.85 5.45 11.69 5.44 11.69 5.42 11.69 5.39 11.69 5.39 11.69 4.82 15.07 4.82 15.07 4.82 15.07"/><polyline class="cls-5" points="4.82 15.07 3.88 15.07 4.67 10.54 6.3 10.54 6.45 13.23 7.58 10.54 9.29 10.54 8.48 15.07 7.55 15.07 8.14 11.69 8.1 11.69 6.7 15.07 5.64 15.07 5.64 15.07 5.63 14.93 5.61 14.55 5.58 14.02 5.54 13.4 5.51 12.79 5.48 12.24 5.45 11.85 5.45 11.69 5.45 11.69 5.44 11.69 5.42 11.69 5.39 11.69 5.39 11.69 4.82 15.07"/><polygon class="cls-4" points="29.2 14.3 29.06 15.07 28.2 15.07 28.2 14.93 28.21 14.8 28.21 14.71 28.22 14.67 28.17 14.72 28.12 14.77 28.06 14.82 27.99 14.87 27.91 14.91 27.83 14.96 27.75 15 27.66 15.03 27.57 15.06 27.47 15.09 27.37 15.1 27.28 15.12 27.18 15.13 27.08 15.13 26.99 15.12 26.89 15.1 26.77 15.07 26.66 15.04 26.56 14.99 26.47 14.94 26.4 14.89 26.33 14.82 26.28 14.76 26.23 14.69 26.19 14.62 26.16 14.54 26.13 14.47 26.11 14.39 26.1 14.31 26.09 14.23 26.08 14.15 26.08 14.08 26.09 13.94 26.11 13.82 26.14 13.7 26.18 13.58 26.23 13.47 26.3 13.37 26.37 13.27 26.45 13.19 26.54 13.11 26.63 13.03 26.73 12.97 26.84 12.91 26.95 12.87 27.06 12.83 27.18 12.79 27.29 12.78 27.3 12.78 27.32 12.77 27.34 12.77 27.38 12.76 27.42 12.76 27.47 12.75 27.52 12.75 27.58 12.74 27.64 12.73 27.7 12.73 27.76 12.72 27.82 12.72 27.87 12.71 27.92 12.71 27.97 12.71 28 12.71 28.09 12.71 28.17 12.71 28.25 12.71 28.33 12.71 28.39 12.72 28.45 12.72 28.48 12.72 28.49 12.72 28.5 12.7 28.51 12.64 28.52 12.56 28.52 12.5 28.51 12.42 28.48 12.35 28.44 12.29 28.39 12.24 28.33 12.2 28.25 12.16 28.18 12.14 28.09 12.14 28 12.13 27.89 12.13 27.79 12.13 27.68 12.13 27.56 12.14 27.45 12.15 27.34 12.16 27.23 12.17 27.13 12.19 27.03 12.21 26.94 12.22 26.86 12.24 26.78 12.26 26.72 12.28 26.67 12.3 26.63 12.33 26.88 11.49 26.95 11.46 27.03 11.44 27.11 11.41 27.19 11.39 27.28 11.38 27.37 11.36 27.46 11.35 27.55 11.34 27.65 11.34 27.75 11.33 27.84 11.33 27.95 11.33 28.06 11.33 28.17 11.33 28.29 11.33 28.41 11.34 28.5 11.34 28.61 11.36 28.71 11.38 28.82 11.41 28.93 11.46 29.04 11.51 29.14 11.56 29.24 11.63 29.32 11.71 29.4 11.79 29.47 11.88 29.52 11.98 29.56 12.1 29.59 12.21 29.59 12.34 29.57 12.48 29.2 14.3 29.2 14.3 29.2 14.3"/><polygon class="cls-4" points="29.06 15.09 29.09 15.07 29.23 14.31 29.18 14.3 29.04 15.07 29.06 15.04 29.06 15.09 29.08 15.09 29.09 15.07 29.06 15.09 29.06 15.09 29.06 15.09"/><polygon class="cls-4" points="28.18 15.07 28.2 15.09 29.06 15.09 29.06 15.04 28.2 15.04 28.22 15.07 28.18 15.07 28.17 15.09 28.2 15.09 28.18 15.07 28.18 15.07 28.18 15.07"/><polygon class="cls-4" points="28.23 14.68 28.2 14.65 28.19 14.71 28.18 14.8 28.18 14.93 28.18 15.07 28.22 15.07 28.23 14.93 28.23 14.8 28.23 14.71 28.23 14.68 28.2 14.65 28.23 14.68 28.23 14.68 28.23 14.68"/><polygon class="cls-4" points="26.89 15.13 26.89 15.13 26.99 15.14 27.08 15.15 27.18 15.14 27.28 15.14 27.38 15.13 27.47 15.11 27.57 15.08 27.67 15.05 27.75 15.02 27.84 14.98 27.92 14.94 28 14.89 28.07 14.84 28.13 14.79 28.19 14.73 28.23 14.68 28.2 14.65 28.15 14.71 28.11 14.76 28.04 14.8 27.98 14.85 27.9 14.89 27.82 14.94 27.74 14.98 27.65 15.01 27.56 15.04 27.47 15.07 27.37 15.08 27.28 15.1 27.18 15.1 27.08 15.11 26.99 15.1 26.9 15.08 26.9 15.08 26.89 15.13 26.89 15.13 26.89 15.13"/><polygon class="cls-4" points="26.05 14.08 26.05 14.08 26.06 14.15 26.07 14.23 26.07 14.31 26.09 14.39 26.11 14.47 26.14 14.55 26.17 14.63 26.21 14.7 26.26 14.77 26.31 14.84 26.38 14.9 26.46 14.96 26.55 15.01 26.65 15.06 26.77 15.09 26.89 15.13 26.9 15.08 26.77 15.05 26.67 15.02 26.57 14.97 26.48 14.92 26.41 14.87 26.35 14.81 26.29 14.74 26.25 14.68 26.21 14.61 26.18 14.53 26.15 14.46 26.13 14.39 26.12 14.31 26.11 14.23 26.1 14.15 26.1 14.08 26.1 14.08 26.05 14.08 26.05 14.08 26.05 14.08"/><polygon class="cls-4" points="27.29 12.75 27.29 12.75 27.17 12.78 27.06 12.81 26.94 12.84 26.83 12.89 26.72 12.95 26.62 13.02 26.53 13.09 26.44 13.17 26.36 13.26 26.28 13.35 26.21 13.46 26.16 13.57 26.12 13.69 26.09 13.81 26.07 13.94 26.05 14.08 26.1 14.08 26.11 13.94 26.13 13.82 26.16 13.7 26.2 13.59 26.25 13.48 26.32 13.38 26.39 13.29 26.47 13.2 26.55 13.12 26.65 13.05 26.74 12.99 26.85 12.93 26.95 12.88 27.07 12.85 27.18 12.82 27.29 12.79 27.29 12.79 27.29 12.75 27.29 12.75 27.29 12.75"/><polygon class="cls-4" points="28 12.68 28 12.68 27.97 12.68 27.92 12.69 27.87 12.69 27.82 12.7 27.76 12.7 27.7 12.71 27.64 12.71 27.58 12.72 27.52 12.73 27.47 12.73 27.42 12.74 27.38 12.74 27.34 12.75 27.31 12.75 27.3 12.75 27.29 12.75 27.29 12.79 27.3 12.79 27.32 12.79 27.34 12.79 27.38 12.79 27.42 12.78 27.47 12.78 27.52 12.77 27.58 12.76 27.64 12.75 27.7 12.75 27.76 12.74 27.82 12.74 27.87 12.73 27.92 12.73 27.97 12.73 28 12.73 28 12.73 28 12.68 28 12.68 28 12.68"/><polygon class="cls-4" points="28.47 12.72 28.49 12.7 28.48 12.7 28.45 12.7 28.39 12.7 28.33 12.69 28.25 12.69 28.17 12.69 28.09 12.68 28 12.68 28 12.73 28.09 12.73 28.17 12.73 28.25 12.74 28.33 12.74 28.39 12.74 28.45 12.74 28.48 12.74 28.49 12.74 28.51 12.73 28.49 12.74 28.51 12.75 28.51 12.73 28.47 12.72 28.47 12.72 28.47 12.72"/><polygon class="cls-4" points="28.5 12.5 28.5 12.5 28.5 12.56 28.49 12.63 28.48 12.7 28.47 12.72 28.51 12.73 28.52 12.7 28.53 12.64 28.54 12.56 28.55 12.5 28.55 12.5 28.5 12.5 28.5 12.5 28.5 12.5"/><polygon class="cls-4" points="28.09 12.16 28.09 12.16 28.17 12.16 28.25 12.19 28.32 12.22 28.37 12.26 28.42 12.3 28.46 12.36 28.49 12.43 28.5 12.5 28.55 12.5 28.53 12.42 28.5 12.34 28.46 12.28 28.4 12.22 28.34 12.17 28.26 12.14 28.18 12.12 28.09 12.11 28.09 12.12 28.09 12.16 28.09 12.16 28.09 12.16"/><polygon class="cls-4" points="26.61 12.32 26.65 12.34 26.68 12.33 26.73 12.3 26.79 12.28 26.86 12.26 26.95 12.24 27.04 12.23 27.14 12.21 27.23 12.2 27.34 12.18 27.45 12.17 27.56 12.16 27.68 12.15 27.79 12.15 27.89 12.15 28 12.15 28.09 12.16 28.09 12.12 28 12.11 27.89 12.11 27.79 12.11 27.68 12.11 27.56 12.12 27.45 12.13 27.34 12.14 27.23 12.15 27.13 12.17 27.03 12.19 26.94 12.2 26.86 12.22 26.78 12.24 26.71 12.26 26.66 12.29 26.62 12.31 26.66 12.33 26.61 12.32 26.61 12.32 26.61 12.32"/><polygon class="cls-4" points="26.87 11.47 26.86 11.49 26.61 12.32 26.66 12.33 26.9 11.5 26.88 11.52 26.87 11.47 26.86 11.48 26.86 11.49 26.87 11.47 26.87 11.47 26.87 11.47"/><polygon class="cls-4" points="28.41 11.31 28.41 11.31 28.29 11.31 28.17 11.3 28.06 11.3 27.95 11.3 27.84 11.3 27.75 11.31 27.65 11.31 27.55 11.32 27.46 11.33 27.36 11.34 27.28 11.36 27.19 11.37 27.11 11.39 27.02 11.41 26.95 11.44 26.87 11.47 26.88 11.52 26.96 11.48 27.04 11.46 27.11 11.43 27.2 11.41 27.28 11.4 27.37 11.38 27.46 11.37 27.55 11.36 27.65 11.36 27.75 11.35 27.84 11.35 27.95 11.35 28.06 11.35 28.17 11.35 28.29 11.36 28.41 11.36 28.41 11.36 28.41 11.31 28.41 11.31 28.41 11.31"/><polygon class="cls-4" points="29.59 12.48 29.59 12.48 29.61 12.34 29.61 12.21 29.58 12.09 29.54 11.98 29.49 11.87 29.42 11.77 29.34 11.69 29.25 11.61 29.15 11.55 29.05 11.48 28.94 11.44 28.83 11.39 28.71 11.36 28.61 11.34 28.5 11.32 28.41 11.31 28.41 11.36 28.5 11.36 28.6 11.38 28.71 11.4 28.82 11.44 28.92 11.48 29.02 11.53 29.13 11.58 29.22 11.65 29.31 11.72 29.38 11.8 29.45 11.89 29.5 11.99 29.54 12.1 29.56 12.21 29.56 12.34 29.55 12.48 29.55 12.48 29.59 12.48 29.59 12.48 29.59 12.48"/><polygon class="cls-4" points="29.23 14.31 29.23 14.31 29.59 12.48 29.55 12.48 29.18 14.3 29.18 14.3 29.23 14.31 29.23 14.31 29.23 14.31"/><polygon class="cls-2" points="28.37 13.4 28.36 13.38 28.35 13.37 28.33 13.35 28.29 13.34 28.25 13.34 28.21 13.34 28.16 13.34 28.11 13.34 28.05 13.35 27.99 13.35 27.94 13.36 27.89 13.37 27.84 13.38 27.79 13.38 27.75 13.4 27.71 13.4 27.69 13.41 27.66 13.42 27.63 13.43 27.59 13.44 27.54 13.46 27.5 13.48 27.45 13.51 27.41 13.54 27.36 13.57 27.32 13.61 27.28 13.64 27.24 13.69 27.21 13.74 27.19 13.79 27.17 13.84 27.16 13.9 27.15 14.02 27.17 14.11 27.2 14.18 27.24 14.23 27.29 14.27 27.35 14.29 27.41 14.3 27.47 14.3 27.57 14.3 27.67 14.29 27.76 14.27 27.84 14.25 27.91 14.22 27.98 14.19 28.04 14.15 28.09 14.11 28.14 14.07 28.18 14.03 28.22 13.99 28.25 13.94 28.28 13.9 28.29 13.86 28.31 13.82 28.32 13.78 28.33 13.69 28.35 13.59 28.36 13.49 28.37 13.4 28.37 13.4 28.37 13.4"/><polygon class="cls-4" points="35.48 14.6 35.48 14.52 35.51 14.42 35.56 14.34 35.62 14.27 35.69 14.21 35.77 14.17 35.86 14.14 35.96 14.13 36.06 14.14 36.15 14.17 36.23 14.21 36.3 14.27 36.36 14.34 36.41 14.42 36.44 14.52 36.44 14.6 36.34 14.6 36.34 14.53 36.32 14.46 36.28 14.39 36.24 14.33 36.18 14.28 36.12 14.25 36.04 14.22 35.96 14.22 35.88 14.22 35.81 14.25 35.74 14.28 35.68 14.33 35.64 14.39 35.6 14.46 35.59 14.53 35.58 14.6 35.48 14.6 35.48 14.6 35.48 14.6"/><polygon class="cls-4" points="35.79 14.6 35.79 14.39 35.98 14.39 36.02 14.39 36.06 14.4 36.09 14.41 36.11 14.42 36.13 14.45 36.14 14.47 36.15 14.49 36.15 14.51 36.15 14.54 36.14 14.57 36.13 14.59 36.12 14.6 35.98 14.6 35.99 14.59 36.02 14.59 36.04 14.58 36.05 14.58 36.07 14.57 36.08 14.55 36.08 14.54 36.08 14.51 36.08 14.5 36.07 14.48 36.06 14.48 36.05 14.47 36.03 14.47 36.02 14.46 36 14.46 35.98 14.46 35.87 14.46 35.87 14.6 35.79 14.6 35.79 14.6 35.79 14.6"/><polygon class="cls-4" points="35.48 14.6 35.48 14.62 35.48 14.72 35.51 14.81 35.56 14.89 35.62 14.96 35.69 15.02 35.77 15.07 35.86 15.09 35.96 15.1 36.06 15.09 36.15 15.07 36.23 15.02 36.3 14.96 36.36 14.89 36.41 14.81 36.44 14.72 36.45 14.62 36.44 14.6 36.34 14.6 36.34 14.62 36.34 14.7 36.32 14.78 36.28 14.84 36.24 14.9 36.18 14.95 36.12 14.99 36.04 15.01 35.96 15.02 35.88 15.01 35.81 14.99 35.74 14.95 35.68 14.9 35.64 14.84 35.6 14.78 35.59 14.7 35.58 14.62 35.58 14.6 35.48 14.6 35.48 14.6 35.48 14.6"/><polygon class="cls-4" points="35.79 14.6 35.79 14.81 35.87 14.81 35.87 14.63 35.96 14.63 36.06 14.81 36.13 14.81 36.03 14.63 36.05 14.63 36.08 14.63 36.1 14.62 36.12 14.61 36.12 14.6 35.98 14.6 35.96 14.6 35.87 14.6 35.87 14.6 35.79 14.6 35.79 14.6 35.79 14.6"/><path class="cls-5" d="M35.47,14.62h0v-.1l0-.09,0-.08.06-.07.07-.06.08,0,.09,0h.19l.09,0,.08,0,.07.06.06.07,0,.08,0,.09v.1h0v.1l0,.09,0,.08L36.3,15l-.07.06-.08,0-.09,0h-.19l-.09,0-.08,0L35.62,15l-.06-.07,0-.08,0-.09v-.1m.4.19h-.09v-.42h.32l0,0v.07h0v.09H36l.1.17h-.07l-.1-.17h-.09v.17M36,14.6h.11v0h0v0h-.2v.14H36M36,15H36l.08,0,.06,0,.06,0,0-.06,0-.07,0-.08v-.08h0v-.08l0-.08,0-.07,0-.06-.06,0-.06,0-.08,0h-.16l-.08,0-.07,0-.06,0,0,.06,0,.07,0,.08v.08h0v.08l0,.08,0,.07,0,.06.06,0,.07,0,.08,0H36" transform="translate(0 0)"/><polygon class="cls-4" points="29.46 15.07 30.44 15.07 30.44 15.07 30.79 13.11 30.8 13.03 30.82 12.95 30.84 12.88 30.87 12.8 30.9 12.73 30.94 12.65 30.99 12.59 31.05 12.52 31.11 12.46 31.18 12.4 31.25 12.35 31.34 12.31 31.44 12.28 31.55 12.25 31.68 12.23 31.81 12.22 31.86 12.22 31.89 12.22 31.9 12.22 31.9 12.22 32.05 11.34 31.95 11.34 31.86 11.35 31.78 11.37 31.69 11.39 31.62 11.42 31.55 11.46 31.48 11.49 31.41 11.54 31.35 11.59 31.29 11.63 31.23 11.69 31.18 11.74 31.13 11.8 31.08 11.87 31.02 11.93 30.98 12 31.08 11.37 30.11 11.37 29.46 15.07 29.46 15.07 29.46 15.07 29.46 15.07"/><polyline class="cls-5" points="29.46 15.07 30.44 15.07 30.44 15.07 30.79 13.11 30.79 13.11 30.8 13.03 30.82 12.95 30.84 12.88 30.87 12.8 30.9 12.73 30.94 12.65 30.99 12.59 31.05 12.52 31.11 12.46 31.18 12.4 31.25 12.35 31.34 12.31 31.44 12.28 31.55 12.25 31.68 12.23 31.81 12.22 31.81 12.22 31.86 12.22 31.89 12.22 31.9 12.22 31.9 12.22 32.05 11.34 32.05 11.34 31.95 11.34 31.86 11.35 31.78 11.37 31.69 11.39 31.62 11.42 31.55 11.46 31.48 11.49 31.41 11.54 31.35 11.59 31.29 11.63 31.23 11.69 31.18 11.74 31.13 11.8 31.08 11.87 31.02 11.93 30.98 12 31.08 11.37 30.11 11.37 29.46 15.07 29.46 15.07"/><polygon class="cls-4" points="20.33 15.07 21.3 15.07 21.32 15.07 21.65 13.11 21.66 13.03 21.68 12.96 21.7 12.88 21.72 12.82 21.75 12.75 21.78 12.68 21.82 12.62 21.87 12.56 21.93 12.51 21.99 12.46 22.07 12.42 22.15 12.38 22.25 12.35 22.35 12.32 22.47 12.3 22.61 12.29 22.61 12.29 22.63 12.29 22.65 12.3 22.66 12.3 22.68 12.3 22.69 12.3 22.7 12.31 22.71 12.31 22.71 12.29 22.72 12.25 22.73 12.19 22.75 12.12 22.78 12.03 22.8 11.93 22.83 11.83 22.86 11.74 22.89 11.67 22.93 11.6 22.96 11.54 22.99 11.48 23.03 11.43 23.05 11.39 23.07 11.36 23.07 11.35 23.07 11.35 23.06 11.35 23.04 11.35 23.02 11.34 22.99 11.34 22.96 11.34 22.94 11.34 22.91 11.34 22.81 11.34 22.71 11.35 22.62 11.37 22.54 11.39 22.46 11.42 22.39 11.45 22.32 11.49 22.26 11.53 22.2 11.57 22.15 11.63 22.09 11.68 22.04 11.74 21.99 11.79 21.94 11.86 21.89 11.93 21.84 12 21.96 11.37 20.97 11.37 20.33 15.07 20.33 15.07 20.33 15.07 20.33 15.07"/><polyline class="cls-5" points="20.33 15.07 21.3 15.07 21.32 15.07 21.65 13.11 21.65 13.11 21.66 13.03 21.68 12.96 21.7 12.88 21.72 12.82 21.75 12.75 21.78 12.68 21.82 12.62 21.87 12.56 21.93 12.51 21.99 12.46 22.07 12.42 22.15 12.38 22.25 12.35 22.35 12.32 22.47 12.3 22.61 12.29 22.61 12.29 22.61 12.29 22.63 12.29 22.65 12.3 22.66 12.3 22.68 12.3 22.69 12.3 22.7 12.31 22.71 12.31 22.71 12.31 22.71 12.29 22.72 12.25 22.73 12.19 22.75 12.12 22.78 12.03 22.8 11.93 22.83 11.83 22.86 11.74 22.86 11.74 22.89 11.67 22.93 11.6 22.96 11.54 22.99 11.48 23.03 11.43 23.05 11.39 23.07 11.36 23.07 11.35 23.07 11.35 23.07 11.35 23.06 11.35 23.04 11.35 23.02 11.34 22.99 11.34 22.96 11.34 22.94 11.34 22.91 11.34 22.91 11.34 22.81 11.34 22.71 11.35 22.62 11.37 22.54 11.39 22.46 11.42 22.39 11.45 22.32 11.49 22.26 11.53 22.2 11.57 22.15 11.63 22.09 11.68 22.04 11.74 21.99 11.79 21.94 11.86 21.89 11.93 21.84 12 21.96 11.37 20.97 11.37 20.33 15.07 20.33 15.07"/><polygon class="cls-2" points="35.48 18.7 35.48 18.68 35.51 18.6 35.56 18.52 35.62 18.45 35.69 18.39 35.77 18.35 35.86 18.33 35.96 18.32 36.06 18.33 36.15 18.35 36.23 18.39 36.3 18.45 36.36 18.52 36.41 18.6 36.44 18.68 36.44 18.7 36.34 18.7 36.32 18.63 36.28 18.56 36.24 18.5 36.18 18.45 36.12 18.42 36.04 18.39 35.96 18.39 35.88 18.39 35.81 18.42 35.74 18.45 35.68 18.5 35.64 18.56 35.6 18.63 35.59 18.7 35.48 18.7 35.48 18.7 35.48 18.7"/><polygon class="cls-2" points="35.79 18.7 35.79 18.58 35.98 18.58 36.02 18.58 36.06 18.59 36.09 18.59 36.11 18.61 36.13 18.62 36.14 18.64 36.15 18.67 36.15 18.7 36.08 18.7 36.08 18.68 36.08 18.66 36.07 18.65 36.06 18.64 36.05 18.64 36.03 18.63 36.02 18.63 36 18.63 35.98 18.63 35.87 18.63 35.87 18.7 35.79 18.7 35.79 18.7 35.79 18.7"/><polygon class="cls-2" points="35.48 18.77 35.48 18.7 35.59 18.7 35.59 18.7 35.58 18.77 35.48 18.77 35.48 18.77 35.48 18.77"/><polygon class="cls-2" points="35.79 18.77 35.79 18.7 35.87 18.7 35.87 18.77 35.96 18.77 35.99 18.76 36.02 18.76 36.04 18.75 36.05 18.74 36.07 18.73 36.08 18.72 36.08 18.71 36.08 18.7 36.15 18.7 36.15 18.7 36.15 18.72 36.14 18.74 36.13 18.76 36.12 18.77 35.79 18.77 35.79 18.77 35.79 18.77"/><polygon class="cls-2" points="36.34 18.77 36.34 18.7 36.34 18.7 36.44 18.7 36.45 18.77 36.34 18.77 36.34 18.77 36.34 18.77"/><polygon class="cls-2" points="35.48 18.77 35.48 18.79 35.48 18.89 35.51 18.98 35.56 19.06 35.62 19.13 35.69 19.19 35.77 19.23 35.86 19.26 35.96 19.27 36.06 19.26 36.15 19.23 36.23 19.19 36.3 19.13 36.36 19.06 36.41 18.98 36.44 18.89 36.45 18.79 36.45 18.77 36.34 18.77 36.34 18.79 36.34 18.87 36.32 18.94 36.28 19.01 36.24 19.07 36.18 19.12 36.12 19.15 36.04 19.18 35.96 19.18 35.88 19.18 35.81 19.15 35.74 19.12 35.68 19.07 35.64 19.01 35.6 18.94 35.59 18.87 35.58 18.79 35.58 18.77 35.48 18.77 35.48 18.77 35.48 18.77"/><polygon class="cls-2" points="35.79 18.77 35.79 18.98 35.87 18.98 35.87 18.8 35.96 18.8 36.06 18.98 36.13 18.98 36.03 18.8 36.05 18.8 36.08 18.8 36.1 18.79 36.12 18.77 36.12 18.77 35.79 18.77 35.79 18.77 35.79 18.77"/><path class="cls-4" d="M20.43,12.47l0-.21,0-.18-.07-.16-.09-.14-.1-.12-.11-.1-.12-.08-.13-.06-.14-.05-.14,0-.14,0h-.56l-.25,0-.22.06-.2.09-.17.1-.15.12-.13.13-.11.14-.1.14-.08.15-.06.15-.05.15,0,.15,0,.13,0,.13v.11l0,.28v.26l0,.23.06.2.08.18.1.16.12.14.13.12.14.1.16.09.16.07.17.05.17,0,.17,0,.17,0h1l.06,0,.05,0,.05,0,.06,0,.06,0,.06,0,.14-.85-.1.06-.1.05-.1,0-.1,0-.09,0-.1,0-.09,0h-.88l-.07,0-.07,0-.06,0-.06,0-.06-.05L18.3,14l0-.06,0-.06,0-.07,0-.06,0-.07v-.23h2.24l0-.21.05-.29,0-.26Zm-.93.32H18.24v-.12l0-.07,0-.07,0-.06,0-.06,0-.06,0-.05,0,0,0,0,.05,0,.05,0,.06,0,.06,0h.36l.05,0,.05,0,.05,0,0,0,0,0,0,0,0,.05,0,.06,0,.07v.31Z" transform="translate(0 0)"/></svg>