<svg id="Layer_1" data-name="Layer 1" xmlns="http://www.w3.org/2000/svg" width="40" height="25" viewBox="0 0 40 25"><defs><style>.cls-1{fill:#13457c;}.cls-2{fill:#ec1c2e;}.cls-3{fill:#0084c4;}.cls-4{fill:#fff;}.cls-5{fill:none;stroke:#fff;stroke-width:0.21px;}</style></defs><title>ip-maestro</title><rect class="cls-1" width="40" height="25" rx="1.33" ry="1.33"/><polygon class="cls-2" points="26.79 22.73 27.31 22.72 27.84 22.68 28.35 22.61 28.85 22.52 29.35 22.41 29.84 22.27 30.31 22.11 30.78 21.93 31.23 21.72 31.67 21.5 32.1 21.25 32.52 20.98 32.92 20.7 33.31 20.39 33.68 20.07 34.04 19.73 34.37 19.37 34.7 19 35 18.61 35.29 18.21 35.55 17.8 35.8 17.37 36.03 16.93 36.23 16.47 36.41 16 36.58 15.53 36.71 15.04 36.83 14.55 36.92 14.04 36.98 13.53 37.02 13.01 37.04 12.48 37.02 11.96 36.98 11.44 36.92 10.93 36.83 10.43 36.71 9.94 36.58 9.45 36.41 8.98 36.23 8.51 36.03 8.06 35.8 7.62 35.55 7.19 35.29 6.78 35 6.38 34.7 5.99 34.37 5.62 34.04 5.26 33.68 4.93 33.31 4.6 32.92 4.3 32.52 4.02 32.1 3.75 31.67 3.5 31.23 3.28 30.78 3.07 30.31 2.89 29.84 2.73 29.35 2.59 28.85 2.48 28.35 2.38 27.84 2.32 27.31 2.28 26.79 2.27 26.26 2.28 25.74 2.32 25.23 2.38 24.72 2.48 24.22 2.59 23.74 2.73 23.26 2.89 22.8 3.07 22.34 3.28 21.9 3.5 21.48 3.75 21.06 4.02 20.66 4.3 20.27 4.6 19.9 4.93 19.55 5.26 19.21 5.62 18.89 5.99 18.59 6.38 18.3 6.78 18.03 7.19 17.79 7.62 17.56 8.06 17.36 8.51 17.18 8.98 17.01 9.45 16.88 9.94 16.77 10.43 16.68 10.93 16.61 11.44 16.57 11.96 16.56 12.48 16.57 13.01 16.61 13.53 16.68 14.04 16.77 14.55 16.88 15.04 17.01 15.53 17.18 16 17.36 16.47 17.56 16.93 17.79 17.37 18.03 17.8 18.3 18.21 18.59 18.61 18.89 19 19.21 19.37 19.55 19.73 19.9 20.07 20.27 20.39 20.66 20.7 21.06 20.98 21.48 21.25 21.9 21.5 22.34 21.72 22.8 21.93 23.26 22.11 23.74 22.27 24.22 22.41 24.72 22.52 25.23 22.61 25.74 22.68 26.26 22.72 26.79 22.73"/><polygon class="cls-3" points="13.21 22.73 13.74 22.72 14.26 22.68 14.78 22.61 15.28 22.52 15.78 22.41 16.26 22.27 16.74 22.11 17.2 21.93 17.66 21.72 18.1 21.5 18.52 21.25 18.94 20.98 19.34 20.7 19.73 20.39 20.1 20.07 20.45 19.73 20.79 19.37 21.11 19 21.42 18.61 21.7 18.21 21.97 17.8 22.21 17.37 22.44 16.93 22.64 16.47 22.82 16 22.99 15.53 23.12 15.04 23.24 14.55 23.33 14.04 23.39 13.53 23.43 13.01 23.44 12.48 23.43 11.96 23.39 11.44 23.33 10.93 23.24 10.43 23.12 9.94 22.99 9.45 22.82 8.98 22.64 8.51 22.44 8.06 22.21 7.62 21.97 7.19 21.7 6.78 21.42 6.38 21.11 5.99 20.79 5.62 20.45 5.26 20.1 4.93 19.73 4.6 19.34 4.3 18.94 4.02 18.52 3.75 18.1 3.5 17.66 3.28 17.2 3.07 16.74 2.89 16.26 2.73 15.78 2.59 15.28 2.48 14.78 2.38 14.26 2.32 13.74 2.28 13.21 2.27 12.69 2.28 12.16 2.32 11.65 2.38 11.15 2.48 10.65 2.59 10.16 2.73 9.69 2.89 9.22 3.07 8.77 3.28 8.33 3.5 7.9 3.75 7.48 4.02 7.08 4.3 6.69 4.6 6.32 4.93 5.97 5.26 5.63 5.62 5.3 5.99 5 6.38 4.71 6.78 4.45 7.19 4.2 7.62 3.97 8.06 3.77 8.51 3.59 8.98 3.42 9.45 3.29 9.94 3.17 10.43 3.08 10.93 3.02 11.44 2.98 11.96 2.96 12.48 2.98 13.01 3.02 13.53 3.08 14.04 3.17 14.55 3.29 15.04 3.42 15.53 3.59 16 3.77 16.47 3.97 16.93 4.2 17.37 4.45 17.8 4.71 18.21 5 18.61 5.3 19 5.63 19.37 5.97 19.73 6.32 20.07 6.69 20.39 7.08 20.7 7.48 20.98 7.9 21.25 8.33 21.5 8.77 21.72 9.22 21.93 9.69 22.11 10.16 22.27 10.65 22.41 11.15 22.52 11.65 22.61 12.16 22.68 12.69 22.72 13.21 22.73"/><polygon class="cls-2" points="18.74 6.17 23.93 6.17 23.93 5.59 19.24 5.59 18.74 6.17"/><polygon class="cls-2" points="17.93 7.38 23.93 7.38 23.93 6.81 18.29 6.81 17.93 7.38"/><polygon class="cls-2" points="17.32 8.61 23.93 8.61 23.93 8.03 17.6 8.03 17.32 8.61"/><polygon class="cls-2" points="16.92 9.82 23.93 9.82 23.93 9.25 17.09 9.25 16.92 9.82"/><polygon class="cls-2" points="16.66 11.03 23.93 11.03 23.93 10.46 16.77 10.46 16.66 11.03"/><polygon class="cls-2" points="16.61 13.38 23.93 13.38 23.93 12.81 16.56 12.81 16.61 13.38"/><polygon class="cls-2" points="16.78 14.66 23.93 14.66 23.93 14.09 16.68 14.09 16.78 14.66"/><polygon class="cls-2" points="17.13 15.7 23.93 15.7 23.93 15.13 16.95 15.13 17.13 15.7"/><polygon class="cls-2" points="17.65 16.97 23.93 16.97 23.93 16.39 17.37 16.39 17.65 16.97"/><polygon class="cls-2" points="18.38 18.25 23.93 18.25 23.93 17.68 17.99 17.68 18.38 18.25"/><polygon class="cls-2" points="19.29 19.48 23.88 19.48 23.88 18.91 18.79 18.91 19.29 19.48"/><polygon class="cls-2" points="35.35 18.77 35.38 18.67 35.43 18.59 35.5 18.52 35.57 18.45 35.65 18.41 35.74 18.38 35.84 18.37 35.94 18.38 36.04 18.41 36.12 18.45 36.2 18.52 36.26 18.59 36.3 18.67 36.33 18.77 36.23 18.77 36.21 18.7 36.17 18.63 36.13 18.57 36.07 18.52 36 18.49 35.92 18.46 35.84 18.45 35.76 18.46 35.68 18.49 35.62 18.52 35.56 18.57 35.51 18.63 35.47 18.7 35.45 18.77 35.35 18.77"/><polygon class="cls-2" points="35.67 18.77 35.67 18.64 35.86 18.64 35.9 18.65 35.94 18.65 35.97 18.66 36 18.67 36.02 18.69 36.04 18.71 36.05 18.73 36.05 18.77 35.96 18.77 35.96 18.77 35.96 18.75 35.95 18.73 35.94 18.72 35.93 18.71 35.91 18.7 35.9 18.7 35.88 18.7 35.86 18.7 35.76 18.7 35.76 18.77 35.67 18.77"/><polygon class="cls-2" points="35.34 18.85 35.35 18.77 35.35 18.77 35.45 18.77 35.45 18.78 35.44 18.85 35.34 18.85"/><polygon class="cls-2" points="35.67 18.85 35.67 18.77 35.76 18.77 35.76 18.84 35.84 18.84 35.87 18.84 35.9 18.84 35.92 18.83 35.94 18.82 35.95 18.82 35.96 18.81 35.96 18.79 35.96 18.77 36.05 18.77 36.05 18.77 36.05 18.8 36.04 18.82 36.03 18.84 36.02 18.85 35.67 18.85"/><polygon class="cls-2" points="36.24 18.85 36.23 18.78 36.23 18.77 36.33 18.77 36.33 18.77 36.34 18.85 36.24 18.85"/><polygon class="cls-2" points="35.34 18.85 35.34 18.87 35.35 18.97 35.38 19.06 35.43 19.14 35.5 19.22 35.57 19.28 35.65 19.32 35.74 19.35 35.84 19.36 35.94 19.35 36.04 19.32 36.12 19.28 36.2 19.22 36.26 19.14 36.3 19.06 36.33 18.97 36.34 18.87 36.34 18.85 36.24 18.85 36.24 18.87 36.23 18.96 36.21 19.04 36.17 19.11 36.13 19.17 36.07 19.22 36 19.26 35.92 19.28 35.84 19.29 35.76 19.28 35.68 19.26 35.62 19.22 35.56 19.17 35.51 19.11 35.47 19.04 35.45 18.96 35.44 18.87 35.44 18.85 35.34 18.85"/><polygon class="cls-2" points="35.67 18.85 35.67 19.06 35.76 19.06 35.76 18.89 35.84 18.89 35.95 19.06 36.03 19.06 35.91 18.89 35.94 18.89 35.97 18.88 35.99 18.87 36.01 18.86 36.02 18.85 35.67 18.85"/><polygon class="cls-4" points="24.57 11.62 24.5 11.62 24.43 11.61 24.38 11.6 24.32 11.59 24.25 11.58 24.19 11.57 24.13 11.56 24.06 11.55 23.99 11.54 23.92 11.54 23.83 11.53 23.74 11.53 23.64 11.53 23.53 11.53 23.41 11.54 23.27 11.55 23.18 11.56 23.08 11.58 23 11.61 22.93 11.64 22.86 11.68 22.8 11.72 22.75 11.76 22.71 11.81 22.68 11.87 22.66 11.92 22.65 11.98 22.65 12.04 22.66 12.1 22.68 12.17 22.72 12.23 22.77 12.29 22.86 12.38 22.98 12.45 23.11 12.51 23.26 12.56 23.41 12.61 23.57 12.66 23.73 12.72 23.88 12.79 24.03 12.87 24.17 12.97 24.29 13.09 24.39 13.24 24.47 13.42 24.52 13.64 24.53 13.89 24.52 14.2 24.48 14.42 24.42 14.62 24.34 14.8 24.25 14.96 24.13 15.11 24.01 15.23 23.87 15.33 23.72 15.42 23.56 15.5 23.4 15.56 23.24 15.61 23.07 15.64 22.91 15.67 22.75 15.69 22.59 15.7 22.44 15.7 22.23 15.7 22.05 15.7 21.87 15.7 21.71 15.69 21.57 15.69 21.44 15.68 21.32 15.67 21.21 15.65 21.11 15.64 21.02 15.62 20.93 15.61 20.84 15.58 20.76 15.56 20.68 15.54 20.6 15.51 20.52 15.48 20.73 14.42 20.77 14.43 20.83 14.45 20.9 14.46 20.98 14.48 21.07 14.5 21.17 14.53 21.28 14.54 21.39 14.56 21.51 14.58 21.64 14.6 21.77 14.61 21.91 14.63 22.05 14.63 22.19 14.63 22.33 14.63 22.48 14.63 22.61 14.61 22.72 14.57 22.8 14.51 22.87 14.45 22.92 14.38 22.96 14.31 22.99 14.23 23.01 14.16 23.02 14.08 23.02 14.02 23 13.95 22.97 13.9 22.94 13.85 22.89 13.8 22.83 13.75 22.77 13.71 22.7 13.68 22.62 13.64 22.54 13.6 22.45 13.57 22.36 13.54 22.27 13.5 22.17 13.46 22.08 13.42 21.98 13.38 21.89 13.34 21.79 13.29 21.7 13.23 21.61 13.18 21.53 13.11 21.46 13.04 21.39 12.96 21.32 12.87 21.26 12.78 21.22 12.68 21.18 12.56 21.15 12.44 21.13 12.3 21.13 12.16 21.14 12 21.15 11.9 21.16 11.81 21.18 11.72 21.2 11.63 21.22 11.54 21.24 11.46 21.27 11.38 21.3 11.31 21.34 11.23 21.38 11.16 21.42 11.1 21.47 11.04 21.52 10.98 21.57 10.92 21.63 10.87 21.69 10.81 21.76 10.77 21.83 10.72 21.91 10.68 21.99 10.64 22.07 10.61 22.16 10.58 22.26 10.55 22.36 10.52 22.46 10.5 22.58 10.48 22.69 10.46 22.81 10.45 22.94 10.44 23.07 10.43 23.21 10.43 23.36 10.43 23.53 10.43 23.7 10.43 23.84 10.43 23.98 10.44 24.09 10.45 24.2 10.45 24.3 10.46 24.38 10.47 24.46 10.48 24.53 10.49 24.59 10.5 24.64 10.51 24.69 10.51 24.73 10.52 24.77 10.53 24.81 10.53 24.57 11.62"/><polyline class="cls-5" points="24.57 11.62 24.57 11.62 24.5 11.62 24.43 11.61 24.38 11.6 24.32 11.59 24.25 11.58 24.19 11.57 24.13 11.56 24.06 11.55 23.99 11.54 23.92 11.54 23.83 11.53 23.74 11.53 23.64 11.53 23.53 11.53 23.41 11.54 23.27 11.55 23.27 11.55 23.18 11.56 23.08 11.58 23 11.61 22.93 11.64 22.86 11.68 22.8 11.72 22.75 11.76 22.71 11.81 22.68 11.87 22.66 11.92 22.65 11.98 22.65 12.04 22.66 12.1 22.68 12.17 22.72 12.23 22.77 12.29 22.77 12.29 22.86 12.38 22.98 12.45 23.11 12.51 23.26 12.56 23.41 12.61 23.57 12.66 23.73 12.72 23.88 12.79 24.03 12.87 24.17 12.97 24.29 13.09 24.39 13.24 24.47 13.42 24.52 13.64 24.53 13.89 24.52 14.2 24.52 14.2 24.48 14.42 24.42 14.62 24.34 14.8 24.25 14.96 24.13 15.11 24.01 15.23 23.87 15.33 23.72 15.42 23.56 15.5 23.4 15.56 23.24 15.61 23.07 15.64 22.91 15.67 22.75 15.69 22.59 15.7 22.44 15.7 22.44 15.7 22.23 15.7 22.05 15.7 21.87 15.7 21.71 15.69 21.57 15.69 21.44 15.68 21.32 15.67 21.21 15.65 21.11 15.64 21.02 15.62 20.93 15.61 20.84 15.58 20.76 15.56 20.68 15.54 20.6 15.51 20.52 15.48 20.73 14.42 20.73 14.42 20.77 14.43 20.83 14.45 20.9 14.46 20.98 14.48 21.07 14.5 21.17 14.53 21.28 14.54 21.39 14.56 21.51 14.58 21.64 14.6 21.77 14.61 21.91 14.63 22.05 14.63 22.19 14.63 22.33 14.63 22.48 14.63 22.48 14.63 22.61 14.61 22.72 14.57 22.8 14.51 22.87 14.45 22.92 14.38 22.96 14.31 22.99 14.23 23.01 14.16 23.01 14.16 23.02 14.08 23.02 14.02 23 13.95 22.97 13.9 22.94 13.85 22.89 13.8 22.83 13.75 22.77 13.71 22.7 13.68 22.62 13.64 22.54 13.6 22.45 13.57 22.36 13.54 22.27 13.5 22.17 13.46 22.08 13.42 21.98 13.38 21.89 13.34 21.79 13.29 21.7 13.23 21.61 13.18 21.53 13.11 21.46 13.04 21.39 12.96 21.32 12.87 21.26 12.78 21.22 12.68 21.18 12.56 21.15 12.44 21.13 12.3 21.13 12.16 21.14 12 21.14 12 21.15 11.9 21.16 11.81 21.18 11.72 21.2 11.63 21.22 11.54 21.24 11.46 21.27 11.38 21.3 11.31 21.34 11.23 21.38 11.16 21.42 11.1 21.47 11.04 21.52 10.98 21.57 10.92 21.63 10.87 21.69 10.81 21.76 10.77 21.83 10.72 21.91 10.68 21.99 10.64 22.07 10.61 22.16 10.58 22.26 10.55 22.36 10.52 22.46 10.5 22.58 10.48 22.69 10.46 22.81 10.45 22.94 10.44 23.07 10.43 23.21 10.43 23.36 10.43 23.36 10.43 23.53 10.43 23.7 10.43 23.84 10.43 23.98 10.44 24.09 10.45 24.2 10.45 24.3 10.46 24.38 10.47 24.46 10.48 24.53 10.49 24.59 10.5 24.64 10.51 24.69 10.51 24.73 10.52 24.77 10.53 24.81 10.53 24.57 11.62"/><polygon class="cls-4" points="25.68 9.37 27.03 9.37 26.82 10.55 27.65 10.55 27.46 11.62 26.61 11.6 26.16 14.28 26.16 14.34 26.16 14.39 26.16 14.43 26.18 14.47 26.2 14.51 26.22 14.54 26.25 14.57 26.29 14.59 26.32 14.61 26.37 14.63 26.41 14.64 26.46 14.65 26.52 14.66 26.57 14.66 26.63 14.66 26.68 14.66 26.79 14.66 26.88 14.66 26.97 14.64 27.05 14.63 27.1 14.61 27.15 14.59 27.17 14.58 27.18 14.57 27.05 15.49 27.01 15.51 26.97 15.53 26.94 15.55 26.9 15.56 26.86 15.58 26.82 15.59 26.78 15.6 26.74 15.62 26.69 15.63 26.64 15.64 26.58 15.65 26.52 15.66 26.46 15.67 26.39 15.68 26.31 15.69 26.23 15.7 25.87 15.7 25.68 15.69 25.5 15.67 25.35 15.64 25.22 15.6 25.11 15.56 25.02 15.51 24.94 15.46 24.88 15.39 24.83 15.32 24.79 15.24 24.77 15.16 24.75 15.07 24.75 14.97 24.75 14.86 24.76 14.75 24.78 14.63 25.68 9.37"/><polyline class="cls-5" points="25.68 9.37 27.03 9.37 26.82 10.55 27.65 10.55 27.46 11.62 26.61 11.6 26.16 14.28 26.16 14.28 26.16 14.34 26.16 14.39 26.16 14.43 26.18 14.47 26.2 14.51 26.22 14.54 26.25 14.57 26.29 14.59 26.32 14.61 26.37 14.63 26.41 14.64 26.46 14.65 26.52 14.66 26.57 14.66 26.63 14.66 26.68 14.66 26.68 14.66 26.79 14.66 26.88 14.66 26.97 14.64 27.05 14.63 27.1 14.61 27.15 14.59 27.17 14.58 27.18 14.57 27.05 15.49 27.05 15.49 27.01 15.51 26.97 15.53 26.94 15.55 26.9 15.56 26.86 15.58 26.82 15.59 26.78 15.6 26.74 15.62 26.69 15.63 26.64 15.64 26.58 15.65 26.52 15.66 26.46 15.67 26.39 15.68 26.31 15.69 26.23 15.7 25.87 15.7 25.87 15.7 25.68 15.69 25.5 15.67 25.35 15.64 25.22 15.6 25.11 15.56 25.02 15.51 24.94 15.46 24.88 15.39 24.83 15.32 24.79 15.24 24.77 15.16 24.75 15.07 24.75 14.97 24.75 14.86 24.76 14.75 24.78 14.63 25.68 9.37"/><polygon class="cls-4" points="17.46 13.45 17.44 13.54 17.44 13.62 17.45 13.71 17.46 13.8 17.49 13.89 17.53 13.98 17.58 14.07 17.64 14.15 17.7 14.23 17.77 14.31 17.85 14.38 17.94 14.44 18.03 14.49 18.12 14.54 18.22 14.57 18.32 14.6 18.44 14.61 18.56 14.63 18.69 14.64 18.81 14.65 18.94 14.65 19.07 14.65 19.2 14.65 19.32 14.63 19.45 14.62 19.59 14.59 19.72 14.56 19.86 14.51 19.99 14.46 20.14 14.4 20.27 14.33 20.41 14.25 20.2 15.44 20.13 15.48 20.05 15.52 19.98 15.55 19.91 15.58 19.83 15.6 19.76 15.62 19.68 15.64 19.6 15.66 19.51 15.67 19.42 15.68 19.31 15.69 19.2 15.69 19.08 15.7 18.94 15.7 18.8 15.7 18.64 15.7 18.52 15.7 18.4 15.7 18.28 15.69 18.16 15.68 18.03 15.66 17.91 15.64 17.79 15.61 17.67 15.58 17.55 15.55 17.43 15.51 17.32 15.47 17.21 15.42 17.09 15.36 16.99 15.3 16.89 15.23 16.79 15.16 16.69 15.08 16.6 14.99 16.51 14.89 16.44 14.79 16.36 14.68 16.29 14.57 16.23 14.44 16.18 14.31 16.13 14.17 16.1 14.02 16.07 13.87 16.05 13.7 16.03 13.53 16.03 13.34 16.04 13.15 16.06 12.95 16.07 12.88 16.08 12.8 16.09 12.71 16.11 12.63 16.12 12.54 16.15 12.44 16.17 12.35 16.2 12.24 16.23 12.14 16.27 12.04 16.32 11.94 16.36 11.83 16.41 11.73 16.47 11.62 16.54 11.52 16.6 11.42 16.68 11.32 16.76 11.22 16.85 11.13 16.95 11.04 17.05 10.95 17.16 10.87 17.28 10.8 17.4 10.73 17.54 10.67 17.68 10.61 17.84 10.56 18 10.52 18.17 10.49 18.35 10.46 18.54 10.45 18.74 10.44 18.83 10.44 18.93 10.45 19.02 10.46 19.12 10.47 19.22 10.48 19.32 10.5 19.42 10.52 19.52 10.55 19.61 10.58 19.71 10.62 19.8 10.66 19.9 10.71 19.98 10.76 20.07 10.81 20.15 10.88 20.23 10.95 20.3 11.03 20.38 11.12 20.44 11.21 20.5 11.31 20.55 11.41 20.6 11.53 20.64 11.65 20.67 11.78 20.7 11.93 20.71 12.07 20.72 12.23 20.72 12.4 20.71 12.58 20.69 12.77 20.66 12.96 20.62 13.17 20.57 13.47 17.07 13.47 17.28 12.53 19.38 12.53 19.39 12.41 19.39 12.29 19.38 12.18 19.36 12.08 19.33 11.99 19.3 11.9 19.26 11.83 19.21 11.76 19.15 11.7 19.09 11.65 19.02 11.61 18.95 11.57 18.87 11.55 18.79 11.53 18.71 11.52 18.62 11.52 18.52 11.52 18.44 11.53 18.35 11.54 18.27 11.57 18.19 11.61 18.12 11.65 18.05 11.7 17.98 11.76 17.92 11.83 17.87 11.9 17.82 11.98 17.77 12.06 17.73 12.15 17.7 12.24 17.67 12.34 17.65 12.45 17.46 13.45"/><polyline class="cls-5" points="17.46 13.45 17.46 13.45 17.44 13.54 17.44 13.62 17.45 13.71 17.46 13.8 17.49 13.89 17.53 13.98 17.58 14.07 17.64 14.15 17.7 14.23 17.77 14.31 17.85 14.38 17.94 14.44 18.03 14.49 18.12 14.54 18.22 14.57 18.32 14.6 18.32 14.6 18.44 14.61 18.56 14.63 18.69 14.64 18.81 14.65 18.94 14.65 19.07 14.65 19.2 14.65 19.32 14.63 19.45 14.62 19.59 14.59 19.72 14.56 19.86 14.51 19.99 14.46 20.14 14.4 20.27 14.33 20.41 14.25 20.2 15.44 20.2 15.44 20.13 15.48 20.05 15.52 19.98 15.55 19.91 15.58 19.83 15.6 19.76 15.62 19.68 15.64 19.6 15.66 19.51 15.67 19.42 15.68 19.31 15.69 19.2 15.69 19.08 15.7 18.94 15.7 18.8 15.7 18.64 15.7 18.64 15.7 18.52 15.7 18.4 15.7 18.28 15.69 18.16 15.68 18.03 15.66 17.91 15.64 17.79 15.61 17.67 15.58 17.55 15.55 17.43 15.51 17.32 15.47 17.21 15.42 17.09 15.36 16.99 15.3 16.89 15.23 16.79 15.16 16.69 15.08 16.6 14.99 16.51 14.89 16.44 14.79 16.36 14.68 16.29 14.57 16.23 14.44 16.18 14.31 16.13 14.17 16.1 14.02 16.07 13.87 16.05 13.7 16.03 13.53 16.03 13.34 16.04 13.15 16.06 12.95 16.06 12.95 16.07 12.88 16.08 12.8 16.09 12.71 16.11 12.63 16.12 12.54 16.15 12.44 16.17 12.35 16.2 12.24 16.23 12.14 16.27 12.04 16.32 11.94 16.36 11.83 16.41 11.73 16.47 11.62 16.54 11.52 16.6 11.42 16.68 11.32 16.76 11.22 16.85 11.13 16.95 11.04 17.05 10.95 17.16 10.87 17.28 10.8 17.4 10.73 17.54 10.67 17.68 10.61 17.84 10.56 18 10.52 18.17 10.49 18.35 10.46 18.54 10.45 18.74 10.44 18.74 10.44 18.83 10.44 18.93 10.45 19.02 10.46 19.12 10.47 19.22 10.48 19.32 10.5 19.42 10.52 19.52 10.55 19.61 10.58 19.71 10.62 19.8 10.66 19.9 10.71 19.98 10.76 20.07 10.81 20.15 10.88 20.23 10.95 20.3 11.03 20.38 11.12 20.44 11.21 20.5 11.31 20.55 11.41 20.6 11.53 20.64 11.65 20.67 11.78 20.7 11.93 20.71 12.07 20.72 12.23 20.72 12.4 20.71 12.58 20.69 12.77 20.66 12.96 20.62 13.17 20.57 13.47 17.07 13.47 17.28 12.53 19.38 12.53 19.38 12.53 19.39 12.41 19.39 12.29 19.38 12.18 19.36 12.08 19.33 11.99 19.3 11.9 19.26 11.83 19.21 11.76 19.15 11.7 19.09 11.65 19.02 11.61 18.95 11.57 18.87 11.55 18.79 11.53 18.71 11.52 18.62 11.52 18.62 11.52 18.52 11.52 18.44 11.53 18.35 11.54 18.27 11.57 18.19 11.61 18.12 11.65 18.05 11.7 17.98 11.76 17.92 11.83 17.87 11.9 17.82 11.98 17.77 12.06 17.73 12.15 17.7 12.24 17.67 12.34 17.65 12.45 17.46 13.45"/><polygon class="cls-4" points="15.59 14.63 15.4 15.7 14.18 15.7 14.2 15.6 14.21 15.5 14.22 15.41 14.24 15.32 14.25 15.25 14.26 15.19 14.27 15.15 14.29 15.13 14.22 15.2 14.14 15.28 14.05 15.35 13.95 15.42 13.84 15.48 13.71 15.54 13.59 15.59 13.46 15.64 13.32 15.69 13.18 15.72 13.04 15.75 12.89 15.77 12.75 15.78 12.62 15.79 12.48 15.78 12.35 15.76 12.18 15.71 12.03 15.66 11.89 15.6 11.77 15.53 11.66 15.45 11.57 15.36 11.49 15.27 11.42 15.17 11.37 15.07 11.32 14.96 11.28 14.86 11.25 14.75 11.23 14.64 11.22 14.53 11.21 14.42 11.21 14.32 11.22 14.13 11.25 13.95 11.29 13.78 11.36 13.62 11.44 13.46 11.52 13.32 11.63 13.19 11.74 13.07 11.86 12.96 11.99 12.86 12.13 12.77 12.28 12.69 12.44 12.63 12.6 12.57 12.76 12.53 12.92 12.5 12.93 12.5 12.95 12.5 12.99 12.49 13.04 12.49 13.1 12.48 13.16 12.47 13.24 12.46 13.32 12.46 13.4 12.45 13.48 12.44 13.56 12.43 13.64 12.43 13.72 12.42 13.79 12.42 13.85 12.41 13.91 12.41 13.96 12.41 14.02 12.41 14.08 12.41 14.14 12.42 14.2 12.42 14.25 12.42 14.3 12.42 14.36 12.42 14.4 12.42 14.45 12.42 14.48 12.43 14.52 12.43 14.54 12.43 14.57 12.43 14.58 12.43 14.58 12.43 14.59 12.4 14.62 12.31 14.63 12.22 14.63 12.14 14.63 12.08 14.62 12.02 14.6 11.96 14.58 11.91 14.55 11.87 14.52 11.82 14.48 11.78 14.44 11.74 14.4 11.71 14.35 11.68 14.3 11.66 14.25 11.63 14.2 11.62 14.14 11.6 14.09 11.59 14.03 11.59 13.89 11.58 13.75 11.59 13.6 11.59 13.44 11.6 13.29 11.61 13.13 11.62 12.97 11.64 12.82 11.66 12.68 11.68 12.54 11.7 12.42 11.72 12.3 11.75 12.2 11.78 12.11 11.8 12.04 11.83 11.99 11.86 12.33 10.72 12.43 10.67 12.54 10.63 12.65 10.59 12.76 10.56 12.88 10.54 13 10.52 13.13 10.5 13.26 10.49 13.4 10.48 13.53 10.47 13.68 10.47 13.82 10.47 13.98 10.47 14.13 10.47 14.29 10.47 14.46 10.48 14.6 10.49 14.74 10.51 14.89 10.55 15.05 10.59 15.2 10.65 15.35 10.72 15.49 10.8 15.63 10.89 15.75 11 15.86 11.12 15.96 11.25 16.03 11.39 16.08 11.55 16.11 11.72 16.12 11.9 16.09 12.1 15.59 14.63"/><polyline class="cls-5" points="15.59 14.63 15.4 15.7 14.18 15.7 14.18 15.7 14.2 15.6 14.21 15.5 14.22 15.41 14.24 15.32 14.25 15.25 14.26 15.19 14.27 15.15 14.29 15.13 14.29 15.13 14.22 15.2 14.14 15.28 14.05 15.35 13.95 15.42 13.84 15.48 13.71 15.54 13.59 15.59 13.46 15.64 13.32 15.69 13.18 15.72 13.04 15.75 12.89 15.77 12.75 15.78 12.62 15.79 12.48 15.78 12.35 15.76 12.35 15.76 12.18 15.71 12.03 15.66 11.89 15.6 11.77 15.53 11.66 15.45 11.57 15.36 11.49 15.27 11.42 15.17 11.37 15.07 11.32 14.96 11.28 14.86 11.25 14.75 11.23 14.64 11.22 14.53 11.21 14.42 11.21 14.32 11.21 14.32 11.22 14.13 11.25 13.95 11.29 13.78 11.36 13.62 11.44 13.46 11.52 13.32 11.63 13.19 11.74 13.07 11.86 12.96 11.99 12.86 12.13 12.77 12.28 12.69 12.44 12.63 12.6 12.57 12.76 12.53 12.92 12.5 12.92 12.5 12.93 12.5 12.95 12.5 12.99 12.49 13.04 12.49 13.1 12.48 13.16 12.47 13.24 12.46 13.32 12.46 13.4 12.45 13.48 12.44 13.56 12.43 13.64 12.43 13.72 12.42 13.79 12.42 13.85 12.41 13.91 12.41 13.91 12.41 13.96 12.41 14.02 12.41 14.08 12.41 14.14 12.42 14.2 12.42 14.25 12.42 14.3 12.42 14.36 12.42 14.4 12.42 14.45 12.42 14.48 12.43 14.52 12.43 14.54 12.43 14.57 12.43 14.58 12.43 14.58 12.43 14.58 12.43 14.59 12.4 14.62 12.31 14.63 12.22 14.63 12.14 14.63 12.14 14.63 12.08 14.62 12.02 14.6 11.96 14.58 11.91 14.55 11.87 14.52 11.82 14.48 11.78 14.44 11.74 14.4 11.71 14.35 11.68 14.3 11.66 14.25 11.63 14.2 11.62 14.14 11.6 14.09 11.59 14.03 11.59 14.03 11.59 13.89 11.58 13.75 11.59 13.6 11.59 13.44 11.6 13.29 11.61 13.13 11.62 12.97 11.64 12.82 11.66 12.68 11.68 12.54 11.7 12.42 11.72 12.3 11.75 12.2 11.78 12.11 11.8 12.04 11.83 11.99 11.86 12.33 10.72 12.33 10.72 12.43 10.67 12.54 10.63 12.65 10.59 12.76 10.56 12.88 10.54 13 10.52 13.13 10.5 13.26 10.49 13.4 10.48 13.53 10.47 13.68 10.47 13.82 10.47 13.98 10.47 14.13 10.47 14.29 10.47 14.46 10.48 14.46 10.48 14.6 10.49 14.74 10.51 14.89 10.55 15.05 10.59 15.2 10.65 15.35 10.72 15.49 10.8 15.63 10.89 15.75 11 15.86 11.12 15.96 11.25 16.03 11.39 16.08 11.55 16.11 11.72 16.12 11.9 16.09 12.1 15.59 14.63"/><polygon class="cls-3" points="14.43 13.36 14.43 13.34 14.4 13.32 14.37 13.3 14.33 13.29 14.27 13.28 14.21 13.28 14.14 13.28 14.06 13.28 13.99 13.29 13.91 13.3 13.83 13.31 13.75 13.32 13.68 13.33 13.61 13.35 13.55 13.36 13.49 13.38 13.46 13.39 13.42 13.4 13.37 13.42 13.32 13.44 13.26 13.46 13.2 13.5 13.13 13.53 13.07 13.57 13.01 13.62 12.95 13.67 12.89 13.72 12.84 13.78 12.79 13.85 12.76 13.92 12.73 13.99 12.71 14.07 12.71 14.24 12.73 14.37 12.77 14.47 12.83 14.54 12.9 14.59 12.98 14.63 13.07 14.64 13.15 14.65 13.29 14.64 13.43 14.63 13.55 14.61 13.66 14.57 13.76 14.54 13.85 14.5 13.93 14.45 14 14.4 14.07 14.35 14.12 14.3 14.17 14.24 14.21 14.19 14.24 14.13 14.27 14.07 14.29 14.02 14.31 13.97 14.32 13.89 14.34 13.82 14.36 13.74 14.37 13.65 14.39 13.57 14.4 13.5 14.41 13.43 14.43 13.36"/><polygon class="cls-4" points="5.44 15.7 4.13 15.7 5.23 9.37 7.52 9.37 7.74 13.14 9.3 9.37 11.67 9.37 10.56 15.7 9.25 15.7 10.08 10.96 10.03 10.96 8.07 15.7 6.6 15.7 6.59 15.5 6.56 14.97 6.51 14.23 6.46 13.37 6.41 12.51 6.37 11.74 6.34 11.19 6.32 10.96 6.32 10.96 6.31 10.96 6.29 10.96 6.28 10.96 6.26 10.96 6.26 10.96 6.26 10.96 6.27 10.96 5.44 15.7"/><polyline class="cls-5" points="5.44 15.7 4.13 15.7 5.23 9.37 7.52 9.37 7.74 13.14 9.3 9.37 11.67 9.37 10.56 15.7 9.25 15.7 10.08 10.96 10.03 10.96 8.07 15.7 6.6 15.7 6.6 15.7 6.59 15.5 6.56 14.97 6.51 14.23 6.46 13.37 6.41 12.51 6.37 11.74 6.34 11.19 6.32 10.96 6.32 10.96 6.32 10.96 6.31 10.96 6.29 10.96 6.28 10.96 6.26 10.96 6.26 10.96 6.26 10.96 6.27 10.96 5.44 15.7"/><polygon class="cls-4" points="27.41 15.7 28.78 15.7 28.78 15.7 29.25 12.97 29.27 12.86 29.29 12.76 29.32 12.65 29.35 12.55 29.39 12.46 29.43 12.37 29.49 12.28 29.55 12.2 29.63 12.12 29.72 12.05 29.82 11.99 29.94 11.94 30.07 11.89 30.22 11.86 30.39 11.84 30.58 11.83 30.6 11.83 30.62 11.83 30.64 11.83 30.67 11.83 30.69 11.84 30.71 11.84 30.73 11.84 30.73 11.84 30.74 11.82 30.75 11.77 30.77 11.68 30.8 11.57 30.83 11.44 30.87 11.31 30.91 11.18 30.96 11.05 31 10.95 31.04 10.86 31.08 10.77 31.13 10.69 31.17 10.62 31.2 10.56 31.23 10.52 31.23 10.51 31.23 10.51 31.21 10.5 31.19 10.5 31.15 10.49 31.12 10.49 31.08 10.48 31.04 10.48 31.01 10.48 30.86 10.49 30.73 10.5 30.6 10.53 30.49 10.56 30.38 10.6 30.28 10.64 30.19 10.7 30.11 10.76 30.02 10.82 29.94 10.89 29.87 10.96 29.8 11.04 29.73 11.13 29.66 11.22 29.59 11.31 29.52 11.41 29.68 10.55 28.31 10.53 27.41 15.7 27.41 15.7"/><polyline class="cls-5" points="27.41 15.7 28.78 15.7 28.78 15.7 29.25 12.97 29.25 12.97 29.27 12.86 29.29 12.76 29.32 12.65 29.35 12.55 29.39 12.46 29.43 12.37 29.49 12.28 29.55 12.2 29.63 12.12 29.72 12.05 29.82 11.99 29.94 11.94 30.07 11.89 30.22 11.86 30.39 11.84 30.58 11.83 30.58 11.83 30.6 11.83 30.62 11.83 30.64 11.83 30.67 11.83 30.69 11.84 30.71 11.84 30.73 11.84 30.73 11.84 30.73 11.84 30.74 11.82 30.75 11.77 30.77 11.68 30.8 11.57 30.83 11.44 30.87 11.31 30.91 11.18 30.96 11.05 30.96 11.05 31 10.95 31.04 10.86 31.08 10.77 31.13 10.69 31.17 10.62 31.2 10.56 31.23 10.52 31.23 10.51 31.23 10.51 31.23 10.51 31.21 10.5 31.19 10.5 31.15 10.49 31.12 10.49 31.08 10.48 31.04 10.48 31.01 10.48 31.01 10.48 30.86 10.49 30.73 10.5 30.6 10.53 30.49 10.56 30.38 10.6 30.28 10.64 30.19 10.7 30.11 10.76 30.02 10.82 29.94 10.89 29.87 10.96 29.8 11.04 29.73 11.13 29.66 11.22 29.59 11.31 29.52 11.41 29.68 10.55 28.31 10.53 27.41 15.7 27.41 15.7"/><polygon class="cls-4" points="33.33 10.48 33.48 10.48 33.63 10.49 33.77 10.5 33.91 10.52 34.05 10.55 34.18 10.58 34.3 10.62 34.43 10.66 34.55 10.71 34.66 10.77 34.77 10.83 34.87 10.89 34.97 10.96 35.07 11.03 35.15 11.11 35.24 11.2 35.32 11.28 35.39 11.38 35.46 11.47 35.52 11.57 35.58 11.68 35.63 11.79 35.68 11.9 35.72 12.02 35.76 12.13 35.79 12.26 35.82 12.39 35.84 12.52 35.85 12.65 35.86 12.79 35.86 12.93 35.86 13.07 35.85 13.24 35.83 13.4 35.8 13.56 35.77 13.72 35.74 13.87 35.7 14.01 35.65 14.14 35.6 14.28 35.54 14.4 35.48 14.52 35.41 14.63 35.34 14.74 35.26 14.85 35.18 14.95 35.09 15.04 35 15.12 34.9 15.2 34.81 15.28 34.7 15.35 34.6 15.42 34.49 15.48 34.37 15.53 34.26 15.58 34.14 15.62 34.02 15.66 33.89 15.7 33.76 15.72 33.63 15.75 33.5 15.77 33.36 15.78 33.23 15.79 33.09 15.79 32.95 15.79 32.81 15.78 32.68 15.77 32.55 15.74 32.42 15.72 32.29 15.7 32.17 15.66 32.06 15.62 31.94 15.58 31.83 15.53 31.72 15.47 31.61 15.41 31.52 15.35 31.42 15.28 31.33 15.2 31.24 15.12 31.16 15.04 31.08 14.95 31.01 14.85 30.94 14.75 30.88 14.65 30.82 14.54 30.76 14.42 30.72 14.31 30.68 14.18 30.64 14.05 30.61 13.92 30.59 13.78 30.57 13.63 30.56 13.48 30.56 13.33 30.56 13.17 30.57 13.01 30.59 12.86 30.61 12.71 30.64 12.56 30.67 12.42 30.71 12.28 30.76 12.15 30.81 12.02 30.86 11.9 30.92 11.78 30.99 11.67 31.06 11.56 31.14 11.46 31.21 11.36 31.3 11.27 31.39 11.18 31.48 11.09 31.58 11.01 31.68 10.94 31.78 10.87 31.89 10.81 32.01 10.75 32.13 10.7 32.24 10.65 32.37 10.61 32.5 10.58 32.63 10.55 32.76 10.52 32.9 10.5 33.04 10.49 33.19 10.48 33.33 10.48"/><polyline class="cls-5" points="33.33 10.48 33.33 10.48 33.48 10.48 33.63 10.49 33.77 10.5 33.91 10.52 34.05 10.55 34.18 10.58 34.3 10.62 34.43 10.66 34.55 10.71 34.66 10.77 34.77 10.83 34.87 10.89 34.97 10.96 35.07 11.03 35.15 11.11 35.24 11.2 35.32 11.28 35.39 11.38 35.46 11.47 35.52 11.57 35.58 11.68 35.63 11.79 35.68 11.9 35.72 12.02 35.76 12.13 35.79 12.26 35.82 12.39 35.84 12.52 35.85 12.65 35.86 12.79 35.86 12.93 35.86 13.07 35.86 13.07 35.85 13.24 35.83 13.4 35.8 13.56 35.77 13.72 35.74 13.87 35.7 14.01 35.65 14.14 35.6 14.28 35.54 14.4 35.48 14.52 35.41 14.63 35.34 14.74 35.26 14.85 35.18 14.95 35.09 15.04 35 15.12 34.9 15.2 34.81 15.28 34.7 15.35 34.6 15.42 34.49 15.48 34.37 15.53 34.26 15.58 34.14 15.62 34.02 15.66 33.89 15.7 33.76 15.72 33.63 15.75 33.5 15.77 33.36 15.78 33.23 15.79 33.09 15.79 33.09 15.79 32.95 15.79 32.81 15.78 32.68 15.77 32.55 15.74 32.42 15.72 32.29 15.7 32.17 15.66 32.06 15.62 31.94 15.58 31.83 15.53 31.72 15.47 31.61 15.41 31.52 15.35 31.42 15.28 31.33 15.2 31.24 15.12 31.16 15.04 31.08 14.95 31.01 14.85 30.94 14.75 30.88 14.65 30.82 14.54 30.76 14.42 30.72 14.31 30.68 14.18 30.64 14.05 30.61 13.92 30.59 13.78 30.57 13.63 30.56 13.48 30.56 13.33 30.56 13.17 30.56 13.17 30.57 13.01 30.59 12.86 30.61 12.71 30.64 12.56 30.67 12.42 30.71 12.28 30.76 12.15 30.81 12.02 30.86 11.9 30.92 11.78 30.99 11.67 31.06 11.56 31.14 11.46 31.21 11.36 31.3 11.27 31.39 11.18 31.48 11.09 31.58 11.01 31.68 10.94 31.78 10.87 31.89 10.81 32.01 10.75 32.13 10.7 32.24 10.65 32.37 10.61 32.5 10.58 32.63 10.55 32.76 10.52 32.9 10.5 33.04 10.49 33.19 10.48 33.33 10.48"/><polygon class="cls-4" points="35.34 15.44 35.74 15.44 35.74 15.49 35.58 15.49 35.58 15.82 35.5 15.82 35.5 15.49 35.34 15.49 35.34 15.44"/><polyline class="cls-5" points="35.34 15.44 35.74 15.44 35.74 15.49 35.58 15.49 35.58 15.82 35.5 15.82 35.5 15.49 35.34 15.49 35.34 15.44"/><polygon class="cls-4" points="35.79 15.44 35.91 15.44 36.05 15.73 36.05 15.73 36.19 15.44 36.31 15.44 36.31 15.82 36.22 15.82 36.22 15.53 36.22 15.53 36.08 15.82 36.01 15.82 35.88 15.53 35.88 15.53 35.88 15.82 35.79 15.82 35.79 15.44"/><polyline class="cls-5" points="35.79 15.44 35.91 15.44 36.05 15.73 36.05 15.73 36.19 15.44 36.31 15.44 36.31 15.82 36.22 15.82 36.22 15.53 36.22 15.53 36.08 15.82 36.01 15.82 35.88 15.53 35.88 15.53 35.88 15.82 35.79 15.82 35.79 15.44"/><polygon class="cls-2" points="32.26 12.95 32.24 13.14 32.23 13.31 32.23 13.47 32.24 13.62 32.26 13.75 32.29 13.87 32.33 13.98 32.37 14.07 32.43 14.16 32.49 14.23 32.56 14.29 32.64 14.34 32.73 14.37 32.82 14.4 32.92 14.41 33.02 14.42 33.14 14.42 33.25 14.4 33.35 14.38 33.45 14.34 33.55 14.3 33.64 14.23 33.72 14.16 33.8 14.08 33.87 13.99 33.94 13.88 34 13.76 34.06 13.63 34.11 13.48 34.15 13.32 34.18 13.15 34.22 12.97 34.23 12.82 34.24 12.69 34.24 12.55 34.23 12.42 34.22 12.3 34.19 12.19 34.15 12.09 34.11 11.99 34.05 11.9 33.99 11.83 33.92 11.76 33.84 11.71 33.76 11.66 33.66 11.64 33.56 11.62 33.45 11.62 33.31 11.63 33.19 11.65 33.07 11.69 32.96 11.74 32.86 11.81 32.76 11.88 32.68 11.97 32.6 12.06 32.53 12.16 32.47 12.27 32.42 12.38 32.38 12.49 32.34 12.61 32.3 12.72 32.28 12.84 32.26 12.95"/></svg>