<svg id="Layer_1" data-name="Layer 1" xmlns="http://www.w3.org/2000/svg" width="40" height="25"><rect width="40" height="25" rx="1.33" ry="1.33" fill="#1c3663"/><path d="M19.05 10.34a.81.81 0 00-.6.36L17 13.27c-.07.13-.15 0-.16 0l-.42-2.55a.52.52 0 00-.52-.37H15a.28.28 0 00-.29.36s.65 3.67.77 4.54c.06.48 0 .56 0 .56l-.84 1.47c-.12.2-.06.36.15.36h1a.8.8 0 00.59-.36l3.78-6.39s.36-.55 0-.54h-1.11M7.12 11.64a2 2 0 01-1.2.31h-.23a.28.28 0 01-.29-.36l.29-1.23a.48.48 0 01.45-.36h.31a1.5 1.5 0 01.82.19.62.62 0 01.27.57 1 1 0 01-.43.89m2-1.9a1.42 1.42 0 00-.52-.56 2.39 2.39 0 00-.82-.3 6.87 6.87 0 00-1.07-.1h-2a.49.49 0 00-.45.36L2.93 15a.28.28 0 00.29.36h.95a.49.49 0 00.45-.36L5 13.55a.48.48 0 01.45-.36h.27a4.5 4.5 0 002.71-.71 2.22 2.22 0 001-1.88 1.75 1.75 0 00-.18-.86m4.49.83a3.62 3.62 0 00-1.69-.3 7.49 7.49 0 00-1.15.09l-.49.09a.56.56 0 00-.42.44l-.12.48c-.07.31.11.29.18.27a5.15 5.15 0 01.56-.17 4.16 4.16 0 01.89-.12 2.35 2.35 0 01.86.12.44.44 0 01.29.43.31.31 0 010 .13s0 .07-.14.09c-.54 0-.93.08-1.4.15a4.37 4.37 0 00-1.2.33 1.87 1.87 0 00-.82.65 1.75 1.75 0 00-.27 1 1.16 1.16 0 00.39.9 1.45 1.45 0 001 .34 2.67 2.67 0 00.6-.06 3 3 0 00.46-.16 2.4 2.4 0 00.39-.22l.36-.24L12 15a.28.28 0 00.25.35h.9a.5.5 0 00.41-.36l.69-3a1.93 1.93 0 000-.24 2 2 0 000-.23 1 1 0 00-.51-.95zm-1.68 3.57a2.49 2.49 0 01-.37.19 1.34 1.34 0 01-.5.11 1.1 1.1 0 01-.54-.1.37.37 0 01-.19-.35.72.72 0 01.14-.46 1 1 0 01.4-.27 3.52 3.52 0 01.63-.14l.7-.08c.06 0 .09 0 .07.11s-.13.57-.19.8a.46.46 0 01-.15.18zM31 10.57a3.62 3.62 0 00-1.69-.3 7.44 7.44 0 00-1.15.09l-.49.09a.55.55 0 00-.42.44l-.12.48c-.06.3.11.29.19.27a5 5 0 01.56-.17 4.19 4.19 0 01.89-.12 2.35 2.35 0 01.86.12.44.44 0 01.29.43.33.33 0 010 .13s0 .07-.14.09c-.54 0-.93.08-1.4.15a4.38 4.38 0 00-1.2.33 1.88 1.88 0 00-.82.65 1.76 1.76 0 00-.27 1 1.16 1.16 0 00.39.9 1.45 1.45 0 001 .34 2.66 2.66 0 00.6-.06 3 3 0 00.46-.16 2.42 2.42 0 00.39-.22l.36-.24v.15a.28.28 0 00.25.36h.9a.49.49 0 00.41-.36l.69-3a1.56 1.56 0 000-.25 1.94 1.94 0 000-.23 1 1 0 00-.54-.91zm-1.7 3.57a2.58 2.58 0 01-.37.19 1.35 1.35 0 01-.5.11 1.1 1.1 0 01-.54-.1.37.37 0 01-.18-.35.72.72 0 01.14-.46 1 1 0 01.4-.27 3.46 3.46 0 01.62-.14l.7-.08c.05 0 .09 0 .07.12s-.13.57-.19.8a.45.45 0 01-.15.18zm-4.95-2.48a2 2 0 01-1.2.31h-.24a.28.28 0 01-.29-.36l.28-1.23a.49.49 0 01.45-.36h.31a1.54 1.54 0 01.82.18.64.64 0 01.28.57 1 1 0 01-.43.89m2-1.9a1.46 1.46 0 00-.52-.56 2.35 2.35 0 00-.83-.3 6.58 6.58 0 00-1.12-.09H22a.49.49 0 00-.45.36L20.16 15a.28.28 0 00.28.36h1a.49.49 0 00.46-.36l.32-1.41a.49.49 0 01.46-.36h.27a4.49 4.49 0 002.71-.71 2.23 2.23 0 001-1.88 1.84 1.84 0 00-.18-.85m7.77-.93h-.85a.49.49 0 00-.44.33v.2l-1.17 5.32-.06.24a.28.28 0 00.25.35h.89a.49.49 0 00.44-.33l1.27-5.76a.28.28 0 00-.33-.35zM35.54 10h-.19a.29.29 0 01-.21-.08.34.34 0 01-.07-.24v-.43H35v-.13h.1v-.27h.16v.26h.32v.13h-.32v.53a.19.19 0 000 .08h.24zm1.54 0h-.16v-.6a.26.26 0 000-.09.13.13 0 00-.06-.05h-.1a.29.29 0 00-.13 0l-.13.08V10h-.16v-.61a.26.26 0 000-.09.13.13 0 00-.06-.05h-.1a.28.28 0 00-.13 0l-.13.08V10h-.16v-.88h.16v.1l.08-.1a.36.36 0 01.15 0 .31.31 0 01.16 0 .24.24 0 01.1.11.75.75 0 01.17-.11.4.4 0 01.17 0 .27.27 0 01.22.09.41.41 0 01.07.26z" fill="#fff"/></svg>