<svg id="Layer_1" data-name="Layer 1" xmlns="http://www.w3.org/2000/svg" width="40" height="25" viewBox="0 0 40 25"><defs><style>.cls-1{fill:#3957a7;}.cls-2{fill:#fff;}.cls-3{fill:#f9a533;}</style></defs><title>ip-visa</title><rect class="cls-1" width="40" height="25" rx="1.33" ry="1.33"/><polygon class="cls-2" points="17.73 17.85 14.95 17.85 16.69 7.16 19.47 7.16 17.73 17.85"/><path class="cls-2" d="M12.6,7.16,9.95,14.51l-.31-1.58h0L8.7,8.12a1.19,1.19,0,0,0-1.32-1H3l-.05.18A10.39,10.39,0,0,1,5.85,8.56l2.42,9.29h2.9L15.6,7.16Z" transform="translate(0 0)"/><path class="cls-2" d="M34.51,17.85h2.56L34.84,7.16H32.6a1.28,1.28,0,0,0-1.29.8l-4.15,9.9h2.9l.58-1.59h3.54Zm-3.06-3.78,1.46-4,.82,4Z" transform="translate(0 0)"/><path class="cls-2" d="M27.38,9.73l.4-2.3A8,8,0,0,0,25.27,7c-1.38,0-4.66.6-4.66,3.54,0,2.76,3.85,2.8,3.85,4.25S21,15.95,19.86,15l-.41,2.4a7.8,7.8,0,0,0,3.14.6c1.9,0,4.77-1,4.77-3.66s-3.89-3-3.89-4.25S26.18,9.07,27.38,9.73Z" transform="translate(0 0)"/><path class="cls-3" d="M9.63,12.93,8.7,8.12a1.19,1.19,0,0,0-1.32-1H3l-.05.18A10.79,10.79,0,0,1,7.07,9.41,8.35,8.35,0,0,1,9.63,12.93Z" transform="translate(0 0)"/></svg>