<svg id="Layer_1" data-name="Layer 1" xmlns="http://www.w3.org/2000/svg" width="40" height="25" viewBox="0 0 40 25"><defs><style>.cls-1{fill:#045ea0;}.cls-2{fill:#faa929;}.cls-2,.cls-3{fill-rule:evenodd;}.cls-3{fill:#fff;}</style></defs><title>ip-visael</title><rect class="cls-1" width="40" height="25" rx="1.33" ry="1.33"/><path class="cls-2" d="M10.69,14.75A29.55,29.55,0,0,1,29.08,12.9l.08-2c-8.46-.92-14.53,1.77-18.47,3.68v.2Z" transform="translate(0 0)"/><polygon class="cls-3" points="2.91 16.25 6.97 16.25 6.97 17.47 4.45 17.47 4.43 18.6 6.95 18.6 6.95 19.78 4.42 19.78 4.43 20.91 6.92 20.91 6.92 22.13 2.91 22.13 2.91 16.25 2.91 16.25"/><polygon class="cls-3" points="7.99 15.75 9.47 15.75 9.48 22.13 8 22.13 7.99 15.75 7.99 15.75"/><path class="cls-3" d="M14.56,21.65a3.13,3.13,0,0,1-1.95.64,2.12,2.12,0,0,1-2.26-2.2,2.33,2.33,0,0,1,2.31-2.39c1.63,0,2.14,1.16,2.14,2.63h-3a.91.91,0,0,0,1,.89,1.9,1.9,0,0,0,1.21-.42l.49.86Zm-1.09-2.19c0-.44-.21-.84-.71-.84a1,1,0,0,0-.92.84Z" transform="translate(0 0)"/><path class="cls-3" d="M19.29,21.84a3.36,3.36,0,0,1-1.57.44,2.12,2.12,0,0,1-2.34-2.19,2.28,2.28,0,0,1,2.43-2.4,3,3,0,0,1,1.45.37l-.48,1a1.82,1.82,0,0,0-.7-.17A1.12,1.12,0,0,0,16.86,20,1.09,1.09,0,0,0,18,21.11a1.86,1.86,0,0,0,.8-.25l.53,1Z" transform="translate(0 0)"/><path class="cls-3" d="M19.84,17.85h.67V16.39h1.43l0,1.45h1.22l0,1.07H21.87c0,.6,0,1.22,0,1.59s.09.55.43.55a1.07,1.07,0,0,0,.54-.2l.32,1a2.89,2.89,0,0,1-1.46.42c-1.2,0-1.26-.76-1.26-1.74,0-.53,0-1.05,0-1.62h-.64l0-1.07Z" transform="translate(0 0)"/><path class="cls-3" d="M23.87,17.85h1.48v.6h0a1.22,1.22,0,0,1,1.09-.72,2.26,2.26,0,0,1,.48.05l-.2,1.46a1.73,1.73,0,0,0-.53-.08,1,1,0,0,0-.88.5l0,2.48H23.84l0-4.29Z" transform="translate(0 0)"/><path class="cls-3" d="M29.62,17.69A2.19,2.19,0,0,1,32,20a2.19,2.19,0,0,1-2.4,2.3,2.19,2.19,0,0,1-2.4-2.3,2.19,2.19,0,0,1,2.4-2.3Zm0,3.47c.71,0,.92-.61.92-1.17s-.21-1.17-.92-1.17-.92.61-.92,1.17.21,1.17.92,1.17Z" transform="translate(0 0)"/><path class="cls-3" d="M32.83,17.85H34.3v.47a2.1,2.1,0,0,1,1.39-.62c.91,0,1.4.5,1.4,1.68,0,.88,0,1.82,0,2.76H35.6c0-.83,0-1.66,0-2.54,0-.35-.09-.62-.54-.62a1.38,1.38,0,0,0-.77.39v2.77H32.79l0-4.29Z" transform="translate(0 0)"/><polygon class="cls-3" points="15.08 9.02 16.95 2.85 18.62 2.85 16.75 9.02 15.08 9.02 15.08 9.02"/><path class="cls-3" d="M14.33,2.85l-1.5,2.61a6.36,6.36,0,0,0-.71,1.46h0c0-.55,0-1.22-.06-1.6l-.17-2.47H9.07L9,3a1.16,1.16,0,0,1,1.27,1.1L10.85,9h1.73l3.49-6.16Z" transform="translate(0 0)"/><path class="cls-3" d="M27.31,9l0-.92H25.18L24.75,9H22.94l3.28-6.15h2.22L29,9Zm-.19-3.64a14.36,14.36,0,0,1,0-1.45h0c-.1.31-.54,1.23-.73,1.68L25.74,7H27.2l-.09-1.58Z" transform="translate(0 0)"/><path class="cls-3" d="M20.37,9.19a4.66,4.66,0,0,1-2.52-.71l.79-1.21a3.07,3.07,0,0,0,1.8.6.77.77,0,0,0,.73-.35c.23-.4-.05-.62-.7-1l-.32-.21c-1-.66-1.38-1.29-.93-2.38a2.31,2.31,0,0,1,2.33-1.23,3.74,3.74,0,0,1,2.17.75L22.8,4.53A2,2,0,0,0,21.51,4a.78.78,0,0,0-.71.32c-.17.34.06.58.56.89l.38.24c1.17.74,1.45,1.51,1.16,2.24a2.42,2.42,0,0,1-2.53,1.53Z" transform="translate(0 0)"/></svg>