<svg data-name="Layer 1" xmlns="http://www.w3.org/2000/svg" width="40" height="25"><rect width="40" height="25" rx="1.33" ry="1.33" fill="#045ea0"/><path d="M10.69 14.75a29.55 29.55 0 0118.39-1.85l.08-2c-8.46-.92-14.53 1.77-18.47 3.68v.2z" fill-rule="evenodd" fill="#faa929"/><path d="M2.91 16.25h4.06v1.22H4.45l-.02 1.13h2.52v1.18H4.42l.01 1.13h2.49v1.22H2.91v-5.88zm5.08-.5h1.48l.01 6.38H8l-.01-6.38zm6.57 5.9a3.13 3.13 0 01-1.95.64 2.12 2.12 0 01-2.26-2.2 2.33 2.33 0 012.31-2.39c1.63 0 2.14 1.16 2.14 2.63h-3a.91.91 0 001 .89 1.9 1.9 0 001.21-.42l.49.86zm-1.09-2.19c0-.44-.21-.84-.71-.84a1 1 0 00-.92.84zm5.82 2.38a3.36 3.36 0 01-1.57.44 2.12 2.12 0 01-2.34-2.19 2.28 2.28 0 012.43-2.4 3 3 0 011.45.37l-.48 1a1.82 1.82 0 00-.7-.17A1.12 1.12 0 0016.86 20 1.09 1.09 0 0018 21.11a1.86 1.86 0 00.8-.25l.53 1zm.55-3.99h.67v-1.46h1.43v1.45h1.22v1.07h-1.29v1.59c0 .37.09.55.43.55a1.07 1.07 0 00.54-.2l.32 1a2.89 2.89 0 01-1.46.42c-1.2 0-1.26-.76-1.26-1.74v-1.62h-.64v-1.07zm4.03 0h1.48v.6a1.22 1.22 0 011.09-.72 2.26 2.26 0 01.48.05l-.2 1.46a1.73 1.73 0 00-.53-.08 1 1 0 00-.88.5v2.48h-1.47v-4.29zm5.75-.16A2.19 2.19 0 0132 20a2.19 2.19 0 01-2.4 2.3 2.19 2.19 0 01-2.4-2.3 2.19 2.19 0 012.4-2.3zm0 3.47c.71 0 .92-.61.92-1.17s-.21-1.17-.92-1.17-.92.61-.92 1.17.21 1.17.92 1.17zm3.21-3.31h1.47v.47a2.1 2.1 0 011.39-.62c.91 0 1.4.5 1.4 1.68v2.76H35.6V19.6c0-.35-.09-.62-.54-.62a1.38 1.38 0 00-.77.39v2.77h-1.5v-4.29zM15.08 9.02l1.87-6.17h1.67l-1.87 6.17h-1.67zm-.75-6.17l-1.5 2.61a6.36 6.36 0 00-.71 1.46c0-.55 0-1.22-.06-1.6l-.17-2.47H9.07L9 3a1.16 1.16 0 011.27 1.1l.58 4.9h1.73l3.49-6.16zM27.31 9v-.92h-2.13l-.43.92h-1.81l3.28-6.15h2.22L29 9zm-.19-3.64a14.36 14.36 0 010-1.45c-.1.31-.54 1.23-.73 1.68L25.74 7h1.46l-.09-1.58zm-6.75 3.83a4.66 4.66 0 01-2.52-.71l.79-1.21a3.07 3.07 0 001.8.6.77.77 0 00.73-.35c.23-.4-.05-.62-.7-1l-.32-.21c-1-.66-1.38-1.29-.93-2.38a2.31 2.31 0 012.33-1.23 3.74 3.74 0 012.17.75l-.92 1.08A2 2 0 0021.51 4a.78.78 0 00-.71.32c-.17.34.06.58.56.89l.38.24c1.17.74 1.45 1.51 1.16 2.24a2.42 2.42 0 01-2.53 1.53z" fill-rule="evenodd" fill="#fff"/></svg>