<svg data-name="Layer 1" xmlns="http://www.w3.org/2000/svg" width="40" height="25"><rect width="40" height="25" rx="1.33" ry="1.33" fill="#3957a7"/><path d="M17.73 17.85h-2.78l1.74-10.69h2.78l-1.74 10.69zM12.6 7.16l-2.65 7.35-.31-1.58-.94-4.81a1.19 1.19 0 0 0-1.32-1H3l-.05.18a10.39 10.39 0 0 1 2.9 1.26l2.42 9.29h2.9L15.6 7.16zm21.91 10.69h2.56L34.84 7.16H32.6a1.28 1.28 0 0 0-1.29.8l-4.15 9.9h2.9l.58-1.59h3.54zm-3.06-3.78l1.46-4 .82 4zm-4.07-4.34l.4-2.3A8 8 0 0 0 25.27 7c-1.38 0-4.66.6-4.66 3.54 0 2.76 3.85 2.8 3.85 4.25s-3.46 1.16-4.6.21l-.41 2.4a7.8 7.8 0 0 0 3.14.6c1.9 0 4.77-1 4.77-3.66s-3.89-3-3.89-4.25 2.71-1.02 3.91-.36z" fill="#fff"/><path d="M9.63 12.93L8.7 8.12a1.19 1.19 0 0 0-1.32-1H3l-.05.18a10.79 10.79 0 0 1 4.12 2.11 8.35 8.35 0 0 1 2.56 3.52z" fill="#f9a533"/></svg>