<svg id="loc" xmlns="http://www.w3.org/2000/svg" width="42.9" height="43.92" viewBox="0 0 42.9 43.92"><defs><style>.cls-1{fill:#eee;}.cls-2{fill:#ffa300;}</style></defs><title>loc</title><polygon class="cls-1" points="40.63 37.69 25.74 33.83 14.12 43.92 13.18 28.56 0 20.62 14.32 14.99 17.79 0 27.57 11.88 42.9 10.55 34.63 23.52 40.63 37.69"/><path class="cls-2" d="M33,15.88a6.88,6.88,0,0,1-.58,3l-6.34,13a2.07,2.07,0,0,1-.83.88,2.32,2.32,0,0,1-2.35,0,2,2,0,0,1-.81-.88l-6.36-13a6.9,6.9,0,0,1-.57-3,8.18,8.18,0,0,1,2.61-6.1,8.73,8.73,0,0,1,6.3-2.53,8.74,8.74,0,0,1,6.3,2.53A8.19,8.19,0,0,1,33,15.88Zm-5.76,3.05a4.22,4.22,0,0,0,0-6.1,4.56,4.56,0,0,0-6.31,0,4.22,4.22,0,0,0,0,6.1,4.56,4.56,0,0,0,6.31,0Z"/></svg>