<svg xmlns="http://www.w3.org/2000/svg" width="42.9" height="43.92"><path fill="#eee" d="M40.63 37.69l-14.89-3.86-11.62 10.09-.94-15.36L0 20.62l14.32-5.63L17.79 0l9.78 11.88 15.33-1.33-8.27 12.97 6 14.17z"/><path d="M33 15.88a6.88 6.88 0 0 1-.58 3l-6.34 13a2.07 2.07 0 0 1-.83.88 2.32 2.32 0 0 1-2.35 0 2 2 0 0 1-.81-.88l-6.36-13a6.9 6.9 0 0 1-.57-3 8.18 8.18 0 0 1 2.61-6.1 8.73 8.73 0 0 1 6.3-2.53 8.74 8.74 0 0 1 6.3 2.53 8.19 8.19 0 0 1 2.63 6.1zm-5.76 3.05a4.22 4.22 0 0 0 0-6.1 4.56 4.56 0 0 0-6.31 0 4.22 4.22 0 0 0 0 6.1 4.56 4.56 0 0 0 6.31 0z" fill="#ffa300"/></svg>