<svg xmlns="http://www.w3.org/2000/svg" viewBox="0 0 100 100"><circle cx="50" cy="50" r="50" fill="#bbb"/><path d="M81 25.3c4.1 4.1 4.1 10.6 0 14.7-4 4-10.6 4-14.7 0-4.1-4.1-4.1-10.6 0-14.7s10.7-4.1 14.7 0zM28.2 71.6c6.8-11.3 10.9-24 11.9-37.2l12.5 12.5c2-3.9 1.2-8.6-1.8-11.7l-1.1-1.1c-.7-.7-1.6-1.4-2.5-1.8l11.6.1c-1.4-4.1-5.2-7-9.6-7h-1.6c-1.1 0-2.2.2-3.3.5l8.3-8.3c-3.9-2-8.6-1.2-11.7 1.8l-1.1 1.1c-.7.7-1.4 1.6-1.8 2.5-.5-.9-1.1-1.8-1.8-2.5l-1.1-1.1c-3.1-3.1-7.8-3.9-11.7-2l8.2 8.4a9.6 9.6 0 0 0-3.3-.6h-1.6c-4.4 0-8.3 2.8-9.7 6.9l11.6.1c-.9.5-1.8 1.1-2.5 1.8L25 35.1c-3.1 3.1-3.9 7.8-2 11.7l12.3-12.1c-.7 12.6-5.3 24.7-13 34.8-1.7-.5-8.7-2-10.5-2.3 0 0 1.3 10.3 13 18.8 11 7.9 24 5.2 24 5.2l-5.4-7.8c-4.1-5-9.3-9.1-15.2-11.8z" fill="#fff"/><path d="M40.9 66.5h46.7M50 75.1h30.8m-28 8.6h22.8" stroke="#fff" stroke-width="4" stroke-linecap="round" stroke-miterlimit="10"/></svg>