<svg version="1.1" id="Layer_1" xmlns="http://www.w3.org/2000/svg" x="0" y="0" viewBox="0 0 100 100" xml:space="preserve"><style>.st1{fill:#fff}</style><circle cx="50" cy="50" r="50" fill="#bbb"/><path class="st1" d="M36.4 30.4l-1.1-6.5 4.7-4.7-6.5-.9-3-5.9-2.9 5.9-6.5.9 4.7 4.7-1.1 6.5 5.8-3.1zm20 0l-1.1-6.5 4.7-4.7-6.5-.9-2.9-5.9-2.9 5.9-6.6.9 4.8 4.7-1.2 6.5 5.9-3.1zm20.1 0l-1.1-6.5 4.7-4.7-6.5-.9-3-5.9-2.9 5.9-6.5.9 4.7 4.7-1.1 6.5 5.8-3.1zM44 69h4v12h-4z"/><path class="st1" d="M64.8 33H20v48h20V65h20v16h20V33H64.8zM36 69h-8v-4h8v4zm0-8h-8v-4h8v4zm0-8h-8v-4h8v4zm0-8h-8v-4h8v4zm12 16h-8v-4h8v4zm0-8h-8v-4h8v4zm0-8h-8v-4h8v4zm12 16h-8v-4h8v4zm0-8h-8v-4h8v4zm0-8h-8v-4h8v4zm12 24h-8v-4h8v4zm0-8h-8v-4h8v4zm0-8h-8v-4h8v4zm0-8h-8v-4h8v4z"/></svg>