<svg xmlns="http://www.w3.org/2000/svg" width="60" height="60" viewBox="0 0 60 60"><style>.st0{fill:#fff}</style><path class="st0" d="M30 0C13.5 0 0 13.5 0 30s13.5 30 30 30 30-13.5 30-30S46.5 0 30 0zm0 5c6.2 0 11.9 2.3 16.3 6.1l-6.8 6.8-1-2.5c-.3-.6-.7-1.2-1.4-1.7s-1.3-.7-2-.7H24.9c-.7 0-1.4.2-2 .7-.7.5-1.1 1-1.4 1.7l-1 2.7h-4.4c-1.8 0-3.3.8-4.4 2.5-.4.7-.7 1.4-.7 2.2V40c0 1.5.6 2.8 1.8 3.9.1.1.3.2.4.3L11 46.4C7.3 41.9 5 36.2 5 30 5 16.2 16.2 5 30 5zm8.9 26.7c0 2.4-.9 4.5-2.6 6.2-1.7 1.7-3.8 2.6-6.3 2.6-1.8 0-3.3-.5-4.7-1.3L37.5 27c.9 1.3 1.4 2.9 1.4 4.7zm-17.8 0c0-2.4.9-4.5 2.6-6.2 1.7-1.7 3.8-2.6 6.3-2.6 1.3 0 2.6.3 3.7.8L22 35.4c-.6-1.1-.9-2.4-.9-3.7zM30 55c-5.8 0-11.1-2-15.3-5.3l4.7-4.7h24.5c1.5 0 2.8-.6 3.9-1.8.8-.9 1.2-2.2 1.2-3.4V23c0-1.8-.8-3.2-2.5-4.4-.1-.1-.3-.2-.5-.3l3.7-3.7C53 18.9 55 24.2 55 30c0 13.8-11.2 25-25 25z" id="Layer_2"/></svg>