<?xml version="1.0" encoding="utf-8"?>
<!-- Generator: Adobe Illustrator 21.0.0, SVG Export Plug-In . SVG Version: 6.00 Build 0)  -->
<svg version="1.1" xmlns="http://www.w3.org/2000/svg" xmlns:xlink="http://www.w3.org/1999/xlink" x="0px" y="0px" width="60px"
	 height="60px" viewBox="0 0 60 60" style="enable-background:new 0 0 60 60;" xml:space="preserve">
<style type="text/css">
	.st0{fill:#FFFFFF;}
</style>
<g id="Layer_1">
</g>
<g id="Layer_2">
	<path class="st0" d="M30,0C13.5,0,0,13.5,0,30s13.5,30,30,30s30-13.5,30-30S46.5,0,30,0z M30,5c6.2,0,11.9,2.3,16.3,6.1l-6.8,6.8
		l-1-2.5c-0.3-0.6-0.7-1.2-1.4-1.7c-0.7-0.5-1.3-0.7-2-0.7H24.9c-0.7,0-1.4,0.2-2,0.7c-0.7,0.5-1.1,1-1.4,1.7l-1,2.7h-4.4
		c-1.8,0-3.3,0.8-4.4,2.5c-0.4,0.7-0.7,1.4-0.7,2.2V40c0,1.5,0.6,2.8,1.8,3.9c0.1,0.1,0.3,0.2,0.4,0.3l-2.2,2.2
		C7.3,41.9,5,36.2,5,30C5,16.2,16.2,5,30,5z M38.9,31.7c0,2.4-0.9,4.5-2.6,6.2c-1.7,1.7-3.8,2.6-6.3,2.6c-1.8,0-3.3-0.5-4.7-1.3
		l12.2-12.2C38.4,28.3,38.9,29.9,38.9,31.7z M21.1,31.7c0-2.4,0.9-4.5,2.6-6.2c1.7-1.7,3.8-2.6,6.3-2.6c1.3,0,2.6,0.3,3.7,0.8
		L22,35.4C21.4,34.3,21.1,33,21.1,31.7z M30,55c-5.8,0-11.1-2-15.3-5.3l4.7-4.7h24.5c1.5,0,2.8-0.6,3.9-1.8c0.8-0.9,1.2-2.2,1.2-3.4
		V23c0-1.8-0.8-3.2-2.5-4.4c-0.1-0.1-0.3-0.2-0.5-0.3l3.7-3.7C53,18.9,55,24.2,55,30C55,43.8,43.8,55,30,55z"/>
</g>
</svg>
