<svg id="Layer_1" data-name="Layer 1" xmlns="http://www.w3.org/2000/svg" viewBox="0 0 50 50"><defs><style>.cls-1{fill:#4d9b40}</style></defs><path class="cls-1" d="M9.54 42.62c-.51-.42-1-.87-1.49-1.34a.76.76 0 10-1.08 1.08 19.85 19.85 0 001.59 1.44.77.77 0 001.08 0 .76.76 0 00-.1-1.18zM1.53 20a.76.76 0 00-1 .47 1.16 1.16 0 000 .18C.37 21.3.25 22 .16 22.72a.77.77 0 00.65.85h.1a.77.77 0 00.76-.67c.08-.66.19-1.33.33-2a.76.76 0 00-.47-.9zm4.21 18.56c-.4-.54-.77-1.1-1.11-1.67a.78.78 0 00-1-.27.76.76 0 00-.27 1c.37.61.77 1.21 1.19 1.79a.76.76 0 001.08.12.77.77 0 00.11-.97zm-2.67-4.82c-.25-.62-.47-1.25-.66-1.9a.78.78 0 00-1-.52.77.77 0 00-.51 1c.21.68.44 1.36.71 2a.78.78 0 001 .43.77.77 0 00.46-1.01zm.46-19.03a.77.77 0 00-1 .33c-.32.64-.62 1.3-.88 2a.76.76 0 001.35.53 20 20 0 01.82-1.83.76.76 0 00-.29-1.03zM1.69 28.42c-.08-.66-.13-1.34-.16-2a.78.78 0 00-.79-.74.78.78 0 00-.74.8 17.14 17.14 0 00.17 2.14.78.78 0 00.74.66H1a.77.77 0 00.69-.86zM22 2.92a.77.77 0 00-.84-.7c-.71.08-1.42.18-2.13.32a.76.76 0 00-.69.83.77.77 0 00.84.69V4h.15c.66-.12 1.32-.22 2-.29a.76.76 0 00.67-.79zM6.85 10.08a.77.77 0 00-1.09.07c-.47.53-.92 1.1-1.34 1.68A.76.76 0 005 13a.77.77 0 00.62-.31 19.56 19.56 0 011.25-1.57.78.78 0 00-.02-1.04zM27 2.35c-.71-.11-1.43-.18-2.14-.22a.77.77 0 00-.09 1.53c.67 0 1.34.12 2 .22h.11a.76.76 0 00.82-.71.76.76 0 00-.7-.82zM11.19 6.44a.76.76 0 00-1-.19c-.59.4-1.16.84-1.71 1.29a.76.76 0 00-.1 1.08.77.77 0 001.08.1A18.65 18.65 0 0111 7.51a.77.77 0 00.19-1.07zM16.45 4a.77.77 0 00-.94-.54h-.11a18.71 18.71 0 00-2 .83.77.77 0 00.32 1.46.68.68 0 00.31-.08c.61-.28 1.23-.54 1.85-.77a.77.77 0 00.57-.9zm9.24 44.26a.76.76 0 00-.81-.72 19.27 19.27 0 01-2 .05.76.76 0 000 1.52h2.15a.76.76 0 00.66-.85zm20.02-17.72a.77.77 0 00-.93.56c-.17.64-.37 1.29-.59 1.91a.76.76 0 101.44.5c.24-.67.45-1.36.63-2a.77.77 0 00-.55-.97zm.97-8.75c-.12-.71-.26-1.41-.44-2.1a.77.77 0 00-1.48.39c.17.64.31 1.3.42 2a.75.75 0 00.74.62h.13a.75.75 0 00.63-.91z"/><path class="cls-1" d="M49.93 13a.6.6 0 00-.14-.21l-1.35-1.41a.75.75 0 00-.74-.18l-2.44.8-2.85-3 6.4-3.57a.73.73 0 00.37-1 .8.8 0 00-.18-.27l-1.8-1.8a.75.75 0 00-.74-.18l-8.09 2.46-2.73-2.9a2.49 2.49 0 00-2.81-.67 3 3 0 00-1.63 1.64 2.43 2.43 0 00-.17.6l-.31-.11a.77.77 0 00-.47 1.46c.39.13.79.27 1.18.42a4 4 0 00.41.51l2.88 2.73-.82 2.73a18 18 0 103.79 3.66L39 12.35l3 2.86-.73 2.41a.72.72 0 00.18.75L43 19.9a.73.73 0 001-.27L46 16l3.6-2a.75.75 0 00.33-1zm-38.06 1a16.36 16.36 0 0111.59-4.77h1c2.89 2.66 2 5.1.1 7.29a35.59 35.59 0 01-3.67 3.38c-1.88 1.6-3.63 3.1-4.3 4.59-.78 1.77-.21 3.38 3 4.78A8.38 8.38 0 0122.36 31a6.4 6.4 0 01-2.41.41c-3.84.16-6.58-2.29-8.71-4.19-1.52-1.36-2.79-2.5-4.11-2.51A16.32 16.32 0 0111.87 14zm28 11.61a16.42 16.42 0 01-11.28 15.63 5.39 5.39 0 01.62-3.47 12.89 12.89 0 013.06-3.36c4.71-3.93 5-6.12 5.18-7.81.12-1.06.22-1.86 2.32-3a15.52 15.52 0 01.13 2.03zM39 20.12a14.63 14.63 0 01.56 2c-3.2 1.63-3.34 2.79-3.54 4.38-.17 1.42-.4 3.29-4.65 6.84a13.72 13.72 0 00-3.41 3.79 6.8 6.8 0 00-.77 4.55A16.43 16.43 0 017.47 29.29a16.87 16.87 0 01-.4-3.08c.81 0 1.86 1 3.15 2.11 2.34 2.08 5.32 4.74 9.77 4.59a7.65 7.65 0 003.06-.59 1.54 1.54 0 00.85-.95 1.44 1.44 0 00-.37-1.37 9.55 9.55 0 00-3.33-2c-2.2-1-2.63-1.93-2.2-2.88.51-1.19 2.16-2.55 3.9-4.08a36.86 36.86 0 003.83-3.56c2.13-2.43 3.22-5.08 1.06-8a16.28 16.28 0 016.62 3l-1.17 3.87a.72.72 0 00.18.75s1.9 1.89 2 1.93a.75.75 0 001-.27l1.48-2.68a16.15 16.15 0 012.1 4.04zm6.84-5.7l-.66.33a.73.73 0 00-.33.34l-.33.66-1.27 2.3-.37-.41.74-2.44a.76.76 0 00-.24-.79l-4-3.79a.75.75 0 00-1.05 0c-.05.05-3.67 6.57-3.67 6.57l-.79-.79 2.47-8.13a.74.74 0 00-.34-.75l-3.2-3a1 1 0 01-.29-1.23 1.58 1.58 0 01.83-.82 1.09 1.09 0 011.2.3l3 3.24a.77.77 0 00.76.2l8.15-2.46.79.79-6.39 3.55a.73.73 0 00-.29 1c0 .05 3.93 4.2 3.93 4.2a.72.72 0 00.75.2l2.45-.74.38.38zm-2.02 21.5a.76.76 0 00-1 .3c-.32.58-.68 1.16-1.05 1.71a.76.76 0 101.25.88c.4-.59.78-1.21 1.12-1.83a.75.75 0 00-.32-1.06zm2.42-11.17a.78.78 0 00-.78.76v.12c0 .66 0 1.34-.09 2a.77.77 0 00.69.84h.08a.77.77 0 00.77-.71c.06-.71.09-1.43.09-2.14v-.11a.76.76 0 00-.76-.76zM19.39 47.2a14.64 14.64 0 01-2-.45.77.77 0 00-.5 1.45h.09c.68.2 1.38.36 2.09.51h.14a.76.76 0 00.83-.69.77.77 0 00-.65-.82zm11.83-.2a.77.77 0 00-.93-.47 14.44 14.44 0 01-1.93.51.76.76 0 10.34 1.49c.69-.15 1.39-.35 2.07-.57a.76.76 0 00.45-.96zm-17.07-1.46c-.61-.3-1.21-.63-1.78-1a.77.77 0 00-.78 1.32c.62.37 1.26.7 1.9 1a.76.76 0 00.66-1.38zm26.42-4.92a.77.77 0 00-1.07 0 19.12 19.12 0 01-1.44 1.41.76.76 0 101 1.14c.51-.48 1-1 1.53-1.5a.76.76 0 00-.02-1.05zm-4.22 3.81a.76.76 0 00-1.05-.26c-.56.36-1.15.69-1.74 1a.76.76 0 00.7 1.36c.63-.33 1.26-.69 1.86-1.07a.77.77 0 00.23-1.03z"/></svg>