<svg id="Layer_1" data-name="Layer 1" xmlns="http://www.w3.org/2000/svg" width="50" height="50"><defs><style>.cls-1{fill:#4d9b40}</style></defs><path class="cls-1" d="M34.48 25.07h-6.15a3.44 3.44 0 00-2.47-2.46v-8.72a.86.86 0 10-1.72 0v8.72a3.43 3.43 0 104.19 4.18h6.15a.86.86 0 100-1.72zM25 27.64a1.72 1.72 0 111.72-1.71A1.72 1.72 0 0125 27.64z"/><path class="cls-1" d="M43.2 8.39l3.53 3.53a.88.88 0 00.61.25.86.86 0 00.61-.25A7 7 0 0038.05 2a.87.87 0 000 1.22L42 7.18l-1.48 1.46a23.27 23.27 0 00-31 0L8 7.18l4-3.92A.87.87 0 0012 2a7 7 0 00-9.9 9.88.87.87 0 001.22 0L6.8 8.39l1.44 1.45a23.14 23.14 0 005 36.09l-2.61 2.6a.86.86 0 000 1.22.86.86 0 001.21 0l3-3a23.27 23.27 0 0020.42 0l3 3a.85.85 0 00.61.25.84.84 0 00.61-.25.86.86 0 000-1.22l-2.61-2.6a23.14 23.14 0 005-36.09zm3.53-5.13a5.25 5.25 0 01.56 6.74l-7.36-7.3a5.29 5.29 0 016.8.56zM2.71 10a5.27 5.27 0 017.36-7.3zM25 47.42a21.5 21.5 0 1121.55-21.49A21.54 21.54 0 0125 47.42z"/><path class="cls-1" d="M42.14 16A19.93 19.93 0 0035 8.83h-.05a19.84 19.84 0 00-19.74 0A19.93 19.93 0 007.86 16a19.68 19.68 0 000 19.69v.06A19.92 19.92 0 0015.05 43h.06a19.83 19.83 0 0019.7 0h.07a19.92 19.92 0 007.18-7.15v-.06a19.68 19.68 0 000-19.69zm-7.36 25.1l-.41-.71a.87.87 0 00-1.18-.32.88.88 0 00-.32 1.18l.42.71a18.06 18.06 0 01-7.43 2v-.82a.86.86 0 00-1.72 0v.82a18.06 18.06 0 01-7.43-2l.42-.71a.86.86 0 00-1.5-.86l-.41.71a18.11 18.11 0 01-5.43-5.42l.71-.41a.88.88 0 00.32-1.18.86.86 0 00-1.18-.31l-.72.41a18 18 0 01-2-7.4h.82a.86.86 0 000-1.72h-.8a17.82 17.82 0 012-7.41l.72.41a.82.82 0 00.43.12.86.86 0 00.43-1.61l-.71-.41a18.11 18.11 0 015.43-5.42l.41.71a.88.88 0 001.18.32.86.86 0 00.31-1.18l-.41-.71a18.06 18.06 0 017.43-2v.82a.86.86 0 101.72 0v-.8a18.06 18.06 0 017.43 2l-.42.71a.87.87 0 00.32 1.18.81.81 0 00.43.11.86.86 0 00.75-.43l.41-.71a18.22 18.22 0 015.43 5.42l-.71.41a.86.86 0 00.43 1.61.82.82 0 00.43-.12l.72-.41a18 18 0 012 7.4h-.82a.86.86 0 100 1.72h.82a18 18 0 01-2 7.41l-.72-.41a.86.86 0 00-1.18.31.88.88 0 00.32 1.18l.71.41a18.11 18.11 0 01-5.45 5.4z"/></svg>