<svg id="Layer_1" data-name="Layer 1" xmlns="http://www.w3.org/2000/svg" width="50" height="49.98"><defs><style>.cls-1{fill:#4d9b40}</style></defs><path class="cls-1" d="M19.71 4.69L21.66 6 21 8.66a.82.82 0 00.28.83.79.79 0 00.86.09L25 8.15l2.87 1.43a.74.74 0 00.36.09.79.79 0 00.5-.18.82.82 0 00.27-.83L28.34 6l1.95-1.3A.81.81 0 0030 3.24l-2.92-.73L25.67.35a.83.83 0 00-1.34 0l-1.44 2.16-2.89.73a.81.81 0 00-.26 1.45zM23.58 4a.8.8 0 00.48-.34L25 2.25l.94 1.41a.8.8 0 00.48.34l1.45.36L27 5a.8.8 0 00-.33.87L27 7.35l-1.66-.82a.77.77 0 00-.34-.09.9.9 0 00-.36.08L23 7.35l.38-1.52A.8.8 0 0023 5l-.9-.6zm-9.06 17.76h3.22a.8.8 0 00.81-.8v-3.23a.81.81 0 00-.81-.81h-3.22a.81.81 0 00-.81.81V21a.8.8 0 00.81.76zm.8-3.22h1.62v1.61h-1.62zm8.07 3.22h3.22a.8.8 0 00.81-.8v-3.23a.81.81 0 00-.81-.81h-3.22a.81.81 0 00-.81.81V21a.8.8 0 00.81.76zm.8-3.22h1.62v1.61h-1.62zm8.07 3.22h3.22a.8.8 0 00.81-.8v-3.23a.81.81 0 00-.81-.81h-3.22a.81.81 0 00-.81.81V21a.8.8 0 00.81.76zm.8-3.22h1.62v1.61h-1.62zm-18.54 9.67h3.22a.8.8 0 00.81-.8v-3.23a.8.8 0 00-.81-.8h-3.22a.8.8 0 00-.81.8v3.23a.8.8 0 00.81.8zm.8-3.22h1.62v1.61h-1.62zm8.07 3.22h3.22a.8.8 0 00.81-.8v-3.23a.8.8 0 00-.81-.8h-3.22a.8.8 0 00-.81.8v3.23a.8.8 0 00.81.8zm.8-3.22h1.62v1.61h-1.62zm8.07 3.22h3.22a.8.8 0 00.81-.8v-3.23a.8.8 0 00-.81-.8h-3.22a.8.8 0 00-.81.8v3.23a.8.8 0 00.81.8zm.8-3.22h1.62v1.61h-1.62zm-18.54 9.68h3.22a.81.81 0 00.81-.81v-3.23a.8.8 0 00-.81-.8h-3.22a.8.8 0 00-.81.8v3.23a.81.81 0 00.81.81zm.8-3.23h1.62v1.61h-1.62zm8.07 3.23h3.22a.81.81 0 00.81-.81v-3.23a.8.8 0 00-.81-.8h-3.22a.8.8 0 00-.81.8v3.23a.81.81 0 00.81.81zm.8-3.23h1.62v1.61h-1.62zm8.07 3.23h3.22a.81.81 0 00.81-.81v-3.23a.8.8 0 00-.81-.8h-3.22a.8.8 0 00-.81.8v3.23a.81.81 0 00.81.81zm.8-3.23h1.62v1.61h-1.62z" transform="translate(0 -.01)"/><path class="cls-1" d="M46 44.27a4.84 4.84 0 10-1.62 0v4.11h-4.86V15.31h1.61V13.7h-8.07v-2.42a.8.8 0 00-.8-.81H17.74a.8.8 0 00-.8.81v2.42H8.87v1.61h1.61v33.07H5.65v-4.11a4.84 4.84 0 10-1.62 0v4.11H0V50h50v-1.62h-4zm-4-4.77a3.23 3.23 0 114 3.12v-2l1.37-1.38-1.17-1.11-1 1-1-1-1.2 1.14 1.37 1.38v2a3.23 3.23 0 01-2.43-3.15zm-40.33 0a3.23 3.23 0 114 3.12v-2L7 39.27l-1.12-1.14-1 1-1-1-1.22 1.14L4 40.65v2a3.23 3.23 0 01-2.39-3.15zm16.88-27.41h12.9v1.61h-12.9zm-6.45 3.22h25.8v33.07h-3.22v-8.07h1.61V38.7H13.71v1.61h1.61v8.07H12.1zm17.74 33.07h-2.42v-4.84h2.42zm.81-6.46h-4a.8.8 0 00-.8.81v5.65h-1.66v-5.65a.8.8 0 00-.8-.81h-4a.8.8 0 00-.8.81v5.65h-1.65v-8.07h16.12v8.07h-1.61v-5.65a.8.8 0 00-.8-.81zm-8.07 6.46h-2.42v-4.84h2.42z" transform="translate(0 -.01)"/></svg>