<svg id="Layer_1" data-name="Layer 1" xmlns="http://www.w3.org/2000/svg" width="50" height="50"><defs><style>.cls-1{fill:#4d9b40}</style></defs><path class="cls-1" d="M8.31 44.43a1 1 0 00-.69-.29 1 1 0 00-.69.29.94.94 0 00-.29.69 1 1 0 00.29.69 1 1 0 00.69.28 1 1 0 001-1 1 1 0 00-.31-.66zm37.54-26.56a.94.94 0 00-.69-.29 1 1 0 00-.69.29 1 1 0 00-.28.69 1 1 0 00.28.69 1 1 0 00.69.28 1 1 0 00.69-.28 1 1 0 00.29-.69 1 1 0 00-.29-.69z"/><path class="cls-1" d="M49.71.29A.94.94 0 0049 0H25a1 1 0 00-1 1v2.77l-9.23 2.48a1 1 0 00-.69 1.2l4.79 17.9-4.15 4.15a2.93 2.93 0 00-2.42-1.28H2.93A2.93 2.93 0 000 31.15v15.92A2.93 2.93 0 002.93 50h9.37a2.94 2.94 0 002.85-2.22l1.16 1A4.92 4.92 0 0019.54 50H49a1 1 0 001-1V1a.94.94 0 00-.29-.71zM13.28 47.07a1 1 0 01-1 1H2.93a1 1 0 01-1-1V31.15a1 1 0 011-1h3.71v11.28a1 1 0 002 0V30.18h3.66a1 1 0 011 1v15.89zm2.94-39.19L24 5.79v3.62l-.65.18a1 1 0 00-.69 1.19A2.63 2.63 0 0120.82 14a.94.94 0 00-.59.46 1 1 0 00-.1.74l3.81 14.1H22l-1-4a1.09 1.09 0 00-.2-.3zm7.8 6v8.24l-1.78-6.6A4.41 4.41 0 0024 13.89zm14 34.16H19.54a3 3 0 01-1.95-.73l-2.36-2.06v-13.5l4.27-4.26.77 3a1 1 0 00.95.74h19.2a1.37 1.37 0 010 2.73h-9.84a1 1 0 000 2h12.89a1.37 1.37 0 110 2.73H30.58a1 1 0 000 2h10.8a1.37 1.37 0 110 2.73h-10.8a1 1 0 100 2h7.47a1.37 1.37 0 110 2.74zm10 0h-7a3.38 3.38 0 000-2.74h.3A3.32 3.32 0 0044.7 42a3.2 3.2 0 00-.35-1.48 3.33 3.33 0 002.44-3.21 3.28 3.28 0 00-.65-2V23a1 1 0 10-2 0v11.06a3.38 3.38 0 00-.72-.08 3.26 3.26 0 00.3-1.36 3.32 3.32 0 00-3.32-3.32h-1.55a4.68 4.68 0 10-3.67 0h-5.34V10.73a4.61 4.61 0 003.5-3.5h7.34a4.6 4.6 0 003.51 3.5v3a1 1 0 102 0V9.86a1 1 0 00-1-1 2.63 2.63 0 01-2.63-2.63 1 1 0 00-1-1h-9.09a1 1 0 00-1 1 2.63 2.63 0 01-2.63 2.63 1 1 0 00-1 1V29.3H26V2h22.05zM37 27.72A2.72 2.72 0 1139.73 25 2.72 2.72 0 0137 27.72z"/></svg>