<svg id="Layer_1" data-name="Layer 1" xmlns="http://www.w3.org/2000/svg" width="50" height="50"><defs><style>.cls-1{fill:#4d9b40}</style></defs><path class="cls-1" d="M28.33 31.67a8.34 8.34 0 108.34-8.33 8.33 8.33 0 00-8.34 8.33zM36.67 25A6.67 6.67 0 1130 31.67 6.67 6.67 0 0136.67 25zm-4.76 23.33h9.52V50h-9.52zM28.33 45H45v1.67H28.33zM10 45h1.67v1.67H10zm-5 1.67h1.67v1.66H5z"/><path class="cls-1" d="M10.08 40.31a62.9 62.9 0 008-24.66l7.75 7.7a.86.86 0 00.58.24h.14a.83.83 0 00.61-.45 8.12 8.12 0 00-1.53-9.4l-.63-.69h5.86a.84.84 0 00.84-.83.86.86 0 00-.05-.27 8.13 8.13 0 00-7.75-5.57h-1.09L27 2.2a.85.85 0 00-.24-1.34 8.15 8.15 0 00-9.41 1.53l-.8.79a8.19 8.19 0 00-.72.84 8.19 8.19 0 00-.72-.84l-.79-.79A8.14 8.14 0 004.92.86.85.85 0 004.54 2a1.12 1.12 0 00.16.22l4.17 4.16h-1.1A8.14 8.14 0 000 12a.84.84 0 00.57 1 1.09 1.09 0 00.26 0h5.86l-.69.73a8.14 8.14 0 00-1.53 9.4.83.83 0 00.61.45h.14a.78.78 0 00.58-.24l7.2-7.16a45.17 45.17 0 01-8.71 22 28.44 28.44 0 00-3.4-.69l-.49-.04-.17 1.66h.49c.83.12 1.66.29 2.48.48-.17.21-.33.42-.5.62L4 41.33a46.84 46.84 0 0010.9-27l1-.95.72.71A60.86 60.86 0 016 43.69l1.37 1c.66-.93 1.28-1.91 1.89-2.89a29.52 29.52 0 0110.08 7.9l1.29-1.06a31 31 0 00-5.54-5.26H50v-1.71H12.61c-.82-.5-1.67-.94-2.53-1.36zm16-19l-8.81-8.75a6.45 6.45 0 016.37 1.59l.79.8a6.45 6.45 0 011.7 6.32zm3.43-9.89h-6.9a8.12 8.12 0 00-5.16-.61 6.46 6.46 0 015.27-2.72h1.12a6.47 6.47 0 015.72 3.29zm-11.83-7l.79-.79a6.48 6.48 0 016.37-1.65L20 6.89A8.15 8.15 0 0016 10a6.31 6.31 0 011.71-5.62zm-4.59-.79l.79.79a5.9 5.9 0 011 1.27 7.72 7.72 0 00-.63 2.77 7.94 7.94 0 00-2.55-1.51l-4.94-5a6.47 6.47 0 016.37 1.65zM7.77 8.05h1.12a6.48 6.48 0 015.28 2.72 8.12 8.12 0 00-5.17.61H2.11a6.46 6.46 0 015.66-3.33zM5.54 21.27a6.45 6.45 0 011.65-6.36l.79-.8a6.44 6.44 0 016.37-1.59z"/></svg>