<svg id="Layer_1" data-name="Layer 1" xmlns="http://www.w3.org/2000/svg" width="50" height="50"><path d="M40.82 48v-5.16h2a1 1 0 001-1v-4.11a1 1 0 00-.35-.77l6.17-6.18a1 1 0 000-1.45l-3.06-3.07a1 1 0 00-.72-.3 1 1 0 00-.72.31l-2.06 2.1-1.59-1.6a1 1 0 00-1.45 0l-6.84 6.86h-3.1a1 1 0 00-1 1v2H16.84v-1.46a2 2 0 00-.28-1 2 2 0 00.28-1v-1.58a2.05 2.05 0 00-2-2.05H6.63a2.05 2.05 0 00-2 2.05v1.53a2 2 0 00.28 1 2 2 0 00-.28 1v1.58H1a1 1 0 00-1 1v4.09a1 1 0 001 1h2V48H0v2h50v-2zm-9.7-12.27h2.55a1 1 0 00.72-.3l6.43-6.44.88.89L35 36.7h-3.88v-1zM6.63 31.59h8.17v1.53H6.63zm0 3.58h8.17v1.53H6.63zM6.12 48h-1v-5.16h1zm29.59 0H8.16v-5.16h27.55V48zm3.07 0h-1v-5.16h1zm-2.05-7.16H2v-2h33.41a1 1 0 00.73-.31l7.73-7.91 2.06-2.09 1.61 1.61-6.64 6.56h-2.12v2h3.06v2h-5.11zM32.34 9.1l-1.43 1.43L32.35 12l1.43-1.44a4.47 4.47 0 001.42.6v2.14h2v-2.16a4.43 4.43 0 001.43-.6L40.09 12l1.45-1.45-1.43-1.45a4.85 4.85 0 00.59-1.43h2.16v-2H40.7a4.64 4.64 0 00-.59-1.43l1.43-1.43-1.45-1.49-1.42 1.43a4.64 4.64 0 00-1.43-.59V0h-2v2.16a4.69 4.69 0 00-1.42.59l-1.47-1.43-1.44 1.45 1.43 1.43a4.41 4.41 0 00-.59 1.43h-2.16v2h2.16a4.5 4.5 0 00.59 1.47zm3.88-5a2.56 2.56 0 11-2.55 2.56 2.56 2.56 0 012.55-2.57zM10.2 13.71a1 1 0 011 1h2a1 1 0 112 0h2a3.06 3.06 0 00-5.11-2.28 3 3 0 00-2-.79 3.07 3.07 0 00-3.06 3.07h2a1 1 0 011.17-1zm3.07 6.13h2a1 1 0 012 0h2a1 1 0 012 0h2a3.06 3.06 0 00-3.06-3.06 3 3 0 00-2 .78 3 3 0 00-2-.78 3.06 3.06 0 00-2.94 3.06z" fill="#4d9b40"/></svg>