<svg id="Layer_1" data-name="Layer 1" xmlns="http://www.w3.org/2000/svg" width="50" height="50"><defs><style>.cls-1{fill:#4d9b40}</style></defs><path class="cls-1" d="M45.25 16.35h-4.32a.74.74 0 100 1.47h4.32a.74.74 0 100-1.47zm-4.32-4.47h2a.73.73 0 100-1.46h-2a.73.73 0 100 1.46zm0-5.94h2.66a.73.73 0 100-1.46h-2.66a.73.73 0 100 1.46zm2.66 22.28h-2.66a.74.74 0 100 1.47h2.66a.74.74 0 100-1.47zm-2.66-4.47h2a.73.73 0 100-1.46h-2a.73.73 0 100 1.46z"/><path class="cls-1" d="M37.7 30.25V6.62a6.74 6.74 0 00-13.48 0v23.63A11 11 0 0019.79 39a11.17 11.17 0 0022.34 0 11 11 0 00-4.43-8.75zM31 48.54A9.62 9.62 0 0121.28 39a9.49 9.49 0 014.11-7.79.75.75 0 00.32-.6v-24a5.25 5.25 0 0110.5 0v24a.76.76 0 00.31.6A9.48 9.48 0 0140.64 39 9.62 9.62 0 0131 48.54z"/><path class="cls-1" d="M34.22 31.71V6.62a3.26 3.26 0 00-6.52 0v18.82a.74.74 0 00.74.73.74.74 0 00.75-.73V11.88h3.54V32.2a.72.72 0 00.48.68 6.46 6.46 0 11-4.51 0 .73.73 0 00.49-.68v-3.83a.75.75 0 00-.75-.74.74.74 0 00-.74.74v3.34a8 8 0 106.52 0zm-5-21.29v-3.8a1.77 1.77 0 013.54 0v3.8zM20 15.64a1 1 0 00.63-1.91 1.75 1.75 0 010-3A1 1 0 0020 8.79a1.76 1.76 0 01-1.81-2.45 1 1 0 00-1.66-1.18 1.79 1.79 0 01-2.92-.94 1.06 1.06 0 00-2.05 0 1.81 1.81 0 01-2.93.94A1 1 0 007 6.34a1.77 1.77 0 01-1.85 2.45 1 1 0 00-.64 1.91 1.75 1.75 0 010 3 1 1 0 00.64 1.91A1.77 1.77 0 017 18.09a1 1 0 001.65 1.18 1.8 1.8 0 012.93.94 1.06 1.06 0 002.05 0 1.79 1.79 0 012.92-.94 1 1 0 001.66-1.18A1.76 1.76 0 0120 15.64zm-1-1.37a3.23 3.23 0 00-2.45 3.32 3.34 3.34 0 00-4 1.27 3.32 3.32 0 00-4-1.27 3.25 3.25 0 00-2.46-3.32 3.2 3.2 0 000-4.11 3.25 3.25 0 002.5-3.32 3.33 3.33 0 004-1.27 3.33 3.33 0 004 1.27A3.24 3.24 0 0019 10.16a3.2 3.2 0 000 4.11z"/><path class="cls-1" d="M12.56 8.18a4 4 0 104.11 4 4.08 4.08 0 00-4.11-4zm0 6.61a2.58 2.58 0 112.62-2.58 2.61 2.61 0 01-2.62 2.58z"/></svg>