<svg id="Layer_1" data-name="Layer 1" xmlns="http://www.w3.org/2000/svg" width="50" height="50"><defs><style>.cls-1{fill:#4d9b40}</style></defs><path class="cls-1" d="M47.8 24.13l-8.65-8.66a4.11 4.11 0 00-.82-.62V.83A.83.83 0 0037.5 0H4.17A4.17 4.17 0 000 4.17V37.5a4.18 4.18 0 004.17 4.17h26.71A9.17 9.17 0 0040 50h9.17a.83.83 0 00.83-.83V29.43a7.43 7.43 0 00-2.2-5.3zM1.67 37.5V4.17a2.5 2.5 0 012.5-2.5h32.5V33l-5.85-5.85A4.17 4.17 0 1024.93 33l1 1 4.14 4.14a2.51 2.51 0 01.76 1.86H4.17a2.5 2.5 0 01-2.5-2.5zm24.43-5.65a2.5 2.5 0 010-3.53 2.54 2.54 0 013.53 0l.44.43-3.53 3.54zm22.23 16.48H40a7.5 7.5 0 01-7.5-7.5V40a4.17 4.17 0 00-1.22-3l-3.57-3.57 3.54-3.53 8.16 8.16a.83.83 0 001.18-1.18l-2.26-2.26V17l8.3 8.29a5.8 5.8 0 011.7 4.13z"/><path class="cls-1" d="M4.17 10A.83.83 0 005 9.17V5.83A.83.83 0 015.83 5h9.67a.83.83 0 00.83-.83.84.84 0 00-.83-.84H5.83a2.5 2.5 0 00-2.5 2.5v3.34a.84.84 0 00.84.83zM15.5 36.67H5.83a.84.84 0 01-.83-.84V32.5a.83.83 0 00-.83-.83.84.84 0 00-.84.83v3.33a2.5 2.5 0 002.5 2.5h9.67a.83.83 0 000-1.66zm13-22.5a8.34 8.34 0 10-8.33 8.33 8.33 8.33 0 008.33-8.33zm-1.72-.84h-1.64A11.71 11.71 0 0024 8.69a6.71 6.71 0 012.78 4.64zm-7.45-5.58v5.58h-2.47c.19-2.82 1.28-4.9 2.47-5.58zm0 7.25v5.58c-1.19-.68-2.28-2.76-2.47-5.58zM21 20.58V15h2.47c-.18 2.82-1.28 4.9-2.47 5.58zm0-7.25V7.75c1.19.69 2.29 2.77 2.47 5.58zm-4.63-4.64a11.71 11.71 0 00-1.18 4.64h-1.63a6.66 6.66 0 012.81-4.64zM13.56 15h1.63a11.71 11.71 0 001.18 4.64A6.64 6.64 0 0113.56 15zM24 19.64A11.71 11.71 0 0025.14 15h1.64A6.69 6.69 0 0124 19.64z"/></svg>