<svg xmlns="http://www.w3.org/2000/svg" width="32" height="32"><path d="M30.162 6.688c-2.404-3.18-6.688-4.528-10.425-3.279A7.763 7.763 0 0 0 15.91 6.2a7.744 7.744 0 0 0-3.649-2.563c-3.735-1.251-8.019.096-10.423 3.277C-.494 10.003-.184 12.918.484 14.82c.736 2.089 2.399 4.116 3.634 4.426a1.842 1.842 0 0 0 2.227-1.332 1.835 1.835 0 0 0-.97-2.095c-.311-.27-1.404-1.46-1.651-3.104-.187-1.241.156-2.413 1.044-3.588 1.444-1.909 4.104-2.752 6.326-2.011 1.98.665 3.07 2.453 3.07 5.033v15.07c0 1.016.821 1.835 1.836 1.835a1.833 1.833 0 0 0 1.836-1.835V11.924c0-2.582 1.09-4.369 3.069-5.034 2.226-.742 4.883.101 6.326 2.01.889 1.176 1.229 2.35 1.043 3.587-.248 1.646-1.34 2.836-1.649 3.104a1.836 1.836 0 0 0 1.257 3.428c1.235-.311 2.896-2.338 3.634-4.426.668-1.904.978-4.82-1.354-7.905z"/></svg>