<svg xmlns="http://www.w3.org/2000/svg" width="32" height="32"><path d="M27.955 19.752c-.087.078-7.049 6.217-14.847 6.047.944-1.231 1.53-2.756 1.53-4.428 0-4.035-3.283-7.317-7.319-7.317C3.283 14.053 0 17.336 0 21.372c0 3.6 2.614 6.582 6.04 7.189a17.777 17.777 0 007.44 1.632c9.279 0 16.985-6.836 17.392-7.204a2.18 2.18 0 00-2.917-3.237zM7.319 24.334a2.963 2.963 0 01-2.962-2.963 2.964 2.964 0 012.962-2.961 2.964 2.964 0 012.962 2.961 2.964 2.964 0 01-2.962 2.963z"/><path d="M4.045 12.247c.087-.077 7.049-6.215 14.848-6.045-.943 1.231-1.531 2.755-1.531 4.426 0 4.036 3.283 7.318 7.32 7.318 4.035 0 7.318-3.282 7.318-7.318 0-3.598-2.615-6.58-6.04-7.188a17.736 17.736 0 00-7.44-1.633c-9.279 0-16.985 6.836-17.392 7.204a2.174 2.174 0 00-.16 3.071 2.176 2.176 0 003.077.165zm20.637-4.581a2.964 2.964 0 012.961 2.962 2.964 2.964 0 01-2.961 2.962 2.964 2.964 0 01-2.963-2.962 2.965 2.965 0 012.963-2.962z"/></svg>