<svg version="1.1" id="Capa_1" xmlns="http://www.w3.org/2000/svg" x="0" y="0" width="31.998" height="31.998" xml:space="preserve"><path d="M25.262 10.757c-2.213 0-4.164 1.088-5.394 2.741-.616-1.326-1.22-3.132-1.22-5.142 0-2.469-2.002-4.129-4.982-4.129-1.527 0-3.107.462-4.193 1.345-1.33-1.016-3.258-1.586-4.825-1.586-1.246 0-2.331.337-3.136.974C.822 5.506 0 6.538 0 8.358a1.481 1.481 0 002.964 0c0-.722.203-1.23 1.195-1.375 1.762-.264 3.777.883 3.929 1.375v12.104a1.482 1.482 0 002.963 0V8.358c0-.522 1.206-1.165 2.614-1.165.649 0 1.234.142 1.604.385.294.195.413.423.413.78 0 4.285 2.095 7.705 2.873 8.828-.006.104-.031.204-.031.31 0 1.057.266 2.04.697 2.93-.908 1.381-3.453 4.526-7.861 4.621a1.483 1.483 0 00.031 2.965h.031c5.055-.107 8.215-3.201 9.738-5.205 1.141.882 2.551 1.43 4.1 1.43a6.743 6.743 0 006.738-6.736c0-3.719-3.019-6.744-6.736-6.744zm0 10.514a3.778 3.778 0 01-3.773-3.774 3.778 3.778 0 013.773-3.773 3.778 3.778 0 013.775 3.773 3.78 3.78 0 01-3.775 3.774z"/></svg>