<svg xmlns="http://www.w3.org/2000/svg" width="32.001" height="32.001"><path d="M29.824 14.867h-7.59c.701-6.977 4.605-9.606 4.834-9.754a2.177 2.177 0 00.719-2.979 2.18 2.18 0 00-2.989-.732c-.269.161-6.146 3.85-6.937 13.465H12.96C12.167 5.252 6.291 1.564 6.023 1.402a2.169 2.169 0 00-2.966.72 2.183 2.183 0 00.69 2.989c.183.119 4.132 2.736 4.835 9.756H2.176a2.176 2.176 0 100 4.353h6.393c-.73 6.222-4.487 7.361-4.634 7.4a2.177 2.177 0 001.016 4.232c.308-.076 7.113-1.829 8.003-11.636h4.914c.889 9.807 7.694 11.56 8.004 11.636.17.039.34.061.505.061.967 0 1.836-.656 2.089-1.637.298-1.148-.399-2.329-1.545-2.646-.176-.049-3.937-1.188-4.667-7.41h7.571a2.176 2.176 0 10-.001-4.353z"/></svg>