<svg xmlns="http://www.w3.org/2000/svg" width="31.997" height="31.997"><path d="M31.455 21.75l-4.507-3.229a1.3 1.3 0 00-2.061 1.055v1.984c-.863-.207-2.01-.649-2.01-1.333V8.198c0-2.904-3.006-4.252-4.902-4.252a4.692 4.692 0 00-3.338 1.355 4.918 4.918 0 00-3.367-1.355 4.686 4.686 0 00-3.33 1.351c-.007.005-.013.015-.02.021-.898-.75-2.02-1.156-3.12-1.156-1.27 0-2.453.479-3.331 1.351C.799 6.177 0 7.383 0 9.343c0 .895.724 1.617 1.618 1.617s1.617-.724 1.617-1.617c0-1.806 1.198-1.945 1.565-1.945.77 0 1.669.509 1.669 1.945v13.685a1.617 1.617 0 003.234 0v-13.9c0-1.806 1.199-1.946 1.566-1.946 2.192 0 1.903 2.105 1.903 2.734v13.112a1.617 1.617 0 003.235 0v-13.9c0-1.806 1.196-1.946 1.565-1.946.77 0 1.668.51 1.668 1.946v11.104c0 3.082 3.139 4.321 5.242 4.622v1.893a1.308 1.308 0 001.303 1.305 1.3 1.3 0 00.857-.321l4.507-3.937c.302-.262.466-.646.445-1.045a1.28 1.28 0 00-.539-.999z"/></svg>