<svg xmlns="http://www.w3.org/2000/svg" width="32.001" height="32"><path d="M31.983 2.058a2.095 2.095 0 00-.146-.718 2.089 2.089 0 00-.439-.664l-.01-.017a2.088 2.088 0 00-.68-.453 2.074 2.074 0 00-.798-.163H18.747a2.094 2.094 0 000 4.186h6.099l-9.998 9.967-3.593-3.729a2.094 2.094 0 00-3.015 2.906l3.642 3.777L.615 28.383a2.093 2.093 0 002.955 2.963l11.215-11.181 4.11 4.265c.41.426.957.641 1.508.641a2.095 2.095 0 001.507-3.545l-4.158-4.315 10.062-10.03v5.944a2.094 2.094 0 004.188 0V2.136c-.002-.029-.017-.051-.019-.078z"/></svg>