<?xml version="1.0" encoding="iso-8859-1"?>
<!-- Generator: Adobe Illustrator 19.0.0, SVG Export Plug-In . SVG Version: 6.00 Build 0)  -->
<svg version="1.1" id="Layer_1" xmlns="http://www.w3.org/2000/svg" xmlns:xlink="http://www.w3.org/1999/xlink" x="0px" y="0px"
	 viewBox="0 0 512.002 512.002" style="enable-background:new 0 0 512.002 512.002;" xml:space="preserve">
<g>
	<g>
		<path d="M422,0.001H90c-49.626,0-90,40.374-90,90s40.374,90,90,90c3.464,0,6.891-0.198,10.27-0.584
			c2.252-0.258,4.483-0.599,6.688-1.021c10.364-1.984,20.157-5.768,29.017-11.034c16.587-9.859,29.881-24.945,37.379-43.361h165.294
			c7.497,18.416,20.792,33.502,37.379,43.361c8.86,5.266,18.653,9.05,29.017,11.034c2.205,0.422,4.435,0.763,6.688,1.021
			c3.378,0.386,6.806,0.584,10.27,0.584c49.626,0,90-40.374,90-90C512.002,40.375,471.626,0.001,422,0.001z M422,150.001
			c-27.294,0-51.167-18.418-58.053-44.79l-2.926-11.21H150.979l-2.927,11.21c-6.885,26.372-30.758,44.79-58.052,44.79
			c-33.084,0-60-26.916-60-60s26.916-60,60-60h332c33.084,0,60,26.916,60,60S455.084,150.001,422,150.001z"/>
	</g>
</g>
<g>
	<g>
		<path d="M422,48.001H90c-23.159,0-42,18.841-42,42s18.841,42,42,42s42-18.841,42-42h-30c0,6.617-5.383,12-12,12s-12-5.383-12-12
			s5.383-12,12-12h332c6.617,0,12,5.383,12,12s-5.383,12-12,12s-12-5.383-12-12h-30c0,23.159,18.841,42,42,42s42-18.841,42-42
			S445.159,48.001,422,48.001z"/>
	</g>
</g>
<g>
	<g>
		<path d="M422,200.001c-24.055,0-47.301-7.12-67.224-20.591c-13.894-9.394-25.526-21.432-34.326-35.409H191.551
			c-8.8,13.977-20.432,26.015-34.326,35.409c-19.924,13.471-43.17,20.591-67.225,20.591c-1.339,0-2.671-0.03-4-0.074v312.074h340
			V199.927C424.671,199.971,423.339,200.001,422,200.001z M191,432.001h-30v-236h30V432.001z M271,432.001h-30v-236h30V432.001z
			 M351,432.001h-30v-236h30V432.001z"/>
	</g>
</g>
<g>
</g>
<g>
</g>
<g>
</g>
<g>
</g>
<g>
</g>
<g>
</g>
<g>
</g>
<g>
</g>
<g>
</g>
<g>
</g>
<g>
</g>
<g>
</g>
<g>
</g>
<g>
</g>
<g>
</g>
</svg>
