<?xml version="1.0" encoding="iso-8859-1"?>
<!-- Generator: Adobe Illustrator 19.0.0, SVG Export Plug-In . SVG Version: 6.00 Build 0)  -->
<svg version="1.1" id="Layer_1" xmlns="http://www.w3.org/2000/svg" xmlns:xlink="http://www.w3.org/1999/xlink" x="0px" y="0px"
	 viewBox="0 0 512 512" style="enable-background:new 0 0 512 512;" xml:space="preserve">
<g>
	<g>
		<path d="M116.869,389.566c-27.619,0-50.087,22.468-50.087,50.087s22.468,50.087,50.087,50.087s50.087-22.468,50.087-50.087
			S144.489,389.566,116.869,389.566z"/>
	</g>
</g>
<g>
	<g>
		<path d="M250.434,389.566c-27.619,0-50.087,22.468-50.087,50.087s22.468,50.087,50.087,50.087
			c27.619,0,50.087-22.468,50.087-50.087S278.054,389.566,250.434,389.566z"/>
	</g>
</g>
<g>
	<g>
		<path d="M395.13,389.566c-27.619,0-50.087,22.468-50.087,50.087s22.468,50.087,50.087,50.087s50.087-22.468,50.087-50.087
			S422.75,389.566,395.13,389.566z"/>
	</g>
</g>
<g>
	<g>
		<path d="M298.033,30.173c-3.043-4.913-8.424-7.913-14.207-7.913H16.695c-5.782,0-11.163,3-14.206,7.913
			c-3.033,4.924-3.316,11.076-0.728,16.25l21.309,42.62h254.381l21.309-42.62C301.347,41.25,301.064,35.097,298.033,30.173z"/>
	</g>
</g>
<g>
	<g>
		<path d="M461.913,89.043c-64.205,0-69.361,0-133.566,0c-9.217,0-16.696,7.479-16.696,16.696c0,9.217,7.479,16.696,16.696,16.696
			h16.696v33.391h100.174v-33.391h16.696c9.217,0,16.696-7.479,16.696-16.696C478.609,96.522,471.13,89.043,461.913,89.043z"/>
	</g>
</g>
<g>
	<g>
		<path d="M478.108,201.858c-1.859-7.424-8.533-12.641-16.196-12.641H267.129v-66.783H33.39v166.957h466.601L478.108,201.858z
			 M200.347,239.304c0,9.217-7.479,16.696-16.696,16.696h-66.783c-9.217,0-16.696-7.479-16.696-16.696v-66.783
			c0-9.217,7.479-16.696,16.696-16.696h66.783c9.217,0,16.696,7.479,16.696,16.696V239.304z M417.391,256h-44.522
			c-9.217,0-16.696-7.479-16.696-16.696s7.479-16.696,16.696-16.696h44.522c9.217,0,16.696,7.479,16.696,16.696
			S426.608,256,417.391,256z"/>
	</g>
</g>
<g>
	<g>
		<path d="M495.304,322.783H50.086c-9.22,0-16.696,7.475-16.696,16.696v82.539c0,0.519,0.421,0.939,0.939,0.939
			c0.441,0,0.818-0.309,0.91-0.741c8.04-37.688,41.577-66.042,81.629-66.042c27.323,0,51.545,13.252,66.783,33.602
			c15.238-20.351,39.46-33.602,66.783-33.602c30.933,0,57.926,16.949,72.348,42.009c14.422-25.059,41.415-42.009,72.348-42.009
			c46.032,0,83.478,37.446,83.478,83.478c0,5.717-0.583,11.3-1.682,16.696h18.378c9.22,0,16.696-7.475,16.696-16.696V339.478
			C512,330.257,504.526,322.783,495.304,322.783z"/>
	</g>
</g>
<g>
</g>
<g>
</g>
<g>
</g>
<g>
</g>
<g>
</g>
<g>
</g>
<g>
</g>
<g>
</g>
<g>
</g>
<g>
</g>
<g>
</g>
<g>
</g>
<g>
</g>
<g>
</g>
<g>
</g>
</svg>
