<?xml version="1.0" encoding="utf-8"?>
<!-- Svg Vector Icons : http://www.onlinewebfonts.com/icon -->
<!DOCTYPE svg PUBLIC "-//W3C//DTD SVG 1.1//EN" "http://www.w3.org/Graphics/SVG/1.1/DTD/svg11.dtd">
<svg version="1.1" xmlns="http://www.w3.org/2000/svg" xmlns:xlink="http://www.w3.org/1999/xlink" x="0px" y="0px" viewBox="0 0 1000 1000" enable-background="new 0 0 1000 1000" xml:space="preserve">
<metadata> Svg Vector Icons : http://www.onlinewebfonts.com/icon </metadata>
<g><g transform="translate(0.000000,511.000000) scale(0.100000,-0.100000)"><path d="M7418.6,4975.1c-107.2-55.5-136-189.6-59.4-281.5c30.6-38.3,101.5-72.8,266.2-130.2c748.6-254.7,1185.2-614.6,1325-1089.5c38.3-134,40.2-417.4,1.9-564.8c-74.7-289.1-197.2-490.2-440.4-731.4c-237.4-235.5-417.4-337-679.7-382.9c-197.2-34.5-252.7-76.6-256.6-199.1c-1.9-67,7.7-88.1,61.3-135.9c53.6-47.9,76.6-55.5,172.3-55.5c201,0,490.2,103.4,706.5,252.7c147.4,99.6,415.5,369.5,520.8,522.7c233.6,337,331.2,633.8,335.1,1011c1.9,243.2,1.9,243.2,32.5,170.4c61.3-143.6,95.7-352.3,95.7-578.2c-1.9-827.2-488.3-1533.7-1334.5-1937.7c-105.3-49.8-260.4-109.1-342.7-130.2c-189.6-47.9-233.6-76.6-258.5-172.3c-23-88.1,9.6-174.2,82.3-212.5c153.2-84.2,675.9,105.3,1104.8,400.2c612.7,419.3,959.3,928.6,1104.8,1612.2c24.9,116.8,34.5,247,32.5,459.5c0,337-38.3,530.4-153.2,781.2c-287.2,626.1-968.8,1120.1-1859.2,1344.1C7573.6,5003.8,7491.3,5011.5,7418.6,4975.1z"/><path d="M2336.9,4389.2C939.2,4228.4,46.9,3439.5,102.5,2419c21.1-350.4,135.9-698.9,321.7-968.8c88.1-128.3,350.4-386.8,503.6-494c323.6-229.8,819.5-428.9,1332.6-536.1c172.3-36.4,528.5-88.1,605-88.1c49.8,0,44-7.7-67-78.5C2283.3-77.8,1329.8-525.8,575.4-792C203.9-924.1,179-937.5,140.7-1019.9c-28.7-59.3-30.6-90-9.6-291C213.5-2134.2,696-2789,1460-3118.4c616.5-266.1,1378.6-275.7,1962.6-28.7c164.7,70.9,635.7,367.6,1097.1,693.1C6323.3-1184.5,7271.1,88.8,7345.8,1342.9c40.2,677.8-237.4,1342.2-764,1836.2c-130.2,122.5-495.9,402.1-584,448c-26.8,15.3-126.4,67-220.2,118.7c-505.5,271.9-1166.1,480.6-1861.1,587.8C3472.3,4402.6,2696.9,4429.4,2336.9,4389.2z M3256,4006.2c639.5-40.2,1369-183.8,1656.2-327.4c367.6-183.8,641.4-492.1,727.6-819.5c17.2-61.3,28.7-191.5,28.7-308.3c0-360-130.2-735.2-390.6-1125.8C4575.2,372.1,3181.3-558.4,1427.4-1146.2c-220.2-74.7-425.1-145.5-451.9-160.8c-204.9-105.3-49.8-564.8,294.9-869.3c344.6-306.3,731.4-459.5,1154.6-459.5c584,0,976.5,204.9,1252.2,656.7l103.4,168.5l181.9,91.9c777.4,392.5,1524.1,1053.1,2083.2,1840c448,633.8,727.6,1300.1,765.9,1822.8c5.7,91.9,17.2,168.5,24.9,168.5c7.7,0,34.5-70.8,57.4-157c59.4-216.4,72.8-607,30.6-852C6740.7,42.8,5840.8-1054.3,4232.5-2176.3c-434.6-304.4-888.4-584-1030.1-637.6c-415.5-153.2-1018.6-155.1-1445.6,0c-689.3,247-1154.6,806.1-1229.2,1476.2l-13.4,109.2l218.3,74.7c518.9,180,1238.8,499.7,1784.5,796.5c852,459.5,1529.8,943.9,2043,1455.2c384.9,384.9,612.7,710.4,731.4,1049.3c74.7,214.5,93.8,509.3,42.1,685.5c-97.6,338.9-340.8,591.6-764,794.6c-677.8,323.6-1989.4,413.6-2726.5,185.7c-771.6-235.5-1148.8-892.2-859.7-1495.4c225.9-472.9,848.2-779.3,1899.4-930.5c241.3-36.4,876.9-90,1194.8-103.4l122.5-3.8l-180-155.1c-99.6-86.2-262.3-218.3-361.9-294.9L3476.2,690l-268.1,11.5C1990.4,753.2,1067.5,1143.8,688.3,1766c-118.7,195.3-174.2,398.3-185.7,662.5c-9.6,281.5,11.5,402.1,113,601.2c222.1,446.1,765.9,786.9,1466.7,921C2465.2,4023.5,2765.8,4038.8,3256,4006.2z M3380.4,3519.9c654.8-72.8,999.5-183.8,1313.5-425.1c176.1-132.1,285.3-337,285.3-532.3c0-193.4-111-463.4-300.6-735.2l-111-158.9l-411.7,11.5c-1432.2,42.1-2316.8,252.7-2701.6,645.3c-124.5,124.5-170.4,235.5-170.4,402.1c0,413.6,427,721.8,1106.7,802.3C2608.8,3554.4,3118.1,3550.6,3380.4,3519.9z M6114.6,3031.7c264.2-283.4,369.5-704.6,292.9-1169.9c-49.8-291-145.5-568.7-317.8-911.4C5611.1,0.7,4670.9-937.5,3744.2-1391.3c-128.3-63.2-245.1-128.3-262.3-147.4c-15.3-19.2-55.5-86.2-90-149.3c-134-256.6-310.2-423.2-528.5-497.8c-158.9-53.6-430.8-78.5-605-51.7c-266.1,38.3-553.3,183.8-758.2,382.9c-126.4,124.5-210.6,250.8-172.3,260.4c11.5,3.9,174.2,59.4,358.1,122.5C2993.7-1019.9,4123.3-365,4929.4,410.4c695,668.2,1095.2,1390.1,1135.4,2044.9c11.5,208.7-13.4,407.8-76.6,597.4C5934.6,3209.7,5953.8,3207.8,6114.6,3031.7z"/><path d="M6051.4-1722.5c-143.6-49.8-164.7-210.6-44-331.3c84.2-86.2,415.5-245.1,608.9-294.9c503.6-130.2,1068.4-80.4,1508.8,132.1l151.3,72.8l145.5-72.8c371.5-183.8,924.8-256.6,1258-166.6c113,30.6,220.2,126.4,220.2,199.1c0,68.9-46,147.4-103.4,178c-47.9,26.8-61.3,26.8-335.1-15.3c-289.1-42.1-788.8,72.7-1005.2,233.6c-139.8,103.4-210.6,105.3-346.6,13.4c-248.9-168.5-545.7-250.8-909.5-250.8c-348.5-1.9-635.7,72.8-882.7,227.9C6166.3-1703.4,6135.7-1693.8,6051.4-1722.5z"/><path d="M5917.4-2970.9c-287.2-174.2-497.8-227.9-890.3-225.9c-292.9,0-291,0-652.9,103.4c-91.9,26.8-164.7,13.4-218.3-44c-76.6-82.3-72.8-195.3,7.7-271.9c103.4-95.7,526.5-185.7,876.9-185.7c340.8,0,624.2,59.4,915.2,195.3l166.6,78.5l122.5-61.3c281.5-143.6,490.2-191.5,869.3-204.9c423.1-13.4,691.2,38.3,1020.5,199.1l137.9,67l139.8-67c283.4-139.8,574.4-204.9,907.6-206.8c386.8,0,580.2,86.2,580.2,258.5c0,63.2-118.7,183.8-181.9,183.8c-24.9,0-99.6-13.4-166.6-30.6c-291-76.6-821.4,32.5-1099,222.1c-47.9,34.5-120.6,65.1-162.8,70.8c-63.2,9.6-91.9,0-193.4-67c-155.1-99.6-273.8-151.3-465.3-197.2c-484.4-114.9-1005.2-32.6-1376.7,220.2C6149.1-2863.7,6085.9-2871.4,5917.4-2970.9z"/><path d="M920-3200.7c-90-17.2-250.8-24.9-425.1-23c-271.9,3.8-281.5,1.9-329.3-42.1c-101.5-95.7-70.8-264.2,61.3-319.7c93.8-38.3,593.6-38.3,798.4,1.9c225.9,44,298.7,113,270,264.2C1272.3-3193,1159.4-3156.7,920-3200.7z"/><path d="M1741.4-4070c-26.8-9.6-86.2-42.1-130.2-74.7c-46-32.5-149.4-86.2-229.8-116.8c-235.5-90-404-116.8-762.1-116.8c-287.2-1.9-325.5-5.7-365.7-38.3c-99.6-82.3-93.8-227.9,11.5-298.7c47.9-32.6,103.4-44.1,262.3-55.5c423.1-28.7,880.8,59.3,1171.8,222.1l99.6,57.4l130.2-67c555.3-281.4,1282.9-289.1,1857.3-19.2l178.1,82.4l82.3-46c528.5-296.8,1338.4-310.2,1916.6-30.6l151.3,72.8l174.2-80.4c566.8-264.2,1290.5-260.4,1836.2,11.5l149.3,72.8l147.4-72.8c271.9-137.9,547.6-199.1,903.7-201.1c285.3-1.9,434.6,34.5,520.8,126.4c59.3,63.2,67,124.5,26.8,202.9c-40.2,78.5-105.3,105.3-214.4,91.9c-243.2-32.5-507.4-34.5-664.4-1.9c-204.9,42.1-409.8,122.5-541.9,212.5c-139.8,97.7-216.4,97.7-358.1,0c-224-155.1-551.4-241.3-907.6-241.3c-360,1.9-595.5,68.9-963.1,277.6c-101.5,57.4-160.8,51.7-283.4-32.6c-220.2-151.3-472.9-224-819.5-239.3c-388.7-17.2-670.2,49.8-965,224c-191.5,114.9-208.7,114.9-407.8-5.7c-264.2-158.9-509.3-222.1-861.6-224c-352.3,0-647.2,76.6-884.6,229.8C1873.5-4066.2,1814.2-4048.9,1741.4-4070z"/></g></g>
</svg>