<svg id="Capa_1" data-name="Capa 1" xmlns="http://www.w3.org/2000/svg" width="110" height="110" viewBox="0 0 110 110"><defs><style>.cls-1{fill:#ff8000;}</style></defs><title>i-agway1</title><path class="cls-1" d="M82.49,0h-66A12.75,12.75,0,0,0,3.66,12.64V77.5A12.75,12.75,0,0,0,16.49,90.14H36.66V86.53H16.49a9.12,9.12,0,0,1-9.17-9V47H19.1a2,2,0,0,0,1.82-2.08,1.81,1.81,0,0,0-.14-.6,7.18,7.18,0,0,1,3.76-9.52,7.38,7.38,0,0,1,9.66,3.71,7.09,7.09,0,0,1,0,5.81,1.87,1.87,0,0,0,.9,2.5,1.93,1.93,0,0,0,.78.18H47.66V57.79a9.46,9.46,0,0,0-1.84-.15,10.81,10.81,0,0,0-4.4,20.76l1.47-3.31a7.18,7.18,0,0,1-3.8-9.5,7.33,7.33,0,0,1,6.73-4.34,7.41,7.41,0,0,1,2.94.61,1.81,1.81,0,0,0,2.56-1.66V47h9.33a10,10,0,0,0-.16,1.81,10.93,10.93,0,0,0,8.8,10.62L70,55.84a7.28,7.28,0,0,1-5.86-7.08,7,7,0,0,1,.62-2.89,1.8,1.8,0,0,0-1-2.38,1.83,1.83,0,0,0-.73-.15H51.32V34.16a11.32,11.32,0,0,0,1.84.15,10.84,10.84,0,1,0,0-21.67,11.32,11.32,0,0,0-1.84.15V3.61H82.49a9.12,9.12,0,0,1,9.17,9v30.7H79.88a1.81,1.81,0,0,0-1.68,2.53,7,7,0,0,1,.62,2.89h3.67A11,11,0,0,0,82.34,47H93.49a1.82,1.82,0,0,0,1.83-1.8V12.64A12.74,12.74,0,0,0,82.49,0ZM53.16,16.25a7.23,7.23,0,1,1,0,14.45,7.44,7.44,0,0,1-2.94-.61,1.85,1.85,0,0,0-2.41.93,1.79,1.79,0,0,0-.15.72V43.19H38.35a10.24,10.24,0,0,0,.14-1.66v-.15a11,11,0,0,0-22,0v.15a10.24,10.24,0,0,0,.14,1.66H7.32V12.64a9.12,9.12,0,0,1,9.17-9H47.66v11.6A1.81,1.81,0,0,0,49.49,17a1.83,1.83,0,0,0,.73-.15A7.44,7.44,0,0,1,53.16,16.25Z" transform="translate(-3.66)"/><path class="cls-1" d="M109.74,77.62,94.32,67.16,88.4,51.58a1.83,1.83,0,0,0-2.35-1.06l-.1,0L74,55.75a1.8,1.8,0,0,0-1,2.3,12.27,12.27,0,0,0,.58,1.29c.19.39.37.77.6,1.35A7.24,7.24,0,0,1,70,70a7.36,7.36,0,0,1-9.44-4.23,7,7,0,0,1-.45-2.94A1.82,1.82,0,0,0,58.32,61a1.71,1.71,0,0,0-.74.11L44.84,65.81a1.8,1.8,0,0,0-1.07,2.32l4.57,12a11.15,11.15,0,0,0-1.78.48,10.83,10.83,0,0,0-6.48,14A11.07,11.07,0,0,0,54.26,101a10.5,10.5,0,0,0,1.7-.79l3.28,8.63a1.84,1.84,0,0,0,2.36,1h0l18.17-6.74a9.81,9.81,0,0,0,5.8,5.11l1.16-3.43a6.18,6.18,0,0,1-3.51-2.95l5.53-2.05a12.78,12.78,0,0,0,12.07,8.38v-3.61a9.15,9.15,0,0,1-9.16-9,1.82,1.82,0,0,0-.54-1.28L84.74,88a2.68,2.68,0,0,1,3.82-3.76l12.8,12.6L104,94.28l-3.78-3.73a12.42,12.42,0,0,0-.17-8.44l-3.43-9,11.08,7.51A5.44,5.44,0,0,1,110,85v23.33h3.67V85A9,9,0,0,0,109.74,77.62ZM96.57,83.37a8.81,8.81,0,0,1,.53,4.16l-5.95-5.86a6.44,6.44,0,0,0-9-.11A6.22,6.22,0,0,0,82,90.44l.11.11,5.8,5.71L62,105.87l-3.49-9.2a1.81,1.81,0,0,0-1.32-1.12,1.75,1.75,0,0,0-.4,0,1.86,1.86,0,0,0-1.28.52,7.42,7.42,0,0,1-10.37-.29,7.14,7.14,0,0,1,.3-10.21A7.24,7.24,0,0,1,47.86,84a7.16,7.16,0,0,1,1.82-.41,6.29,6.29,0,0,1,1.15,0,1.82,1.82,0,0,0,1.92-1.71,1.65,1.65,0,0,0-.11-.73L47.85,68.56l8.73-3.24a11.1,11.1,0,0,0,14.67,8.1,10.85,10.85,0,0,0,6.43-14c-.17-.44-.32-.79-.47-1.11l8.43-3.67Z" transform="translate(-3.66)"/></svg>