<svg id="Layer_1" data-name="Layer 1" xmlns="http://www.w3.org/2000/svg" width="110" height="110" viewBox="0 0 110 110"><defs><style>.cls-1{fill:#ff8000;}</style></defs><title>i-agway2</title><g id="Outline"><path class="cls-1" d="M25.17,60a5.5,5.5,0,0,1,5.5-5.5H50.83V50.83H30.67A9.19,9.19,0,0,0,21.5,60V71h3.67Z" transform="translate(-16 -16)"/><path class="cls-1" d="M68.25,32.5a6.42,6.42,0,1,0,6.42,6.42A6.42,6.42,0,0,0,68.25,32.5Zm0,9.17A2.75,2.75,0,1,1,71,38.92,2.75,2.75,0,0,1,68.25,41.67Z" transform="translate(-16 -16)"/><path class="cls-1" d="M124.17,16H85.36a11.08,11.08,0,0,0-9.44,5.34l-2.29,3.83H60a5.5,5.5,0,0,0-5.5,5.5v33a5.51,5.51,0,0,0,5.5,5.5H71V76.5a1.83,1.83,0,0,0,1.83,1.83A1.87,1.87,0,0,0,74,77.91L84.5,69.17h25a5.51,5.51,0,0,0,5.5-5.5v-26a19.62,19.62,0,0,0,10.21-5.42l.25-.26a1.8,1.8,0,0,0,.54-1.29V17.83A1.83,1.83,0,0,0,124.17,16ZM111.33,63.67a1.83,1.83,0,0,1-1.83,1.83H83.83a1.84,1.84,0,0,0-1.17.42l-8,6.67V67.33a1.83,1.83,0,0,0-1.84-1.83H60a1.83,1.83,0,0,1-1.83-1.83V61l16.44-9.87L90.15,61.53a1.86,1.86,0,0,0,1.84.11l10-5,9.3,6.19Zm0-5.26L103.18,53a1.84,1.84,0,0,0-1.83-.11l-10,5L75.68,47.47a1.83,1.83,0,0,0-2,0L58.17,56.76V30.67A1.83,1.83,0,0,1,60,28.83H88.57l-6,6a6.37,6.37,0,0,0,9,9l9-9A19.71,19.71,0,0,0,111.25,38h.08Zm11-28.51a16.07,16.07,0,0,1-20,1.74l-1-.67A1.84,1.84,0,0,0,99,31.2L89,41.25a2.7,2.7,0,0,1-4.08-3.53,3.47,3.47,0,0,1,.25-.29L94.3,28.3,98,24.63,95.37,22l-3.13,3.13H77.9l1.17-1.94a7.33,7.33,0,0,1,6.29-3.56h37Z" transform="translate(-16 -16)"/><path class="cls-1" d="M120.5,74.67h-33a5.5,5.5,0,0,0-5.5,5.5V90.41L75.2,97.2a1.83,1.83,0,0,0,1.3,3.13H82v1.84a5.51,5.51,0,0,0,5.5,5.5h33a5.51,5.51,0,0,0,5.5-5.5v-22a5.5,5.5,0,0,0-5.5-5.5Zm1.83,27.5A1.83,1.83,0,0,1,120.5,104h-33a1.83,1.83,0,0,1-1.83-1.83V98.5a1.83,1.83,0,0,0-1.84-1.83h-2.9l4.2-4.21a1.84,1.84,0,0,0,.54-1.29v-11a1.83,1.83,0,0,1,1.83-1.84h33a1.83,1.83,0,0,1,1.83,1.84Z" transform="translate(-16 -16)"/><path class="cls-1" d="M89.33,82h18.34v3.67H89.33Z" transform="translate(-16 -16)"/><path class="cls-1" d="M111.33,82h7.34v3.67h-7.34Z" transform="translate(-16 -16)"/><path class="cls-1" d="M89.33,96.67h29.34v3.66H89.33Z" transform="translate(-16 -16)"/><path class="cls-1" d="M89.33,89.33h29.34V93H89.33Z" transform="translate(-16 -16)"/><path class="cls-1" d="M28.83,58.17H32.5v3.66H28.83Z" transform="translate(-16 -16)"/><path class="cls-1" d="M36.17,58.17h3.66v3.66H36.17Z" transform="translate(-16 -16)"/><path class="cls-1" d="M43.5,58.17h3.67v3.66H43.5Z" transform="translate(-16 -16)"/><path class="cls-1" d="M28.83,65.5h22v3.67h-22Z" transform="translate(-16 -16)"/><path class="cls-1" d="M21.5,107.67h33a5.51,5.51,0,0,0,5.5-5.5V94.83h5.5A1.83,1.83,0,0,0,67.33,93a1.86,1.86,0,0,0-.53-1.3L60,84.91V80.17a5.5,5.5,0,0,0-5.5-5.5h-33a5.5,5.5,0,0,0-5.5,5.5v22a5.51,5.51,0,0,0,5.5,5.5Zm-1.83-27.5a1.83,1.83,0,0,1,1.83-1.84h33a1.83,1.83,0,0,1,1.83,1.84v5.5A1.84,1.84,0,0,0,56.87,87l4.2,4.21h-2.9A1.83,1.83,0,0,0,56.33,93v9.17A1.83,1.83,0,0,1,54.5,104h-33a1.83,1.83,0,0,1-1.83-1.83Z" transform="translate(-16 -16)"/><path class="cls-1" d="M23.33,82H27v3.67H23.33Z" transform="translate(-16 -16)"/><path class="cls-1" d="M23.33,89.33H27V93H23.33Z" transform="translate(-16 -16)"/><path class="cls-1" d="M23.33,96.67H27v3.66H23.33Z" transform="translate(-16 -16)"/><path class="cls-1" d="M30.67,82h22v3.67h-22Z" transform="translate(-16 -16)"/><path class="cls-1" d="M30.67,89.33h22V93h-22Z" transform="translate(-16 -16)"/><path class="cls-1" d="M30.67,96.67h22v3.66h-22Z" transform="translate(-16 -16)"/><path class="cls-1" d="M109.5,111.33H77.26a8.06,8.06,0,0,0-5.72,2.37,4.4,4.4,0,0,1-3.13,1.3H58.93a4.36,4.36,0,0,1-3.13-1.3,8.1,8.1,0,0,0-5.73-2.37H17.83A1.83,1.83,0,0,0,16,113.17v5.5A7.34,7.34,0,0,0,23.33,126H104a7.33,7.33,0,0,0,7.33-7.33v-5.5A1.83,1.83,0,0,0,109.5,111.33Zm-1.83,7.34a3.68,3.68,0,0,1-3.67,3.66H23.33a3.66,3.66,0,0,1-3.66-3.66V115h30.4a4.36,4.36,0,0,1,3.13,1.3,8.1,8.1,0,0,0,5.73,2.37h9.48a8.07,8.07,0,0,0,5.72-2.37,4.38,4.38,0,0,1,3.13-1.3h30.41Z" transform="translate(-16 -16)"/></g></svg>