<?xml version="1.0" encoding="utf-8"?>
<!-- Generator: Adobe Illustrator 21.0.0, SVG Export Plug-In . SVG Version: 6.00 Build 0)  -->
<svg version="1.1" id="i-calendar-y" xmlns="http://www.w3.org/2000/svg" xmlns:xlink="http://www.w3.org/1999/xlink" x="0px"
	 y="0px" width="22px" height="22px" viewBox="0 0 22 22" style="enable-background:new 0 0 22 22;" xml:space="preserve">
<style type="text/css">
	.st0{fill:none;stroke:#FF8000;stroke-miterlimit:10;}
</style>
<g>
	<g>
		<line class="st0" x1="17" y1="2.5" x2="6" y2="2.5"/>
		<polyline class="st0" points="4,2.5 1.5,2.5 1.5,6.5 20.5,6.5 20.5,2.5 18,2.5 		"/>
		<g>
			<line class="st0" x1="6" y1="8.5" x2="5" y2="8.5"/>
			<line class="st0" x1="8" y1="8.5" x2="7" y2="8.5"/>
			<line class="st0" x1="10" y1="8.5" x2="9" y2="8.5"/>
			<line class="st0" x1="12" y1="8.5" x2="11" y2="8.5"/>
			<line class="st0" x1="14" y1="8.5" x2="13" y2="8.5"/>
			<line class="st0" x1="16" y1="8.5" x2="15" y2="8.5"/>
			<line class="st0" x1="18" y1="8.5" x2="17" y2="8.5"/>
		</g>
		<g>
			<line class="st0" x1="6" y1="10.5" x2="5" y2="10.5"/>
			<line class="st0" x1="8" y1="10.5" x2="7" y2="10.5"/>
			<line class="st0" x1="10" y1="10.5" x2="9" y2="10.5"/>
			<line class="st0" x1="12" y1="10.5" x2="11" y2="10.5"/>
			<line class="st0" x1="14" y1="10.5" x2="13" y2="10.5"/>
			<line class="st0" x1="16" y1="10.5" x2="15" y2="10.5"/>
			<line class="st0" x1="18" y1="10.5" x2="17" y2="10.5"/>
		</g>
		<g>
			<line class="st0" x1="6" y1="12.5" x2="5" y2="12.5"/>
			<line class="st0" x1="8" y1="12.5" x2="7" y2="12.5"/>
			<line class="st0" x1="10" y1="12.5" x2="9" y2="12.5"/>
			<line class="st0" x1="12" y1="12.5" x2="11" y2="12.5"/>
		</g>
		<g>
			<line class="st0" x1="6" y1="14.5" x2="5" y2="14.5"/>
			<line class="st0" x1="8" y1="14.5" x2="7" y2="14.5"/>
			<line class="st0" x1="10" y1="14.5" x2="9" y2="14.5"/>
		</g>
		<line class="st0" x1="20.5" y1="12" x2="20.5" y2="6"/>
		<polyline class="st0" points="2.5,6 2.5,17.5 11,17.5 		"/>
		<g>
			<polyline class="st0" points="17,4.5 18.5,4.5 18.5,0.5 17,0.5 			"/>
			<polyline class="st0" points="5,4.5 6.5,4.5 6.5,0.5 5,0.5 			"/>
		</g>
		<line class="st0" x1="9" y1="4.5" x2="14" y2="4.5"/>
	</g>
	<circle class="st0" cx="16.4" cy="16.3" r="4.2"/>
	<polyline class="st0" points="14.3,16.3 15.4,17.4 18.4,14.4 	"/>
</g>
</svg>
