<svg id="rcheck" xmlns="http://www.w3.org/2000/svg" width="60" height="60" viewBox="0 0 60 60"><defs><style>.cls-1{fill:#fff;}</style></defs><title>i-rcheck</title><path id="_" data-name=" " class="cls-1" d="M46,26.07,28.4,43.64a2,2,0,0,1-1.49.62,2,2,0,0,1-1.46-.62L13.74,31.92a2,2,0,0,1-.58-1.45A2,2,0,0,1,13.74,29l2.95-2.91A2,2,0,0,1,19.54,26l.06.06,7.32,7.31,13.2-13.17A2,2,0,0,1,43,20.15l.06.06L46,23.12a2,2,0,0,1,.58,1.49A2,2,0,0,1,46,26.07h0ZM42.33,8.33a25,25,0,0,0-25,0,24.72,24.72,0,0,0-9,9.05,24.88,24.88,0,1,0,43,24.95,25,25,0,0,0,0-24.95A24.73,24.73,0,0,0,42.33,8.33Z"/></svg>