<?xml version="1.0" encoding="utf-8"?>
<!-- Generator: Adobe Illustrator 21.0.0, SVG Export Plug-In . SVG Version: 6.00 Build 0)  -->
<svg version="1.1" id="i-country-b" xmlns="http://www.w3.org/2000/svg" xmlns:xlink="http://www.w3.org/1999/xlink" x="0px"
	 y="0px" width="22px" height="22px" viewBox="0 0 22 22" style="enable-background:new 0 0 22 22;" xml:space="preserve">
<style type="text/css">
	.st0{fill:none;stroke:#3C94CC;}
</style>
<g>
	<path class="st0" d="M20.9,5c0,2.4-4.3,9-4.3,9s-4.3-6.6-4.3-9c0-2.4,1.9-4.3,4.3-4.3C19,0.7,20.9,2.6,20.9,5z"/>
	<circle class="st0" cx="16.6" cy="5" r="1.7"/>
</g>
<path class="st0" d="M16.6,12.1c0,4.4-3.6,8-8,8s-8-3.6-8-8s3.6-8,8-8"/>
<line class="st0" x1="8.5" y1="4" x2="8.5" y2="20"/>
<path class="st0" d="M8.1,20.1c-2.2,0-4-3.6-4-8s1.8-8,4-8"/>
<path class="st0" d="M8.9,20.1c2.2,0,4-3.6,4-8s-1.8-8-4-8"/>
<line class="st0" x1="1" y1="9.5" x2="14" y2="9.5"/>
<line class="st0" x1="2" y1="15.5" x2="16" y2="15.5"/>
</svg>
