<svg id="Layer_1" data-name="Layer 1" xmlns="http://www.w3.org/2000/svg" width="21" height="21" viewBox="0 0 21 21"><defs><style>.cls-1{fill:#3c94cc;}</style></defs><title>i-faq</title><path class="cls-1" d="M10.5,2A8.5,8.5,0,1,1,2,10.5,8.51,8.51,0,0,1,10.5,2m0-2A10.5,10.5,0,1,0,21,10.5,10.5,10.5,0,0,0,10.5,0Z"/><path class="cls-1" d="M6,7.86a3.08,3.08,0,0,1,1.2-2.71,5.28,5.28,0,0,1,3.24-.91,5.12,5.12,0,0,1,3.39,1A3.5,3.5,0,0,1,15,8.09a3.28,3.28,0,0,1-.67,2,4.8,4.8,0,0,1-1.72,1.43,2,2,0,0,0-.77.78,2.59,2.59,0,0,0-.2,1.14H8.59a3.11,3.11,0,0,1,.46-1.81,6.54,6.54,0,0,1,1.62-1.39,2.9,2.9,0,0,0,1-.91A2.22,2.22,0,0,0,12,8.09a1.64,1.64,0,0,0-.4-1.16,1.51,1.51,0,0,0-1.16-.43,1.48,1.48,0,0,0-1,.36A1.41,1.41,0,0,0,9,7.92H6Zm2.4,8.9V14.55h3.32v2.21Z"/></svg>