<?xml version="1.0" encoding="utf-8"?>
<!-- Generator: Adobe Illustrator 21.0.0, SVG Export Plug-In . SVG Version: 6.00 Build 0)  -->
<svg version="1.1" id="Layer_1" xmlns="http://www.w3.org/2000/svg" xmlns:xlink="http://www.w3.org/1999/xlink" x="0px" y="0px"
	 width="30px" height="17px" viewBox="0 0 30 17" style="enable-background:new 0 0 30 17;" xml:space="preserve">
<style type="text/css">
	.st0{fill:#BBBBBB;}
</style>
<g>
	<path class="st0" d="M23.2,15.3c0,0.3-0.1,0.6-0.4,0.9s-0.5,0.4-0.9,0.4c-0.3,0-0.6-0.1-0.9-0.4l-3.3-3.2c-1.1,0.8-2.4,1.2-3.8,1.2
		c-0.9,0-1.8-0.2-2.6-0.5s-1.5-0.8-2.1-1.4S8.3,10.8,7.9,10S7.4,8.3,7.4,7.4c0-0.9,0.2-1.8,0.5-2.6C8.3,4,8.7,3.3,9.3,2.7
		s1.3-1.1,2.1-1.4s1.7-0.5,2.6-0.5c0.9,0,1.8,0.2,2.6,0.5s1.5,0.8,2.1,1.4s1.1,1.3,1.4,2.1c0.4,0.8,0.5,1.7,0.5,2.6
		c0,1.4-0.4,2.7-1.2,3.8l3.3,3.3C23,14.7,23.2,15,23.2,15.3z M17.1,10.4c0.8-0.8,1.2-1.8,1.2-3c0-1.2-0.4-2.2-1.2-3
		c-0.8-0.8-1.8-1.2-3-1.2c-1.2,0-2.2,0.4-3,1.2c-0.8,0.8-1.2,1.8-1.2,3c0,1.2,0.4,2.2,1.2,3c0.8,0.8,1.8,1.2,3,1.2
		C15.2,11.7,16.2,11.3,17.1,10.4z"/>
</g>
</svg>
