<svg xmlns="http://www.w3.org/2000/svg" width="46" height="20" viewBox="0 0 46 20"><defs><style>.a{fill:#cb0300;}.b{fill:#fff;}</style></defs><title>i-rss</title><rect class="a" width="46" height="20" rx="3" ry="3"/><path class="b" d="M19,15.24a.48.48,0,0,1-.15.39.51.51,0,0,1-.39.17H17.24a.54.54,0,0,1-.38-.15.5.5,0,0,1-.17-.36,9.24,9.24,0,0,0-.86-3.42,9.62,9.62,0,0,0-2-2.82,10,10,0,0,0-6.34-2.8A.53.53,0,0,1,7,5.73V4.54a.49.49,0,0,1,.17-.39A.52.52,0,0,1,7.55,4h0a12.06,12.06,0,0,1,7.9,3.47A11.75,11.75,0,0,1,18,11,11.48,11.48,0,0,1,19,15.24Zm-4,0a.52.52,0,0,1-.15.42.53.53,0,0,1-.42.18H13.22a.56.56,0,0,1-.38-.14.53.53,0,0,1-.18-.38A4.47,4.47,0,0,0,12,13.09a5.86,5.86,0,0,0-4.5-2.86.54.54,0,0,1-.37-.18A.53.53,0,0,1,7,9.68V8.5a.51.51,0,0,1,.19-.41.53.53,0,0,1,.38-.15h0a8.13,8.13,0,0,1,2.73.71,7.91,7.91,0,0,1,2.31,1.59,7.84,7.84,0,0,1,2.34,5ZM9.75,13.3a1.57,1.57,0,0,1,0,2.24,1.64,1.64,0,0,1-2.28,0,1.57,1.57,0,0,1,0-2.24,1.64,1.64,0,0,1,2.28,0Z" transform="translate(0 0)"/><path class="b" d="M22.92,6.11h1.89a3,3,0,0,1,2.1.61,2.59,2.59,0,0,1,.67,2q0,1.89-1.16,2.29l1.34,4.92H26.49l-1.23-4.6h-1v4.6H22.92Zm1.81,4.22A1.72,1.72,0,0,0,25.95,10a1.74,1.74,0,0,0,.37-1.27,2.83,2.83,0,0,0-.13-1,.9.9,0,0,0-.45-.51,2.09,2.09,0,0,0-.92-.16h-.58v3.24Z" transform="translate(0 0)"/><path class="b" d="M29.36,15.27a3.53,3.53,0,0,1-.69-2.09l1.16-.33a3.9,3.9,0,0,0,.35,1.53,1,1,0,0,0,1,.58,1,1,0,0,0,.77-.3,1.25,1.25,0,0,0,.26-.85,1.9,1.9,0,0,0-.24-1,4.22,4.22,0,0,0-.78-.88L29.6,10.46a2.75,2.75,0,0,1-.69-.94,3.12,3.12,0,0,1-.21-1.23,2.26,2.26,0,0,1,.59-1.67,2.55,2.55,0,0,1,3.3,0,3.19,3.19,0,0,1,.69,1.91l-1.11.31a3.2,3.2,0,0,0-.32-1.33,1,1,0,0,0-.94-.47,1,1,0,0,0-.77.27,1.1,1.1,0,0,0-.27.81,1.72,1.72,0,0,0,.14.73,2,2,0,0,0,.48.6l1.59,1.45a4.91,4.91,0,0,1,1,1.23,3.09,3.09,0,0,1,.37,1.51,2.31,2.31,0,0,1-.63,1.71,2.47,2.47,0,0,1-3.43-.13Z" transform="translate(0 0)"/><path class="b" d="M34.86,15.27a3.53,3.53,0,0,1-.69-2.09l1.16-.33a3.9,3.9,0,0,0,.35,1.53,1,1,0,0,0,1,.58,1,1,0,0,0,.77-.3,1.25,1.25,0,0,0,.26-.85,1.9,1.9,0,0,0-.24-1,4.22,4.22,0,0,0-.78-.88L35.1,10.46a2.75,2.75,0,0,1-.69-.94,3.12,3.12,0,0,1-.21-1.23,2.26,2.26,0,0,1,.59-1.67,2.55,2.55,0,0,1,3.3,0,3.19,3.19,0,0,1,.69,1.91l-1.11.31a3.2,3.2,0,0,0-.32-1.33,1,1,0,0,0-.94-.47,1,1,0,0,0-.77.27,1.1,1.1,0,0,0-.27.81,1.72,1.72,0,0,0,.14.73,2,2,0,0,0,.48.6l1.59,1.45a4.91,4.91,0,0,1,1,1.23,3.09,3.09,0,0,1,.37,1.51,2.31,2.31,0,0,1-.63,1.71,2.47,2.47,0,0,1-3.43-.13Z" transform="translate(0 0)"/></svg>