<svg id="i-weather3-w" xmlns="http://www.w3.org/2000/svg" width="21" height="21" viewBox="0 0 21 21"><defs><style>.cls-1{fill:#fff;fill-rule:evenodd;}</style></defs><title>i-weather3-w</title><path class="cls-1" d="M12.76,4.44a.77.77,0,0,0,.77-.77V2.12a.77.77,0,1,0-1.54,0V3.67a.77.77,0,0,0,.77.77Zm3,8.57a4.36,4.36,0,1,0-6.5-5.75A5.3,5.3,0,0,0,7.63,7a5.38,5.38,0,0,0-5.36,5.07A3.86,3.86,0,0,0,4,19.35H14.29A3.34,3.34,0,0,0,15.74,13Zm-3-6a2.82,2.82,0,0,1,2.43,4.24,3.84,3.84,0,0,0-3.33-2.18A5.48,5.48,0,0,0,10.66,8,2.79,2.79,0,0,1,12.76,7Zm1.54,10.8H4A2.32,2.32,0,0,1,3,13.44l.77-.4.05-.87A3.83,3.83,0,0,1,10.65,10l.44.56.72,0A2.3,2.3,0,0,1,14,12.92v1l.94.4a1.8,1.8,0,0,1-.69,3.46ZM16.85,6.49a.76.76,0,0,0,.54-.23l1-1a.77.77,0,0,0-.54-1.32.76.76,0,0,0-.54.23l-1,1a.77.77,0,0,0,.54,1.32ZM8.11,6.27a.76.76,0,0,0,.54.23.77.77,0,0,0,.77-.77.76.76,0,0,0-.22-.55l-1-1a.76.76,0,0,0-.54-.23.77.77,0,0,0-.77.77.76.76,0,0,0,.23.55Zm12.32,2.8H18.9a.77.77,0,0,0,0,1.54h1.54a.77.77,0,0,0,0-1.54Zm0,0"/></svg>