<?xml version="1.0" encoding="utf-8"?>
<!-- Generator: Adobe Illustrator 21.0.0, SVG Export Plug-In . SVG Version: 6.00 Build 0)  -->
<svg version="1.1" id="i-weather2-w" xmlns="http://www.w3.org/2000/svg" xmlns:xlink="http://www.w3.org/1999/xlink" x="0px"
	 y="0px" width="21px" height="21px" viewBox="0 0 21 21" style="enable-background:new 0 0 21 21;" xml:space="preserve">
<style type="text/css">
	.st0{fill:#ffffff;}
</style>
<title>i-weather2-g</title>
<path class="st0" d="M17.2,10.3c0.1-2.3-1.6-4.2-3.8-4.4c-1-1.4-2.6-2.3-4.3-2.3C5.9,3.7,3.5,6.2,3.4,9.3c-2.1,1.4-2.8,4.2-1.5,6.3
	c0.6,1.2,1.8,1.9,3.1,1.9h11c1.2,0,2.2-0.7,2.7-1.7c1.1-1.9,0.5-4.4-1.4-5.5C17.3,10.3,17.2,10.3,17.2,10.3L17.2,10.3z M15.9,16H5.4
	c-0.8-0.1-1.5-0.6-1.9-1.3c-0.9-1.3-0.6-3,0.7-3.9c0,0,0.1,0,0.1-0.1L5,10.2l0.1-1.3c0-1.2,0.6-2.3,1.5-3c1.6-1.3,4-1.1,5.3,0.6
	c0.1,0.1,0.1,0.2,0.2,0.3l0.5,0.6h1.1c1.1,0.1,2,1.1,1.9,2.2v1.6l1,0.5c0.4,0.2,0.6,0.4,0.8,0.8c0.7,1.6-0.1,3.4-1.4,3.4L15.9,16z"
	/>
</svg>
