<svg xmlns="http://www.w3.org/2000/svg" width="26" height="32" viewBox="0 0 26 32"><defs><style>.cls-1,.cls-3{fill:#0068b8;}.cls-1{fill-rule:evenodd;}.cls-2{fill:#fff;}</style></defs><title>ic-attr</title><g id="bk"><path class="cls-1" d="M13,0a13,13,0,0,1,10.08,21.2C20.7,24.13,13,32,13,32S5.24,24.1,2.86,21.14A13,13,0,0,1,13,0Z" transform="translate(0 0)"/><circle class="cls-2" cx="13" cy="13" r="11"/></g><g id="attr"><path class="cls-3" d="M18,13.53q.26.13.41,0t-.15-.28L15.5,12a.77.77,0,0,0-.59,0l-.94.29a1.9,1.9,0,0,1-.5.1q-.18,0-.18-.33V9q0-.29.33-.29h7.06A.29.29,0,0,0,21,8.43v-1A.38.38,0,0,0,20.71,7L13.26,4.88a1,1,0,0,0-.62,0L5.29,7A.38.38,0,0,0,5,7.42v1a.29.29,0,0,0,.33.33h7q.33,0,.33.29v3a.29.29,0,0,1-.33.33h-.13a.72.72,0,0,1-.52-.23L9.94,10.51a.72.72,0,0,0-.52-.23H8.64a.53.53,0,0,1-.47-.21.48.48,0,0,0-.42-.21q-.28,0-.08.23v0a.46.46,0,0,1,0,.52l-.85,1.3a.36.36,0,0,0,.07.49l.07,0a.4.4,0,0,0,.52.07l.88-.46a.3.3,0,0,1,.46.1l1,1.53a.31.31,0,0,1-.1.46l-.42.39a.45.45,0,0,0-.2.49l.59,2.54a.27.27,0,0,0,.39.23l.39-.1q.33-.07.26-.36l-.42-1.72a.29.29,0,0,1,.26-.39l1-.26a2.15,2.15,0,0,1,.62-.1h.13a.29.29,0,0,1,.33.33v3a.29.29,0,0,1-.33.33h-7q-.33,0-.33.29v1a.29.29,0,0,0,.33.33H20.54a.29.29,0,0,0,.33-.33v-1q0-.29-.33-.29H13.62q-.33,0-.33-.29V15.19a.29.29,0,0,1,.33-.33H14a1.94,1.94,0,0,1,.62.1l1,.26q.29.07.23.39l-.39,1.72a.27.27,0,0,0,.23.36l.42.1q.29.1.36-.23L17,15a.47.47,0,0,0-.16-.49.75.75,0,0,1-.26-.52l0-.88a.21.21,0,0,1,.07-.18.23.23,0,0,1,.2,0Z" transform="translate(0 0)"/></g></svg>