<?xml version="1.0" encoding="utf-8"?>
<!-- Generator: Adobe Illustrator 23.0.0, SVG Export Plug-In . SVG Version: 6.00 Build 0)  -->
<svg version="1.1" id="Layer_2" xmlns="http://www.w3.org/2000/svg" xmlns:xlink="http://www.w3.org/1999/xlink" x="0px" y="0px"
	 viewBox="0 0 28 30" style="enable-background:new 0 0 28 30;" xml:space="preserve">
<style type="text/css">
	.st0{fill:#3A93CA;}
</style>
<g>
	<path class="st0" d="M14,0.9c2.5,0,4.8,0.6,6.9,1.7c2.1,1.2,3.8,2.7,5.1,4.7c1.2,2,1.9,4.1,1.9,6.5c0,2.8-0.9,5.4-2.7,7.6
		c-1.7,2.2-3.9,3.7-6.6,4.6c-2.8,0.9-5.6,1-8.6,0.2l-4.7,2.6V24c-2.5-1.9-4-4.2-4.7-6.9c-0.7-2.5-0.5-5,0.4-7.5
		C1.9,7.1,3.5,5,5.7,3.4C8.1,1.8,10.9,0.9,14,0.9z M15.4,18.3l7.6-8l-6.9,3.8l-3.6-3.7L5,18.4l6.9-3.9L15.4,18.3z"/>
</g>
</svg>
