<svg xmlns="http://www.w3.org/2000/svg" width="30" height="30" viewBox="0 0 30 30"><defs><style>.a{fill:#3a93ca;}</style></defs><title>im-whatsup</title><path class="a" d="M0,30l2.12-7.7A14.86,14.86,0,0,1,15.06,0,14.87,14.87,0,1,1,7.92,27.93Zm8.29-4.76a12.57,12.57,0,0,0,6.77,2A12.35,12.35,0,1,0,4.84,21.91L3.59,26.47Zm14.3-6.83c-.09-.15-.34-.25-.72-.43s-2.21-1.09-2.55-1.21-.59-.19-.84.19-1,1.21-1.18,1.46-.44.28-.81.09a10.2,10.2,0,0,1-3-1.84,11.19,11.19,0,0,1-2.08-2.57c-.22-.37,0-.57.16-.76s.37-.43.56-.65a2.43,2.43,0,0,0,.38-.62.68.68,0,0,0,0-.65c-.09-.18-.84-2-1.15-2.76S10.72,8,10.49,8H9.77a1.37,1.37,0,0,0-1,.47,4.16,4.16,0,0,0-1.31,3.1A7.21,7.21,0,0,0,9,15.41,16.61,16.61,0,0,0,15.37,21a21.66,21.66,0,0,0,2.13.78,5.15,5.15,0,0,0,2.35.15,3.84,3.84,0,0,0,2.52-1.77A3.08,3.08,0,0,0,22.59,18.41Z"/></svg>