<?xml version="1.0" encoding="utf-8"?>
<!-- Generator: Adobe Illustrator 21.0.0, SVG Export Plug-In . SVG Version: 6.00 Build 0)  -->
<svg version="1.1" id="Layer_1" xmlns="http://www.w3.org/2000/svg" xmlns:xlink="http://www.w3.org/1999/xlink" x="0px" y="0px"
	 width="35px" height="35px" viewBox="0 0 35 35" style="enable-background:new 0 0 35 35;" xml:space="preserve">
<style type="text/css">
	.st0{fill:#FFFFFF;}
</style>
<g>
	<g id="Clock">
		<g>
			<path class="st0" d="M25.4,15.8h-6.2V8.5c0-0.9-0.8-1.7-1.7-1.7s-1.7,0.8-1.7,1.7v10.7h9.6c0.9,0,1.7-0.8,1.7-1.7
				S26.3,15.8,25.4,15.8z M17.5,0C7.8,0,0,7.8,0,17.5S7.8,35,17.5,35S35,27.2,35,17.5S27.2,0,17.5,0z M17.5,31.6
				c-7.8,0-14.1-6.3-14.1-14.1S9.7,3.4,17.5,3.4s14.1,6.3,14.1,14.1S25.3,31.6,17.5,31.6z"/>
		</g>
	</g>
</g>
</svg>
