<?xml version="1.0" encoding="utf-8"?>
<!-- Generator: Adobe Illustrator 21.0.0, SVG Export Plug-In . SVG Version: 6.00 Build 0)  -->
<svg version="1.1" id="Layer_1" xmlns="http://www.w3.org/2000/svg" xmlns:xlink="http://www.w3.org/1999/xlink" x="0px" y="0px"
	 width="40px" height="35px" viewBox="0 0 40 35" style="enable-background:new 0 0 40 35;" xml:space="preserve">
<style type="text/css">
	.st0{fill:#FFFFFF;}
</style>
<g>
	<g id="Cloud_x5F_Sun">
		<g>
			<path class="st0" d="M23.9,6.8c0.8,0,1.5-0.7,1.5-1.5v-3c0-0.8-0.7-1.5-1.5-1.5c-0.8,0-1.5,0.7-1.5,1.5v3
				C22.4,6.1,23.1,6.8,23.9,6.8z M29.6,23.4c1.6-1.5,2.6-3.7,2.6-6.2c0-4.7-3.7-8.5-8.3-8.5c-2.8,0-5.2,1.4-6.7,3.5
				c-1-0.3-2-0.5-3.1-0.5c-5.4,0-9.9,4.4-10.2,9.9C1.6,22.9,0,25.4,0,28.3c0,4.1,3.3,7.5,7.3,7.5h19.5c3.5,0,6.3-2.9,6.3-6.5
				C33.2,26.7,31.7,24.5,29.6,23.4z M23.9,11.8c3,0,5.4,2.5,5.4,5.5c0,1-0.3,1.9-0.7,2.7c-1.2-2.4-3.5-4.1-6.3-4.2
				c-0.6-0.8-1.4-1.6-2.3-2.2C20.9,12.5,22.3,11.8,23.9,11.8z M26.8,32.8H7.3c-2.4,0-4.4-2-4.4-4.5c0-1.7,0.9-3.2,2.4-4l1.5-0.8
				l0.1-1.7c0.2-3.9,3.4-7,7.3-7c2.3,0,4.3,1,5.7,2.9l0.8,1.1l1.4,0c2.4,0.1,4.2,2.1,4.2,4.5v2l1.8,0.8c1.3,0.5,2.1,1.8,2.1,3.2
				C30.2,31.2,28.7,32.8,26.8,32.8z M31.7,10.8c0.4,0,0.8-0.2,1-0.4l2-2c0.3-0.3,0.4-0.6,0.4-1.1c0-0.8-0.7-1.5-1.5-1.5
				c-0.4,0-0.8,0.2-1,0.4l-2,2c-0.3,0.3-0.4,0.6-0.4,1.1C30.2,10.1,30.9,10.8,31.7,10.8z M15.1,10.3c0.3,0.3,0.6,0.4,1,0.4
				c0.8,0,1.5-0.7,1.5-1.5c0-0.4-0.2-0.8-0.4-1.1l-2-2c-0.3-0.3-0.6-0.4-1-0.4c-0.8,0-1.5,0.7-1.5,1.5c0,0.4,0.2,0.8,0.4,1.1
				L15.1,10.3z M38.5,15.8h-2.9c-0.8,0-1.5,0.7-1.5,1.5c0,0.8,0.7,1.5,1.5,1.5h2.9c0.8,0,1.5-0.7,1.5-1.5
				C40,16.5,39.3,15.8,38.5,15.8z"/>
		</g>
	</g>
</g>
</svg>
