<svg id="Layer_1" data-name="Layer 1" xmlns="http://www.w3.org/2000/svg" width="40" height="25" viewBox="0 0 40 25"><defs><style>.cls-1{fill:#1c3663;}.cls-2{fill:#fff;}</style></defs><title>ip-paypal</title><rect class="cls-1" width="40" height="25" rx="1.33" ry="1.33"/><path class="cls-2" d="M19.05,10.34a.81.81,0,0,0-.6.36L17,13.27c-.07.13-.15,0-.16,0l-.42-2.55a.52.52,0,0,0-.52-.37H15a.28.28,0,0,0-.29.36s.65,3.67.77,4.54c.06.48,0,.56,0,.56l-.84,1.47c-.12.2-.06.36.15.36h1a.8.8,0,0,0,.59-.36l3.78-6.39s.36-.55,0-.54H19.05" transform="translate(0 0)"/><path class="cls-2" d="M7.12,11.64a2,2,0,0,1-1.2.31H5.69a.28.28,0,0,1-.29-.36l.29-1.23A.48.48,0,0,1,6.14,10h.31a1.5,1.5,0,0,1,.82.19.62.62,0,0,1,.27.57,1,1,0,0,1-.43.89m2-1.9a1.42,1.42,0,0,0-.52-.56,2.39,2.39,0,0,0-.82-.3A6.87,6.87,0,0,0,6.7,8.79h-2a.49.49,0,0,0-.45.36L2.93,15a.28.28,0,0,0,.29.36h.95A.49.49,0,0,0,4.62,15L5,13.55a.48.48,0,0,1,.45-.36h.27a4.5,4.5,0,0,0,2.71-.71,2.22,2.22,0,0,0,1-1.88,1.75,1.75,0,0,0-.18-.86" transform="translate(0 0)"/><path class="cls-2" d="M13.74,10.57a3.62,3.62,0,0,0-1.69-.3,7.49,7.49,0,0,0-1.15.09l-.49.09a.56.56,0,0,0-.42.44l-.12.48c-.07.31.11.29.18.27a5.15,5.15,0,0,1,.56-.17,4.16,4.16,0,0,1,.89-.12,2.35,2.35,0,0,1,.86.12.44.44,0,0,1,.29.43.31.31,0,0,1,0,.13s0,.07-.14.09c-.54,0-.93.08-1.4.15a4.37,4.37,0,0,0-1.2.33,1.87,1.87,0,0,0-.82.65,1.75,1.75,0,0,0-.27,1,1.16,1.16,0,0,0,.39.9,1.45,1.45,0,0,0,1,.34,2.67,2.67,0,0,0,.6-.06,3,3,0,0,0,.46-.16,2.4,2.4,0,0,0,.39-.22l.36-.24h0L12,15h0a.28.28,0,0,0,.25.35h.9a.5.5,0,0,0,.41-.36l.69-3a1.93,1.93,0,0,0,0-.24,2,2,0,0,0,0-.23A1,1,0,0,0,13.74,10.57Zm-1.68,3.57a2.49,2.49,0,0,1-.37.19,1.34,1.34,0,0,1-.5.11,1.1,1.1,0,0,1-.54-.1.37.37,0,0,1-.19-.35.72.72,0,0,1,.14-.46,1,1,0,0,1,.4-.27,3.52,3.52,0,0,1,.63-.14l.7-.08c.06,0,.09,0,.07.11s-.13.57-.19.8A.46.46,0,0,1,12.06,14.13Z" transform="translate(0 0)"/><path class="cls-2" d="M31,10.57a3.62,3.62,0,0,0-1.69-.3,7.44,7.44,0,0,0-1.15.09l-.49.09a.55.55,0,0,0-.42.44l-.12.48c-.06.3.11.29.19.27a5,5,0,0,1,.56-.17,4.19,4.19,0,0,1,.89-.12,2.35,2.35,0,0,1,.86.12.44.44,0,0,1,.29.43.33.33,0,0,1,0,.13s0,.07-.14.09c-.54,0-.93.08-1.4.15a4.38,4.38,0,0,0-1.2.33,1.88,1.88,0,0,0-.82.65,1.76,1.76,0,0,0-.27,1,1.16,1.16,0,0,0,.39.9,1.45,1.45,0,0,0,1,.34,2.66,2.66,0,0,0,.6-.06,3,3,0,0,0,.46-.16,2.42,2.42,0,0,0,.39-.22l.36-.24h0l0,.15h0a.28.28,0,0,0,.25.36h.9a.49.49,0,0,0,.41-.36l.69-3a1.56,1.56,0,0,0,0-.25,1.94,1.94,0,0,0,0-.23A1,1,0,0,0,31,10.57ZM29.3,14.14a2.58,2.58,0,0,1-.37.19,1.35,1.35,0,0,1-.5.11,1.1,1.1,0,0,1-.54-.1.37.37,0,0,1-.18-.35.72.72,0,0,1,.14-.46,1,1,0,0,1,.4-.27,3.46,3.46,0,0,1,.62-.14l.7-.08c.05,0,.09,0,.07.12s-.13.57-.19.8A.45.45,0,0,1,29.3,14.14Z" transform="translate(0 0)"/><path class="cls-2" d="M24.35,11.66a2,2,0,0,1-1.2.31h-.24a.28.28,0,0,1-.29-.36l.28-1.23a.49.49,0,0,1,.45-.36h.31a1.54,1.54,0,0,1,.82.18.64.64,0,0,1,.28.57,1,1,0,0,1-.43.89m2-1.9a1.46,1.46,0,0,0-.52-.56,2.35,2.35,0,0,0-.83-.3,6.58,6.58,0,0,0-1.12-.09H22a.49.49,0,0,0-.45.36L20.16,15a.28.28,0,0,0,.28.36h1a.49.49,0,0,0,.46-.36l.32-1.41a.49.49,0,0,1,.46-.36h.27a4.49,4.49,0,0,0,2.71-.71,2.23,2.23,0,0,0,1-1.88,1.84,1.84,0,0,0-.18-.85" transform="translate(0 0)"/><path class="cls-2" d="M34.25,8.86H33.4a.49.49,0,0,0-.44.33v0l0,.2-1.17,5.32-.06.24h0a.28.28,0,0,0,.25.35h.89a.49.49,0,0,0,.44-.33v0l1.27-5.76h0A.28.28,0,0,0,34.25,8.86Z" transform="translate(0 0)"/><path class="cls-2" d="M35.54,10l-.1,0h-.09a.29.29,0,0,1-.21-.08.34.34,0,0,1-.07-.24V9.25H35V9.12h.1V8.85h.16v.26h.32v.13h-.32v.42s0,.09,0,.11a.19.19,0,0,0,0,.08.11.11,0,0,0,0,0l.1,0h.08l.06,0h0Z" transform="translate(0 0)"/><path class="cls-2" d="M37.08,10h-.16V9.51s0-.08,0-.11a.26.26,0,0,0,0-.09.13.13,0,0,0-.06-.05l-.1,0a.29.29,0,0,0-.13,0l-.13.08v0s0,0,0,0V10h-.16V9.51s0-.08,0-.12a.26.26,0,0,0,0-.09.13.13,0,0,0-.06-.05l-.1,0a.28.28,0,0,0-.13,0l-.13.08V10h-.16V9.12h.16v.1L36,9.12a.36.36,0,0,1,.15,0,.31.31,0,0,1,.16,0,.24.24,0,0,1,.1.11.75.75,0,0,1,.17-.11.4.4,0,0,1,.17,0,.27.27,0,0,1,.22.09.41.41,0,0,1,.07.26Z" transform="translate(0 0)"/></svg>