<?xml version="1.0" encoding="utf-8"?>
<!-- Generator: Adobe Illustrator 23.0.0, SVG Export Plug-In . SVG Version: 6.00 Build 0)  -->
<svg version="1.1" id="Layer_1" xmlns="http://www.w3.org/2000/svg" xmlns:xlink="http://www.w3.org/1999/xlink" x="0px" y="0px"
	 viewBox="0 0 100 100" style="enable-background:new 0 0 100 100;" xml:space="preserve">
<style type="text/css">
	.st0{fill:#BBBBBB;}
	.st1{display:none;fill:#FFFFFF;}
	.st2{fill:#FFFFFF;}
	.st3{stroke:#FFFFFF;stroke-width:4;stroke-linecap:round;stroke-miterlimit:10;}
</style>
<title>no-user-g</title>
<circle class="st0" cx="50" cy="50" r="50"/>
<path class="st1" d="M76.9,76.8c0-0.3,0-0.5-0.1-0.8c-1.2-9.5-7.3-17.6-16.1-21.4c8.6-5.9,10.7-17.7,4.8-26.3s-17.7-10.7-26.3-4.8
	s-10.7,17.7-4.8,26.3c1.3,1.9,3,3.6,5,4.9c-8.7,3.8-14.8,11.7-16.1,21.1c-0.1,0.3-0.2,0.7-0.2,1v0.3c0,1.5,1.2,2.7,2.7,2.7
	c1.5,0,2.7-1.2,2.7-2.7l0,0v-0.3h0.1c1.4-10.4,10-18.4,20.5-18.9h1.8c10.5,0.5,19.2,8.4,20.5,18.9h0.1v0.3c0,1.5,1.2,2.7,2.7,2.7
	c1.5,0,2.7-1.2,2.7-2.7L76.9,76.8z M50,52.5c-7.5,0.1-13.6-6-13.7-13.5s6-13.6,13.5-13.7c7.5-0.1,13.6,6,13.7,13.5v0.1
	C63.5,46.4,57.5,52.5,50,52.5C50,52.5,50,52.5,50,52.5z"/>
<path class="st2" d="M81,25.3c4.1,4.1,4.1,10.6,0,14.7C77,44,70.4,44,66.3,40c-4.1-4.1-4.1-10.6,0-14.7C70.4,21.2,77,21.2,81,25.3z"
	/>
<path class="st2" d="M28.2,71.6C35,60.3,39.1,47.6,40.1,34.4l12.5,12.5c2-3.9,1.2-8.6-1.8-11.7l-1.1-1.1c-0.7-0.7-1.6-1.4-2.5-1.8
	l11.6,0.1c-1.4-4.1-5.2-7-9.6-7l-1.6,0c-1.1,0-2.2,0.2-3.3,0.5l8.3-8.3c-3.9-2-8.6-1.2-11.7,1.8l-1.1,1.1c-0.7,0.7-1.4,1.6-1.8,2.5
	c-0.5-0.9-1.1-1.8-1.8-2.5l-1.1-1.1c-3.1-3.1-7.8-3.9-11.7-2l8.2,8.4c-1.1-0.4-2.2-0.6-3.3-0.6l-1.6,0c-4.4,0-8.3,2.8-9.7,6.9
	l11.6,0.1c-0.9,0.5-1.8,1.1-2.5,1.8l-1.1,1.1c-3.1,3.1-3.9,7.8-2,11.7l12.3-12.1C34.6,47.3,30,59.4,22.3,69.5
	c-1.7-0.5-8.7-2-10.5-2.3c0,0,1.3,10.3,13,18.8c11,7.9,24,5.2,24,5.2l-5.4-7.8C39.3,78.4,34.1,74.3,28.2,71.6z"/>
<path class="st3" d="M40.9,66.5c15.6,0,31.1,0,46.7,0"/>
<path class="st3" d="M50,75.1c10.3,0,20.5,0,30.8,0"/>
<path class="st3" d="M52.8,83.7c7.6,0,15.2,0,22.8,0"/>
</svg>
