<?xml version="1.0" encoding="utf-8"?>
<!-- Generator: Adobe Illustrator 23.0.0, SVG Export Plug-In . SVG Version: 6.00 Build 0)  -->
<svg version="1.1" id="Layer_1" xmlns="http://www.w3.org/2000/svg" xmlns:xlink="http://www.w3.org/1999/xlink" x="0px" y="0px"
	 viewBox="0 0 100 100" style="enable-background:new 0 0 100 100;" xml:space="preserve">
<style type="text/css">
	.st0{fill:#BBBBBB;}
	.st1{fill:#FFFFFF;}
</style>
<circle class="st0" cx="50" cy="50" r="50"/>
<polygon class="st1" points="36.4,30.4 35.3,23.9 40,19.2 33.5,18.3 30.5,12.4 27.6,18.3 21.1,19.2 25.8,23.9 24.7,30.4 30.5,27.3 
	"/>
<polygon class="st1" points="56.4,30.4 55.3,23.9 60,19.2 53.5,18.3 50.6,12.4 47.7,18.3 41.1,19.2 45.9,23.9 44.7,30.4 50.6,27.3 
	"/>
<polygon class="st1" points="76.5,30.4 75.4,23.9 80.1,19.2 73.6,18.3 70.6,12.4 67.7,18.3 61.2,19.2 65.9,23.9 64.8,30.4 
	70.6,27.3 "/>
<rect x="44" y="69" class="st1" width="4" height="12"/>
<path class="st1" d="M64.8,33H20v48h20V65h20v16h20V33H64.8z M36,69h-8v-4h8V69z M36,61h-8v-4h8V61z M36,53h-8v-4h8V53z M36,45h-8
	v-4h8V45z M48,61h-8v-4h8V61z M48,53h-8v-4h8V53z M48,45h-8v-4h8V45z M60,61h-8v-4h8V61z M60,53h-8v-4h8V53z M60,45h-8v-4h8V45z
	 M72,69h-8v-4h8V69z M72,61h-8v-4h8V61z M72,53h-8v-4h8V53z M72,45h-8v-4h8V45z"/>
</svg>
