<svg id="Layer_1" data-name="Layer 1" xmlns="http://www.w3.org/2000/svg" width="100" height="100" viewBox="0 0 100 100"><defs><style>.cls-1{fill:#fff;}</style></defs><title>no-user</title><path class="cls-1" d="M77.8,77a2.2,2.2,0,0,0-.1-.8A27.09,27.09,0,0,0,61.6,54.8a18.88,18.88,0,1,0-21.3.1A27.14,27.14,0,0,0,24.2,76a3.55,3.55,0,0,0-.2,1v.3a2.7,2.7,0,1,0,5.4,0V77h.1A21.79,21.79,0,0,1,50,58.1h1.8A21.63,21.63,0,0,1,72.3,77h.1v.3a2.7,2.7,0,0,0,5.4,0ZM50.9,52.7A13.6,13.6,0,1,1,64.4,39.1,13.53,13.53,0,0,1,50.9,52.7Z"/></svg>