<svg id="Layer_1" data-name="Layer 1" xmlns="http://www.w3.org/2000/svg" viewBox="0 0 50 50"><defs><style>.cls-1{fill:#4d9b40;}</style></defs><title>ri-air</title><path class="cls-1" d="M9.54,42.62s0,0,0,0c-.51-.42-1-.87-1.49-1.34a.76.76,0,1,0-1.08,1.08,19.85,19.85,0,0,0,1.59,1.44.77.77,0,0,0,1.08,0A.76.76,0,0,0,9.54,42.62Z"/><path class="cls-1" d="M1.53,20a.76.76,0,0,0-1,.47,1.16,1.16,0,0,0,0,.18C.37,21.3.25,22,.16,22.72a.77.77,0,0,0,.65.85h.1a.77.77,0,0,0,.76-.67c.08-.66.19-1.33.33-2A.76.76,0,0,0,1.53,20Z"/><path class="cls-1" d="M5.74,38.56c-.4-.54-.77-1.1-1.11-1.67a.78.78,0,0,0-1-.27h0a.76.76,0,0,0-.27,1h0c.37.61.77,1.21,1.19,1.79a.76.76,0,0,0,1.08.12A.77.77,0,0,0,5.74,38.56Z"/><path class="cls-1" d="M3.07,33.74c-.25-.62-.47-1.25-.66-1.9a.78.78,0,0,0-1-.52h0a.77.77,0,0,0-.51,1c.21.68.44,1.36.71,2a.78.78,0,0,0,1,.43A.77.77,0,0,0,3.07,33.74Z"/><path class="cls-1" d="M3.53,14.71a.77.77,0,0,0-1,.33c-.32.64-.62,1.3-.88,2A.76.76,0,0,0,3,17.57H3a20,20,0,0,1,.82-1.83A.76.76,0,0,0,3.53,14.71Z"/><path class="cls-1" d="M1.69,28.42h0c-.08-.66-.13-1.34-.16-2a.78.78,0,0,0-.79-.74.78.78,0,0,0-.74.8,17.14,17.14,0,0,0,.17,2.14.78.78,0,0,0,.74.66H1A.77.77,0,0,0,1.69,28.42Z"/><path class="cls-1" d="M22,2.92a.77.77,0,0,0-.84-.7c-.71.08-1.42.18-2.13.32a.76.76,0,0,0-.69.83.77.77,0,0,0,.84.69V4h.15c.66-.12,1.32-.22,2-.29A.76.76,0,0,0,22,2.92Z"/><path class="cls-1" d="M6.85,10.08a.77.77,0,0,0-1.09.07c-.47.53-.92,1.1-1.34,1.68A.76.76,0,0,0,5,13H5a.77.77,0,0,0,.62-.31,19.56,19.56,0,0,1,1.25-1.57A.78.78,0,0,0,6.85,10.08Z"/><path class="cls-1" d="M27,2.35c-.71-.11-1.43-.18-2.14-.22a.77.77,0,0,0-.09,1.53c.67,0,1.34.12,2,.22h.11a.76.76,0,0,0,.82-.71A.76.76,0,0,0,27,2.35Z"/><path class="cls-1" d="M11.19,6.44a.76.76,0,0,0-1-.19c-.59.4-1.16.84-1.71,1.29a.76.76,0,0,0-.1,1.08.77.77,0,0,0,1.08.1A18.65,18.65,0,0,1,11,7.51.77.77,0,0,0,11.19,6.44Z"/><path class="cls-1" d="M13.75,5.82Z"/><path class="cls-1" d="M16.45,4a.77.77,0,0,0-.94-.54l-.11,0a18.71,18.71,0,0,0-2,.83.77.77,0,0,0,.32,1.46.68.68,0,0,0,.31-.08c.61-.28,1.23-.54,1.85-.77A.77.77,0,0,0,16.45,4Z"/><path class="cls-1" d="M25.69,48.26a.76.76,0,0,0-.81-.72,19.27,19.27,0,0,1-2,.05.76.76,0,0,0,0,1.52h.65c.51,0,1,0,1.5,0A.76.76,0,0,0,25.69,48.26Z"/><path class="cls-1" d="M45.71,30.54a.77.77,0,0,0-.93.56c-.17.64-.37,1.29-.59,1.91a.76.76,0,1,0,1.44.5h0c.24-.67.45-1.36.63-2A.77.77,0,0,0,45.71,30.54Z"/><path class="cls-1" d="M46.68,21.79c-.12-.71-.26-1.41-.44-2.1a.77.77,0,0,0-1.48.39c.17.64.31,1.3.42,2a.75.75,0,0,0,.74.62h.13A.75.75,0,0,0,46.68,21.79Z"/><path class="cls-1" d="M49.93,13a.6.6,0,0,0-.14-.21l-1.35-1.41a.75.75,0,0,0-.74-.18L45.26,12l-2.85-3,6.4-3.57a.73.73,0,0,0,.37-1A.8.8,0,0,0,49,4.16l-1.8-1.8a.75.75,0,0,0-.74-.18L38.37,4.64l-2.73-2.9a2.49,2.49,0,0,0-2.81-.67h0a3,3,0,0,0-1.63,1.64,2.43,2.43,0,0,0-.17.6l-.31-.11a.77.77,0,0,0-.47,1.46c.39.13.79.27,1.18.42a4,4,0,0,0,.41.51l2.88,2.73-.82,2.73a18,18,0,1,0,3.79,3.66L39,12.35l3,2.86-.73,2.41a.72.72,0,0,0,.18.75L43,19.9a.73.73,0,0,0,1-.27h0L46,16l3.6-2A.75.75,0,0,0,49.93,13ZM11.87,14A16.36,16.36,0,0,1,23.46,9.23l1,0c2.89,2.66,2,5.1.1,7.29a35.59,35.59,0,0,1-3.67,3.38c-1.88,1.6-3.63,3.1-4.3,4.59-.78,1.77-.21,3.38,3,4.78A8.38,8.38,0,0,1,22.36,31v0h0a6.4,6.4,0,0,1-2.41.41c-3.84.16-6.58-2.29-8.71-4.19-1.52-1.36-2.79-2.5-4.11-2.51A16.32,16.32,0,0,1,11.87,14Zm28,11.61h0A16.42,16.42,0,0,1,28.59,41.24a5.39,5.39,0,0,1,.62-3.47,12.89,12.89,0,0,1,3.06-3.36c4.71-3.93,5-6.12,5.18-7.81.12-1.06.22-1.86,2.32-3A15.52,15.52,0,0,1,39.9,25.63ZM39,20.12a14.63,14.63,0,0,1,.56,2c-3.2,1.63-3.34,2.79-3.54,4.38-.17,1.42-.4,3.29-4.65,6.84a13.72,13.72,0,0,0-3.41,3.79,6.8,6.8,0,0,0-.77,4.55A16.43,16.43,0,0,1,7.47,29.29a16.87,16.87,0,0,1-.4-3.08c.81,0,1.86,1,3.15,2.11,2.34,2.08,5.32,4.74,9.77,4.59a7.65,7.65,0,0,0,3.06-.59,1.54,1.54,0,0,0,.85-.95A1.44,1.44,0,0,0,23.53,30,9.55,9.55,0,0,0,20.2,28C18,27,17.57,26.07,18,25.12c.51-1.19,2.16-2.55,3.9-4.08a36.86,36.86,0,0,0,3.83-3.56c2.13-2.43,3.22-5.08,1.06-8a16.28,16.28,0,0,1,6.62,3l-1.17,3.87a.72.72,0,0,0,.18.75s1.9,1.89,2,1.93a.75.75,0,0,0,1-.27v0l1.48-2.68A16.15,16.15,0,0,1,39,20.12Zm6.84-5.7-.66.33a.73.73,0,0,0-.33.34l-.33.66-1.27,2.3-.37-.41.74-2.44a.76.76,0,0,0-.24-.79l-4-3.79a.75.75,0,0,0-1.05,0l0,0c-.05.05-3.67,6.57-3.67,6.57l-.79-.79,2.47-8.13A.74.74,0,0,0,36,7.52l-3.2-3a1,1,0,0,1-.29-1.23,1.58,1.58,0,0,1,.83-.82h0a1.09,1.09,0,0,1,1.2.3l3,3.24a.77.77,0,0,0,.76.2l8.15-2.46.79.79L40.85,8.09a.73.73,0,0,0-.29,1v0c0,.05,3.93,4.2,3.93,4.2a.72.72,0,0,0,.75.2l2.45-.74.38.38Z"/><path class="cls-1" d="M43.82,35.92l0,0a.76.76,0,0,0-1,.3c-.32.58-.68,1.16-1.05,1.71a.76.76,0,1,0,1.25.88c.4-.59.78-1.21,1.12-1.83A.75.75,0,0,0,43.82,35.92Z"/><path class="cls-1" d="M46.24,24.75a.78.78,0,0,0-.78.76v.12c0,.66,0,1.34-.09,2a.77.77,0,0,0,.69.84h.08a.77.77,0,0,0,.77-.71c.06-.71.09-1.43.09-2.14v-.11A.76.76,0,0,0,46.24,24.75Z"/><path class="cls-1" d="M19.39,47.2a14.64,14.64,0,0,1-2-.45.77.77,0,0,0-.5,1.45l.09,0c.68.2,1.38.36,2.09.51h.14a.76.76,0,0,0,.83-.69A.77.77,0,0,0,19.39,47.2Z"/><path class="cls-1" d="M31.22,47a.77.77,0,0,0-.93-.47v0a14.44,14.44,0,0,1-1.93.51.76.76,0,1,0,.34,1.49c.69-.15,1.39-.35,2.07-.57A.76.76,0,0,0,31.22,47Z"/><path class="cls-1" d="M14.15,45.54c-.61-.3-1.21-.63-1.78-1a.77.77,0,0,0-.78,1.32c.62.37,1.26.7,1.9,1a.76.76,0,0,0,.66-1.38Z"/><path class="cls-1" d="M40.57,40.62a.77.77,0,0,0-1.07,0h0a19.12,19.12,0,0,1-1.44,1.41.76.76,0,1,0,1,1.14c.51-.48,1-1,1.53-1.5A.76.76,0,0,0,40.57,40.62Z"/><path class="cls-1" d="M36.35,44.43a.76.76,0,0,0-1.05-.26l0,0v0c-.56.36-1.15.69-1.74,1a.76.76,0,0,0,.7,1.36c.63-.33,1.26-.69,1.86-1.07A.77.77,0,0,0,36.35,44.43Z"/></svg>