<svg id="Layer_1" data-name="Layer 1" xmlns="http://www.w3.org/2000/svg" width="50" height="50" viewBox="0 0 50 50"><defs><style>.cls-1{fill:#4d9b40;}</style></defs><title>ri-clock</title><path class="cls-1" d="M34.48,25.07H28.33a3.44,3.44,0,0,0-2.47-2.46V13.89a.86.86,0,1,0-1.72,0v8.72a3.43,3.43,0,1,0,4.19,4.18h6.15a.86.86,0,1,0,0-1.72ZM25,27.64a1.72,1.72,0,1,1,1.72-1.71A1.72,1.72,0,0,1,25,27.64Z"/><path class="cls-1" d="M43.2,8.39l3.53,3.53a.88.88,0,0,0,.61.25.86.86,0,0,0,.61-.25A7,7,0,0,0,38.05,2a.87.87,0,0,0,0,1.22L42,7.18,40.52,8.64a23.27,23.27,0,0,0-31,0L8,7.18,12,3.26A.87.87,0,0,0,12,2a7,7,0,0,0-9.9,9.88.87.87,0,0,0,1.22,0L6.8,8.39,8.24,9.84a23.14,23.14,0,0,0,5,36.09l-2.61,2.6a.86.86,0,0,0,0,1.22.86.86,0,0,0,1.21,0l3-3a23.27,23.27,0,0,0,20.42,0l3,3a.85.85,0,0,0,.61.25.84.84,0,0,0,.61-.25.86.86,0,0,0,0-1.22l-2.61-2.6a23.14,23.14,0,0,0,5-36.09Zm3.53-5.13A5.25,5.25,0,0,1,47.29,10L39.93,2.7A5.29,5.29,0,0,1,46.73,3.26ZM2.71,10A5.27,5.27,0,0,1,10.07,2.7ZM25,47.42A21.5,21.5,0,1,1,46.55,25.93,21.54,21.54,0,0,1,25,47.42Z"/><path class="cls-1" d="M42.14,16A19.93,19.93,0,0,0,35,8.83l0,0-.05,0a19.84,19.84,0,0,0-19.74,0l0,0,0,0A19.93,19.93,0,0,0,7.86,16l0,0s0,0,0,0a19.68,19.68,0,0,0,0,19.69s0,0,0,0l0,.06A19.92,19.92,0,0,0,15.05,43l0,0,.06,0a19.83,19.83,0,0,0,19.7,0l.07,0,0,0a19.92,19.92,0,0,0,7.18-7.15l0-.06s0,0,0,0a19.68,19.68,0,0,0,0-19.69s0,0,0,0ZM34.78,41.1l-.41-.71a.87.87,0,0,0-1.18-.32.88.88,0,0,0-.32,1.18l.42.71a18.06,18.06,0,0,1-7.43,2v-.82a.86.86,0,0,0-1.72,0v.82a18.06,18.06,0,0,1-7.43-2l.42-.71a.86.86,0,0,0-1.5-.86l-.41.71a18.11,18.11,0,0,1-5.43-5.42l.71-.41a.88.88,0,0,0,.32-1.18.86.86,0,0,0-1.18-.31l-.72.41a18,18,0,0,1-2-7.4h.82a.86.86,0,0,0,0-1.72H6.94a17.82,17.82,0,0,1,2-7.41l.72.41a.82.82,0,0,0,.43.12.86.86,0,0,0,.43-1.61l-.71-.41a18.11,18.11,0,0,1,5.43-5.42l.41.71a.88.88,0,0,0,1.18.32.86.86,0,0,0,.31-1.18l-.41-.71a18.06,18.06,0,0,1,7.43-2v.82a.86.86,0,1,0,1.72,0V7.91a18.06,18.06,0,0,1,7.43,2l-.42.71a.87.87,0,0,0,.32,1.18.81.81,0,0,0,.43.11.86.86,0,0,0,.75-.43l.41-.71a18.22,18.22,0,0,1,5.43,5.42l-.71.41a.86.86,0,0,0,.43,1.61.82.82,0,0,0,.43-.12l.72-.41a18,18,0,0,1,2,7.4h-.82a.86.86,0,1,0,0,1.72h.82a18,18,0,0,1-2,7.41l-.72-.41a.86.86,0,0,0-1.18.31.88.88,0,0,0,.32,1.18l.71.41A18.11,18.11,0,0,1,34.78,41.1Z"/></svg>