<svg id="Layer_1" data-name="Layer 1" xmlns="http://www.w3.org/2000/svg" width="50" height="49.98" viewBox="0 0 50 49.98"><defs><style>.cls-1{fill:#4d9b40;}</style></defs><title>ri-hotel</title><path class="cls-1" d="M19.71,4.69,21.66,6,21,8.66a.82.82,0,0,0,.28.83.79.79,0,0,0,.86.09L25,8.15l2.87,1.43a.74.74,0,0,0,.36.09.79.79,0,0,0,.5-.18A.82.82,0,0,0,29,8.66L28.34,6l1.95-1.3A.81.81,0,0,0,30,3.24l-2.92-.73L25.67.35a.83.83,0,0,0-1.34,0L22.89,2.51,20,3.24a.81.81,0,0,0-.26,1.45ZM23.58,4a.8.8,0,0,0,.48-.34L25,2.25l.94,1.41a.8.8,0,0,0,.48.34l1.45.36L27,5a.8.8,0,0,0-.33.87L27,7.35l-1.66-.82A.77.77,0,0,0,25,6.44a.9.9,0,0,0-.36.08L23,7.35l.38-1.52A.8.8,0,0,0,23,5l-.9-.6Z" transform="translate(0 -0.01)"/><path class="cls-1" d="M14.52,21.76h3.22a.8.8,0,0,0,.81-.8V17.73a.81.81,0,0,0-.81-.81H14.52a.81.81,0,0,0-.81.81V21A.8.8,0,0,0,14.52,21.76Zm.8-3.22h1.62v1.61H15.32Z" transform="translate(0 -0.01)"/><path class="cls-1" d="M23.39,21.76h3.22a.8.8,0,0,0,.81-.8V17.73a.81.81,0,0,0-.81-.81H23.39a.81.81,0,0,0-.81.81V21A.8.8,0,0,0,23.39,21.76Zm.8-3.22h1.62v1.61H24.19Z" transform="translate(0 -0.01)"/><path class="cls-1" d="M32.26,21.76h3.22a.8.8,0,0,0,.81-.8V17.73a.81.81,0,0,0-.81-.81H32.26a.81.81,0,0,0-.81.81V21A.8.8,0,0,0,32.26,21.76Zm.8-3.22h1.62v1.61H33.06Z" transform="translate(0 -0.01)"/><path class="cls-1" d="M14.52,28.21h3.22a.8.8,0,0,0,.81-.8V24.18a.8.8,0,0,0-.81-.8H14.52a.8.8,0,0,0-.81.8v3.23A.8.8,0,0,0,14.52,28.21Zm.8-3.22h1.62V26.6H15.32Z" transform="translate(0 -0.01)"/><path class="cls-1" d="M23.39,28.21h3.22a.8.8,0,0,0,.81-.8V24.18a.8.8,0,0,0-.81-.8H23.39a.8.8,0,0,0-.81.8v3.23A.8.8,0,0,0,23.39,28.21Zm.8-3.22h1.62V26.6H24.19Z" transform="translate(0 -0.01)"/><path class="cls-1" d="M32.26,28.21h3.22a.8.8,0,0,0,.81-.8V24.18a.8.8,0,0,0-.81-.8H32.26a.8.8,0,0,0-.81.8v3.23A.8.8,0,0,0,32.26,28.21Zm.8-3.22h1.62V26.6H33.06Z" transform="translate(0 -0.01)"/><path class="cls-1" d="M14.52,34.67h3.22a.81.81,0,0,0,.81-.81V30.63a.8.8,0,0,0-.81-.8H14.52a.8.8,0,0,0-.81.8v3.23A.81.81,0,0,0,14.52,34.67Zm.8-3.23h1.62v1.61H15.32Z" transform="translate(0 -0.01)"/><path class="cls-1" d="M23.39,34.67h3.22a.81.81,0,0,0,.81-.81V30.63a.8.8,0,0,0-.81-.8H23.39a.8.8,0,0,0-.81.8v3.23A.81.81,0,0,0,23.39,34.67Zm.8-3.23h1.62v1.61H24.19Z" transform="translate(0 -0.01)"/><path class="cls-1" d="M32.26,34.67h3.22a.81.81,0,0,0,.81-.81V30.63a.8.8,0,0,0-.81-.8H32.26a.8.8,0,0,0-.81.8v3.23A.81.81,0,0,0,32.26,34.67Zm.8-3.23h1.62v1.61H33.06Z" transform="translate(0 -0.01)"/><path class="cls-1" d="M46,44.27a4.84,4.84,0,1,0-1.62,0v4.11H39.52V15.31h1.61V13.7H33.06V11.28a.8.8,0,0,0-.8-.81H17.74a.8.8,0,0,0-.8.81V13.7H8.87v1.61h1.61V48.38H5.65V44.27a4.84,4.84,0,1,0-1.62,0v4.11H0V50H50V48.38H46Zm-4-4.77a3.23,3.23,0,1,1,4,3.12v-2l1.37-1.38L46.2,38.13l-1,1-1-1L43,39.27l1.37,1.38v2A3.23,3.23,0,0,1,41.94,39.5Zm-40.33,0a3.23,3.23,0,1,1,4,3.12v-2L7,39.27,5.88,38.13l-1,1-1-1L2.66,39.27,4,40.65v2A3.23,3.23,0,0,1,1.61,39.5ZM18.55,12.09h12.9V13.7H18.55ZM12.1,15.31H37.9V48.38H34.68V40.31h1.61V38.7H13.71v1.61h1.61v8.07H12.1ZM29.84,48.38H27.42V43.54h2.42Zm.81-6.46h-4a.8.8,0,0,0-.8.81v5.65H24.19V42.73a.8.8,0,0,0-.8-.81h-4a.8.8,0,0,0-.8.81v5.65H16.94V40.31H33.06v8.07H31.45V42.73A.8.8,0,0,0,30.65,41.92Zm-8.07,6.46H20.16V43.54h2.42Z" transform="translate(0 -0.01)"/></svg>