<svg id="Layer_1" data-name="Layer 1" xmlns="http://www.w3.org/2000/svg" width="50" height="50" viewBox="0 0 50 50"><defs><style>.cls-1{fill:#4d9b40;}</style></defs><title>ri-money</title><path class="cls-1" d="M8.31,44.43a1,1,0,0,0-.69-.29,1,1,0,0,0-.69.29.94.94,0,0,0-.29.69,1,1,0,0,0,.29.69,1,1,0,0,0,.69.28,1,1,0,0,0,1-1A1,1,0,0,0,8.31,44.43Z"/><path class="cls-1" d="M45.85,17.87a.94.94,0,0,0-.69-.29,1,1,0,0,0-.69.29,1,1,0,0,0-.28.69,1,1,0,0,0,.28.69,1,1,0,0,0,.69.28,1,1,0,0,0,.69-.28,1,1,0,0,0,.29-.69A1,1,0,0,0,45.85,17.87Z"/><path class="cls-1" d="M49.71.29A.94.94,0,0,0,49,0H25a1,1,0,0,0-1,1V3.77L14.77,6.25a1,1,0,0,0-.69,1.2l4.79,17.9L14.72,29.5a2.93,2.93,0,0,0-2.42-1.28H2.93A2.93,2.93,0,0,0,0,31.15V47.07A2.93,2.93,0,0,0,2.93,50H12.3a2.94,2.94,0,0,0,2.85-2.22l1.16,1A4.92,4.92,0,0,0,19.54,50H49a1,1,0,0,0,1-1V1A.94.94,0,0,0,49.71.29ZM13.28,47.07a1,1,0,0,1-1,1H2.93a1,1,0,0,1-1-1V31.15a1,1,0,0,1,1-1H6.64V41.43a1,1,0,0,0,2,0V30.18H12.3a1,1,0,0,1,1,1V47.07ZM16.22,7.88,24,5.79V9.41l-.65.18a1,1,0,0,0-.69,1.19A2.63,2.63,0,0,1,20.82,14a.94.94,0,0,0-.59.46,1,1,0,0,0-.1.74l3.81,14.1H22l-1-4A1.09,1.09,0,0,0,20.8,25Zm7.8,6v8.24l-1.78-6.6A4.41,4.41,0,0,0,24,13.89Zm14,34.16H19.54a3,3,0,0,1-1.95-.73l-2.36-2.06V31.75l4.27-4.26.77,3a1,1,0,0,0,.95.74h19.2a1.37,1.37,0,0,1,0,2.73H30.58a1,1,0,0,0,0,2H43.47a1.37,1.37,0,1,1,0,2.73H30.58a1,1,0,0,0,0,2h10.8a1.37,1.37,0,1,1,0,2.73H30.58a1,1,0,1,0,0,2h7.47a1.37,1.37,0,1,1,0,2.74Zm10,0h-7a3.38,3.38,0,0,0,0-2.74h.3A3.32,3.32,0,0,0,44.7,42a3.2,3.2,0,0,0-.35-1.48,3.33,3.33,0,0,0,2.44-3.21,3.28,3.28,0,0,0-.65-2V23a1,1,0,1,0-2,0V34.06a3.38,3.38,0,0,0-.72-.08h0a3.26,3.26,0,0,0,.3-1.36,3.32,3.32,0,0,0-3.32-3.32H38.85a4.68,4.68,0,1,0-3.67,0H29.84V10.73a4.61,4.61,0,0,0,3.5-3.5h7.34a4.6,4.6,0,0,0,3.51,3.5v3a1,1,0,1,0,2,0V9.86a1,1,0,0,0-1-1,2.63,2.63,0,0,1-2.63-2.63,1,1,0,0,0-1-1H32.47a1,1,0,0,0-1,1,2.63,2.63,0,0,1-2.63,2.63,1,1,0,0,0-1,1V29.3H26V2H48.05ZM37,27.72A2.72,2.72,0,1,1,39.73,25,2.72,2.72,0,0,1,37,27.72Z"/></svg>