<svg id="Layer_1" data-name="Layer 1" xmlns="http://www.w3.org/2000/svg" width="50" height="50" viewBox="0 0 50 50"><defs><style>.cls-1{fill:#4d9b40;}</style></defs><title>ri-palm</title><path class="cls-1" d="M28.33,31.67a8.34,8.34,0,1,0,8.34-8.33A8.33,8.33,0,0,0,28.33,31.67ZM36.67,25A6.67,6.67,0,1,1,30,31.67,6.67,6.67,0,0,1,36.67,25Z"/><path class="cls-1" d="M31.91,48.33h9.52V50H31.91Z"/><path class="cls-1" d="M28.33,45H45v1.67H28.33Z"/><path class="cls-1" d="M10,45h1.67v1.67H10Z"/><path class="cls-1" d="M5,46.67H6.67v1.66H5Z"/><path class="cls-1" d="M10.08,40.31a62.9,62.9,0,0,0,8-24.66l7.75,7.7a.86.86,0,0,0,.58.24h.14a.83.83,0,0,0,.61-.45,8.12,8.12,0,0,0-1.53-9.4L25,13.05h5.86a.84.84,0,0,0,.84-.83.86.86,0,0,0-.05-.27A8.13,8.13,0,0,0,23.9,6.38H22.81L27,2.2A.85.85,0,0,0,26.76.86a8.15,8.15,0,0,0-9.41,1.53l-.8.79a8.19,8.19,0,0,0-.72.84,8.19,8.19,0,0,0-.72-.84l-.79-.79A8.14,8.14,0,0,0,4.92.86.85.85,0,0,0,4.54,2a1.12,1.12,0,0,0,.16.22L8.87,6.38H7.77A8.14,8.14,0,0,0,0,12,.84.84,0,0,0,.57,13a1.09,1.09,0,0,0,.26,0H6.69L6,13.73a8.14,8.14,0,0,0-1.53,9.4.83.83,0,0,0,.61.45h.14a.78.78,0,0,0,.58-.24L13,16.18a45.17,45.17,0,0,1-8.71,22,28.44,28.44,0,0,0-3.4-.69L.4,37.45.23,39.11l.49,0c.83.12,1.66.29,2.48.48-.17.21-.33.42-.5.62L4,41.33a46.84,46.84,0,0,0,10.9-27l1-.95.72.71A60.86,60.86,0,0,1,6,43.69l1.37,1c.66-.93,1.28-1.91,1.89-2.89a29.52,29.52,0,0,1,10.08,7.9l1.29-1.06a31,31,0,0,0-5.54-5.26H50V41.67H12.61C11.79,41.17,10.94,40.73,10.08,40.31Zm16-19-8.81-8.75a6.45,6.45,0,0,1,6.37,1.59l.79.8A6.45,6.45,0,0,1,26.13,21.27Zm3.43-9.89h-6.9a8.12,8.12,0,0,0-5.16-.61,6.46,6.46,0,0,1,5.27-2.72h1.12A6.47,6.47,0,0,1,29.56,11.38Zm-11.83-7,.79-.79a6.48,6.48,0,0,1,6.37-1.65L20,6.89A8.15,8.15,0,0,0,16,10a6.31,6.31,0,0,1,1.71-5.62Zm-4.59-.79.79.79a5.9,5.9,0,0,1,1,1.27,7.72,7.72,0,0,0-.63,2.77,7.94,7.94,0,0,0-2.55-1.51l-4.94-5a6.47,6.47,0,0,1,6.37,1.65ZM7.77,8.05H8.89a6.48,6.48,0,0,1,5.28,2.72A8.12,8.12,0,0,0,9,11.38H2.11A6.46,6.46,0,0,1,7.77,8.05ZM5.54,21.27a6.45,6.45,0,0,1,1.65-6.36l.79-.8a6.44,6.44,0,0,1,6.37-1.59Z"/></svg>