<svg id="Layer_1" data-name="Layer 1" xmlns="http://www.w3.org/2000/svg" width="50" height="50" viewBox="0 0 50 50"><defs><style>.cls-1{fill:#4d9b40;}</style></defs><title>ri-recr</title><path class="cls-1" d="M40.82,48V42.84h2a1,1,0,0,0,1-1V37.73a1,1,0,0,0-.35-.77l6.17-6.18a1,1,0,0,0,0-1.45l-3.06-3.07a1,1,0,0,0-.72-.3h0a1,1,0,0,0-.72.31l-2.06,2.1-1.59-1.6a1,1,0,0,0-1.45,0l-6.84,6.86H30.1a1,1,0,0,0-1,1v2H16.84V35.17a2,2,0,0,0-.28-1,2,2,0,0,0,.28-1V31.59a2.05,2.05,0,0,0-2-2.05H6.63a2.05,2.05,0,0,0-2,2.05v1.53a2,2,0,0,0,.28,1,2,2,0,0,0-.28,1V36.7H1a1,1,0,0,0-1,1v4.09a1,1,0,0,0,1,1h2V48H0v2H50V48Zm-9.7-12.27h2.55a1,1,0,0,0,.72-.3l6.43-6.44.88.89L35,36.7H31.12v-1ZM6.63,31.59H14.8v1.53H6.63Zm0,3.58H14.8V36.7H6.63ZM6.12,48h-1V42.84h1Zm29.59,0H8.16V42.84H35.71V48Zm3.07,0h-1V42.84h1Zm-2.05-7.16H2v-2H35.41a1,1,0,0,0,.73-.31l7.73-7.91,2.06-2.09,1.61,1.61L40.9,36.7H38.78v2h3.06v2H36.73Z"/><path class="cls-1" d="M32.34,9.1l-1.43,1.43L32.35,12l1.43-1.44a4.47,4.47,0,0,0,1.42.6V13.3h2V11.14a4.43,4.43,0,0,0,1.43-.6L40.09,12l1.45-1.45L40.11,9.1a4.85,4.85,0,0,0,.59-1.43h2.16v-2H40.7a4.64,4.64,0,0,0-.59-1.43l1.43-1.43L40.09,1.32,38.67,2.75a4.64,4.64,0,0,0-1.43-.59V0h-2V2.16a4.69,4.69,0,0,0-1.42.59L32.35,1.32,30.91,2.77,32.34,4.2a4.41,4.41,0,0,0-.59,1.43H29.59v2h2.16A4.5,4.5,0,0,0,32.34,9.1Zm3.88-5a2.56,2.56,0,1,1-2.55,2.56A2.56,2.56,0,0,1,36.22,4.09Z"/><path class="cls-1" d="M10.2,13.71a1,1,0,0,1,1,1h2a1,1,0,1,1,2,0h2a3.06,3.06,0,0,0-5.11-2.28,3,3,0,0,0-2-.79,3.07,3.07,0,0,0-3.06,3.07h2A1,1,0,0,1,10.2,13.71Z"/><path class="cls-1" d="M13.27,19.84h2a1,1,0,0,1,2,0h2a1,1,0,0,1,2,0h2a3.06,3.06,0,0,0-3.06-3.06,3,3,0,0,0-2,.78,3,3,0,0,0-2-.78A3.06,3.06,0,0,0,13.27,19.84Z"/></svg>