<svg id="Layer_1" data-name="Layer 1" xmlns="http://www.w3.org/2000/svg" width="50" height="50" viewBox="0 0 50 50"><defs><style>.cls-1{fill:#4d9b40;}</style></defs><title>ri-temper</title><path class="cls-1" d="M45.25,16.35H40.93a.74.74,0,1,0,0,1.47h4.32a.74.74,0,1,0,0-1.47Z"/><path class="cls-1" d="M40.93,11.88h2a.73.73,0,1,0,0-1.46h-2a.73.73,0,1,0,0,1.46Z"/><path class="cls-1" d="M40.93,5.94h2.66a.73.73,0,1,0,0-1.46H40.93a.73.73,0,1,0,0,1.46Z"/><path class="cls-1" d="M43.59,28.22H40.93a.74.74,0,1,0,0,1.47h2.66a.74.74,0,1,0,0-1.47Z"/><path class="cls-1" d="M40.93,23.75h2a.73.73,0,1,0,0-1.46h-2a.73.73,0,1,0,0,1.46Z"/><path class="cls-1" d="M37.7,30.25V6.62a6.74,6.74,0,0,0-13.48,0V30.25A11,11,0,0,0,19.79,39a11.17,11.17,0,0,0,22.34,0A11,11,0,0,0,37.7,30.25ZM31,48.54A9.62,9.62,0,0,1,21.28,39a9.49,9.49,0,0,1,4.11-7.79.75.75,0,0,0,.32-.6v-24a5.25,5.25,0,0,1,10.5,0v24a.76.76,0,0,0,.31.6A9.48,9.48,0,0,1,40.64,39,9.62,9.62,0,0,1,31,48.54Z"/><path class="cls-1" d="M34.22,31.71V6.62a3.26,3.26,0,0,0-6.52,0V25.44a.74.74,0,0,0,.74.73.74.74,0,0,0,.75-.73V11.88h3.54V32.2a.72.72,0,0,0,.48.68,6.46,6.46,0,1,1-4.51,0,.73.73,0,0,0,.49-.68V28.37a.75.75,0,0,0-.75-.74.74.74,0,0,0-.74.74v3.34a8,8,0,1,0,6.52,0Zm-5-21.29V6.62a1.77,1.77,0,0,1,3.54,0v3.8Z"/><path class="cls-1" d="M20,15.64a1,1,0,0,0,.63-1.91,1.75,1.75,0,0,1,0-3A1,1,0,0,0,20,8.79a1.76,1.76,0,0,1-1.81-2.45,1,1,0,0,0-1.66-1.18,1.79,1.79,0,0,1-2.92-.94,1.06,1.06,0,0,0-2.05,0,1.81,1.81,0,0,1-2.93.94A1,1,0,0,0,7,6.34,1.77,1.77,0,0,1,5.15,8.79a1,1,0,0,0-.64,1.91,1.75,1.75,0,0,1,0,3,1,1,0,0,0,.64,1.91A1.77,1.77,0,0,1,7,18.09a1,1,0,0,0,1.65,1.18,1.8,1.8,0,0,1,2.93.94,1.06,1.06,0,0,0,2.05,0,1.79,1.79,0,0,1,2.92-.94,1,1,0,0,0,1.66-1.18A1.76,1.76,0,0,1,20,15.64Zm-1-1.37a3.23,3.23,0,0,0-2.45,3.32,3.34,3.34,0,0,0-4,1.27,3.32,3.32,0,0,0-4-1.27,3.25,3.25,0,0,0-2.46-3.32,3.2,3.2,0,0,0,0-4.11A3.25,3.25,0,0,0,8.59,6.84a3.33,3.33,0,0,0,4-1.27,3.33,3.33,0,0,0,4,1.27A3.24,3.24,0,0,0,19,10.16,3.2,3.2,0,0,0,19,14.27Z"/><path class="cls-1" d="M12.56,8.18a4,4,0,1,0,4.11,4A4.08,4.08,0,0,0,12.56,8.18Zm0,6.61a2.58,2.58,0,1,1,2.62-2.58A2.61,2.61,0,0,1,12.56,14.79Z"/></svg>