<svg id="Layer_1" data-name="Layer 1" xmlns="http://www.w3.org/2000/svg" width="50" height="50" viewBox="0 0 50 50"><defs><style>.cls-1{fill:#4d9b40;}</style></defs><title>ri-visa</title><path class="cls-1" d="M47.8,24.13l-8.65-8.66a4.11,4.11,0,0,0-.82-.62V.83A.83.83,0,0,0,37.5,0H4.17A4.17,4.17,0,0,0,0,4.17V37.5a4.18,4.18,0,0,0,4.17,4.17H30.88A9.17,9.17,0,0,0,40,50h9.17a.83.83,0,0,0,.83-.83V29.43A7.43,7.43,0,0,0,47.8,24.13ZM1.67,37.5V4.17a2.5,2.5,0,0,1,2.5-2.5h32.5V33l-5.85-5.85A4.17,4.17,0,1,0,24.93,33l1,1a0,0,0,0,1,0,0h0l4.14,4.14A2.51,2.51,0,0,1,30.83,40L4.17,40A2.5,2.5,0,0,1,1.67,37.5ZM26.1,31.85a2.5,2.5,0,0,1,0-3.53,2.54,2.54,0,0,1,3.53,0l.44.43-3.53,3.54ZM48.33,48.33H40a7.5,7.5,0,0,1-7.5-7.5V40A4.17,4.17,0,0,0,31.28,37l-3.57-3.57,3.54-3.53,8.16,8.16a.83.83,0,0,0,1.18-1.18l-2.26-2.26V17l8.3,8.29a5.8,5.8,0,0,1,1.7,4.13Z"/><path class="cls-1" d="M4.17,10A.83.83,0,0,0,5,9.17V5.83A.83.83,0,0,1,5.83,5H15.5a.83.83,0,0,0,.83-.83.84.84,0,0,0-.83-.84H5.83a2.5,2.5,0,0,0-2.5,2.5V9.17A.84.84,0,0,0,4.17,10Z"/><path class="cls-1" d="M15.5,36.67H5.83A.84.84,0,0,1,5,35.83V32.5a.83.83,0,0,0-.83-.83.84.84,0,0,0-.84.83v3.33a2.5,2.5,0,0,0,2.5,2.5H15.5a.83.83,0,0,0,0-1.66Z"/><path class="cls-1" d="M28.5,14.17a8.34,8.34,0,1,0-8.33,8.33A8.33,8.33,0,0,0,28.5,14.17Zm-1.72-.84H25.14A11.71,11.71,0,0,0,24,8.69,6.71,6.71,0,0,1,26.78,13.33ZM19.33,7.75v5.58H16.86C17.05,10.51,18.14,8.43,19.33,7.75Zm0,7.25v5.58c-1.19-.68-2.28-2.76-2.47-5.58ZM21,20.58V15h2.47C23.29,17.82,22.19,19.9,21,20.58Zm0-7.25V7.75c1.19.69,2.29,2.77,2.47,5.58ZM16.37,8.69a11.71,11.71,0,0,0-1.18,4.64H13.56A6.66,6.66,0,0,1,16.37,8.69ZM13.56,15h1.63a11.71,11.71,0,0,0,1.18,4.64A6.64,6.64,0,0,1,13.56,15ZM24,19.64A11.71,11.71,0,0,0,25.14,15h1.64A6.69,6.69,0,0,1,24,19.64Z"/></svg>