<?xml version="1.0" encoding="iso-8859-1"?>
<!-- Generator: Adobe Illustrator 18.0.0, SVG Export Plug-In . SVG Version: 6.00 Build 0)  -->
<!DOCTYPE svg PUBLIC "-//W3C//DTD SVG 1.1//EN" "http://www.w3.org/Graphics/SVG/1.1/DTD/svg11.dtd">
<svg version="1.1" id="Capa_1" xmlns="http://www.w3.org/2000/svg" xmlns:xlink="http://www.w3.org/1999/xlink" x="0px" y="0px"
	 viewBox="0 0 255.415 255.415" style="enable-background:new 0 0 255.415 255.415;" xml:space="preserve">
<path d="M164.024,62.976L127.707,0L91.391,62.976H16.733l37.329,64.731l-37.329,64.731h74.658l36.316,62.976l36.316-62.976h74.658
	l-37.329-64.731l37.329-64.731H164.024z M68.519,162.346l10.854-18.822l10.854,18.822H68.519z M79.373,111.891L68.519,93.069h21.708
	L79.373,111.891z M127.707,59.711l10.125,17.557h-20.25L127.707,59.711z M127.707,195.704l-10.125-17.557h20.25L127.707,195.704z
	 M139.374,149.769H116.04l-12.722-22.062l12.722-22.061h23.334l12.722,22.061L139.374,149.769z M165.188,162.346l10.854-18.822
	l10.854,18.822H165.188z M176.042,111.891l-10.854-18.822h21.708L176.042,111.891z"/>
<g>
</g>
<g>
</g>
<g>
</g>
<g>
</g>
<g>
</g>
<g>
</g>
<g>
</g>
<g>
</g>
<g>
</g>
<g>
</g>
<g>
</g>
<g>
</g>
<g>
</g>
<g>
</g>
<g>
</g>
</svg>
