<?xml version="1.0" encoding="iso-8859-1"?>
<!-- Generator: Adobe Illustrator 19.0.0, SVG Export Plug-In . SVG Version: 6.00 Build 0)  -->
<svg version="1.1" id="Layer_1" xmlns="http://www.w3.org/2000/svg" xmlns:xlink="http://www.w3.org/1999/xlink" x="0px" y="0px"
	 viewBox="0 0 512 512" style="enable-background:new 0 0 512 512;" xml:space="preserve">
<g>
	<g>
		<path d="M398.566,333.203c-0.011,0-0.032,0-0.044,0h-0.202c10.571-14.027,16.921-31.408,16.921-50.287v-33.524
			c0-5.739-0.586-11.345-1.688-16.762h35.213c9.254,0,16.762-7.503,16.762-16.762c0-9.259-7.508-16.762-16.762-16.762H398.32
			c-3.766-4.996-8.032-9.586-12.798-13.627l40.73-40.73c6.547-6.542,6.547-17.16,0-23.703c-6.547-6.547-17.156-6.547-23.703,0
			l-47.882,47.882c-2.132-0.617-4.277-1.209-6.476-1.657V98.533c0-9.259-7.508-16.762-16.762-16.762s-16.762,7.503-16.762,16.762
			v68.738c-2.199,0.448-4.344,1.039-6.476,1.657l-47.882-47.882c-6.547-6.547-17.156-6.547-23.703,0
			c-6.547,6.542-6.547,17.16,0,23.703l40.73,40.73c-4.766,4.041-9.031,8.63-12.799,13.627h-50.445
			c-9.254,0-16.762,7.503-16.762,16.762c0,9.259,7.508,16.762,16.762,16.762h35.213c-1.104,5.418-1.688,11.023-1.688,16.762v33.524
			c0,18.879,6.348,36.26,16.921,50.287h-16.921c-46.216,0-83.811-37.595-83.811-83.811c0-12.926-5.038-24.607-13.079-33.524
			c8.041-8.917,13.079-20.599,13.079-33.524c0-5.906-1.211-11.493-3.089-16.762h19.851c9.254,0,16.762-7.503,16.762-16.762
			c0-9.259-7.508-16.762-16.762-16.762h-25.858c17.232-33.652,3.399-70.239-26.044-95.951c-9.287-8.114-18.89-16.501-21.825-25.804
			C104.922,4.168,99.237,0,92.809,0c-6.428,0.006-12.113,4.174-14.046,10.302c-5.565,17.706-0.95,30.861,2.423,40.465
			c4.783,13.624,5.336,15.993-7.017,36.858c-7.009,11.791-14.795,24.963-6.995,44.432H46.473c-9.254,0-16.762,7.503-16.762,16.762
			c0,9.259,7.508,16.762,16.762,16.762h19.851c-1.877,5.269-3.089,10.856-3.089,16.762c0,12.926,5.038,24.607,13.079,33.524
			c-8.041,8.917-13.079,20.598-13.079,33.524c0,55.628,40.312,123.648,93.774,158.226c25.23,16.325,40.301,43.984,40.312,74.011
			l0.011,13.609c0,9.259,7.508,16.762,16.762,16.762h251.433c9.254,0,16.762-7.503,16.762-16.762v-78.224
			C482.29,370.831,444.738,333.247,398.566,333.203z M114.884,132.057h-12.927c-1.552-1.296-3.32-3.228-4.957-5.97
			c-5.74-9.604-4.649-11.442,2.477-23.425c8.782-14.801,14.703-26.124,14.263-40.393
			C143.717,91.027,133.604,123.783,114.884,132.057z M381.716,478.476h-88.045l88.045-88.045V478.476z M381.716,282.917
			c0,27.729-22.557,50.287-50.287,50.287s-50.287-22.557-50.287-50.287v-16.762h16.762c12.926,0,24.607-5.038,33.524-13.079
			c8.917,8.041,20.599,13.079,33.524,13.079h16.762V282.917z"/>
	</g>
</g>
<g>
</g>
<g>
</g>
<g>
</g>
<g>
</g>
<g>
</g>
<g>
</g>
<g>
</g>
<g>
</g>
<g>
</g>
<g>
</g>
<g>
</g>
<g>
</g>
<g>
</g>
<g>
</g>
<g>
</g>
</svg>
