<?xml version="1.0" encoding="iso-8859-1"?>
<!-- Generator: Adobe Illustrator 19.0.0, SVG Export Plug-In . SVG Version: 6.00 Build 0)  -->
<svg version="1.1" id="Layer_1" xmlns="http://www.w3.org/2000/svg" xmlns:xlink="http://www.w3.org/1999/xlink" x="0px" y="0px"
	 viewBox="0 0 512.001 512.001" style="enable-background:new 0 0 512.001 512.001;" xml:space="preserve">
<g>
	<g>
		<path d="M510.364,439.297c-3.989-8.315-13.956-11.859-22.271-7.853c-23.282,11.14-51.085,9.157-72.574-5.163
			c-36.043-24.032-82.65-24.032-118.693,0c-24.792,16.537-56.835,16.548-81.65,0c-36.043-24.032-82.65-24.032-118.693,0
			c-21.489,14.321-49.303,16.293-72.574,5.163c-8.336-3.999-18.294-0.462-22.271,7.853c-3.978,8.315-0.456,18.288,7.859,22.266
			c33.847,16.201,74.27,13.332,105.508-7.5c24.792-16.527,56.835-16.537,81.65,0c18.021,12.022,38.684,18.032,59.346,18.032
			c20.662-0.006,41.325-6.01,59.347-18.032c24.804-16.533,56.846-16.533,81.65,0c31.238,20.826,71.65,23.716,105.508,7.5
			C510.82,457.585,514.341,447.612,510.364,439.297z"/>
	</g>
</g>
<g>
	<g>
		<path d="M510.363,372.517c-3.989-8.321-13.956-11.854-22.271-7.853c-22.954,10.99-50.276,9.158-71.636-4.622
			c11.569-15.564,19.202-33.766,21.984-53.012h17.902c27.618,0,50.086-22.467,50.086-50.086v-16.695h-77.911
			c-9.217,0-16.695-7.473-16.695-16.695c0-9.222,7.478-16.807,16.695-16.807h77.911v-49.974c0-9.222-7.478-16.695-16.695-16.695
			H398.93c-23.022,0-42.999,15.603-48.585,37.939l-20.739,82.976c-1.194,4.783-4.485,8.45-8.641,10.597l-4.543-12.482
			c-3.1-8.529-12.604-13.164-21.391-9.978l-15.698,5.714L205.109,50.889c-3.152-8.657-12.728-13.119-21.391-9.978
			c-8.663,3.152-13.13,12.733-9.978,21.402l74.222,203.95c-3.18,1.158-16.391,5.709-18.986,7.376h-94.952
			c-8.195,0-15.119-5.869-16.467-13.951l-12.043-72.27c-1.337-8.048-8.304-13.951-16.467-13.951H22.267
			c-9.217,0-16.695,7.473-16.695,16.695v66.781c0,44.636,20.167,86.508,53.379,114.701c-11.929,0.54-23.997-1.695-35.042-6.981
			c-8.336-3.989-18.294-0.462-22.271,7.853c-3.978,8.315-0.456,18.288,7.859,22.266c34.841,16.672,75.346,12.627,105.508-7.5
			c24.792-16.527,56.835-16.537,81.65,0c18.021,12.022,38.684,18.032,59.346,18.032c20.662-0.006,41.325-6.01,59.346-18.032
			c26.087-17.386,58.765-15.252,81.65,0c31.238,20.82,71.65,23.712,105.508,7.5C510.819,390.805,514.34,380.832,510.363,372.517z
			 M297.911,354.68c0,0,0,0-0.011,0c-8.69,3.149-18.219-1.296-21.391-9.978l-17.119-47.064l31.369-11.418l17.13,47.069
			C311.03,341.938,306.63,351.507,297.911,354.68z"/>
	</g>
</g>
<g>
</g>
<g>
</g>
<g>
</g>
<g>
</g>
<g>
</g>
<g>
</g>
<g>
</g>
<g>
</g>
<g>
</g>
<g>
</g>
<g>
</g>
<g>
</g>
<g>
</g>
<g>
</g>
<g>
</g>
</svg>
