<?xml version="1.0" encoding="iso-8859-1"?>
<!-- Generator: Adobe Illustrator 17.1.0, SVG Export Plug-In . SVG Version: 6.00 Build 0)  -->
<!DOCTYPE svg PUBLIC "-//W3C//DTD SVG 1.1//EN" "http://www.w3.org/Graphics/SVG/1.1/DTD/svg11.dtd">
<svg version="1.1" id="Capa_1" xmlns="http://www.w3.org/2000/svg" xmlns:xlink="http://www.w3.org/1999/xlink" x="0px" y="0px"
	 viewBox="0 0 471.875 471.875" style="enable-background:new 0 0 471.875 471.875;" xml:space="preserve">
<g>
	<path d="M454.394,327.619c-20.98-27.05-54.527-43.2-89.739-43.2c-30.25,0-61.065,12.002-89.113,34.708
		c-40.788,33.02-85.296,40.336-117.794,45.678c-27.904,4.587-49.944,8.209-49.944,28.084c0,37.358,63.919,76,170.885,76
		c114.676,0,177.343-26.949,191.583-82.386C474.983,368.166,469.195,346.703,454.394,327.619z"/>
	<path d="M242.797,301.014c0-8.284-6.716-15-15-15h-8.152v-46.377h75.008c3.141,0,5.797-1.464,7.103-3.917
		c1.321-2.48,1.043-5.546-0.743-8.203l-41.586-61.88h11.826c2.889,0,5.34-1.387,6.557-3.711c1.237-2.361,0.966-5.228-0.724-7.666
		l-43.34-62.623h14.107c3.932,0,5.559-2.373,6.075-3.393c0.512-1.011,1.458-3.697-0.82-6.803L198.101,6.545
		c-1.407-1.917-3.511-3.017-5.772-3.017c-2.283,0-4.411,1.117-5.836,3.06l-55.014,74.833c-1.581,2.156-1.886,4.704-0.816,6.816
		c0.518,1.022,2.147,3.4,6.074,3.4h14.093l-22.886,33.095L90.859,74.234c-1.41-1.922-3.518-3.025-5.783-3.025
		c-2.28,0-4.404,1.114-5.827,3.053l-41.242,56.11c-1.586,2.162-1.889,4.723-0.812,6.85c1.084,2.139,3.353,3.417,6.069,3.417h7.681
		l-31.175,44.952c-1.684,2.431-1.962,5.138-0.763,7.428c1.205,2.301,3.609,3.621,6.595,3.621h6.235L1.581,241.651
		c-1.8,2.678-2.077,5.632-0.759,8.105c1.314,2.466,3.909,3.881,7.119,3.881h54.704v32.377h-2.197c-8.284,0-15,6.716-15,15
		s6.716,15,15,15h167.349C236.081,316.014,242.797,309.299,242.797,301.014z M108.645,253.638h53.519
		c0.513,0,1.003-0.049,1.481-0.12v32.496h-55V253.638z"/>
	<path d="M315.436,100.002h21.26c0.766,2.331,1.706,4.582,2.804,6.742l-15.041,15.041c-5.858,5.858-5.858,15.355,0,21.213
		c2.929,2.929,6.768,4.394,10.606,4.394s7.678-1.464,10.606-4.394l15.041-15.041c2.16,1.098,4.41,2.037,6.741,2.803v21.26
		c0,8.284,6.716,15,15,15s15-6.716,15-15v-21.26c2.331-0.766,4.582-1.706,6.741-2.803l15.041,15.041
		c2.929,2.929,6.767,4.394,10.606,4.394c3.838,0,7.678-1.465,10.606-4.394c5.858-5.858,5.858-15.355,0-21.213l-15.041-15.041
		c1.098-2.16,2.038-4.411,2.804-6.742h21.26c8.284,0,15-6.716,15-15s-6.716-15-15-15h-21.26c-0.766-2.331-1.706-4.582-2.804-6.741
		l15.041-15.041c5.858-5.858,5.858-15.355,0-21.213c-5.857-5.858-15.355-5.858-21.213,0l-15.041,15.041
		c-2.16-1.098-4.411-2.038-6.742-2.804v-21.26c0-8.284-6.716-15-15-15s-15,6.716-15,15v21.26c-2.331,0.766-4.582,1.706-6.742,2.804
		l-15.041-15.041c-5.857-5.857-15.355-5.858-21.213,0c-5.858,5.857-5.858,15.355,0,21.213l15.041,15.041
		c-1.098,2.16-2.038,4.411-2.804,6.741h-21.26c-8.284,0-15,6.716-15,15S307.151,100.002,315.436,100.002z"/>
</g>
<g>
</g>
<g>
</g>
<g>
</g>
<g>
</g>
<g>
</g>
<g>
</g>
<g>
</g>
<g>
</g>
<g>
</g>
<g>
</g>
<g>
</g>
<g>
</g>
<g>
</g>
<g>
</g>
<g>
</g>
</svg>
