<?xml version="1.0" encoding="iso-8859-1"?>
<!-- Generator: Adobe Illustrator 19.0.0, SVG Export Plug-In . SVG Version: 6.00 Build 0)  -->
<svg version="1.1" id="Layer_1" xmlns="http://www.w3.org/2000/svg" xmlns:xlink="http://www.w3.org/1999/xlink" x="0px" y="0px"
	 viewBox="0 0 512 512" style="enable-background:new 0 0 512 512;" xml:space="preserve">
<g>
	<g>
		<path d="M225.045,354.944l-37.44-25.429c-4.885-3.307-11.499-2.069-14.805,2.816l-25.429,37.419
			c-2.432,3.563-2.475,8.256-0.107,11.861c2.005,3.051,5.376,4.821,8.917,4.821c0.661,0,1.344-0.064,2.005-0.192l62.869-12.011
			c4.224-0.811,7.552-4.096,8.448-8.32C230.357,361.707,228.608,357.355,225.045,354.944z"/>
	</g>
</g>
<g>
	<g>
		<path d="M223.189,44.971c-0.747-2.965-2.731-5.461-5.44-6.869C188.117,22.848,153.962,17.792,121.578,24
			C82.41,31.488,48.469,53.781,26.069,86.763C3.648,119.765-4.566,159.509,2.922,198.699
			c14.592,76.459,108.715,151.232,168.299,151.232c4.309,0,8.448-0.384,12.395-1.131c6.507-1.259,13.163-3.733,20.395-7.595
			c2.539-1.365,4.416-3.691,5.205-6.464c0.789-2.773,0.448-5.739-1.003-8.235c-3.52-6.187-4.971-12.907-4.203-19.477
			c0.875-7.595,4.885-14.784,11.221-20.245c3.733-3.179,4.8-8.491,2.603-12.864c-12.992-25.963-18.965-52.544-20.907-62.763
			c-10.453-54.571-4.437-107.413,16.533-144.96c2.048-3.648,4.416-7.061,6.763-10.475l1.429-2.091
			C223.381,51.093,223.936,47.957,223.189,44.971z M133.589,86.869C87.381,95.701,56.96,140.48,65.77,186.688
			c1.109,5.781-2.688,11.371-8.469,12.48c-0.683,0.128-1.365,0.192-2.027,0.192c-4.992,0-9.472-3.563-10.453-8.661
			C33.792,132.907,71.808,76.949,129.578,65.92c5.611-1.045,11.349,2.667,12.48,8.469C143.168,80.192,139.37,85.781,133.589,86.869z
			"/>
	</g>
</g>
<g>
	<g>
		<path d="M301.93,339.051l-12.352-43.563c-0.768-2.709-2.603-5.035-5.056-6.4c-2.453-1.387-5.397-1.728-8.128-0.939l-43.541,12.352
			c-4.139,1.173-7.189,4.736-7.68,9.024c-0.491,4.288,1.643,8.448,5.397,10.56l55.872,31.189c1.621,0.896,3.413,1.344,5.205,1.344
			c2.347,0,4.693-0.789,6.613-2.304C301.653,347.648,303.104,343.189,301.93,339.051z"/>
	</g>
</g>
<g>
	<g>
		<path d="M435.242,18.965C413.013,6.549,387.904,0,362.581,0c-54.144,0-104.149,29.333-130.496,76.587
			c-18.283,32.768-23.595,81.579-14.208,130.539c9.323,48.512,30.336,86.123,56.235,100.565c11.435,6.379,26.069,9.621,43.499,9.621
			c59.008,0,143.509-38.251,175.275-95.168C532.992,150.229,507.136,59.093,435.242,18.965z M418.56,70.72
			c-2.901,5.163-9.408,6.933-14.528,4.117c-19.904-11.115-42.944-13.781-64.853-7.573c-21.931,6.229-40.128,20.608-51.221,40.512
			c-1.963,3.499-5.589,5.461-9.323,5.461c-1.771,0-3.563-0.448-5.205-1.344c-5.12-2.859-6.976-9.365-4.096-14.507
			c13.867-24.875,36.629-42.859,64.043-50.645c27.371-7.765,56.192-4.416,81.088,9.472C419.584,59.093,421.44,65.579,418.56,70.72z"
			/>
	</g>
</g>
<g>
	<g>
		<path d="M269.077,320.32c-5.803-1.451-11.52,2.027-12.928,7.765l-32.32,129.28l-21.653-86.613
			c-1.429-5.739-7.275-9.28-12.928-7.765c-5.717,1.429-9.173,7.211-7.765,12.928l32,128c1.173,4.757,5.461,8.085,10.347,8.085
			c4.907,0,9.173-3.328,10.347-8.085l42.667-170.667C278.272,327.531,274.816,321.749,269.077,320.32z"/>
	</g>
</g>
<g>
</g>
<g>
</g>
<g>
</g>
<g>
</g>
<g>
</g>
<g>
</g>
<g>
</g>
<g>
</g>
<g>
</g>
<g>
</g>
<g>
</g>
<g>
</g>
<g>
</g>
<g>
</g>
<g>
</g>
</svg>
