<?xml version="1.0" encoding="iso-8859-1"?>
<!-- Generator: Adobe Illustrator 18.0.0, SVG Export Plug-In . SVG Version: 6.00 Build 0)  -->
<!DOCTYPE svg PUBLIC "-//W3C//DTD SVG 1.1//EN" "http://www.w3.org/Graphics/SVG/1.1/DTD/svg11.dtd">
<svg version="1.1" id="Capa_1" xmlns="http://www.w3.org/2000/svg" xmlns:xlink="http://www.w3.org/1999/xlink" x="0px" y="0px"
	 viewBox="0 0 196 196" style="enable-background:new 0 0 196 196;" xml:space="preserve">
<path d="M98,84.962c14.888,0,27-12.112,27-27s-12.112-27-27-27s-27,12.112-27,27S83.112,84.962,98,84.962z M98,45.962
	c6.617,0,12,5.383,12,12s-5.383,12-12,12s-12-5.383-12-12S91.383,45.962,98,45.962z M179.667,135.765h-165v-60.47
	c0-27.835,14.291-52.436,35.164-67.375c2.44-1.746,5.836,0.05,5.836,3.05v69.741c0,10.221,9.196,19.053,19.417,19.053h47.167
	c10.037,0,17.417-8.682,17.417-18.72V10.987c0-3.053,3.457-4.773,5.931-2.984c20.669,14.947,34.069,39.508,34.069,67.292V135.765z
	 M196,158.265c0,4.142-3.358,7.5-7.5,7.5h-8.833v23h-165v-23H7.5c-4.142,0-7.5-3.358-7.5-7.5s3.358-7.5,7.5-7.5h181
	C192.642,150.765,196,154.123,196,158.265z"/>
<g>
</g>
<g>
</g>
<g>
</g>
<g>
</g>
<g>
</g>
<g>
</g>
<g>
</g>
<g>
</g>
<g>
</g>
<g>
</g>
<g>
</g>
<g>
</g>
<g>
</g>
<g>
</g>
<g>
</g>
</svg>
