<?xml version="1.0" encoding="iso-8859-1"?>
<!-- Generator: Adobe Illustrator 16.0.0, SVG Export Plug-In . SVG Version: 6.00 Build 0)  -->
<!DOCTYPE svg PUBLIC "-//W3C//DTD SVG 1.1//EN" "http://www.w3.org/Graphics/SVG/1.1/DTD/svg11.dtd">
<svg version="1.1" id="Capa_1" xmlns="http://www.w3.org/2000/svg" xmlns:xlink="http://www.w3.org/1999/xlink" x="0px" y="0px"
	 width="170.331px" height="170.331px" viewBox="0 0 170.331 170.331" style="enable-background:new 0 0 170.331 170.331;"
	 xml:space="preserve">
<g>
	<path d="M154.651,37.589l0.011-1.155c0.109-13.459-3.466-23.475-10.626-29.77c-8.949-7.858-20.03-6.653-21.013-6.525
		c-0.069,0-0.121-0.037-0.194-0.037H46.94c-2.168-0.215-12.315-0.758-20.648,6.562c-7.161,6.294-10.735,16.311-10.623,29.775
		l0.008,1.176c0.011,6.273,0.042,16.273,10.804,24.25c-3.467,6.472-5.328,13.74-5.328,21.548c0,21.747,29.344,48.718,49.357,64.585
		c-4.868,7.503-9.863,11.582-14.286,11.582c-2.974,0-5.375,2.397-5.375,5.375c0,2.972,2.401,5.374,5.375,5.374h57.103
		c2.972,0,5.376-2.402,5.376-5.374c0-2.978-2.404-5.375-5.376-5.375c-4.414,0-9.416-4.079-14.293-11.576
		c20.015-15.863,49.349-42.84,49.349-64.591c0-7.648-1.784-14.764-5.113-21.128C154.608,54.233,154.651,43.976,154.651,37.589z
		 M58.174,36.784c-10.622,3.596-19.244,9.202-25.507,16.254c-6.166-4.703-6.229-9.945-6.239-15.449l-0.008-1.251
		c-0.084-10.126,2.226-17.363,6.876-21.518c5.381-4.816,12.556-4.021,12.701-4.016c0.118,0.016,0.226-0.031,0.344-0.021
		c0.118,0.005,0.226,0.068,0.344,0.068c9.881,0,17.921,6.585,17.921,14.674C64.621,29.894,62.276,33.967,58.174,36.784z
		 M129.222,90.478c-0.368,0.078-0.745,0.114-1.113,0.114c-2.488,0-4.724-1.732-5.259-4.267
		c-3.817-18.011-17.891-20.73-18.488-20.837c-2.898-0.525-4.861-3.289-4.368-6.197c0.494-2.908,3.213-4.903,6.132-4.408
		c0.892,0.14,21.863,3.812,27.255,29.227C133.988,87.008,132.131,89.863,129.222,90.478z M143.9,37.584
		c0,5.662,0,11.048-6.699,15.854c-6.257-7.21-14.95-12.94-25.7-16.606c-0.09-0.048-0.179-0.097-0.272-0.135
		c-4.022-2.81-6.32-6.848-6.32-11.165c0-8.095,8.042-14.672,17.921-14.672c0.194,0,0.361-0.092,0.546-0.115
		c0.319,0.018,0.62,0.11,0.945,0.065c0.078-0.005,7.286-0.821,12.704,4.016c4.65,4.15,6.96,11.391,6.871,21.523L143.9,37.584z"/>
</g>
<g>
</g>
<g>
</g>
<g>
</g>
<g>
</g>
<g>
</g>
<g>
</g>
<g>
</g>
<g>
</g>
<g>
</g>
<g>
</g>
<g>
</g>
<g>
</g>
<g>
</g>
<g>
</g>
<g>
</g>
</svg>
