<?xml version="1.0" encoding="iso-8859-1"?>
<!-- Generator: Adobe Illustrator 16.0.0, SVG Export Plug-In . SVG Version: 6.00 Build 0)  -->
<!DOCTYPE svg PUBLIC "-//W3C//DTD SVG 1.1//EN" "http://www.w3.org/Graphics/SVG/1.1/DTD/svg11.dtd">
<svg version="1.1" id="Capa_1" xmlns="http://www.w3.org/2000/svg" xmlns:xlink="http://www.w3.org/1999/xlink" x="0px" y="0px"
	 width="186.123px" height="186.123px" viewBox="0 0 186.123 186.123" style="enable-background:new 0 0 186.123 186.123;"
	 xml:space="preserve">
<g>
	<g>
		<path d="M158.575,115.404c-15.192,0-27.549,12.356-27.549,27.548c0,1.581,0.136,3.15,0.419,4.703H54.673
			c0.283-1.553,0.425-3.122,0.425-4.703c0-15.191-12.36-27.548-27.548-27.548C12.357,115.404,0,127.76,0,142.952
			c0,15.192,12.357,27.55,27.549,27.55h131.025c15.191,0,27.548-12.357,27.548-27.55
			C186.123,127.76,173.766,115.404,158.575,115.404z"/>
		<path d="M93.059,138.583c2.971,0,5.378-2.402,5.378-5.373V5.543c0-2.971-2.407-5.375-5.378-5.375
			c-2.974,0-5.375,2.405-5.375,5.375V133.21C87.684,136.181,90.09,138.583,93.059,138.583z"/>
		<path d="M76.933,138.583c2.971,0,5.375-2.402,5.375-5.373V5.543c0-2.971-2.404-5.375-5.375-5.375
			c-2.974,0-5.375,2.405-5.375,5.375V133.21C71.557,136.181,73.964,138.583,76.933,138.583z"/>
		<path d="M60.807,138.583c2.971,0,5.375-2.402,5.375-5.373V5.543c0-2.971-2.405-5.375-5.375-5.375
			c-2.975,0-5.376,2.405-5.376,5.375V133.21C55.431,136.181,57.838,138.583,60.807,138.583z"/>
		<path d="M109.189,138.583c2.971,0,5.373-2.402,5.373-5.373V5.543c0-2.971-2.402-5.375-5.373-5.375
			c-2.979,0-5.376,2.405-5.376,5.375V133.21C103.813,136.181,106.216,138.583,109.189,138.583z"/>
		<path d="M125.314,138.583c2.971,0,5.375-2.402,5.375-5.373V5.543c0-2.971-2.404-5.375-5.375-5.375
			c-2.977,0-5.376,2.405-5.376,5.375V133.21C119.938,136.181,122.342,138.583,125.314,138.583z"/>
		<path d="M158.239,175.205H27.882c-2.974,0-5.376,2.403-5.376,5.376c0,2.971,2.402,5.374,5.376,5.374h130.356
			c2.972,0,5.374-2.403,5.374-5.374C163.613,177.608,161.21,175.205,158.239,175.205z"/>
	</g>
</g>
<g>
</g>
<g>
</g>
<g>
</g>
<g>
</g>
<g>
</g>
<g>
</g>
<g>
</g>
<g>
</g>
<g>
</g>
<g>
</g>
<g>
</g>
<g>
</g>
<g>
</g>
<g>
</g>
<g>
</g>
</svg>
