<?xml version="1.0" encoding="iso-8859-1"?>
<!-- Generator: Adobe Illustrator 19.1.0, SVG Export Plug-In . SVG Version: 6.00 Build 0)  -->
<svg version="1.1" id="Capa_1" xmlns="http://www.w3.org/2000/svg" xmlns:xlink="http://www.w3.org/1999/xlink" x="0px" y="0px"
	 viewBox="0 0 155.644 155.644" style="enable-background:new 0 0 155.644 155.644;" xml:space="preserve">
<g id="XMLID_4_">
	<path id="XMLID_836_" style="fill:#020400;" d="M55.954,27.884c-0.37,3.863-0.736,7.757-1.115,11.649
		c-0.635,6.525-1.278,13.049-1.918,19.573c-0.764,7.783-1.532,15.566-2.291,23.35c-0.625,6.411-1.234,12.823-1.858,19.234
		c-0.763,7.841-1.539,15.68-2.3,23.521c-0.189,1.947-0.334,3.897-0.511,5.845c-0.223,2.455-1.284,3.075-3.417,1.929
		c-13.601-7.308-27.197-14.626-40.786-21.956c-2.054-1.108-2.275-2.404-0.832-4.526c12.994-19.112,25.99-38.221,38.987-57.33
		C44.6,42.279,49.29,35.387,53.98,28.494c0.259-0.38,0.492-0.785,0.798-1.123c0.219-0.242,0.603-0.601,0.803-0.541
		C55.995,26.955,56.059,27.426,55.954,27.884z"/>
	<path id="XMLID_831_" style="fill:#020400;" d="M102.684,60.667c0.515-5.426,1.007-10.695,1.518-15.962
		c0.644-6.64,1.304-13.278,1.956-19.916c0.017-0.172,0.001-0.348,0.029-0.517c0.145-0.877-0.082-2.054,0.961-2.384
		c0.979-0.31,1.46,0.761,2.01,1.37c15.14,16.748,30.265,33.509,45.386,50.275c1.701,1.886,1.451,2.967-0.902,4.009
		c-8.074,3.577-16.151,7.148-24.232,10.711c-2.43,1.071-3.773,0.817-5.528-1.121c-6.494-7.173-12.969-14.363-19.448-21.549
		C103.135,64.141,102.62,62.424,102.684,60.667z"/>
	<path id="XMLID_815_" style="fill:#020400;" d="M103.024,24.443c-0.626,6.521-1.231,12.874-1.846,19.225
		c-0.405,4.177-0.825,8.352-1.237,12.529c-0.045,0.458-0.022,0.931-0.131,1.372c-0.338,1.37-1.042,1.603-2.035,0.614
		c-1.018-1.014-1.941-2.124-2.904-3.192c-2.004-2.224-4.02-4.436-6.007-6.676c-1.399-1.577-1.541-3.264-0.354-5.019
		c4.346-6.426,8.721-12.832,13.093-19.241c0.275-0.404,0.488-1.07,1.132-0.826C103.396,23.48,102.83,24.167,103.024,24.443z"/>
	<path id="XMLID_64_" style="fill:#020400;" d="M127.658,98.048c-0.307-0.54-0.762-1.004-1.183-1.471
		c-11.295-12.532-22.593-25.063-33.894-37.59c-9.835-10.902-19.674-21.801-29.516-32.698c-0.489-0.541-0.921-1.316-1.801-1.098
		c-0.971,0.24-0.78,1.178-0.852,1.878c-0.668,6.52-1.323,13.042-1.955,19.566c-0.744,7.669-1.453,15.342-2.193,23.012
		c-0.763,7.898-1.545,15.794-2.321,23.691c-0.636,6.467-1.28,12.932-1.911,19.399c-0.615,6.295-1.218,12.591-1.883,19.483
		c-0.059,1.518,0.783,2.057,2.827,1.153c18.301-8.092,36.599-16.19,54.899-24.285c6.083-2.691,12.168-5.376,18.248-8.073
		C127.945,100.205,128.398,99.351,127.658,98.048z M77.847,58.711c-0.059,0.184-0.129,0.357-0.214,0.512
		C77.718,59.067,77.787,58.895,77.847,58.711z M77.556,59.344c-0.028,0.045-0.054,0.092-0.085,0.134
		C77.502,59.436,77.528,59.389,77.556,59.344z M77.896,58.545c0.052-0.195,0.094-0.403,0.119-0.627
		C77.989,58.143,77.948,58.35,77.896,58.545z"/>
</g>
<g>
</g>
<g>
</g>
<g>
</g>
<g>
</g>
<g>
</g>
<g>
</g>
<g>
</g>
<g>
</g>
<g>
</g>
<g>
</g>
<g>
</g>
<g>
</g>
<g>
</g>
<g>
</g>
<g>
</g>
</svg>
