<?xml version="1.0" encoding="iso-8859-1"?>
<!-- Generator: Adobe Illustrator 18.0.0, SVG Export Plug-In . SVG Version: 6.00 Build 0)  -->
<!DOCTYPE svg PUBLIC "-//W3C//DTD SVG 1.1//EN" "http://www.w3.org/Graphics/SVG/1.1/DTD/svg11.dtd">
<svg version="1.1" id="Capa_1" xmlns="http://www.w3.org/2000/svg" xmlns:xlink="http://www.w3.org/1999/xlink" x="0px" y="0px"
	 viewBox="0 0 60.075 60.075" style="enable-background:new 0 0 60.075 60.075;" xml:space="preserve">
<path d="M58.575,52.419h-5.026V37.667c0-0.829-0.672-1.5-1.5-1.5h-3.784v-7.795c0-0.829-0.672-1.5-1.5-1.5h-9.561
	c-0.828,0-1.5,0.671-1.5,1.5v24.047h-1.586V6.156c0-0.646-0.413-1.219-1.025-1.423c-0.612-0.204-1.287,0.006-1.675,0.523
	L20.489,19.828c-0.194,0.26-0.3,0.575-0.3,0.9v31.691h-1.555V20.721c0-0.829-0.672-1.5-1.5-1.5h-3.054v-8.208
	c0-0.829-0.672-1.5-1.5-1.5c-0.828,0-1.5,0.671-1.5,1.5v8.208H8.027c-0.828,0-1.5,0.671-1.5,1.5v31.698H1.5
	c-0.828,0-1.5,0.671-1.5,1.5c0,0.829,0.672,1.5,1.5,1.5h57.075c0.828,0,1.5-0.671,1.5-1.5
	C60.075,53.091,59.403,52.419,58.575,52.419z M9.527,52.419V22.221h6.108v30.198H9.527z M23.189,52.419V21.228l7.929-10.572v41.763
	H23.189z"/>
<g>
</g>
<g>
</g>
<g>
</g>
<g>
</g>
<g>
</g>
<g>
</g>
<g>
</g>
<g>
</g>
<g>
</g>
<g>
</g>
<g>
</g>
<g>
</g>
<g>
</g>
<g>
</g>
<g>
</g>
</svg>
