<?xml version="1.0" encoding="iso-8859-1"?>
<!-- Generator: Adobe Illustrator 18.1.1, SVG Export Plug-In . SVG Version: 6.00 Build 0)  -->
<svg version="1.1" id="Capa_1" xmlns="http://www.w3.org/2000/svg" xmlns:xlink="http://www.w3.org/1999/xlink" x="0px" y="0px"
	 viewBox="0 0 262 262" style="enable-background:new 0 0 262 262;" xml:space="preserve">
<g>
	<g>
		<path style="fill:#030104;" d="M246.969,234.514h-19.968l-1.509,16.32H37.367l-1.509-16.32H15.032
			c-7.59,0-13.743,6.152-13.743,13.742v0.001c0,7.591,6.153,13.743,13.743,13.743h231.937c7.591,0,13.743-6.152,13.743-13.743
			v-0.001C260.712,240.666,254.56,234.514,246.969,234.514z"/>
		<path style="fill:#030104;" d="M248.686,0H14.175h-0.001l21.685,234.513h191.142L248.686,0z M25.772,13.743L25.772,13.743h211.317
			l-20.9,210.464H46.671L25.772,13.743z"/>
		<path style="fill:#030104;" d="M46.672,29.204l16.766,179.538h135.986L216.19,29.204C216.19,29.204,46.672,29.204,46.672,29.204z
			 M106.465,96.403l-4.447-6.628c-1.579-2.37-2.656-3.858-3.238-4.473c-0.583-0.619-1.198-1.037-1.85-1.271
			c-0.654-0.226-1.68-0.34-3.098-0.34h-1.241v12.712h-6.154V65.957h12.945c3.255,0,5.616,0.275,7.088,0.821
			c1.476,0.546,2.66,1.517,3.545,2.914c0.886,1.403,1.325,2.998,1.325,4.8c0,2.281-0.673,4.174-2.014,5.662
			c-1.339,1.484-3.353,2.426-6.025,2.808c1.333,0.78,2.431,1.631,3.295,2.56c0.866,0.929,2.029,2.573,3.496,4.941l3.722,5.941
			h-7.349V96.403z M122.932,96.403h-5.836v-5.835h5.836V96.403z M134.911,96.403h-6.146V65.957h6.146V96.403z M146.567,96.403
			h-5.836v-5.835h5.836V96.403z M172.307,83.039c-1.04,0.725-2.106,1.206-3.183,1.439c-1.467,0.291-3.594,0.438-6.381,0.438h-4.006
			v11.486h-6.145V65.957h9.859c3.738,0,6.174,0.156,7.309,0.459c1.746,0.455,3.215,1.447,4.391,2.978
			c1.176,1.532,1.764,3.508,1.764,5.927c0,1.872-0.34,3.444-1.021,4.714C174.213,81.31,173.356,82.309,172.307,83.039z
			 M181.276,96.403h-5.838v-5.835h5.838V96.403z"/>
		<path style="fill:#030104;" d="M104.387,77.17c0.41-0.608,0.624-1.366,0.624-2.283c0-1.026-0.276-1.85-0.824-2.481
			c-0.544-0.63-1.316-1.027-2.316-1.196c-0.496-0.065-1.992-0.099-4.488-0.099h-4.792v7.72h4.545c2.948,0,4.792-0.12,5.53-0.37
			C103.395,78.214,103.969,77.779,104.387,77.17z"/>
		<path style="fill:#030104;" d="M166.133,71.315c-0.737-0.143-2.212-0.206-4.423-0.206h-2.973v8.634h3.362
			c2.423,0,4.046-0.156,4.862-0.476c0.814-0.319,1.454-0.815,1.922-1.495c0.459-0.68,0.693-1.468,0.693-2.367
			c0-1.105-0.325-2.021-0.977-2.745C167.954,71.946,167.125,71.491,166.133,71.315z"/>
	</g>
</g>
<g>
</g>
<g>
</g>
<g>
</g>
<g>
</g>
<g>
</g>
<g>
</g>
<g>
</g>
<g>
</g>
<g>
</g>
<g>
</g>
<g>
</g>
<g>
</g>
<g>
</g>
<g>
</g>
<g>
</g>
</svg>
