<?xml version="1.0" encoding="iso-8859-1"?>
<!-- Generator: Adobe Illustrator 18.1.1, SVG Export Plug-In . SVG Version: 6.00 Build 0)  -->
<svg version="1.1" id="Capa_1" xmlns="http://www.w3.org/2000/svg" xmlns:xlink="http://www.w3.org/1999/xlink" x="0px" y="0px"
	 viewBox="0 0 25.962 25.962" style="enable-background:new 0 0 25.962 25.962;" xml:space="preserve">
<g>
	<g>
		<path style="fill:#030104;" d="M6.915,20.365l0.122,0.072c0.242,0.143,0.496,0.257,0.754,0.357
			c0.203,0.065,0.406,0.129,0.608,0.194c1.225,0.306,2.537,0.158,3.676-0.461l0.664-0.361c1.308-0.711,2.892-0.683,4.174,0.073
			c1.546,0.913,3.459,0.947,5.037,0.09l0.303-0.165c0.641-0.348,1.346-0.513,2.049-0.508l0.931-3.283L0.115,15.066l4.123,4.669
			C5.159,19.675,6.094,19.881,6.915,20.365z"/>
		<path style="fill:#030104;" d="M14.942,0v14.312l7.382,0.384C22.93,4.684,14.942,0,14.942,0z"/>
		<polygon style="fill:#030104;" points="13.232,1.226 7.661,13.932 13.232,14.222 		"/>
		<path style="fill:#030104;" d="M24.207,20.83c-0.695,0-1.389,0.171-2.021,0.514l-0.235,0.129
			c-0.762,0.413-1.603,0.619-2.441,0.619c-0.899,0-1.796-0.236-2.596-0.709c-0.664-0.392-1.408-0.588-2.152-0.588
			c-0.694,0-1.391,0.171-2.021,0.514l-0.785,0.427c-0.726,0.394-1.526,0.592-2.326,0.592c-0.856,0-1.712-0.227-2.474-0.677
			c-0.734-0.434-1.555-0.649-2.375-0.649c-0.46,0-0.919,0.07-1.362,0.205v1.324c0.428-0.187,0.889-0.288,1.362-0.288
			c0.613,0,1.216,0.165,1.744,0.478c0.94,0.555,2.013,0.849,3.105,0.849c1.016,0,2.025-0.257,2.918-0.742l0.785-0.427
			c0.438-0.237,0.931-0.363,1.429-0.363c0.534,0,1.061,0.145,1.521,0.416c0.978,0.576,2.092,0.881,3.227,0.881
			c1.058,0,2.104-0.267,3.033-0.77l0.237-0.129c0.437-0.237,0.931-0.363,1.428-0.363c0.563,0,1.112,0.158,1.588,0.457l0.051,0.031
			v-1.394C25.323,20.945,24.765,20.83,24.207,20.83z"/>
		<path style="fill:#030104;" d="M22.186,23.736l-0.235,0.129c-0.762,0.413-1.603,0.619-2.441,0.619
			c-0.899,0-1.796-0.236-2.596-0.709c-0.664-0.392-1.408-0.588-2.152-0.588c-0.694,0-1.391,0.171-2.021,0.514l-0.785,0.427
			C11.23,24.523,10.43,24.72,9.63,24.72c-0.856,0-1.712-0.227-2.474-0.677c-0.734-0.434-1.555-0.649-2.375-0.649
			c-0.46,0-0.919,0.07-1.362,0.205v1.324c0.428-0.187,0.889-0.288,1.362-0.288c0.613,0,1.216,0.165,1.744,0.478
			c0.94,0.555,2.013,0.849,3.105,0.849c1.016,0,2.025-0.257,2.918-0.742l0.785-0.427c0.438-0.237,0.931-0.363,1.429-0.363
			c0.534,0,1.061,0.145,1.521,0.416c0.978,0.576,2.092,0.881,3.227,0.881c1.058,0,2.104-0.267,3.033-0.77l0.237-0.129
			c0.437-0.237,0.931-0.363,1.428-0.363c0.563,0,1.112,0.159,1.588,0.457l0.051,0.031v-1.395c-0.523-0.221-1.081-0.336-1.639-0.336
			C23.512,23.222,22.819,23.393,22.186,23.736z"/>
	</g>
</g>
<g>
</g>
<g>
</g>
<g>
</g>
<g>
</g>
<g>
</g>
<g>
</g>
<g>
</g>
<g>
</g>
<g>
</g>
<g>
</g>
<g>
</g>
<g>
</g>
<g>
</g>
<g>
</g>
<g>
</g>
</svg>
