<?xml version="1.0" encoding="iso-8859-1"?>
<!-- Generator: Adobe Illustrator 19.0.0, SVG Export Plug-In . SVG Version: 6.00 Build 0)  -->
<svg version="1.1" id="Layer_1" xmlns="http://www.w3.org/2000/svg" xmlns:xlink="http://www.w3.org/1999/xlink" x="0px" y="0px"
	 viewBox="0 0 512 512" style="enable-background:new 0 0 512 512;" xml:space="preserve">
<g>
	<g>
		<path d="M495.304,455.401h-16.892C474.293,158.687,361.25,23.206,256.011,23.206c-105.251,0-218.305,135.482-222.424,432.196
			H16.696C7.479,455.402,0,462.875,0,472.098c0,9.223,7.479,16.696,16.696,16.696h478.609c9.217,0,16.696-7.473,16.696-16.696
			C512,462.875,504.521,455.401,495.304,455.401z M167.086,455.401c1.328-131.331,17.997-210.538,32.11-254.201
			c19.174-59.315,41.913-80.451,56.804-80.451c36.114,0,86.589,104.044,88.931,334.652H167.086z"/>
	</g>
</g>
<g>
</g>
<g>
</g>
<g>
</g>
<g>
</g>
<g>
</g>
<g>
</g>
<g>
</g>
<g>
</g>
<g>
</g>
<g>
</g>
<g>
</g>
<g>
</g>
<g>
</g>
<g>
</g>
<g>
</g>
</svg>
