<?xml version="1.0" encoding="UTF-8" standalone="no"?>
<!-- Created with Inkscape (http://www.inkscape.org/) -->

<svg
   xmlns:dc="http://purl.org/dc/elements/1.1/"
   xmlns:cc="http://creativecommons.org/ns#"
   xmlns:rdf="http://www.w3.org/1999/02/22-rdf-syntax-ns#"
   xmlns:svg="http://www.w3.org/2000/svg"
   xmlns="http://www.w3.org/2000/svg"
   xmlns:sodipodi="http://sodipodi.sourceforge.net/DTD/sodipodi-0.dtd"
   xmlns:inkscape="http://www.inkscape.org/namespaces/inkscape"
   width="1354.1746"
   height="800"
   id="svg2"
   version="1.1"
   inkscape:version="0.48.0 r9654"
   sodipodi:docname="Петроглиф Eagle.svg">
  <defs
     id="defs4" />
  <sodipodi:namedview
     id="base"
     pagecolor="#ffffff"
     bordercolor="#666666"
     borderopacity="1.0"
     inkscape:pageopacity="0.0"
     inkscape:pageshadow="2"
     inkscape:zoom="0.35"
     inkscape:cx="125.83704"
     inkscape:cy="198.68587"
     inkscape:document-units="px"
     inkscape:current-layer="layer1"
     showgrid="false"
     inkscape:window-width="1280"
     inkscape:window-height="904"
     inkscape:window-x="-4"
     inkscape:window-y="-4"
     inkscape:window-maximized="1"
     fit-margin-top="0"
     fit-margin-left="0"
     fit-margin-right="0"
     fit-margin-bottom="0" />
  <metadata
     id="metadata7">
    <rdf:RDF>
      <cc:Work
         rdf:about="">
        <dc:format>image/svg+xml</dc:format>
        <dc:type
           rdf:resource="http://purl.org/dc/dcmitype/StillImage" />
        <dc:title></dc:title>
      </cc:Work>
    </rdf:RDF>
  </metadata>
  <g
     inkscape:label="Layer 1"
     inkscape:groupmode="layer"
     id="layer1"
     transform="translate(-250.41599,181.6747)">
    <path
       style="font-size:medium;font-style:normal;font-variant:normal;font-weight:normal;font-stretch:normal;text-indent:0;text-align:start;text-decoration:none;line-height:normal;letter-spacing:normal;word-spacing:normal;text-transform:none;direction:ltr;block-progression:tb;writing-mode:lr-tb;text-anchor:start;baseline-shift:baseline;color:#000000;fill:#000000;stroke:none;stroke-width:0.30000001;marker:none;visibility:visible;display:inline;overflow:visible;enable-background:accumulate;font-family:Sans;-inkscape-font-specification:Sans"
       d="m 858.87488,-178.03807 c -18.94345,3.31782 -29.87159,34.05283 -29.39219,50.05935 1.20525,40.240716 43.00462,70.58968 14.1281,142.552517 C 699.32294,8.9207495 547.29768,-20.488481 397.44544,1.5757206 346.48496,9.0791199 329.05622,9.9652342 283.26029,32.39003 246.30702,50.484847 233.69241,95.653983 281.79685,78.61423 322.292,64.269847 334.835,64.407918 379.54313,56.009272 l -84.24384,85.575908 c -18.78997,19.08708 10.84328,40.98116 25.9957,27.69107 9.51804,-8.34819 69.56296,-70.764955 108.10305,-101.836238 11.41506,-9.202885 40.1262,-17.633721 27.22939,9.755079 -19.38501,41.167519 -73.29956,100.478539 -79.24389,111.154319 -12.57559,22.5852 17.96113,36.76045 29.81029,21.33343 7.44313,-9.69061 49.56471,-83.10446 83.41749,-116.981924 5.0612,-5.064912 42.06963,-33.477219 25.41082,6.339561 -14.20929,33.962183 -47.05611,85.989213 -51.60951,97.644513 -9.63293,24.65739 23.31416,34.81263 33.20103,17.51884 6.21053,-10.86322 37.19921,-72.74149 57.21694,-108.33923 26.14684,-46.49718 35.36392,-1.40156 29.99172,9.01788 -13.42717,26.04204 -34.60408,68.01407 -40.30338,82.08507 -12.10938,29.89686 29.5483,41.51984 40.97149,20.20318 7.19236,-13.4216 33.28779,-71.27479 51.94841,-105.87407 15.12855,-28.050358 46.10435,-33.030365 36.22648,8.74898 -7.82444,33.09424 -29.68646,83.58368 -32.51018,96.70125 -5.97395,27.75206 30.64341,32.85739 38.14586,12.85657 4.71255,-12.5633 29.94005,-66.03672 40.86606,-100.5153 18.76596,-59.218387 53.01138,-29.571261 39.09672,5.77525 -12.24122,31.09556 -26.67127,64.42282 -37.86104,113.38914 -6.66109,29.14886 25.32298,37.23773 36.02665,17.8014 24.93679,-45.28157 35.80417,-98.37632 55.36393,-141.60225 10.51175,-23.23043 27.35335,-29.874979 28.86327,0.25589 1.87947,37.50511 5.63827,112.51527 5.63827,112.51527 1.00008,19.95693 0.7498,22.53543 -11.11861,30.81223 -25.89326,18.05752 -88.62844,72.23306 -173.66381,141.24035 -23.35585,18.95358 -48.77033,13.32657 -55.31519,7.82258 l -47.56147,-39.99758 c -37.90869,-31.8799 -50.66806,18.04943 -23.7352,36.4505 68.8287,47.02514 37.75371,48.0297 -27.69085,85.75778 -26.55359,15.30785 -0.91952,48.98137 19.63806,38.71099 108.55054,-54.23092 103.85129,-61.45035 94.09313,53.26293 -2.68352,31.54649 42.88437,24.42163 43.37327,0.84769 0.29974,-14.45741 0.66377,-69.49442 10.25257,-102.44734 3.93005,-13.50606 8.23213,-28.61693 18.98269,-37.68798 57.09212,-48.17302 131.37436,-94.07863 166.85126,-136.84784 -8.8332,88.17376 -43.39216,159.8973 -78.68202,239.96754 -6.36321,14.4377 3.93669,30.25402 18.64909,30.94054 l 217.99652,10.17223 c 15.6211,0.72892 26.7222,-15.19008 21.4747,-28.82132 -35.5139,-92.25359 -61.36554,-159.71393 -89.81732,-252.17856 -2.73108,-7.4458 180.32832,147.34468 188.21922,154.20772 10.1056,8.7894 12.1676,18.50858 6.2936,30.73601 l -21.7463,45.26742 c -13.9758,29.09217 27.5031,40.65963 38.711,19.49678 l 20.5645,-41.74779 c 10.9239,-21.28799 15.2696,-12.32318 29.6853,11.11386 12.2506,19.91691 27.541,48.97708 42.6959,73.36964 16.4368,26.45594 47.5038,-2.18409 36.8743,-22.88752 -33.8284,-65.88853 -91.3058,-97.0821 1.9779,-90.27855 41.0311,2.99258 35.0267,-43.40016 4.8036,-43.0907 l -53.1647,0.54433 c -22.9726,0.23509 -39.2685,-6.03178 -53.6989,-17.11435 L 985.12605,272.6234 c -20.61115,-20.58172 -28.8135,-37.3933 -29.69066,-62.82112 -0.80401,-23.30725 -0.0832,-55.95459 0.25272,-79.24552 0.6744,-46.759032 27.18111,-21.93061 29.47339,18.26702 2.10235,36.86665 7.37324,69.53905 11.59801,83.74644 8.20539,27.59365 41.98499,19.00191 40.68889,-2.54306 l -5.3317,-88.63078 c -2.6575,-44.17714 41.7971,-46.614361 48.7656,3.18427 l 12.3721,88.41341 c 4.8903,34.94709 51.5334,19.38688 47.8943,-6.6402 l -5.2935,-90.45175 c -3.6492,-62.356273 35.2225,-39.190984 41.7603,-2.15335 l 19.3392,109.55882 c 5.5563,31.47736 47.5794,15.87998 44.0796,-7.77046 l -16.017,-108.23918 c -5.9053,-39.906657 16.696,-39.198941 25.3735,-5.50273 l 24.343,94.5277 c 7.5776,29.42519 39.3783,13.39149 34.6805,-8.9007 l -19.0095,-90.205 c -4.2996,-20.402734 23.0702,-42.274025 36.8334,0.0362 l 24.1365,74.20227 c 9.297,28.58152 44.6746,10.73184 38.7109,-10.73736 l -16.1655,-58.1961 c -11.1581,-40.168919 25.0879,-32.415373 43.5741,-4.10881 14.2903,21.88187 29.7936,68.92735 36.2977,80.55313 13.0827,23.38451 43.3456,1.86983 36.1794,-16.97669 -4.7346,-12.45171 -19.659,-47.19205 -36.4505,-76.85686 44.1071,23.79466 74.1807,48.01538 111.4477,81.33771 23.7847,21.26701 49.6849,-7.08933 35.6602,-26.22646 C 1574.7379,124.9152 1524.579,83.593876 1462.1217,66.891887 1302.5871,24.230002 1098.5115,-6.5965141 943.92029,6.095175 c -1.45942,-32.211115 -4.13892,-66.862345 -4.23843,-96.353632 19.16833,-2.082459 85.71764,8.22617 129.40764,9.35895 19.0367,0.493602 35.7325,-33.453163 18.8248,-42.707003 -76.1011,-41.65135 -150.84743,-68.12655 -229.03942,-54.4317 z"
       id="path3074"
       inkscape:connector-curvature="0"
       sodipodi:nodetypes="cscssscsssssssssssssssssssssssssssssssssssscsssscssscsssssssscssssssssssssssssssssssssscsssccsssc" />
  </g>
</svg>
